M48
;FILE_FORMAT=2:4
INCH
;TYPE=PLATED
T01C0.010
T02C0.018
T03C0.025
T04C0.035
T05C0.038
T06C0.039
T07C0.042
T09C0.047
T10C0.051
T11C0.059
T12C0.063
T13C0.065
T14C0.075
T15C0.079
T16C0.098
T19C0.197
;TYPE=NON_PLATED
T08C0.047
T17C0.125
T18C0.150
%
T01
X+055900Y+088700
X+054900Y+088750
X+055450Y+087300
X+058300Y+076950
X+058650Y+096750
X+061100Y+097550
X+060950Y+097750
X+061250
X+061900Y+100000
X+061750Y+099850
X+062050
X+065450Y+091650
X+064500Y+094800
X+067650Y+090750
X+068350Y+090700
X+067650Y+091450
X+068350Y+091900
X+067700Y+095200
X+069650Y+089300
X+069680Y+087900
X+069430Y+088240
X+071300Y+092500
X+069650Y+091550
X+070650
X+069650Y+090400
X+070700
X+069650Y+094700
X+071310Y+115310
X+072400Y+090350
X+073600Y+090600
X+072650Y+100000
X+073350Y+115800
X+072650Y+115320
X+077100Y+078550
X+077200Y+081600
X+076200Y+091750
X+075750Y+090950
X+076100Y+092150
X+075500Y+093850
X+076600Y+093900
X+075700Y+121900
X+075350Y+121400
X+078600Y+081350
X+080400Y+091750
X+080050Y+092150
X+067750Y+093150
X+067550Y+092800
X+069600Y+084200
X+075500Y+095800
X+077700
X+078800Y+078050
X+054050Y+082600
Y+083050
Y+082100
X+056900Y+088700
X+053900Y+088800
X+050900Y+091850
X+069050Y+075450
X+069200Y+089700
X+072050Y+088250
X+072000Y+092500
X+068900Y+092200
X+072150Y+093600
X+069200Y+094700
X+065950Y+094800
X+072170Y+115240
X+078000Y+081550
X+078050Y+093600
X+050950Y+092750
X+078100Y+078100
X+080950Y+089950
T02
X+052300Y+092600
X+052800Y+094900
X+058750Y+092300
X+058650Y+115400
X+057600Y+116550
X+061300Y+091850
X+060450Y+091700
X+062750Y+091750
X+062000Y+091850
X+063550Y+091600
X+064350
X+064300Y+094050
X+065650Y+096400
X+073650Y+098500
X+073550Y+114250
X+057800Y+093200
X+059800Y+116200
T03
X+017100Y+109900
Y+110550
X+019000Y+109900
Y+110550
X+023050Y+109900
X+022150
X+023050Y+110550
X+022150
X+029450Y+096900
X+030900Y+077400
X+030950Y+096900
X+031650
X+032350
X+031400Y+105800
X+032100
X+030600
X+034500Y+078450
X+033500Y+089400
Y+090400
X+034050Y+097550
X+034750
X+035400
X+034400Y+106250
X+035100
X+038160Y+103010
X+037760Y+103000
X+045500Y+078450
X+046150Y+081600
X+049650Y+104000
X+048500Y+107000
X+049000
X+049500
X+050000
X+050500
Y+106500
X+050000
X+049500
X+049000
X+048500
Y+106000
X+049000
X+049500
X+050000
X+050500
X+050450Y+110350
Y+109900
Y+109450
Y+111250
Y+111700
Y+113050
Y+113500
Y+112150
Y+112600
Y+114400
X+050600Y+117950
Y+118850
Y+118400
Y+119300
Y+117500
Y+122000
Y+121550
Y+120650
Y+121100
X+052100Y+081600
X+051450Y+104000
X+053250
X+053150Y+109450
X+051350
X+052250
X+051800
X+052700
X+053600
X+053150Y+114400
X+051350
X+052250
X+051800
X+052700
X+053600
X+053300Y+122000
X+051500
X+052400
X+051950
X+052850
X+055950Y+086000
X+055050Y+103950
X+054950Y+109450
X+055850
X+054500
X+055400
X+056300
X+056650Y+110350
Y+109900
Y+111250
Y+111700
Y+113050
Y+113500
Y+112150
Y+112600
X+054950Y+114400
X+055850
X+054500
X+055400
X+056300
X+056650Y+117950
Y+118850
Y+119300
Y+118400
Y+117500
X+055100Y+122000
X+056000
X+054650
X+055550
X+056450
X+056650Y+120650
Y+121100
Y+121550
X+058650Y+103950
X+061110Y+084610
Y+085160
X+060450Y+103950
X+061200Y+113600
X+060400
X+060800
X+060450Y+121150
X+060850
X+061250
X+063350Y+106350
Y+105600
X+063850Y+106350
Y+105600
X+065100Y+109550
X+064650
X+065550
X+064750Y+110450
Y+110000
Y+111350
Y+111800
Y+112250
Y+112700
Y+113150
Y+117550
Y+118450
Y+118000
Y+118900
Y+119350
X+065350Y+122000
X+064900
X+064750Y+121600
Y+121150
Y+120250
Y+120700
X+066800Y+086700
X+067350
X+066800Y+085100
X+067350
X+066800Y+087500
X+067350
X+066900Y+109550
X+066450
X+067350
X+067800
X+068250
X+068700
X+067150Y+122000
X+066250
X+066700
X+068500
X+068050
X+067600
X+070950Y+110200
X+069600Y+109550
X+070950Y+110650
X+070050Y+109550
X+070500
X+070950
Y+112900
Y+113350
X+070940Y+111540
Y+111990
Y+112440
X+070750Y+117950
Y+118850
Y+119300
Y+118400
Y+117500
X+069850Y+122000
X+069400
X+070300
X+070750
Y+121550
Y+120650
Y+121100
X+033500Y+089900
X+050600Y+119750
Y+120200
X+050450Y+110800
Y+113950
X+056650Y+110800
Y+113950
Y+119750
Y+120200
X+063350Y+104800
X+063850
X+064750Y+110900
Y+119800
X+066800Y+084150
X+067350
X+070950Y+113800
Y+111100
X+070750Y+119750
Y+120200
X+021200Y+109900
Y+110550
X+018050Y+109900
Y+110550
X+030150Y+096900
X+035750Y+106250
X+029900Y+105800
X+032800
X+060160Y+084610
Y+085160
X+056850Y+103950
X+056750Y+109450
X+054050
X+050900
X+060000Y+113600
X+056750Y+114400
X+054050
X+050900
X+056900Y+122000
X+054200
X+060050Y+121150
X+051050Y+122000
X+053750
X+062800Y+106350
Y+105600
X+066000Y+109550
X+069150
X+065800Y+122000
X+068950
X+072150Y+098950
X+062800Y+104800
T04
X+041090Y+104040
X+042590
X+039590
X+043590
T05
X+034350Y+088150
X+030350
X+042300Y+080350
X+039300
X+042300Y+079350
X+039300
X+031800Y+081000
X+032800
X+029800
X+032800Y+084000
X+029800
X+030800Y+081000
Y+084000
X+032162Y+090250
X+034150
X+027460Y+101560
X+031200
X+042300Y+076800
Y+077800
X+039300
Y+076800
X+042300Y+075800
X+039300
X+027460Y+098740
X+031200
X+039469Y+124550
X+035531
T06
X+080341Y+095971
Y+094160
X+037200Y+084650
Y+087650
X+043200Y+084650
Y+087650
X+037200Y+083150
Y+086150
Y+089150
X+043200Y+083150
Y+086150
Y+089150
T07
X+060200Y+112900
Y+110900
Y+111900
X+079700Y+080300
Y+081300
Y+077300
Y+078300
Y+079300
Y+076300
X+074800Y+089500
Y+087500
Y+088500
X+075800Y+090000
Y+089000
Y+088000
X+060200Y+120500
Y+118500
Y+119500
X+061200Y+112900
Y+110900
Y+111900
Y+120500
Y+118500
Y+119500
T08
X+040100Y+095950
Y+092446
X+040050Y+101350
Y+097846
T09
X+045100Y+095950
Y+092446
X+038100Y+095950
Y+092446
X+045050Y+101350
Y+097846
X+038050Y+101350
Y+097846
T10
X+079356Y+096444
Y+093688
T11
X+053600Y+100431
Y+102400
X+059100Y+100431
Y+102400
X+053700Y+107569
Y+105600
X+064600Y+100431
Y+102400
X+059200Y+107569
Y+105600
X+064650Y+107619
Y+105650
T12
X+042050Y+111550
Y+113550
Y+117550
Y+119550
Y+109550
Y+115550
Y+121550
X+032050Y+111550
Y+113550
Y+117550
Y+119550
Y+115550
Y+109550
Y+121550
T13
X+016200Y+115270
X+047050Y+075800
X+067600Y+089100
X+034100Y+081300
X+070700Y+079800
X+073300Y+078350
X+074200Y+081000
X+076000Y+081100
X+027250Y+075950
X+032700Y+075800
X+027850Y+090650
X+058850Y+078800
X+060500Y+115000
X+057160Y+124690
X+064900Y+078700
X+065170Y+081910
X+064200Y+088400
X+027300Y+078200
X+031300Y+092450
X+034500Y+099600
X+054350Y+090050
X+053750Y+095750
X+053800Y+092950
X+060150Y+117400
X+068450Y+078250
X+065850Y+093600
X+065750Y+089100
X+069850Y+098650
X+067300Y+098700
X+078250Y+110900
X+078350Y+123200
X+060600Y+088800
T14
X+020510Y+087300
Y+082920
X+025850Y+086050
X+033850
X+075100Y+114800
Y+119180
T15
X+018563Y+096550
X+022500
X+018563Y+108650
X+022500
T16
X+016450Y+118850
Y+121750
X+020350Y+117300
X+024350Y+123300
T17
X+078300Y+090750
Y+086750
T18
X+015800Y+076200
X+015700Y+124400
X+075700Y+076200
Y+124400
X+048350Y+099350
X+025350Y+120300
X+019350
T19
X+047893Y+113975
Y+109644
X+048019Y+121550
X+047893Y+116731
T00
M30
