<?xml version="1.0" encoding="UTF-8" standalone="no"?>
<!DOCTYPE svg PUBLIC "-//W3C//DTD SVG 1.1//EN"
 "http://www.w3.org/Graphics/SVG/1.1/DTD/svg11.dtd">
<!-- Generated by graphviz version 2.44.1 (20200629.0846)
 -->
<!-- Title: Digital&#45;To&#45;Analog Converter Module (DAC) Pages: 1 -->
<svg width="406pt" height="64pt"
 viewBox="0.00 0.00 406.00 64.00" xmlns="http://www.w3.org/2000/svg" xmlns:xlink="http://www.w3.org/1999/xlink">
<g id="graph0" class="graph" transform="scale(1 1) rotate(0) translate(4 60)">
<title>Digital&#45;To&#45;Analog Converter Module (DAC)</title>
<polygon fill="white" stroke="transparent" points="-4,4 -4,-60 402,-60 402,4 -4,4"/>
<!-- Node4 -->
<g id="node1" class="node">
<title>Node4</title>
<g id="a_node1"><a xlink:href="a00383.html" target="_top" xlink:title="Private properties of the SDAC PRAL driver.">
<polygon fill="white" stroke="black" points="398,-56 305,-56 305,-37 398,-37 398,-56"/>
<text text-anchor="middle" x="351.5" y="-44" font-family="Helvetica,sans-Serif" font-size="10.00">Private Properties</text>
</a>
</g>
</g>
<!-- Node1 -->
<g id="node2" class="node">
<title>Node1</title>
<g id="a_node2"><a xlink:title="Digital&#45;To&#45;Analog Converter Peripheral Module Special Function Register Abstraction Driver.">
<polygon fill="#bfbfbf" stroke="black" points="269,-42.5 135,-42.5 135,-12.5 269,-12.5 269,-42.5"/>
<text text-anchor="start" x="143" y="-30.5" font-family="Helvetica,sans-Serif" font-size="10.00">Digital&#45;To&#45;Analog Converter</text>
<text text-anchor="middle" x="202" y="-19.5" font-family="Helvetica,sans-Serif" font-size="10.00"> Module (DAC)</text>
</a>
</g>
</g>
<!-- Node1&#45;&gt;Node4 -->
<g id="edge3" class="edge">
<title>Node1&#45;&gt;Node4</title>
<path fill="none" stroke="black" d="M279.51,-37.36C288.12,-38.46 296.67,-39.57 304.71,-40.6"/>
<polygon fill="black" stroke="black" points="279.78,-33.86 269.41,-36.06 278.89,-40.8 279.78,-33.86"/>
</g>
<!-- Node3 -->
<g id="node4" class="node">
<title>Node3</title>
<g id="a_node4"><a xlink:href="a00375.html" target="_top" xlink:title="Public functions of the DAC PRAL driver.">
<polygon fill="white" stroke="black" points="396,-19 307,-19 307,0 396,0 396,-19"/>
<text text-anchor="middle" x="351.5" y="-7" font-family="Helvetica,sans-Serif" font-size="10.00">Public Functions</text>
</a>
</g>
</g>
<!-- Node1&#45;&gt;Node3 -->
<g id="edge2" class="edge">
<title>Node1&#45;&gt;Node3</title>
<path fill="none" stroke="black" d="M279.56,-18.16C288.92,-17.01 298.22,-15.88 306.85,-14.83"/>
<polygon fill="black" stroke="black" points="278.92,-14.71 269.41,-19.4 279.76,-21.66 278.92,-14.71"/>
</g>
<!-- Node2 -->
<g id="node3" class="node">
<title>Node2</title>
<g id="a_node3"><a xlink:href="a00365.html" target="_top" xlink:title=" ">
<polygon fill="white" stroke="black" points="99,-48 0,-48 0,-7 99,-7 99,-48"/>
<text text-anchor="start" x="8" y="-36" font-family="Helvetica,sans-Serif" font-size="10.00">Peripheral Register</text>
<text text-anchor="start" x="8" y="-25" font-family="Helvetica,sans-Serif" font-size="10.00"> Abstraction Layer </text>
<text text-anchor="middle" x="49.5" y="-14" font-family="Helvetica,sans-Serif" font-size="10.00">(PRAL) Library</text>
</a>
</g>
</g>
<!-- Node2&#45;&gt;Node1 -->
<g id="edge1" class="edge">
<title>Node2&#45;&gt;Node1</title>
<path fill="none" stroke="black" d="M109.39,-27.5C117.74,-27.5 126.39,-27.5 134.87,-27.5"/>
<polygon fill="black" stroke="black" points="109.36,-24 99.36,-27.5 109.36,-31 109.36,-24"/>
</g>
</g>
</svg>
