<?xml version="1.0" encoding="UTF-8" standalone="no"?>
<!DOCTYPE svg PUBLIC "-//W3C//DTD SVG 1.1//EN"
 "http://www.w3.org/Graphics/SVG/1.1/DTD/svg11.dtd">
<!-- Generated by graphviz version 2.44.1 (20200629.0846)
 -->
<!-- Title: Operational Amplifier Module (AMP) Pages: 1 -->
<svg width="379pt" height="64pt"
 viewBox="0.00 0.00 379.00 64.00" xmlns="http://www.w3.org/2000/svg" xmlns:xlink="http://www.w3.org/1999/xlink">
<g id="graph0" class="graph" transform="scale(1 1) rotate(0) translate(4 60)">
<title>Operational Amplifier Module (AMP)</title>
<polygon fill="white" stroke="transparent" points="-4,4 -4,-60 375,-60 375,4 -4,4"/>
<!-- Node4 -->
<g id="node1" class="node">
<title>Node4</title>
<g id="a_node1"><a xlink:href="a00386.html" target="_top" xlink:title="Private properties of the AMP PRAL driver.">
<polygon fill="white" stroke="black" points="371,-56 278,-56 278,-37 371,-37 371,-56"/>
<text text-anchor="middle" x="324.5" y="-44" font-family="Helvetica,sans-Serif" font-size="10.00">Private Properties</text>
</a>
</g>
</g>
<!-- Node1 -->
<g id="node2" class="node">
<title>Node1</title>
<g id="a_node2"><a xlink:title="Operational Amplifier Peripheral Module Special Function Register Abstraction Driver.">
<polygon fill="#bfbfbf" stroke="black" points="242,-42.5 135,-42.5 135,-12.5 242,-12.5 242,-42.5"/>
<text text-anchor="start" x="143" y="-30.5" font-family="Helvetica,sans-Serif" font-size="10.00">Operational Amplifier</text>
<text text-anchor="middle" x="188.5" y="-19.5" font-family="Helvetica,sans-Serif" font-size="10.00"> Module (AMP)</text>
</a>
</g>
</g>
<!-- Node1&#45;&gt;Node4 -->
<g id="edge3" class="edge">
<title>Node1&#45;&gt;Node4</title>
<path fill="none" stroke="black" d="M252.09,-36.37C260.68,-37.59 269.37,-38.83 277.6,-39.99"/>
<polygon fill="black" stroke="black" points="252.47,-32.89 242.08,-34.95 251.49,-39.82 252.47,-32.89"/>
</g>
<!-- Node3 -->
<g id="node4" class="node">
<title>Node3</title>
<g id="a_node4"><a xlink:href="a00378.html" target="_top" xlink:title="Public functions of the AMP PRAL driver.">
<polygon fill="white" stroke="black" points="369,-19 280,-19 280,0 369,0 369,-19"/>
<text text-anchor="middle" x="324.5" y="-7" font-family="Helvetica,sans-Serif" font-size="10.00">Public Functions</text>
</a>
</g>
</g>
<!-- Node1&#45;&gt;Node3 -->
<g id="edge2" class="edge">
<title>Node1&#45;&gt;Node3</title>
<path fill="none" stroke="black" d="M252.12,-19.09C261.45,-17.83 270.9,-16.57 279.73,-15.38"/>
<polygon fill="black" stroke="black" points="251.52,-15.64 242.08,-20.44 252.45,-22.58 251.52,-15.64"/>
</g>
<!-- Node2 -->
<g id="node3" class="node">
<title>Node2</title>
<g id="a_node3"><a xlink:href="a00365.html" target="_top" xlink:title=" ">
<polygon fill="white" stroke="black" points="99,-48 0,-48 0,-7 99,-7 99,-48"/>
<text text-anchor="start" x="8" y="-36" font-family="Helvetica,sans-Serif" font-size="10.00">Peripheral Register</text>
<text text-anchor="start" x="8" y="-25" font-family="Helvetica,sans-Serif" font-size="10.00"> Abstraction Layer </text>
<text text-anchor="middle" x="49.5" y="-14" font-family="Helvetica,sans-Serif" font-size="10.00">(PRAL) Library</text>
</a>
</g>
</g>
<!-- Node2&#45;&gt;Node1 -->
<g id="edge1" class="edge">
<title>Node2&#45;&gt;Node1</title>
<path fill="none" stroke="black" d="M109.36,-27.5C117.81,-27.5 126.46,-27.5 134.79,-27.5"/>
<polygon fill="black" stroke="black" points="109.19,-24 99.19,-27.5 109.19,-31 109.19,-24"/>
</g>
</g>
</svg>
