<?xml version="1.0" encoding="UTF-8" standalone="no"?>
<!DOCTYPE svg PUBLIC "-//W3C//DTD SVG 1.1//EN"
 "http://www.w3.org/Graphics/SVG/1.1/DTD/svg11.dtd">
<!-- Generated by graphviz version 2.44.1 (20200629.0846)
 -->
<!-- Title: p33c_PwmModule_ConfigWrite Pages: 1 -->
<svg width="1020pt" height="110pt"
 viewBox="0.00 0.00 1020.00 109.50" xmlns="http://www.w3.org/2000/svg" xmlns:xlink="http://www.w3.org/1999/xlink">
<g id="graph0" class="graph" transform="scale(1 1) rotate(0) translate(4 105.5)">
<title>p33c_PwmModule_ConfigWrite</title>
<polygon fill="white" stroke="transparent" points="-4,4 -4,-105.5 1016,-105.5 1016,4 -4,4"/>
<!-- Node1 -->
<g id="node1" class="node">
<title>Node1</title>
<g id="a_node1"><a xlink:title="Writes a user&#45;defined configuration to the PWM base module registers.">
<polygon fill="#bfbfbf" stroke="black" points="860,-38.5 860,-57.5 1012,-57.5 1012,-38.5 860,-38.5"/>
<text text-anchor="middle" x="936" y="-45.5" font-family="Helvetica,sans-Serif" font-size="10.00">p33c_PwmModule_ConfigWrite</text>
</a>
</g>
</g>
<!-- Node2 -->
<g id="node2" class="node">
<title>Node2</title>
<g id="a_node2"><a xlink:href="a00519.html#ga6d12fd9e2f1d4f01ec6db21454693863" target="_top" xlink:title="Initializes the buck PWM module by resetting its registers to default.">
<polygon fill="white" stroke="black" points="681.5,-76.5 681.5,-95.5 815.5,-95.5 815.5,-76.5 681.5,-76.5"/>
<text text-anchor="middle" x="748.5" y="-83.5" font-family="Helvetica,sans-Serif" font-size="10.00">buckPWM_ModuleInitialize</text>
</a>
</g>
</g>
<!-- Node1&#45;&gt;Node2 -->
<g id="edge1" class="edge">
<title>Node1&#45;&gt;Node2</title>
<path fill="none" stroke="midnightblue" d="M878.33,-59.61C851.94,-65.01 820.95,-71.36 795.97,-76.48"/>
<polygon fill="midnightblue" stroke="midnightblue" points="879.1,-63.02 888.19,-57.59 877.69,-56.17 879.1,-63.02"/>
</g>
<!-- Node7 -->
<g id="node7" class="node">
<title>Node7</title>
<g id="a_node7"><a xlink:href="a00381.html#ga5bb4954e471caa1dbbb505b513257821" target="_top" xlink:title="Read the current configuration from the PWM base module registers.">
<polygon fill="white" stroke="black" points="673,-38.5 673,-57.5 824,-57.5 824,-38.5 673,-38.5"/>
<text text-anchor="middle" x="748.5" y="-45.5" font-family="Helvetica,sans-Serif" font-size="10.00">p33c_PwmModule_ConfigRead</text>
</a>
</g>
</g>
<!-- Node1&#45;&gt;Node7 -->
<g id="edge6" class="edge">
<title>Node1&#45;&gt;Node7</title>
<path fill="none" stroke="midnightblue" d="M849.55,-48C841.08,-48 832.53,-48 824.19,-48"/>
<polygon fill="midnightblue" stroke="midnightblue" points="849.82,-51.5 859.82,-48 849.82,-44.5 849.82,-51.5"/>
</g>
<!-- Node8 -->
<g id="node8" class="node">
<title>Node8</title>
<g id="a_node8"><a xlink:href="a00381.html#gac24b378de17cd1f040a2a562a3839084" target="_top" xlink:title="Initializes the PWM base module by resetting all its registers to default.">
<polygon fill="white" stroke="black" points="680,-0.5 680,-19.5 817,-19.5 817,-0.5 680,-0.5"/>
<text text-anchor="middle" x="748.5" y="-7.5" font-family="Helvetica,sans-Serif" font-size="10.00">p33c_PwmModule_Initialize</text>
</a>
</g>
</g>
<!-- Node1&#45;&gt;Node8 -->
<g id="edge7" class="edge">
<title>Node1&#45;&gt;Node8</title>
<path fill="none" stroke="midnightblue" d="M878.33,-36.39C851.94,-30.99 820.95,-24.64 795.97,-19.52"/>
<polygon fill="midnightblue" stroke="midnightblue" points="877.69,-39.83 888.19,-38.41 879.1,-32.98 877.69,-39.83"/>
</g>
<!-- Node3 -->
<g id="node3" class="node">
<title>Node3</title>
<g id="a_node3"><a xlink:href="a00496.html#gaf3c64772d6dfd473d6924fb8893bd180" target="_top" xlink:title="This function initializes all peripheral modules and their instances used by the power controller.">
<polygon fill="white" stroke="black" points="500,-76.5 500,-95.5 637,-95.5 637,-76.5 500,-76.5"/>
<text text-anchor="middle" x="568.5" y="-83.5" font-family="Helvetica,sans-Serif" font-size="10.00">drv_BuckConverter_Initialize</text>
</a>
</g>
</g>
<!-- Node2&#45;&gt;Node3 -->
<g id="edge2" class="edge">
<title>Node2&#45;&gt;Node3</title>
<path fill="none" stroke="midnightblue" d="M671.19,-86C659.89,-86 648.31,-86 637.21,-86"/>
<polygon fill="midnightblue" stroke="midnightblue" points="671.47,-89.5 681.47,-86 671.47,-82.5 671.47,-89.5"/>
</g>
<!-- Node4 -->
<g id="node4" class="node">
<title>Node4</title>
<g id="a_node4"><a xlink:href="a00492.html#ga0b26acfec74d1804384b4ba1a3cffab4" target="_top" xlink:title="This function is used to load peripheral configuration templates from the power controller device dri...">
<polygon fill="white" stroke="black" points="321,-71 321,-101 464,-101 464,-71 321,-71"/>
<text text-anchor="start" x="329" y="-89" font-family="Helvetica,sans-Serif" font-size="10.00">appPowerSupply_Peripherals</text>
<text text-anchor="middle" x="392.5" y="-78" font-family="Helvetica,sans-Serif" font-size="10.00">Initialize</text>
</a>
</g>
</g>
<!-- Node3&#45;&gt;Node4 -->
<g id="edge3" class="edge">
<title>Node3&#45;&gt;Node4</title>
<path fill="none" stroke="midnightblue" d="M489.53,-86C481.11,-86 472.58,-86 464.25,-86"/>
<polygon fill="midnightblue" stroke="midnightblue" points="489.73,-89.5 499.73,-86 489.73,-82.5 489.73,-89.5"/>
</g>
<!-- Node5 -->
<g id="node5" class="node">
<title>Node5</title>
<g id="a_node5"><a xlink:href="a00489.html#ga7a4cf6371d09457539f96a74b2809ca0" target="_top" xlink:title="Calls the application layer power controller initialization.">
<polygon fill="white" stroke="black" points="155,-76.5 155,-95.5 285,-95.5 285,-76.5 155,-76.5"/>
<text text-anchor="middle" x="220" y="-83.5" font-family="Helvetica,sans-Serif" font-size="10.00">appPowerSupply_Initialize</text>
</a>
</g>
</g>
<!-- Node4&#45;&gt;Node5 -->
<g id="edge4" class="edge">
<title>Node4&#45;&gt;Node5</title>
<path fill="none" stroke="midnightblue" d="M310.65,-86C302.06,-86 293.42,-86 285.07,-86"/>
<polygon fill="midnightblue" stroke="midnightblue" points="310.67,-89.5 320.67,-86 310.67,-82.5 310.67,-89.5"/>
</g>
<!-- Node6 -->
<g id="node6" class="node">
<title>Node6</title>
<g id="a_node6"><a xlink:href="a00564.html#ga2be64f5f0b9a2c0c6713f5a69d793e05" target="_top" xlink:title="Initializes the user&#45;defined tasks.">
<polygon fill="white" stroke="black" points="0,-76.5 0,-95.5 119,-95.5 119,-76.5 0,-76.5"/>
<text text-anchor="middle" x="59.5" y="-83.5" font-family="Helvetica,sans-Serif" font-size="10.00">sysUserTasks_Initialize</text>
</a>
</g>
</g>
<!-- Node5&#45;&gt;Node6 -->
<g id="edge5" class="edge">
<title>Node5&#45;&gt;Node6</title>
<path fill="none" stroke="midnightblue" d="M144.9,-86C136.25,-86 127.52,-86 119.12,-86"/>
<polygon fill="midnightblue" stroke="midnightblue" points="144.99,-89.5 154.99,-86 144.99,-82.5 144.99,-89.5"/>
</g>
</g>
</svg>
