<?xml version="1.0" encoding="UTF-8" standalone="no"?>
<!DOCTYPE svg PUBLIC "-//W3C//DTD SVG 1.1//EN"
 "http://www.w3.org/Graphics/SVG/1.1/DTD/svg11.dtd">
<!-- Generated by graphviz version 2.44.1 (20200629.0846)
 -->
<!-- Title: p33c_PwmGenerator_Initialize Pages: 1 -->
<svg width="350pt" height="116pt"
 viewBox="0.00 0.00 350.00 115.50" xmlns="http://www.w3.org/2000/svg" xmlns:xlink="http://www.w3.org/1999/xlink">
<g id="graph0" class="graph" transform="scale(1 1) rotate(0) translate(4 111.5)">
<title>p33c_PwmGenerator_Initialize</title>
<polygon fill="white" stroke="transparent" points="-4,4 -4,-111.5 346,-111.5 346,4 -4,4"/>
<!-- Node1 -->
<g id="node1" class="node">
<title>Node1</title>
<g id="a_node1"><a xlink:title="Initializes a given PWM generator by resetting all its registers to default.">
<polygon fill="#bfbfbf" stroke="black" points="0,-38.5 0,-57.5 148,-57.5 148,-38.5 0,-38.5"/>
<text text-anchor="middle" x="74" y="-45.5" font-family="Helvetica,sans-Serif" font-size="10.00">p33c_PwmGenerator_Initialize</text>
</a>
</g>
</g>
<!-- Node2 -->
<g id="node2" class="node">
<title>Node2</title>
<g id="a_node2"><a xlink:href="a00381.html#gab66f225bac6b132d1418a4c808e3babb" target="_top" xlink:title="Disposes a given PWM generator by resetting all its registers to default.">
<polygon fill="white" stroke="black" points="193,-77 193,-107 333,-107 333,-77 193,-77"/>
<text text-anchor="start" x="201" y="-95" font-family="Helvetica,sans-Serif" font-size="10.00">p33c_PwmGenerator_Config</text>
<text text-anchor="middle" x="263" y="-84" font-family="Helvetica,sans-Serif" font-size="10.00">Write</text>
</a>
</g>
</g>
<!-- Node1&#45;&gt;Node2 -->
<g id="edge1" class="edge">
<title>Node1&#45;&gt;Node2</title>
<path fill="none" stroke="midnightblue" d="M115.58,-57.55C136.82,-62.55 163.49,-68.82 188.24,-74.64"/>
<polygon fill="midnightblue" stroke="midnightblue" points="187.44,-78.05 197.97,-76.93 189.04,-71.24 187.44,-78.05"/>
</g>
<!-- Node3 -->
<g id="node3" class="node">
<title>Node3</title>
<g id="a_node3"><a xlink:href="a00381.html#gad58be387853f783af7e5764791c0ac36" target="_top" xlink:title="Disables a given PWM generator.">
<polygon fill="white" stroke="black" points="190.5,-38.5 190.5,-57.5 335.5,-57.5 335.5,-38.5 190.5,-38.5"/>
<text text-anchor="middle" x="263" y="-45.5" font-family="Helvetica,sans-Serif" font-size="10.00">p33c_PwmGenerator_Disable</text>
</a>
</g>
</g>
<!-- Node1&#45;&gt;Node3 -->
<g id="edge2" class="edge">
<title>Node1&#45;&gt;Node3</title>
<path fill="none" stroke="midnightblue" d="M148.1,-48C158.66,-48 169.58,-48 180.29,-48"/>
<polygon fill="midnightblue" stroke="midnightblue" points="180.48,-51.5 190.48,-48 180.48,-44.5 180.48,-51.5"/>
</g>
<!-- Node4 -->
<g id="node4" class="node">
<title>Node4</title>
<g id="a_node4"><a xlink:href="a00381.html#ga55e525c7ac54a365ab6dad558ec17f0b" target="_top" xlink:title="Returns the PWM generator index.">
<polygon fill="white" stroke="black" points="184,-0.5 184,-19.5 342,-19.5 342,-0.5 184,-0.5"/>
<text text-anchor="middle" x="263" y="-7.5" font-family="Helvetica,sans-Serif" font-size="10.00">p33c_PwmGenerator_GetHandle</text>
</a>
</g>
</g>
<!-- Node1&#45;&gt;Node4 -->
<g id="edge3" class="edge">
<title>Node1&#45;&gt;Node4</title>
<path fill="none" stroke="midnightblue" d="M122.19,-38.41C147.42,-33.28 178.67,-26.93 205.23,-21.54"/>
<polygon fill="midnightblue" stroke="midnightblue" points="206.05,-24.94 215.15,-19.52 204.65,-18.08 206.05,-24.94"/>
</g>
</g>
</svg>
