<?xml version="1.0" encoding="UTF-8" standalone="no"?>
<!DOCTYPE svg PUBLIC "-//W3C//DTD SVG 1.1//EN"
 "http://www.w3.org/Graphics/SVG/1.1/DTD/svg11.dtd">
<!-- Generated by graphviz version 2.44.1 (20200629.0846)
 -->
<!-- Title: p33c_DacInstance_GetHandle Pages: 1 -->
<svg width="448pt" height="104pt"
 viewBox="0.00 0.00 448.00 104.00" xmlns="http://www.w3.org/2000/svg" xmlns:xlink="http://www.w3.org/1999/xlink">
<g id="graph0" class="graph" transform="scale(1 1) rotate(0) translate(4 100)">
<title>p33c_DacInstance_GetHandle</title>
<polygon fill="white" stroke="transparent" points="-4,4 -4,-100 444,-100 444,4 -4,4"/>
<!-- Node1 -->
<g id="node1" class="node">
<title>Node1</title>
<g id="a_node1"><a xlink:title="Gets pointer to DAC Instance SFR set.">
<polygon fill="#bfbfbf" stroke="black" points="292,-38.5 292,-57.5 440,-57.5 440,-38.5 292,-38.5"/>
<text text-anchor="middle" x="366" y="-45.5" font-family="Helvetica,sans-Serif" font-size="10.00">p33c_DacInstance_GetHandle</text>
</a>
</g>
</g>
<!-- Node2 -->
<g id="node2" class="node">
<title>Node2</title>
<g id="a_node2"><a xlink:href="a00560.html#gae4c70ecb7b13f328f1458f5f2cfbe48a" target="_top" xlink:title=" ">
<polygon fill="white" stroke="black" points="138.5,-76.5 138.5,-95.5 254.5,-95.5 254.5,-76.5 138.5,-76.5"/>
<text text-anchor="middle" x="196.5" y="-83.5" font-family="Helvetica,sans-Serif" font-size="10.00">sysDacOutput_Disable</text>
</a>
</g>
</g>
<!-- Node1&#45;&gt;Node2 -->
<g id="edge1" class="edge">
<title>Node1&#45;&gt;Node2</title>
<path fill="none" stroke="midnightblue" d="M312.88,-59.82C289.27,-65.18 261.72,-71.43 239.46,-76.48"/>
<polygon fill="midnightblue" stroke="midnightblue" points="313.75,-63.21 322.73,-57.59 312.21,-56.39 313.75,-63.21"/>
</g>
<!-- Node3 -->
<g id="node3" class="node">
<title>Node3</title>
<g id="a_node3"><a xlink:href="a00560.html#ga2f97c3082e0d6f724cea482c10c2d08f" target="_top" xlink:title=" ">
<polygon fill="white" stroke="black" points="139.5,-38.5 139.5,-57.5 253.5,-57.5 253.5,-38.5 139.5,-38.5"/>
<text text-anchor="middle" x="196.5" y="-45.5" font-family="Helvetica,sans-Serif" font-size="10.00">sysDacOutput_Enable</text>
</a>
</g>
</g>
<!-- Node1&#45;&gt;Node3 -->
<g id="edge2" class="edge">
<title>Node1&#45;&gt;Node3</title>
<path fill="none" stroke="midnightblue" d="M281.33,-48C271.91,-48 262.48,-48 253.53,-48"/>
<polygon fill="midnightblue" stroke="midnightblue" points="281.53,-51.5 291.53,-48 281.53,-44.5 281.53,-51.5"/>
</g>
<!-- Node5 -->
<g id="node5" class="node">
<title>Node5</title>
<g id="a_node5"><a xlink:href="a00560.html#ga231ffdd65b0ae520b467cbc6fbbf8d03" target="_top" xlink:title="Initializes a user specified DAC instance with DAC output enabled.">
<polygon fill="white" stroke="black" points="137,-0.5 137,-19.5 256,-19.5 256,-0.5 137,-0.5"/>
<text text-anchor="middle" x="196.5" y="-7.5" font-family="Helvetica,sans-Serif" font-size="10.00">sysDacOutput_Initialize</text>
</a>
</g>
</g>
<!-- Node1&#45;&gt;Node5 -->
<g id="edge4" class="edge">
<title>Node1&#45;&gt;Node5</title>
<path fill="none" stroke="midnightblue" d="M312.88,-36.18C289.27,-30.82 261.72,-24.57 239.46,-19.52"/>
<polygon fill="midnightblue" stroke="midnightblue" points="312.21,-39.61 322.73,-38.41 313.75,-32.79 312.21,-39.61"/>
</g>
<!-- Node4 -->
<g id="node4" class="node">
<title>Node4</title>
<g id="a_node4"><a xlink:href="a00559.html#ga70c5cba054e38a4e8c8285a187ff61fa" target="_top" xlink:title="Initializes the user&#45;defined chip resources.">
<polygon fill="white" stroke="black" points="0,-14 0,-44 101,-44 101,-14 0,-14"/>
<text text-anchor="start" x="8" y="-32" font-family="Helvetica,sans-Serif" font-size="10.00">sysUserPeriperhals</text>
<text text-anchor="middle" x="50.5" y="-21" font-family="Helvetica,sans-Serif" font-size="10.00">_Initialize</text>
</a>
</g>
</g>
<!-- Node3&#45;&gt;Node4 -->
<g id="edge3" class="edge">
<title>Node3&#45;&gt;Node4</title>
<path fill="none" stroke="midnightblue" d="M129.23,-39.26C119.77,-38.01 110.17,-36.74 101.11,-35.55"/>
<polygon fill="midnightblue" stroke="midnightblue" points="129.04,-42.76 139.41,-40.6 129.96,-35.82 129.04,-42.76"/>
</g>
<!-- Node5&#45;&gt;Node4 -->
<g id="edge5" class="edge">
<title>Node5&#45;&gt;Node4</title>
<path fill="none" stroke="midnightblue" d="M126.85,-19.06C118.22,-20.2 109.52,-21.34 101.26,-22.43"/>
<polygon fill="midnightblue" stroke="midnightblue" points="127.47,-22.51 136.93,-17.73 126.56,-15.57 127.47,-22.51"/>
</g>
</g>
</svg>
