<?xml version="1.0" encoding="UTF-8" standalone="no"?>
<!DOCTYPE svg PUBLIC "-//W3C//DTD SVG 1.1//EN"
 "http://www.w3.org/Graphics/SVG/1.1/DTD/svg11.dtd">
<!-- Generated by graphviz version 2.44.1 (20200629.0846)
 -->
<!-- Title: p33c_OscAuxClk_Initialize Pages: 1 -->
<svg width="602pt" height="28pt"
 viewBox="0.00 0.00 602.00 28.00" xmlns="http://www.w3.org/2000/svg" xmlns:xlink="http://www.w3.org/1999/xlink">
<g id="graph0" class="graph" transform="scale(1 1) rotate(0) translate(4 24)">
<title>p33c_OscAuxClk_Initialize</title>
<polygon fill="white" stroke="transparent" points="-4,4 -4,-24 598,-24 598,4 -4,4"/>
<!-- Node1 -->
<g id="node1" class="node">
<title>Node1</title>
<g id="a_node1"><a xlink:title="Initializes the auxiliary clock and its PLL module step by step in software. Each step is tested and ...">
<polygon fill="#bfbfbf" stroke="black" points="461,-0.5 461,-19.5 594,-19.5 594,-0.5 461,-0.5"/>
<text text-anchor="middle" x="527.5" y="-7.5" font-family="Helvetica,sans-Serif" font-size="10.00">p33c_OscAuxClk_Initialize</text>
</a>
</g>
</g>
<!-- Node2 -->
<g id="node2" class="node">
<title>Node2</title>
<g id="a_node2"><a xlink:href="a00379.html#gab06b90f28b398245a399304dde2c1576" target="_top" xlink:title="Initializes the auxiliary clock and its PLL module step by step in software. Each step is tested and ...">
<polygon fill="white" stroke="black" points="262,-0.5 262,-19.5 425,-19.5 425,-0.5 262,-0.5"/>
<text text-anchor="middle" x="343.5" y="-7.5" font-family="Helvetica,sans-Serif" font-size="10.00">p33c_OscAuxClk_DefaultInitialize</text>
</a>
</g>
</g>
<!-- Node1&#45;&gt;Node2 -->
<g id="edge1" class="edge">
<title>Node1&#45;&gt;Node2</title>
<path fill="none" stroke="midnightblue" d="M450.6,-10C442.15,-10 433.53,-10 425.02,-10"/>
<polygon fill="midnightblue" stroke="midnightblue" points="450.79,-13.5 460.79,-10 450.79,-6.5 450.79,-13.5"/>
</g>
<!-- Node3 -->
<g id="node3" class="node">
<title>Node3</title>
<g id="a_node3"><a xlink:href="a00555.html#ga3f3f3c22c6c2b95518271fae8f58b03f" target="_top" xlink:title="Initializes the auxiliary clock of the device.">
<polygon fill="white" stroke="black" points="134,-0.5 134,-19.5 226,-19.5 226,-0.5 134,-0.5"/>
<text text-anchor="middle" x="180" y="-7.5" font-family="Helvetica,sans-Serif" font-size="10.00">sysAclk_Initialize</text>
</a>
</g>
</g>
<!-- Node2&#45;&gt;Node3 -->
<g id="edge2" class="edge">
<title>Node2&#45;&gt;Node3</title>
<path fill="none" stroke="midnightblue" d="M251.53,-10C242.86,-10 234.36,-10 226.42,-10"/>
<polygon fill="midnightblue" stroke="midnightblue" points="251.75,-13.5 261.75,-10 251.75,-6.5 251.75,-13.5"/>
</g>
<!-- Node4 -->
<g id="node4" class="node">
<title>Node4</title>
<g id="a_node4"><a xlink:href="a00554.html#ga12ce46460ff0657fc879f5b23ed8ccb1" target="_top" xlink:title="Initializes essential chip resources.">
<polygon fill="white" stroke="black" points="0,-0.5 0,-19.5 98,-19.5 98,-0.5 0,-0.5"/>
<text text-anchor="middle" x="49" y="-7.5" font-family="Helvetica,sans-Serif" font-size="10.00">SYSTEM_Initialize</text>
</a>
</g>
</g>
<!-- Node3&#45;&gt;Node4 -->
<g id="edge3" class="edge">
<title>Node3&#45;&gt;Node4</title>
<path fill="none" stroke="midnightblue" d="M123.74,-10C115.31,-10 106.66,-10 98.38,-10"/>
<polygon fill="midnightblue" stroke="midnightblue" points="123.88,-13.5 133.88,-10 123.88,-6.5 123.88,-13.5"/>
</g>
</g>
</svg>
