<?xml version="1.0" encoding="UTF-8" standalone="no"?>
<!DOCTYPE svg PUBLIC "-//W3C//DTD SVG 1.1//EN"
 "http://www.w3.org/Graphics/SVG/1.1/DTD/svg11.dtd">
<!-- Generated by graphviz version 2.44.1 (20200629.0846)
 -->
<!-- Title: State Machine Settings Pages: 1 -->
<svg width="461pt" height="101pt"
 viewBox="0.00 0.00 461.00 101.00" xmlns="http://www.w3.org/2000/svg" xmlns:xlink="http://www.w3.org/1999/xlink">
<g id="graph0" class="graph" transform="scale(1 1) rotate(0) translate(4 97)">
<title>State Machine Settings</title>
<polygon fill="white" stroke="transparent" points="-4,4 -4,-97 457,-97 457,4 -4,4"/>
<!-- Node2 -->
<g id="node1" class="node">
<title>Node2</title>
<g id="a_node1"><a xlink:href="a00565.html" target="_top" xlink:title="Hardware Abstraction Layer Declarations.">
<polygon fill="white" stroke="black" points="110,-61.5 0,-61.5 0,-31.5 110,-31.5 110,-61.5"/>
<text text-anchor="start" x="8" y="-49.5" font-family="Helvetica,sans-Serif" font-size="10.00">Hardware Abstraction</text>
<text text-anchor="middle" x="55" y="-38.5" font-family="Helvetica,sans-Serif" font-size="10.00"> Layer</text>
</a>
</g>
</g>
<!-- Node1 -->
<g id="node3" class="node">
<title>Node1</title>
<g id="a_node3"><a xlink:title="Declaration of global state&#45;machine parameters.">
<polygon fill="#bfbfbf" stroke="black" points="265,-56 146,-56 146,-37 265,-37 265,-56"/>
<text text-anchor="middle" x="205.5" y="-44" font-family="Helvetica,sans-Serif" font-size="10.00">State Machine Settings</text>
</a>
</g>
</g>
<!-- Node2&#45;&gt;Node1 -->
<g id="edge1" class="edge">
<title>Node2&#45;&gt;Node1</title>
<path fill="none" stroke="black" d="M120.04,-46.5C128.67,-46.5 137.48,-46.5 146,-46.5"/>
<polygon fill="black" stroke="black" points="120.03,-43 110.03,-46.5 120.03,-50 120.03,-43"/>
</g>
<!-- Node3 -->
<g id="node2" class="node">
<title>Node3</title>
<g id="a_node2"><a xlink:href="a00395.html" target="_top" xlink:title="Parameter definitions using physical quantities.">
<polygon fill="white" stroke="black" points="415,-93 339,-93 339,-74 415,-74 415,-93"/>
<text text-anchor="middle" x="377" y="-81" font-family="Helvetica,sans-Serif" font-size="10.00">User Settings</text>
</a>
</g>
</g>
<!-- Node1&#45;&gt;Node3 -->
<g id="edge2" class="edge">
<title>Node1&#45;&gt;Node3</title>
<path fill="none" stroke="black" d="M260.09,-58.2C285.71,-63.79 315.74,-70.35 338.82,-75.38"/>
<polygon fill="black" stroke="black" points="260.67,-54.74 250.15,-56.03 259.17,-61.58 260.67,-54.74"/>
</g>
<!-- Node4 -->
<g id="node4" class="node">
<title>Node4</title>
<g id="a_node4"><a xlink:href="a00396.html" target="_top" xlink:title="Conversion macros converting physical quantities of parameters into binary (integer) numbers for regi...">
<polygon fill="white" stroke="black" points="426.5,-56 327.5,-56 327.5,-37 426.5,-37 426.5,-56"/>
<text text-anchor="middle" x="377" y="-44" font-family="Helvetica,sans-Serif" font-size="10.00">Conversion Macros</text>
</a>
</g>
</g>
<!-- Node1&#45;&gt;Node4 -->
<g id="edge3" class="edge">
<title>Node1&#45;&gt;Node4</title>
<path fill="none" stroke="black" d="M275.44,-46.5C292.86,-46.5 311.22,-46.5 327.4,-46.5"/>
<polygon fill="black" stroke="black" points="275.31,-43 265.31,-46.5 275.31,-50 275.31,-43"/>
</g>
<!-- Node5 -->
<g id="node5" class="node">
<title>Node5</title>
<g id="a_node5"><a xlink:href="a00397.html" target="_top" xlink:title="Assignment of microcontroller device specific chip&#45;resources to circuit functions and signals.">
<polygon fill="white" stroke="black" points="453,-19 301,-19 301,0 453,0 453,-19"/>
<text text-anchor="middle" x="377" y="-7" font-family="Helvetica,sans-Serif" font-size="10.00">Device Peripheral Assignments</text>
</a>
</g>
</g>
<!-- Node1&#45;&gt;Node5 -->
<g id="edge4" class="edge">
<title>Node1&#45;&gt;Node5</title>
<path fill="none" stroke="black" d="M260.19,-34.78C283.4,-29.71 310.22,-23.86 332.2,-19.06"/>
<polygon fill="black" stroke="black" points="259.17,-31.42 250.15,-36.97 260.67,-38.26 259.17,-31.42"/>
</g>
</g>
</svg>
