<?xml version="1.0" encoding="UTF-8" standalone="no"?>
<!DOCTYPE svg PUBLIC "-//W3C//DTD SVG 1.1//EN"
 "http://www.w3.org/Graphics/SVG/1.1/DTD/svg11.dtd">
<!-- Generated by graphviz version 2.44.1 (20200629.0846)
 -->
<!-- Title: p33c_DacModule_ConfigWrite Pages: 1 -->
<svg width="618pt" height="53pt"
 viewBox="0.00 0.00 618.00 52.50" xmlns="http://www.w3.org/2000/svg" xmlns:xlink="http://www.w3.org/1999/xlink">
<g id="graph0" class="graph" transform="scale(1 1) rotate(0) translate(4 48.5)">
<title>p33c_DacModule_ConfigWrite</title>
<polygon fill="white" stroke="transparent" points="-4,4 -4,-48.5 614,-48.5 614,4 -4,4"/>
<!-- Node1 -->
<g id="node1" class="node">
<title>Node1</title>
<g id="a_node1"><a xlink:title="Writes a user&#45;defined configuration to the DAC module base registers.">
<polygon fill="#bfbfbf" stroke="black" points="463,-6 463,-25 610,-25 610,-6 463,-6"/>
<text text-anchor="middle" x="536.5" y="-13" font-family="Helvetica,sans-Serif" font-size="10.00">p33c_DacModule_ConfigWrite</text>
</a>
</g>
</g>
<!-- Node2 -->
<g id="node2" class="node">
<title>Node2</title>
<g id="a_node2"><a xlink:href="a00375.html#gaf0ea62728fde73f2119e47f67baf2ff0" target="_top" xlink:title="Resets all DAC Module registers to their RESET default values.">
<polygon fill="white" stroke="black" points="295,-25 295,-44 427,-44 427,-25 295,-25"/>
<text text-anchor="middle" x="361" y="-32" font-family="Helvetica,sans-Serif" font-size="10.00">p33c_DacModule_Dispose</text>
</a>
</g>
</g>
<!-- Node1&#45;&gt;Node2 -->
<g id="edge1" class="edge">
<title>Node1&#45;&gt;Node2</title>
<path fill="none" stroke="midnightblue" d="M452.83,-24.55C444.19,-25.5 435.5,-26.45 427.1,-27.37"/>
<polygon fill="midnightblue" stroke="midnightblue" points="453.37,-28.02 462.93,-23.45 452.6,-21.06 453.37,-28.02"/>
</g>
<!-- Node3 -->
<g id="node3" class="node">
<title>Node3</title>
<g id="a_node3"><a xlink:href="a00560.html#gab420e63336f317e197b1cb8861561c3f" target="_top" xlink:title="DAC Module Base Register Initialization.">
<polygon fill="white" stroke="black" points="137,-6 137,-25 259,-25 259,-6 137,-6"/>
<text text-anchor="middle" x="198" y="-13" font-family="Helvetica,sans-Serif" font-size="10.00">sysDacModule_Initialize</text>
</a>
</g>
</g>
<!-- Node1&#45;&gt;Node3 -->
<g id="edge4" class="edge">
<title>Node1&#45;&gt;Node3</title>
<path fill="none" stroke="midnightblue" d="M452.7,-15.5C392.73,-15.5 313.06,-15.5 259.11,-15.5"/>
<polygon fill="midnightblue" stroke="midnightblue" points="452.9,-19 462.9,-15.5 452.9,-12 452.9,-19"/>
</g>
<!-- Node2&#45;&gt;Node3 -->
<g id="edge2" class="edge">
<title>Node2&#45;&gt;Node3</title>
<path fill="none" stroke="midnightblue" d="M284.88,-25.63C276.22,-24.61 267.48,-23.58 259.06,-22.59"/>
<polygon fill="midnightblue" stroke="midnightblue" points="284.64,-29.13 294.98,-26.83 285.46,-22.18 284.64,-29.13"/>
</g>
<!-- Node4 -->
<g id="node4" class="node">
<title>Node4</title>
<g id="a_node4"><a xlink:href="a00559.html#ga70c5cba054e38a4e8c8285a187ff61fa" target="_top" xlink:title="Initializes the user&#45;defined chip resources.">
<polygon fill="white" stroke="black" points="0,-0.5 0,-30.5 101,-30.5 101,-0.5 0,-0.5"/>
<text text-anchor="start" x="8" y="-18.5" font-family="Helvetica,sans-Serif" font-size="10.00">sysUserPeriperhals</text>
<text text-anchor="middle" x="50.5" y="-7.5" font-family="Helvetica,sans-Serif" font-size="10.00">_Initialize</text>
</a>
</g>
</g>
<!-- Node3&#45;&gt;Node4 -->
<g id="edge3" class="edge">
<title>Node3&#45;&gt;Node4</title>
<path fill="none" stroke="midnightblue" d="M126.86,-15.5C118.19,-15.5 109.48,-15.5 101.2,-15.5"/>
<polygon fill="midnightblue" stroke="midnightblue" points="126.98,-19 136.98,-15.5 126.98,-12 126.98,-19"/>
</g>
</g>
</svg>
