<?xml version="1.0" encoding="UTF-8" standalone="no"?>
<!DOCTYPE svg PUBLIC "-//W3C//DTD SVG 1.1//EN"
 "http://www.w3.org/Graphics/SVG/1.1/DTD/svg11.dtd">
<!-- Generated by graphviz version 2.44.1 (20200629.0846)
 -->
<!-- Title: General Purpose Input/Output (GPIO) Pages: 1 -->
<svg width="385pt" height="64pt"
 viewBox="0.00 0.00 385.00 64.00" xmlns="http://www.w3.org/2000/svg" xmlns:xlink="http://www.w3.org/1999/xlink">
<g id="graph0" class="graph" transform="scale(1 1) rotate(0) translate(4 60)">
<title>General Purpose Input/Output (GPIO)</title>
<polygon fill="white" stroke="transparent" points="-4,4 -4,-60 381,-60 381,4 -4,4"/>
<!-- Node4 -->
<g id="node1" class="node">
<title>Node4</title>
<g id="a_node1"><a xlink:href="a00385.html" target="_top" xlink:title="Private properties of the GPIO PRAL driver.">
<polygon fill="white" stroke="black" points="377,-56 284,-56 284,-37 377,-37 377,-56"/>
<text text-anchor="middle" x="330.5" y="-44" font-family="Helvetica,sans-Serif" font-size="10.00">Private Properties</text>
</a>
</g>
</g>
<!-- Node1 -->
<g id="node2" class="node">
<title>Node1</title>
<g id="a_node2"><a xlink:title="General Purpose Input/Output Special Function Register Abstraction Driver.">
<polygon fill="#bfbfbf" stroke="black" points="248,-42.5 135,-42.5 135,-12.5 248,-12.5 248,-42.5"/>
<text text-anchor="start" x="143" y="-30.5" font-family="Helvetica,sans-Serif" font-size="10.00">General Purpose Input</text>
<text text-anchor="middle" x="191.5" y="-19.5" font-family="Helvetica,sans-Serif" font-size="10.00">/Output (GPIO)</text>
</a>
</g>
</g>
<!-- Node1&#45;&gt;Node4 -->
<g id="edge3" class="edge">
<title>Node1&#45;&gt;Node4</title>
<path fill="none" stroke="black" d="M258.32,-36.63C266.97,-37.83 275.67,-39.03 283.88,-40.17"/>
<polygon fill="black" stroke="black" points="258.61,-33.14 248.22,-35.23 257.65,-40.07 258.61,-33.14"/>
</g>
<!-- Node3 -->
<g id="node3" class="node">
<title>Node3</title>
<g id="a_node3"><a xlink:href="a00377.html" target="_top" xlink:title="Public functions of the GPIO PRAL driver.">
<polygon fill="white" stroke="black" points="375,-19 286,-19 286,0 375,0 375,-19"/>
<text text-anchor="middle" x="330.5" y="-7" font-family="Helvetica,sans-Serif" font-size="10.00">Public Functions</text>
</a>
</g>
</g>
<!-- Node1&#45;&gt;Node3 -->
<g id="edge2" class="edge">
<title>Node1&#45;&gt;Node3</title>
<path fill="none" stroke="black" d="M258.23,-18.86C267.51,-17.64 276.86,-16.42 285.59,-15.27"/>
<polygon fill="black" stroke="black" points="257.68,-15.41 248.22,-20.18 258.59,-22.35 257.68,-15.41"/>
</g>
<!-- Node2 -->
<g id="node4" class="node">
<title>Node2</title>
<g id="a_node4"><a xlink:href="a00365.html" target="_top" xlink:title=" ">
<polygon fill="white" stroke="black" points="99,-48 0,-48 0,-7 99,-7 99,-48"/>
<text text-anchor="start" x="8" y="-36" font-family="Helvetica,sans-Serif" font-size="10.00">Peripheral Register</text>
<text text-anchor="start" x="8" y="-25" font-family="Helvetica,sans-Serif" font-size="10.00"> Abstraction Layer </text>
<text text-anchor="middle" x="49.5" y="-14" font-family="Helvetica,sans-Serif" font-size="10.00">(PRAL) Library</text>
</a>
</g>
</g>
<!-- Node2&#45;&gt;Node1 -->
<g id="edge1" class="edge">
<title>Node2&#45;&gt;Node1</title>
<path fill="none" stroke="black" d="M109.25,-27.5C117.72,-27.5 126.41,-27.5 134.81,-27.5"/>
<polygon fill="black" stroke="black" points="109.07,-24 99.07,-27.5 109.07,-31 109.07,-24"/>
</g>
</g>
</svg>
