<?xml version="1.0" encoding="UTF-8" standalone="no"?>
<!DOCTYPE svg PUBLIC "-//W3C//DTD SVG 1.1//EN"
 "http://www.w3.org/Graphics/SVG/1.1/DTD/svg11.dtd">
<!-- Generated by graphviz version 2.44.1 (20200629.0846)
 -->
<!-- Title: p33c_OpaModule_GetHandle Pages: 1 -->
<svg width="456pt" height="104pt"
 viewBox="0.00 0.00 456.00 104.00" xmlns="http://www.w3.org/2000/svg" xmlns:xlink="http://www.w3.org/1999/xlink">
<g id="graph0" class="graph" transform="scale(1 1) rotate(0) translate(4 100)">
<title>p33c_OpaModule_GetHandle</title>
<polygon fill="white" stroke="transparent" points="-4,4 -4,-100 452,-100 452,4 -4,4"/>
<!-- Node1 -->
<g id="node1" class="node">
<title>Node1</title>
<g id="a_node1"><a xlink:title="Gets pointer to op&#45;amp Module SFR set.">
<polygon fill="#bfbfbf" stroke="black" points="305,-38.5 305,-57.5 448,-57.5 448,-38.5 305,-38.5"/>
<text text-anchor="middle" x="376.5" y="-45.5" font-family="Helvetica,sans-Serif" font-size="10.00">p33c_OpaModule_GetHandle</text>
</a>
</g>
</g>
<!-- Node2 -->
<g id="node2" class="node">
<title>Node2</title>
<g id="a_node2"><a xlink:href="a00561.html#gaf4c74cf390185b49d99838e0f9885076" target="_top" xlink:title="Initializes the on&#45;chip operational amplifier module.">
<polygon fill="white" stroke="black" points="150,-76.5 150,-95.5 256,-95.5 256,-76.5 150,-76.5"/>
<text text-anchor="middle" x="203" y="-83.5" font-family="Helvetica,sans-Serif" font-size="10.00">sysOpAmp_Initialize</text>
</a>
</g>
</g>
<!-- Node1&#45;&gt;Node2 -->
<g id="edge1" class="edge">
<title>Node1&#45;&gt;Node2</title>
<path fill="none" stroke="midnightblue" d="M322.46,-59.75C298.21,-65.13 269.85,-71.41 246.97,-76.48"/>
<polygon fill="midnightblue" stroke="midnightblue" points="323.22,-63.17 332.22,-57.59 321.7,-56.34 323.22,-63.17"/>
</g>
<!-- Node4 -->
<g id="node4" class="node">
<title>Node4</title>
<g id="a_node4"><a xlink:href="a00561.html#ga3cd080c9a48a5d74d8b2f89fdec161da" target="_top" xlink:title="Enables the on&#45;chip operational amplifier module.">
<polygon fill="white" stroke="black" points="137,-38.5 137,-57.5 269,-57.5 269,-38.5 137,-38.5"/>
<text text-anchor="middle" x="203" y="-45.5" font-family="Helvetica,sans-Serif" font-size="10.00">sysOpAmp_ModuleEnable</text>
</a>
</g>
</g>
<!-- Node1&#45;&gt;Node4 -->
<g id="edge3" class="edge">
<title>Node1&#45;&gt;Node4</title>
<path fill="none" stroke="midnightblue" d="M294.72,-48C286.12,-48 277.46,-48 269.08,-48"/>
<polygon fill="midnightblue" stroke="midnightblue" points="294.75,-51.5 304.75,-48 294.75,-44.5 294.75,-51.5"/>
</g>
<!-- Node5 -->
<g id="node5" class="node">
<title>Node5</title>
<g id="a_node5"><a xlink:href="a00561.html#ga4dbd2367ecd449226460b0b0a52cbe8b" target="_top" xlink:title="Resets the on&#45;chip operational amplifier module.">
<polygon fill="white" stroke="black" points="139,-0.5 139,-19.5 267,-19.5 267,-0.5 139,-0.5"/>
<text text-anchor="middle" x="203" y="-7.5" font-family="Helvetica,sans-Serif" font-size="10.00">sysOpAmp_ModuleReset</text>
</a>
</g>
</g>
<!-- Node1&#45;&gt;Node5 -->
<g id="edge5" class="edge">
<title>Node1&#45;&gt;Node5</title>
<path fill="none" stroke="midnightblue" d="M322.46,-36.25C298.21,-30.87 269.85,-24.59 246.97,-19.52"/>
<polygon fill="midnightblue" stroke="midnightblue" points="321.7,-39.66 332.22,-38.41 323.22,-32.83 321.7,-39.66"/>
</g>
<!-- Node3 -->
<g id="node3" class="node">
<title>Node3</title>
<g id="a_node3"><a xlink:href="a00559.html#ga70c5cba054e38a4e8c8285a187ff61fa" target="_top" xlink:title="Initializes the user&#45;defined chip resources.">
<polygon fill="white" stroke="black" points="0,-33 0,-63 101,-63 101,-33 0,-33"/>
<text text-anchor="start" x="8" y="-51" font-family="Helvetica,sans-Serif" font-size="10.00">sysUserPeriperhals</text>
<text text-anchor="middle" x="50.5" y="-40" font-family="Helvetica,sans-Serif" font-size="10.00">_Initialize</text>
</a>
</g>
</g>
<!-- Node2&#45;&gt;Node3 -->
<g id="edge2" class="edge">
<title>Node2&#45;&gt;Node3</title>
<path fill="none" stroke="midnightblue" d="M154.32,-73.96C137.37,-69.68 118.25,-64.85 101.14,-60.53"/>
<polygon fill="midnightblue" stroke="midnightblue" points="153.47,-77.36 164.02,-76.41 155.18,-70.57 153.47,-77.36"/>
</g>
<!-- Node4&#45;&gt;Node3 -->
<g id="edge4" class="edge">
<title>Node4&#45;&gt;Node3</title>
<path fill="none" stroke="midnightblue" d="M126.75,-48C118.12,-48 109.49,-48 101.31,-48"/>
<polygon fill="midnightblue" stroke="midnightblue" points="126.86,-51.5 136.86,-48 126.86,-44.5 126.86,-51.5"/>
</g>
<!-- Node5&#45;&gt;Node3 -->
<g id="edge6" class="edge">
<title>Node5&#45;&gt;Node3</title>
<path fill="none" stroke="midnightblue" d="M154.32,-22.04C137.37,-26.32 118.25,-31.15 101.14,-35.47"/>
<polygon fill="midnightblue" stroke="midnightblue" points="155.18,-25.43 164.02,-19.59 153.47,-18.64 155.18,-25.43"/>
</g>
</g>
</svg>
