<?xml version="1.0" encoding="UTF-8" standalone="no"?>
<!DOCTYPE svg PUBLIC "-//W3C//DTD SVG 1.1//EN"
 "http://www.w3.org/Graphics/SVG/1.1/DTD/svg11.dtd">
<!-- Generated by graphviz version 2.44.1 (20200629.0846)
 -->
<!-- Title: Microcontroller Device Abstraction Pages: 1 -->
<svg width="401pt" height="64pt"
 viewBox="0.00 0.00 401.00 64.00" xmlns="http://www.w3.org/2000/svg" xmlns:xlink="http://www.w3.org/1999/xlink">
<g id="graph0" class="graph" transform="scale(1 1) rotate(0) translate(4 60)">
<title>Microcontroller Device Abstraction</title>
<polygon fill="white" stroke="transparent" points="-4,4 -4,-60 397,-60 397,4 -4,4"/>
<!-- Node2 -->
<g id="node1" class="node">
<title>Node2</title>
<g id="a_node1"><a xlink:href="a00565.html" target="_top" xlink:title="Hardware Abstraction Layer Declarations.">
<polygon fill="white" stroke="black" points="110,-42.5 0,-42.5 0,-12.5 110,-12.5 110,-42.5"/>
<text text-anchor="start" x="8" y="-30.5" font-family="Helvetica,sans-Serif" font-size="10.00">Hardware Abstraction</text>
<text text-anchor="middle" x="55" y="-19.5" font-family="Helvetica,sans-Serif" font-size="10.00"> Layer</text>
</a>
</g>
</g>
<!-- Node1 -->
<g id="node4" class="node">
<title>Node1</title>
<g id="a_node4"><a xlink:title="Declarations of fundamental microcontroller device parameters.">
<polygon fill="#bfbfbf" stroke="black" points="258,-42.5 146,-42.5 146,-12.5 258,-12.5 258,-42.5"/>
<text text-anchor="start" x="154" y="-30.5" font-family="Helvetica,sans-Serif" font-size="10.00">Microcontroller Device</text>
<text text-anchor="middle" x="202" y="-19.5" font-family="Helvetica,sans-Serif" font-size="10.00"> Abstraction</text>
</a>
</g>
</g>
<!-- Node2&#45;&gt;Node1 -->
<g id="edge1" class="edge">
<title>Node2&#45;&gt;Node1</title>
<path fill="none" stroke="black" d="M120.57,-27.5C128.99,-27.5 137.56,-27.5 145.81,-27.5"/>
<polygon fill="black" stroke="black" points="120.41,-24 110.41,-27.5 120.41,-31 120.41,-24"/>
</g>
<!-- Node4 -->
<g id="node2" class="node">
<title>Node4</title>
<g id="a_node2"><a xlink:href="a00393.html" target="_top" xlink:title="Conversion macros converting physical quantities of parameters into binary (integer) numbers for regi...">
<polygon fill="white" stroke="black" points="393,-56 294,-56 294,-37 393,-37 393,-56"/>
<text text-anchor="middle" x="343.5" y="-44" font-family="Helvetica,sans-Serif" font-size="10.00">Conversion Macros</text>
</a>
</g>
</g>
<!-- Node3 -->
<g id="node3" class="node">
<title>Node3</title>
<g id="a_node3"><a xlink:href="a00392.html" target="_top" xlink:title="Parameter definitions using physical quantities.">
<polygon fill="white" stroke="black" points="381.5,-19 305.5,-19 305.5,0 381.5,0 381.5,-19"/>
<text text-anchor="middle" x="343.5" y="-7" font-family="Helvetica,sans-Serif" font-size="10.00">User Settings</text>
</a>
</g>
</g>
<!-- Node1&#45;&gt;Node4 -->
<g id="edge3" class="edge">
<title>Node1&#45;&gt;Node4</title>
<path fill="none" stroke="black" d="M268.14,-36.37C276.72,-37.54 285.4,-38.72 293.64,-39.85"/>
<polygon fill="black" stroke="black" points="268.51,-32.89 258.13,-35.01 267.57,-39.83 268.51,-32.89"/>
</g>
<!-- Node1&#45;&gt;Node3 -->
<g id="edge2" class="edge">
<title>Node1&#45;&gt;Node3</title>
<path fill="none" stroke="black" d="M268.27,-19.08C280.99,-17.44 293.92,-15.77 305.35,-14.29"/>
<polygon fill="black" stroke="black" points="267.6,-15.63 258.13,-20.39 268.5,-22.58 267.6,-15.63"/>
</g>
</g>
</svg>
