<?xml version="1.0" encoding="UTF-8" standalone="no"?>
<!DOCTYPE svg PUBLIC "-//W3C//DTD SVG 1.1//EN"
 "http://www.w3.org/Graphics/SVG/1.1/DTD/svg11.dtd">
<!-- Generated by graphviz version 2.44.1 (20200629.0846)
 -->
<!-- Title: p33c_GpioInstance_GetHandle Pages: 1 -->
<svg width="1323pt" height="278pt"
 viewBox="0.00 0.00 1323.00 278.00" xmlns="http://www.w3.org/2000/svg" xmlns:xlink="http://www.w3.org/1999/xlink">
<g id="graph0" class="graph" transform="scale(1 1) rotate(0) translate(4 274)">
<title>p33c_GpioInstance_GetHandle</title>
<polygon fill="white" stroke="transparent" points="-4,4 -4,-274 1319,-274 1319,4 -4,4"/>
<!-- Node1 -->
<g id="node1" class="node">
<title>Node1</title>
<g id="a_node1"><a xlink:title="Gets pointer to GPIO Instance SFR set.">
<polygon fill="#bfbfbf" stroke="black" points="1164,-128.5 1164,-147.5 1315,-147.5 1315,-128.5 1164,-128.5"/>
<text text-anchor="middle" x="1239.5" y="-135.5" font-family="Helvetica,sans-Serif" font-size="10.00">p33c_GpioInstance_GetHandle</text>
</a>
</g>
</g>
<!-- Node2 -->
<g id="node2" class="node">
<title>Node2</title>
<g id="a_node2"><a xlink:href="a00519.html#ga7f1d554e08d756b8677b572216908a3a" target="_top" xlink:title="This function clears the selected general purpose input/output pin.">
<polygon fill="white" stroke="black" points="1014.5,-204.5 1014.5,-223.5 1103.5,-223.5 1103.5,-204.5 1014.5,-204.5"/>
<text text-anchor="middle" x="1059" y="-211.5" font-family="Helvetica,sans-Serif" font-size="10.00">buckGPIO_Clear</text>
</a>
</g>
</g>
<!-- Node1&#45;&gt;Node2 -->
<g id="edge1" class="edge">
<title>Node1&#45;&gt;Node2</title>
<path fill="none" stroke="midnightblue" d="M1213.84,-152.58C1191.88,-165.1 1158.59,-182.98 1128,-195 1118.87,-198.59 1108.81,-201.79 1099.29,-204.49"/>
<polygon fill="midnightblue" stroke="midnightblue" points="1215.6,-155.6 1222.51,-147.57 1212.1,-149.54 1215.6,-155.6"/>
</g>
<!-- Node14 -->
<g id="node14" class="node">
<title>Node14</title>
<g id="a_node14"><a xlink:href="a00519.html#ga8e2253c136f05033e774d09032b283a1" target="_top" xlink:title="This function gets the state of the selected pin.">
<polygon fill="white" stroke="black" points="999,-52.5 999,-71.5 1119,-71.5 1119,-52.5 999,-52.5"/>
<text text-anchor="middle" x="1059" y="-59.5" font-family="Helvetica,sans-Serif" font-size="10.00">buckGPIO_GetPinState</text>
</a>
</g>
</g>
<!-- Node1&#45;&gt;Node14 -->
<g id="edge13" class="edge">
<title>Node1&#45;&gt;Node14</title>
<path fill="none" stroke="midnightblue" d="M1213.84,-123.42C1191.88,-110.9 1158.59,-93.02 1128,-81 1118.87,-77.41 1108.81,-74.21 1099.29,-71.51"/>
<polygon fill="midnightblue" stroke="midnightblue" points="1212.1,-126.46 1222.51,-128.43 1215.6,-120.4 1212.1,-126.46"/>
</g>
<!-- Node27 -->
<g id="node27" class="node">
<title>Node27</title>
<g id="a_node27"><a xlink:href="a00519.html#ga3d3f91c0e40884874e7df3a67fff23f3" target="_top" xlink:title="This function sets the pin as input or output.">
<polygon fill="white" stroke="black" points="993.5,-166.5 993.5,-185.5 1124.5,-185.5 1124.5,-166.5 993.5,-166.5"/>
<text text-anchor="middle" x="1059" y="-173.5" font-family="Helvetica,sans-Serif" font-size="10.00">buckGPIO_PrivateInitialize</text>
</a>
</g>
</g>
<!-- Node1&#45;&gt;Node27 -->
<g id="edge30" class="edge">
<title>Node1&#45;&gt;Node27</title>
<path fill="none" stroke="midnightblue" d="M1183.63,-149.68C1158.32,-155.07 1128.65,-161.39 1104.72,-166.48"/>
<polygon fill="midnightblue" stroke="midnightblue" points="1184.4,-153.09 1193.46,-147.59 1182.95,-146.25 1184.4,-153.09"/>
</g>
<!-- Node28 -->
<g id="node28" class="node">
<title>Node28</title>
<g id="a_node28"><a xlink:href="a00519.html#gad8cb8e5226f7c1d109cd0dc42e45be9f" target="_top" xlink:title="This function sets the selected general purpose input/ouput pins.">
<polygon fill="white" stroke="black" points="1018,-90.5 1018,-109.5 1100,-109.5 1100,-90.5 1018,-90.5"/>
<text text-anchor="middle" x="1059" y="-97.5" font-family="Helvetica,sans-Serif" font-size="10.00">buckGPIO_Set</text>
</a>
</g>
</g>
<!-- Node1&#45;&gt;Node28 -->
<g id="edge32" class="edge">
<title>Node1&#45;&gt;Node28</title>
<path fill="none" stroke="midnightblue" d="M1183.41,-126.27C1156.51,-120.55 1124.73,-113.78 1100.16,-108.55"/>
<polygon fill="midnightblue" stroke="midnightblue" points="1182.95,-129.75 1193.46,-128.41 1184.4,-122.91 1182.95,-129.75"/>
</g>
<!-- Node30 -->
<g id="node30" class="node">
<title>Node30</title>
<g id="a_node30"><a xlink:href="a00519.html#ga45a54def97cc67eb8d36e22a3867d95f" target="_top" xlink:title="This function initializes the output pins for the PWM output and the default buck PWM settings.">
<polygon fill="white" stroke="black" points="990,-128.5 990,-147.5 1128,-147.5 1128,-128.5 990,-128.5"/>
<text text-anchor="middle" x="1059" y="-135.5" font-family="Helvetica,sans-Serif" font-size="10.00">buckPWM_ChannelInitialize</text>
</a>
</g>
</g>
<!-- Node1&#45;&gt;Node30 -->
<g id="edge34" class="edge">
<title>Node1&#45;&gt;Node30</title>
<path fill="none" stroke="midnightblue" d="M1153.77,-138C1145.17,-138 1136.5,-138 1128.1,-138"/>
<polygon fill="midnightblue" stroke="midnightblue" points="1153.83,-141.5 1163.83,-138 1153.83,-134.5 1153.83,-141.5"/>
</g>
<!-- Node3 -->
<g id="node3" class="node">
<title>Node3</title>
<g id="a_node3"><a xlink:href="a00519.html#gac7e5924475733c189b2318844ae01844" target="_top" xlink:title="This function initializes the buck input pins.">
<polygon fill="white" stroke="black" points="834,-166.5 834,-185.5 936,-185.5 936,-166.5 834,-166.5"/>
<text text-anchor="middle" x="885" y="-173.5" font-family="Helvetica,sans-Serif" font-size="10.00">buckGPIO_Initialize</text>
</a>
</g>
</g>
<!-- Node2&#45;&gt;Node3 -->
<g id="edge2" class="edge">
<title>Node2&#45;&gt;Node3</title>
<path fill="none" stroke="midnightblue" d="M1004.8,-202.25C980.48,-196.87 952.05,-190.59 929.09,-185.52"/>
<polygon fill="midnightblue" stroke="midnightblue" points="1004.08,-205.67 1014.6,-204.41 1005.59,-198.84 1004.08,-205.67"/>
</g>
<!-- Node8 -->
<g id="node8" class="node">
<title>Node8</title>
<g id="a_node8"><a xlink:href="a00519.html#gab2905ddac9f94bf8bfa203444c0d3691" target="_top" xlink:title="This function stops the buck PWM output.">
<polygon fill="white" stroke="black" points="841,-246.5 841,-265.5 929,-265.5 929,-246.5 841,-246.5"/>
<text text-anchor="middle" x="885" y="-253.5" font-family="Helvetica,sans-Serif" font-size="10.00">buckPWM_Stop</text>
</a>
</g>
</g>
<!-- Node2&#45;&gt;Node8 -->
<g id="edge7" class="edge">
<title>Node2&#45;&gt;Node8</title>
<path fill="none" stroke="midnightblue" d="M1009.1,-225.94C982.51,-232.43 950.07,-240.35 925.17,-246.43"/>
<polygon fill="midnightblue" stroke="midnightblue" points="1010.09,-229.3 1018.97,-223.53 1008.43,-222.5 1010.09,-229.3"/>
</g>
<!-- Node11 -->
<g id="node11" class="node">
<title>Node11</title>
<g id="a_node11"><a xlink:href="a00519.html#gae63dbb1465ca458b8b7f6733a30f7d0b" target="_top" xlink:title="This function disables the PWM generator IOs.">
<polygon fill="white" stroke="black" points="832,-204.5 832,-223.5 938,-223.5 938,-204.5 832,-204.5"/>
<text text-anchor="middle" x="885" y="-211.5" font-family="Helvetica,sans-Serif" font-size="10.00">buckPWM_Suspend</text>
</a>
</g>
</g>
<!-- Node2&#45;&gt;Node11 -->
<g id="edge10" class="edge">
<title>Node2&#45;&gt;Node11</title>
<path fill="none" stroke="midnightblue" d="M1004.07,-214C983,-214 958.92,-214 938.03,-214"/>
<polygon fill="midnightblue" stroke="midnightblue" points="1004.15,-217.5 1014.15,-214 1004.15,-210.5 1004.15,-217.5"/>
</g>
<!-- Node4 -->
<g id="node4" class="node">
<title>Node4</title>
<g id="a_node4"><a xlink:href="a00496.html#gaf3c64772d6dfd473d6924fb8893bd180" target="_top" xlink:title="This function initializes all peripheral modules and their instances used by the power controller.">
<polygon fill="white" stroke="black" points="641.5,-136.5 641.5,-155.5 778.5,-155.5 778.5,-136.5 641.5,-136.5"/>
<text text-anchor="middle" x="710" y="-143.5" font-family="Helvetica,sans-Serif" font-size="10.00">drv_BuckConverter_Initialize</text>
</a>
</g>
</g>
<!-- Node3&#45;&gt;Node4 -->
<g id="edge3" class="edge">
<title>Node3&#45;&gt;Node4</title>
<path fill="none" stroke="midnightblue" d="M824.02,-165.6C805.21,-162.34 784.54,-158.75 766.08,-155.55"/>
<polygon fill="midnightblue" stroke="midnightblue" points="823.51,-169.06 833.96,-167.32 824.71,-162.17 823.51,-169.06"/>
</g>
<!-- Node5 -->
<g id="node5" class="node">
<title>Node5</title>
<g id="a_node5"><a xlink:href="a00492.html#ga0b26acfec74d1804384b4ba1a3cffab4" target="_top" xlink:title="This function is used to load peripheral configuration templates from the power controller device dri...">
<polygon fill="white" stroke="black" points="461,-143 461,-173 604,-173 604,-143 461,-143"/>
<text text-anchor="start" x="469" y="-161" font-family="Helvetica,sans-Serif" font-size="10.00">appPowerSupply_Peripherals</text>
<text text-anchor="middle" x="532.5" y="-150" font-family="Helvetica,sans-Serif" font-size="10.00">Initialize</text>
</a>
</g>
</g>
<!-- Node4&#45;&gt;Node5 -->
<g id="edge4" class="edge">
<title>Node4&#45;&gt;Node5</title>
<path fill="none" stroke="midnightblue" d="M631.32,-151.31C622.31,-151.93 613.17,-152.55 604.27,-153.16"/>
<polygon fill="midnightblue" stroke="midnightblue" points="631.66,-154.8 641.4,-150.62 631.18,-147.81 631.66,-154.8"/>
</g>
<!-- Node6 -->
<g id="node6" class="node">
<title>Node6</title>
<g id="a_node6"><a xlink:href="a00489.html#ga7a4cf6371d09457539f96a74b2809ca0" target="_top" xlink:title="Calls the application layer power controller initialization.">
<polygon fill="white" stroke="black" points="155,-145.5 155,-164.5 285,-164.5 285,-145.5 155,-145.5"/>
<text text-anchor="middle" x="220" y="-152.5" font-family="Helvetica,sans-Serif" font-size="10.00">appPowerSupply_Initialize</text>
</a>
</g>
</g>
<!-- Node5&#45;&gt;Node6 -->
<g id="edge5" class="edge">
<title>Node5&#45;&gt;Node6</title>
<path fill="none" stroke="midnightblue" d="M450.54,-157.22C398.99,-156.72 333.14,-156.08 285.2,-155.62"/>
<polygon fill="midnightblue" stroke="midnightblue" points="450.62,-160.72 460.65,-157.32 450.69,-153.72 450.62,-160.72"/>
</g>
<!-- Node7 -->
<g id="node7" class="node">
<title>Node7</title>
<g id="a_node7"><a xlink:href="a00564.html#ga2be64f5f0b9a2c0c6713f5a69d793e05" target="_top" xlink:title="Initializes the user&#45;defined tasks.">
<polygon fill="white" stroke="black" points="0,-107.5 0,-126.5 119,-126.5 119,-107.5 0,-107.5"/>
<text text-anchor="middle" x="59.5" y="-114.5" font-family="Helvetica,sans-Serif" font-size="10.00">sysUserTasks_Initialize</text>
</a>
</g>
</g>
<!-- Node6&#45;&gt;Node7 -->
<g id="edge6" class="edge">
<title>Node6&#45;&gt;Node7</title>
<path fill="none" stroke="midnightblue" d="M169.08,-143.03C146.87,-137.71 121.08,-131.52 100.21,-126.52"/>
<polygon fill="midnightblue" stroke="midnightblue" points="168.46,-146.48 179,-145.41 170.1,-139.68 168.46,-146.48"/>
</g>
<!-- Node9 -->
<g id="node9" class="node">
<title>Node9</title>
<g id="a_node9"><a xlink:href="a00496.html#ga61726ccfa8287fe57683d2aa6423d6e0" target="_top" xlink:title="This function stop the buck converter opration.">
<polygon fill="white" stroke="black" points="649,-250.5 649,-269.5 771,-269.5 771,-250.5 649,-250.5"/>
<text text-anchor="middle" x="710" y="-257.5" font-family="Helvetica,sans-Serif" font-size="10.00">drv_BuckConverter_Stop</text>
</a>
</g>
</g>
<!-- Node8&#45;&gt;Node9 -->
<g id="edge8" class="edge">
<title>Node8&#45;&gt;Node9</title>
<path fill="none" stroke="midnightblue" d="M830.63,-257.23C811.84,-257.67 790.58,-258.16 771.26,-258.61"/>
<polygon fill="midnightblue" stroke="midnightblue" points="830.87,-260.73 840.79,-257 830.71,-253.73 830.87,-260.73"/>
</g>
<!-- Node10 -->
<g id="node10" class="node">
<title>Node10</title>
<g id="a_node10"><a xlink:href="a00489.html#gaa7d413f62f7b5f25d152cc12354241f0" target="_top" xlink:title="This function calls the buck converter device driver function stopping the power supply.">
<polygon fill="white" stroke="black" points="475,-250.5 475,-269.5 590,-269.5 590,-250.5 475,-250.5"/>
<text text-anchor="middle" x="532.5" y="-257.5" font-family="Helvetica,sans-Serif" font-size="10.00">appPowerSupply_Stop</text>
</a>
</g>
</g>
<!-- Node9&#45;&gt;Node10 -->
<g id="edge9" class="edge">
<title>Node9&#45;&gt;Node10</title>
<path fill="none" stroke="midnightblue" d="M638.23,-260C622.25,-260 605.48,-260 590.17,-260"/>
<polygon fill="midnightblue" stroke="midnightblue" points="638.6,-263.5 648.6,-260 638.6,-256.5 638.6,-263.5"/>
</g>
<!-- Node12 -->
<g id="node12" class="node">
<title>Node12</title>
<g id="a_node12"><a xlink:href="a00507.html#ga47717557335be2404de223606ccf829a" target="_top" xlink:title="If this function is called, the state machine is reset to INITIALIZE (URL=State_Initialize).">
<polygon fill="white" stroke="black" points="677,-174.5 677,-193.5 743,-193.5 743,-174.5 677,-174.5"/>
<text text-anchor="middle" x="710" y="-181.5" font-family="Helvetica,sans-Serif" font-size="10.00">State_Error</text>
</a>
</g>
</g>
<!-- Node11&#45;&gt;Node12 -->
<g id="edge11" class="edge">
<title>Node11&#45;&gt;Node12</title>
<path fill="none" stroke="midnightblue" d="M821.61,-203.18C795.01,-198.57 765.11,-193.38 743.1,-189.57"/>
<polygon fill="midnightblue" stroke="midnightblue" points="821.17,-206.66 831.62,-204.92 822.37,-199.76 821.17,-206.66"/>
</g>
<!-- Node13 -->
<g id="node13" class="node">
<title>Node13</title>
<g id="a_node13"><a xlink:href="a00507.html#ga493de6f9e2dbb41c2ff6ac082bcf36a1" target="_top" xlink:title="This function resets the buck control operation by re&#45;initiating the control mode,...">
<polygon fill="white" stroke="black" points="674.5,-212.5 674.5,-231.5 745.5,-231.5 745.5,-212.5 674.5,-212.5"/>
<text text-anchor="middle" x="710" y="-219.5" font-family="Helvetica,sans-Serif" font-size="10.00">State_Reset</text>
</a>
</g>
</g>
<!-- Node11&#45;&gt;Node13 -->
<g id="edge12" class="edge">
<title>Node11&#45;&gt;Node13</title>
<path fill="none" stroke="midnightblue" d="M821.63,-216.88C796.06,-218.07 767.43,-219.39 745.7,-220.4"/>
<polygon fill="midnightblue" stroke="midnightblue" points="821.8,-220.38 831.62,-216.42 821.47,-213.39 821.8,-220.38"/>
</g>
<!-- Node15 -->
<g id="node15" class="node">
<title>Node15</title>
<g id="a_node15"><a xlink:href="a00496.html#gab9877f90ffb129964ae42ce2921b3fe1" target="_top" xlink:title="This function is the main buck converter state machine executing the most recent state.">
<polygon fill="white" stroke="black" points="816,-45.5 816,-64.5 954,-64.5 954,-45.5 816,-45.5"/>
<text text-anchor="middle" x="885" y="-52.5" font-family="Helvetica,sans-Serif" font-size="10.00">drv_BuckConverter_Execute</text>
</a>
</g>
</g>
<!-- Node14&#45;&gt;Node15 -->
<g id="edge14" class="edge">
<title>Node14&#45;&gt;Node15</title>
<path fill="none" stroke="midnightblue" d="M988.54,-59.17C977.2,-58.71 965.47,-58.23 954.17,-57.77"/>
<polygon fill="midnightblue" stroke="midnightblue" points="988.67,-62.68 998.81,-59.59 988.96,-55.69 988.67,-62.68"/>
</g>
<!-- Node16 -->
<g id="node16" class="node">
<title>Node16</title>
<g id="a_node16"><a xlink:href="a00489.html#ga13094235dd6cc123d9299925359ca178" target="_top" xlink:title="This is the top&#45;level function call triggering the most recent state machine of all associated power ...">
<polygon fill="white" stroke="black" points="644.5,-45.5 644.5,-64.5 775.5,-64.5 775.5,-45.5 644.5,-45.5"/>
<text text-anchor="middle" x="710" y="-52.5" font-family="Helvetica,sans-Serif" font-size="10.00">appPowerSupply_Execute</text>
</a>
</g>
</g>
<!-- Node15&#45;&gt;Node16 -->
<g id="edge15" class="edge">
<title>Node15&#45;&gt;Node16</title>
<path fill="none" stroke="midnightblue" d="M805.38,-55C795.47,-55 785.43,-55 775.78,-55"/>
<polygon fill="midnightblue" stroke="midnightblue" points="805.63,-58.5 815.63,-55 805.63,-51.5 805.63,-58.5"/>
</g>
<!-- Node18 -->
<g id="node18" class="node">
<title>Node18</title>
<g id="a_node18"><a xlink:href="a00496.html#gaadb710d81053fd0ab75b305f1f329bf6" target="_top" xlink:title="This function resume the operation of the buck converter.">
<polygon fill="white" stroke="black" points="641,-4.5 641,-23.5 779,-23.5 779,-4.5 641,-4.5"/>
<text text-anchor="middle" x="710" y="-11.5" font-family="Helvetica,sans-Serif" font-size="10.00">drv_BuckConverter_Resume</text>
</a>
</g>
</g>
<!-- Node15&#45;&gt;Node18 -->
<g id="edge17" class="edge">
<title>Node15&#45;&gt;Node18</title>
<path fill="none" stroke="midnightblue" d="M834.09,-43.17C807.77,-36.93 775.92,-29.38 751.21,-23.53"/>
<polygon fill="midnightblue" stroke="midnightblue" points="833.34,-46.59 843.88,-45.49 834.95,-39.78 833.34,-46.59"/>
</g>
<!-- Node20 -->
<g id="node20" class="node">
<title>Node20</title>
<g id="a_node20"><a xlink:href="a00496.html#ga0d68d132b52175c43503c9b5794bae64" target="_top" xlink:title="This function suspends the operation of the buck converter.">
<polygon fill="white" stroke="black" points="640,-86.5 640,-105.5 780,-105.5 780,-86.5 640,-86.5"/>
<text text-anchor="middle" x="710" y="-93.5" font-family="Helvetica,sans-Serif" font-size="10.00">drv_BuckConverter_Suspend</text>
</a>
</g>
</g>
<!-- Node15&#45;&gt;Node20 -->
<g id="edge19" class="edge">
<title>Node15&#45;&gt;Node20</title>
<path fill="none" stroke="midnightblue" d="M834.09,-66.83C807.77,-73.07 775.92,-80.62 751.21,-86.47"/>
<polygon fill="midnightblue" stroke="midnightblue" points="834.95,-70.22 843.88,-64.51 833.34,-63.41 834.95,-70.22"/>
</g>
<!-- Node17 -->
<g id="node17" class="node">
<title>Node17</title>
<g id="a_node17"><a xlink:href="a00552.html#ga1873ce221ca3545badd9c72c846bba3d" target="_top" xlink:title="High priority task sequence executed at a fixed repetition frequency.">
<polygon fill="white" stroke="black" points="478,-39 478,-69 587,-69 587,-39 478,-39"/>
<text text-anchor="start" x="486" y="-57" font-family="Helvetica,sans-Serif" font-size="10.00">sysHighPriorityTasks</text>
<text text-anchor="middle" x="532.5" y="-46" font-family="Helvetica,sans-Serif" font-size="10.00">_Execute</text>
</a>
</g>
</g>
<!-- Node16&#45;&gt;Node17 -->
<g id="edge16" class="edge">
<title>Node16&#45;&gt;Node17</title>
<path fill="none" stroke="midnightblue" d="M633.92,-54.57C618.2,-54.48 601.92,-54.39 587.17,-54.31"/>
<polygon fill="midnightblue" stroke="midnightblue" points="634.13,-58.07 644.15,-54.63 634.17,-51.07 634.13,-58.07"/>
</g>
<!-- Node19 -->
<g id="node19" class="node">
<title>Node19</title>
<g id="a_node19"><a xlink:href="a00489.html#ga3c7bf6b771bc1296401a270da4a95bff" target="_top" xlink:title="This function resumes the power supply operation.">
<polygon fill="white" stroke="black" points="467,-0.5 467,-19.5 598,-19.5 598,-0.5 467,-0.5"/>
<text text-anchor="middle" x="532.5" y="-7.5" font-family="Helvetica,sans-Serif" font-size="10.00">appPowerSupply_Resume</text>
</a>
</g>
</g>
<!-- Node18&#45;&gt;Node19 -->
<g id="edge18" class="edge">
<title>Node18&#45;&gt;Node19</title>
<path fill="none" stroke="midnightblue" d="M630.57,-12.21C619.72,-11.97 608.68,-11.71 598.11,-11.47"/>
<polygon fill="midnightblue" stroke="midnightblue" points="630.82,-15.72 640.9,-12.45 630.98,-8.72 630.82,-15.72"/>
</g>
<!-- Node21 -->
<g id="node21" class="node">
<title>Node21</title>
<g id="a_node21"><a xlink:href="a00489.html#gafa4e90d260e60cf20f06acee067c39cd" target="_top" xlink:title="This function stops the power supply operation.">
<polygon fill="white" stroke="black" points="466,-88.5 466,-107.5 599,-107.5 599,-88.5 466,-88.5"/>
<text text-anchor="middle" x="532.5" y="-95.5" font-family="Helvetica,sans-Serif" font-size="10.00">appPowerSupply_Suspend</text>
</a>
</g>
</g>
<!-- Node20&#45;&gt;Node21 -->
<g id="edge20" class="edge">
<title>Node20&#45;&gt;Node21</title>
<path fill="none" stroke="midnightblue" d="M629.72,-96.9C619.49,-97.02 609.09,-97.14 599.11,-97.25"/>
<polygon fill="midnightblue" stroke="midnightblue" points="629.93,-100.4 639.89,-96.79 629.85,-93.4 629.93,-100.4"/>
</g>
<!-- Node22 -->
<g id="node22" class="node">
<title>Node22</title>
<g id="a_node22"><a xlink:href="a00455.html#ga54f9db91ea0782b08aa16ee77a57c5e5" target="_top" xlink:title="Initializes the user&#45;defined fault objects for overcurrent protection.">
<polygon fill="white" stroke="black" points="325.5,-50.5 325.5,-69.5 420.5,-69.5 420.5,-50.5 325.5,-50.5"/>
<text text-anchor="middle" x="373" y="-57.5" font-family="Helvetica,sans-Serif" font-size="10.00">ocp_FaultInitialize</text>
</a>
</g>
</g>
<!-- Node21&#45;&gt;Node22 -->
<g id="edge21" class="edge">
<title>Node21&#45;&gt;Node22</title>
<path fill="none" stroke="midnightblue" d="M481.9,-86.03C459.82,-80.71 434.2,-74.52 413.46,-69.52"/>
<polygon fill="midnightblue" stroke="midnightblue" points="481.21,-89.47 491.76,-88.41 482.86,-82.66 481.21,-89.47"/>
</g>
<!-- Node24 -->
<g id="node24" class="node">
<title>Node24</title>
<g id="a_node24"><a xlink:href="a00455.html#gade437244e8f6e5ff7c57a73442063350" target="_top" xlink:title="Initializes the user&#45;defined fault objects for overvoltage lockout.">
<polygon fill="white" stroke="black" points="325.5,-12.5 325.5,-31.5 420.5,-31.5 420.5,-12.5 325.5,-12.5"/>
<text text-anchor="middle" x="373" y="-19.5" font-family="Helvetica,sans-Serif" font-size="10.00">ovlo_FaultInitialize</text>
</a>
</g>
</g>
<!-- Node21&#45;&gt;Node24 -->
<g id="edge24" class="edge">
<title>Node21&#45;&gt;Node24</title>
<path fill="none" stroke="midnightblue" d="M475.04,-84.91C470.15,-82.91 465.39,-80.62 461,-78 441.29,-66.25 444.22,-53.53 425,-41 419.3,-37.28 412.77,-34.16 406.34,-31.58"/>
<polygon fill="midnightblue" stroke="midnightblue" points="473.97,-88.25 484.56,-88.41 476.38,-81.68 473.97,-88.25"/>
</g>
<!-- Node25 -->
<g id="node25" class="node">
<title>Node25</title>
<g id="a_node25"><a xlink:href="a00455.html#ga82dc317e3adac0308e5ac3f5ad321605" target="_top" xlink:title="Initializes the user&#45;defined fault objects for regulation error.">
<polygon fill="white" stroke="black" points="321,-126.5 321,-145.5 425,-145.5 425,-126.5 321,-126.5"/>
<text text-anchor="middle" x="373" y="-133.5" font-family="Helvetica,sans-Serif" font-size="10.00">regerr_FaultInitialize</text>
</a>
</g>
</g>
<!-- Node21&#45;&gt;Node25 -->
<g id="edge26" class="edge">
<title>Node21&#45;&gt;Node25</title>
<path fill="none" stroke="midnightblue" d="M481.9,-109.97C459.82,-115.29 434.2,-121.48 413.46,-126.48"/>
<polygon fill="midnightblue" stroke="midnightblue" points="482.86,-113.34 491.76,-107.59 481.21,-106.53 482.86,-113.34"/>
</g>
<!-- Node26 -->
<g id="node26" class="node">
<title>Node26</title>
<g id="a_node26"><a xlink:href="a00455.html#ga9441220f8a7d4a6805467d04b734e6b5" target="_top" xlink:title="Initializes the user&#45;defined fault objects for under&#45;voltage lockout.">
<polygon fill="white" stroke="black" points="325.5,-88.5 325.5,-107.5 420.5,-107.5 420.5,-88.5 325.5,-88.5"/>
<text text-anchor="middle" x="373" y="-95.5" font-family="Helvetica,sans-Serif" font-size="10.00">uvlo_FaultInitialize</text>
</a>
</g>
</g>
<!-- Node21&#45;&gt;Node26 -->
<g id="edge28" class="edge">
<title>Node21&#45;&gt;Node26</title>
<path fill="none" stroke="midnightblue" d="M455.35,-98C443.61,-98 431.79,-98 420.94,-98"/>
<polygon fill="midnightblue" stroke="midnightblue" points="455.62,-101.5 465.62,-98 455.62,-94.5 455.62,-101.5"/>
</g>
<!-- Node23 -->
<g id="node23" class="node">
<title>Node23</title>
<g id="a_node23"><a xlink:href="a00453.html#ga830e5c7087a8e5ee8ea39b7e3df94b68" target="_top" xlink:title="Initialization of user&#45;defined fault objects.">
<polygon fill="white" stroke="black" points="156.5,-88.5 156.5,-107.5 283.5,-107.5 283.5,-88.5 156.5,-88.5"/>
<text text-anchor="middle" x="220" y="-95.5" font-family="Helvetica,sans-Serif" font-size="10.00">appFaultMonitor_Initialize</text>
</a>
</g>
</g>
<!-- Node22&#45;&gt;Node23 -->
<g id="edge22" class="edge">
<title>Node22&#45;&gt;Node23</title>
<path fill="none" stroke="midnightblue" d="M324.16,-72.04C303.06,-77.35 278.62,-83.5 258.83,-88.48"/>
<polygon fill="midnightblue" stroke="midnightblue" points="325.05,-75.42 333.9,-69.59 323.34,-68.64 325.05,-75.42"/>
</g>
<!-- Node23&#45;&gt;Node7 -->
<g id="edge23" class="edge">
<title>Node23&#45;&gt;Node7</title>
<path fill="none" stroke="midnightblue" d="M146.18,-106.73C137.1,-107.82 127.9,-108.92 119.08,-109.98"/>
<polygon fill="midnightblue" stroke="midnightblue" points="146.84,-110.17 156.36,-105.51 146.01,-103.22 146.84,-110.17"/>
</g>
<!-- Node24&#45;&gt;Node23 -->
<g id="edge25" class="edge">
<title>Node24&#45;&gt;Node23</title>
<path fill="none" stroke="midnightblue" d="M334.52,-35.17C329.92,-37.02 325.32,-38.98 321,-41 289.86,-55.56 255.43,-76.28 236.18,-88.32"/>
<polygon fill="midnightblue" stroke="midnightblue" points="335.81,-38.42 343.87,-31.55 333.28,-31.9 335.81,-38.42"/>
</g>
<!-- Node25&#45;&gt;Node23 -->
<g id="edge27" class="edge">
<title>Node25&#45;&gt;Node23</title>
<path fill="none" stroke="midnightblue" d="M324.16,-123.96C303.06,-118.65 278.62,-112.5 258.83,-107.52"/>
<polygon fill="midnightblue" stroke="midnightblue" points="323.34,-127.36 333.9,-126.41 325.05,-120.58 323.34,-127.36"/>
</g>
<!-- Node26&#45;&gt;Node23 -->
<g id="edge29" class="edge">
<title>Node26&#45;&gt;Node23</title>
<path fill="none" stroke="midnightblue" d="M315.36,-98C305.05,-98 294.24,-98 283.77,-98"/>
<polygon fill="midnightblue" stroke="midnightblue" points="315.46,-101.5 325.46,-98 315.46,-94.5 315.46,-101.5"/>
</g>
<!-- Node27&#45;&gt;Node3 -->
<g id="edge31" class="edge">
<title>Node27&#45;&gt;Node3</title>
<path fill="none" stroke="midnightblue" d="M983.12,-176C967.22,-176 950.82,-176 936.11,-176"/>
<polygon fill="midnightblue" stroke="midnightblue" points="983.46,-179.5 993.46,-176 983.46,-172.5 983.46,-179.5"/>
</g>
<!-- Node29 -->
<g id="node29" class="node">
<title>Node29</title>
<g id="a_node29"><a xlink:href="a00507.html#ga93fe19751c6c8aebbbcc69e9fed56bb7" target="_top" xlink:title="In this function, a counter is incremented until the power good delay has expired.">
<polygon fill="white" stroke="black" points="816.5,-90.5 816.5,-109.5 953.5,-109.5 953.5,-90.5 816.5,-90.5"/>
<text text-anchor="middle" x="885" y="-97.5" font-family="Helvetica,sans-Serif" font-size="10.00">SubState_PowerGoodDelay</text>
</a>
</g>
</g>
<!-- Node28&#45;&gt;Node29 -->
<g id="edge33" class="edge">
<title>Node28&#45;&gt;Node29</title>
<path fill="none" stroke="midnightblue" d="M1007.5,-100C990.65,-100 971.6,-100 953.67,-100"/>
<polygon fill="midnightblue" stroke="midnightblue" points="1007.67,-103.5 1017.67,-100 1007.67,-96.5 1007.67,-103.5"/>
</g>
<!-- Node30&#45;&gt;Node4 -->
<g id="edge35" class="edge">
<title>Node30&#45;&gt;Node4</title>
<path fill="none" stroke="midnightblue" d="M979.59,-139.81C919.11,-141.2 836.31,-143.11 778.69,-144.44"/>
<polygon fill="midnightblue" stroke="midnightblue" points="979.94,-143.3 989.86,-139.57 979.78,-136.3 979.94,-143.3"/>
</g>
</g>
</svg>
