<?xml version="1.0" encoding="UTF-8" standalone="no"?>
<!DOCTYPE svg PUBLIC "-//W3C//DTD SVG 1.1//EN"
 "http://www.w3.org/Graphics/SVG/1.1/DTD/svg11.dtd">
<!-- Generated by graphviz version 2.44.1 (20200629.0846)
 -->
<!-- Title: p33c_PwmGenerator_GetHandle Pages: 1 -->
<svg width="1023pt" height="229pt"
 viewBox="0.00 0.00 1023.00 228.50" xmlns="http://www.w3.org/2000/svg" xmlns:xlink="http://www.w3.org/1999/xlink">
<g id="graph0" class="graph" transform="scale(1 1) rotate(0) translate(4 224.5)">
<title>p33c_PwmGenerator_GetHandle</title>
<polygon fill="white" stroke="transparent" points="-4,4 -4,-224.5 1019,-224.5 1019,4 -4,4"/>
<!-- Node1 -->
<g id="node1" class="node">
<title>Node1</title>
<g id="a_node1"><a xlink:title="Returns the PWM generator index.">
<polygon fill="#bfbfbf" stroke="black" points="857,-95.5 857,-114.5 1015,-114.5 1015,-95.5 857,-95.5"/>
<text text-anchor="middle" x="936" y="-102.5" font-family="Helvetica,sans-Serif" font-size="10.00">p33c_PwmGenerator_GetHandle</text>
</a>
</g>
</g>
<!-- Node2 -->
<g id="node2" class="node">
<title>Node2</title>
<g id="a_node2"><a xlink:href="a00519.html#ga45a54def97cc67eb8d36e22a3867d95f" target="_top" xlink:title="This function initializes the output pins for the PWM output and the default buck PWM settings.">
<polygon fill="white" stroke="black" points="678,-193.5 678,-212.5 816,-212.5 816,-193.5 678,-193.5"/>
<text text-anchor="middle" x="747" y="-200.5" font-family="Helvetica,sans-Serif" font-size="10.00">buckPWM_ChannelInitialize</text>
</a>
</g>
</g>
<!-- Node1&#45;&gt;Node2 -->
<g id="edge1" class="edge">
<title>Node1&#45;&gt;Node2</title>
<path fill="none" stroke="midnightblue" d="M915.17,-120.89C893.24,-137.79 856.33,-164.35 821,-181 810.46,-185.97 798.54,-190.12 787.44,-193.43"/>
<polygon fill="midnightblue" stroke="midnightblue" points="917.35,-123.63 923.07,-114.71 913.03,-118.11 917.35,-123.63"/>
</g>
<!-- Node7 -->
<g id="node7" class="node">
<title>Node7</title>
<g id="a_node7"><a xlink:href="a00519.html#ga2d46a45c20d84e1a7c6cfd5743b68c47" target="_top" xlink:title="This function resumes the buck PWM operation.">
<polygon fill="white" stroke="black" points="695,-152.5 695,-171.5 799,-171.5 799,-152.5 695,-152.5"/>
<text text-anchor="middle" x="747" y="-159.5" font-family="Helvetica,sans-Serif" font-size="10.00">buckPWM_Resume</text>
</a>
</g>
</g>
<!-- Node1&#45;&gt;Node7 -->
<g id="edge6" class="edge">
<title>Node1&#45;&gt;Node7</title>
<path fill="none" stroke="midnightblue" d="M898.27,-117.94C876.03,-125.6 847.02,-135.29 821,-143 809.95,-146.28 797.87,-149.54 786.78,-152.42"/>
<polygon fill="midnightblue" stroke="midnightblue" points="899.68,-121.16 907.98,-114.58 897.39,-114.54 899.68,-121.16"/>
</g>
<!-- Node9 -->
<g id="node9" class="node">
<title>Node9</title>
<g id="a_node9"><a xlink:href="a00519.html#gac63073d04bc35c0cce5df47ea0d33165" target="_top" xlink:title="This function enables the buck PWM operation.">
<polygon fill="white" stroke="black" points="702.5,-114.5 702.5,-133.5 791.5,-133.5 791.5,-114.5 702.5,-114.5"/>
<text text-anchor="middle" x="747" y="-121.5" font-family="Helvetica,sans-Serif" font-size="10.00">buckPWM_Start</text>
</a>
</g>
</g>
<!-- Node1&#45;&gt;Node9 -->
<g id="edge8" class="edge">
<title>Node1&#45;&gt;Node9</title>
<path fill="none" stroke="midnightblue" d="M846.78,-113.96C827.57,-115.92 808.06,-117.9 791.52,-119.58"/>
<polygon fill="midnightblue" stroke="midnightblue" points="847.18,-117.44 856.78,-112.95 846.48,-110.48 847.18,-117.44"/>
</g>
<!-- Node12 -->
<g id="node12" class="node">
<title>Node12</title>
<g id="a_node12"><a xlink:href="a00519.html#gab2905ddac9f94bf8bfa203444c0d3691" target="_top" xlink:title="This function stops the buck PWM output.">
<polygon fill="white" stroke="black" points="703,-76.5 703,-95.5 791,-95.5 791,-76.5 703,-76.5"/>
<text text-anchor="middle" x="747" y="-83.5" font-family="Helvetica,sans-Serif" font-size="10.00">buckPWM_Stop</text>
</a>
</g>
</g>
<!-- Node1&#45;&gt;Node12 -->
<g id="edge12" class="edge">
<title>Node1&#45;&gt;Node12</title>
<path fill="none" stroke="midnightblue" d="M846.73,-96.03C827.44,-94.07 807.84,-92.08 791.25,-90.39"/>
<polygon fill="midnightblue" stroke="midnightblue" points="846.48,-99.52 856.78,-97.05 847.18,-92.56 846.48,-99.52"/>
</g>
<!-- Node15 -->
<g id="node15" class="node">
<title>Node15</title>
<g id="a_node15"><a xlink:href="a00519.html#gae63dbb1465ca458b8b7f6733a30f7d0b" target="_top" xlink:title="This function disables the PWM generator IOs.">
<polygon fill="white" stroke="black" points="694,-38.5 694,-57.5 800,-57.5 800,-38.5 694,-38.5"/>
<text text-anchor="middle" x="747" y="-45.5" font-family="Helvetica,sans-Serif" font-size="10.00">buckPWM_Suspend</text>
</a>
</g>
</g>
<!-- Node1&#45;&gt;Node15 -->
<g id="edge15" class="edge">
<title>Node1&#45;&gt;Node15</title>
<path fill="none" stroke="midnightblue" d="M898.27,-92.06C876.03,-84.4 847.02,-74.71 821,-67 809.95,-63.72 797.87,-60.46 786.78,-57.58"/>
<polygon fill="midnightblue" stroke="midnightblue" points="897.39,-95.46 907.98,-95.42 899.68,-88.84 897.39,-95.46"/>
</g>
<!-- Node18 -->
<g id="node18" class="node">
<title>Node18</title>
<g id="a_node18"><a xlink:href="a00381.html#ga7f779276e0cf4c974267fdbb7c1ea86c" target="_top" xlink:title="Initializes a given PWM generator by resetting all its registers to default.">
<polygon fill="white" stroke="black" points="673,-0.5 673,-19.5 821,-19.5 821,-0.5 673,-0.5"/>
<text text-anchor="middle" x="747" y="-7.5" font-family="Helvetica,sans-Serif" font-size="10.00">p33c_PwmGenerator_Initialize</text>
</a>
</g>
</g>
<!-- Node1&#45;&gt;Node18 -->
<g id="edge18" class="edge">
<title>Node1&#45;&gt;Node18</title>
<path fill="none" stroke="midnightblue" d="M915.64,-89.13C893.86,-72.01 856.83,-45.06 821,-29 812.63,-25.25 803.39,-22.13 794.36,-19.58"/>
<polygon fill="midnightblue" stroke="midnightblue" points="913.47,-91.87 923.47,-95.38 917.83,-86.4 913.47,-91.87"/>
</g>
<!-- Node3 -->
<g id="node3" class="node">
<title>Node3</title>
<g id="a_node3"><a xlink:href="a00496.html#gaf3c64772d6dfd473d6924fb8893bd180" target="_top" xlink:title="This function initializes all peripheral modules and their instances used by the power controller.">
<polygon fill="white" stroke="black" points="500,-194.5 500,-213.5 637,-213.5 637,-194.5 500,-194.5"/>
<text text-anchor="middle" x="568.5" y="-201.5" font-family="Helvetica,sans-Serif" font-size="10.00">drv_BuckConverter_Initialize</text>
</a>
</g>
</g>
<!-- Node2&#45;&gt;Node3 -->
<g id="edge2" class="edge">
<title>Node2&#45;&gt;Node3</title>
<path fill="none" stroke="midnightblue" d="M667.69,-203.44C657.55,-203.5 647.22,-203.56 637.27,-203.62"/>
<polygon fill="midnightblue" stroke="midnightblue" points="667.78,-206.94 677.76,-203.39 667.74,-199.94 667.78,-206.94"/>
</g>
<!-- Node4 -->
<g id="node4" class="node">
<title>Node4</title>
<g id="a_node4"><a xlink:href="a00492.html#ga0b26acfec74d1804384b4ba1a3cffab4" target="_top" xlink:title="This function is used to load peripheral configuration templates from the power controller device dri...">
<polygon fill="white" stroke="black" points="321,-190 321,-220 464,-220 464,-190 321,-190"/>
<text text-anchor="start" x="329" y="-208" font-family="Helvetica,sans-Serif" font-size="10.00">appPowerSupply_Peripherals</text>
<text text-anchor="middle" x="392.5" y="-197" font-family="Helvetica,sans-Serif" font-size="10.00">Initialize</text>
</a>
</g>
</g>
<!-- Node3&#45;&gt;Node4 -->
<g id="edge3" class="edge">
<title>Node3&#45;&gt;Node4</title>
<path fill="none" stroke="midnightblue" d="M489.53,-204.45C481.11,-204.5 472.58,-204.55 464.25,-204.59"/>
<polygon fill="midnightblue" stroke="midnightblue" points="489.75,-207.95 499.73,-204.39 489.71,-200.95 489.75,-207.95"/>
</g>
<!-- Node5 -->
<g id="node5" class="node">
<title>Node5</title>
<g id="a_node5"><a xlink:href="a00489.html#ga7a4cf6371d09457539f96a74b2809ca0" target="_top" xlink:title="Calls the application layer power controller initialization.">
<polygon fill="white" stroke="black" points="155,-173.5 155,-192.5 285,-192.5 285,-173.5 155,-173.5"/>
<text text-anchor="middle" x="220" y="-180.5" font-family="Helvetica,sans-Serif" font-size="10.00">appPowerSupply_Initialize</text>
</a>
</g>
</g>
<!-- Node4&#45;&gt;Node5 -->
<g id="edge4" class="edge">
<title>Node4&#45;&gt;Node5</title>
<path fill="none" stroke="midnightblue" d="M310.65,-194.57C302.06,-193.46 293.42,-192.34 285.07,-191.27"/>
<polygon fill="midnightblue" stroke="midnightblue" points="310.31,-198.05 320.67,-195.86 311.2,-191.11 310.31,-198.05"/>
</g>
<!-- Node6 -->
<g id="node6" class="node">
<title>Node6</title>
<g id="a_node6"><a xlink:href="a00564.html#ga2be64f5f0b9a2c0c6713f5a69d793e05" target="_top" xlink:title="Initializes the user&#45;defined tasks.">
<polygon fill="white" stroke="black" points="0,-173.5 0,-192.5 119,-192.5 119,-173.5 0,-173.5"/>
<text text-anchor="middle" x="59.5" y="-180.5" font-family="Helvetica,sans-Serif" font-size="10.00">sysUserTasks_Initialize</text>
</a>
</g>
</g>
<!-- Node5&#45;&gt;Node6 -->
<g id="edge5" class="edge">
<title>Node5&#45;&gt;Node6</title>
<path fill="none" stroke="midnightblue" d="M144.9,-183C136.25,-183 127.52,-183 119.12,-183"/>
<polygon fill="midnightblue" stroke="midnightblue" points="144.99,-186.5 154.99,-183 144.99,-179.5 144.99,-186.5"/>
</g>
<!-- Node8 -->
<g id="node8" class="node">
<title>Node8</title>
<g id="a_node8"><a xlink:href="a00507.html#ga11e02a3b52d1d9731ad6eff8f804d841" target="_top" xlink:title="This function ramps up the output voltage to its nominal regulation point.">
<polygon fill="white" stroke="black" points="515,-152.5 515,-171.5 622,-171.5 622,-152.5 515,-152.5"/>
<text text-anchor="middle" x="568.5" y="-159.5" font-family="Helvetica,sans-Serif" font-size="10.00">SubState_VRampUp</text>
</a>
</g>
</g>
<!-- Node7&#45;&gt;Node8 -->
<g id="edge7" class="edge">
<title>Node7&#45;&gt;Node8</title>
<path fill="none" stroke="midnightblue" d="M684.83,-162C664.46,-162 641.96,-162 622.28,-162"/>
<polygon fill="midnightblue" stroke="midnightblue" points="684.95,-165.5 694.95,-162 684.95,-158.5 684.95,-165.5"/>
</g>
<!-- Node10 -->
<g id="node10" class="node">
<title>Node10</title>
<g id="a_node10"><a xlink:href="a00496.html#ga86289c82938655142075e84ac90aa603" target="_top" xlink:title="This function starts the buck converter.">
<polygon fill="white" stroke="black" points="507,-114.5 507,-133.5 630,-133.5 630,-114.5 507,-114.5"/>
<text text-anchor="middle" x="568.5" y="-121.5" font-family="Helvetica,sans-Serif" font-size="10.00">drv_BuckConverter_Start</text>
</a>
</g>
</g>
<!-- Node9&#45;&gt;Node10 -->
<g id="edge9" class="edge">
<title>Node9&#45;&gt;Node10</title>
<path fill="none" stroke="midnightblue" d="M692.12,-124C672.58,-124 650.37,-124 630.27,-124"/>
<polygon fill="midnightblue" stroke="midnightblue" points="692.37,-127.5 702.37,-124 692.37,-120.5 692.37,-127.5"/>
</g>
<!-- Node10&#45;&gt;Node5 -->
<g id="edge10" class="edge">
<title>Node10&#45;&gt;Node5</title>
<path fill="none" stroke="midnightblue" d="M502.82,-135.3C489.96,-137.53 476.55,-139.85 464,-142 400.32,-152.91 327.22,-165.21 277.97,-173.47"/>
<polygon fill="midnightblue" stroke="midnightblue" points="503.74,-138.69 512.99,-133.53 502.54,-131.8 503.74,-138.69"/>
</g>
<!-- Node11 -->
<g id="node11" class="node">
<title>Node11</title>
<g id="a_node11"><a xlink:href="a00489.html#ga9210070749c2ed49abd8a30b27f64151" target="_top" xlink:title="This function calls the buck converter device driver function starting the power supply.">
<polygon fill="white" stroke="black" points="334.5,-113.5 334.5,-132.5 450.5,-132.5 450.5,-113.5 334.5,-113.5"/>
<text text-anchor="middle" x="392.5" y="-120.5" font-family="Helvetica,sans-Serif" font-size="10.00">appPowerSupply_Start</text>
</a>
</g>
</g>
<!-- Node10&#45;&gt;Node11 -->
<g id="edge11" class="edge">
<title>Node10&#45;&gt;Node11</title>
<path fill="none" stroke="midnightblue" d="M496.24,-123.59C481.01,-123.5 465.13,-123.41 450.53,-123.33"/>
<polygon fill="midnightblue" stroke="midnightblue" points="496.62,-127.09 506.64,-123.65 496.66,-120.09 496.62,-127.09"/>
</g>
<!-- Node13 -->
<g id="node13" class="node">
<title>Node13</title>
<g id="a_node13"><a xlink:href="a00496.html#ga61726ccfa8287fe57683d2aa6423d6e0" target="_top" xlink:title="This function stop the buck converter opration.">
<polygon fill="white" stroke="black" points="507.5,-76.5 507.5,-95.5 629.5,-95.5 629.5,-76.5 507.5,-76.5"/>
<text text-anchor="middle" x="568.5" y="-83.5" font-family="Helvetica,sans-Serif" font-size="10.00">drv_BuckConverter_Stop</text>
</a>
</g>
</g>
<!-- Node12&#45;&gt;Node13 -->
<g id="edge13" class="edge">
<title>Node12&#45;&gt;Node13</title>
<path fill="none" stroke="midnightblue" d="M692.69,-86C672.78,-86 650.04,-86 629.56,-86"/>
<polygon fill="midnightblue" stroke="midnightblue" points="692.82,-89.5 702.82,-86 692.82,-82.5 692.82,-89.5"/>
</g>
<!-- Node14 -->
<g id="node14" class="node">
<title>Node14</title>
<g id="a_node14"><a xlink:href="a00489.html#gaa7d413f62f7b5f25d152cc12354241f0" target="_top" xlink:title="This function calls the buck converter device driver function stopping the power supply.">
<polygon fill="white" stroke="black" points="335,-75.5 335,-94.5 450,-94.5 450,-75.5 335,-75.5"/>
<text text-anchor="middle" x="392.5" y="-82.5" font-family="Helvetica,sans-Serif" font-size="10.00">appPowerSupply_Stop</text>
</a>
</g>
</g>
<!-- Node13&#45;&gt;Node14 -->
<g id="edge14" class="edge">
<title>Node13&#45;&gt;Node14</title>
<path fill="none" stroke="midnightblue" d="M497.03,-85.6C481.48,-85.51 465.19,-85.41 450.25,-85.33"/>
<polygon fill="midnightblue" stroke="midnightblue" points="497.11,-89.1 507.13,-85.65 497.15,-82.1 497.11,-89.1"/>
</g>
<!-- Node16 -->
<g id="node16" class="node">
<title>Node16</title>
<g id="a_node16"><a xlink:href="a00507.html#ga47717557335be2404de223606ccf829a" target="_top" xlink:title="If this function is called, the state machine is reset to INITIALIZE (URL=State_Initialize).">
<polygon fill="white" stroke="black" points="535.5,-38.5 535.5,-57.5 601.5,-57.5 601.5,-38.5 535.5,-38.5"/>
<text text-anchor="middle" x="568.5" y="-45.5" font-family="Helvetica,sans-Serif" font-size="10.00">State_Error</text>
</a>
</g>
</g>
<!-- Node15&#45;&gt;Node16 -->
<g id="edge16" class="edge">
<title>Node15&#45;&gt;Node16</title>
<path fill="none" stroke="midnightblue" d="M683.97,-48C656.22,-48 624.67,-48 601.73,-48"/>
<polygon fill="midnightblue" stroke="midnightblue" points="684,-51.5 694,-48 684,-44.5 684,-51.5"/>
</g>
<!-- Node17 -->
<g id="node17" class="node">
<title>Node17</title>
<g id="a_node17"><a xlink:href="a00507.html#ga493de6f9e2dbb41c2ff6ac082bcf36a1" target="_top" xlink:title="This function resets the buck control operation by re&#45;initiating the control mode,...">
<polygon fill="white" stroke="black" points="533,-0.5 533,-19.5 604,-19.5 604,-0.5 533,-0.5"/>
<text text-anchor="middle" x="568.5" y="-7.5" font-family="Helvetica,sans-Serif" font-size="10.00">State_Reset</text>
</a>
</g>
</g>
<!-- Node15&#45;&gt;Node17 -->
<g id="edge17" class="edge">
<title>Node15&#45;&gt;Node17</title>
<path fill="none" stroke="midnightblue" d="M691.62,-36.29C663.05,-30.14 628.91,-22.79 604,-17.43"/>
<polygon fill="midnightblue" stroke="midnightblue" points="690.95,-39.73 701.46,-38.41 692.42,-32.88 690.95,-39.73"/>
</g>
</g>
</svg>
