<?xml version="1.0" encoding="UTF-8" standalone="no"?>
<!DOCTYPE svg PUBLIC "-//W3C//DTD SVG 1.1//EN"
 "http://www.w3.org/Graphics/SVG/1.1/DTD/svg11.dtd">
<!-- Generated by graphviz version 2.44.1 (20200629.0846)
 -->
<!-- Title: Peripheral Register Abstraction Layer (PRAL) Library Pages: 1 -->
<svg width="413pt" height="364pt"
 viewBox="0.00 0.00 413.00 364.00" xmlns="http://www.w3.org/2000/svg" xmlns:xlink="http://www.w3.org/1999/xlink">
<g id="graph0" class="graph" transform="scale(1 1) rotate(0) translate(4 360)">
<title>Peripheral Register Abstraction Layer (PRAL) Library</title>
<polygon fill="white" stroke="transparent" points="-4,4 -4,-360 409,-360 409,4 -4,4"/>
<!-- Node6 -->
<g id="node1" class="node">
<title>Node6</title>
<g id="a_node1"><a xlink:href="a00369.html" target="_top" xlink:title="General Purpose Input/Output Special Function Register Abstraction Driver.">
<polygon fill="white" stroke="black" points="394.5,-356 281.5,-356 281.5,-326 394.5,-326 394.5,-356"/>
<text text-anchor="start" x="289.5" y="-344" font-family="Helvetica,sans-Serif" font-size="10.00">General Purpose Input</text>
<text text-anchor="middle" x="338" y="-333" font-family="Helvetica,sans-Serif" font-size="10.00">/Output (GPIO)</text>
</a>
</g>
</g>
<!-- Node8 -->
<g id="node2" class="node">
<title>Node8</title>
<g id="a_node2"><a xlink:href="a00371.html" target="_top" xlink:title="Oscillator Module Special Function Register Abstraction Driver.">
<polygon fill="white" stroke="black" points="399,-307.5 277,-307.5 277,-288.5 399,-288.5 399,-307.5"/>
<text text-anchor="middle" x="338" y="-295.5" font-family="Helvetica,sans-Serif" font-size="10.00">Oscillator Module (OSC)</text>
</a>
</g>
</g>
<!-- Node4 -->
<g id="node3" class="node">
<title>Node4</title>
<g id="a_node3"><a xlink:href="a00367.html" target="_top" xlink:title="Digital&#45;To&#45;Analog Converter Peripheral Module Special Function Register Abstraction Driver.">
<polygon fill="white" stroke="black" points="405,-270 271,-270 271,-240 405,-240 405,-270"/>
<text text-anchor="start" x="279" y="-258" font-family="Helvetica,sans-Serif" font-size="10.00">Digital&#45;To&#45;Analog Converter</text>
<text text-anchor="middle" x="338" y="-247" font-family="Helvetica,sans-Serif" font-size="10.00"> Module (DAC)</text>
</a>
</g>
</g>
<!-- Node3 -->
<g id="node4" class="node">
<title>Node3</title>
<g id="a_node4"><a xlink:href="a00366.html" target="_top" xlink:title="Capture Compare Peripheral Module Special Function Register Abstraction Driver.">
<polygon fill="white" stroke="black" points="401.5,-222 274.5,-222 274.5,-192 401.5,-192 401.5,-222"/>
<text text-anchor="start" x="282.5" y="-210" font-family="Helvetica,sans-Serif" font-size="10.00">Capture Compare Module</text>
<text text-anchor="middle" x="338" y="-199" font-family="Helvetica,sans-Serif" font-size="10.00"> (SCCP/MCCP)</text>
</a>
</g>
</g>
<!-- Node5 -->
<g id="node5" class="node">
<title>Node5</title>
<g id="a_node5"><a xlink:href="a00368.html" target="_top" xlink:title="Digital Signal Processor Special Function Register Abstraction Driver.">
<polygon fill="white" stroke="black" points="400,-174 276,-174 276,-144 400,-144 400,-174"/>
<text text-anchor="start" x="284" y="-162" font-family="Helvetica,sans-Serif" font-size="10.00">Digital Signal Processor</text>
<text text-anchor="middle" x="338" y="-151" font-family="Helvetica,sans-Serif" font-size="10.00"> Converter Module (DSP)</text>
</a>
</g>
</g>
<!-- Node2 -->
<g id="node6" class="node">
<title>Node2</title>
<g id="a_node6"><a xlink:href="a00568.html" target="_top" xlink:title="Generic Library Driver Layer.">
<polygon fill="white" stroke="black" points="100,-192.5 0,-192.5 0,-173.5 100,-173.5 100,-192.5"/>
<text text-anchor="middle" x="50" y="-180.5" font-family="Helvetica,sans-Serif" font-size="10.00">Library Driver Layer</text>
</a>
</g>
</g>
<!-- Node1 -->
<g id="node10" class="node">
<title>Node1</title>
<g id="a_node10"><a xlink:title=" ">
<polygon fill="#bfbfbf" stroke="black" points="235,-203.5 136,-203.5 136,-162.5 235,-162.5 235,-203.5"/>
<text text-anchor="start" x="144" y="-191.5" font-family="Helvetica,sans-Serif" font-size="10.00">Peripheral Register</text>
<text text-anchor="start" x="144" y="-180.5" font-family="Helvetica,sans-Serif" font-size="10.00"> Abstraction Layer </text>
<text text-anchor="middle" x="185.5" y="-169.5" font-family="Helvetica,sans-Serif" font-size="10.00">(PRAL) Library</text>
</a>
</g>
</g>
<!-- Node2&#45;&gt;Node1 -->
<g id="edge1" class="edge">
<title>Node2&#45;&gt;Node1</title>
<path fill="none" stroke="black" d="M110.53,-183C118.99,-183 127.6,-183 135.82,-183"/>
<polygon fill="black" stroke="black" points="110.33,-179.5 100.33,-183 110.33,-186.5 110.33,-179.5"/>
</g>
<!-- Node7 -->
<g id="node7" class="node">
<title>Node7</title>
<g id="a_node7"><a xlink:href="a00370.html" target="_top" xlink:title="Operational Amplifier Peripheral Module Special Function Register Abstraction Driver.">
<polygon fill="white" stroke="black" points="391.5,-126 284.5,-126 284.5,-96 391.5,-96 391.5,-126"/>
<text text-anchor="start" x="292.5" y="-114" font-family="Helvetica,sans-Serif" font-size="10.00">Operational Amplifier</text>
<text text-anchor="middle" x="338" y="-103" font-family="Helvetica,sans-Serif" font-size="10.00"> Module (AMP)</text>
</a>
</g>
</g>
<!-- Node9 -->
<g id="node8" class="node">
<title>Node9</title>
<g id="a_node8"><a xlink:href="a00372.html" target="_top" xlink:title="Peripheral Pin Select Module Special Function Register Abstraction Driver.">
<polygon fill="white" stroke="black" points="392,-78 284,-78 284,-48 392,-48 392,-78"/>
<text text-anchor="start" x="292" y="-66" font-family="Helvetica,sans-Serif" font-size="10.00">Peripheral Pin Select</text>
<text text-anchor="middle" x="338" y="-55" font-family="Helvetica,sans-Serif" font-size="10.00"> Module (PPS)</text>
</a>
</g>
</g>
<!-- Node10 -->
<g id="node9" class="node">
<title>Node10</title>
<g id="a_node9"><a xlink:href="a00373.html" target="_top" xlink:title="High&#45;Speed PWM Module Special Function Register Abstraction Driver.">
<polygon fill="white" stroke="black" points="402.5,-30 273.5,-30 273.5,0 402.5,0 402.5,-30"/>
<text text-anchor="start" x="281.5" y="-18" font-family="Helvetica,sans-Serif" font-size="10.00">High&#45;Speed PWM Module</text>
<text text-anchor="middle" x="338" y="-7" font-family="Helvetica,sans-Serif" font-size="10.00"> (HSPWM)</text>
</a>
</g>
</g>
<!-- Node1&#45;&gt;Node6 -->
<g id="edge5" class="edge">
<title>Node1&#45;&gt;Node6</title>
<path fill="none" stroke="black" d="M198.4,-212.89C211.83,-243.08 236.42,-289.12 271,-317 275.27,-320.44 280.08,-323.42 285.11,-325.98"/>
<polygon fill="black" stroke="black" points="201.61,-211.49 194.43,-203.69 195.18,-214.26 201.61,-211.49"/>
</g>
<!-- Node1&#45;&gt;Node8 -->
<g id="edge7" class="edge">
<title>Node1&#45;&gt;Node8</title>
<path fill="none" stroke="black" d="M205.32,-212.16C220.58,-233.6 243.96,-261.87 271,-279 277.14,-282.89 284.11,-286.01 291.15,-288.5"/>
<polygon fill="black" stroke="black" points="208.05,-209.96 199.48,-203.73 202.3,-213.95 208.05,-209.96"/>
</g>
<!-- Node1&#45;&gt;Node4 -->
<g id="edge3" class="edge">
<title>Node1&#45;&gt;Node4</title>
<path fill="none" stroke="black" d="M228.84,-208.89C242.09,-216.49 256.94,-224.5 271,-231 277.75,-234.12 285.03,-237.11 292.21,-239.87"/>
<polygon fill="black" stroke="black" points="230.34,-205.72 219.94,-203.72 226.82,-211.77 230.34,-205.72"/>
</g>
<!-- Node1&#45;&gt;Node3 -->
<g id="edge2" class="edge">
<title>Node1&#45;&gt;Node3</title>
<path fill="none" stroke="black" d="M245.48,-192.41C254.97,-193.92 264.82,-195.49 274.38,-197.01"/>
<polygon fill="black" stroke="black" points="245.79,-188.91 235.36,-190.79 244.69,-195.82 245.79,-188.91"/>
</g>
<!-- Node1&#45;&gt;Node5 -->
<g id="edge4" class="edge">
<title>Node1&#45;&gt;Node5</title>
<path fill="none" stroke="black" d="M245.28,-173.63C255.36,-172.02 265.86,-170.34 276,-168.73"/>
<polygon fill="black" stroke="black" points="244.69,-170.18 235.36,-175.21 245.79,-177.09 244.69,-170.18"/>
</g>
<!-- Node1&#45;&gt;Node7 -->
<g id="edge6" class="edge">
<title>Node1&#45;&gt;Node7</title>
<path fill="none" stroke="black" d="M228.84,-157.11C242.09,-149.51 256.94,-141.5 271,-135 277.75,-131.88 285.03,-128.89 292.21,-126.13"/>
<polygon fill="black" stroke="black" points="226.82,-154.23 219.94,-162.28 230.34,-160.28 226.82,-154.23"/>
</g>
<!-- Node1&#45;&gt;Node9 -->
<g id="edge8" class="edge">
<title>Node1&#45;&gt;Node9</title>
<path fill="none" stroke="black" d="M205.94,-153.98C221.4,-132.86 244.73,-104.93 271,-87 275.93,-83.63 281.4,-80.67 287.01,-78.09"/>
<polygon fill="black" stroke="black" points="202.98,-152.1 200.02,-162.27 208.68,-156.17 202.98,-152.1"/>
</g>
<!-- Node1&#45;&gt;Node10 -->
<g id="edge9" class="edge">
<title>Node1&#45;&gt;Node10</title>
<path fill="none" stroke="black" d="M197.02,-152.92C209.79,-120.54 234.26,-69.6 271,-39 275.12,-35.57 279.78,-32.6 284.66,-30.05"/>
<polygon fill="black" stroke="black" points="193.73,-151.73 193.44,-162.32 200.27,-154.22 193.73,-151.73"/>
</g>
</g>
</svg>
