<?xml version="1.0" encoding="UTF-8" standalone="no"?>
<!DOCTYPE svg PUBLIC "-//W3C//DTD SVG 1.1//EN"
 "http://www.w3.org/Graphics/SVG/1.1/DTD/svg11.dtd">
<!-- Generated by graphviz version 2.44.1 (20200629.0846)
 -->
<!-- Title: Oscillator Module (OSC) Pages: 1 -->
<svg width="394pt" height="64pt"
 viewBox="0.00 0.00 394.00 64.00" xmlns="http://www.w3.org/2000/svg" xmlns:xlink="http://www.w3.org/1999/xlink">
<g id="graph0" class="graph" transform="scale(1 1) rotate(0) translate(4 60)">
<title>Oscillator Module (OSC)</title>
<polygon fill="white" stroke="transparent" points="-4,4 -4,-60 390,-60 390,4 -4,4"/>
<!-- Node1 -->
<g id="node1" class="node">
<title>Node1</title>
<g id="a_node1"><a xlink:title="Oscillator Module Special Function Register Abstraction Driver.">
<polygon fill="#bfbfbf" stroke="black" points="257,-37 135,-37 135,-18 257,-18 257,-37"/>
<text text-anchor="middle" x="196" y="-25" font-family="Helvetica,sans-Serif" font-size="10.00">Oscillator Module (OSC)</text>
</a>
</g>
</g>
<!-- Node4 -->
<g id="node2" class="node">
<title>Node4</title>
<g id="a_node2"><a xlink:href="a00387.html" target="_top" xlink:title="Private properties of the OSC PRAL driver.">
<polygon fill="white" stroke="black" points="386,-56 293,-56 293,-37 386,-37 386,-56"/>
<text text-anchor="middle" x="339.5" y="-44" font-family="Helvetica,sans-Serif" font-size="10.00">Private Properties</text>
</a>
</g>
</g>
<!-- Node1&#45;&gt;Node4 -->
<g id="edge3" class="edge">
<title>Node1&#45;&gt;Node4</title>
<path fill="none" stroke="black" d="M266.96,-36.89C275.81,-38.08 284.67,-39.27 293,-40.39"/>
<polygon fill="black" stroke="black" points="267.39,-33.42 257.01,-35.56 266.45,-40.36 267.39,-33.42"/>
</g>
<!-- Node3 -->
<g id="node4" class="node">
<title>Node3</title>
<g id="a_node4"><a xlink:href="a00379.html" target="_top" xlink:title="Public functions of the OSC PRAL driver.">
<polygon fill="white" stroke="black" points="384,-19 295,-19 295,0 384,0 384,-19"/>
<text text-anchor="middle" x="339.5" y="-7" font-family="Helvetica,sans-Serif" font-size="10.00">Public Functions</text>
</a>
</g>
</g>
<!-- Node1&#45;&gt;Node3 -->
<g id="edge2" class="edge">
<title>Node1&#45;&gt;Node3</title>
<path fill="none" stroke="black" d="M267.16,-18.57C276.55,-17.38 285.95,-16.18 294.71,-15.07"/>
<polygon fill="black" stroke="black" points="266.49,-15.13 257.01,-19.87 267.37,-22.08 266.49,-15.13"/>
</g>
<!-- Node2 -->
<g id="node3" class="node">
<title>Node2</title>
<g id="a_node3"><a xlink:href="a00365.html" target="_top" xlink:title=" ">
<polygon fill="white" stroke="black" points="99,-48 0,-48 0,-7 99,-7 99,-48"/>
<text text-anchor="start" x="8" y="-36" font-family="Helvetica,sans-Serif" font-size="10.00">Peripheral Register</text>
<text text-anchor="start" x="8" y="-25" font-family="Helvetica,sans-Serif" font-size="10.00"> Abstraction Layer </text>
<text text-anchor="middle" x="49.5" y="-14" font-family="Helvetica,sans-Serif" font-size="10.00">(PRAL) Library</text>
</a>
</g>
</g>
<!-- Node2&#45;&gt;Node1 -->
<g id="edge1" class="edge">
<title>Node2&#45;&gt;Node1</title>
<path fill="none" stroke="black" d="M109.17,-27.5C117.62,-27.5 126.32,-27.5 134.8,-27.5"/>
<polygon fill="black" stroke="black" points="109.02,-24 99.02,-27.5 109.02,-31 109.02,-24"/>
</g>
</g>
</svg>
