<?xml version="1.0" encoding="UTF-8" standalone="no"?>
<!DOCTYPE svg PUBLIC "-//W3C//DTD SVG 1.1//EN"
 "http://www.w3.org/Graphics/SVG/1.1/DTD/svg11.dtd">
<!-- Generated by graphviz version 2.44.1 (20200629.0846)
 -->
<!-- Title: p33c_PwmGenerator_SyncGenerators Pages: 1 -->
<svg width="392pt" height="66pt"
 viewBox="0.00 0.00 392.00 66.00" xmlns="http://www.w3.org/2000/svg" xmlns:xlink="http://www.w3.org/1999/xlink">
<g id="graph0" class="graph" transform="scale(1 1) rotate(0) translate(4 62)">
<title>p33c_PwmGenerator_SyncGenerators</title>
<polygon fill="white" stroke="transparent" points="-4,4 -4,-62 388,-62 388,4 -4,4"/>
<!-- Node1 -->
<g id="node1" class="node">
<title>Node1</title>
<g id="a_node1"><a xlink:title="Sets the synchronization triggers of two PWM generators, of which the Mother PWM generator is the tri...">
<polygon fill="#bfbfbf" stroke="black" points="0,-19.5 0,-38.5 183,-38.5 183,-19.5 0,-19.5"/>
<text text-anchor="middle" x="91.5" y="-26.5" font-family="Helvetica,sans-Serif" font-size="10.00">p33c_PwmGenerator_SyncGenerators</text>
</a>
</g>
</g>
<!-- Node2 -->
<g id="node2" class="node">
<title>Node2</title>
<g id="a_node2"><a xlink:href="a00381.html#gae4eba2cc810c1148c025f94cb9b73755" target="_top" xlink:title="Get the PWM generator group.">
<polygon fill="white" stroke="black" points="224,-38.5 224,-57.5 379,-57.5 379,-38.5 224,-38.5"/>
<text text-anchor="middle" x="301.5" y="-45.5" font-family="Helvetica,sans-Serif" font-size="10.00">p33c_PwmGenerator_GetGroup</text>
</a>
</g>
</g>
<!-- Node1&#45;&gt;Node2 -->
<g id="edge1" class="edge">
<title>Node1&#45;&gt;Node2</title>
<path fill="none" stroke="midnightblue" d="M183.13,-37.28C193.31,-38.21 203.66,-39.15 213.79,-40.08"/>
<polygon fill="midnightblue" stroke="midnightblue" points="213.56,-43.57 223.83,-41 214.19,-36.6 213.56,-43.57"/>
</g>
<!-- Node3 -->
<g id="node3" class="node">
<title>Node3</title>
<g id="a_node3"><a xlink:href="a00381.html#ga7254c2b9b20683649633c28896d539c4" target="_top" xlink:title="Get the PWM generator instance index of a known PWM object pointer address.">
<polygon fill="white" stroke="black" points="219,-0.5 219,-19.5 384,-19.5 384,-0.5 219,-0.5"/>
<text text-anchor="middle" x="301.5" y="-7.5" font-family="Helvetica,sans-Serif" font-size="10.00">p33c_PwmGenerator_GetInstance</text>
</a>
</g>
</g>
<!-- Node1&#45;&gt;Node3 -->
<g id="edge2" class="edge">
<title>Node1&#45;&gt;Node3</title>
<path fill="none" stroke="midnightblue" d="M183.13,-20.72C191.7,-19.94 200.4,-19.14 208.99,-18.36"/>
<polygon fill="midnightblue" stroke="midnightblue" points="209.36,-21.84 219,-17.44 208.72,-14.87 209.36,-21.84"/>
</g>
</g>
</svg>
