<?xml version="1.0" encoding="UTF-8" standalone="no"?>
<!DOCTYPE svg PUBLIC "-//W3C//DTD SVG 1.1//EN"
 "http://www.w3.org/Graphics/SVG/1.1/DTD/svg11.dtd">
<!-- Generated by graphviz version 2.44.1 (20200629.0846)
 -->
<!-- Title: Startup Timing Settings Pages: 1 -->
<svg width="408pt" height="64pt"
 viewBox="0.00 0.00 408.00 64.00" xmlns="http://www.w3.org/2000/svg" xmlns:xlink="http://www.w3.org/1999/xlink">
<g id="graph0" class="graph" transform="scale(1 1) rotate(0) translate(4 60)">
<title>Startup Timing Settings</title>
<polygon fill="white" stroke="transparent" points="-4,4 -4,-60 404,-60 404,4 -4,4"/>
<!-- Node1 -->
<g id="node1" class="node">
<title>Node1</title>
<g id="a_node1"><a xlink:title="Declaration of startup timing periods.">
<polygon fill="#bfbfbf" stroke="black" points="265,-37 146,-37 146,-18 265,-18 265,-37"/>
<text text-anchor="middle" x="205.5" y="-25" font-family="Helvetica,sans-Serif" font-size="10.00">Startup Timing Settings</text>
</a>
</g>
</g>
<!-- Node3 -->
<g id="node3" class="node">
<title>Node3</title>
<g id="a_node3"><a xlink:href="a00399.html" target="_top" xlink:title="User&#45;declaration of startup timing periods using physical quantities.">
<polygon fill="white" stroke="black" points="388.5,-56 312.5,-56 312.5,-37 388.5,-37 388.5,-56"/>
<text text-anchor="middle" x="350.5" y="-44" font-family="Helvetica,sans-Serif" font-size="10.00">User Settings</text>
</a>
</g>
</g>
<!-- Node1&#45;&gt;Node3 -->
<g id="edge2" class="edge">
<title>Node1&#45;&gt;Node3</title>
<path fill="none" stroke="black" d="M275.22,-36.63C287.93,-38.32 300.77,-40.02 312.11,-41.53"/>
<polygon fill="black" stroke="black" points="275.45,-33.13 265.08,-35.28 274.53,-40.07 275.45,-33.13"/>
</g>
<!-- Node4 -->
<g id="node4" class="node">
<title>Node4</title>
<g id="a_node4"><a xlink:href="a00401.html" target="_top" xlink:title="Conversion macros for user&#45;declarations of startup timing periods.">
<polygon fill="white" stroke="black" points="400,-19 301,-19 301,0 400,0 400,-19"/>
<text text-anchor="middle" x="350.5" y="-7" font-family="Helvetica,sans-Serif" font-size="10.00">Conversion Macros</text>
</a>
</g>
</g>
<!-- Node1&#45;&gt;Node4 -->
<g id="edge3" class="edge">
<title>Node1&#45;&gt;Node4</title>
<path fill="none" stroke="black" d="M275.18,-18.85C283.84,-17.76 292.56,-16.67 300.82,-15.63"/>
<polygon fill="black" stroke="black" points="274.56,-15.41 265.08,-20.13 275.44,-22.35 274.56,-15.41"/>
</g>
<!-- Node2 -->
<g id="node2" class="node">
<title>Node2</title>
<g id="a_node2"><a xlink:href="a00565.html" target="_top" xlink:title="Hardware Abstraction Layer Declarations.">
<polygon fill="white" stroke="black" points="110,-42.5 0,-42.5 0,-12.5 110,-12.5 110,-42.5"/>
<text text-anchor="start" x="8" y="-30.5" font-family="Helvetica,sans-Serif" font-size="10.00">Hardware Abstraction</text>
<text text-anchor="middle" x="55" y="-19.5" font-family="Helvetica,sans-Serif" font-size="10.00"> Layer</text>
</a>
</g>
</g>
<!-- Node2&#45;&gt;Node1 -->
<g id="edge1" class="edge">
<title>Node2&#45;&gt;Node1</title>
<path fill="none" stroke="black" d="M120.04,-27.5C128.67,-27.5 137.48,-27.5 146,-27.5"/>
<polygon fill="black" stroke="black" points="120.03,-24 110.03,-27.5 120.03,-31 120.03,-24"/>
</g>
</g>
</svg>
