<?xml version="1.0" encoding="UTF-8" standalone="no"?>
<!DOCTYPE svg PUBLIC "-//W3C//DTD SVG 1.1//EN"
 "http://www.w3.org/Graphics/SVG/1.1/DTD/svg11.dtd">
<!-- Generated by graphviz version 2.44.1 (20200629.0846)
 -->
<!-- Title: p33c_DacModule_ConfigWrite Pages: 1 -->
<svg width="474pt" height="72pt"
 viewBox="0.00 0.00 474.00 71.50" xmlns="http://www.w3.org/2000/svg" xmlns:xlink="http://www.w3.org/1999/xlink">
<g id="graph0" class="graph" transform="scale(1 1) rotate(0) translate(4 67.5)">
<title>p33c_DacModule_ConfigWrite</title>
<polygon fill="white" stroke="transparent" points="-4,4 -4,-67.5 470,-67.5 470,4 -4,4"/>
<!-- Node1 -->
<g id="node1" class="node">
<title>Node1</title>
<g id="a_node1"><a xlink:title="Writes a user&#45;defined configuration to the DAC module base registers.">
<polygon fill="#bfbfbf" stroke="black" points="319,-25 319,-44 466,-44 466,-25 319,-25"/>
<text text-anchor="middle" x="392.5" y="-32" font-family="Helvetica,sans-Serif" font-size="10.00">p33c_DacModule_ConfigWrite</text>
</a>
</g>
</g>
<!-- Node2 -->
<g id="node2" class="node">
<title>Node2</title>
<g id="a_node2"><a xlink:href="a00375.html#gaff1b430b2b7686ac29986104fc58d74f" target="_top" xlink:title="Read the current configuration from the DAC module base registers.">
<polygon fill="white" stroke="black" points="137,-44 137,-63 283,-63 283,-44 137,-44"/>
<text text-anchor="middle" x="210" y="-51" font-family="Helvetica,sans-Serif" font-size="10.00">p33c_DacModule_ConfigRead</text>
</a>
</g>
</g>
<!-- Node1&#45;&gt;Node2 -->
<g id="edge1" class="edge">
<title>Node1&#45;&gt;Node2</title>
<path fill="none" stroke="midnightblue" d="M308.87,-43.2C300.3,-44.1 291.64,-45.01 283.19,-45.9"/>
<polygon fill="midnightblue" stroke="midnightblue" points="309.29,-46.67 318.86,-42.15 308.55,-39.71 309.29,-46.67"/>
</g>
<!-- Node3 -->
<g id="node3" class="node">
<title>Node3</title>
<g id="a_node3"><a xlink:href="a00560.html#gab420e63336f317e197b1cb8861561c3f" target="_top" xlink:title="DAC Module Base Register Initialization.">
<polygon fill="white" stroke="black" points="149,-6 149,-25 271,-25 271,-6 149,-6"/>
<text text-anchor="middle" x="210" y="-13" font-family="Helvetica,sans-Serif" font-size="10.00">sysDacModule_Initialize</text>
</a>
</g>
</g>
<!-- Node1&#45;&gt;Node3 -->
<g id="edge2" class="edge">
<title>Node1&#45;&gt;Node3</title>
<path fill="none" stroke="midnightblue" d="M308.74,-25.79C296.04,-24.45 283.14,-23.09 271.05,-21.82"/>
<polygon fill="midnightblue" stroke="midnightblue" points="308.55,-29.29 318.86,-26.85 309.29,-22.33 308.55,-29.29"/>
</g>
<!-- Node4 -->
<g id="node4" class="node">
<title>Node4</title>
<g id="a_node4"><a xlink:href="a00559.html#ga70c5cba054e38a4e8c8285a187ff61fa" target="_top" xlink:title="Initializes the user&#45;defined chip resources.">
<polygon fill="white" stroke="black" points="0,-0.5 0,-30.5 101,-30.5 101,-0.5 0,-0.5"/>
<text text-anchor="start" x="8" y="-18.5" font-family="Helvetica,sans-Serif" font-size="10.00">sysUserPeriperhals</text>
<text text-anchor="middle" x="50.5" y="-7.5" font-family="Helvetica,sans-Serif" font-size="10.00">_Initialize</text>
</a>
</g>
</g>
<!-- Node3&#45;&gt;Node4 -->
<g id="edge3" class="edge">
<title>Node3&#45;&gt;Node4</title>
<path fill="none" stroke="midnightblue" d="M138.19,-15.5C125.74,-15.5 113.03,-15.5 101.31,-15.5"/>
<polygon fill="midnightblue" stroke="midnightblue" points="138.56,-19 148.56,-15.5 138.56,-12 138.56,-19"/>
</g>
</g>
</svg>
