<?xml version="1.0" encoding="UTF-8" standalone="no"?>
<!DOCTYPE svg PUBLIC "-//W3C//DTD SVG 1.1//EN"
 "http://www.w3.org/Graphics/SVG/1.1/DTD/svg11.dtd">
<!-- Generated by graphviz version 2.44.1 (20200629.0846)
 -->
<!-- Title: Digital Signal Processor Converter Module (DSP) Pages: 1 -->
<svg width="396pt" height="64pt"
 viewBox="0.00 0.00 396.00 64.00" xmlns="http://www.w3.org/2000/svg" xmlns:xlink="http://www.w3.org/1999/xlink">
<g id="graph0" class="graph" transform="scale(1 1) rotate(0) translate(4 60)">
<title>Digital Signal Processor Converter Module (DSP)</title>
<polygon fill="white" stroke="transparent" points="-4,4 -4,-60 392,-60 392,4 -4,4"/>
<!-- Node4 -->
<g id="node1" class="node">
<title>Node4</title>
<g id="a_node1"><a xlink:href="a00384.html" target="_top" xlink:title="Private properties of the DSP PRAL driver.">
<polygon fill="white" stroke="black" points="388,-56 295,-56 295,-37 388,-37 388,-56"/>
<text text-anchor="middle" x="341.5" y="-44" font-family="Helvetica,sans-Serif" font-size="10.00">Private Properties</text>
</a>
</g>
</g>
<!-- Node3 -->
<g id="node2" class="node">
<title>Node3</title>
<g id="a_node2"><a xlink:href="a00376.html" target="_top" xlink:title="Public functions of the DSP PRAL driver.">
<polygon fill="white" stroke="black" points="386,-19 297,-19 297,0 386,0 386,-19"/>
<text text-anchor="middle" x="341.5" y="-7" font-family="Helvetica,sans-Serif" font-size="10.00">Public Functions</text>
</a>
</g>
</g>
<!-- Node1 -->
<g id="node3" class="node">
<title>Node1</title>
<g id="a_node3"><a xlink:title="Digital Signal Processor Special Function Register Abstraction Driver.">
<polygon fill="#bfbfbf" stroke="black" points="259,-42.5 135,-42.5 135,-12.5 259,-12.5 259,-42.5"/>
<text text-anchor="start" x="143" y="-30.5" font-family="Helvetica,sans-Serif" font-size="10.00">Digital Signal Processor</text>
<text text-anchor="middle" x="197" y="-19.5" font-family="Helvetica,sans-Serif" font-size="10.00"> Converter Module (DSP)</text>
</a>
</g>
</g>
<!-- Node1&#45;&gt;Node4 -->
<g id="edge3" class="edge">
<title>Node1&#45;&gt;Node4</title>
<path fill="none" stroke="black" d="M269.38,-37.02C278.02,-38.17 286.66,-39.32 294.79,-40.4"/>
<polygon fill="black" stroke="black" points="269.63,-33.52 259.26,-35.67 268.71,-40.46 269.63,-33.52"/>
</g>
<!-- Node1&#45;&gt;Node3 -->
<g id="edge2" class="edge">
<title>Node1&#45;&gt;Node3</title>
<path fill="none" stroke="black" d="M269.42,-18.48C278.81,-17.29 288.19,-16.11 296.92,-15"/>
<polygon fill="black" stroke="black" points="268.74,-15.04 259.26,-19.76 269.62,-21.98 268.74,-15.04"/>
</g>
<!-- Node2 -->
<g id="node4" class="node">
<title>Node2</title>
<g id="a_node4"><a xlink:href="a00365.html" target="_top" xlink:title=" ">
<polygon fill="white" stroke="black" points="99,-48 0,-48 0,-7 99,-7 99,-48"/>
<text text-anchor="start" x="8" y="-36" font-family="Helvetica,sans-Serif" font-size="10.00">Peripheral Register</text>
<text text-anchor="start" x="8" y="-25" font-family="Helvetica,sans-Serif" font-size="10.00"> Abstraction Layer </text>
<text text-anchor="middle" x="49.5" y="-14" font-family="Helvetica,sans-Serif" font-size="10.00">(PRAL) Library</text>
</a>
</g>
</g>
<!-- Node2&#45;&gt;Node1 -->
<g id="edge1" class="edge">
<title>Node2&#45;&gt;Node1</title>
<path fill="none" stroke="black" d="M109.42,-27.5C117.81,-27.5 126.44,-27.5 134.87,-27.5"/>
<polygon fill="black" stroke="black" points="109.35,-24 99.35,-27.5 109.35,-31 109.35,-24"/>
</g>
</g>
</svg>
