<?xml version="1.0" encoding="UTF-8" standalone="no"?>
<!DOCTYPE svg PUBLIC "-//W3C//DTD SVG 1.1//EN"
 "http://www.w3.org/Graphics/SVG/1.1/DTD/svg11.dtd">
<!-- Generated by graphviz version 2.44.1 (20200629.0846)
 -->
<!-- Title: Peripheral Pin Select Module (PPS) Pages: 1 -->
<svg width="380pt" height="64pt"
 viewBox="0.00 0.00 380.00 64.00" xmlns="http://www.w3.org/2000/svg" xmlns:xlink="http://www.w3.org/1999/xlink">
<g id="graph0" class="graph" transform="scale(1 1) rotate(0) translate(4 60)">
<title>Peripheral Pin Select Module (PPS)</title>
<polygon fill="white" stroke="transparent" points="-4,4 -4,-60 376,-60 376,4 -4,4"/>
<!-- Node3 -->
<g id="node1" class="node">
<title>Node3</title>
<g id="a_node1"><a xlink:href="a00380.html" target="_top" xlink:title="Public functions of the PPS PRAL driver.">
<polygon fill="white" stroke="black" points="370,-56 281,-56 281,-37 370,-37 370,-56"/>
<text text-anchor="middle" x="325.5" y="-44" font-family="Helvetica,sans-Serif" font-size="10.00">Public Functions</text>
</a>
</g>
</g>
<!-- Node1 -->
<g id="node2" class="node">
<title>Node1</title>
<g id="a_node2"><a xlink:title="Peripheral Pin Select Module Special Function Register Abstraction Driver.">
<polygon fill="#bfbfbf" stroke="black" points="243,-42.5 135,-42.5 135,-12.5 243,-12.5 243,-42.5"/>
<text text-anchor="start" x="143" y="-30.5" font-family="Helvetica,sans-Serif" font-size="10.00">Peripheral Pin Select</text>
<text text-anchor="middle" x="189" y="-19.5" font-family="Helvetica,sans-Serif" font-size="10.00"> Module (PPS)</text>
</a>
</g>
</g>
<!-- Node1&#45;&gt;Node3 -->
<g id="edge2" class="edge">
<title>Node1&#45;&gt;Node3</title>
<path fill="none" stroke="black" d="M253.21,-36.43C262.55,-37.75 271.99,-39.08 280.81,-40.33"/>
<polygon fill="black" stroke="black" points="253.55,-32.94 243.16,-35.01 252.57,-39.87 253.55,-32.94"/>
</g>
<!-- Node4 -->
<g id="node3" class="node">
<title>Node4</title>
<g id="a_node3"><a xlink:href="a00388.html" target="_top" xlink:title="Private properties of the PPS PRAL driver.">
<polygon fill="white" stroke="black" points="372,-19 279,-19 279,0 372,0 372,-19"/>
<text text-anchor="middle" x="325.5" y="-7" font-family="Helvetica,sans-Serif" font-size="10.00">Private Properties</text>
</a>
</g>
</g>
<!-- Node1&#45;&gt;Node4 -->
<g id="edge3" class="edge">
<title>Node1&#45;&gt;Node4</title>
<path fill="none" stroke="black" d="M253.18,-19.04C261.78,-17.89 270.47,-16.73 278.68,-15.63"/>
<polygon fill="black" stroke="black" points="252.61,-15.59 243.16,-20.39 253.53,-22.53 252.61,-15.59"/>
</g>
<!-- Node2 -->
<g id="node4" class="node">
<title>Node2</title>
<g id="a_node4"><a xlink:href="a00365.html" target="_top" xlink:title=" ">
<polygon fill="white" stroke="black" points="99,-48 0,-48 0,-7 99,-7 99,-48"/>
<text text-anchor="start" x="8" y="-36" font-family="Helvetica,sans-Serif" font-size="10.00">Peripheral Register</text>
<text text-anchor="start" x="8" y="-25" font-family="Helvetica,sans-Serif" font-size="10.00"> Abstraction Layer </text>
<text text-anchor="middle" x="49.5" y="-14" font-family="Helvetica,sans-Serif" font-size="10.00">(PRAL) Library</text>
</a>
</g>
</g>
<!-- Node2&#45;&gt;Node1 -->
<g id="edge1" class="edge">
<title>Node2&#45;&gt;Node1</title>
<path fill="none" stroke="black" d="M109.44,-27.5C117.81,-27.5 126.37,-27.5 134.62,-27.5"/>
<polygon fill="black" stroke="black" points="109.36,-24 99.36,-27.5 109.36,-31 109.36,-24"/>
</g>
</g>
</svg>
