<?xml version="1.0" encoding="UTF-8" standalone="no"?>
<!DOCTYPE svg PUBLIC "-//W3C//DTD SVG 1.1//EN"
 "http://www.w3.org/Graphics/SVG/1.1/DTD/svg11.dtd">
<!-- Generated by graphviz version 2.44.1 (20200629.0846)
 -->
<!-- Title: High&#45;Speed PWM Module (HSPWM) Pages: 1 -->
<svg width="401pt" height="64pt"
 viewBox="0.00 0.00 401.00 64.00" xmlns="http://www.w3.org/2000/svg" xmlns:xlink="http://www.w3.org/1999/xlink">
<g id="graph0" class="graph" transform="scale(1 1) rotate(0) translate(4 60)">
<title>High&#45;Speed PWM Module (HSPWM)</title>
<polygon fill="white" stroke="transparent" points="-4,4 -4,-60 397,-60 397,4 -4,4"/>
<!-- Node3 -->
<g id="node1" class="node">
<title>Node3</title>
<g id="a_node1"><a xlink:href="a00381.html" target="_top" xlink:title="Public functions of the HSPWM PRAL driver.">
<polygon fill="white" stroke="black" points="391,-56 302,-56 302,-37 391,-37 391,-56"/>
<text text-anchor="middle" x="346.5" y="-44" font-family="Helvetica,sans-Serif" font-size="10.00">Public Functions</text>
</a>
</g>
</g>
<!-- Node1 -->
<g id="node2" class="node">
<title>Node1</title>
<g id="a_node2"><a xlink:title="High&#45;Speed PWM Module Special Function Register Abstraction Driver.">
<polygon fill="#bfbfbf" stroke="black" points="264,-42.5 135,-42.5 135,-12.5 264,-12.5 264,-42.5"/>
<text text-anchor="start" x="143" y="-30.5" font-family="Helvetica,sans-Serif" font-size="10.00">High&#45;Speed PWM Module</text>
<text text-anchor="middle" x="199.5" y="-19.5" font-family="Helvetica,sans-Serif" font-size="10.00"> (HSPWM)</text>
</a>
</g>
</g>
<!-- Node1&#45;&gt;Node3 -->
<g id="edge2" class="edge">
<title>Node1&#45;&gt;Node3</title>
<path fill="none" stroke="black" d="M274.03,-37.14C283.58,-38.39 293.11,-39.64 301.95,-40.79"/>
<polygon fill="black" stroke="black" points="274.47,-33.66 264.1,-35.83 273.56,-40.6 274.47,-33.66"/>
</g>
<!-- Node4 -->
<g id="node4" class="node">
<title>Node4</title>
<g id="a_node4"><a xlink:href="a00389.html" target="_top" xlink:title="Private properties of the HSPWM PRAL driver.">
<polygon fill="white" stroke="black" points="393,-19 300,-19 300,0 393,0 393,-19"/>
<text text-anchor="middle" x="346.5" y="-7" font-family="Helvetica,sans-Serif" font-size="10.00">Private Properties</text>
</a>
</g>
</g>
<!-- Node1&#45;&gt;Node4 -->
<g id="edge3" class="edge">
<title>Node1&#45;&gt;Node4</title>
<path fill="none" stroke="black" d="M274.29,-18.34C282.99,-17.26 291.66,-16.18 299.81,-15.17"/>
<polygon fill="black" stroke="black" points="273.59,-14.9 264.1,-19.6 274.45,-21.85 273.59,-14.9"/>
</g>
<!-- Node2 -->
<g id="node3" class="node">
<title>Node2</title>
<g id="a_node3"><a xlink:href="a00365.html" target="_top" xlink:title=" ">
<polygon fill="white" stroke="black" points="99,-48 0,-48 0,-7 99,-7 99,-48"/>
<text text-anchor="start" x="8" y="-36" font-family="Helvetica,sans-Serif" font-size="10.00">Peripheral Register</text>
<text text-anchor="start" x="8" y="-25" font-family="Helvetica,sans-Serif" font-size="10.00"> Abstraction Layer </text>
<text text-anchor="middle" x="49.5" y="-14" font-family="Helvetica,sans-Serif" font-size="10.00">(PRAL) Library</text>
</a>
</g>
</g>
<!-- Node2&#45;&gt;Node1 -->
<g id="edge1" class="edge">
<title>Node2&#45;&gt;Node1</title>
<path fill="none" stroke="black" d="M109.42,-27.5C117.8,-27.5 126.44,-27.5 134.9,-27.5"/>
<polygon fill="black" stroke="black" points="109.37,-24 99.37,-27.5 109.37,-31 109.37,-24"/>
</g>
</g>
</svg>
