<?xml version="1.0" encoding="UTF-8" standalone="no"?>
<!DOCTYPE svg PUBLIC "-//W3C//DTD SVG 1.1//EN"
 "http://www.w3.org/Graphics/SVG/1.1/DTD/svg11.dtd">
<!-- Generated by graphviz version 2.44.1 (20200629.0846)
 -->
<!-- Title: Capture Compare Module (SCCP/MCCP) Pages: 1 -->
<svg width="399pt" height="64pt"
 viewBox="0.00 0.00 399.00 64.00" xmlns="http://www.w3.org/2000/svg" xmlns:xlink="http://www.w3.org/1999/xlink">
<g id="graph0" class="graph" transform="scale(1 1) rotate(0) translate(4 60)">
<title>Capture Compare Module (SCCP/MCCP)</title>
<polygon fill="white" stroke="transparent" points="-4,4 -4,-60 395,-60 395,4 -4,4"/>
<!-- Node4 -->
<g id="node1" class="node">
<title>Node4</title>
<g id="a_node1"><a xlink:href="a00382.html" target="_top" xlink:title="Private properties of the SCCP/MCCP PRAL driver.">
<polygon fill="white" stroke="black" points="391,-56 298,-56 298,-37 391,-37 391,-56"/>
<text text-anchor="middle" x="344.5" y="-44" font-family="Helvetica,sans-Serif" font-size="10.00">Private Properties</text>
</a>
</g>
</g>
<!-- Node1 -->
<g id="node2" class="node">
<title>Node1</title>
<g id="a_node2"><a xlink:title="Capture Compare Peripheral Module Special Function Register Abstraction Driver.">
<polygon fill="#bfbfbf" stroke="black" points="262,-42.5 135,-42.5 135,-12.5 262,-12.5 262,-42.5"/>
<text text-anchor="start" x="143" y="-30.5" font-family="Helvetica,sans-Serif" font-size="10.00">Capture Compare Module</text>
<text text-anchor="middle" x="198.5" y="-19.5" font-family="Helvetica,sans-Serif" font-size="10.00"> (SCCP/MCCP)</text>
</a>
</g>
</g>
<!-- Node1&#45;&gt;Node4 -->
<g id="edge3" class="edge">
<title>Node1&#45;&gt;Node4</title>
<path fill="none" stroke="black" d="M272.4,-37.12C281.07,-38.26 289.72,-39.4 297.85,-40.48"/>
<polygon fill="black" stroke="black" points="272.61,-33.62 262.24,-35.78 271.7,-40.56 272.61,-33.62"/>
</g>
<!-- Node3 -->
<g id="node3" class="node">
<title>Node3</title>
<g id="a_node3"><a xlink:href="a00374.html" target="_top" xlink:title="Public functions of the SCCP/MCCP PRAL driver.">
<polygon fill="white" stroke="black" points="389,-19 300,-19 300,0 389,0 389,-19"/>
<text text-anchor="middle" x="344.5" y="-7" font-family="Helvetica,sans-Serif" font-size="10.00">Public Functions</text>
</a>
</g>
</g>
<!-- Node1&#45;&gt;Node3 -->
<g id="edge2" class="edge">
<title>Node1&#45;&gt;Node3</title>
<path fill="none" stroke="black" d="M272.44,-18.38C281.86,-17.2 291.26,-16.03 299.99,-14.94"/>
<polygon fill="black" stroke="black" points="271.73,-14.94 262.24,-19.66 272.6,-21.89 271.73,-14.94"/>
</g>
<!-- Node2 -->
<g id="node4" class="node">
<title>Node2</title>
<g id="a_node4"><a xlink:href="a00365.html" target="_top" xlink:title=" ">
<polygon fill="white" stroke="black" points="99,-48 0,-48 0,-7 99,-7 99,-48"/>
<text text-anchor="start" x="8" y="-36" font-family="Helvetica,sans-Serif" font-size="10.00">Peripheral Register</text>
<text text-anchor="start" x="8" y="-25" font-family="Helvetica,sans-Serif" font-size="10.00"> Abstraction Layer </text>
<text text-anchor="middle" x="49.5" y="-14" font-family="Helvetica,sans-Serif" font-size="10.00">(PRAL) Library</text>
</a>
</g>
</g>
<!-- Node2&#45;&gt;Node1 -->
<g id="edge1" class="edge">
<title>Node2&#45;&gt;Node1</title>
<path fill="none" stroke="black" d="M109.17,-27.5C117.62,-27.5 126.34,-27.5 134.85,-27.5"/>
<polygon fill="black" stroke="black" points="109.04,-24 99.04,-27.5 109.04,-31 109.04,-24"/>
</g>
</g>
</svg>
