<?xml version="1.0" encoding="UTF-8" standalone="no"?>
<!DOCTYPE svg PUBLIC "-//W3C//DTD SVG 1.1//EN"
 "http://www.w3.org/Graphics/SVG/1.1/DTD/svg11.dtd">
<!-- Generated by graphviz version 2.44.1 (20200629.0846)
 -->
<!-- Title: appPowerSupply_ControllerInitialize Pages: 1 -->
<svg width="383pt" height="294pt"
 viewBox="0.00 0.00 383.00 294.00" xmlns="http://www.w3.org/2000/svg" xmlns:xlink="http://www.w3.org/1999/xlink">
<g id="graph0" class="graph" transform="scale(1 1) rotate(0) translate(4 290)">
<title>appPowerSupply_ControllerInitialize</title>
<polygon fill="white" stroke="transparent" points="-4,4 -4,-290 379,-290 379,4 -4,4"/>
<!-- Node1 -->
<g id="node1" class="node">
<title>Node1</title>
<g id="a_node1"><a xlink:title="This function initializes the control system feedback loop objects.">
<polygon fill="#bfbfbf" stroke="black" points="0,-128 0,-158 136,-158 136,-128 0,-128"/>
<text text-anchor="start" x="8" y="-146" font-family="Helvetica,sans-Serif" font-size="10.00">appPowerSupply_Controller</text>
<text text-anchor="middle" x="68" y="-135" font-family="Helvetica,sans-Serif" font-size="10.00">Initialize</text>
</a>
</g>
</g>
<!-- Node2 -->
<g id="node2" class="node">
<title>Node2</title>
<g id="a_node2"><a xlink:href="a00531.html#ga3d32e66188691f64885c2223f6e08d20" target="_top" xlink:title="Initializes controller coefficient arrays and normalization factors.">
<polygon fill="white" stroke="black" points="177,-266.5 177,-285.5 260,-285.5 260,-266.5 177,-266.5"/>
<text text-anchor="middle" x="218.5" y="-273.5" font-family="Helvetica,sans-Serif" font-size="10.00">i_loop_Initialize</text>
</a>
</g>
</g>
<!-- Node1&#45;&gt;Node2 -->
<g id="edge1" class="edge">
<title>Node1&#45;&gt;Node2</title>
<path fill="none" stroke="midnightblue" d="M80.68,-158.25C98.52,-180.81 134.47,-223.5 172,-252 176.53,-255.44 181.63,-258.66 186.73,-261.55"/>
<polygon fill="midnightblue" stroke="midnightblue" points="185.32,-264.76 195.79,-266.38 188.61,-258.58 185.32,-264.76"/>
</g>
<!-- Node3 -->
<g id="node3" class="node">
<title>Node3</title>
<g id="a_node3"><a xlink:href="a00531.html#gaade67bca1738eccdbf511c980e79339f" target="_top" xlink:title="Prototype of the Assembly routine &#39;_i_loop_Reset&#39; clearing the NPNZ16b controller output and error hi...">
<polygon fill="white" stroke="black" points="301.5,-247.5 301.5,-266.5 374.5,-266.5 374.5,-247.5 301.5,-247.5"/>
<text text-anchor="middle" x="338" y="-254.5" font-family="Helvetica,sans-Serif" font-size="10.00">i_loop_Reset</text>
</a>
</g>
</g>
<!-- Node1&#45;&gt;Node3 -->
<g id="edge4" class="edge">
<title>Node1&#45;&gt;Node3</title>
<path fill="none" stroke="midnightblue" d="M85.12,-158.24C104.32,-175.55 138.08,-203.4 172,-219 210.12,-236.53 257.03,-246.33 291.07,-251.56"/>
<polygon fill="midnightblue" stroke="midnightblue" points="290.8,-255.06 301.2,-253.04 291.81,-248.13 290.8,-255.06"/>
</g>
<!-- Node4 -->
<g id="node4" class="node">
<title>Node4</title>
<g id="a_node4"><a xlink:href="a00531.html#ga15932f07e150c94059c8dc35566dfa36" target="_top" xlink:title="Prototype of the Assembly routine &#39;_i_loop_Precharge&#39; loading user&#45;defined values into the NPNZ16b co...">
<polygon fill="white" stroke="black" points="172.5,-190.5 172.5,-209.5 264.5,-209.5 264.5,-190.5 172.5,-190.5"/>
<text text-anchor="middle" x="218.5" y="-197.5" font-family="Helvetica,sans-Serif" font-size="10.00">i_loop_Precharge</text>
</a>
</g>
</g>
<!-- Node1&#45;&gt;Node4 -->
<g id="edge3" class="edge">
<title>Node1&#45;&gt;Node4</title>
<path fill="none" stroke="midnightblue" d="M108.41,-158.13C131.61,-167.03 160.68,-178.19 182.98,-186.75"/>
<polygon fill="midnightblue" stroke="midnightblue" points="181.8,-190.05 192.39,-190.36 184.31,-183.51 181.8,-190.05"/>
</g>
<!-- Node5 -->
<g id="node5" class="node">
<title>Node5</title>
<g id="a_node5"><a xlink:href="a00531.html#gaeb19529055f7bef1a4817c3005605c23" target="_top" xlink:title="Prototype of the Assembly feedback control loop routine helping to call the i_loop controller from C&#45;...">
<polygon fill="white" stroke="black" points="179.5,-152.5 179.5,-171.5 257.5,-171.5 257.5,-152.5 179.5,-152.5"/>
<text text-anchor="middle" x="218.5" y="-159.5" font-family="Helvetica,sans-Serif" font-size="10.00">i_loop_Update</text>
</a>
</g>
</g>
<!-- Node1&#45;&gt;Node5 -->
<g id="edge5" class="edge">
<title>Node1&#45;&gt;Node5</title>
<path fill="none" stroke="midnightblue" d="M136.3,-151.61C147.35,-153.02 158.61,-154.46 169.08,-155.8"/>
<polygon fill="midnightblue" stroke="midnightblue" points="168.89,-159.31 179.26,-157.11 169.78,-152.37 168.89,-159.31"/>
</g>
<!-- Node6 -->
<g id="node6" class="node">
<title>Node6</title>
<g id="a_node6"><a xlink:href="a00531.html#ga62d45a18f3dd47fa691fbb463f90e051" target="_top" xlink:title="Initializes controller coefficient arrays and normalization factors.">
<polygon fill="white" stroke="black" points="176.5,-114.5 176.5,-133.5 260.5,-133.5 260.5,-114.5 176.5,-114.5"/>
<text text-anchor="middle" x="218.5" y="-121.5" font-family="Helvetica,sans-Serif" font-size="10.00">v_loop_Initialize</text>
</a>
</g>
</g>
<!-- Node1&#45;&gt;Node6 -->
<g id="edge6" class="edge">
<title>Node1&#45;&gt;Node6</title>
<path fill="none" stroke="midnightblue" d="M136.3,-134.39C146.33,-133.11 156.53,-131.8 166.16,-130.57"/>
<polygon fill="midnightblue" stroke="midnightblue" points="166.88,-134.01 176.36,-129.26 165.99,-127.06 166.88,-134.01"/>
</g>
<!-- Node7 -->
<g id="node7" class="node">
<title>Node7</title>
<g id="a_node7"><a xlink:href="a00531.html#gabb35e824b8586b680f54d59975ada3c7" target="_top" xlink:title="Prototype of the Assembly routine &#39;_v_loop_Reset&#39; clearing the NPNZ16b controller output and error hi...">
<polygon fill="white" stroke="black" points="301,-95.5 301,-114.5 375,-114.5 375,-95.5 301,-95.5"/>
<text text-anchor="middle" x="338" y="-102.5" font-family="Helvetica,sans-Serif" font-size="10.00">v_loop_Reset</text>
</a>
</g>
</g>
<!-- Node1&#45;&gt;Node7 -->
<g id="edge9" class="edge">
<title>Node1&#45;&gt;Node7</title>
<path fill="none" stroke="midnightblue" d="M101.11,-127.81C121.03,-119.24 147.42,-109.39 172,-105 211.57,-97.93 257.33,-98.61 290.61,-100.67"/>
<polygon fill="midnightblue" stroke="midnightblue" points="290.74,-104.19 300.95,-101.38 291.21,-97.2 290.74,-104.19"/>
</g>
<!-- Node8 -->
<g id="node8" class="node">
<title>Node8</title>
<g id="a_node8"><a xlink:href="a00531.html#ga3cdf7d86ab440015768706f04bd588e9" target="_top" xlink:title="Prototype of the Assembly routine &#39;_v_loop_Precharge&#39; loading user&#45;defined values into the NPNZ16b co...">
<polygon fill="white" stroke="black" points="172,-38.5 172,-57.5 265,-57.5 265,-38.5 172,-38.5"/>
<text text-anchor="middle" x="218.5" y="-45.5" font-family="Helvetica,sans-Serif" font-size="10.00">v_loop_Precharge</text>
</a>
</g>
</g>
<!-- Node1&#45;&gt;Node8 -->
<g id="edge8" class="edge">
<title>Node1&#45;&gt;Node8</title>
<path fill="none" stroke="midnightblue" d="M89.43,-127.85C109.88,-112.94 142.46,-89.89 172,-72 177.38,-68.74 183.25,-65.46 188.93,-62.41"/>
<polygon fill="midnightblue" stroke="midnightblue" points="190.96,-65.3 198.18,-57.55 187.7,-59.1 190.96,-65.3"/>
</g>
<!-- Node9 -->
<g id="node9" class="node">
<title>Node9</title>
<g id="a_node9"><a xlink:href="a00531.html#gab8180f1cb973d694be5caffaec3ce940" target="_top" xlink:title="Prototype of the Assembly feedback control loop routine helping to call the v_loop controller from C&#45;...">
<polygon fill="white" stroke="black" points="178.5,-0.5 178.5,-19.5 258.5,-19.5 258.5,-0.5 178.5,-0.5"/>
<text text-anchor="middle" x="218.5" y="-7.5" font-family="Helvetica,sans-Serif" font-size="10.00">v_loop_Update</text>
</a>
</g>
</g>
<!-- Node1&#45;&gt;Node9 -->
<g id="edge10" class="edge">
<title>Node1&#45;&gt;Node9</title>
<path fill="none" stroke="midnightblue" d="M79.35,-127.75C96.25,-103.84 131.94,-57.35 172,-29 174.5,-27.23 177.2,-25.58 179.98,-24.05"/>
<polygon fill="midnightblue" stroke="midnightblue" points="181.61,-27.15 189.05,-19.61 178.53,-20.87 181.61,-27.15"/>
</g>
<!-- Node2&#45;&gt;Node3 -->
<g id="edge2" class="edge">
<title>Node2&#45;&gt;Node3</title>
<path fill="none" stroke="midnightblue" d="M260.27,-269.41C270.31,-267.78 281.13,-266.04 291.38,-264.38"/>
<polygon fill="midnightblue" stroke="midnightblue" points="292.09,-267.81 301.4,-262.76 290.97,-260.9 292.09,-267.81"/>
</g>
<!-- Node6&#45;&gt;Node7 -->
<g id="edge7" class="edge">
<title>Node6&#45;&gt;Node7</title>
<path fill="none" stroke="midnightblue" d="M260.6,-117.35C270.32,-115.78 280.76,-114.09 290.7,-112.49"/>
<polygon fill="midnightblue" stroke="midnightblue" points="291.51,-115.9 300.82,-110.85 290.39,-108.99 291.51,-115.9"/>
</g>
</g>
</svg>
