<?xml version="1.0" encoding="UTF-8" standalone="no"?>
<!DOCTYPE svg PUBLIC "-//W3C//DTD SVG 1.1//EN"
 "http://www.w3.org/Graphics/SVG/1.1/DTD/svg11.dtd">
<!-- Generated by graphviz version 2.44.1 (20200629.0846)
 -->
<!-- Title: LC&#45;Display Interface Driver Pages: 1 -->
<svg width="377pt" height="138pt"
 viewBox="0.00 0.00 377.00 138.00" xmlns="http://www.w3.org/2000/svg" xmlns:xlink="http://www.w3.org/1999/xlink">
<g id="graph0" class="graph" transform="scale(1 1) rotate(0) translate(4 134)">
<title>LC&#45;Display Interface Driver</title>
<polygon fill="white" stroke="transparent" points="-4,4 -4,-134 373,-134 373,4 -4,4"/>
<!-- Node3 -->
<g id="node1" class="node">
<title>Node3</title>
<g id="a_node1"><a xlink:href="a00479.html" target="_top" xlink:title="Public functions of the LC display interface driver.">
<polygon fill="white" stroke="black" points="367,-130 278,-130 278,-111 367,-111 367,-130"/>
<text text-anchor="middle" x="322.5" y="-118" font-family="Helvetica,sans-Serif" font-size="10.00">Public Functions</text>
</a>
</g>
</g>
<!-- Node5 -->
<g id="node2" class="node">
<title>Node5</title>
<g id="a_node2"><a xlink:href="a00481.html" target="_top" xlink:title="Private functions of the LC display interface driver.">
<polygon fill="white" stroke="black" points="368.5,-93 276.5,-93 276.5,-74 368.5,-74 368.5,-93"/>
<text text-anchor="middle" x="322.5" y="-81" font-family="Helvetica,sans-Serif" font-size="10.00">Private Functions</text>
</a>
</g>
</g>
<!-- Node6 -->
<g id="node3" class="node">
<title>Node6</title>
<g id="a_node3"><a xlink:href="a00482.html" target="_top" xlink:title="Private properties of the LC display interface driver.">
<polygon fill="white" stroke="black" points="369,-56 276,-56 276,-37 369,-37 369,-56"/>
<text text-anchor="middle" x="322.5" y="-44" font-family="Helvetica,sans-Serif" font-size="10.00">Private Properties</text>
</a>
</g>
</g>
<!-- Node1 -->
<g id="node4" class="node">
<title>Node1</title>
<g id="a_node4"><a xlink:title=" ">
<polygon fill="#bfbfbf" stroke="black" points="240,-79.5 136,-79.5 136,-49.5 240,-49.5 240,-79.5"/>
<text text-anchor="start" x="144" y="-67.5" font-family="Helvetica,sans-Serif" font-size="10.00">LC&#45;Display Interface</text>
<text text-anchor="middle" x="188" y="-56.5" font-family="Helvetica,sans-Serif" font-size="10.00"> Driver</text>
</a>
</g>
</g>
<!-- Node1&#45;&gt;Node3 -->
<g id="edge2" class="edge">
<title>Node1&#45;&gt;Node3</title>
<path fill="none" stroke="black" d="M232.13,-83.69C246.08,-89.81 261.66,-96.53 276,-102.5 282.75,-105.31 290.09,-108.26 296.88,-110.94"/>
<polygon fill="black" stroke="black" points="233.32,-80.4 222.76,-79.57 230.51,-86.8 233.32,-80.4"/>
</g>
<!-- Node1&#45;&gt;Node5 -->
<g id="edge4" class="edge">
<title>Node1&#45;&gt;Node5</title>
<path fill="none" stroke="black" d="M250.15,-73.27C259.01,-74.54 267.99,-75.83 276.45,-77.04"/>
<polygon fill="black" stroke="black" points="250.62,-69.8 240.23,-71.85 249.63,-76.73 250.62,-69.8"/>
</g>
<!-- Node1&#45;&gt;Node6 -->
<g id="edge5" class="edge">
<title>Node1&#45;&gt;Node6</title>
<path fill="none" stroke="black" d="M250.18,-56.19C258.73,-55.03 267.4,-53.85 275.6,-52.74"/>
<polygon fill="black" stroke="black" points="249.67,-52.73 240.23,-57.54 250.61,-59.66 249.67,-52.73"/>
</g>
<!-- Node4 -->
<g id="node6" class="node">
<title>Node4</title>
<g id="a_node6"><a xlink:href="a00480.html" target="_top" xlink:title="Public properties of the LC display interface driver.">
<polygon fill="white" stroke="black" points="368,-19 277,-19 277,0 368,0 368,-19"/>
<text text-anchor="middle" x="322.5" y="-7" font-family="Helvetica,sans-Serif" font-size="10.00">Public Properties</text>
</a>
</g>
</g>
<!-- Node1&#45;&gt;Node4 -->
<g id="edge3" class="edge">
<title>Node1&#45;&gt;Node4</title>
<path fill="none" stroke="black" d="M233.25,-45.42C246.93,-39.6 262.06,-33.22 276,-27.5 282.76,-24.73 290.11,-21.78 296.9,-19.1"/>
<polygon fill="black" stroke="black" points="231.87,-42.21 224.05,-49.35 234.62,-48.64 231.87,-42.21"/>
</g>
<!-- Node2 -->
<g id="node5" class="node">
<title>Node2</title>
<g id="a_node5"><a xlink:href="a00568.html" target="_top" xlink:title="Generic Library Driver Layer.">
<polygon fill="white" stroke="black" points="100,-74 0,-74 0,-55 100,-55 100,-74"/>
<text text-anchor="middle" x="50" y="-62" font-family="Helvetica,sans-Serif" font-size="10.00">Library Driver Layer</text>
</a>
</g>
</g>
<!-- Node2&#45;&gt;Node1 -->
<g id="edge1" class="edge">
<title>Node2&#45;&gt;Node1</title>
<path fill="none" stroke="black" d="M110.29,-64.5C118.75,-64.5 127.39,-64.5 135.68,-64.5"/>
<polygon fill="black" stroke="black" points="110.1,-61 100.1,-64.5 110.1,-68 110.1,-61"/>
</g>
</g>
</svg>
