<?xml version="1.0" encoding="UTF-8" standalone="no"?>
<!DOCTYPE svg PUBLIC "-//W3C//DTD SVG 1.1//EN"
 "http://www.w3.org/Graphics/SVG/1.1/DTD/svg11.dtd">
<!-- Generated by graphviz version 2.44.1 (20200629.0846)
 -->
<!-- Title: Phase Current Feedback Pages: 1 -->
<svg width="448pt" height="101pt"
 viewBox="0.00 0.00 448.00 101.00" xmlns="http://www.w3.org/2000/svg" xmlns:xlink="http://www.w3.org/1999/xlink">
<g id="graph0" class="graph" transform="scale(1 1) rotate(0) translate(4 97)">
<title>Phase Current Feedback</title>
<polygon fill="white" stroke="transparent" points="-4,4 -4,-97 444,-97 444,4 -4,4"/>
<!-- Node2 -->
<g id="node1" class="node">
<title>Node2</title>
<g id="a_node1"><a xlink:href="a00565.html" target="_top" xlink:title="Hardware Abstraction Layer Declarations.">
<polygon fill="white" stroke="black" points="110,-61.5 0,-61.5 0,-31.5 110,-31.5 110,-61.5"/>
<text text-anchor="start" x="8" y="-49.5" font-family="Helvetica,sans-Serif" font-size="10.00">Hardware Abstraction</text>
<text text-anchor="middle" x="55" y="-38.5" font-family="Helvetica,sans-Serif" font-size="10.00"> Layer</text>
</a>
</g>
</g>
<!-- Node1 -->
<g id="node4" class="node">
<title>Node1</title>
<g id="a_node4"><a xlink:title="Declaration of phase current feedback parameters.">
<polygon fill="#bfbfbf" stroke="black" points="271,-56 146,-56 146,-37 271,-37 271,-56"/>
<text text-anchor="middle" x="208.5" y="-44" font-family="Helvetica,sans-Serif" font-size="10.00">Phase Current Feedback</text>
</a>
</g>
</g>
<!-- Node2&#45;&gt;Node1 -->
<g id="edge1" class="edge">
<title>Node2&#45;&gt;Node1</title>
<path fill="none" stroke="black" d="M120.43,-46.5C128.87,-46.5 137.5,-46.5 145.89,-46.5"/>
<polygon fill="black" stroke="black" points="120.27,-43 110.27,-46.5 120.27,-50 120.27,-43"/>
</g>
<!-- Node4 -->
<g id="node2" class="node">
<title>Node4</title>
<g id="a_node2"><a xlink:href="a00432.html" target="_top" xlink:title="Conversion macros for user&#45;declarations of phase current feedback parameters.">
<polygon fill="white" stroke="black" points="423,-93 324,-93 324,-74 423,-74 423,-93"/>
<text text-anchor="middle" x="373.5" y="-81" font-family="Helvetica,sans-Serif" font-size="10.00">Conversion Macros</text>
</a>
</g>
</g>
<!-- Node3 -->
<g id="node3" class="node">
<title>Node3</title>
<g id="a_node3"><a xlink:href="a00430.html" target="_top" xlink:title="User&#45;declaration of phase current feedback parameters using physical quantities.">
<polygon fill="white" stroke="black" points="411.5,-56 335.5,-56 335.5,-37 411.5,-37 411.5,-56"/>
<text text-anchor="middle" x="373.5" y="-44" font-family="Helvetica,sans-Serif" font-size="10.00">User Settings</text>
</a>
</g>
</g>
<!-- Node1&#45;&gt;Node4 -->
<g id="edge3" class="edge">
<title>Node1&#45;&gt;Node4</title>
<path fill="none" stroke="black" d="M261.43,-58.29C283.69,-63.34 309.34,-69.16 330.38,-73.94"/>
<polygon fill="black" stroke="black" points="262,-54.83 251.48,-56.03 260.45,-61.66 262,-54.83"/>
</g>
<!-- Node1&#45;&gt;Node3 -->
<g id="edge2" class="edge">
<title>Node1&#45;&gt;Node3</title>
<path fill="none" stroke="black" d="M281.13,-46.5C299.85,-46.5 319.28,-46.5 335.39,-46.5"/>
<polygon fill="black" stroke="black" points="281.12,-43 271.12,-46.5 281.12,-50 281.12,-43"/>
</g>
<!-- Node5 -->
<g id="node5" class="node">
<title>Node5</title>
<g id="a_node5"><a xlink:href="a00434.html" target="_top" xlink:title="Device analog input pin, register and interrupt vector assignments of phase current feedback signal(s...">
<polygon fill="white" stroke="black" points="440,-19 307,-19 307,0 440,0 440,-19"/>
<text text-anchor="middle" x="373.5" y="-7" font-family="Helvetica,sans-Serif" font-size="10.00">Microcontroller Abstraction</text>
</a>
</g>
</g>
<!-- Node1&#45;&gt;Node5 -->
<g id="edge4" class="edge">
<title>Node1&#45;&gt;Node5</title>
<path fill="none" stroke="black" d="M261.43,-34.71C283.69,-29.66 309.34,-23.84 330.38,-19.06"/>
<polygon fill="black" stroke="black" points="260.45,-31.34 251.48,-36.97 262,-38.17 260.45,-31.34"/>
</g>
</g>
</svg>
