<?xml version="1.0" encoding="UTF-8" standalone="no"?>
<!DOCTYPE svg PUBLIC "-//W3C//DTD SVG 1.1//EN"
 "http://www.w3.org/Graphics/SVG/1.1/DTD/svg11.dtd">
<!-- Generated by graphviz version 2.44.1 (20200629.0846)
 -->
<!-- Title: Fault Handler Library Pages: 1 -->
<svg width="384pt" height="138pt"
 viewBox="0.00 0.00 384.00 138.00" xmlns="http://www.w3.org/2000/svg" xmlns:xlink="http://www.w3.org/1999/xlink">
<g id="graph0" class="graph" transform="scale(1 1) rotate(0) translate(4 134)">
<title>Fault Handler Library</title>
<polygon fill="white" stroke="transparent" points="-4,4 -4,-134 380,-134 380,4 -4,4"/>
<!-- Node3 -->
<g id="node1" class="node">
<title>Node3</title>
<g id="a_node1"><a xlink:href="a00458.html" target="_top" xlink:title="Public functions of the fault handler library layer.">
<polygon fill="white" stroke="black" points="374,-130 285,-130 285,-111 374,-111 374,-130"/>
<text text-anchor="middle" x="329.5" y="-118" font-family="Helvetica,sans-Serif" font-size="10.00">Public Functions</text>
</a>
</g>
</g>
<!-- Node4 -->
<g id="node2" class="node">
<title>Node4</title>
<g id="a_node2"><a xlink:href="a00459.html" target="_top" xlink:title="Public properties of the fault handler library layer.">
<polygon fill="white" stroke="black" points="375,-93 284,-93 284,-74 375,-74 375,-93"/>
<text text-anchor="middle" x="329.5" y="-81" font-family="Helvetica,sans-Serif" font-size="10.00">Public Properties</text>
</a>
</g>
</g>
<!-- Node1 -->
<g id="node3" class="node">
<title>Node1</title>
<g id="a_node3"><a xlink:title=" ">
<polygon fill="#bfbfbf" stroke="black" points="247,-74 140,-74 140,-55 247,-55 247,-74"/>
<text text-anchor="middle" x="193.5" y="-62" font-family="Helvetica,sans-Serif" font-size="10.00">Fault Handler Library</text>
</a>
</g>
</g>
<!-- Node1&#45;&gt;Node3 -->
<g id="edge2" class="edge">
<title>Node1&#45;&gt;Node3</title>
<path fill="none" stroke="black" d="M225.65,-78.14C242.57,-85.47 263.88,-94.61 283,-102.5 289.75,-105.29 297.1,-108.23 303.89,-110.91"/>
<polygon fill="black" stroke="black" points="226.81,-74.82 216.25,-74.05 224.02,-81.24 226.81,-74.82"/>
</g>
<!-- Node1&#45;&gt;Node4 -->
<g id="edge3" class="edge">
<title>Node1&#45;&gt;Node4</title>
<path fill="none" stroke="black" d="M257.17,-73.39C266.19,-74.66 275.31,-75.96 283.88,-77.17"/>
<polygon fill="black" stroke="black" points="257.47,-69.89 247.08,-71.95 256.49,-76.82 257.47,-69.89"/>
</g>
<!-- Node5 -->
<g id="node4" class="node">
<title>Node5</title>
<g id="a_node4"><a xlink:href="a00460.html" target="_top" xlink:title="Private functions of the fault handler library layer.">
<polygon fill="white" stroke="black" points="375.5,-56 283.5,-56 283.5,-37 375.5,-37 375.5,-56"/>
<text text-anchor="middle" x="329.5" y="-44" font-family="Helvetica,sans-Serif" font-size="10.00">Private Functions</text>
</a>
</g>
</g>
<!-- Node1&#45;&gt;Node5 -->
<g id="edge4" class="edge">
<title>Node1&#45;&gt;Node5</title>
<path fill="none" stroke="black" d="M257.05,-56.1C265.96,-54.9 274.97,-53.69 283.45,-52.55"/>
<polygon fill="black" stroke="black" points="256.52,-52.64 247.08,-57.44 257.45,-59.58 256.52,-52.64"/>
</g>
<!-- Node6 -->
<g id="node6" class="node">
<title>Node6</title>
<g id="a_node6"><a xlink:href="a00461.html" target="_top" xlink:title="Public properties of the fault handler library layer.">
<polygon fill="white" stroke="black" points="376,-19 283,-19 283,0 376,0 376,-19"/>
<text text-anchor="middle" x="329.5" y="-7" font-family="Helvetica,sans-Serif" font-size="10.00">Private Properties</text>
</a>
</g>
</g>
<!-- Node1&#45;&gt;Node6 -->
<g id="edge5" class="edge">
<title>Node1&#45;&gt;Node6</title>
<path fill="none" stroke="black" d="M226.37,-51C243.18,-43.92 264.17,-35.16 283,-27.5 289.77,-24.75 297.12,-21.81 303.91,-19.13"/>
<polygon fill="black" stroke="black" points="224.86,-47.84 217,-54.95 227.58,-54.29 224.86,-47.84"/>
</g>
<!-- Node2 -->
<g id="node5" class="node">
<title>Node2</title>
<g id="a_node5"><a xlink:href="a00567.html" target="_top" xlink:title="Generic Device Driver Layer.">
<polygon fill="white" stroke="black" points="104,-79.5 0,-79.5 0,-49.5 104,-49.5 104,-79.5"/>
<text text-anchor="start" x="8" y="-67.5" font-family="Helvetica,sans-Serif" font-size="10.00">Device Driver Library</text>
<text text-anchor="middle" x="52" y="-56.5" font-family="Helvetica,sans-Serif" font-size="10.00"> Layer</text>
</a>
</g>
</g>
<!-- Node2&#45;&gt;Node1 -->
<g id="edge1" class="edge">
<title>Node2&#45;&gt;Node1</title>
<path fill="none" stroke="black" d="M114.42,-64.5C122.93,-64.5 131.62,-64.5 139.95,-64.5"/>
<polygon fill="black" stroke="black" points="114.15,-61 104.15,-64.5 114.15,-68 114.15,-61"/>
</g>
</g>
</svg>
