<?xml version="1.0" encoding="UTF-8" standalone="no"?>
<!DOCTYPE svg PUBLIC "-//W3C//DTD SVG 1.1//EN"
 "http://www.w3.org/Graphics/SVG/1.1/DTD/svg11.dtd">
<!-- Generated by graphviz version 2.44.1 (20200629.0846)
 -->
<!-- Title: Output Voltage Feedback Pages: 1 -->
<svg width="451pt" height="101pt"
 viewBox="0.00 0.00 451.00 101.00" xmlns="http://www.w3.org/2000/svg" xmlns:xlink="http://www.w3.org/1999/xlink">
<g id="graph0" class="graph" transform="scale(1 1) rotate(0) translate(4 97)">
<title>Output Voltage Feedback</title>
<polygon fill="white" stroke="transparent" points="-4,4 -4,-97 447,-97 447,4 -4,4"/>
<!-- Node2 -->
<g id="node1" class="node">
<title>Node2</title>
<g id="a_node1"><a xlink:href="a00565.html" target="_top" xlink:title="Hardware Abstraction Layer Declarations.">
<polygon fill="white" stroke="black" points="110,-61.5 0,-61.5 0,-31.5 110,-31.5 110,-61.5"/>
<text text-anchor="start" x="8" y="-49.5" font-family="Helvetica,sans-Serif" font-size="10.00">Hardware Abstraction</text>
<text text-anchor="middle" x="55" y="-38.5" font-family="Helvetica,sans-Serif" font-size="10.00"> Layer</text>
</a>
</g>
</g>
<!-- Node1 -->
<g id="node5" class="node">
<title>Node1</title>
<g id="a_node5"><a xlink:title="Declaration of output voltage feedback parameters.">
<polygon fill="#bfbfbf" stroke="black" points="274,-56 146,-56 146,-37 274,-37 274,-56"/>
<text text-anchor="middle" x="210" y="-44" font-family="Helvetica,sans-Serif" font-size="10.00">Output Voltage Feedback</text>
</a>
</g>
</g>
<!-- Node2&#45;&gt;Node1 -->
<g id="edge1" class="edge">
<title>Node2&#45;&gt;Node1</title>
<path fill="none" stroke="black" d="M120.51,-46.5C128.92,-46.5 137.53,-46.5 145.92,-46.5"/>
<polygon fill="black" stroke="black" points="120.37,-43 110.37,-46.5 120.37,-50 120.37,-43"/>
</g>
<!-- Node5 -->
<g id="node2" class="node">
<title>Node5</title>
<g id="a_node2"><a xlink:href="a00427.html" target="_top" xlink:title="Device analog output pin, register and interrupt vector assignments of output voltage feedback signal...">
<polygon fill="white" stroke="black" points="443,-93 310,-93 310,-74 443,-74 443,-93"/>
<text text-anchor="middle" x="376.5" y="-81" font-family="Helvetica,sans-Serif" font-size="10.00">Microcontroller Abstraction</text>
</a>
</g>
</g>
<!-- Node4 -->
<g id="node3" class="node">
<title>Node4</title>
<g id="a_node3"><a xlink:href="a00425.html" target="_top" xlink:title="Conversion macros for user&#45;declarations of output voltage feedback parameters.">
<polygon fill="white" stroke="black" points="426,-56 327,-56 327,-37 426,-37 426,-56"/>
<text text-anchor="middle" x="376.5" y="-44" font-family="Helvetica,sans-Serif" font-size="10.00">Conversion Macros</text>
</a>
</g>
</g>
<!-- Node3 -->
<g id="node4" class="node">
<title>Node3</title>
<g id="a_node4"><a xlink:href="a00423.html" target="_top" xlink:title="User&#45;declaration of output voltage feedback parameters using physical quantities.">
<polygon fill="white" stroke="black" points="414.5,-19 338.5,-19 338.5,0 414.5,0 414.5,-19"/>
<text text-anchor="middle" x="376.5" y="-7" font-family="Helvetica,sans-Serif" font-size="10.00">User Settings</text>
</a>
</g>
</g>
<!-- Node1&#45;&gt;Node5 -->
<g id="edge4" class="edge">
<title>Node1&#45;&gt;Node5</title>
<path fill="none" stroke="black" d="M263.41,-58.29C285.87,-63.34 311.76,-69.16 333,-73.94"/>
<polygon fill="black" stroke="black" points="263.89,-54.81 253.36,-56.03 262.35,-61.64 263.89,-54.81"/>
</g>
<!-- Node1&#45;&gt;Node4 -->
<g id="edge3" class="edge">
<title>Node1&#45;&gt;Node4</title>
<path fill="none" stroke="black" d="M284.49,-46.5C298.84,-46.5 313.55,-46.5 326.85,-46.5"/>
<polygon fill="black" stroke="black" points="284.13,-43 274.13,-46.5 284.13,-50 284.13,-43"/>
</g>
<!-- Node1&#45;&gt;Node3 -->
<g id="edge2" class="edge">
<title>Node1&#45;&gt;Node3</title>
<path fill="none" stroke="black" d="M263.2,-34.76C287.62,-29.27 316.13,-22.85 338.32,-17.86"/>
<polygon fill="black" stroke="black" points="262.35,-31.36 253.36,-36.97 263.89,-38.19 262.35,-31.36"/>
</g>
</g>
</svg>
