<?xml version="1.0" encoding="UTF-8" standalone="no"?>
<!DOCTYPE svg PUBLIC "-//W3C//DTD SVG 1.1//EN"
 "http://www.w3.org/Graphics/SVG/1.1/DTD/svg11.dtd">
<!-- Generated by graphviz version 2.44.1 (20200629.0846)
 -->
<!-- Title: Power Control Application Layer Pages: 1 -->
<svg width="408pt" height="175pt"
 viewBox="0.00 0.00 408.00 175.00" xmlns="http://www.w3.org/2000/svg" xmlns:xlink="http://www.w3.org/1999/xlink">
<g id="graph0" class="graph" transform="scale(1 1) rotate(0) translate(4 171)">
<title>Power Control Application Layer</title>
<polygon fill="white" stroke="transparent" points="-4,4 -4,-171 404,-171 404,4 -4,4"/>
<!-- Node1 -->
<g id="node1" class="node">
<title>Node1</title>
<g id="a_node1"><a xlink:title=" ">
<polygon fill="#bfbfbf" stroke="black" points="256,-98.5 128,-98.5 128,-68.5 256,-68.5 256,-98.5"/>
<text text-anchor="start" x="136" y="-86.5" font-family="Helvetica,sans-Serif" font-size="10.00">Power Control Application</text>
<text text-anchor="middle" x="192" y="-75.5" font-family="Helvetica,sans-Serif" font-size="10.00"> Layer</text>
</a>
</g>
</g>
<!-- Node3 -->
<g id="node2" class="node">
<title>Node3</title>
<g id="a_node2"><a xlink:href="a00489.html" target="_top" xlink:title="Public functions of the application layer of the power control task.">
<polygon fill="white" stroke="black" points="390.5,-167 301.5,-167 301.5,-148 390.5,-148 390.5,-167"/>
<text text-anchor="middle" x="346" y="-155" font-family="Helvetica,sans-Serif" font-size="10.00">Public Functions</text>
</a>
</g>
</g>
<!-- Node1&#45;&gt;Node3 -->
<g id="edge2" class="edge">
<title>Node1&#45;&gt;Node3</title>
<path fill="none" stroke="black" d="M225.3,-103.81C244.27,-115.22 268.97,-129.19 292,-139.5 298.92,-142.6 306.54,-145.48 313.8,-147.99"/>
<polygon fill="black" stroke="black" points="227.11,-100.82 216.75,-98.61 223.48,-106.8 227.11,-100.82"/>
</g>
<!-- Node4 -->
<g id="node3" class="node">
<title>Node4</title>
<g id="a_node3"><a xlink:href="a00490.html" target="_top" xlink:title="Public properties of the application layer of the power control task.">
<polygon fill="white" stroke="black" points="391.5,-130 300.5,-130 300.5,-111 391.5,-111 391.5,-130"/>
<text text-anchor="middle" x="346" y="-118" font-family="Helvetica,sans-Serif" font-size="10.00">Public Properties</text>
</a>
</g>
</g>
<!-- Node1&#45;&gt;Node4 -->
<g id="edge3" class="edge">
<title>Node1&#45;&gt;Node4</title>
<path fill="none" stroke="black" d="M264.62,-100.93C278.84,-104.4 293.27,-107.91 305.91,-110.98"/>
<polygon fill="black" stroke="black" points="265.37,-97.51 254.82,-98.55 263.71,-104.32 265.37,-97.51"/>
</g>
<!-- Node6 -->
<g id="node4" class="node">
<title>Node6</title>
<g id="a_node4"><a xlink:href="a00492.html" target="_top" xlink:title="Private functions of the application layer of the power control task.">
<polygon fill="white" stroke="black" points="392,-93 300,-93 300,-74 392,-74 392,-93"/>
<text text-anchor="middle" x="346" y="-81" font-family="Helvetica,sans-Serif" font-size="10.00">Private Functions</text>
</a>
</g>
</g>
<!-- Node1&#45;&gt;Node6 -->
<g id="edge5" class="edge">
<title>Node1&#45;&gt;Node6</title>
<path fill="none" stroke="black" d="M266.2,-83.5C277.69,-83.5 289.27,-83.5 299.89,-83.5"/>
<polygon fill="black" stroke="black" points="266.14,-80 256.14,-83.5 266.14,-87 266.14,-80"/>
</g>
<!-- Node5 -->
<g id="node6" class="node">
<title>Node5</title>
<g id="a_node6"><a xlink:href="a00491.html" target="_top" xlink:title="Public events of the application layer of the power control task.">
<polygon fill="white" stroke="black" points="400,-56 292,-56 292,-37 400,-37 400,-56"/>
<text text-anchor="middle" x="346" y="-44" font-family="Helvetica,sans-Serif" font-size="10.00">Events and Interrupts</text>
</a>
</g>
</g>
<!-- Node1&#45;&gt;Node5 -->
<g id="edge4" class="edge">
<title>Node1&#45;&gt;Node5</title>
<path fill="none" stroke="black" d="M264.62,-66.07C278.84,-62.6 293.27,-59.09 305.91,-56.02"/>
<polygon fill="black" stroke="black" points="263.71,-62.68 254.82,-68.45 265.37,-69.49 263.71,-62.68"/>
</g>
<!-- Node7 -->
<g id="node7" class="node">
<title>Node7</title>
<g id="a_node7"><a xlink:href="a00493.html" target="_top" xlink:title="Public properties of the application layer of the power control task.">
<polygon fill="white" stroke="black" points="392.5,-19 299.5,-19 299.5,0 392.5,0 392.5,-19"/>
<text text-anchor="middle" x="346" y="-7" font-family="Helvetica,sans-Serif" font-size="10.00">Private Properties</text>
</a>
</g>
</g>
<!-- Node1&#45;&gt;Node7 -->
<g id="edge6" class="edge">
<title>Node1&#45;&gt;Node7</title>
<path fill="none" stroke="black" d="M225.3,-63.19C244.27,-51.78 268.97,-37.81 292,-27.5 298.92,-24.4 306.54,-21.52 313.8,-19.01"/>
<polygon fill="black" stroke="black" points="223.48,-60.2 216.75,-68.39 227.11,-66.18 223.48,-60.2"/>
</g>
<!-- Node2 -->
<g id="node5" class="node">
<title>Node2</title>
<g id="a_node5"><a xlink:href="a00566.html" target="_top" xlink:title="Task Layer.">
<polygon fill="white" stroke="black" points="92,-93 0,-93 0,-74 92,-74 92,-93"/>
<text text-anchor="middle" x="46" y="-81" font-family="Helvetica,sans-Serif" font-size="10.00">Application Layer</text>
</a>
</g>
</g>
<!-- Node2&#45;&gt;Node1 -->
<g id="edge1" class="edge">
<title>Node2&#45;&gt;Node1</title>
<path fill="none" stroke="black" d="M102.19,-83.5C110.57,-83.5 119.26,-83.5 127.79,-83.5"/>
<polygon fill="black" stroke="black" points="102.17,-80 92.17,-83.5 102.17,-87 102.17,-80"/>
</g>
</g>
</svg>
