<?xml version="1.0" encoding="UTF-8" standalone="no"?>
<!DOCTYPE svg PUBLIC "-//W3C//DTD SVG 1.1//EN"
 "http://www.w3.org/Graphics/SVG/1.1/DTD/svg11.dtd">
<!-- Generated by graphviz version 2.44.1 (20200629.0846)
 -->
<!-- Title: drv_BuckConverter_Resume Pages: 1 -->
<svg width="663pt" height="28pt"
 viewBox="0.00 0.00 663.00 28.00" xmlns="http://www.w3.org/2000/svg" xmlns:xlink="http://www.w3.org/1999/xlink">
<g id="graph0" class="graph" transform="scale(1 1) rotate(0) translate(4 24)">
<title>drv_BuckConverter_Resume</title>
<polygon fill="white" stroke="transparent" points="-4,4 -4,-24 659,-24 659,4 -4,4"/>
<!-- Node1 -->
<g id="node1" class="node">
<title>Node1</title>
<g id="a_node1"><a xlink:title="This function resume the operation of the buck converter.">
<polygon fill="#bfbfbf" stroke="black" points="0,-0.5 0,-19.5 138,-19.5 138,-0.5 0,-0.5"/>
<text text-anchor="middle" x="69" y="-7.5" font-family="Helvetica,sans-Serif" font-size="10.00">drv_BuckConverter_Resume</text>
</a>
</g>
</g>
<!-- Node2 -->
<g id="node2" class="node">
<title>Node2</title>
<g id="a_node2"><a xlink:href="a00496.html#gab9877f90ffb129964ae42ce2921b3fe1" target="_top" xlink:title="This function is the main buck converter state machine executing the most recent state.">
<polygon fill="white" stroke="black" points="174,-0.5 174,-19.5 312,-19.5 312,-0.5 174,-0.5"/>
<text text-anchor="middle" x="243" y="-7.5" font-family="Helvetica,sans-Serif" font-size="10.00">drv_BuckConverter_Execute</text>
</a>
</g>
</g>
<!-- Node1&#45;&gt;Node2 -->
<g id="edge1" class="edge">
<title>Node1&#45;&gt;Node2</title>
<path fill="none" stroke="midnightblue" d="M138.47,-10C146.73,-10 155.22,-10 163.6,-10"/>
<polygon fill="midnightblue" stroke="midnightblue" points="163.76,-13.5 173.76,-10 163.76,-6.5 163.76,-13.5"/>
</g>
<!-- Node3 -->
<g id="node3" class="node">
<title>Node3</title>
<g id="a_node3"><a xlink:href="a00519.html#ga8e2253c136f05033e774d09032b283a1" target="_top" xlink:title="This function gets the state of the selected pin.">
<polygon fill="white" stroke="black" points="348,-0.5 348,-19.5 468,-19.5 468,-0.5 348,-0.5"/>
<text text-anchor="middle" x="408" y="-7.5" font-family="Helvetica,sans-Serif" font-size="10.00">buckGPIO_GetPinState</text>
</a>
</g>
</g>
<!-- Node2&#45;&gt;Node3 -->
<g id="edge2" class="edge">
<title>Node2&#45;&gt;Node3</title>
<path fill="none" stroke="midnightblue" d="M312.18,-10C320.62,-10 329.25,-10 337.7,-10"/>
<polygon fill="midnightblue" stroke="midnightblue" points="337.89,-13.5 347.89,-10 337.89,-6.5 337.89,-13.5"/>
</g>
<!-- Node4 -->
<g id="node4" class="node">
<title>Node4</title>
<g id="a_node4"><a xlink:href="a00377.html#ga4d67af688d8f7f911d79107974e11e6b" target="_top" xlink:title="Gets pointer to GPIO Instance SFR set.">
<polygon fill="white" stroke="black" points="504,-0.5 504,-19.5 655,-19.5 655,-0.5 504,-0.5"/>
<text text-anchor="middle" x="579.5" y="-7.5" font-family="Helvetica,sans-Serif" font-size="10.00">p33c_GpioInstance_GetHandle</text>
</a>
</g>
</g>
<!-- Node3&#45;&gt;Node4 -->
<g id="edge3" class="edge">
<title>Node3&#45;&gt;Node4</title>
<path fill="none" stroke="midnightblue" d="M468.28,-10C476.52,-10 485.1,-10 493.69,-10"/>
<polygon fill="midnightblue" stroke="midnightblue" points="493.75,-13.5 503.75,-10 493.75,-6.5 493.75,-13.5"/>
</g>
</g>
</svg>
