<?xml version="1.0" encoding="UTF-8" standalone="no"?>
<!DOCTYPE svg PUBLIC "-//W3C//DTD SVG 1.1//EN"
 "http://www.w3.org/Graphics/SVG/1.1/DTD/svg11.dtd">
<!-- Generated by graphviz version 2.44.1 (20200629.0846)
 -->
<!-- Title: appFaultMonitor_Initialize Pages: 1 -->
<!--zoomable 142 -->
<svg id="main" version="1.1" xmlns="http://www.w3.org/2000/svg" xmlns:xlink="http://www.w3.org/1999/xlink" xml:space="preserve" onload="init(evt)">
<style type="text/css"><![CDATA[
.edge:hover path { stroke: red; }
.edge:hover polygon { stroke: red; fill: red; }
]]></style>
<script type="text/javascript"><![CDATA[
var edges = document.getElementsByTagName('g');
if (edges && edges.length) {
  for (var i=0;i<edges.length;i++) {
    if (edges[i].id.substr(0,4)=='edge') {
      edges[i].setAttribute('class','edge');
    }
  }
}
]]></script>
        <defs>
                <circle id="rim" cx="0" cy="0" r="7"/>
                <circle id="rim2" cx="0" cy="0" r="3.5"/>
                <g id="zoomPlus">
                        <use xlink:href="#rim" fill="#404040">
                                <set attributeName="fill" to="#808080" begin="zoomplus.mouseover" end="zoomplus.mouseout"/>
                        </use>
                        <path d="M-4,0h8M0,-4v8" fill="none" stroke="white" stroke-width="1.5" pointer-events="none"/>
                </g>
                <g id="zoomMin">
                        <use xlink:href="#rim" fill="#404040">
                                <set attributeName="fill" to="#808080" begin="zoomminus.mouseover" end="zoomminus.mouseout"/>
                        </use>
                        <path d="M-4,0h8" fill="none" stroke="white" stroke-width="1.5" pointer-events="none"/>
                </g>
                <g id="dirArrow">
                        <path fill="none" stroke="white" stroke-width="1.5" d="M0,-3.0v7 M-2.5,-0.5L0,-3.0L2.5,-0.5"/>
                </g>
               <g id="resetDef">
                       <use xlink:href="#rim2" fill="#404040">
                               <set attributeName="fill" to="#808080" begin="reset.mouseover" end="reset.mouseout"/>
                       </use>
               </g>
        </defs>

<script type="text/javascript">
var viewWidth = 1137;
var viewHeight = 142;
var sectionId = 'dynsection-2';
</script>
<script xlink:href="svgpan.js"/>
<svg id="graph" class="graph">
<g id="viewport">
<title>appFaultMonitor_Initialize</title>
<polygon fill="white" stroke="transparent" points="-4,4 -4,-138 1133,-138 1133,4 -4,4"/>
<!-- Node1 -->
<g id="node1" class="node">
<title>Node1</title>
<g id="a_node1"><a xlink:title="Initialization of user&#45;defined fault objects.">
<polygon fill="#bfbfbf" stroke="black" points="0,-57.5 0,-76.5 127,-76.5 127,-57.5 0,-57.5"/>
<text text-anchor="middle" x="63.5" y="-64.5" font-family="Helvetica,sans-Serif" font-size="10.00">appFaultMonitor_Initialize</text>
</a>
</g>
</g>
<!-- Node2 -->
<g id="node2" class="node">
<title>Node2</title>
<g id="a_node2"><a xlink:href="a00455.html#ga54f9db91ea0782b08aa16ee77a57c5e5" target="_top" xlink:title="Initializes the user&#45;defined fault objects for overcurrent protection.">
<polygon fill="white" stroke="black" points="167.5,-114.5 167.5,-133.5 262.5,-133.5 262.5,-114.5 167.5,-114.5"/>
<text text-anchor="middle" x="215" y="-121.5" font-family="Helvetica,sans-Serif" font-size="10.00">ocp_FaultInitialize</text>
</a>
</g>
</g>
<!-- Node1&#45;&gt;Node2 -->
<g id="edge1" class="edge">
<title>Node1&#45;&gt;Node2</title>
<path fill="none" stroke="midnightblue" d="M89.16,-76.61C109.07,-84.34 137.81,-95.45 163,-105 168.14,-106.95 173.57,-108.99 178.9,-110.98"/>
<polygon fill="midnightblue" stroke="midnightblue" points="177.7,-114.27 188.29,-114.49 180.15,-107.71 177.7,-114.27"/>
</g>
<!-- Node8 -->
<g id="node8" class="node">
<title>Node8</title>
<g id="a_node8"><a xlink:href="a00455.html#gade437244e8f6e5ff7c57a73442063350" target="_top" xlink:title="Initializes the user&#45;defined fault objects for overvoltage lockout.">
<polygon fill="white" stroke="black" points="167.5,-76.5 167.5,-95.5 262.5,-95.5 262.5,-76.5 167.5,-76.5"/>
<text text-anchor="middle" x="215" y="-83.5" font-family="Helvetica,sans-Serif" font-size="10.00">ovlo_FaultInitialize</text>
</a>
</g>
</g>
<!-- Node1&#45;&gt;Node8 -->
<g id="edge7" class="edge">
<title>Node1&#45;&gt;Node8</title>
<path fill="none" stroke="midnightblue" d="M127.04,-74.95C137.01,-76.22 147.29,-77.52 157.12,-78.77"/>
<polygon fill="midnightblue" stroke="midnightblue" points="156.82,-82.26 167.18,-80.05 157.71,-75.32 156.82,-82.26"/>
</g>
<!-- Node9 -->
<g id="node9" class="node">
<title>Node9</title>
<g id="a_node9"><a xlink:href="a00455.html#ga82dc317e3adac0308e5ac3f5ad321605" target="_top" xlink:title="Initializes the user&#45;defined fault objects for regulation error.">
<polygon fill="white" stroke="black" points="163,-38.5 163,-57.5 267,-57.5 267,-38.5 163,-38.5"/>
<text text-anchor="middle" x="215" y="-45.5" font-family="Helvetica,sans-Serif" font-size="10.00">regerr_FaultInitialize</text>
</a>
</g>
</g>
<!-- Node1&#45;&gt;Node9 -->
<g id="edge9" class="edge">
<title>Node1&#45;&gt;Node9</title>
<path fill="none" stroke="midnightblue" d="M127.04,-59.05C135.45,-57.98 144.09,-56.89 152.49,-55.82"/>
<polygon fill="midnightblue" stroke="midnightblue" points="153.11,-59.27 162.59,-54.53 152.23,-52.32 153.11,-59.27"/>
</g>
<!-- Node10 -->
<g id="node10" class="node">
<title>Node10</title>
<g id="a_node10"><a xlink:href="a00455.html#ga9441220f8a7d4a6805467d04b734e6b5" target="_top" xlink:title="Initializes the user&#45;defined fault objects for under&#45;voltage lockout.">
<polygon fill="white" stroke="black" points="167.5,-0.5 167.5,-19.5 262.5,-19.5 262.5,-0.5 167.5,-0.5"/>
<text text-anchor="middle" x="215" y="-7.5" font-family="Helvetica,sans-Serif" font-size="10.00">uvlo_FaultInitialize</text>
</a>
</g>
</g>
<!-- Node1&#45;&gt;Node10 -->
<g id="edge11" class="edge">
<title>Node1&#45;&gt;Node10</title>
<path fill="none" stroke="midnightblue" d="M89.16,-57.39C109.07,-49.66 137.81,-38.55 163,-29 168.14,-27.05 173.57,-25.01 178.9,-23.02"/>
<polygon fill="midnightblue" stroke="midnightblue" points="180.15,-26.29 188.29,-19.51 177.7,-19.73 180.15,-26.29"/>
</g>
<!-- Node3 -->
<g id="node3" class="node">
<title>Node3</title>
<g id="a_node3"><a xlink:href="a00489.html#gafa4e90d260e60cf20f06acee067c39cd" target="_top" xlink:title="This function stops the power supply operation.">
<polygon fill="white" stroke="black" points="303,-57.5 303,-76.5 436,-76.5 436,-57.5 303,-57.5"/>
<text text-anchor="middle" x="369.5" y="-64.5" font-family="Helvetica,sans-Serif" font-size="10.00">appPowerSupply_Suspend</text>
</a>
</g>
</g>
<!-- Node2&#45;&gt;Node3 -->
<g id="edge2" class="edge">
<title>Node2&#45;&gt;Node3</title>
<path fill="none" stroke="midnightblue" d="M241.69,-114.44C249.79,-111.42 258.77,-108.07 267,-105 289.17,-96.72 314.05,-87.41 333.63,-80.07"/>
<polygon fill="midnightblue" stroke="midnightblue" points="334.92,-83.32 343.06,-76.54 332.47,-76.77 334.92,-83.32"/>
</g>
<!-- Node4 -->
<g id="node4" class="node">
<title>Node4</title>
<g id="a_node4"><a xlink:href="a00496.html#ga0d68d132b52175c43503c9b5794bae64" target="_top" xlink:title="This function suspends the operation of the buck converter.">
<polygon fill="white" stroke="black" points="472,-57.5 472,-76.5 612,-76.5 612,-57.5 472,-57.5"/>
<text text-anchor="middle" x="542" y="-64.5" font-family="Helvetica,sans-Serif" font-size="10.00">drv_BuckConverter_Suspend</text>
</a>
</g>
</g>
<!-- Node3&#45;&gt;Node4 -->
<g id="edge3" class="edge">
<title>Node3&#45;&gt;Node4</title>
<path fill="none" stroke="midnightblue" d="M436.42,-67C444.68,-67 453.2,-67 461.64,-67"/>
<polygon fill="midnightblue" stroke="midnightblue" points="461.87,-70.5 471.87,-67 461.87,-63.5 461.87,-70.5"/>
</g>
<!-- Node5 -->
<g id="node5" class="node">
<title>Node5</title>
<g id="a_node5"><a xlink:href="a00496.html#gab9877f90ffb129964ae42ce2921b3fe1" target="_top" xlink:title="This function is the main buck converter state machine executing the most recent state.">
<polygon fill="white" stroke="black" points="648,-57.5 648,-76.5 786,-76.5 786,-57.5 648,-57.5"/>
<text text-anchor="middle" x="717" y="-64.5" font-family="Helvetica,sans-Serif" font-size="10.00">drv_BuckConverter_Execute</text>
</a>
</g>
</g>
<!-- Node4&#45;&gt;Node5 -->
<g id="edge4" class="edge">
<title>Node4&#45;&gt;Node5</title>
<path fill="none" stroke="midnightblue" d="M612.37,-67C620.66,-67 629.16,-67 637.56,-67"/>
<polygon fill="midnightblue" stroke="midnightblue" points="637.74,-70.5 647.74,-67 637.74,-63.5 637.74,-70.5"/>
</g>
<!-- Node6 -->
<g id="node6" class="node">
<title>Node6</title>
<g id="a_node6"><a xlink:href="a00519.html#ga8e2253c136f05033e774d09032b283a1" target="_top" xlink:title="This function gets the state of the selected pin.">
<polygon fill="white" stroke="black" points="822,-57.5 822,-76.5 942,-76.5 942,-57.5 822,-57.5"/>
<text text-anchor="middle" x="882" y="-64.5" font-family="Helvetica,sans-Serif" font-size="10.00">buckGPIO_GetPinState</text>
</a>
</g>
</g>
<!-- Node5&#45;&gt;Node6 -->
<g id="edge5" class="edge">
<title>Node5&#45;&gt;Node6</title>
<path fill="none" stroke="midnightblue" d="M786.18,-67C794.62,-67 803.25,-67 811.7,-67"/>
<polygon fill="midnightblue" stroke="midnightblue" points="811.89,-70.5 821.89,-67 811.89,-63.5 811.89,-70.5"/>
</g>
<!-- Node7 -->
<g id="node7" class="node">
<title>Node7</title>
<g id="a_node7"><a xlink:href="a00377.html#ga4d67af688d8f7f911d79107974e11e6b" target="_top" xlink:title="Gets pointer to GPIO Instance SFR set.">
<polygon fill="white" stroke="black" points="978,-57.5 978,-76.5 1129,-76.5 1129,-57.5 978,-57.5"/>
<text text-anchor="middle" x="1053.5" y="-64.5" font-family="Helvetica,sans-Serif" font-size="10.00">p33c_GpioInstance_GetHandle</text>
</a>
</g>
</g>
<!-- Node6&#45;&gt;Node7 -->
<g id="edge6" class="edge">
<title>Node6&#45;&gt;Node7</title>
<path fill="none" stroke="midnightblue" d="M942.28,-67C950.52,-67 959.1,-67 967.69,-67"/>
<polygon fill="midnightblue" stroke="midnightblue" points="967.75,-70.5 977.75,-67 967.75,-63.5 967.75,-70.5"/>
</g>
<!-- Node8&#45;&gt;Node3 -->
<g id="edge8" class="edge">
<title>Node8&#45;&gt;Node3</title>
<path fill="none" stroke="midnightblue" d="M262.58,-80.2C272.11,-79.01 282.37,-77.73 292.62,-76.45"/>
<polygon fill="midnightblue" stroke="midnightblue" points="293.34,-79.89 302.83,-75.18 292.48,-72.94 293.34,-79.89"/>
</g>
<!-- Node9&#45;&gt;Node3 -->
<g id="edge10" class="edge">
<title>Node9&#45;&gt;Node3</title>
<path fill="none" stroke="midnightblue" d="M267.2,-54.38C275.41,-55.4 284.06,-56.48 292.7,-57.56"/>
<polygon fill="midnightblue" stroke="midnightblue" points="292.45,-61.05 302.81,-58.82 293.32,-54.11 292.45,-61.05"/>
</g>
<!-- Node10&#45;&gt;Node3 -->
<g id="edge12" class="edge">
<title>Node10&#45;&gt;Node3</title>
<path fill="none" stroke="midnightblue" d="M241.69,-19.56C249.79,-22.58 258.77,-25.93 267,-29 289.17,-37.28 314.05,-46.59 333.63,-53.93"/>
<polygon fill="midnightblue" stroke="midnightblue" points="332.47,-57.23 343.06,-57.46 334.92,-50.68 332.47,-57.23"/>
</g>
</g>
</svg>
        <g id="navigator" transform="translate(0 0)" fill="#404254">
                <rect fill="#f2f5e9" fill-opacity="0.5" stroke="#606060" stroke-width=".5" x="0" y="0" width="60" height="60"/>
                <use id="zoomplus" xlink:href="#zoomPlus" x="17" y="9" onmousedown="handleZoom(evt,'in')"/>
                <use id="zoomminus" xlink:href="#zoomMin" x="42" y="9" onmousedown="handleZoom(evt,'out')"/>
                <use id="reset" xlink:href="#resetDef" x="30" y="36" onmousedown="handleReset()"/>
                <g id="arrowUp" xlink:href="#dirArrow" transform="translate(30 24)" onmousedown="handlePan(0,-1)">
                  <use xlink:href="#rim" fill="#404040">
                        <set attributeName="fill" to="#808080" begin="arrowUp.mouseover" end="arrowUp.mouseout"/>
                  </use>
                  <path fill="none" stroke="white" stroke-width="1.5" d="M0,-3.0v7 M-2.5,-0.5L0,-3.0L2.5,-0.5"/>
                </g>
                <g id="arrowRight" xlink:href="#dirArrow" transform="rotate(90) translate(36 -43)" onmousedown="handlePan(1,0)">
                  <use xlink:href="#rim" fill="#404040">
                        <set attributeName="fill" to="#808080" begin="arrowRight.mouseover" end="arrowRight.mouseout"/>
                  </use>
                  <path fill="none" stroke="white" stroke-width="1.5" d="M0,-3.0v7 M-2.5,-0.5L0,-3.0L2.5,-0.5"/>
                </g>
                <g id="arrowDown" xlink:href="#dirArrow" transform="rotate(180) translate(-30 -48)" onmousedown="handlePan(0,1)">
                  <use xlink:href="#rim" fill="#404040">
                        <set attributeName="fill" to="#808080" begin="arrowDown.mouseover" end="arrowDown.mouseout"/>
                  </use>
                  <path fill="none" stroke="white" stroke-width="1.5" d="M0,-3.0v7 M-2.5,-0.5L0,-3.0L2.5,-0.5"/>
                </g>
                <g id="arrowLeft" xlink:href="#dirArrow" transform="rotate(270) translate(-36 17)" onmousedown="handlePan(-1,0)">
                  <use xlink:href="#rim" fill="#404040">
                        <set attributeName="fill" to="#808080" begin="arrowLeft.mouseover" end="arrowLeft.mouseout"/>
                  </use>
                  <path fill="none" stroke="white" stroke-width="1.5" d="M0,-3.0v7 M-2.5,-0.5L0,-3.0L2.5,-0.5"/>
                </g>
        </g>
        <svg viewBox="0 0 15 15" width="100%" height="30px" preserveAspectRatio="xMaxYMin meet">
         <g id="arrow_out" transform="scale(0.3 0.3)">
          <a xlink:href="a00453_ga830e5c7087a8e5ee8ea39b7e3df94b68_cgraph_org.svg" target="_base">
           <rect id="button" ry="5" rx="5" y="6" x="6" height="38" width="38"
                fill="#f2f5e9" fill-opacity="0.5" stroke="#606060" stroke-width="1.0"/>
           <path id="arrow"
             d="M 11.500037,31.436501 C 11.940474,20.09759 22.043105,11.32322 32.158766,21.979434 L 37.068811,17.246167 C 37.068811,17.246167 37.088388,32 37.088388,32 L 22.160133,31.978069 C 22.160133,31.978069 26.997745,27.140456 26.997745,27.140456 C 18.528582,18.264221 13.291696,25.230495 11.500037,31.436501 z"
             style="fill:#404040;"/>
          </a>
         </g>
        </svg>
</svg>
