<?xml version="1.0" encoding="UTF-8" standalone="no"?>
<!DOCTYPE svg PUBLIC "-//W3C//DTD SVG 1.1//EN"
 "http://www.w3.org/Graphics/SVG/1.1/DTD/svg11.dtd">
<!-- Generated by graphviz version 2.44.1 (20200629.0846)
 -->
<!-- Title: Input Voltage Feedback Pages: 1 -->
<svg width="442pt" height="101pt"
 viewBox="0.00 0.00 442.00 101.00" xmlns="http://www.w3.org/2000/svg" xmlns:xlink="http://www.w3.org/1999/xlink">
<g id="graph0" class="graph" transform="scale(1 1) rotate(0) translate(4 97)">
<title>Input Voltage Feedback</title>
<polygon fill="white" stroke="transparent" points="-4,4 -4,-97 438,-97 438,4 -4,4"/>
<!-- Node4 -->
<g id="node1" class="node">
<title>Node4</title>
<g id="a_node1"><a xlink:href="a00418.html" target="_top" xlink:title="Conversion macros for user&#45;declarations of input voltage feedback parameters.">
<polygon fill="white" stroke="black" points="417,-93 318,-93 318,-74 417,-74 417,-93"/>
<text text-anchor="middle" x="367.5" y="-81" font-family="Helvetica,sans-Serif" font-size="10.00">Conversion Macros</text>
</a>
</g>
</g>
<!-- Node2 -->
<g id="node2" class="node">
<title>Node2</title>
<g id="a_node2"><a xlink:href="a00565.html" target="_top" xlink:title="Hardware Abstraction Layer Declarations.">
<polygon fill="white" stroke="black" points="110,-61.5 0,-61.5 0,-31.5 110,-31.5 110,-61.5"/>
<text text-anchor="start" x="8" y="-49.5" font-family="Helvetica,sans-Serif" font-size="10.00">Hardware Abstraction</text>
<text text-anchor="middle" x="55" y="-38.5" font-family="Helvetica,sans-Serif" font-size="10.00"> Layer</text>
</a>
</g>
</g>
<!-- Node1 -->
<g id="node3" class="node">
<title>Node1</title>
<g id="a_node3"><a xlink:title="Declaration of input voltage feedback parameters.">
<polygon fill="#bfbfbf" stroke="black" points="265,-56 146,-56 146,-37 265,-37 265,-56"/>
<text text-anchor="middle" x="205.5" y="-44" font-family="Helvetica,sans-Serif" font-size="10.00">Input Voltage Feedback</text>
</a>
</g>
</g>
<!-- Node2&#45;&gt;Node1 -->
<g id="edge1" class="edge">
<title>Node2&#45;&gt;Node1</title>
<path fill="none" stroke="black" d="M120.04,-46.5C128.67,-46.5 137.48,-46.5 146,-46.5"/>
<polygon fill="black" stroke="black" points="120.03,-43 110.03,-46.5 120.03,-50 120.03,-43"/>
</g>
<!-- Node1&#45;&gt;Node4 -->
<g id="edge3" class="edge">
<title>Node1&#45;&gt;Node4</title>
<path fill="none" stroke="black" d="M257.48,-58.29C279.32,-63.34 304.5,-69.16 325.16,-73.94"/>
<polygon fill="black" stroke="black" points="258.24,-54.87 247.7,-56.03 256.66,-61.69 258.24,-54.87"/>
</g>
<!-- Node5 -->
<g id="node4" class="node">
<title>Node5</title>
<g id="a_node4"><a xlink:href="a00420.html" target="_top" xlink:title="Device analog input pin, register and interrupt vector assignments of input voltage feedback signal(s...">
<polygon fill="white" stroke="black" points="434,-56 301,-56 301,-37 434,-37 434,-56"/>
<text text-anchor="middle" x="367.5" y="-44" font-family="Helvetica,sans-Serif" font-size="10.00">Microcontroller Abstraction</text>
</a>
</g>
</g>
<!-- Node1&#45;&gt;Node5 -->
<g id="edge4" class="edge">
<title>Node1&#45;&gt;Node5</title>
<path fill="none" stroke="black" d="M275.36,-46.5C283.8,-46.5 292.42,-46.5 300.81,-46.5"/>
<polygon fill="black" stroke="black" points="275.17,-43 265.17,-46.5 275.17,-50 275.17,-43"/>
</g>
<!-- Node3 -->
<g id="node5" class="node">
<title>Node3</title>
<g id="a_node5"><a xlink:href="a00416.html" target="_top" xlink:title="User&#45;declaration of input voltage feedback parameters using physical quantities.">
<polygon fill="white" stroke="black" points="405.5,-19 329.5,-19 329.5,0 405.5,0 405.5,-19"/>
<text text-anchor="middle" x="367.5" y="-7" font-family="Helvetica,sans-Serif" font-size="10.00">User Settings</text>
</a>
</g>
</g>
<!-- Node1&#45;&gt;Node3 -->
<g id="edge2" class="edge">
<title>Node1&#45;&gt;Node3</title>
<path fill="none" stroke="black" d="M257.75,-34.65C281,-29.27 307.99,-23.03 329.26,-18.11"/>
<polygon fill="black" stroke="black" points="256.66,-31.31 247.7,-36.97 258.24,-38.13 256.66,-31.31"/>
</g>
</g>
</svg>
