<?xml version="1.0" encoding="UTF-8" standalone="no"?>
<!DOCTYPE svg PUBLIC "-//W3C//DTD SVG 1.1//EN"
 "http://www.w3.org/Graphics/SVG/1.1/DTD/svg11.dtd">
<!-- Generated by graphviz version 2.44.1 (20200629.0846)
 -->
<!-- Title: dev_Lcd_WriteString Pages: 1 -->
<svg width="711pt" height="66pt"
 viewBox="0.00 0.00 711.00 66.00" xmlns="http://www.w3.org/2000/svg" xmlns:xlink="http://www.w3.org/1999/xlink">
<g id="graph0" class="graph" transform="scale(1 1) rotate(0) translate(4 62)">
<title>dev_Lcd_WriteString</title>
<polygon fill="white" stroke="transparent" points="-4,4 -4,-62 707,-62 707,4 -4,4"/>
<!-- Node1 -->
<g id="node1" class="node">
<title>Node1</title>
<g id="a_node1"><a xlink:title="Writes a complete string on the LCD screen.">
<polygon fill="#bfbfbf" stroke="black" points="0,-19.5 0,-38.5 106,-38.5 106,-19.5 0,-19.5"/>
<text text-anchor="middle" x="53" y="-26.5" font-family="Helvetica,sans-Serif" font-size="10.00">dev_Lcd_WriteString</text>
</a>
</g>
</g>
<!-- Node2 -->
<g id="node2" class="node">
<title>Node2</title>
<g id="a_node2"><a xlink:href="a00474.html#ga3cb1303cba012af043a87af0bcab16d8" target="_top" xlink:title="Writes a character on the LCD screen.">
<polygon fill="white" stroke="black" points="142,-19.5 142,-38.5 243,-38.5 243,-19.5 142,-19.5"/>
<text text-anchor="middle" x="192.5" y="-26.5" font-family="Helvetica,sans-Serif" font-size="10.00">dev_Lcd_WriteChar</text>
</a>
</g>
</g>
<!-- Node1&#45;&gt;Node2 -->
<g id="edge1" class="edge">
<title>Node1&#45;&gt;Node2</title>
<path fill="none" stroke="midnightblue" d="M106.38,-29C114.68,-29 123.33,-29 131.79,-29"/>
<polygon fill="midnightblue" stroke="midnightblue" points="131.99,-32.5 141.99,-29 131.99,-25.5 131.99,-32.5"/>
</g>
<!-- Node3 -->
<g id="node3" class="node">
<title>Node3</title>
<g id="a_node3"><a xlink:href="a00474.html#ga0bff8adf9ea1196bdd69b3e47b2b77cd" target="_top" xlink:title="Clears the LC Display Screen.">
<polygon fill="white" stroke="black" points="284,-38.5 284,-57.5 364,-57.5 364,-38.5 284,-38.5"/>
<text text-anchor="middle" x="324" y="-45.5" font-family="Helvetica,sans-Serif" font-size="10.00">dev_Lcd_Clear</text>
</a>
</g>
</g>
<!-- Node2&#45;&gt;Node3 -->
<g id="edge2" class="edge">
<title>Node2&#45;&gt;Node3</title>
<path fill="none" stroke="midnightblue" d="M243.2,-36.29C253.15,-37.75 263.6,-39.29 273.55,-40.74"/>
<polygon fill="midnightblue" stroke="midnightblue" points="273.28,-44.24 283.68,-42.23 274.3,-37.32 273.28,-44.24"/>
</g>
<!-- Node6 -->
<g id="node6" class="node">
<title>Node6</title>
<g id="a_node6"><a xlink:href="a00474.html#ga5c431635cb94750b2f6e938d7f1f0cf1" target="_top" xlink:title="Sets the cursor position to the given x&#45; and y&#45;coordinates.">
<polygon fill="white" stroke="black" points="279,-0.5 279,-19.5 369,-19.5 369,-0.5 279,-0.5"/>
<text text-anchor="middle" x="324" y="-7.5" font-family="Helvetica,sans-Serif" font-size="10.00">dev_Lcd_GotoXY</text>
</a>
</g>
</g>
<!-- Node2&#45;&gt;Node6 -->
<g id="edge5" class="edge">
<title>Node2&#45;&gt;Node6</title>
<path fill="none" stroke="midnightblue" d="M243.2,-21.71C251.51,-20.49 260.18,-19.22 268.61,-17.98"/>
<polygon fill="midnightblue" stroke="midnightblue" points="269.34,-21.41 278.73,-16.5 268.33,-14.48 269.34,-21.41"/>
</g>
<!-- Node4 -->
<g id="node4" class="node">
<title>Node4</title>
<g id="a_node4"><a xlink:href="a00479.html#ga3e045335a3463f6a53e4fd91b50bb0ca" target="_top" xlink:title="Sends a command to the LCD controller.">
<polygon fill="white" stroke="black" points="405,-19.5 405,-38.5 539,-38.5 539,-19.5 405,-19.5"/>
<text text-anchor="middle" x="472" y="-26.5" font-family="Helvetica,sans-Serif" font-size="10.00">drv_LcdInterface_SendCmd</text>
</a>
</g>
</g>
<!-- Node3&#45;&gt;Node4 -->
<g id="edge3" class="edge">
<title>Node3&#45;&gt;Node4</title>
<path fill="none" stroke="midnightblue" d="M364.13,-42.91C373.66,-41.67 384.19,-40.3 394.81,-38.92"/>
<polygon fill="midnightblue" stroke="midnightblue" points="395.52,-42.35 404.99,-37.59 394.62,-35.41 395.52,-42.35"/>
</g>
<!-- Node5 -->
<g id="node5" class="node">
<title>Node5</title>
<g id="a_node5"><a xlink:href="a00481.html#ga50b8734fca19fc75dd778a9902c63082" target="_top" xlink:title="Sends data through the SPI interface to the LCD controller.">
<polygon fill="white" stroke="black" points="575,-19.5 575,-38.5 703,-38.5 703,-19.5 575,-19.5"/>
<text text-anchor="middle" x="639" y="-26.5" font-family="Helvetica,sans-Serif" font-size="10.00">drv_LcdInterface_SpiSend</text>
</a>
</g>
</g>
<!-- Node4&#45;&gt;Node5 -->
<g id="edge4" class="edge">
<title>Node4&#45;&gt;Node5</title>
<path fill="none" stroke="midnightblue" d="M539.16,-29C547.51,-29 556.09,-29 564.55,-29"/>
<polygon fill="midnightblue" stroke="midnightblue" points="564.77,-32.5 574.77,-29 564.77,-25.5 564.77,-32.5"/>
</g>
<!-- Node6&#45;&gt;Node4 -->
<g id="edge6" class="edge">
<title>Node6&#45;&gt;Node4</title>
<path fill="none" stroke="midnightblue" d="M369.2,-15.75C377.37,-16.82 386.12,-17.95 394.92,-19.1"/>
<polygon fill="midnightblue" stroke="midnightblue" points="394.49,-22.57 404.86,-20.39 395.4,-15.63 394.49,-22.57"/>
</g>
</g>
</svg>
