<?xml version="1.0" encoding="UTF-8" standalone="no"?>
<!DOCTYPE svg PUBLIC "-//W3C//DTD SVG 1.1//EN"
 "http://www.w3.org/Graphics/SVG/1.1/DTD/svg11.dtd">
<!-- Generated by graphviz version 2.44.1 (20200629.0846)
 -->
<!-- Title: appPowerSupply_Initialize Pages: 1 -->
<!--zoomable 610 -->
<svg id="main" version="1.1" xmlns="http://www.w3.org/2000/svg" xmlns:xlink="http://www.w3.org/1999/xlink" xml:space="preserve" onload="init(evt)">
<style type="text/css"><![CDATA[
.edge:hover path { stroke: red; }
.edge:hover polygon { stroke: red; fill: red; }
]]></style>
<script type="text/javascript"><![CDATA[
var edges = document.getElementsByTagName('g');
if (edges && edges.length) {
  for (var i=0;i<edges.length;i++) {
    if (edges[i].id.substr(0,4)=='edge') {
      edges[i].setAttribute('class','edge');
    }
  }
}
]]></script>
        <defs>
                <circle id="rim" cx="0" cy="0" r="7"/>
                <circle id="rim2" cx="0" cy="0" r="3.5"/>
                <g id="zoomPlus">
                        <use xlink:href="#rim" fill="#404040">
                                <set attributeName="fill" to="#808080" begin="zoomplus.mouseover" end="zoomplus.mouseout"/>
                        </use>
                        <path d="M-4,0h8M0,-4v8" fill="none" stroke="white" stroke-width="1.5" pointer-events="none"/>
                </g>
                <g id="zoomMin">
                        <use xlink:href="#rim" fill="#404040">
                                <set attributeName="fill" to="#808080" begin="zoomminus.mouseover" end="zoomminus.mouseout"/>
                        </use>
                        <path d="M-4,0h8" fill="none" stroke="white" stroke-width="1.5" pointer-events="none"/>
                </g>
                <g id="dirArrow">
                        <path fill="none" stroke="white" stroke-width="1.5" d="M0,-3.0v7 M-2.5,-0.5L0,-3.0L2.5,-0.5"/>
                </g>
               <g id="resetDef">
                       <use xlink:href="#rim2" fill="#404040">
                               <set attributeName="fill" to="#808080" begin="reset.mouseover" end="reset.mouseout"/>
                       </use>
               </g>
        </defs>

<script type="text/javascript">
var viewWidth = 1045;
var viewHeight = 610;
var sectionId = 'dynsection-3';
</script>
<script xlink:href="svgpan.js"/>
<svg id="graph" class="graph">
<g id="viewport">
<title>appPowerSupply_Initialize</title>
<polygon fill="white" stroke="transparent" points="-4,4 -4,-606 1041,-606 1041,4 -4,4"/>
<!-- Node1 -->
<g id="node1" class="node">
<title>Node1</title>
<g id="a_node1"><a xlink:title="Calls the application layer power controller initialization.">
<polygon fill="#bfbfbf" stroke="black" points="0,-281.5 0,-300.5 130,-300.5 130,-281.5 0,-281.5"/>
<text text-anchor="middle" x="65" y="-288.5" font-family="Helvetica,sans-Serif" font-size="10.00">appPowerSupply_Initialize</text>
</a>
</g>
</g>
<!-- Node2 -->
<g id="node2" class="node">
<title>Node2</title>
<g id="a_node2"><a xlink:href="a00492.html#ga0b4cabdb02c8c9ea94ea1dfa39de3764" target="_top" xlink:title="This function initializes the control system feedback loop objects.">
<polygon fill="white" stroke="black" points="169.5,-425 169.5,-455 305.5,-455 305.5,-425 169.5,-425"/>
<text text-anchor="start" x="177.5" y="-443" font-family="Helvetica,sans-Serif" font-size="10.00">appPowerSupply_Controller</text>
<text text-anchor="middle" x="237.5" y="-432" font-family="Helvetica,sans-Serif" font-size="10.00">Initialize</text>
</a>
</g>
</g>
<!-- Node1&#45;&gt;Node2 -->
<g id="edge1" class="edge">
<title>Node1&#45;&gt;Node2</title>
<path fill="none" stroke="midnightblue" d="M76.92,-300.55C103.78,-324.01 173.57,-385 211.34,-418.01"/>
<polygon fill="midnightblue" stroke="midnightblue" points="209.49,-421.05 219.33,-424.99 214.1,-415.78 209.49,-421.05"/>
</g>
<!-- Node11 -->
<g id="node11" class="node">
<title>Node11</title>
<g id="a_node11"><a xlink:href="a00492.html#gad0f6ff4894bf23722884c60bbcdcacd0" target="_top" xlink:title="This function initializes the buck converter device driver instance.">
<polygon fill="white" stroke="black" points="170,-298 170,-328 305,-328 305,-298 170,-298"/>
<text text-anchor="start" x="178" y="-316" font-family="Helvetica,sans-Serif" font-size="10.00">appPowerSupply_Converter</text>
<text text-anchor="middle" x="237.5" y="-305" font-family="Helvetica,sans-Serif" font-size="10.00">ObjectInitialize</text>
</a>
</g>
</g>
<!-- Node1&#45;&gt;Node11 -->
<g id="edge12" class="edge">
<title>Node1&#45;&gt;Node11</title>
<path fill="none" stroke="midnightblue" d="M130.46,-299.32C140.05,-300.55 150.01,-301.84 159.82,-303.11"/>
<polygon fill="midnightblue" stroke="midnightblue" points="159.6,-306.61 169.96,-304.41 160.49,-299.66 159.6,-306.61"/>
</g>
<!-- Node12 -->
<g id="node12" class="node">
<title>Node12</title>
<g id="a_node12"><a xlink:href="a00492.html#ga0b26acfec74d1804384b4ba1a3cffab4" target="_top" xlink:title="This function is used to load peripheral configuration templates from the power controller device dri...">
<polygon fill="white" stroke="black" points="166,-194 166,-224 309,-224 309,-194 166,-194"/>
<text text-anchor="start" x="174" y="-212" font-family="Helvetica,sans-Serif" font-size="10.00">appPowerSupply_Peripherals</text>
<text text-anchor="middle" x="237.5" y="-201" font-family="Helvetica,sans-Serif" font-size="10.00">Initialize</text>
</a>
</g>
</g>
<!-- Node1&#45;&gt;Node12 -->
<g id="edge13" class="edge">
<title>Node1&#45;&gt;Node12</title>
<path fill="none" stroke="midnightblue" d="M85.89,-281.43C112.71,-268.54 161.1,-245.26 195.79,-228.58"/>
<polygon fill="midnightblue" stroke="midnightblue" points="197.69,-231.55 205.19,-224.06 194.66,-225.24 197.69,-231.55"/>
</g>
<!-- Node26 -->
<g id="node26" class="node">
<title>Node26</title>
<g id="a_node26"><a xlink:href="a00496.html#ga86289c82938655142075e84ac90aa603" target="_top" xlink:title="This function starts the buck converter.">
<polygon fill="white" stroke="black" points="176,-259.5 176,-278.5 299,-278.5 299,-259.5 176,-259.5"/>
<text text-anchor="middle" x="237.5" y="-266.5" font-family="Helvetica,sans-Serif" font-size="10.00">drv_BuckConverter_Start</text>
</a>
</g>
</g>
<!-- Node1&#45;&gt;Node26 -->
<g id="edge29" class="edge">
<title>Node1&#45;&gt;Node26</title>
<path fill="none" stroke="midnightblue" d="M130.46,-282.68C141.98,-281.2 154.05,-279.64 165.74,-278.13"/>
<polygon fill="midnightblue" stroke="midnightblue" points="166.42,-281.57 175.89,-276.82 165.52,-274.63 166.42,-281.57"/>
</g>
<!-- Node3 -->
<g id="node3" class="node">
<title>Node3</title>
<g id="a_node3"><a xlink:href="a00531.html#ga3d32e66188691f64885c2223f6e08d20" target="_top" xlink:title="Initializes controller coefficient arrays and normalization factors.">
<polygon fill="white" stroke="black" points="372,-468.5 372,-487.5 455,-487.5 455,-468.5 372,-468.5"/>
<text text-anchor="middle" x="413.5" y="-475.5" font-family="Helvetica,sans-Serif" font-size="10.00">i_loop_Initialize</text>
</a>
</g>
</g>
<!-- Node2&#45;&gt;Node3 -->
<g id="edge2" class="edge">
<title>Node2&#45;&gt;Node3</title>
<path fill="none" stroke="midnightblue" d="M305.77,-454.69C324.4,-458.76 344.3,-463.11 361.81,-466.93"/>
<polygon fill="midnightblue" stroke="midnightblue" points="361.3,-470.4 371.81,-469.11 362.79,-463.56 361.3,-470.4"/>
</g>
<!-- Node4 -->
<g id="node4" class="node">
<title>Node4</title>
<g id="a_node4"><a xlink:href="a00531.html#gaade67bca1738eccdbf511c980e79339f" target="_top" xlink:title="Prototype of the Assembly routine &#39;_i_loop_Reset&#39; clearing the NPNZ16b controller output and error hi...">
<polygon fill="white" stroke="black" points="550.5,-487.5 550.5,-506.5 623.5,-506.5 623.5,-487.5 550.5,-487.5"/>
<text text-anchor="middle" x="587" y="-494.5" font-family="Helvetica,sans-Serif" font-size="10.00">i_loop_Reset</text>
</a>
</g>
</g>
<!-- Node2&#45;&gt;Node4 -->
<g id="edge5" class="edge">
<title>Node2&#45;&gt;Node4</title>
<path fill="none" stroke="midnightblue" d="M259.24,-455.12C279.83,-469.12 312.86,-488.94 345,-497 411.31,-513.63 491.14,-509.03 540.22,-503.53"/>
<polygon fill="midnightblue" stroke="midnightblue" points="540.7,-507 550.22,-502.35 539.88,-500.05 540.7,-507"/>
</g>
<!-- Node5 -->
<g id="node5" class="node">
<title>Node5</title>
<g id="a_node5"><a xlink:href="a00531.html#ga15932f07e150c94059c8dc35566dfa36" target="_top" xlink:title="Prototype of the Assembly routine &#39;_i_loop_Precharge&#39; loading user&#45;defined values into the NPNZ16b co...">
<polygon fill="white" stroke="black" points="367.5,-582.5 367.5,-601.5 459.5,-601.5 459.5,-582.5 367.5,-582.5"/>
<text text-anchor="middle" x="413.5" y="-589.5" font-family="Helvetica,sans-Serif" font-size="10.00">i_loop_Precharge</text>
</a>
</g>
</g>
<!-- Node2&#45;&gt;Node5 -->
<g id="edge4" class="edge">
<title>Node2&#45;&gt;Node5</title>
<path fill="none" stroke="midnightblue" d="M246.5,-455.33C261.8,-483.12 297.9,-541.8 345,-573 348.98,-575.63 353.32,-577.91 357.82,-579.87"/>
<polygon fill="midnightblue" stroke="midnightblue" points="356.63,-583.16 367.22,-583.47 359.13,-576.62 356.63,-583.16"/>
</g>
<!-- Node6 -->
<g id="node6" class="node">
<title>Node6</title>
<g id="a_node6"><a xlink:href="a00531.html#gaeb19529055f7bef1a4817c3005605c23" target="_top" xlink:title="Prototype of the Assembly feedback control loop routine helping to call the i_loop controller from C&#45;...">
<polygon fill="white" stroke="black" points="374.5,-544.5 374.5,-563.5 452.5,-563.5 452.5,-544.5 374.5,-544.5"/>
<text text-anchor="middle" x="413.5" y="-551.5" font-family="Helvetica,sans-Serif" font-size="10.00">i_loop_Update</text>
</a>
</g>
</g>
<!-- Node2&#45;&gt;Node6 -->
<g id="edge6" class="edge">
<title>Node2&#45;&gt;Node6</title>
<path fill="none" stroke="midnightblue" d="M253.04,-455.33C272.4,-474.98 308.48,-509.01 345,-530 352.36,-534.23 360.6,-537.91 368.72,-541.04"/>
<polygon fill="midnightblue" stroke="midnightblue" points="367.55,-544.33 378.14,-544.45 369.93,-537.75 367.55,-544.33"/>
</g>
<!-- Node7 -->
<g id="node7" class="node">
<title>Node7</title>
<g id="a_node7"><a xlink:href="a00531.html#ga62d45a18f3dd47fa691fbb463f90e051" target="_top" xlink:title="Initializes controller coefficient arrays and normalization factors.">
<polygon fill="white" stroke="black" points="371.5,-354.5 371.5,-373.5 455.5,-373.5 455.5,-354.5 371.5,-354.5"/>
<text text-anchor="middle" x="413.5" y="-361.5" font-family="Helvetica,sans-Serif" font-size="10.00">v_loop_Initialize</text>
</a>
</g>
</g>
<!-- Node2&#45;&gt;Node7 -->
<g id="edge7" class="edge">
<title>Node2&#45;&gt;Node7</title>
<path fill="none" stroke="midnightblue" d="M263.15,-424.82C284.27,-412.3 315.82,-394.75 345,-383 350.85,-380.64 357.11,-378.46 363.35,-376.48"/>
<polygon fill="midnightblue" stroke="midnightblue" points="364.55,-379.77 373.11,-373.54 362.53,-373.07 364.55,-379.77"/>
</g>
<!-- Node8 -->
<g id="node8" class="node">
<title>Node8</title>
<g id="a_node8"><a xlink:href="a00531.html#gabb35e824b8586b680f54d59975ada3c7" target="_top" xlink:title="Prototype of the Assembly routine &#39;_v_loop_Reset&#39; clearing the NPNZ16b controller output and error hi...">
<polygon fill="white" stroke="black" points="550,-335.5 550,-354.5 624,-354.5 624,-335.5 550,-335.5"/>
<text text-anchor="middle" x="587" y="-342.5" font-family="Helvetica,sans-Serif" font-size="10.00">v_loop_Reset</text>
</a>
</g>
</g>
<!-- Node2&#45;&gt;Node8 -->
<g id="edge10" class="edge">
<title>Node2&#45;&gt;Node8</title>
<path fill="none" stroke="midnightblue" d="M249.49,-424.8C266.81,-402.3 302.86,-361.06 345,-345 409.06,-320.58 489.84,-327.42 539.7,-335.51"/>
<polygon fill="midnightblue" stroke="midnightblue" points="539.4,-339.01 549.85,-337.24 540.58,-332.11 539.4,-339.01"/>
</g>
<!-- Node9 -->
<g id="node9" class="node">
<title>Node9</title>
<g id="a_node9"><a xlink:href="a00531.html#ga3cdf7d86ab440015768706f04bd588e9" target="_top" xlink:title="Prototype of the Assembly routine &#39;_v_loop_Precharge&#39; loading user&#45;defined values into the NPNZ16b co...">
<polygon fill="white" stroke="black" points="367,-430.5 367,-449.5 460,-449.5 460,-430.5 367,-430.5"/>
<text text-anchor="middle" x="413.5" y="-437.5" font-family="Helvetica,sans-Serif" font-size="10.00">v_loop_Precharge</text>
</a>
</g>
</g>
<!-- Node2&#45;&gt;Node9 -->
<g id="edge9" class="edge">
<title>Node2&#45;&gt;Node9</title>
<path fill="none" stroke="midnightblue" d="M305.77,-440C322.56,-440 340.38,-440 356.56,-440"/>
<polygon fill="midnightblue" stroke="midnightblue" points="356.92,-443.5 366.92,-440 356.92,-436.5 356.92,-443.5"/>
</g>
<!-- Node10 -->
<g id="node10" class="node">
<title>Node10</title>
<g id="a_node10"><a xlink:href="a00531.html#gab8180f1cb973d694be5caffaec3ce940" target="_top" xlink:title="Prototype of the Assembly feedback control loop routine helping to call the v_loop controller from C&#45;...">
<polygon fill="white" stroke="black" points="373.5,-392.5 373.5,-411.5 453.5,-411.5 453.5,-392.5 373.5,-392.5"/>
<text text-anchor="middle" x="413.5" y="-399.5" font-family="Helvetica,sans-Serif" font-size="10.00">v_loop_Update</text>
</a>
</g>
</g>
<!-- Node2&#45;&gt;Node10 -->
<g id="edge11" class="edge">
<title>Node2&#45;&gt;Node10</title>
<path fill="none" stroke="midnightblue" d="M305.77,-425.31C324.97,-421.12 345.52,-416.63 363.41,-412.72"/>
<polygon fill="midnightblue" stroke="midnightblue" points="364.3,-416.11 373.32,-410.56 362.81,-409.27 364.3,-416.11"/>
</g>
<!-- Node3&#45;&gt;Node4 -->
<g id="edge3" class="edge">
<title>Node3&#45;&gt;Node4</title>
<path fill="none" stroke="midnightblue" d="M455.14,-482.5C480.68,-485.33 513.67,-488.99 540.14,-491.92"/>
<polygon fill="midnightblue" stroke="midnightblue" points="539.98,-495.42 550.3,-493.05 540.75,-488.47 539.98,-495.42"/>
</g>
<!-- Node7&#45;&gt;Node8 -->
<g id="edge8" class="edge">
<title>Node7&#45;&gt;Node8</title>
<path fill="none" stroke="midnightblue" d="M455.58,-359.45C480.95,-356.64 513.56,-353.03 539.82,-350.12"/>
<polygon fill="midnightblue" stroke="midnightblue" points="540.36,-353.58 549.91,-349 539.59,-346.62 540.36,-353.58"/>
</g>
<!-- Node13 -->
<g id="node13" class="node">
<title>Node13</title>
<g id="a_node13"><a xlink:href="a00496.html#gaf3c64772d6dfd473d6924fb8893bd180" target="_top" xlink:title="This function initializes all peripheral modules and their instances used by the power controller.">
<polygon fill="white" stroke="black" points="345,-174.5 345,-193.5 482,-193.5 482,-174.5 345,-174.5"/>
<text text-anchor="middle" x="413.5" y="-181.5" font-family="Helvetica,sans-Serif" font-size="10.00">drv_BuckConverter_Initialize</text>
</a>
</g>
</g>
<!-- Node12&#45;&gt;Node13 -->
<g id="edge14" class="edge">
<title>Node12&#45;&gt;Node13</title>
<path fill="none" stroke="midnightblue" d="M309.02,-198.87C317.99,-197.58 327.2,-196.26 336.25,-194.96"/>
<polygon fill="midnightblue" stroke="midnightblue" points="336.98,-198.39 346.38,-193.5 335.98,-191.46 336.98,-198.39"/>
</g>
<!-- Node14 -->
<g id="node14" class="node">
<title>Node14</title>
<g id="a_node14"><a xlink:href="a00519.html#gac2bfd6c3ccd9ec11b8e91322ea9354d2" target="_top" xlink:title="This function initializes the settings for the ADC channel.">
<polygon fill="white" stroke="black" points="520,-231.5 520,-250.5 654,-250.5 654,-231.5 520,-231.5"/>
<text text-anchor="middle" x="587" y="-238.5" font-family="Helvetica,sans-Serif" font-size="10.00">buckADC_ChannelInitialize</text>
</a>
</g>
</g>
<!-- Node13&#45;&gt;Node14 -->
<g id="edge15" class="edge">
<title>Node13&#45;&gt;Node14</title>
<path fill="none" stroke="midnightblue" d="M438.99,-193.61C459.84,-201.65 490.68,-213.18 518,-222 525.14,-224.3 532.75,-226.59 540.2,-228.74"/>
<polygon fill="midnightblue" stroke="midnightblue" points="539.27,-232.11 549.84,-231.47 541.18,-225.38 539.27,-232.11"/>
</g>
<!-- Node15 -->
<g id="node15" class="node">
<title>Node15</title>
<g id="a_node15"><a xlink:href="a00519.html#ga44f537d9ad5dcb0e744480802cfbf170" target="_top" xlink:title="This fucntion initializes the buck by resetting all its registers to default.">
<polygon fill="white" stroke="black" points="522,-193.5 522,-212.5 652,-212.5 652,-193.5 522,-193.5"/>
<text text-anchor="middle" x="587" y="-200.5" font-family="Helvetica,sans-Serif" font-size="10.00">buckADC_ModuleInitialize</text>
</a>
</g>
</g>
<!-- Node13&#45;&gt;Node15 -->
<g id="edge16" class="edge">
<title>Node13&#45;&gt;Node15</title>
<path fill="none" stroke="midnightblue" d="M482.28,-191.51C491.94,-192.58 501.92,-193.68 511.69,-194.77"/>
<polygon fill="midnightblue" stroke="midnightblue" points="511.46,-198.26 521.79,-195.89 512.23,-191.31 511.46,-198.26"/>
</g>
<!-- Node16 -->
<g id="node16" class="node">
<title>Node16</title>
<g id="a_node16"><a xlink:href="a00519.html#gac7e5924475733c189b2318844ae01844" target="_top" xlink:title="This function initializes the buck input pins.">
<polygon fill="white" stroke="black" points="536,-114.5 536,-133.5 638,-133.5 638,-114.5 536,-114.5"/>
<text text-anchor="middle" x="587" y="-121.5" font-family="Helvetica,sans-Serif" font-size="10.00">buckGPIO_Initialize</text>
</a>
</g>
</g>
<!-- Node13&#45;&gt;Node16 -->
<g id="edge17" class="edge">
<title>Node13&#45;&gt;Node16</title>
<path fill="none" stroke="midnightblue" d="M439.92,-174.35C460.81,-166.5 491.22,-155.24 518,-146 526.96,-142.91 536.62,-139.7 545.78,-136.73"/>
<polygon fill="midnightblue" stroke="midnightblue" points="547.01,-140.01 555.45,-133.6 544.86,-133.35 547.01,-140.01"/>
</g>
<!-- Node20 -->
<g id="node20" class="node">
<title>Node20</title>
<g id="a_node20"><a xlink:href="a00519.html#ga45a54def97cc67eb8d36e22a3867d95f" target="_top" xlink:title="This function initializes the output pins for the PWM output and the default buck PWM settings.">
<polygon fill="white" stroke="black" points="518,-155.5 518,-174.5 656,-174.5 656,-155.5 518,-155.5"/>
<text text-anchor="middle" x="587" y="-162.5" font-family="Helvetica,sans-Serif" font-size="10.00">buckPWM_ChannelInitialize</text>
</a>
</g>
</g>
<!-- Node13&#45;&gt;Node20 -->
<g id="edge22" class="edge">
<title>Node13&#45;&gt;Node20</title>
<path fill="none" stroke="midnightblue" d="M482.28,-176.49C490.69,-175.56 499.35,-174.6 507.9,-173.65"/>
<polygon fill="midnightblue" stroke="midnightblue" points="508.31,-177.13 517.87,-172.55 507.54,-170.17 508.31,-177.13"/>
</g>
<!-- Node23 -->
<g id="node23" class="node">
<title>Node23</title>
<g id="a_node23"><a xlink:href="a00519.html#ga6d12fd9e2f1d4f01ec6db21454693863" target="_top" xlink:title="Initializes the buck PWM module by resetting its registers to default.">
<polygon fill="white" stroke="black" points="520,-38.5 520,-57.5 654,-57.5 654,-38.5 520,-38.5"/>
<text text-anchor="middle" x="587" y="-45.5" font-family="Helvetica,sans-Serif" font-size="10.00">buckPWM_ModuleInitialize</text>
</a>
</g>
</g>
<!-- Node13&#45;&gt;Node23 -->
<g id="edge26" class="edge">
<title>Node13&#45;&gt;Node23</title>
<path fill="none" stroke="midnightblue" d="M426.56,-174.44C455.64,-151.38 529.88,-92.5 565.85,-63.98"/>
<polygon fill="midnightblue" stroke="midnightblue" points="568.06,-66.69 573.72,-57.73 563.71,-61.21 568.06,-66.69"/>
</g>
<!-- Node17 -->
<g id="node17" class="node">
<title>Node17</title>
<g id="a_node17"><a xlink:href="a00519.html#ga7f1d554e08d756b8677b572216908a3a" target="_top" xlink:title="This function clears the selected general purpose input/output pin.">
<polygon fill="white" stroke="black" points="726.5,-76.5 726.5,-95.5 815.5,-95.5 815.5,-76.5 726.5,-76.5"/>
<text text-anchor="middle" x="771" y="-83.5" font-family="Helvetica,sans-Serif" font-size="10.00">buckGPIO_Clear</text>
</a>
</g>
</g>
<!-- Node16&#45;&gt;Node17 -->
<g id="edge18" class="edge">
<title>Node16&#45;&gt;Node17</title>
<path fill="none" stroke="midnightblue" d="M633.93,-114.41C658.93,-109.19 690.02,-102.7 716.16,-97.24"/>
<polygon fill="midnightblue" stroke="midnightblue" points="717.21,-100.6 726.28,-95.13 715.78,-93.75 717.21,-100.6"/>
</g>
<!-- Node19 -->
<g id="node19" class="node">
<title>Node19</title>
<g id="a_node19"><a xlink:href="a00519.html#ga3d3f91c0e40884874e7df3a67fff23f3" target="_top" xlink:title="This function sets the pin as input or output.">
<polygon fill="white" stroke="black" points="705.5,-114.5 705.5,-133.5 836.5,-133.5 836.5,-114.5 705.5,-114.5"/>
<text text-anchor="middle" x="771" y="-121.5" font-family="Helvetica,sans-Serif" font-size="10.00">buckGPIO_PrivateInitialize</text>
</a>
</g>
</g>
<!-- Node16&#45;&gt;Node19 -->
<g id="edge20" class="edge">
<title>Node16&#45;&gt;Node19</title>
<path fill="none" stroke="midnightblue" d="M638.21,-124C655.78,-124 675.91,-124 695.06,-124"/>
<polygon fill="midnightblue" stroke="midnightblue" points="695.27,-127.5 705.27,-124 695.27,-120.5 695.27,-127.5"/>
</g>
<!-- Node18 -->
<g id="node18" class="node">
<title>Node18</title>
<g id="a_node18"><a xlink:href="a00377.html#ga4d67af688d8f7f911d79107974e11e6b" target="_top" xlink:title="Gets pointer to GPIO Instance SFR set.">
<polygon fill="white" stroke="black" points="886,-114.5 886,-133.5 1037,-133.5 1037,-114.5 886,-114.5"/>
<text text-anchor="middle" x="961.5" y="-121.5" font-family="Helvetica,sans-Serif" font-size="10.00">p33c_GpioInstance_GetHandle</text>
</a>
</g>
</g>
<!-- Node17&#45;&gt;Node18 -->
<g id="edge19" class="edge">
<title>Node17&#45;&gt;Node18</title>
<path fill="none" stroke="midnightblue" d="M815.72,-94.81C841.68,-100.05 874.9,-106.74 902.97,-112.4"/>
<polygon fill="midnightblue" stroke="midnightblue" points="902.56,-115.89 913.06,-114.44 903.94,-109.03 902.56,-115.89"/>
</g>
<!-- Node19&#45;&gt;Node18 -->
<g id="edge21" class="edge">
<title>Node19&#45;&gt;Node18</title>
<path fill="none" stroke="midnightblue" d="M836.61,-124C849.26,-124 862.71,-124 875.9,-124"/>
<polygon fill="midnightblue" stroke="midnightblue" points="875.92,-127.5 885.92,-124 875.92,-120.5 875.92,-127.5"/>
</g>
<!-- Node20&#45;&gt;Node18 -->
<g id="edge23" class="edge">
<title>Node20&#45;&gt;Node18</title>
<path fill="none" stroke="midnightblue" d="M622.67,-174.57C651.52,-182.49 688.43,-192.53 692,-193 761.62,-202.21 782.5,-212.35 850,-193 885.92,-182.7 921.51,-156.95 942.23,-139.99"/>
<polygon fill="midnightblue" stroke="midnightblue" points="944.5,-142.65 949.9,-133.54 940,-137.29 944.5,-142.65"/>
</g>
<!-- Node21 -->
<g id="node21" class="node">
<title>Node21</title>
<g id="a_node21"><a xlink:href="a00381.html#gab66f225bac6b132d1418a4c808e3babb" target="_top" xlink:title="Disposes a given PWM generator by resetting all its registers to default.">
<polygon fill="white" stroke="black" points="701,-153 701,-183 841,-183 841,-153 701,-153"/>
<text text-anchor="start" x="709" y="-171" font-family="Helvetica,sans-Serif" font-size="10.00">p33c_PwmGenerator_Config</text>
<text text-anchor="middle" x="771" y="-160" font-family="Helvetica,sans-Serif" font-size="10.00">Write</text>
</a>
</g>
</g>
<!-- Node20&#45;&gt;Node21 -->
<g id="edge24" class="edge">
<title>Node20&#45;&gt;Node21</title>
<path fill="none" stroke="midnightblue" d="M656.03,-166.12C667.35,-166.31 679.18,-166.5 690.76,-166.69"/>
<polygon fill="midnightblue" stroke="midnightblue" points="690.78,-170.19 700.84,-166.86 690.9,-163.2 690.78,-170.19"/>
</g>
<!-- Node22 -->
<g id="node22" class="node">
<title>Node22</title>
<g id="a_node22"><a xlink:href="a00381.html#ga55e525c7ac54a365ab6dad558ec17f0b" target="_top" xlink:title="Returns the PWM generator index.">
<polygon fill="white" stroke="black" points="692,-255.5 692,-274.5 850,-274.5 850,-255.5 692,-255.5"/>
<text text-anchor="middle" x="771" y="-262.5" font-family="Helvetica,sans-Serif" font-size="10.00">p33c_PwmGenerator_GetHandle</text>
</a>
</g>
</g>
<!-- Node20&#45;&gt;Node22 -->
<g id="edge25" class="edge">
<title>Node20&#45;&gt;Node22</title>
<path fill="none" stroke="midnightblue" d="M635.99,-174.53C643,-177.01 649.9,-180.11 656,-184 676.73,-197.21 672.62,-210.87 692,-226 704.99,-236.14 721.04,-244.71 735.2,-251.21"/>
<polygon fill="midnightblue" stroke="midnightblue" points="734.07,-254.54 744.64,-255.38 736.9,-248.14 734.07,-254.54"/>
</g>
<!-- Node24 -->
<g id="node24" class="node">
<title>Node24</title>
<g id="a_node24"><a xlink:href="a00381.html#ga8075fd40f867be8f42bb806622bd91bd" target="_top" xlink:title="Writes a user&#45;defined configuration to the PWM base module registers.">
<polygon fill="white" stroke="black" points="695,-38.5 695,-57.5 847,-57.5 847,-38.5 695,-38.5"/>
<text text-anchor="middle" x="771" y="-45.5" font-family="Helvetica,sans-Serif" font-size="10.00">p33c_PwmModule_ConfigWrite</text>
</a>
</g>
</g>
<!-- Node23&#45;&gt;Node24 -->
<g id="edge27" class="edge">
<title>Node23&#45;&gt;Node24</title>
<path fill="none" stroke="midnightblue" d="M654.22,-48C664.13,-48 674.46,-48 684.7,-48"/>
<polygon fill="midnightblue" stroke="midnightblue" points="684.89,-51.5 694.89,-48 684.89,-44.5 684.89,-51.5"/>
</g>
<!-- Node25 -->
<g id="node25" class="node">
<title>Node25</title>
<g id="a_node25"><a xlink:href="a00381.html#ga3ed5f08051a70f5cb426b8254119845f" target="_top" xlink:title="Gets pointer to PWM module SFR set.">
<polygon fill="white" stroke="black" points="697.5,-0.5 697.5,-19.5 844.5,-19.5 844.5,-0.5 697.5,-0.5"/>
<text text-anchor="middle" x="771" y="-7.5" font-family="Helvetica,sans-Serif" font-size="10.00">p33c_PwmModule_GetHandle</text>
</a>
</g>
</g>
<!-- Node23&#45;&gt;Node25 -->
<g id="edge28" class="edge">
<title>Node23&#45;&gt;Node25</title>
<path fill="none" stroke="midnightblue" d="M633.93,-38.41C658.38,-33.31 688.63,-26.99 714.4,-21.61"/>
<polygon fill="midnightblue" stroke="midnightblue" points="715.33,-24.99 724.4,-19.52 713.9,-18.14 715.33,-24.99"/>
</g>
<!-- Node27 -->
<g id="node27" class="node">
<title>Node27</title>
<g id="a_node27"><a xlink:href="a00519.html#gab089e35bcd5d68072aa53298ee276959" target="_top" xlink:title="This function enables the ADC module and starts the ADC cores analog inputs for the required input si...">
<polygon fill="white" stroke="black" points="371.5,-278.5 371.5,-297.5 455.5,-297.5 455.5,-278.5 371.5,-278.5"/>
<text text-anchor="middle" x="413.5" y="-285.5" font-family="Helvetica,sans-Serif" font-size="10.00">buckADC_Start</text>
</a>
</g>
</g>
<!-- Node26&#45;&gt;Node27 -->
<g id="edge30" class="edge">
<title>Node26&#45;&gt;Node27</title>
<path fill="none" stroke="midnightblue" d="M299.36,-275.65C319.54,-277.85 341.8,-280.28 361.19,-282.4"/>
<polygon fill="midnightblue" stroke="midnightblue" points="361.02,-285.9 371.34,-283.51 361.78,-278.94 361.02,-285.9"/>
</g>
<!-- Node28 -->
<g id="node28" class="node">
<title>Node28</title>
<g id="a_node28"><a xlink:href="a00519.html#gac63073d04bc35c0cce5df47ea0d33165" target="_top" xlink:title="This function enables the buck PWM operation.">
<polygon fill="white" stroke="black" points="542.5,-269.5 542.5,-288.5 631.5,-288.5 631.5,-269.5 542.5,-269.5"/>
<text text-anchor="middle" x="587" y="-276.5" font-family="Helvetica,sans-Serif" font-size="10.00">buckPWM_Start</text>
</a>
</g>
</g>
<!-- Node26&#45;&gt;Node28 -->
<g id="edge31" class="edge">
<title>Node26&#45;&gt;Node28</title>
<path fill="none" stroke="midnightblue" d="M299.08,-267.39C348.37,-266.47 419.72,-266.01 482,-269 498.27,-269.78 515.93,-271.24 532,-272.82"/>
<polygon fill="midnightblue" stroke="midnightblue" points="531.99,-276.33 542.3,-273.86 532.7,-269.37 531.99,-276.33"/>
</g>
<!-- Node28&#45;&gt;Node22 -->
<g id="edge32" class="edge">
<title>Node28&#45;&gt;Node22</title>
<path fill="none" stroke="midnightblue" d="M631.59,-275.65C646.71,-274.48 664.26,-273.13 681.67,-271.79"/>
<polygon fill="midnightblue" stroke="midnightblue" points="682.19,-275.27 691.89,-271.01 681.65,-268.29 682.19,-275.27"/>
</g>
</g>
</svg>
        <g id="navigator" transform="translate(0 0)" fill="#404254">
                <rect fill="#f2f5e9" fill-opacity="0.5" stroke="#606060" stroke-width=".5" x="0" y="0" width="60" height="60"/>
                <use id="zoomplus" xlink:href="#zoomPlus" x="17" y="9" onmousedown="handleZoom(evt,'in')"/>
                <use id="zoomminus" xlink:href="#zoomMin" x="42" y="9" onmousedown="handleZoom(evt,'out')"/>
                <use id="reset" xlink:href="#resetDef" x="30" y="36" onmousedown="handleReset()"/>
                <g id="arrowUp" xlink:href="#dirArrow" transform="translate(30 24)" onmousedown="handlePan(0,-1)">
                  <use xlink:href="#rim" fill="#404040">
                        <set attributeName="fill" to="#808080" begin="arrowUp.mouseover" end="arrowUp.mouseout"/>
                  </use>
                  <path fill="none" stroke="white" stroke-width="1.5" d="M0,-3.0v7 M-2.5,-0.5L0,-3.0L2.5,-0.5"/>
                </g>
                <g id="arrowRight" xlink:href="#dirArrow" transform="rotate(90) translate(36 -43)" onmousedown="handlePan(1,0)">
                  <use xlink:href="#rim" fill="#404040">
                        <set attributeName="fill" to="#808080" begin="arrowRight.mouseover" end="arrowRight.mouseout"/>
                  </use>
                  <path fill="none" stroke="white" stroke-width="1.5" d="M0,-3.0v7 M-2.5,-0.5L0,-3.0L2.5,-0.5"/>
                </g>
                <g id="arrowDown" xlink:href="#dirArrow" transform="rotate(180) translate(-30 -48)" onmousedown="handlePan(0,1)">
                  <use xlink:href="#rim" fill="#404040">
                        <set attributeName="fill" to="#808080" begin="arrowDown.mouseover" end="arrowDown.mouseout"/>
                  </use>
                  <path fill="none" stroke="white" stroke-width="1.5" d="M0,-3.0v7 M-2.5,-0.5L0,-3.0L2.5,-0.5"/>
                </g>
                <g id="arrowLeft" xlink:href="#dirArrow" transform="rotate(270) translate(-36 17)" onmousedown="handlePan(-1,0)">
                  <use xlink:href="#rim" fill="#404040">
                        <set attributeName="fill" to="#808080" begin="arrowLeft.mouseover" end="arrowLeft.mouseout"/>
                  </use>
                  <path fill="none" stroke="white" stroke-width="1.5" d="M0,-3.0v7 M-2.5,-0.5L0,-3.0L2.5,-0.5"/>
                </g>
        </g>
        <svg viewBox="0 0 15 15" width="100%" height="30px" preserveAspectRatio="xMaxYMin meet">
         <g id="arrow_out" transform="scale(0.3 0.3)">
          <a xlink:href="a00489_ga7a4cf6371d09457539f96a74b2809ca0_cgraph_org.svg" target="_base">
           <rect id="button" ry="5" rx="5" y="6" x="6" height="38" width="38"
                fill="#f2f5e9" fill-opacity="0.5" stroke="#606060" stroke-width="1.0"/>
           <path id="arrow"
             d="M 11.500037,31.436501 C 11.940474,20.09759 22.043105,11.32322 32.158766,21.979434 L 37.068811,17.246167 C 37.068811,17.246167 37.088388,32 37.088388,32 L 22.160133,31.978069 C 22.160133,31.978069 26.997745,27.140456 26.997745,27.140456 C 18.528582,18.264221 13.291696,25.230495 11.500037,31.436501 z"
             style="fill:#404040;"/>
          </a>
         </g>
        </svg>
</svg>
