<?xml version="1.0" encoding="UTF-8" standalone="no"?>
<!DOCTYPE svg PUBLIC "-//W3C//DTD SVG 1.1//EN"
 "http://www.w3.org/Graphics/SVG/1.1/DTD/svg11.dtd">
<!-- Generated by graphviz version 2.44.1 (20200629.0846)
 -->
<!-- Title: dev_Lcd_Clear Pages: 1 -->
<svg width="804pt" height="78pt"
 viewBox="0.00 0.00 804.00 77.50" xmlns="http://www.w3.org/2000/svg" xmlns:xlink="http://www.w3.org/1999/xlink">
<g id="graph0" class="graph" transform="scale(1 1) rotate(0) translate(4 73.5)">
<title>dev_Lcd_Clear</title>
<polygon fill="white" stroke="transparent" points="-4,4 -4,-73.5 800,-73.5 800,4 -4,4"/>
<!-- Node1 -->
<g id="node1" class="node">
<title>Node1</title>
<g id="a_node1"><a xlink:title="Clears the LC Display Screen.">
<polygon fill="#bfbfbf" stroke="black" points="716,-22.5 716,-41.5 796,-41.5 796,-22.5 716,-22.5"/>
<text text-anchor="middle" x="756" y="-29.5" font-family="Helvetica,sans-Serif" font-size="10.00">dev_Lcd_Clear</text>
</a>
</g>
</g>
<!-- Node2 -->
<g id="node2" class="node">
<title>Node2</title>
<g id="a_node2"><a xlink:href="a00474.html#ga3cb1303cba012af043a87af0bcab16d8" target="_top" xlink:title="Writes a character on the LCD screen.">
<polygon fill="white" stroke="black" points="579,-22.5 579,-41.5 680,-41.5 680,-22.5 579,-22.5"/>
<text text-anchor="middle" x="629.5" y="-29.5" font-family="Helvetica,sans-Serif" font-size="10.00">dev_Lcd_WriteChar</text>
</a>
</g>
</g>
<!-- Node1&#45;&gt;Node2 -->
<g id="edge1" class="edge">
<title>Node1&#45;&gt;Node2</title>
<path fill="none" stroke="midnightblue" d="M705.93,-32C697.54,-32 688.81,-32 680.4,-32"/>
<polygon fill="midnightblue" stroke="midnightblue" points="705.95,-35.5 715.95,-32 705.95,-28.5 705.95,-35.5"/>
</g>
<!-- Node3 -->
<g id="node3" class="node">
<title>Node3</title>
<g id="a_node3"><a xlink:href="a00474.html#gac07de05132918ca2db8cf4492819eca6" target="_top" xlink:title="Writes a complete string on the LCD screen.">
<polygon fill="white" stroke="black" points="437,-22.5 437,-41.5 543,-41.5 543,-22.5 437,-22.5"/>
<text text-anchor="middle" x="490" y="-29.5" font-family="Helvetica,sans-Serif" font-size="10.00">dev_Lcd_WriteString</text>
</a>
</g>
</g>
<!-- Node2&#45;&gt;Node3 -->
<g id="edge2" class="edge">
<title>Node2&#45;&gt;Node3</title>
<path fill="none" stroke="midnightblue" d="M568.69,-32C560.25,-32 551.63,-32 543.35,-32"/>
<polygon fill="midnightblue" stroke="midnightblue" points="568.86,-35.5 578.86,-32 568.86,-28.5 568.86,-35.5"/>
</g>
<!-- Node4 -->
<g id="node4" class="node">
<title>Node4</title>
<g id="a_node4"><a xlink:href="a00474.html#ga24701a4c3ae760e7e0b9c70d93370ff3" target="_top" xlink:title="Sets the cursor position to the given x&#45; and y&#45;coordinates and writes the given string on the lcd scr...">
<polygon fill="white" stroke="black" points="283,-22.5 283,-41.5 401,-41.5 401,-22.5 283,-22.5"/>
<text text-anchor="middle" x="342" y="-29.5" font-family="Helvetica,sans-Serif" font-size="10.00">dev_Lcd_WriteStringXY</text>
</a>
</g>
</g>
<!-- Node3&#45;&gt;Node4 -->
<g id="edge3" class="edge">
<title>Node3&#45;&gt;Node4</title>
<path fill="none" stroke="midnightblue" d="M426.54,-32C418.11,-32 409.48,-32 401.13,-32"/>
<polygon fill="midnightblue" stroke="midnightblue" points="426.7,-35.5 436.7,-32 426.7,-28.5 426.7,-35.5"/>
</g>
<!-- Node5 -->
<g id="node5" class="node">
<title>Node5</title>
<g id="a_node5"><a xlink:href="a00469.html#gacd8e3f8ca8af94f13f7efa0df7ced6f5" target="_top" xlink:title="Refreshes the LC display.">
<polygon fill="white" stroke="black" points="155,-42.5 155,-61.5 247,-61.5 247,-42.5 155,-42.5"/>
<text text-anchor="middle" x="201" y="-49.5" font-family="Helvetica,sans-Serif" font-size="10.00">appLCD_Execute</text>
</a>
</g>
</g>
<!-- Node4&#45;&gt;Node5 -->
<g id="edge4" class="edge">
<title>Node4&#45;&gt;Node5</title>
<path fill="none" stroke="midnightblue" d="M272.74,-41.82C264.08,-43.07 255.4,-44.32 247.23,-45.49"/>
<polygon fill="midnightblue" stroke="midnightblue" points="273.46,-45.25 282.86,-40.37 272.46,-38.33 273.46,-45.25"/>
</g>
<!-- Node7 -->
<g id="node7" class="node">
<title>Node7</title>
<g id="a_node7"><a xlink:href="a00469.html#gab93992748ced72fdc2989d0b0f369e54" target="_top" xlink:title="Initializes the LC display.">
<polygon fill="white" stroke="black" points="155,-3.5 155,-22.5 247,-22.5 247,-3.5 155,-3.5"/>
<text text-anchor="middle" x="201" y="-10.5" font-family="Helvetica,sans-Serif" font-size="10.00">appLCD_Initialize</text>
</a>
</g>
</g>
<!-- Node4&#45;&gt;Node7 -->
<g id="edge6" class="edge">
<title>Node4&#45;&gt;Node7</title>
<path fill="none" stroke="midnightblue" d="M272.74,-22.67C264.08,-21.49 255.4,-20.3 247.23,-19.18"/>
<polygon fill="midnightblue" stroke="midnightblue" points="272.47,-26.17 282.86,-24.05 273.42,-19.23 272.47,-26.17"/>
</g>
<!-- Node6 -->
<g id="node6" class="node">
<title>Node6</title>
<g id="a_node6"><a xlink:href="a00551.html#gaa1ec8154dbf983b02b3b2dc186c5079d" target="_top" xlink:title="Low priority task sequence executed after the high priority task sequence execution is complete.">
<polygon fill="white" stroke="black" points="6,-39 6,-69 113,-69 113,-39 6,-39"/>
<text text-anchor="start" x="14" y="-57" font-family="Helvetica,sans-Serif" font-size="10.00">sysLowPriorityTasks</text>
<text text-anchor="middle" x="59.5" y="-46" font-family="Helvetica,sans-Serif" font-size="10.00">_Execute</text>
</a>
</g>
</g>
<!-- Node5&#45;&gt;Node6 -->
<g id="edge5" class="edge">
<title>Node5&#45;&gt;Node6</title>
<path fill="none" stroke="midnightblue" d="M144.59,-52.79C134.29,-52.94 123.55,-53.1 113.33,-53.24"/>
<polygon fill="midnightblue" stroke="midnightblue" points="144.76,-56.29 154.71,-52.65 144.66,-49.29 144.76,-56.29"/>
</g>
<!-- Node8 -->
<g id="node8" class="node">
<title>Node8</title>
<g id="a_node8"><a xlink:href="a00564.html#ga2be64f5f0b9a2c0c6713f5a69d793e05" target="_top" xlink:title="Initializes the user&#45;defined tasks.">
<polygon fill="white" stroke="black" points="0,-0.5 0,-19.5 119,-19.5 119,-0.5 0,-0.5"/>
<text text-anchor="middle" x="59.5" y="-7.5" font-family="Helvetica,sans-Serif" font-size="10.00">sysUserTasks_Initialize</text>
</a>
</g>
</g>
<!-- Node7&#45;&gt;Node8 -->
<g id="edge7" class="edge">
<title>Node7&#45;&gt;Node8</title>
<path fill="none" stroke="midnightblue" d="M144.63,-11.81C136.22,-11.63 127.51,-11.44 119.04,-11.26"/>
<polygon fill="midnightblue" stroke="midnightblue" points="144.64,-15.31 154.71,-12.03 144.79,-8.31 144.64,-15.31"/>
</g>
</g>
</svg>
