<?xml version="1.0" encoding="UTF-8" standalone="no"?>
<!DOCTYPE svg PUBLIC "-//W3C//DTD SVG 1.1//EN"
 "http://www.w3.org/Graphics/SVG/1.1/DTD/svg11.dtd">
<!-- Generated by graphviz version 2.44.1 (20200629.0846)
 -->
<!-- Title: Microcontroller Abstraction Pages: 1 -->
<svg width="415pt" height="27pt"
 viewBox="0.00 0.00 415.00 27.00" xmlns="http://www.w3.org/2000/svg" xmlns:xlink="http://www.w3.org/1999/xlink">
<g id="graph0" class="graph" transform="scale(1 1) rotate(0) translate(4 23)">
<title>Microcontroller Abstraction</title>
<polygon fill="white" stroke="transparent" points="-4,4 -4,-23 411,-23 411,4 -4,4"/>
<!-- Node2 -->
<g id="node1" class="node">
<title>Node2</title>
<g id="a_node1"><a xlink:href="a00415.html" target="_top" xlink:title="Declaration of input voltage feedback parameters.">
<polygon fill="white" stroke="black" points="119,-19 0,-19 0,0 119,0 119,-19"/>
<text text-anchor="middle" x="59.5" y="-7" font-family="Helvetica,sans-Serif" font-size="10.00">Input Voltage Feedback</text>
</a>
</g>
</g>
<!-- Node1 -->
<g id="node2" class="node">
<title>Node1</title>
<g id="a_node2"><a xlink:title="Device analog input pin, register and interrupt vector assignments of input voltage feedback signal(s...">
<polygon fill="#bfbfbf" stroke="black" points="288,-19 155,-19 155,0 288,0 288,-19"/>
<text text-anchor="middle" x="221.5" y="-7" font-family="Helvetica,sans-Serif" font-size="10.00">Microcontroller Abstraction</text>
</a>
</g>
</g>
<!-- Node2&#45;&gt;Node1 -->
<g id="edge1" class="edge">
<title>Node2&#45;&gt;Node1</title>
<path fill="none" stroke="black" d="M129.36,-9.5C137.8,-9.5 146.42,-9.5 154.81,-9.5"/>
<polygon fill="black" stroke="black" points="129.17,-6 119.17,-9.5 129.17,-13 129.17,-6"/>
</g>
<!-- Node3 -->
<g id="node3" class="node">
<title>Node3</title>
<g id="a_node3"><a xlink:href="a00421.html" target="_top" xlink:title="Device analog input pin, register and interrupt vector assignments of input voltage feedback signal(s...">
<polygon fill="white" stroke="black" points="407,-19 324,-19 324,0 407,0 407,-19"/>
<text text-anchor="middle" x="365.5" y="-7" font-family="Helvetica,sans-Serif" font-size="10.00">Buck Converter</text>
</a>
</g>
</g>
<!-- Node1&#45;&gt;Node3 -->
<g id="edge2" class="edge">
<title>Node1&#45;&gt;Node3</title>
<path fill="none" stroke="black" d="M298.13,-9.5C307.01,-9.5 315.79,-9.5 323.91,-9.5"/>
<polygon fill="black" stroke="black" points="298.1,-6 288.1,-9.5 298.1,-13 298.1,-6"/>
</g>
</g>
</svg>
