<?xml version="1.0" encoding="UTF-8" standalone="no"?>
<!DOCTYPE svg PUBLIC "-//W3C//DTD SVG 1.1//EN"
 "http://www.w3.org/Graphics/SVG/1.1/DTD/svg11.dtd">
<!-- Generated by graphviz version 2.44.1 (20200629.0846)
 -->
<!-- Title: LC&#45;Display Application Layer Pages: 1 -->
<svg width="380pt" height="138pt"
 viewBox="0.00 0.00 380.00 138.00" xmlns="http://www.w3.org/2000/svg" xmlns:xlink="http://www.w3.org/1999/xlink">
<g id="graph0" class="graph" transform="scale(1 1) rotate(0) translate(4 134)">
<title>LC&#45;Display Application Layer</title>
<polygon fill="white" stroke="transparent" points="-4,4 -4,-134 376,-134 376,4 -4,4"/>
<!-- Node5 -->
<g id="node1" class="node">
<title>Node5</title>
<g id="a_node1"><a xlink:href="a00471.html" target="_top" xlink:title="Private functions of the LC display task.">
<polygon fill="white" stroke="black" points="371.5,-130 279.5,-130 279.5,-111 371.5,-111 371.5,-130"/>
<text text-anchor="middle" x="325.5" y="-118" font-family="Helvetica,sans-Serif" font-size="10.00">Private Functions</text>
</a>
</g>
</g>
<!-- Node2 -->
<g id="node2" class="node">
<title>Node2</title>
<g id="a_node2"><a xlink:href="a00566.html" target="_top" xlink:title="Task Layer.">
<polygon fill="white" stroke="black" points="92,-74 0,-74 0,-55 92,-55 92,-74"/>
<text text-anchor="middle" x="46" y="-62" font-family="Helvetica,sans-Serif" font-size="10.00">Application Layer</text>
</a>
</g>
</g>
<!-- Node1 -->
<g id="node3" class="node">
<title>Node1</title>
<g id="a_node3"><a xlink:title=" ">
<polygon fill="#bfbfbf" stroke="black" points="243,-79.5 128,-79.5 128,-49.5 243,-49.5 243,-79.5"/>
<text text-anchor="start" x="136" y="-67.5" font-family="Helvetica,sans-Serif" font-size="10.00">LC&#45;Display Application</text>
<text text-anchor="middle" x="185.5" y="-56.5" font-family="Helvetica,sans-Serif" font-size="10.00"> Layer</text>
</a>
</g>
</g>
<!-- Node2&#45;&gt;Node1 -->
<g id="edge1" class="edge">
<title>Node2&#45;&gt;Node1</title>
<path fill="none" stroke="black" d="M102.15,-64.5C110.6,-64.5 119.34,-64.5 127.82,-64.5"/>
<polygon fill="black" stroke="black" points="102.02,-61 92.02,-64.5 102.02,-68 102.02,-61"/>
</g>
<!-- Node1&#45;&gt;Node5 -->
<g id="edge4" class="edge">
<title>Node1&#45;&gt;Node5</title>
<path fill="none" stroke="black" d="M232.4,-83.5C247.25,-89.6 263.81,-96.38 279,-102.5 285.78,-105.23 293.13,-108.16 299.92,-110.84"/>
<polygon fill="black" stroke="black" points="233.5,-80.16 222.92,-79.59 230.83,-86.63 233.5,-80.16"/>
</g>
<!-- Node6 -->
<g id="node4" class="node">
<title>Node6</title>
<g id="a_node4"><a xlink:href="a00472.html" target="_top" xlink:title="Private properties of the LC display task.">
<polygon fill="white" stroke="black" points="372,-93 279,-93 279,-74 372,-74 372,-93"/>
<text text-anchor="middle" x="325.5" y="-81" font-family="Helvetica,sans-Serif" font-size="10.00">Private Properties</text>
</a>
</g>
</g>
<!-- Node1&#45;&gt;Node6 -->
<g id="edge5" class="edge">
<title>Node1&#45;&gt;Node6</title>
<path fill="none" stroke="black" d="M253.17,-73.68C261.85,-74.87 270.58,-76.08 278.81,-77.21"/>
<polygon fill="black" stroke="black" points="253.41,-70.18 243.03,-72.28 252.46,-77.11 253.41,-70.18"/>
</g>
<!-- Node4 -->
<g id="node5" class="node">
<title>Node4</title>
<g id="a_node5"><a xlink:href="a00470.html" target="_top" xlink:title="Public properties of the LC display task.">
<polygon fill="white" stroke="black" points="371,-56 280,-56 280,-37 371,-37 371,-56"/>
<text text-anchor="middle" x="325.5" y="-44" font-family="Helvetica,sans-Serif" font-size="10.00">Public Properties</text>
</a>
</g>
</g>
<!-- Node1&#45;&gt;Node4 -->
<g id="edge3" class="edge">
<title>Node1&#45;&gt;Node4</title>
<path fill="none" stroke="black" d="M253.13,-55.81C262.13,-54.64 271.18,-53.46 279.67,-52.35"/>
<polygon fill="black" stroke="black" points="252.49,-52.36 243.03,-57.13 253.4,-59.3 252.49,-52.36"/>
</g>
<!-- Node3 -->
<g id="node6" class="node">
<title>Node3</title>
<g id="a_node6"><a xlink:href="a00469.html" target="_top" xlink:title="Public functions of the LC display task.">
<polygon fill="white" stroke="black" points="370,-19 281,-19 281,0 370,0 370,-19"/>
<text text-anchor="middle" x="325.5" y="-7" font-family="Helvetica,sans-Serif" font-size="10.00">Public Functions</text>
</a>
</g>
</g>
<!-- Node1&#45;&gt;Node3 -->
<g id="edge2" class="edge">
<title>Node1&#45;&gt;Node3</title>
<path fill="none" stroke="black" d="M233.6,-45.62C248.15,-39.8 264.23,-33.37 279,-27.5 285.95,-24.74 293.49,-21.75 300.41,-19.01"/>
<polygon fill="black" stroke="black" points="232.27,-42.38 224.29,-49.35 234.88,-48.88 232.27,-42.38"/>
</g>
</g>
</svg>
