<?xml version="1.0" encoding="UTF-8" standalone="no"?>
<!DOCTYPE svg PUBLIC "-//W3C//DTD SVG 1.1//EN"
 "http://www.w3.org/Graphics/SVG/1.1/DTD/svg11.dtd">
<!-- Generated by graphviz version 2.44.1 (20200629.0846)
 -->
<!-- Title: User Settings Pages: 1 -->
<svg width="319pt" height="27pt"
 viewBox="0.00 0.00 319.00 27.00" xmlns="http://www.w3.org/2000/svg" xmlns:xlink="http://www.w3.org/1999/xlink">
<g id="graph0" class="graph" transform="scale(1 1) rotate(0) translate(4 23)">
<title>User Settings</title>
<polygon fill="white" stroke="transparent" points="-4,4 -4,-23 315,-23 315,4 -4,4"/>
<!-- Node3 -->
<g id="node1" class="node">
<title>Node3</title>
<g id="a_node1"><a xlink:href="a00410.html" target="_top" xlink:title="PWM parameter definitions of the buck converter using physical quantities.">
<polygon fill="white" stroke="black" points="311,-19 228,-19 228,0 311,0 311,-19"/>
<text text-anchor="middle" x="269.5" y="-7" font-family="Helvetica,sans-Serif" font-size="10.00">Buck Converter</text>
</a>
</g>
</g>
<!-- Node1 -->
<g id="node2" class="node">
<title>Node1</title>
<g id="a_node2"><a xlink:title="Parameter definitions using physical quantities.">
<polygon fill="#bfbfbf" stroke="black" points="192,-19 116,-19 116,0 192,0 192,-19"/>
<text text-anchor="middle" x="154" y="-7" font-family="Helvetica,sans-Serif" font-size="10.00">User Settings</text>
</a>
</g>
</g>
<!-- Node1&#45;&gt;Node3 -->
<g id="edge2" class="edge">
<title>Node1&#45;&gt;Node3</title>
<path fill="none" stroke="black" d="M202.28,-9.5C210.73,-9.5 219.47,-9.5 227.72,-9.5"/>
<polygon fill="black" stroke="black" points="202.16,-6 192.16,-9.5 202.16,-13 202.16,-6"/>
</g>
<!-- Node2 -->
<g id="node3" class="node">
<title>Node2</title>
<g id="a_node3"><a xlink:href="a00408.html" target="_top" xlink:title="Declaration of fundamental PWM parameters.">
<polygon fill="white" stroke="black" points="80,-19 0,-19 0,0 80,0 80,-19"/>
<text text-anchor="middle" x="40" y="-7" font-family="Helvetica,sans-Serif" font-size="10.00">PWM Settings</text>
</a>
</g>
</g>
<!-- Node2&#45;&gt;Node1 -->
<g id="edge1" class="edge">
<title>Node2&#45;&gt;Node1</title>
<path fill="none" stroke="black" d="M90.45,-9.5C99,-9.5 107.76,-9.5 115.92,-9.5"/>
<polygon fill="black" stroke="black" points="90.17,-6 80.17,-9.5 90.17,-13 90.17,-6"/>
</g>
</g>
</svg>
