<?xml version="1.0" encoding="UTF-8" standalone="no"?>
<!DOCTYPE svg PUBLIC "-//W3C//DTD SVG 1.1//EN"
 "http://www.w3.org/Graphics/SVG/1.1/DTD/svg11.dtd">
<!-- Generated by graphviz version 2.44.1 (20200629.0846)
 -->
<!-- Title: User Settings Pages: 1 -->
<svg width="367pt" height="27pt"
 viewBox="0.00 0.00 367.00 27.00" xmlns="http://www.w3.org/2000/svg" xmlns:xlink="http://www.w3.org/1999/xlink">
<g id="graph0" class="graph" transform="scale(1 1) rotate(0) translate(4 23)">
<title>User Settings</title>
<polygon fill="white" stroke="transparent" points="-4,4 -4,-23 363,-23 363,4 -4,4"/>
<!-- Node1 -->
<g id="node1" class="node">
<title>Node1</title>
<g id="a_node1"><a xlink:title="User&#45;declaration of output voltage feedback parameters using physical quantities.">
<polygon fill="#bfbfbf" stroke="black" points="240,-19 164,-19 164,0 240,0 240,-19"/>
<text text-anchor="middle" x="202" y="-7" font-family="Helvetica,sans-Serif" font-size="10.00">User Settings</text>
</a>
</g>
</g>
<!-- Node3 -->
<g id="node2" class="node">
<title>Node3</title>
<g id="a_node2"><a xlink:href="a00424.html" target="_top" xlink:title="User&#45;declaration of output voltage feedback parameters of the buck converter using physical quantitie...">
<polygon fill="white" stroke="black" points="359,-19 276,-19 276,0 359,0 359,-19"/>
<text text-anchor="middle" x="317.5" y="-7" font-family="Helvetica,sans-Serif" font-size="10.00">Buck Converter</text>
</a>
</g>
</g>
<!-- Node1&#45;&gt;Node3 -->
<g id="edge2" class="edge">
<title>Node1&#45;&gt;Node3</title>
<path fill="none" stroke="black" d="M250.28,-9.5C258.73,-9.5 267.47,-9.5 275.72,-9.5"/>
<polygon fill="black" stroke="black" points="250.16,-6 240.16,-9.5 250.16,-13 250.16,-6"/>
</g>
<!-- Node2 -->
<g id="node3" class="node">
<title>Node2</title>
<g id="a_node3"><a xlink:href="a00422.html" target="_top" xlink:title="Declaration of output voltage feedback parameters.">
<polygon fill="white" stroke="black" points="128,-19 0,-19 0,0 128,0 128,-19"/>
<text text-anchor="middle" x="64" y="-7" font-family="Helvetica,sans-Serif" font-size="10.00">Output Voltage Feedback</text>
</a>
</g>
</g>
<!-- Node2&#45;&gt;Node1 -->
<g id="edge1" class="edge">
<title>Node2&#45;&gt;Node1</title>
<path fill="none" stroke="black" d="M138.25,-9.5C147.12,-9.5 155.86,-9.5 163.88,-9.5"/>
<polygon fill="black" stroke="black" points="138.22,-6 128.22,-9.5 138.22,-13 138.22,-6"/>
</g>
</g>
</svg>
