<?xml version="1.0" encoding="UTF-8" standalone="no"?>
<!DOCTYPE svg PUBLIC "-//W3C//DTD SVG 1.1//EN"
 "http://www.w3.org/Graphics/SVG/1.1/DTD/svg11.dtd">
<!-- Generated by graphviz version 2.44.1 (20200629.0846)
 -->
<!-- Title: User Settings Pages: 1 -->
<svg width="364pt" height="27pt"
 viewBox="0.00 0.00 364.00 27.00" xmlns="http://www.w3.org/2000/svg" xmlns:xlink="http://www.w3.org/1999/xlink">
<g id="graph0" class="graph" transform="scale(1 1) rotate(0) translate(4 23)">
<title>User Settings</title>
<polygon fill="white" stroke="transparent" points="-4,4 -4,-23 360,-23 360,4 -4,4"/>
<!-- Node1 -->
<g id="node1" class="node">
<title>Node1</title>
<g id="a_node1"><a xlink:title="User&#45;declaration of phase current feedback parameters using physical quantities.">
<polygon fill="#bfbfbf" stroke="black" points="237,-19 161,-19 161,0 237,0 237,-19"/>
<text text-anchor="middle" x="199" y="-7" font-family="Helvetica,sans-Serif" font-size="10.00">User Settings</text>
</a>
</g>
</g>
<!-- Node3 -->
<g id="node3" class="node">
<title>Node3</title>
<g id="a_node3"><a xlink:href="a00431.html" target="_top" xlink:title="User&#45;declaration of phase current feedback parameters of the buck converter using physical quantities...">
<polygon fill="white" stroke="black" points="356,-19 273,-19 273,0 356,0 356,-19"/>
<text text-anchor="middle" x="314.5" y="-7" font-family="Helvetica,sans-Serif" font-size="10.00">Buck Converter</text>
</a>
</g>
</g>
<!-- Node1&#45;&gt;Node3 -->
<g id="edge2" class="edge">
<title>Node1&#45;&gt;Node3</title>
<path fill="none" stroke="black" d="M247.28,-9.5C255.73,-9.5 264.47,-9.5 272.72,-9.5"/>
<polygon fill="black" stroke="black" points="247.16,-6 237.16,-9.5 247.16,-13 247.16,-6"/>
</g>
<!-- Node2 -->
<g id="node2" class="node">
<title>Node2</title>
<g id="a_node2"><a xlink:href="a00429.html" target="_top" xlink:title="Declaration of phase current feedback parameters.">
<polygon fill="white" stroke="black" points="125,-19 0,-19 0,0 125,0 125,-19"/>
<text text-anchor="middle" x="62.5" y="-7" font-family="Helvetica,sans-Serif" font-size="10.00">Phase Current Feedback</text>
</a>
</g>
</g>
<!-- Node2&#45;&gt;Node1 -->
<g id="edge1" class="edge">
<title>Node2&#45;&gt;Node1</title>
<path fill="none" stroke="black" d="M135.52,-9.5C144.26,-9.5 152.89,-9.5 160.82,-9.5"/>
<polygon fill="black" stroke="black" points="135.24,-6 125.24,-9.5 135.24,-13 135.24,-6"/>
</g>
</g>
</svg>
