<?xml version="1.0" encoding="UTF-8" standalone="no"?>
<!DOCTYPE svg PUBLIC "-//W3C//DTD SVG 1.1//EN"
 "http://www.w3.org/Graphics/SVG/1.1/DTD/svg11.dtd">
<!-- Generated by graphviz version 2.44.1 (20200629.0846)
 -->
<!-- Title: drv_LcdInterface_Reset Pages: 1 -->
<svg width="536pt" height="28pt"
 viewBox="0.00 0.00 536.00 28.00" xmlns="http://www.w3.org/2000/svg" xmlns:xlink="http://www.w3.org/1999/xlink">
<g id="graph0" class="graph" transform="scale(1 1) rotate(0) translate(4 24)">
<title>drv_LcdInterface_Reset</title>
<polygon fill="white" stroke="transparent" points="-4,4 -4,-24 532,-24 532,4 -4,4"/>
<!-- Node1 -->
<g id="node1" class="node">
<title>Node1</title>
<g id="a_node1"><a xlink:title="Resets the LCD controller.">
<polygon fill="#bfbfbf" stroke="black" points="411,-0.5 411,-19.5 528,-19.5 528,-0.5 411,-0.5"/>
<text text-anchor="middle" x="469.5" y="-7.5" font-family="Helvetica,sans-Serif" font-size="10.00">drv_LcdInterface_Reset</text>
</a>
</g>
</g>
<!-- Node2 -->
<g id="node2" class="node">
<title>Node2</title>
<g id="a_node2"><a xlink:href="a00474.html#ga5d8f09855e28846e87400692d186781a" target="_top" xlink:title="Initializes the LCD Device.">
<polygon fill="white" stroke="black" points="283,-0.5 283,-19.5 375,-19.5 375,-0.5 283,-0.5"/>
<text text-anchor="middle" x="329" y="-7.5" font-family="Helvetica,sans-Serif" font-size="10.00">dev_Lcd_Initialize</text>
</a>
</g>
</g>
<!-- Node1&#45;&gt;Node2 -->
<g id="edge1" class="edge">
<title>Node1&#45;&gt;Node2</title>
<path fill="none" stroke="midnightblue" d="M400.85,-10C392.2,-10 383.51,-10 375.33,-10"/>
<polygon fill="midnightblue" stroke="midnightblue" points="400.97,-13.5 410.97,-10 400.97,-6.5 400.97,-13.5"/>
</g>
<!-- Node3 -->
<g id="node3" class="node">
<title>Node3</title>
<g id="a_node3"><a xlink:href="a00469.html#gab93992748ced72fdc2989d0b0f369e54" target="_top" xlink:title="Initializes the LC display.">
<polygon fill="white" stroke="black" points="155,-0.5 155,-19.5 247,-19.5 247,-0.5 155,-0.5"/>
<text text-anchor="middle" x="201" y="-7.5" font-family="Helvetica,sans-Serif" font-size="10.00">appLCD_Initialize</text>
</a>
</g>
</g>
<!-- Node2&#45;&gt;Node3 -->
<g id="edge2" class="edge">
<title>Node2&#45;&gt;Node3</title>
<path fill="none" stroke="midnightblue" d="M272.65,-10C264.16,-10 255.48,-10 247.24,-10"/>
<polygon fill="midnightblue" stroke="midnightblue" points="272.87,-13.5 282.87,-10 272.87,-6.5 272.87,-13.5"/>
</g>
<!-- Node4 -->
<g id="node4" class="node">
<title>Node4</title>
<g id="a_node4"><a xlink:href="a00564.html#ga2be64f5f0b9a2c0c6713f5a69d793e05" target="_top" xlink:title="Initializes the user&#45;defined tasks.">
<polygon fill="white" stroke="black" points="0,-0.5 0,-19.5 119,-19.5 119,-0.5 0,-0.5"/>
<text text-anchor="middle" x="59.5" y="-7.5" font-family="Helvetica,sans-Serif" font-size="10.00">sysUserTasks_Initialize</text>
</a>
</g>
</g>
<!-- Node3&#45;&gt;Node4 -->
<g id="edge3" class="edge">
<title>Node3&#45;&gt;Node4</title>
<path fill="none" stroke="midnightblue" d="M144.63,-10C136.22,-10 127.51,-10 119.04,-10"/>
<polygon fill="midnightblue" stroke="midnightblue" points="144.71,-13.5 154.71,-10 144.71,-6.5 144.71,-13.5"/>
</g>
</g>
</svg>
