<?xml version="1.0" encoding="UTF-8" standalone="no"?>
<!DOCTYPE svg PUBLIC "-//W3C//DTD SVG 1.1//EN"
 "http://www.w3.org/Graphics/SVG/1.1/DTD/svg11.dtd">
<!-- Generated by graphviz version 2.44.1 (20200629.0846)
 -->
<!-- Title: Special Circuit Signals Pages: 1 -->
<svg width="457pt" height="64pt"
 viewBox="0.00 0.00 457.00 64.00" xmlns="http://www.w3.org/2000/svg" xmlns:xlink="http://www.w3.org/1999/xlink">
<g id="graph0" class="graph" transform="scale(1 1) rotate(0) translate(4 60)">
<title>Special Circuit Signals</title>
<polygon fill="white" stroke="transparent" points="-4,4 -4,-60 453,-60 453,4 -4,4"/>
<!-- Node2 -->
<g id="node1" class="node">
<title>Node2</title>
<g id="a_node1"><a xlink:href="a00565.html" target="_top" xlink:title="Hardware Abstraction Layer Declarations.">
<polygon fill="white" stroke="black" points="110,-42.5 0,-42.5 0,-12.5 110,-12.5 110,-42.5"/>
<text text-anchor="start" x="8" y="-30.5" font-family="Helvetica,sans-Serif" font-size="10.00">Hardware Abstraction</text>
<text text-anchor="middle" x="55" y="-19.5" font-family="Helvetica,sans-Serif" font-size="10.00"> Layer</text>
</a>
</g>
</g>
<!-- Node1 -->
<g id="node2" class="node">
<title>Node1</title>
<g id="a_node2"><a xlink:title=" ">
<polygon fill="#bfbfbf" stroke="black" points="261,-37 146,-37 146,-18 261,-18 261,-37"/>
<text text-anchor="middle" x="203.5" y="-25" font-family="Helvetica,sans-Serif" font-size="10.00">Special Circuit Signals</text>
</a>
</g>
</g>
<!-- Node2&#45;&gt;Node1 -->
<g id="edge1" class="edge">
<title>Node2&#45;&gt;Node1</title>
<path fill="none" stroke="black" d="M120.31,-27.5C128.75,-27.5 137.34,-27.5 145.64,-27.5"/>
<polygon fill="black" stroke="black" points="120.13,-24 110.13,-27.5 120.13,-31 120.13,-24"/>
</g>
<!-- Node4 -->
<g id="node3" class="node">
<title>Node4</title>
<g id="a_node3"><a xlink:href="a00450.html" target="_top" xlink:title="Assignment of microcontroller device specific chip&#45;resources to circuit functions and signals.">
<polygon fill="white" stroke="black" points="449,-56 297,-56 297,-37 449,-37 449,-56"/>
<text text-anchor="middle" x="373" y="-44" font-family="Helvetica,sans-Serif" font-size="10.00">Device Peripheral Assignments</text>
</a>
</g>
</g>
<!-- Node1&#45;&gt;Node4 -->
<g id="edge3" class="edge">
<title>Node1&#45;&gt;Node4</title>
<path fill="none" stroke="black" d="M271.33,-35.08C279.75,-36.04 288.41,-37.02 296.94,-37.99"/>
<polygon fill="black" stroke="black" points="271.54,-31.58 261.21,-33.93 270.75,-38.54 271.54,-31.58"/>
</g>
<!-- Node3 -->
<g id="node4" class="node">
<title>Node3</title>
<g id="a_node4"><a xlink:href="a00449.html" target="_top" xlink:title="Assignment of microcontroller device pins to circuit functions and signals.">
<polygon fill="white" stroke="black" points="439,-19 307,-19 307,0 439,0 439,-19"/>
<text text-anchor="middle" x="373" y="-7" font-family="Helvetica,sans-Serif" font-size="10.00">Device GPIO Assignments</text>
</a>
</g>
</g>
<!-- Node1&#45;&gt;Node3 -->
<g id="edge2" class="edge">
<title>Node1&#45;&gt;Node3</title>
<path fill="none" stroke="black" d="M271.37,-20.31C283.11,-19.05 295.3,-17.74 306.98,-16.49"/>
<polygon fill="black" stroke="black" points="270.78,-16.86 261.21,-21.41 271.52,-23.82 270.78,-16.86"/>
</g>
</g>
</svg>
