<?xml version="1.0" encoding="UTF-8" standalone="no"?>
<!DOCTYPE svg PUBLIC "-//W3C//DTD SVG 1.1//EN"
 "http://www.w3.org/Graphics/SVG/1.1/DTD/svg11.dtd">
<!-- Generated by graphviz version 2.44.1 (20200629.0846)
 -->
<!-- Title: Fault Monitor Application Layer Pages: 1 -->
<svg width="390pt" height="138pt"
 viewBox="0.00 0.00 390.00 138.00" xmlns="http://www.w3.org/2000/svg" xmlns:xlink="http://www.w3.org/1999/xlink">
<g id="graph0" class="graph" transform="scale(1 1) rotate(0) translate(4 134)">
<title>Fault Monitor Application Layer</title>
<polygon fill="white" stroke="transparent" points="-4,4 -4,-134 386,-134 386,4 -4,4"/>
<!-- Node3 -->
<g id="node1" class="node">
<title>Node3</title>
<g id="a_node1"><a xlink:href="a00453.html" target="_top" xlink:title="Public functions of the first application layer task.">
<polygon fill="white" stroke="black" points="380,-130 291,-130 291,-111 380,-111 380,-130"/>
<text text-anchor="middle" x="335.5" y="-118" font-family="Helvetica,sans-Serif" font-size="10.00">Public Functions</text>
</a>
</g>
</g>
<!-- Node6 -->
<g id="node2" class="node">
<title>Node6</title>
<g id="a_node2"><a xlink:href="a00456.html" target="_top" xlink:title="Private properties of the first application layer task.">
<polygon fill="white" stroke="black" points="382,-93 289,-93 289,-74 382,-74 382,-93"/>
<text text-anchor="middle" x="335.5" y="-81" font-family="Helvetica,sans-Serif" font-size="10.00">Private Properties</text>
</a>
</g>
</g>
<!-- Node1 -->
<g id="node3" class="node">
<title>Node1</title>
<g id="a_node3"><a xlink:title=" ">
<polygon fill="#bfbfbf" stroke="black" points="253,-79.5 128,-79.5 128,-49.5 253,-49.5 253,-79.5"/>
<text text-anchor="start" x="136" y="-67.5" font-family="Helvetica,sans-Serif" font-size="10.00">Fault Monitor Application</text>
<text text-anchor="middle" x="190.5" y="-56.5" font-family="Helvetica,sans-Serif" font-size="10.00"> Layer</text>
</a>
</g>
</g>
<!-- Node1&#45;&gt;Node3 -->
<g id="edge2" class="edge">
<title>Node1&#45;&gt;Node3</title>
<path fill="none" stroke="black" d="M239.36,-83.24C263.07,-92.53 290.67,-103.34 310.02,-110.92"/>
<polygon fill="black" stroke="black" points="240.41,-79.89 229.82,-79.51 237.86,-86.41 240.41,-79.89"/>
</g>
<!-- Node1&#45;&gt;Node6 -->
<g id="edge5" class="edge">
<title>Node1&#45;&gt;Node6</title>
<path fill="none" stroke="black" d="M263.51,-74.07C272.15,-75.22 280.78,-76.36 288.9,-77.44"/>
<polygon fill="black" stroke="black" points="263.76,-70.57 253.39,-72.72 262.84,-77.51 263.76,-70.57"/>
</g>
<!-- Node4 -->
<g id="node4" class="node">
<title>Node4</title>
<g id="a_node4"><a xlink:href="a00454.html" target="_top" xlink:title="Public properties of the first application layer task.">
<polygon fill="white" stroke="black" points="381,-56 290,-56 290,-37 381,-37 381,-56"/>
<text text-anchor="middle" x="335.5" y="-44" font-family="Helvetica,sans-Serif" font-size="10.00">Public Properties</text>
</a>
</g>
</g>
<!-- Node1&#45;&gt;Node4 -->
<g id="edge3" class="edge">
<title>Node1&#45;&gt;Node4</title>
<path fill="none" stroke="black" d="M263.48,-55.44C272.43,-54.31 281.38,-53.19 289.75,-52.13"/>
<polygon fill="black" stroke="black" points="262.87,-51.99 253.39,-56.71 263.75,-58.93 262.87,-51.99"/>
</g>
<!-- Node5 -->
<g id="node6" class="node">
<title>Node5</title>
<g id="a_node6"><a xlink:href="a00455.html" target="_top" xlink:title="Private functions of the first application layer task.">
<polygon fill="white" stroke="black" points="381.5,-19 289.5,-19 289.5,0 381.5,0 381.5,-19"/>
<text text-anchor="middle" x="335.5" y="-7" font-family="Helvetica,sans-Serif" font-size="10.00">Private Functions</text>
</a>
</g>
</g>
<!-- Node1&#45;&gt;Node5 -->
<g id="edge4" class="edge">
<title>Node1&#45;&gt;Node5</title>
<path fill="none" stroke="black" d="M239.98,-45.86C263.3,-36.89 290.28,-26.51 309.43,-19.14"/>
<polygon fill="black" stroke="black" points="238.65,-42.61 230.58,-49.47 241.17,-49.15 238.65,-42.61"/>
</g>
<!-- Node2 -->
<g id="node5" class="node">
<title>Node2</title>
<g id="a_node5"><a xlink:href="a00566.html" target="_top" xlink:title="Task Layer.">
<polygon fill="white" stroke="black" points="92,-74 0,-74 0,-55 92,-55 92,-74"/>
<text text-anchor="middle" x="46" y="-62" font-family="Helvetica,sans-Serif" font-size="10.00">Application Layer</text>
</a>
</g>
</g>
<!-- Node2&#45;&gt;Node1 -->
<g id="edge1" class="edge">
<title>Node2&#45;&gt;Node1</title>
<path fill="none" stroke="black" d="M102.14,-64.5C110.54,-64.5 119.25,-64.5 127.77,-64.5"/>
<polygon fill="black" stroke="black" points="102.09,-61 92.09,-64.5 102.09,-68 102.09,-61"/>
</g>
</g>
</svg>
