<?xml version="1.0" encoding="UTF-8" standalone="no"?>
<!DOCTYPE svg PUBLIC "-//W3C//DTD SVG 1.1//EN"
 "http://www.w3.org/Graphics/SVG/1.1/DTD/svg11.dtd">
<!-- Generated by graphviz version 2.44.1 (20200629.0846)
 -->
<!-- Title: Temperature Feedback Pages: 1 -->
<svg width="439pt" height="101pt"
 viewBox="0.00 0.00 439.00 101.00" xmlns="http://www.w3.org/2000/svg" xmlns:xlink="http://www.w3.org/1999/xlink">
<g id="graph0" class="graph" transform="scale(1 1) rotate(0) translate(4 97)">
<title>Temperature Feedback</title>
<polygon fill="white" stroke="transparent" points="-4,4 -4,-97 435,-97 435,4 -4,4"/>
<!-- Node2 -->
<g id="node1" class="node">
<title>Node2</title>
<g id="a_node1"><a xlink:href="a00565.html" target="_top" xlink:title="Hardware Abstraction Layer Declarations.">
<polygon fill="white" stroke="black" points="110,-61.5 0,-61.5 0,-31.5 110,-31.5 110,-61.5"/>
<text text-anchor="start" x="8" y="-49.5" font-family="Helvetica,sans-Serif" font-size="10.00">Hardware Abstraction</text>
<text text-anchor="middle" x="55" y="-38.5" font-family="Helvetica,sans-Serif" font-size="10.00"> Layer</text>
</a>
</g>
</g>
<!-- Node1 -->
<g id="node4" class="node">
<title>Node1</title>
<g id="a_node4"><a xlink:title="Declaration of temperature feedback parameters.">
<polygon fill="#bfbfbf" stroke="black" points="262,-56 146,-56 146,-37 262,-37 262,-56"/>
<text text-anchor="middle" x="204" y="-44" font-family="Helvetica,sans-Serif" font-size="10.00">Temperature Feedback</text>
</a>
</g>
</g>
<!-- Node2&#45;&gt;Node1 -->
<g id="edge1" class="edge">
<title>Node2&#45;&gt;Node1</title>
<path fill="none" stroke="black" d="M120.53,-46.5C129,-46.5 137.62,-46.5 145.95,-46.5"/>
<polygon fill="black" stroke="black" points="120.32,-43 110.32,-46.5 120.32,-50 120.32,-43"/>
</g>
<!-- Node4 -->
<g id="node2" class="node">
<title>Node4</title>
<g id="a_node2"><a xlink:href="a00438.html" target="_top" xlink:title="Conversion macros for user&#45;declarations of temperature feedback parameters.">
<polygon fill="white" stroke="black" points="414,-93 315,-93 315,-74 414,-74 414,-93"/>
<text text-anchor="middle" x="364.5" y="-81" font-family="Helvetica,sans-Serif" font-size="10.00">Conversion Macros</text>
</a>
</g>
</g>
<!-- Node5 -->
<g id="node3" class="node">
<title>Node5</title>
<g id="a_node3"><a xlink:href="a00439.html" target="_top" xlink:title="Device analog input pin, register and interrupt vector assignments of temperature feedback signal(s)">
<polygon fill="white" stroke="black" points="431,-56 298,-56 298,-37 431,-37 431,-56"/>
<text text-anchor="middle" x="364.5" y="-44" font-family="Helvetica,sans-Serif" font-size="10.00">Microcontroller Abstraction</text>
</a>
</g>
</g>
<!-- Node1&#45;&gt;Node4 -->
<g id="edge3" class="edge">
<title>Node1&#45;&gt;Node4</title>
<path fill="none" stroke="black" d="M255.79,-58.36C277.36,-63.39 302.18,-69.18 322.55,-73.94"/>
<polygon fill="black" stroke="black" points="256.35,-54.89 245.82,-56.03 254.76,-61.71 256.35,-54.89"/>
</g>
<!-- Node1&#45;&gt;Node5 -->
<g id="edge4" class="edge">
<title>Node1&#45;&gt;Node5</title>
<path fill="none" stroke="black" d="M272.36,-46.5C280.77,-46.5 289.36,-46.5 297.74,-46.5"/>
<polygon fill="black" stroke="black" points="272.22,-43 262.22,-46.5 272.22,-50 272.22,-43"/>
</g>
<!-- Node3 -->
<g id="node5" class="node">
<title>Node3</title>
<g id="a_node5"><a xlink:href="a00437.html" target="_top" xlink:title="User&#45;declaration of temperature feedback parameters using physical quantities.">
<polygon fill="white" stroke="black" points="402.5,-19 326.5,-19 326.5,0 402.5,0 402.5,-19"/>
<text text-anchor="middle" x="364.5" y="-7" font-family="Helvetica,sans-Serif" font-size="10.00">User Settings</text>
</a>
</g>
</g>
<!-- Node1&#45;&gt;Node3 -->
<g id="edge2" class="edge">
<title>Node1&#45;&gt;Node3</title>
<path fill="none" stroke="black" d="M255.73,-34.66C278.68,-29.3 305.3,-23.09 326.35,-18.17"/>
<polygon fill="black" stroke="black" points="254.76,-31.29 245.82,-36.97 256.35,-38.11 254.76,-31.29"/>
</g>
</g>
</svg>
