<?xml version="1.0" encoding="UTF-8" standalone="no"?>
<!DOCTYPE svg PUBLIC "-//W3C//DTD SVG 1.1//EN"
 "http://www.w3.org/Graphics/SVG/1.1/DTD/svg11.dtd">
<!-- Generated by graphviz version 2.44.1 (20200629.0846)
 -->
<!-- Title: Public Properties Pages: 1 -->
<svg width="419pt" height="101pt"
 viewBox="0.00 0.00 419.00 101.00" xmlns="http://www.w3.org/2000/svg" xmlns:xlink="http://www.w3.org/1999/xlink">
<g id="graph0" class="graph" transform="scale(1 1) rotate(0) translate(4 97)">
<title>Public Properties</title>
<polygon fill="white" stroke="transparent" points="-4,4 -4,-97 415,-97 415,4 -4,4"/>
<!-- Node1 -->
<g id="node1" class="node">
<title>Node1</title>
<g id="a_node1"><a xlink:title="Public properties of the second library layer.">
<polygon fill="#bfbfbf" stroke="black" points="261,-56 170,-56 170,-37 261,-37 261,-56"/>
<text text-anchor="middle" x="215.5" y="-44" font-family="Helvetica,sans-Serif" font-size="10.00">Public Properties</text>
</a>
</g>
</g>
<!-- Node3 -->
<g id="node2" class="node">
<title>Node3</title>
<g id="a_node2"><a xlink:href="a00498.html" target="_top" xlink:title=" ">
<polygon fill="white" stroke="black" points="411,-93 297,-93 297,-74 411,-74 411,-93"/>
<text text-anchor="middle" x="354" y="-81" font-family="Helvetica,sans-Serif" font-size="10.00">Variables &amp; Constants</text>
</a>
</g>
</g>
<!-- Node1&#45;&gt;Node3 -->
<g id="edge2" class="edge">
<title>Node1&#45;&gt;Node3</title>
<path fill="none" stroke="black" d="M261.47,-58.69C279.67,-63.62 300.38,-69.24 317.49,-73.88"/>
<polygon fill="black" stroke="black" points="262.22,-55.27 251.65,-56.03 260.39,-62.02 262.22,-55.27"/>
</g>
<!-- Node5 -->
<g id="node3" class="node">
<title>Node5</title>
<g id="a_node3"><a xlink:href="a00500.html" target="_top" xlink:title=" ">
<polygon fill="white" stroke="black" points="405.5,-56 302.5,-56 302.5,-37 405.5,-37 405.5,-56"/>
<text text-anchor="middle" x="354" y="-44" font-family="Helvetica,sans-Serif" font-size="10.00">Defines and Macros</text>
</a>
</g>
</g>
<!-- Node1&#45;&gt;Node5 -->
<g id="edge4" class="edge">
<title>Node1&#45;&gt;Node5</title>
<path fill="none" stroke="black" d="M271.2,-46.5C281.39,-46.5 291.99,-46.5 302.05,-46.5"/>
<polygon fill="black" stroke="black" points="271.2,-43 261.2,-46.5 271.2,-50 271.2,-43"/>
</g>
<!-- Node4 -->
<g id="node4" class="node">
<title>Node4</title>
<g id="a_node4"><a xlink:href="a00499.html" target="_top" xlink:title=" ">
<polygon fill="white" stroke="black" points="387,-19 321,-19 321,0 387,0 387,-19"/>
<text text-anchor="middle" x="354" y="-7" font-family="Helvetica,sans-Serif" font-size="10.00">Data Types</text>
</a>
</g>
</g>
<!-- Node1&#45;&gt;Node4 -->
<g id="edge3" class="edge">
<title>Node1&#45;&gt;Node4</title>
<path fill="none" stroke="black" d="M261.49,-34.31C280.86,-29.05 303.08,-23.03 320.77,-18.24"/>
<polygon fill="black" stroke="black" points="260.39,-30.98 251.65,-36.97 262.22,-37.73 260.39,-30.98"/>
</g>
<!-- Node2 -->
<g id="node5" class="node">
<title>Node2</title>
<g id="a_node5"><a xlink:href="a00495.html" target="_top" xlink:title=" ">
<polygon fill="white" stroke="black" points="134,-56 0,-56 0,-37 134,-37 134,-56"/>
<text text-anchor="middle" x="67" y="-44" font-family="Helvetica,sans-Serif" font-size="10.00">Buck Converter Library API</text>
</a>
</g>
</g>
<!-- Node2&#45;&gt;Node1 -->
<g id="edge1" class="edge">
<title>Node2&#45;&gt;Node1</title>
<path fill="none" stroke="black" d="M144.51,-46.5C153.14,-46.5 161.7,-46.5 169.72,-46.5"/>
<polygon fill="black" stroke="black" points="144.39,-43 134.39,-46.5 144.39,-50 144.39,-43"/>
</g>
</g>
</svg>
