<?xml version="1.0" encoding="UTF-8" standalone="no"?>
<!DOCTYPE svg PUBLIC "-//W3C//DTD SVG 1.1//EN"
 "http://www.w3.org/Graphics/SVG/1.1/DTD/svg11.dtd">
<!-- Generated by graphviz version 2.44.1 (20200629.0846)
 -->
<!-- Title: Adaptive Gain Control Feed Forward Pages: 1 -->
<svg width="399pt" height="64pt"
 viewBox="0.00 0.00 399.00 64.00" xmlns="http://www.w3.org/2000/svg" xmlns:xlink="http://www.w3.org/1999/xlink">
<g id="graph0" class="graph" transform="scale(1 1) rotate(0) translate(4 60)">
<title>Adaptive Gain Control Feed Forward</title>
<polygon fill="white" stroke="transparent" points="-4,4 -4,-60 395,-60 395,4 -4,4"/>
<!-- Node2 -->
<g id="node1" class="node">
<title>Node2</title>
<g id="a_node1"><a xlink:href="a00565.html" target="_top" xlink:title="Hardware Abstraction Layer Declarations.">
<polygon fill="white" stroke="black" points="110,-42.5 0,-42.5 0,-12.5 110,-12.5 110,-42.5"/>
<text text-anchor="start" x="8" y="-30.5" font-family="Helvetica,sans-Serif" font-size="10.00">Hardware Abstraction</text>
<text text-anchor="middle" x="55" y="-19.5" font-family="Helvetica,sans-Serif" font-size="10.00"> Layer</text>
</a>
</g>
</g>
<!-- Node1 -->
<g id="node2" class="node">
<title>Node1</title>
<g id="a_node2"><a xlink:title="Declaration of macros calculating additional parameters for Adaptive Gain Modulation.">
<polygon fill="#bfbfbf" stroke="black" points="256,-42.5 146,-42.5 146,-12.5 256,-12.5 256,-42.5"/>
<text text-anchor="start" x="154" y="-30.5" font-family="Helvetica,sans-Serif" font-size="10.00">Adaptive Gain Control</text>
<text text-anchor="middle" x="201" y="-19.5" font-family="Helvetica,sans-Serif" font-size="10.00"> Feed Forward</text>
</a>
</g>
</g>
<!-- Node2&#45;&gt;Node1 -->
<g id="edge1" class="edge">
<title>Node2&#45;&gt;Node1</title>
<path fill="none" stroke="black" d="M120.27,-27.5C128.75,-27.5 137.38,-27.5 145.67,-27.5"/>
<polygon fill="black" stroke="black" points="120.03,-24 110.03,-27.5 120.03,-31 120.03,-24"/>
</g>
<!-- Node4 -->
<g id="node3" class="node">
<title>Node4</title>
<g id="a_node3"><a xlink:href="a00443.html" target="_top" xlink:title="Conversion macros for user&#45;declarations of Adaptive Gain Modulation parameters.">
<polygon fill="white" stroke="black" points="391,-56 292,-56 292,-37 391,-37 391,-56"/>
<text text-anchor="middle" x="341.5" y="-44" font-family="Helvetica,sans-Serif" font-size="10.00">Conversion Macros</text>
</a>
</g>
</g>
<!-- Node1&#45;&gt;Node4 -->
<g id="edge3" class="edge">
<title>Node1&#45;&gt;Node4</title>
<path fill="none" stroke="black" d="M266.3,-36.32C274.85,-37.49 283.49,-38.68 291.72,-39.81"/>
<polygon fill="black" stroke="black" points="266.72,-32.85 256.34,-34.95 265.77,-39.78 266.72,-32.85"/>
</g>
<!-- Node3 -->
<g id="node4" class="node">
<title>Node3</title>
<g id="a_node4"><a xlink:href="a00441.html" target="_top" xlink:title="User&#45;declaration of Adaptive Gain Modulation parameters using physical quantities.">
<polygon fill="white" stroke="black" points="379.5,-19 303.5,-19 303.5,0 379.5,0 379.5,-19"/>
<text text-anchor="middle" x="341.5" y="-7" font-family="Helvetica,sans-Serif" font-size="10.00">User Settings</text>
</a>
</g>
</g>
<!-- Node1&#45;&gt;Node3 -->
<g id="edge2" class="edge">
<title>Node1&#45;&gt;Node3</title>
<path fill="none" stroke="black" d="M266.43,-19.13C279.1,-17.48 292,-15.8 303.4,-14.32"/>
<polygon fill="black" stroke="black" points="265.81,-15.68 256.34,-20.44 266.71,-22.62 265.81,-15.68"/>
</g>
</g>
</svg>
