<?xml version="1.0" encoding="UTF-8" standalone="no"?>
<!DOCTYPE svg PUBLIC "-//W3C//DTD SVG 1.1//EN"
 "http://www.w3.org/Graphics/SVG/1.1/DTD/svg11.dtd">
<!-- Generated by graphviz version 2.44.1 (20200629.0846)
 -->
<!-- Title: Buck Converter Library API Pages: 1 -->
<svg width="422pt" height="101pt"
 viewBox="0.00 0.00 422.00 101.00" xmlns="http://www.w3.org/2000/svg" xmlns:xlink="http://www.w3.org/1999/xlink">
<g id="graph0" class="graph" transform="scale(1 1) rotate(0) translate(4 97)">
<title>Buck Converter Library API</title>
<polygon fill="white" stroke="transparent" points="-4,4 -4,-97 418,-97 418,4 -4,4"/>
<!-- Node4 -->
<g id="node1" class="node">
<title>Node4</title>
<g id="a_node1"><a xlink:href="a00497.html" target="_top" xlink:title="Public properties of the second library layer.">
<polygon fill="white" stroke="black" points="413,-93 322,-93 322,-74 413,-74 413,-93"/>
<text text-anchor="middle" x="367.5" y="-81" font-family="Helvetica,sans-Serif" font-size="10.00">Public Properties</text>
</a>
</g>
</g>
<!-- Node3 -->
<g id="node2" class="node">
<title>Node3</title>
<g id="a_node2"><a xlink:href="a00496.html" target="_top" xlink:title="Public functions of the second library layer.">
<polygon fill="white" stroke="black" points="412,-56 323,-56 323,-37 412,-37 412,-56"/>
<text text-anchor="middle" x="367.5" y="-44" font-family="Helvetica,sans-Serif" font-size="10.00">Public Functions</text>
</a>
</g>
</g>
<!-- Node5 -->
<g id="node3" class="node">
<title>Node5</title>
<g id="a_node3"><a xlink:href="a00501.html" target="_top" xlink:title="Private properties of the second library layer.">
<polygon fill="white" stroke="black" points="414,-19 321,-19 321,0 414,0 414,-19"/>
<text text-anchor="middle" x="367.5" y="-7" font-family="Helvetica,sans-Serif" font-size="10.00">Private Properties</text>
</a>
</g>
</g>
<!-- Node2 -->
<g id="node4" class="node">
<title>Node2</title>
<g id="a_node4"><a xlink:href="a00494.html" target="_top" xlink:title=" ">
<polygon fill="white" stroke="black" points="115,-56 0,-56 0,-37 115,-37 115,-56"/>
<text text-anchor="middle" x="57.5" y="-44" font-family="Helvetica,sans-Serif" font-size="10.00">Buck Converter Library</text>
</a>
</g>
</g>
<!-- Node1 -->
<g id="node5" class="node">
<title>Node1</title>
<g id="a_node5"><a xlink:title=" ">
<polygon fill="#bfbfbf" stroke="black" points="285,-56 151,-56 151,-37 285,-37 285,-56"/>
<text text-anchor="middle" x="218" y="-44" font-family="Helvetica,sans-Serif" font-size="10.00">Buck Converter Library API</text>
</a>
</g>
</g>
<!-- Node2&#45;&gt;Node1 -->
<g id="edge1" class="edge">
<title>Node2&#45;&gt;Node1</title>
<path fill="none" stroke="black" d="M125.44,-46.5C133.87,-46.5 142.49,-46.5 150.9,-46.5"/>
<polygon fill="black" stroke="black" points="125.27,-43 115.27,-46.5 125.27,-50 125.27,-43"/>
</g>
<!-- Node1&#45;&gt;Node4 -->
<g id="edge3" class="edge">
<title>Node1&#45;&gt;Node4</title>
<path fill="none" stroke="black" d="M266.81,-58.49C286.76,-63.5 309.6,-69.23 328.39,-73.94"/>
<polygon fill="black" stroke="black" points="267.54,-55.07 256.98,-56.03 265.83,-61.86 267.54,-55.07"/>
</g>
<!-- Node1&#45;&gt;Node3 -->
<g id="edge2" class="edge">
<title>Node1&#45;&gt;Node3</title>
<path fill="none" stroke="black" d="M295.56,-46.5C304.92,-46.5 314.22,-46.5 322.85,-46.5"/>
<polygon fill="black" stroke="black" points="295.41,-43 285.41,-46.5 295.41,-50 295.41,-43"/>
</g>
<!-- Node1&#45;&gt;Node5 -->
<g id="edge4" class="edge">
<title>Node1&#45;&gt;Node5</title>
<path fill="none" stroke="black" d="M266.81,-34.51C286.76,-29.5 309.6,-23.77 328.39,-19.06"/>
<polygon fill="black" stroke="black" points="265.83,-31.14 256.98,-36.97 267.54,-37.93 265.83,-31.14"/>
</g>
</g>
</svg>
