<?xml version="1.0" encoding="UTF-8" standalone="no"?>
<!DOCTYPE svg PUBLIC "-//W3C//DTD SVG 1.1//EN"
 "http://www.w3.org/Graphics/SVG/1.1/DTD/svg11.dtd">
<!-- Generated by graphviz version 2.44.1 (20200629.0846)
 -->
<!-- Title: Buck Converter Library Pages: 1 -->
<svg width="433pt" height="76pt"
 viewBox="0.00 0.00 433.00 75.50" xmlns="http://www.w3.org/2000/svg" xmlns:xlink="http://www.w3.org/1999/xlink">
<g id="graph0" class="graph" transform="scale(1 1) rotate(0) translate(4 71.5)">
<title>Buck Converter Library</title>
<polygon fill="white" stroke="transparent" points="-4,4 -4,-71.5 429,-71.5 429,4 -4,4"/>
<!-- Node1 -->
<g id="node1" class="node">
<title>Node1</title>
<g id="a_node1"><a xlink:title=" ">
<polygon fill="#bfbfbf" stroke="black" points="255,-40 140,-40 140,-21 255,-21 255,-40"/>
<text text-anchor="middle" x="197.5" y="-28" font-family="Helvetica,sans-Serif" font-size="10.00">Buck Converter Library</text>
</a>
</g>
</g>
<!-- Node4 -->
<g id="node2" class="node">
<title>Node4</title>
<g id="a_node2"><a xlink:href="a00505.html" target="_top" xlink:title=" ">
<polygon fill="white" stroke="black" points="415.5,-67.5 300.5,-67.5 300.5,-37.5 415.5,-37.5 415.5,-67.5"/>
<text text-anchor="start" x="308.5" y="-55.5" font-family="Helvetica,sans-Serif" font-size="10.00">Buck Converter Library</text>
<text text-anchor="middle" x="358" y="-44.5" font-family="Helvetica,sans-Serif" font-size="10.00"> Modules</text>
</a>
</g>
</g>
<!-- Node1&#45;&gt;Node4 -->
<g id="edge3" class="edge">
<title>Node1&#45;&gt;Node4</title>
<path fill="none" stroke="black" d="M265.38,-39.78C277.02,-41.4 289.02,-43.06 300.36,-44.64"/>
<polygon fill="black" stroke="black" points="265.66,-36.29 255.27,-38.38 264.7,-43.22 265.66,-36.29"/>
</g>
<!-- Node3 -->
<g id="node4" class="node">
<title>Node3</title>
<g id="a_node4"><a xlink:href="a00495.html" target="_top" xlink:title=" ">
<polygon fill="white" stroke="black" points="425,-19 291,-19 291,0 425,0 425,-19"/>
<text text-anchor="middle" x="358" y="-7" font-family="Helvetica,sans-Serif" font-size="10.00">Buck Converter Library API</text>
</a>
</g>
</g>
<!-- Node1&#45;&gt;Node3 -->
<g id="edge2" class="edge">
<title>Node1&#45;&gt;Node3</title>
<path fill="none" stroke="black" d="M265.44,-21.63C273.87,-20.51 282.49,-19.37 290.9,-18.26"/>
<polygon fill="black" stroke="black" points="264.73,-18.19 255.27,-22.98 265.65,-25.13 264.73,-18.19"/>
</g>
<!-- Node2 -->
<g id="node3" class="node">
<title>Node2</title>
<g id="a_node3"><a xlink:href="a00567.html" target="_top" xlink:title="Generic Device Driver Layer.">
<polygon fill="white" stroke="black" points="104,-45.5 0,-45.5 0,-15.5 104,-15.5 104,-45.5"/>
<text text-anchor="start" x="8" y="-33.5" font-family="Helvetica,sans-Serif" font-size="10.00">Device Driver Library</text>
<text text-anchor="middle" x="52" y="-22.5" font-family="Helvetica,sans-Serif" font-size="10.00"> Layer</text>
</a>
</g>
</g>
<!-- Node2&#45;&gt;Node1 -->
<g id="edge1" class="edge">
<title>Node2&#45;&gt;Node1</title>
<path fill="none" stroke="black" d="M114.46,-30.5C122.81,-30.5 131.35,-30.5 139.62,-30.5"/>
<polygon fill="black" stroke="black" points="114.4,-27 104.4,-30.5 114.4,-34 114.4,-27"/>
</g>
</g>
</svg>
