<?xml version="1.0" encoding="UTF-8" standalone="no"?>
<!DOCTYPE svg PUBLIC "-//W3C//DTD SVG 1.1//EN"
 "http://www.w3.org/Graphics/SVG/1.1/DTD/svg11.dtd">
<!-- Generated by graphviz version 2.44.1 (20200629.0846)
 -->
<!-- Title: LC&#45;Display Library Pages: 1 -->
<svg width="373pt" height="138pt"
 viewBox="0.00 0.00 373.00 138.00" xmlns="http://www.w3.org/2000/svg" xmlns:xlink="http://www.w3.org/1999/xlink">
<g id="graph0" class="graph" transform="scale(1 1) rotate(0) translate(4 134)">
<title>LC&#45;Display Library</title>
<polygon fill="white" stroke="transparent" points="-4,4 -4,-134 369,-134 369,4 -4,4"/>
<!-- Node3 -->
<g id="node1" class="node">
<title>Node3</title>
<g id="a_node1"><a xlink:href="a00474.html" target="_top" xlink:title="Public functions of the LC display device driver library.">
<polygon fill="white" stroke="black" points="363,-130 274,-130 274,-111 363,-111 363,-130"/>
<text text-anchor="middle" x="318.5" y="-118" font-family="Helvetica,sans-Serif" font-size="10.00">Public Functions</text>
</a>
</g>
</g>
<!-- Node6 -->
<g id="node2" class="node">
<title>Node6</title>
<g id="a_node2"><a xlink:href="a00477.html" target="_top" xlink:title="Private properties of the LC display device driver library.">
<polygon fill="white" stroke="black" points="365,-93 272,-93 272,-74 365,-74 365,-93"/>
<text text-anchor="middle" x="318.5" y="-81" font-family="Helvetica,sans-Serif" font-size="10.00">Private Properties</text>
</a>
</g>
</g>
<!-- Node1 -->
<g id="node3" class="node">
<title>Node1</title>
<g id="a_node3"><a xlink:title=" ">
<polygon fill="#bfbfbf" stroke="black" points="236,-74 140,-74 140,-55 236,-55 236,-74"/>
<text text-anchor="middle" x="188" y="-62" font-family="Helvetica,sans-Serif" font-size="10.00">LC&#45;Display Library</text>
</a>
</g>
</g>
<!-- Node1&#45;&gt;Node3 -->
<g id="edge2" class="edge">
<title>Node1&#45;&gt;Node3</title>
<path fill="none" stroke="black" d="M218.26,-78.35C234.08,-85.73 254.01,-94.83 272,-102.5 278.56,-105.3 285.72,-108.2 292.37,-110.83"/>
<polygon fill="black" stroke="black" points="219.54,-75.08 208.99,-74.01 216.57,-81.42 219.54,-75.08"/>
</g>
<!-- Node1&#45;&gt;Node6 -->
<g id="edge5" class="edge">
<title>Node1&#45;&gt;Node6</title>
<path fill="none" stroke="black" d="M246.06,-72.94C254.63,-74.2 263.38,-75.5 271.67,-76.72"/>
<polygon fill="black" stroke="black" points="246.52,-69.47 236.12,-71.47 245.5,-76.39 246.52,-69.47"/>
</g>
<!-- Node4 -->
<g id="node4" class="node">
<title>Node4</title>
<g id="a_node4"><a xlink:href="a00475.html" target="_top" xlink:title="Public properties of the LC display device driver library.">
<polygon fill="white" stroke="black" points="364,-56 273,-56 273,-37 364,-37 364,-56"/>
<text text-anchor="middle" x="318.5" y="-44" font-family="Helvetica,sans-Serif" font-size="10.00">Public Properties</text>
</a>
</g>
</g>
<!-- Node1&#45;&gt;Node4 -->
<g id="edge3" class="edge">
<title>Node1&#45;&gt;Node4</title>
<path fill="none" stroke="black" d="M246.15,-56.5C255.13,-55.24 264.31,-53.95 272.95,-52.74"/>
<polygon fill="black" stroke="black" points="245.54,-53.05 236.12,-57.9 246.51,-59.98 245.54,-53.05"/>
</g>
<!-- Node5 -->
<g id="node5" class="node">
<title>Node5</title>
<g id="a_node5"><a xlink:href="a00476.html" target="_top" xlink:title="Private functions of the LC display device driver library.">
<polygon fill="white" stroke="black" points="364.5,-19 272.5,-19 272.5,0 364.5,0 364.5,-19"/>
<text text-anchor="middle" x="318.5" y="-7" font-family="Helvetica,sans-Serif" font-size="10.00">Private Functions</text>
</a>
</g>
</g>
<!-- Node1&#45;&gt;Node5 -->
<g id="edge4" class="edge">
<title>Node1&#45;&gt;Node5</title>
<path fill="none" stroke="black" d="M218.93,-50.79C234.66,-43.68 254.3,-34.94 272,-27.5 278.73,-24.67 286.08,-21.71 292.86,-19.02"/>
<polygon fill="black" stroke="black" points="217.36,-47.66 209.7,-54.98 220.25,-54.03 217.36,-47.66"/>
</g>
<!-- Node2 -->
<g id="node6" class="node">
<title>Node2</title>
<g id="a_node6"><a xlink:href="a00567.html" target="_top" xlink:title="Generic Device Driver Layer.">
<polygon fill="white" stroke="black" points="104,-79.5 0,-79.5 0,-49.5 104,-49.5 104,-79.5"/>
<text text-anchor="start" x="8" y="-67.5" font-family="Helvetica,sans-Serif" font-size="10.00">Device Driver Library</text>
<text text-anchor="middle" x="52" y="-56.5" font-family="Helvetica,sans-Serif" font-size="10.00"> Layer</text>
</a>
</g>
</g>
<!-- Node2&#45;&gt;Node1 -->
<g id="edge1" class="edge">
<title>Node2&#45;&gt;Node1</title>
<path fill="none" stroke="black" d="M114.31,-64.5C122.81,-64.5 131.43,-64.5 139.63,-64.5"/>
<polygon fill="black" stroke="black" points="114.04,-61 104.04,-64.5 114.04,-68 114.04,-61"/>
</g>
</g>
</svg>
