<?xml version="1.0" encoding="UTF-8" standalone="no"?>
<!DOCTYPE svg PUBLIC "-//W3C//DTD SVG 1.1//EN"
 "http://www.w3.org/Graphics/SVG/1.1/DTD/svg11.dtd">
<!-- Generated by graphviz version 2.44.1 (20200629.0846)
 -->
<!-- Title: Microcontroller Abstraction Pages: 1 -->
<svg width="376pt" height="27pt"
 viewBox="0.00 0.00 376.00 27.00" xmlns="http://www.w3.org/2000/svg" xmlns:xlink="http://www.w3.org/1999/xlink">
<g id="graph0" class="graph" transform="scale(1 1) rotate(0) translate(4 23)">
<title>Microcontroller Abstraction</title>
<polygon fill="white" stroke="transparent" points="-4,4 -4,-23 372,-23 372,4 -4,4"/>
<!-- Node3 -->
<g id="node1" class="node">
<title>Node3</title>
<g id="a_node1"><a xlink:href="a00414.html" target="_top" xlink:title="PWM peripheral output pins, control signals and register assignments used to drive the buck converter...">
<polygon fill="white" stroke="black" points="368,-19 285,-19 285,0 368,0 368,-19"/>
<text text-anchor="middle" x="326.5" y="-7" font-family="Helvetica,sans-Serif" font-size="10.00">Buck Converter</text>
</a>
</g>
</g>
<!-- Node1 -->
<g id="node2" class="node">
<title>Node1</title>
<g id="a_node2"><a xlink:title="PWM peripheral output pins, control signals and register assignments.">
<polygon fill="#bfbfbf" stroke="black" points="249,-19 116,-19 116,0 249,0 249,-19"/>
<text text-anchor="middle" x="182.5" y="-7" font-family="Helvetica,sans-Serif" font-size="10.00">Microcontroller Abstraction</text>
</a>
</g>
</g>
<!-- Node1&#45;&gt;Node3 -->
<g id="edge2" class="edge">
<title>Node1&#45;&gt;Node3</title>
<path fill="none" stroke="black" d="M259.13,-9.5C268.01,-9.5 276.79,-9.5 284.91,-9.5"/>
<polygon fill="black" stroke="black" points="259.1,-6 249.1,-9.5 259.1,-13 259.1,-6"/>
</g>
<!-- Node2 -->
<g id="node3" class="node">
<title>Node2</title>
<g id="a_node3"><a xlink:href="a00408.html" target="_top" xlink:title="Declaration of fundamental PWM parameters.">
<polygon fill="white" stroke="black" points="80,-19 0,-19 0,0 80,0 80,-19"/>
<text text-anchor="middle" x="40" y="-7" font-family="Helvetica,sans-Serif" font-size="10.00">PWM Settings</text>
</a>
</g>
</g>
<!-- Node2&#45;&gt;Node1 -->
<g id="edge1" class="edge">
<title>Node2&#45;&gt;Node1</title>
<path fill="none" stroke="black" d="M90.35,-9.5C98.62,-9.5 107.32,-9.5 115.93,-9.5"/>
<polygon fill="black" stroke="black" points="90.14,-6 80.14,-9.5 90.14,-13 90.14,-6"/>
</g>
</g>
</svg>
