<?xml version="1.0" encoding="UTF-8" standalone="no"?>
<!DOCTYPE svg PUBLIC "-//W3C//DTD SVG 1.1//EN"
 "http://www.w3.org/Graphics/SVG/1.1/DTD/svg11.dtd">
<!-- Generated by graphviz version 2.44.1 (20200629.0846)
 -->
<!-- Title: Debugging LED Application Layer Pages: 1 -->
<svg width="400pt" height="138pt"
 viewBox="0.00 0.00 400.00 138.00" xmlns="http://www.w3.org/2000/svg" xmlns:xlink="http://www.w3.org/1999/xlink">
<g id="graph0" class="graph" transform="scale(1 1) rotate(0) translate(4 134)">
<title>Debugging LED Application Layer</title>
<polygon fill="white" stroke="transparent" points="-4,4 -4,-134 396,-134 396,4 -4,4"/>
<!-- Node2 -->
<g id="node1" class="node">
<title>Node2</title>
<g id="a_node1"><a xlink:href="a00566.html" target="_top" xlink:title="Task Layer.">
<polygon fill="white" stroke="black" points="92,-74 0,-74 0,-55 92,-55 92,-74"/>
<text text-anchor="middle" x="46" y="-62" font-family="Helvetica,sans-Serif" font-size="10.00">Application Layer</text>
</a>
</g>
</g>
<!-- Node1 -->
<g id="node5" class="node">
<title>Node1</title>
<g id="a_node5"><a xlink:title=" ">
<polygon fill="#bfbfbf" stroke="black" points="263,-79.5 128,-79.5 128,-49.5 263,-49.5 263,-79.5"/>
<text text-anchor="start" x="136" y="-67.5" font-family="Helvetica,sans-Serif" font-size="10.00">Debugging LED Application</text>
<text text-anchor="middle" x="195.5" y="-56.5" font-family="Helvetica,sans-Serif" font-size="10.00"> Layer</text>
</a>
</g>
</g>
<!-- Node2&#45;&gt;Node1 -->
<g id="edge1" class="edge">
<title>Node2&#45;&gt;Node1</title>
<path fill="none" stroke="black" d="M102.14,-64.5C110.57,-64.5 119.35,-64.5 128,-64.5"/>
<polygon fill="black" stroke="black" points="102.06,-61 92.06,-64.5 102.06,-68 102.06,-61"/>
</g>
<!-- Node5 -->
<g id="node2" class="node">
<title>Node5</title>
<g id="a_node2"><a xlink:href="a00486.html" target="_top" xlink:title="Private functions of the application layer of the debugging LED task.">
<polygon fill="white" stroke="black" points="391.5,-130 299.5,-130 299.5,-111 391.5,-111 391.5,-130"/>
<text text-anchor="middle" x="345.5" y="-118" font-family="Helvetica,sans-Serif" font-size="10.00">Private Functions</text>
</a>
</g>
</g>
<!-- Node4 -->
<g id="node3" class="node">
<title>Node4</title>
<g id="a_node3"><a xlink:href="a00485.html" target="_top" xlink:title="Public properties of the application layer of the debugging LED task.">
<polygon fill="white" stroke="black" points="391,-93 300,-93 300,-74 391,-74 391,-93"/>
<text text-anchor="middle" x="345.5" y="-81" font-family="Helvetica,sans-Serif" font-size="10.00">Public Properties</text>
</a>
</g>
</g>
<!-- Node6 -->
<g id="node4" class="node">
<title>Node6</title>
<g id="a_node4"><a xlink:href="a00487.html" target="_top" xlink:title="Private properties of the application layer of the debugging LED task.">
<polygon fill="white" stroke="black" points="392,-56 299,-56 299,-37 392,-37 392,-56"/>
<text text-anchor="middle" x="345.5" y="-44" font-family="Helvetica,sans-Serif" font-size="10.00">Private Properties</text>
</a>
</g>
</g>
<!-- Node1&#45;&gt;Node5 -->
<g id="edge4" class="edge">
<title>Node1&#45;&gt;Node5</title>
<path fill="none" stroke="black" d="M245.71,-83.12C270.31,-92.43 299.05,-103.3 319.17,-110.92"/>
<polygon fill="black" stroke="black" points="246.75,-79.77 236.16,-79.51 244.28,-86.32 246.75,-79.77"/>
</g>
<!-- Node1&#45;&gt;Node4 -->
<g id="edge3" class="edge">
<title>Node1&#45;&gt;Node4</title>
<path fill="none" stroke="black" d="M273.08,-74.33C282.24,-75.51 291.35,-76.68 299.85,-77.77"/>
<polygon fill="black" stroke="black" points="273.5,-70.86 263.14,-73.06 272.61,-77.8 273.5,-70.86"/>
</g>
<!-- Node1&#45;&gt;Node6 -->
<g id="edge5" class="edge">
<title>Node1&#45;&gt;Node6</title>
<path fill="none" stroke="black" d="M273.12,-55.18C281.96,-54.11 290.75,-53.04 298.99,-52.04"/>
<polygon fill="black" stroke="black" points="272.64,-51.71 263.14,-56.4 273.49,-58.66 272.64,-51.71"/>
</g>
<!-- Node3 -->
<g id="node6" class="node">
<title>Node3</title>
<g id="a_node6"><a xlink:href="a00484.html" target="_top" xlink:title="Public functions of the application layer of the debugging LED task.">
<polygon fill="white" stroke="black" points="390,-19 301,-19 301,0 390,0 390,-19"/>
<text text-anchor="middle" x="345.5" y="-7" font-family="Helvetica,sans-Serif" font-size="10.00">Public Functions</text>
</a>
</g>
</g>
<!-- Node1&#45;&gt;Node3 -->
<g id="edge2" class="edge">
<title>Node1&#45;&gt;Node3</title>
<path fill="none" stroke="black" d="M246.35,-45.97C270.56,-36.98 298.64,-26.54 318.55,-19.14"/>
<polygon fill="black" stroke="black" points="245.1,-42.71 236.94,-49.47 247.53,-49.27 245.1,-42.71"/>
</g>
</g>
</svg>
