<?xml version="1.0" encoding="UTF-8" standalone="no"?>
<!DOCTYPE svg PUBLIC "-//W3C//DTD SVG 1.1//EN"
 "http://www.w3.org/Graphics/SVG/1.1/DTD/svg11.dtd">
<!-- Generated by graphviz version 2.44.1 (20200629.0846)
 -->
<!-- Title: drv_LcdInterface_SendCmd Pages: 1 -->
<svg width="984pt" height="107pt"
 viewBox="0.00 0.00 984.00 107.00" xmlns="http://www.w3.org/2000/svg" xmlns:xlink="http://www.w3.org/1999/xlink">
<g id="graph0" class="graph" transform="scale(1 1) rotate(0) translate(4 103)">
<title>drv_LcdInterface_SendCmd</title>
<polygon fill="white" stroke="transparent" points="-4,4 -4,-103 980,-103 980,4 -4,4"/>
<!-- Node1 -->
<g id="node1" class="node">
<title>Node1</title>
<g id="a_node1"><a xlink:title="Sends a command to the LCD controller.">
<polygon fill="#bfbfbf" stroke="black" points="842,-41.5 842,-60.5 976,-60.5 976,-41.5 842,-41.5"/>
<text text-anchor="middle" x="909" y="-48.5" font-family="Helvetica,sans-Serif" font-size="10.00">drv_LcdInterface_SendCmd</text>
</a>
</g>
</g>
<!-- Node2 -->
<g id="node2" class="node">
<title>Node2</title>
<g id="a_node2"><a xlink:href="a00474.html#ga0bff8adf9ea1196bdd69b3e47b2b77cd" target="_top" xlink:title="Clears the LC Display Screen.">
<polygon fill="white" stroke="black" points="721,-79.5 721,-98.5 801,-98.5 801,-79.5 721,-79.5"/>
<text text-anchor="middle" x="761" y="-86.5" font-family="Helvetica,sans-Serif" font-size="10.00">dev_Lcd_Clear</text>
</a>
</g>
</g>
<!-- Node1&#45;&gt;Node2 -->
<g id="edge1" class="edge">
<title>Node1&#45;&gt;Node2</title>
<path fill="none" stroke="midnightblue" d="M861.46,-63.11C841.13,-68.4 817.63,-74.52 798.58,-79.48"/>
<polygon fill="midnightblue" stroke="midnightblue" points="862.36,-66.5 871.16,-60.59 860.6,-59.72 862.36,-66.5"/>
</g>
<!-- Node10 -->
<g id="node10" class="node">
<title>Node10</title>
<g id="a_node10"><a xlink:href="a00474.html#ga5c431635cb94750b2f6e938d7f1f0cf1" target="_top" xlink:title="Sets the cursor position to the given x&#45; and y&#45;coordinates.">
<polygon fill="white" stroke="black" points="716,-41.5 716,-60.5 806,-60.5 806,-41.5 716,-41.5"/>
<text text-anchor="middle" x="761" y="-48.5" font-family="Helvetica,sans-Serif" font-size="10.00">dev_Lcd_GotoXY</text>
</a>
</g>
</g>
<!-- Node1&#45;&gt;Node10 -->
<g id="edge9" class="edge">
<title>Node1&#45;&gt;Node10</title>
<path fill="none" stroke="midnightblue" d="M831.62,-51C822.92,-51 814.28,-51 806.2,-51"/>
<polygon fill="midnightblue" stroke="midnightblue" points="831.83,-54.5 841.83,-51 831.83,-47.5 831.83,-54.5"/>
</g>
<!-- Node11 -->
<g id="node11" class="node">
<title>Node11</title>
<g id="a_node11"><a xlink:href="a00474.html#ga5d8f09855e28846e87400692d186781a" target="_top" xlink:title="Initializes the LCD Device.">
<polygon fill="white" stroke="black" points="583.5,-3.5 583.5,-22.5 675.5,-22.5 675.5,-3.5 583.5,-3.5"/>
<text text-anchor="middle" x="629.5" y="-10.5" font-family="Helvetica,sans-Serif" font-size="10.00">dev_Lcd_Initialize</text>
</a>
</g>
</g>
<!-- Node1&#45;&gt;Node11 -->
<g id="edge12" class="edge">
<title>Node1&#45;&gt;Node11</title>
<path fill="none" stroke="midnightblue" d="M851.2,-39.62C836.51,-36.9 820.7,-34.16 806,-32 761.88,-25.51 711.22,-20.26 675.71,-16.94"/>
<polygon fill="midnightblue" stroke="midnightblue" points="850.68,-43.09 861.15,-41.5 851.97,-36.21 850.68,-43.09"/>
</g>
<!-- Node3 -->
<g id="node3" class="node">
<title>Node3</title>
<g id="a_node3"><a xlink:href="a00474.html#ga3cb1303cba012af043a87af0bcab16d8" target="_top" xlink:title="Writes a character on the LCD screen.">
<polygon fill="white" stroke="black" points="579,-79.5 579,-98.5 680,-98.5 680,-79.5 579,-79.5"/>
<text text-anchor="middle" x="629.5" y="-86.5" font-family="Helvetica,sans-Serif" font-size="10.00">dev_Lcd_WriteChar</text>
</a>
</g>
</g>
<!-- Node2&#45;&gt;Node3 -->
<g id="edge2" class="edge">
<title>Node2&#45;&gt;Node3</title>
<path fill="none" stroke="midnightblue" d="M710.62,-89C700.63,-89 690.13,-89 680.13,-89"/>
<polygon fill="midnightblue" stroke="midnightblue" points="710.79,-92.5 720.79,-89 710.79,-85.5 710.79,-92.5"/>
</g>
<!-- Node4 -->
<g id="node4" class="node">
<title>Node4</title>
<g id="a_node4"><a xlink:href="a00474.html#gac07de05132918ca2db8cf4492819eca6" target="_top" xlink:title="Writes a complete string on the LCD screen.">
<polygon fill="white" stroke="black" points="437,-79.5 437,-98.5 543,-98.5 543,-79.5 437,-79.5"/>
<text text-anchor="middle" x="490" y="-86.5" font-family="Helvetica,sans-Serif" font-size="10.00">dev_Lcd_WriteString</text>
</a>
</g>
</g>
<!-- Node3&#45;&gt;Node4 -->
<g id="edge3" class="edge">
<title>Node3&#45;&gt;Node4</title>
<path fill="none" stroke="midnightblue" d="M568.69,-89C560.25,-89 551.63,-89 543.35,-89"/>
<polygon fill="midnightblue" stroke="midnightblue" points="568.86,-92.5 578.86,-89 568.86,-85.5 568.86,-92.5"/>
</g>
<!-- Node5 -->
<g id="node5" class="node">
<title>Node5</title>
<g id="a_node5"><a xlink:href="a00474.html#ga24701a4c3ae760e7e0b9c70d93370ff3" target="_top" xlink:title="Sets the cursor position to the given x&#45; and y&#45;coordinates and writes the given string on the lcd scr...">
<polygon fill="white" stroke="black" points="283,-41.5 283,-60.5 401,-60.5 401,-41.5 283,-41.5"/>
<text text-anchor="middle" x="342" y="-48.5" font-family="Helvetica,sans-Serif" font-size="10.00">dev_Lcd_WriteStringXY</text>
</a>
</g>
</g>
<!-- Node4&#45;&gt;Node5 -->
<g id="edge4" class="edge">
<title>Node4&#45;&gt;Node5</title>
<path fill="none" stroke="midnightblue" d="M442.46,-76.89C422.13,-71.6 398.63,-65.48 379.58,-60.52"/>
<polygon fill="midnightblue" stroke="midnightblue" points="441.6,-80.28 452.16,-79.41 443.36,-73.5 441.6,-80.28"/>
</g>
<!-- Node6 -->
<g id="node6" class="node">
<title>Node6</title>
<g id="a_node6"><a xlink:href="a00469.html#gacd8e3f8ca8af94f13f7efa0df7ced6f5" target="_top" xlink:title="Refreshes the LC display.">
<polygon fill="white" stroke="black" points="155,-42.5 155,-61.5 247,-61.5 247,-42.5 155,-42.5"/>
<text text-anchor="middle" x="201" y="-49.5" font-family="Helvetica,sans-Serif" font-size="10.00">appLCD_Execute</text>
</a>
</g>
</g>
<!-- Node5&#45;&gt;Node6 -->
<g id="edge5" class="edge">
<title>Node5&#45;&gt;Node6</title>
<path fill="none" stroke="midnightblue" d="M272.74,-51.49C264.08,-51.55 255.4,-51.62 247.23,-51.67"/>
<polygon fill="midnightblue" stroke="midnightblue" points="272.88,-54.99 282.86,-51.42 272.83,-47.99 272.88,-54.99"/>
</g>
<!-- Node8 -->
<g id="node8" class="node">
<title>Node8</title>
<g id="a_node8"><a xlink:href="a00469.html#gab93992748ced72fdc2989d0b0f369e54" target="_top" xlink:title="Initializes the LC display.">
<polygon fill="white" stroke="black" points="155,-3.5 155,-22.5 247,-22.5 247,-3.5 155,-3.5"/>
<text text-anchor="middle" x="201" y="-10.5" font-family="Helvetica,sans-Serif" font-size="10.00">appLCD_Initialize</text>
</a>
</g>
</g>
<!-- Node5&#45;&gt;Node8 -->
<g id="edge7" class="edge">
<title>Node5&#45;&gt;Node8</title>
<path fill="none" stroke="midnightblue" d="M296.2,-38.75C277.05,-33.52 255.01,-27.49 237.06,-22.59"/>
<polygon fill="midnightblue" stroke="midnightblue" points="295.36,-42.15 305.92,-41.41 297.2,-35.4 295.36,-42.15"/>
</g>
<!-- Node7 -->
<g id="node7" class="node">
<title>Node7</title>
<g id="a_node7"><a xlink:href="a00551.html#gaa1ec8154dbf983b02b3b2dc186c5079d" target="_top" xlink:title="Low priority task sequence executed after the high priority task sequence execution is complete.">
<polygon fill="white" stroke="black" points="6,-39 6,-69 113,-69 113,-39 6,-39"/>
<text text-anchor="start" x="14" y="-57" font-family="Helvetica,sans-Serif" font-size="10.00">sysLowPriorityTasks</text>
<text text-anchor="middle" x="59.5" y="-46" font-family="Helvetica,sans-Serif" font-size="10.00">_Execute</text>
</a>
</g>
</g>
<!-- Node6&#45;&gt;Node7 -->
<g id="edge6" class="edge">
<title>Node6&#45;&gt;Node7</title>
<path fill="none" stroke="midnightblue" d="M144.59,-52.79C134.29,-52.94 123.55,-53.1 113.33,-53.24"/>
<polygon fill="midnightblue" stroke="midnightblue" points="144.76,-56.29 154.71,-52.65 144.66,-49.29 144.76,-56.29"/>
</g>
<!-- Node9 -->
<g id="node9" class="node">
<title>Node9</title>
<g id="a_node9"><a xlink:href="a00564.html#ga2be64f5f0b9a2c0c6713f5a69d793e05" target="_top" xlink:title="Initializes the user&#45;defined tasks.">
<polygon fill="white" stroke="black" points="0,-0.5 0,-19.5 119,-19.5 119,-0.5 0,-0.5"/>
<text text-anchor="middle" x="59.5" y="-7.5" font-family="Helvetica,sans-Serif" font-size="10.00">sysUserTasks_Initialize</text>
</a>
</g>
</g>
<!-- Node8&#45;&gt;Node9 -->
<g id="edge8" class="edge">
<title>Node8&#45;&gt;Node9</title>
<path fill="none" stroke="midnightblue" d="M144.63,-11.81C136.22,-11.63 127.51,-11.44 119.04,-11.26"/>
<polygon fill="midnightblue" stroke="midnightblue" points="144.64,-15.31 154.71,-12.03 144.79,-8.31 144.64,-15.31"/>
</g>
<!-- Node10&#45;&gt;Node3 -->
<g id="edge10" class="edge">
<title>Node10&#45;&gt;Node3</title>
<path fill="none" stroke="midnightblue" d="M717.28,-63.54C699.66,-68.7 679.58,-74.6 663.17,-79.41"/>
<polygon fill="midnightblue" stroke="midnightblue" points="718.71,-66.76 727.32,-60.59 716.74,-60.05 718.71,-66.76"/>
</g>
<!-- Node10&#45;&gt;Node5 -->
<g id="edge11" class="edge">
<title>Node10&#45;&gt;Node5</title>
<path fill="none" stroke="midnightblue" d="M705.58,-51C626.84,-51 481.77,-51 401.05,-51"/>
<polygon fill="midnightblue" stroke="midnightblue" points="705.77,-54.5 715.77,-51 705.77,-47.5 705.77,-54.5"/>
</g>
<!-- Node11&#45;&gt;Node8 -->
<g id="edge13" class="edge">
<title>Node11&#45;&gt;Node8</title>
<path fill="none" stroke="midnightblue" d="M573.25,-13C487.94,-13 325.79,-13 247.1,-13"/>
<polygon fill="midnightblue" stroke="midnightblue" points="573.26,-16.5 583.26,-13 573.26,-9.5 573.26,-16.5"/>
</g>
</g>
</svg>
