<?xml version="1.0" encoding="UTF-8" standalone="no"?>
<!DOCTYPE svg PUBLIC "-//W3C//DTD SVG 1.1//EN"
 "http://www.w3.org/Graphics/SVG/1.1/DTD/svg11.dtd">
<!-- Generated by graphviz version 2.44.1 (20200629.0846)
 -->
<!-- Title: Public Properties Pages: 1 -->
<svg width="381pt" height="101pt"
 viewBox="0.00 0.00 381.00 101.00" xmlns="http://www.w3.org/2000/svg" xmlns:xlink="http://www.w3.org/1999/xlink">
<g id="graph0" class="graph" transform="scale(1 1) rotate(0) translate(4 97)">
<title>Public Properties</title>
<polygon fill="white" stroke="transparent" points="-4,4 -4,-97 377,-97 377,4 -4,4"/>
<!-- Node1 -->
<g id="node1" class="node">
<title>Node1</title>
<g id="a_node1"><a xlink:title="Public properties of the fault handler library layer.">
<polygon fill="#bfbfbf" stroke="black" points="234,-56 143,-56 143,-37 234,-37 234,-56"/>
<text text-anchor="middle" x="188.5" y="-44" font-family="Helvetica,sans-Serif" font-size="10.00">Public Properties</text>
</a>
</g>
</g>
<!-- Node4 -->
<g id="node3" class="node">
<title>Node4</title>
<g id="a_node3"><a xlink:href="a00463.html" target="_top" xlink:title=" ">
<polygon fill="white" stroke="black" points="354.5,-93 288.5,-93 288.5,-74 354.5,-74 354.5,-93"/>
<text text-anchor="middle" x="321.5" y="-81" font-family="Helvetica,sans-Serif" font-size="10.00">Data Types</text>
</a>
</g>
</g>
<!-- Node1&#45;&gt;Node4 -->
<g id="edge3" class="edge">
<title>Node1&#45;&gt;Node4</title>
<path fill="none" stroke="black" d="M232.96,-58.77C251,-63.87 271.57,-69.68 288.23,-74.39"/>
<polygon fill="black" stroke="black" points="233.81,-55.38 223.24,-56.03 231.91,-62.11 233.81,-55.38"/>
</g>
<!-- Node5 -->
<g id="node4" class="node">
<title>Node5</title>
<g id="a_node4"><a xlink:href="a00464.html" target="_top" xlink:title=" ">
<polygon fill="white" stroke="black" points="373,-56 270,-56 270,-37 373,-37 373,-56"/>
<text text-anchor="middle" x="321.5" y="-44" font-family="Helvetica,sans-Serif" font-size="10.00">Defines and Macros</text>
</a>
</g>
</g>
<!-- Node1&#45;&gt;Node5 -->
<g id="edge4" class="edge">
<title>Node1&#45;&gt;Node5</title>
<path fill="none" stroke="black" d="M244.31,-46.5C252.72,-46.5 261.37,-46.5 269.68,-46.5"/>
<polygon fill="black" stroke="black" points="244.22,-43 234.22,-46.5 244.22,-50 244.22,-43"/>
</g>
<!-- Node3 -->
<g id="node5" class="node">
<title>Node3</title>
<g id="a_node5"><a xlink:href="a00462.html" target="_top" xlink:title=" ">
<polygon fill="white" stroke="black" points="350,-19 293,-19 293,0 350,0 350,-19"/>
<text text-anchor="middle" x="321.5" y="-7" font-family="Helvetica,sans-Serif" font-size="10.00">Variables</text>
</a>
</g>
</g>
<!-- Node1&#45;&gt;Node3 -->
<g id="edge2" class="edge">
<title>Node1&#45;&gt;Node3</title>
<path fill="none" stroke="black" d="M232.91,-34.24C252.58,-28.68 275.27,-22.28 292.62,-17.37"/>
<polygon fill="black" stroke="black" points="231.91,-30.89 223.24,-36.97 233.81,-37.62 231.91,-30.89"/>
</g>
<!-- Node2 -->
<g id="node2" class="node">
<title>Node2</title>
<g id="a_node2"><a xlink:href="a00457.html" target="_top" xlink:title=" ">
<polygon fill="white" stroke="black" points="107,-56 0,-56 0,-37 107,-37 107,-56"/>
<text text-anchor="middle" x="53.5" y="-44" font-family="Helvetica,sans-Serif" font-size="10.00">Fault Handler Library</text>
</a>
</g>
</g>
<!-- Node2&#45;&gt;Node1 -->
<g id="edge1" class="edge">
<title>Node2&#45;&gt;Node1</title>
<path fill="none" stroke="black" d="M117.1,-46.5C125.71,-46.5 134.41,-46.5 142.62,-46.5"/>
<polygon fill="black" stroke="black" points="117.07,-43 107.07,-46.5 117.07,-50 117.07,-43"/>
</g>
</g>
</svg>
