<?xml version="1.0" encoding="UTF-8" standalone="no"?>
<!DOCTYPE svg PUBLIC "-//W3C//DTD SVG 1.1//EN"
 "http://www.w3.org/Graphics/SVG/1.1/DTD/svg11.dtd">
<!-- Generated by graphviz version 2.44.1 (20200629.0846)
 -->
<!-- Title: Conversion Macros Pages: 1 -->
<svg width="342pt" height="27pt"
 viewBox="0.00 0.00 342.00 27.00" xmlns="http://www.w3.org/2000/svg" xmlns:xlink="http://www.w3.org/1999/xlink">
<g id="graph0" class="graph" transform="scale(1 1) rotate(0) translate(4 23)">
<title>Conversion Macros</title>
<polygon fill="white" stroke="transparent" points="-4,4 -4,-23 338,-23 338,4 -4,4"/>
<!-- Node3 -->
<g id="node1" class="node">
<title>Node3</title>
<g id="a_node1"><a xlink:href="a00412.html" target="_top" xlink:title="Conversion macros converting physical quantities of PWM parameters of the buck converter &#160;&#160;into binar...">
<polygon fill="white" stroke="black" points="334,-19 251,-19 251,0 334,0 334,-19"/>
<text text-anchor="middle" x="292.5" y="-7" font-family="Helvetica,sans-Serif" font-size="10.00">Buck Converter</text>
</a>
</g>
</g>
<!-- Node1 -->
<g id="node2" class="node">
<title>Node1</title>
<g id="a_node2"><a xlink:title="Conversion macros converting physical quantities of parameters into binary (integer) numbers for regi...">
<polygon fill="#bfbfbf" stroke="black" points="215,-19 116,-19 116,0 215,0 215,-19"/>
<text text-anchor="middle" x="165.5" y="-7" font-family="Helvetica,sans-Serif" font-size="10.00">Conversion Macros</text>
</a>
</g>
</g>
<!-- Node1&#45;&gt;Node3 -->
<g id="edge2" class="edge">
<title>Node1&#45;&gt;Node3</title>
<path fill="none" stroke="black" d="M225.26,-9.5C233.91,-9.5 242.66,-9.5 250.84,-9.5"/>
<polygon fill="black" stroke="black" points="225.19,-6 215.19,-9.5 225.19,-13 225.19,-6"/>
</g>
<!-- Node2 -->
<g id="node3" class="node">
<title>Node2</title>
<g id="a_node3"><a xlink:href="a00408.html" target="_top" xlink:title="Declaration of fundamental PWM parameters.">
<polygon fill="white" stroke="black" points="80,-19 0,-19 0,0 80,0 80,-19"/>
<text text-anchor="middle" x="40" y="-7" font-family="Helvetica,sans-Serif" font-size="10.00">PWM Settings</text>
</a>
</g>
</g>
<!-- Node2&#45;&gt;Node1 -->
<g id="edge1" class="edge">
<title>Node2&#45;&gt;Node1</title>
<path fill="none" stroke="black" d="M90.13,-9.5C98.55,-9.5 107.28,-9.5 115.69,-9.5"/>
<polygon fill="black" stroke="black" points="90.08,-6 80.08,-9.5 90.08,-13 90.08,-6"/>
</g>
</g>
</svg>
