<?xml version="1.0" encoding="UTF-8" standalone="no"?>
<!DOCTYPE svg PUBLIC "-//W3C//DTD SVG 1.1//EN"
 "http://www.w3.org/Graphics/SVG/1.1/DTD/svg11.dtd">
<!-- Generated by graphviz version 2.44.1 (20200629.0846)
 -->
<!-- Title: Private Properties Pages: 1 -->
<svg width="383pt" height="101pt"
 viewBox="0.00 0.00 383.00 101.00" xmlns="http://www.w3.org/2000/svg" xmlns:xlink="http://www.w3.org/1999/xlink">
<g id="graph0" class="graph" transform="scale(1 1) rotate(0) translate(4 97)">
<title>Private Properties</title>
<polygon fill="white" stroke="transparent" points="-4,4 -4,-97 379,-97 379,4 -4,4"/>
<!-- Node3 -->
<g id="node1" class="node">
<title>Node3</title>
<g id="a_node1"><a xlink:href="a00465.html" target="_top" xlink:title=" ">
<polygon fill="white" stroke="black" points="352,-93 295,-93 295,-74 352,-74 352,-93"/>
<text text-anchor="middle" x="323.5" y="-81" font-family="Helvetica,sans-Serif" font-size="10.00">Variables</text>
</a>
</g>
</g>
<!-- Node2 -->
<g id="node2" class="node">
<title>Node2</title>
<g id="a_node2"><a xlink:href="a00457.html" target="_top" xlink:title=" ">
<polygon fill="white" stroke="black" points="107,-56 0,-56 0,-37 107,-37 107,-56"/>
<text text-anchor="middle" x="53.5" y="-44" font-family="Helvetica,sans-Serif" font-size="10.00">Fault Handler Library</text>
</a>
</g>
</g>
<!-- Node1 -->
<g id="node5" class="node">
<title>Node1</title>
<g id="a_node5"><a xlink:title="Public properties of the fault handler library layer.">
<polygon fill="#bfbfbf" stroke="black" points="236,-56 143,-56 143,-37 236,-37 236,-56"/>
<text text-anchor="middle" x="189.5" y="-44" font-family="Helvetica,sans-Serif" font-size="10.00">Private Properties</text>
</a>
</g>
</g>
<!-- Node2&#45;&gt;Node1 -->
<g id="edge1" class="edge">
<title>Node2&#45;&gt;Node1</title>
<path fill="none" stroke="black" d="M117.09,-46.5C125.68,-46.5 134.37,-46.5 142.6,-46.5"/>
<polygon fill="black" stroke="black" points="117.08,-43 107.08,-46.5 117.08,-50 117.08,-43"/>
</g>
<!-- Node4 -->
<g id="node3" class="node">
<title>Node4</title>
<g id="a_node3"><a xlink:href="a00466.html" target="_top" xlink:title=" ">
<polygon fill="white" stroke="black" points="356.5,-56 290.5,-56 290.5,-37 356.5,-37 356.5,-56"/>
<text text-anchor="middle" x="323.5" y="-44" font-family="Helvetica,sans-Serif" font-size="10.00">Data Types</text>
</a>
</g>
</g>
<!-- Node5 -->
<g id="node4" class="node">
<title>Node5</title>
<g id="a_node4"><a xlink:href="a00467.html" target="_top" xlink:title=" ">
<polygon fill="white" stroke="black" points="375,-19 272,-19 272,0 375,0 375,-19"/>
<text text-anchor="middle" x="323.5" y="-7" font-family="Helvetica,sans-Serif" font-size="10.00">Defines and Macros</text>
</a>
</g>
</g>
<!-- Node1&#45;&gt;Node3 -->
<g id="edge2" class="edge">
<title>Node1&#45;&gt;Node3</title>
<path fill="none" stroke="black" d="M234.31,-58.78C254.28,-64.38 277.32,-70.84 294.84,-75.75"/>
<polygon fill="black" stroke="black" points="235.07,-55.36 224.49,-56.03 233.18,-62.1 235.07,-55.36"/>
</g>
<!-- Node1&#45;&gt;Node4 -->
<g id="edge3" class="edge">
<title>Node1&#45;&gt;Node4</title>
<path fill="none" stroke="black" d="M246.54,-46.5C261.56,-46.5 277.28,-46.5 290.49,-46.5"/>
<polygon fill="black" stroke="black" points="246.3,-43 236.3,-46.5 246.3,-50 246.3,-43"/>
</g>
<!-- Node1&#45;&gt;Node5 -->
<g id="edge4" class="edge">
<title>Node1&#45;&gt;Node5</title>
<path fill="none" stroke="black" d="M234.47,-34.17C251.96,-29.27 271.77,-23.72 288.16,-19.12"/>
<polygon fill="black" stroke="black" points="233.18,-30.9 224.49,-36.97 235.07,-37.64 233.18,-30.9"/>
</g>
</g>
</svg>
