<?xml version="1.0" encoding="UTF-8" standalone="no"?>
<!DOCTYPE svg PUBLIC "-//W3C//DTD SVG 1.1//EN"
 "http://www.w3.org/Graphics/SVG/1.1/DTD/svg11.dtd">
<!-- Generated by graphviz version 2.44.1 (20200629.0846)
 -->
<!-- Title: drv_BuckConverter_Execute Pages: 1 -->
<svg width="949pt" height="173pt"
 viewBox="0.00 0.00 949.00 172.50" xmlns="http://www.w3.org/2000/svg" xmlns:xlink="http://www.w3.org/1999/xlink">
<g id="graph0" class="graph" transform="scale(1 1) rotate(0) translate(4 168.5)">
<title>drv_BuckConverter_Execute</title>
<polygon fill="white" stroke="transparent" points="-4,4 -4,-168.5 945,-168.5 945,4 -4,4"/>
<!-- Node1 -->
<g id="node1" class="node">
<title>Node1</title>
<g id="a_node1"><a xlink:title="This function is the main buck converter state machine executing the most recent state.">
<polygon fill="#bfbfbf" stroke="black" points="803,-95.5 803,-114.5 941,-114.5 941,-95.5 803,-95.5"/>
<text text-anchor="middle" x="872" y="-102.5" font-family="Helvetica,sans-Serif" font-size="10.00">drv_BuckConverter_Execute</text>
</a>
</g>
</g>
<!-- Node2 -->
<g id="node2" class="node">
<title>Node2</title>
<g id="a_node2"><a xlink:href="a00489.html#ga13094235dd6cc123d9299925359ca178" target="_top" xlink:title="This is the top&#45;level function call triggering the most recent state machine of all associated power ...">
<polygon fill="white" stroke="black" points="631.5,-136.5 631.5,-155.5 762.5,-155.5 762.5,-136.5 631.5,-136.5"/>
<text text-anchor="middle" x="697" y="-143.5" font-family="Helvetica,sans-Serif" font-size="10.00">appPowerSupply_Execute</text>
</a>
</g>
</g>
<!-- Node1&#45;&gt;Node2 -->
<g id="edge1" class="edge">
<title>Node1&#45;&gt;Node2</title>
<path fill="none" stroke="midnightblue" d="M821.09,-116.83C794.77,-123.07 762.92,-130.62 738.21,-136.47"/>
<polygon fill="midnightblue" stroke="midnightblue" points="821.95,-120.22 830.88,-114.51 820.34,-113.41 821.95,-120.22"/>
</g>
<!-- Node4 -->
<g id="node4" class="node">
<title>Node4</title>
<g id="a_node4"><a xlink:href="a00496.html#gaadb710d81053fd0ab75b305f1f329bf6" target="_top" xlink:title="This function resume the operation of the buck converter.">
<polygon fill="white" stroke="black" points="628,-95.5 628,-114.5 766,-114.5 766,-95.5 628,-95.5"/>
<text text-anchor="middle" x="697" y="-102.5" font-family="Helvetica,sans-Serif" font-size="10.00">drv_BuckConverter_Resume</text>
</a>
</g>
</g>
<!-- Node1&#45;&gt;Node4 -->
<g id="edge3" class="edge">
<title>Node1&#45;&gt;Node4</title>
<path fill="none" stroke="midnightblue" d="M792.41,-105C783.65,-105 774.78,-105 766.16,-105"/>
<polygon fill="midnightblue" stroke="midnightblue" points="792.63,-108.5 802.63,-105 792.63,-101.5 792.63,-108.5"/>
</g>
<!-- Node6 -->
<g id="node6" class="node">
<title>Node6</title>
<g id="a_node6"><a xlink:href="a00496.html#ga0d68d132b52175c43503c9b5794bae64" target="_top" xlink:title="This function suspends the operation of the buck converter.">
<polygon fill="white" stroke="black" points="627,-57.5 627,-76.5 767,-76.5 767,-57.5 627,-57.5"/>
<text text-anchor="middle" x="697" y="-64.5" font-family="Helvetica,sans-Serif" font-size="10.00">drv_BuckConverter_Suspend</text>
</a>
</g>
</g>
<!-- Node1&#45;&gt;Node6 -->
<g id="edge5" class="edge">
<title>Node1&#45;&gt;Node6</title>
<path fill="none" stroke="midnightblue" d="M817.49,-93.25C793.03,-87.87 764.43,-81.59 741.34,-76.52"/>
<polygon fill="midnightblue" stroke="midnightblue" points="816.83,-96.68 827.34,-95.41 818.33,-89.85 816.83,-96.68"/>
</g>
<!-- Node3 -->
<g id="node3" class="node">
<title>Node3</title>
<g id="a_node3"><a xlink:href="a00552.html#ga1873ce221ca3545badd9c72c846bba3d" target="_top" xlink:title="High priority task sequence executed at a fixed repetition frequency.">
<polygon fill="white" stroke="black" points="470,-134 470,-164 579,-164 579,-134 470,-134"/>
<text text-anchor="start" x="478" y="-152" font-family="Helvetica,sans-Serif" font-size="10.00">sysHighPriorityTasks</text>
<text text-anchor="middle" x="524.5" y="-141" font-family="Helvetica,sans-Serif" font-size="10.00">_Execute</text>
</a>
</g>
</g>
<!-- Node2&#45;&gt;Node3 -->
<g id="edge2" class="edge">
<title>Node2&#45;&gt;Node3</title>
<path fill="none" stroke="midnightblue" d="M620.91,-147.32C606.85,-147.57 592.42,-147.82 579.18,-148.06"/>
<polygon fill="midnightblue" stroke="midnightblue" points="621.12,-150.82 631.05,-147.14 620.99,-143.82 621.12,-150.82"/>
</g>
<!-- Node5 -->
<g id="node5" class="node">
<title>Node5</title>
<g id="a_node5"><a xlink:href="a00489.html#ga3c7bf6b771bc1296401a270da4a95bff" target="_top" xlink:title="This function resumes the power supply operation.">
<polygon fill="white" stroke="black" points="459,-95.5 459,-114.5 590,-114.5 590,-95.5 459,-95.5"/>
<text text-anchor="middle" x="524.5" y="-102.5" font-family="Helvetica,sans-Serif" font-size="10.00">appPowerSupply_Resume</text>
</a>
</g>
</g>
<!-- Node4&#45;&gt;Node5 -->
<g id="edge4" class="edge">
<title>Node4&#45;&gt;Node5</title>
<path fill="none" stroke="midnightblue" d="M617.36,-105C608.2,-105 598.94,-105 590.01,-105"/>
<polygon fill="midnightblue" stroke="midnightblue" points="617.63,-108.5 627.63,-105 617.63,-101.5 617.63,-108.5"/>
</g>
<!-- Node7 -->
<g id="node7" class="node">
<title>Node7</title>
<g id="a_node7"><a xlink:href="a00489.html#gafa4e90d260e60cf20f06acee067c39cd" target="_top" xlink:title="This function stops the power supply operation.">
<polygon fill="white" stroke="black" points="458,-57.5 458,-76.5 591,-76.5 591,-57.5 458,-57.5"/>
<text text-anchor="middle" x="524.5" y="-64.5" font-family="Helvetica,sans-Serif" font-size="10.00">appPowerSupply_Suspend</text>
</a>
</g>
</g>
<!-- Node6&#45;&gt;Node7 -->
<g id="edge6" class="edge">
<title>Node6&#45;&gt;Node7</title>
<path fill="none" stroke="midnightblue" d="M616.42,-67C607.98,-67 599.46,-67 591.21,-67"/>
<polygon fill="midnightblue" stroke="midnightblue" points="616.65,-70.5 626.65,-67 616.65,-63.5 616.65,-70.5"/>
</g>
<!-- Node8 -->
<g id="node8" class="node">
<title>Node8</title>
<g id="a_node8"><a xlink:href="a00455.html#ga54f9db91ea0782b08aa16ee77a57c5e5" target="_top" xlink:title="Initializes the user&#45;defined fault objects for overcurrent protection.">
<polygon fill="white" stroke="black" points="322.5,-114.5 322.5,-133.5 417.5,-133.5 417.5,-114.5 322.5,-114.5"/>
<text text-anchor="middle" x="370" y="-121.5" font-family="Helvetica,sans-Serif" font-size="10.00">ocp_FaultInitialize</text>
</a>
</g>
</g>
<!-- Node7&#45;&gt;Node8 -->
<g id="edge7" class="edge">
<title>Node7&#45;&gt;Node8</title>
<path fill="none" stroke="midnightblue" d="M476.06,-79.52C469.92,-81.5 463.76,-83.67 458,-86 441.23,-92.78 438.51,-97.6 422,-105 414.5,-108.36 406.2,-111.63 398.52,-114.49"/>
<polygon fill="midnightblue" stroke="midnightblue" points="477.12,-82.85 485.64,-76.56 475.06,-76.16 477.12,-82.85"/>
</g>
<!-- Node11 -->
<g id="node11" class="node">
<title>Node11</title>
<g id="a_node11"><a xlink:href="a00455.html#gade437244e8f6e5ff7c57a73442063350" target="_top" xlink:title="Initializes the user&#45;defined fault objects for overvoltage lockout.">
<polygon fill="white" stroke="black" points="322.5,-76.5 322.5,-95.5 417.5,-95.5 417.5,-76.5 322.5,-76.5"/>
<text text-anchor="middle" x="370" y="-83.5" font-family="Helvetica,sans-Serif" font-size="10.00">ovlo_FaultInitialize</text>
</a>
</g>
</g>
<!-- Node7&#45;&gt;Node11 -->
<g id="edge10" class="edge">
<title>Node7&#45;&gt;Node11</title>
<path fill="none" stroke="midnightblue" d="M447.71,-76.44C437.45,-77.72 427.18,-79 417.64,-80.19"/>
<polygon fill="midnightblue" stroke="midnightblue" points="448.45,-79.88 457.94,-75.17 447.59,-72.93 448.45,-79.88"/>
</g>
<!-- Node12 -->
<g id="node12" class="node">
<title>Node12</title>
<g id="a_node12"><a xlink:href="a00455.html#ga82dc317e3adac0308e5ac3f5ad321605" target="_top" xlink:title="Initializes the user&#45;defined fault objects for regulation error.">
<polygon fill="white" stroke="black" points="318,-38.5 318,-57.5 422,-57.5 422,-38.5 318,-38.5"/>
<text text-anchor="middle" x="370" y="-45.5" font-family="Helvetica,sans-Serif" font-size="10.00">regerr_FaultInitialize</text>
</a>
</g>
</g>
<!-- Node7&#45;&gt;Node12 -->
<g id="edge12" class="edge">
<title>Node7&#45;&gt;Node12</title>
<path fill="none" stroke="midnightblue" d="M447.8,-57.57C439.14,-56.49 430.47,-55.41 422.23,-54.38"/>
<polygon fill="midnightblue" stroke="midnightblue" points="447.59,-61.07 457.94,-58.83 448.45,-54.12 447.59,-61.07"/>
</g>
<!-- Node13 -->
<g id="node13" class="node">
<title>Node13</title>
<g id="a_node13"><a xlink:href="a00455.html#ga9441220f8a7d4a6805467d04b734e6b5" target="_top" xlink:title="Initializes the user&#45;defined fault objects for under&#45;voltage lockout.">
<polygon fill="white" stroke="black" points="322.5,-0.5 322.5,-19.5 417.5,-19.5 417.5,-0.5 322.5,-0.5"/>
<text text-anchor="middle" x="370" y="-7.5" font-family="Helvetica,sans-Serif" font-size="10.00">uvlo_FaultInitialize</text>
</a>
</g>
</g>
<!-- Node7&#45;&gt;Node13 -->
<g id="edge14" class="edge">
<title>Node7&#45;&gt;Node13</title>
<path fill="none" stroke="midnightblue" d="M488.63,-53.93C469.05,-46.59 444.17,-37.28 422,-29 413.77,-25.93 404.79,-22.58 396.69,-19.56"/>
<polygon fill="midnightblue" stroke="midnightblue" points="487.47,-57.23 498.06,-57.46 489.92,-50.68 487.47,-57.23"/>
</g>
<!-- Node9 -->
<g id="node9" class="node">
<title>Node9</title>
<g id="a_node9"><a xlink:href="a00453.html#ga830e5c7087a8e5ee8ea39b7e3df94b68" target="_top" xlink:title="Initialization of user&#45;defined fault objects.">
<polygon fill="white" stroke="black" points="155,-57.5 155,-76.5 282,-76.5 282,-57.5 155,-57.5"/>
<text text-anchor="middle" x="218.5" y="-64.5" font-family="Helvetica,sans-Serif" font-size="10.00">appFaultMonitor_Initialize</text>
</a>
</g>
</g>
<!-- Node8&#45;&gt;Node9 -->
<g id="edge8" class="edge">
<title>Node8&#45;&gt;Node9</title>
<path fill="none" stroke="midnightblue" d="M333.9,-110.98C328.57,-108.99 323.14,-106.95 318,-105 292.81,-95.45 264.07,-84.34 244.16,-76.61"/>
<polygon fill="midnightblue" stroke="midnightblue" points="332.7,-114.27 343.29,-114.49 335.15,-107.71 332.7,-114.27"/>
</g>
<!-- Node10 -->
<g id="node10" class="node">
<title>Node10</title>
<g id="a_node10"><a xlink:href="a00564.html#ga2be64f5f0b9a2c0c6713f5a69d793e05" target="_top" xlink:title="Initializes the user&#45;defined tasks.">
<polygon fill="white" stroke="black" points="0,-57.5 0,-76.5 119,-76.5 119,-57.5 0,-57.5"/>
<text text-anchor="middle" x="59.5" y="-64.5" font-family="Helvetica,sans-Serif" font-size="10.00">sysUserTasks_Initialize</text>
</a>
</g>
</g>
<!-- Node9&#45;&gt;Node10 -->
<g id="edge9" class="edge">
<title>Node9&#45;&gt;Node10</title>
<path fill="none" stroke="midnightblue" d="M144.95,-67C136.33,-67 127.61,-67 119.21,-67"/>
<polygon fill="midnightblue" stroke="midnightblue" points="145,-70.5 155,-67 145,-63.5 145,-70.5"/>
</g>
<!-- Node11&#45;&gt;Node9 -->
<g id="edge11" class="edge">
<title>Node11&#45;&gt;Node9</title>
<path fill="none" stroke="midnightblue" d="M312.09,-78.77C302.29,-77.52 292.06,-76.22 282.13,-74.96"/>
<polygon fill="midnightblue" stroke="midnightblue" points="311.75,-82.25 322.11,-80.04 312.63,-75.31 311.75,-82.25"/>
</g>
<!-- Node12&#45;&gt;Node9 -->
<g id="edge13" class="edge">
<title>Node12&#45;&gt;Node9</title>
<path fill="none" stroke="midnightblue" d="M307.81,-55.78C299.37,-56.85 290.68,-57.95 282.2,-59.03"/>
<polygon fill="midnightblue" stroke="midnightblue" points="308.49,-59.22 317.97,-54.49 307.61,-52.27 308.49,-59.22"/>
</g>
<!-- Node13&#45;&gt;Node9 -->
<g id="edge15" class="edge">
<title>Node13&#45;&gt;Node9</title>
<path fill="none" stroke="midnightblue" d="M333.9,-23.02C328.57,-25.01 323.14,-27.05 318,-29 292.81,-38.55 264.07,-49.66 244.16,-57.39"/>
<polygon fill="midnightblue" stroke="midnightblue" points="335.15,-26.29 343.29,-19.51 332.7,-19.73 335.15,-26.29"/>
</g>
</g>
</svg>
