<?xml version="1.0" encoding="UTF-8" standalone="no"?>
<!DOCTYPE svg PUBLIC "-//W3C//DTD SVG 1.1//EN"
 "http://www.w3.org/Graphics/SVG/1.1/DTD/svg11.dtd">
<!-- Generated by graphviz version 2.44.1 (20200629.0846)
 -->
<!-- Title: Conversion Macros Pages: 1 -->
<svg width="381pt" height="27pt"
 viewBox="0.00 0.00 381.00 27.00" xmlns="http://www.w3.org/2000/svg" xmlns:xlink="http://www.w3.org/1999/xlink">
<g id="graph0" class="graph" transform="scale(1 1) rotate(0) translate(4 23)">
<title>Conversion Macros</title>
<polygon fill="white" stroke="transparent" points="-4,4 -4,-23 377,-23 377,4 -4,4"/>
<!-- Node1 -->
<g id="node1" class="node">
<title>Node1</title>
<g id="a_node1"><a xlink:title="Conversion macros for user&#45;declarations of input voltage feedback parameters.">
<polygon fill="#bfbfbf" stroke="black" points="254,-19 155,-19 155,0 254,0 254,-19"/>
<text text-anchor="middle" x="204.5" y="-7" font-family="Helvetica,sans-Serif" font-size="10.00">Conversion Macros</text>
</a>
</g>
</g>
<!-- Node3 -->
<g id="node3" class="node">
<title>Node3</title>
<g id="a_node3"><a xlink:href="a00419.html" target="_top" xlink:title="Conversion macros for user&#45;declarations of input voltage feedback parameters of the buck converter.">
<polygon fill="white" stroke="black" points="373,-19 290,-19 290,0 373,0 373,-19"/>
<text text-anchor="middle" x="331.5" y="-7" font-family="Helvetica,sans-Serif" font-size="10.00">Buck Converter</text>
</a>
</g>
</g>
<!-- Node1&#45;&gt;Node3 -->
<g id="edge2" class="edge">
<title>Node1&#45;&gt;Node3</title>
<path fill="none" stroke="black" d="M264.26,-9.5C272.91,-9.5 281.66,-9.5 289.84,-9.5"/>
<polygon fill="black" stroke="black" points="264.19,-6 254.19,-9.5 264.19,-13 264.19,-6"/>
</g>
<!-- Node2 -->
<g id="node2" class="node">
<title>Node2</title>
<g id="a_node2"><a xlink:href="a00415.html" target="_top" xlink:title="Declaration of input voltage feedback parameters.">
<polygon fill="white" stroke="black" points="119,-19 0,-19 0,0 119,0 119,-19"/>
<text text-anchor="middle" x="59.5" y="-7" font-family="Helvetica,sans-Serif" font-size="10.00">Input Voltage Feedback</text>
</a>
</g>
</g>
<!-- Node2&#45;&gt;Node1 -->
<g id="edge1" class="edge">
<title>Node2&#45;&gt;Node1</title>
<path fill="none" stroke="black" d="M129.18,-9.5C137.84,-9.5 146.56,-9.5 154.82,-9.5"/>
<polygon fill="black" stroke="black" points="129.08,-6 119.08,-9.5 129.08,-13 129.08,-6"/>
</g>
</g>
</svg>
