<?xml version="1.0" encoding="UTF-8" standalone="no"?>
<!DOCTYPE svg PUBLIC "-//W3C//DTD SVG 1.1//EN"
 "http://www.w3.org/Graphics/SVG/1.1/DTD/svg11.dtd">
<!-- Generated by graphviz version 2.44.1 (20200629.0846)
 -->
<!-- Title: appLCD_Initialize Pages: 1 -->
<svg width="1014pt" height="180pt"
 viewBox="0.00 0.00 1014.00 180.00" xmlns="http://www.w3.org/2000/svg" xmlns:xlink="http://www.w3.org/1999/xlink">
<g id="graph0" class="graph" transform="scale(1 1) rotate(0) translate(4 176)">
<title>appLCD_Initialize</title>
<polygon fill="white" stroke="transparent" points="-4,4 -4,-176 1010,-176 1010,4 -4,4"/>
<!-- Node1 -->
<g id="node1" class="node">
<title>Node1</title>
<g id="a_node1"><a xlink:title="Initializes the LC display.">
<polygon fill="#bfbfbf" stroke="black" points="0,-57.5 0,-76.5 92,-76.5 92,-57.5 0,-57.5"/>
<text text-anchor="middle" x="46" y="-64.5" font-family="Helvetica,sans-Serif" font-size="10.00">appLCD_Initialize</text>
</a>
</g>
</g>
<!-- Node2 -->
<g id="node2" class="node">
<title>Node2</title>
<g id="a_node2"><a xlink:href="a00474.html#ga5d8f09855e28846e87400692d186781a" target="_top" xlink:title="Initializes the LCD Device.">
<polygon fill="white" stroke="black" points="141,-95.5 141,-114.5 233,-114.5 233,-95.5 141,-95.5"/>
<text text-anchor="middle" x="187" y="-102.5" font-family="Helvetica,sans-Serif" font-size="10.00">dev_Lcd_Initialize</text>
</a>
</g>
</g>
<!-- Node1&#45;&gt;Node2 -->
<g id="edge1" class="edge">
<title>Node1&#45;&gt;Node2</title>
<path fill="none" stroke="midnightblue" d="M82.08,-76.59C100.02,-81.49 122.06,-87.52 141.22,-92.76"/>
<polygon fill="midnightblue" stroke="midnightblue" points="140.37,-96.15 150.94,-95.41 142.21,-89.4 140.37,-96.15"/>
</g>
<!-- Node7 -->
<g id="node7" class="node">
<title>Node7</title>
<g id="a_node7"><a xlink:href="a00474.html#ga24701a4c3ae760e7e0b9c70d93370ff3" target="_top" xlink:title="Sets the cursor position to the given x&#45; and y&#45;coordinates and writes the given string on the lcd scr...">
<polygon fill="white" stroke="black" points="128,-38.5 128,-57.5 246,-57.5 246,-38.5 128,-38.5"/>
<text text-anchor="middle" x="187" y="-45.5" font-family="Helvetica,sans-Serif" font-size="10.00">dev_Lcd_WriteStringXY</text>
</a>
</g>
</g>
<!-- Node1&#45;&gt;Node7 -->
<g id="edge6" class="edge">
<title>Node1&#45;&gt;Node7</title>
<path fill="none" stroke="midnightblue" d="M92.13,-60.83C100.33,-59.71 109.06,-58.52 117.75,-57.33"/>
<polygon fill="midnightblue" stroke="midnightblue" points="118.49,-60.76 127.92,-55.94 117.54,-53.83 118.49,-60.76"/>
</g>
<!-- Node3 -->
<g id="node3" class="node">
<title>Node3</title>
<g id="a_node3"><a xlink:href="a00479.html#gaeb25fdecced4c325cd0d986a30d57e90" target="_top" xlink:title="Initializes the LCD interface driver.">
<polygon fill="white" stroke="black" points="282,-152.5 282,-171.5 409,-171.5 409,-152.5 282,-152.5"/>
<text text-anchor="middle" x="345.5" y="-159.5" font-family="Helvetica,sans-Serif" font-size="10.00">drv_LcdInterface_Initialize</text>
</a>
</g>
</g>
<!-- Node2&#45;&gt;Node3 -->
<g id="edge2" class="edge">
<title>Node2&#45;&gt;Node3</title>
<path fill="none" stroke="midnightblue" d="M210.2,-114.63C229.11,-122.67 257.1,-134.2 282,-143 288.32,-145.23 295.06,-147.45 301.68,-149.54"/>
<polygon fill="midnightblue" stroke="midnightblue" points="300.65,-152.88 311.24,-152.49 302.71,-146.19 300.65,-152.88"/>
</g>
<!-- Node4 -->
<g id="node4" class="node">
<title>Node4</title>
<g id="a_node4"><a xlink:href="a00479.html#ga3f10606b6c67ff33338ab2c5c6a2d4c8" target="_top" xlink:title="Resets the LCD controller.">
<polygon fill="white" stroke="black" points="287,-114.5 287,-133.5 404,-133.5 404,-114.5 287,-114.5"/>
<text text-anchor="middle" x="345.5" y="-121.5" font-family="Helvetica,sans-Serif" font-size="10.00">drv_LcdInterface_Reset</text>
</a>
</g>
</g>
<!-- Node2&#45;&gt;Node4 -->
<g id="edge3" class="edge">
<title>Node2&#45;&gt;Node4</title>
<path fill="none" stroke="midnightblue" d="M233.27,-110.5C246.84,-112.14 262.02,-113.99 276.71,-115.77"/>
<polygon fill="midnightblue" stroke="midnightblue" points="276.43,-119.26 286.78,-116.99 277.27,-112.31 276.43,-119.26"/>
</g>
<!-- Node5 -->
<g id="node5" class="node">
<title>Node5</title>
<g id="a_node5"><a xlink:href="a00479.html#ga3e045335a3463f6a53e4fd91b50bb0ca" target="_top" xlink:title="Sends a command to the LCD controller.">
<polygon fill="white" stroke="black" points="708,-38.5 708,-57.5 842,-57.5 842,-38.5 708,-38.5"/>
<text text-anchor="middle" x="775" y="-45.5" font-family="Helvetica,sans-Serif" font-size="10.00">drv_LcdInterface_SendCmd</text>
</a>
</g>
</g>
<!-- Node2&#45;&gt;Node5 -->
<g id="edge4" class="edge">
<title>Node2&#45;&gt;Node5</title>
<path fill="none" stroke="midnightblue" d="M233.21,-103.05C319.03,-98.99 511.35,-88.21 672,-67 687.09,-65.01 703.33,-62.26 718.32,-59.47"/>
<polygon fill="midnightblue" stroke="midnightblue" points="719.3,-62.85 728.47,-57.55 717.99,-55.97 719.3,-62.85"/>
</g>
<!-- Node6 -->
<g id="node6" class="node">
<title>Node6</title>
<g id="a_node6"><a xlink:href="a00481.html#ga50b8734fca19fc75dd778a9902c63082" target="_top" xlink:title="Sends data through the SPI interface to the LCD controller.">
<polygon fill="white" stroke="black" points="878,-38.5 878,-57.5 1006,-57.5 1006,-38.5 878,-38.5"/>
<text text-anchor="middle" x="942" y="-45.5" font-family="Helvetica,sans-Serif" font-size="10.00">drv_LcdInterface_SpiSend</text>
</a>
</g>
</g>
<!-- Node5&#45;&gt;Node6 -->
<g id="edge5" class="edge">
<title>Node5&#45;&gt;Node6</title>
<path fill="none" stroke="midnightblue" d="M842.16,-48C850.51,-48 859.09,-48 867.55,-48"/>
<polygon fill="midnightblue" stroke="midnightblue" points="867.77,-51.5 877.77,-48 867.77,-44.5 867.77,-51.5"/>
</g>
<!-- Node8 -->
<g id="node8" class="node">
<title>Node8</title>
<g id="a_node8"><a xlink:href="a00474.html#ga5c431635cb94750b2f6e938d7f1f0cf1" target="_top" xlink:title="Sets the cursor position to the given x&#45; and y&#45;coordinates.">
<polygon fill="white" stroke="black" points="582,-38.5 582,-57.5 672,-57.5 672,-38.5 582,-38.5"/>
<text text-anchor="middle" x="627" y="-45.5" font-family="Helvetica,sans-Serif" font-size="10.00">dev_Lcd_GotoXY</text>
</a>
</g>
</g>
<!-- Node7&#45;&gt;Node8 -->
<g id="edge7" class="edge">
<title>Node7&#45;&gt;Node8</title>
<path fill="none" stroke="midnightblue" d="M246.16,-48C331.3,-48 488.71,-48 571.63,-48"/>
<polygon fill="midnightblue" stroke="midnightblue" points="571.85,-51.5 581.85,-48 571.85,-44.5 571.85,-51.5"/>
</g>
<!-- Node9 -->
<g id="node9" class="node">
<title>Node9</title>
<g id="a_node9"><a xlink:href="a00474.html#gac07de05132918ca2db8cf4492819eca6" target="_top" xlink:title="Writes a complete string on the LCD screen.">
<polygon fill="white" stroke="black" points="292.5,-0.5 292.5,-19.5 398.5,-19.5 398.5,-0.5 292.5,-0.5"/>
<text text-anchor="middle" x="345.5" y="-7.5" font-family="Helvetica,sans-Serif" font-size="10.00">dev_Lcd_WriteString</text>
</a>
</g>
</g>
<!-- Node7&#45;&gt;Node9 -->
<g id="edge9" class="edge">
<title>Node7&#45;&gt;Node9</title>
<path fill="none" stroke="midnightblue" d="M227.49,-38.41C248.14,-33.4 273.61,-27.21 295.51,-21.89"/>
<polygon fill="midnightblue" stroke="midnightblue" points="296.4,-25.28 305.29,-19.52 294.75,-18.48 296.4,-25.28"/>
</g>
<!-- Node8&#45;&gt;Node5 -->
<g id="edge8" class="edge">
<title>Node8&#45;&gt;Node5</title>
<path fill="none" stroke="midnightblue" d="M672.2,-48C680.28,-48 688.93,-48 697.64,-48"/>
<polygon fill="midnightblue" stroke="midnightblue" points="697.86,-51.5 707.86,-48 697.86,-44.5 697.86,-51.5"/>
</g>
<!-- Node10 -->
<g id="node10" class="node">
<title>Node10</title>
<g id="a_node10"><a xlink:href="a00474.html#ga3cb1303cba012af043a87af0bcab16d8" target="_top" xlink:title="Writes a character on the LCD screen.">
<polygon fill="white" stroke="black" points="445,-0.5 445,-19.5 546,-19.5 546,-0.5 445,-0.5"/>
<text text-anchor="middle" x="495.5" y="-7.5" font-family="Helvetica,sans-Serif" font-size="10.00">dev_Lcd_WriteChar</text>
</a>
</g>
</g>
<!-- Node9&#45;&gt;Node10 -->
<g id="edge10" class="edge">
<title>Node9&#45;&gt;Node10</title>
<path fill="none" stroke="midnightblue" d="M398.68,-10C410.27,-10 422.64,-10 434.51,-10"/>
<polygon fill="midnightblue" stroke="midnightblue" points="434.78,-13.5 444.78,-10 434.78,-6.5 434.78,-13.5"/>
</g>
<!-- Node10&#45;&gt;Node8 -->
<g id="edge13" class="edge">
<title>Node10&#45;&gt;Node8</title>
<path fill="none" stroke="midnightblue" d="M529.18,-19.59C545.59,-24.4 565.68,-30.3 583.29,-35.47"/>
<polygon fill="midnightblue" stroke="midnightblue" points="582.75,-38.96 593.33,-38.41 584.72,-32.24 582.75,-38.96"/>
</g>
<!-- Node11 -->
<g id="node11" class="node">
<title>Node11</title>
<g id="a_node11"><a xlink:href="a00474.html#ga0bff8adf9ea1196bdd69b3e47b2b77cd" target="_top" xlink:title="Clears the LC Display Screen.">
<polygon fill="white" stroke="black" points="587,-0.5 587,-19.5 667,-19.5 667,-0.5 587,-0.5"/>
<text text-anchor="middle" x="627" y="-7.5" font-family="Helvetica,sans-Serif" font-size="10.00">dev_Lcd_Clear</text>
</a>
</g>
</g>
<!-- Node10&#45;&gt;Node11 -->
<g id="edge11" class="edge">
<title>Node10&#45;&gt;Node11</title>
<path fill="none" stroke="midnightblue" d="M546.2,-10C556.15,-10 566.6,-10 576.55,-10"/>
<polygon fill="midnightblue" stroke="midnightblue" points="576.68,-13.5 586.68,-10 576.68,-6.5 576.68,-13.5"/>
</g>
<!-- Node11&#45;&gt;Node5 -->
<g id="edge12" class="edge">
<title>Node11&#45;&gt;Node5</title>
<path fill="none" stroke="midnightblue" d="M664.84,-19.59C683.85,-24.54 707.23,-30.62 727.47,-35.89"/>
<polygon fill="midnightblue" stroke="midnightblue" points="726.86,-39.35 737.42,-38.48 728.63,-32.57 726.86,-39.35"/>
</g>
</g>
</svg>
