<?xml version="1.0" encoding="UTF-8" standalone="no"?>
<!DOCTYPE svg PUBLIC "-//W3C//DTD SVG 1.1//EN"
 "http://www.w3.org/Graphics/SVG/1.1/DTD/svg11.dtd">
<!-- Generated by graphviz version 2.44.1 (20200629.0846)
 -->
<!-- Title: Fault Response Settings Pages: 1 -->
<svg width="413pt" height="64pt"
 viewBox="0.00 0.00 413.00 64.00" xmlns="http://www.w3.org/2000/svg" xmlns:xlink="http://www.w3.org/1999/xlink">
<g id="graph0" class="graph" transform="scale(1 1) rotate(0) translate(4 60)">
<title>Fault Response Settings</title>
<polygon fill="white" stroke="transparent" points="-4,4 -4,-60 409,-60 409,4 -4,4"/>
<!-- Node2 -->
<g id="node1" class="node">
<title>Node2</title>
<g id="a_node1"><a xlink:href="a00565.html" target="_top" xlink:title="Hardware Abstraction Layer Declarations.">
<polygon fill="white" stroke="black" points="110,-42.5 0,-42.5 0,-12.5 110,-12.5 110,-42.5"/>
<text text-anchor="start" x="8" y="-30.5" font-family="Helvetica,sans-Serif" font-size="10.00">Hardware Abstraction</text>
<text text-anchor="middle" x="55" y="-19.5" font-family="Helvetica,sans-Serif" font-size="10.00"> Layer</text>
</a>
</g>
</g>
<!-- Node1 -->
<g id="node3" class="node">
<title>Node1</title>
<g id="a_node3"><a xlink:title="Declaration of fault object trip and recovery delays.">
<polygon fill="#bfbfbf" stroke="black" points="270,-37 146,-37 146,-18 270,-18 270,-37"/>
<text text-anchor="middle" x="208" y="-25" font-family="Helvetica,sans-Serif" font-size="10.00">Fault Response Settings</text>
</a>
</g>
</g>
<!-- Node2&#45;&gt;Node1 -->
<g id="edge1" class="edge">
<title>Node2&#45;&gt;Node1</title>
<path fill="none" stroke="black" d="M120.3,-27.5C128.77,-27.5 137.43,-27.5 145.85,-27.5"/>
<polygon fill="black" stroke="black" points="120.09,-24 110.09,-27.5 120.09,-31 120.09,-24"/>
</g>
<!-- Node3 -->
<g id="node2" class="node">
<title>Node3</title>
<g id="a_node2"><a xlink:href="a00404.html" target="_top" xlink:title="User&#45;declaration of fault object trip and recovery delays using physical quantities.">
<polygon fill="white" stroke="black" points="393.5,-56 317.5,-56 317.5,-37 393.5,-37 393.5,-56"/>
<text text-anchor="middle" x="355.5" y="-44" font-family="Helvetica,sans-Serif" font-size="10.00">User Settings</text>
</a>
</g>
</g>
<!-- Node1&#45;&gt;Node3 -->
<g id="edge2" class="edge">
<title>Node1&#45;&gt;Node3</title>
<path fill="none" stroke="black" d="M280.48,-36.83C293.24,-38.5 306.06,-40.17 317.36,-41.65"/>
<polygon fill="black" stroke="black" points="280.65,-33.33 270.28,-35.5 279.75,-40.27 280.65,-33.33"/>
</g>
<!-- Node4 -->
<g id="node4" class="node">
<title>Node4</title>
<g id="a_node4"><a xlink:href="a00406.html" target="_top" xlink:title="Conversion macros for user declarations of fault object trip and recovery delays.">
<polygon fill="white" stroke="black" points="405,-19 306,-19 306,0 405,0 405,-19"/>
<text text-anchor="middle" x="355.5" y="-7" font-family="Helvetica,sans-Serif" font-size="10.00">Conversion Macros</text>
</a>
</g>
</g>
<!-- Node1&#45;&gt;Node4 -->
<g id="edge3" class="edge">
<title>Node1&#45;&gt;Node4</title>
<path fill="none" stroke="black" d="M280.31,-18.68C288.89,-17.62 297.5,-16.55 305.65,-15.54"/>
<polygon fill="black" stroke="black" points="279.78,-15.22 270.28,-19.92 280.64,-22.16 279.78,-15.22"/>
</g>
</g>
</svg>
