<?xml version="1.0" encoding="UTF-8" standalone="no"?>
<!DOCTYPE svg PUBLIC "-//W3C//DTD SVG 1.1//EN"
 "http://www.w3.org/Graphics/SVG/1.1/DTD/svg11.dtd">
<!-- Generated by graphviz version 2.44.1 (20200629.0846)
 -->
<!-- Title: Microcontroller Abstraction Pages: 1 -->
<svg width="421pt" height="27pt"
 viewBox="0.00 0.00 421.00 27.00" xmlns="http://www.w3.org/2000/svg" xmlns:xlink="http://www.w3.org/1999/xlink">
<g id="graph0" class="graph" transform="scale(1 1) rotate(0) translate(4 23)">
<title>Microcontroller Abstraction</title>
<polygon fill="white" stroke="transparent" points="-4,4 -4,-23 417,-23 417,4 -4,4"/>
<!-- Node2 -->
<g id="node1" class="node">
<title>Node2</title>
<g id="a_node1"><a xlink:href="a00429.html" target="_top" xlink:title="Declaration of phase current feedback parameters.">
<polygon fill="white" stroke="black" points="125,-19 0,-19 0,0 125,0 125,-19"/>
<text text-anchor="middle" x="62.5" y="-7" font-family="Helvetica,sans-Serif" font-size="10.00">Phase Current Feedback</text>
</a>
</g>
</g>
<!-- Node1 -->
<g id="node2" class="node">
<title>Node1</title>
<g id="a_node2"><a xlink:title="Device analog input pin, register and interrupt vector assignments of phase current feedback signal(s...">
<polygon fill="#bfbfbf" stroke="black" points="294,-19 161,-19 161,0 294,0 294,-19"/>
<text text-anchor="middle" x="227.5" y="-7" font-family="Helvetica,sans-Serif" font-size="10.00">Microcontroller Abstraction</text>
</a>
</g>
</g>
<!-- Node2&#45;&gt;Node1 -->
<g id="edge1" class="edge">
<title>Node2&#45;&gt;Node1</title>
<path fill="none" stroke="black" d="M135.13,-9.5C143.73,-9.5 152.48,-9.5 160.98,-9.5"/>
<polygon fill="black" stroke="black" points="135.12,-6 125.12,-9.5 135.12,-13 135.12,-6"/>
</g>
<!-- Node3 -->
<g id="node3" class="node">
<title>Node3</title>
<g id="a_node3"><a xlink:href="a00435.html" target="_top" xlink:title="Device analog output pin, register and interrupt vector assignments of phase current feedback signal(...">
<polygon fill="white" stroke="black" points="413,-19 330,-19 330,0 413,0 413,-19"/>
<text text-anchor="middle" x="371.5" y="-7" font-family="Helvetica,sans-Serif" font-size="10.00">Buck Converter</text>
</a>
</g>
</g>
<!-- Node1&#45;&gt;Node3 -->
<g id="edge2" class="edge">
<title>Node1&#45;&gt;Node3</title>
<path fill="none" stroke="black" d="M304.13,-9.5C313.01,-9.5 321.79,-9.5 329.91,-9.5"/>
<polygon fill="black" stroke="black" points="304.1,-6 294.1,-9.5 304.1,-13 304.1,-6"/>
</g>
</g>
</svg>
