<?xml version="1.0" encoding="UTF-8" standalone="no"?>
<!DOCTYPE svg PUBLIC "-//W3C//DTD SVG 1.1//EN"
 "http://www.w3.org/Graphics/SVG/1.1/DTD/svg11.dtd">
<!-- Generated by graphviz version 2.44.1 (20200629.0846)
 -->
<!-- Title: PWM Settings Pages: 1 -->
<svg width="403pt" height="101pt"
 viewBox="0.00 0.00 403.00 101.00" xmlns="http://www.w3.org/2000/svg" xmlns:xlink="http://www.w3.org/1999/xlink">
<g id="graph0" class="graph" transform="scale(1 1) rotate(0) translate(4 97)">
<title>PWM Settings</title>
<polygon fill="white" stroke="transparent" points="-4,4 -4,-97 399,-97 399,4 -4,4"/>
<!-- Node2 -->
<g id="node1" class="node">
<title>Node2</title>
<g id="a_node1"><a xlink:href="a00565.html" target="_top" xlink:title="Hardware Abstraction Layer Declarations.">
<polygon fill="white" stroke="black" points="110,-61.5 0,-61.5 0,-31.5 110,-31.5 110,-61.5"/>
<text text-anchor="start" x="8" y="-49.5" font-family="Helvetica,sans-Serif" font-size="10.00">Hardware Abstraction</text>
<text text-anchor="middle" x="55" y="-38.5" font-family="Helvetica,sans-Serif" font-size="10.00"> Layer</text>
</a>
</g>
</g>
<!-- Node1 -->
<g id="node5" class="node">
<title>Node1</title>
<g id="a_node5"><a xlink:title="Declaration of fundamental PWM parameters.">
<polygon fill="#bfbfbf" stroke="black" points="226,-56 146,-56 146,-37 226,-37 226,-56"/>
<text text-anchor="middle" x="186" y="-44" font-family="Helvetica,sans-Serif" font-size="10.00">PWM Settings</text>
</a>
</g>
</g>
<!-- Node2&#45;&gt;Node1 -->
<g id="edge1" class="edge">
<title>Node2&#45;&gt;Node1</title>
<path fill="none" stroke="black" d="M120.4,-46.5C129.01,-46.5 137.62,-46.5 145.62,-46.5"/>
<polygon fill="black" stroke="black" points="120.33,-43 110.33,-46.5 120.33,-50 120.33,-43"/>
</g>
<!-- Node5 -->
<g id="node2" class="node">
<title>Node5</title>
<g id="a_node2"><a xlink:href="a00413.html" target="_top" xlink:title="PWM peripheral output pins, control signals and register assignments.">
<polygon fill="white" stroke="black" points="395,-93 262,-93 262,-74 395,-74 395,-93"/>
<text text-anchor="middle" x="328.5" y="-81" font-family="Helvetica,sans-Serif" font-size="10.00">Microcontroller Abstraction</text>
</a>
</g>
</g>
<!-- Node4 -->
<g id="node3" class="node">
<title>Node4</title>
<g id="a_node3"><a xlink:href="a00411.html" target="_top" xlink:title="Conversion macros converting physical quantities of parameters into binary (integer) numbers for regi...">
<polygon fill="white" stroke="black" points="378,-56 279,-56 279,-37 378,-37 378,-56"/>
<text text-anchor="middle" x="328.5" y="-44" font-family="Helvetica,sans-Serif" font-size="10.00">Conversion Macros</text>
</a>
</g>
</g>
<!-- Node3 -->
<g id="node4" class="node">
<title>Node3</title>
<g id="a_node4"><a xlink:href="a00409.html" target="_top" xlink:title="Parameter definitions using physical quantities.">
<polygon fill="white" stroke="black" points="366.5,-19 290.5,-19 290.5,0 366.5,0 366.5,-19"/>
<text text-anchor="middle" x="328.5" y="-7" font-family="Helvetica,sans-Serif" font-size="10.00">User Settings</text>
</a>
</g>
</g>
<!-- Node1&#45;&gt;Node5 -->
<g id="edge4" class="edge">
<title>Node1&#45;&gt;Node5</title>
<path fill="none" stroke="black" d="M233.02,-58.62C251.82,-63.57 273.26,-69.22 290.95,-73.88"/>
<polygon fill="black" stroke="black" points="233.74,-55.19 223.18,-56.03 231.96,-61.96 233.74,-55.19"/>
</g>
<!-- Node1&#45;&gt;Node4 -->
<g id="edge3" class="edge">
<title>Node1&#45;&gt;Node4</title>
<path fill="none" stroke="black" d="M236.39,-46.5C250.15,-46.5 265.08,-46.5 278.8,-46.5"/>
<polygon fill="black" stroke="black" points="236.14,-43 226.14,-46.5 236.14,-50 236.14,-43"/>
</g>
<!-- Node1&#45;&gt;Node3 -->
<g id="edge2" class="edge">
<title>Node1&#45;&gt;Node3</title>
<path fill="none" stroke="black" d="M233.02,-34.38C251.82,-29.43 273.26,-23.78 290.95,-19.12"/>
<polygon fill="black" stroke="black" points="231.96,-31.04 223.18,-36.97 233.74,-37.81 231.96,-31.04"/>
</g>
</g>
</svg>
