<?xml version="1.0" encoding="UTF-8" standalone="no"?>
<!DOCTYPE svg PUBLIC "-//W3C//DTD SVG 1.1//EN"
 "http://www.w3.org/Graphics/SVG/1.1/DTD/svg11.dtd">
<!-- Generated by graphviz version 2.44.1 (20200629.0846)
 -->
<!-- Title: Properties Pages: 1 -->
<svg width="375pt" height="101pt"
 viewBox="0.00 0.00 375.00 101.00" xmlns="http://www.w3.org/2000/svg" xmlns:xlink="http://www.w3.org/1999/xlink">
<g id="graph0" class="graph" transform="scale(1 1) rotate(0) translate(4 97)">
<title>Properties</title>
<polygon fill="white" stroke="transparent" points="-4,4 -4,-97 371,-97 371,4 -4,4"/>
<!-- Node4 -->
<g id="node1" class="node">
<title>Node4</title>
<g id="a_node1"><a xlink:href="a00516.html" target="_top" xlink:title="List of data types of the Special Function state machine extensions.">
<polygon fill="white" stroke="black" points="343,-93 277,-93 277,-74 343,-74 343,-93"/>
<text text-anchor="middle" x="310" y="-81" font-family="Helvetica,sans-Serif" font-size="10.00">Data Types</text>
</a>
</g>
</g>
<!-- Node2 -->
<g id="node2" class="node">
<title>Node2</title>
<g id="a_node2"><a xlink:href="a00512.html" target="_top" xlink:title=" ">
<polygon fill="white" stroke="black" points="120,-56 0,-56 0,-37 120,-37 120,-56"/>
<text text-anchor="middle" x="60" y="-44" font-family="Helvetica,sans-Serif" font-size="10.00">Buck Special Functions</text>
</a>
</g>
</g>
<!-- Node1 -->
<g id="node3" class="node">
<title>Node1</title>
<g id="a_node3"><a xlink:title="Public properties of the second library layer.">
<polygon fill="#bfbfbf" stroke="black" points="217,-56 156,-56 156,-37 217,-37 217,-56"/>
<text text-anchor="middle" x="186.5" y="-44" font-family="Helvetica,sans-Serif" font-size="10.00">Properties</text>
</a>
</g>
</g>
<!-- Node2&#45;&gt;Node1 -->
<g id="edge1" class="edge">
<title>Node2&#45;&gt;Node1</title>
<path fill="none" stroke="black" d="M130.4,-46.5C139.27,-46.5 147.95,-46.5 155.7,-46.5"/>
<polygon fill="black" stroke="black" points="130.33,-43 120.33,-46.5 130.33,-50 130.33,-43"/>
</g>
<!-- Node1&#45;&gt;Node4 -->
<g id="edge3" class="edge">
<title>Node1&#45;&gt;Node4</title>
<path fill="none" stroke="black" d="M227.04,-58.54C243.38,-63.52 262.07,-69.21 277.46,-73.9"/>
<polygon fill="black" stroke="black" points="227.81,-55.12 217.22,-55.55 225.77,-61.81 227.81,-55.12"/>
</g>
<!-- Node3 -->
<g id="node4" class="node">
<title>Node3</title>
<g id="a_node4"><a xlink:href="a00515.html" target="_top" xlink:title="List of variables of the Special Function state machine extensions.">
<polygon fill="white" stroke="black" points="367,-56 253,-56 253,-37 367,-37 367,-56"/>
<text text-anchor="middle" x="310" y="-44" font-family="Helvetica,sans-Serif" font-size="10.00">Variables &amp; Constants</text>
</a>
</g>
</g>
<!-- Node1&#45;&gt;Node3 -->
<g id="edge2" class="edge">
<title>Node1&#45;&gt;Node3</title>
<path fill="none" stroke="black" d="M227.41,-46.5C235.45,-46.5 244.04,-46.5 252.52,-46.5"/>
<polygon fill="black" stroke="black" points="227.22,-43 217.22,-46.5 227.22,-50 227.22,-43"/>
</g>
<!-- Node5 -->
<g id="node5" class="node">
<title>Node5</title>
<g id="a_node5"><a xlink:href="a00517.html" target="_top" xlink:title="List of defines and macros of the Special Function state machine extensions.">
<polygon fill="white" stroke="black" points="361.5,-19 258.5,-19 258.5,0 361.5,0 361.5,-19"/>
<text text-anchor="middle" x="310" y="-7" font-family="Helvetica,sans-Serif" font-size="10.00">Defines and Macros</text>
</a>
</g>
</g>
<!-- Node1&#45;&gt;Node5 -->
<g id="edge4" class="edge">
<title>Node1&#45;&gt;Node5</title>
<path fill="none" stroke="black" d="M227.04,-34.46C243.38,-29.48 262.07,-23.79 277.46,-19.1"/>
<polygon fill="black" stroke="black" points="225.77,-31.19 217.22,-37.45 227.81,-37.88 225.77,-31.19"/>
</g>
</g>
</svg>
