<?xml version="1.0" encoding="UTF-8" standalone="no"?>
<!DOCTYPE svg PUBLIC "-//W3C//DTD SVG 1.1//EN"
 "http://www.w3.org/Graphics/SVG/1.1/DTD/svg11.dtd">
<!-- Generated by graphviz version 2.44.1 (20200629.0846)
 -->
<!-- Title: Buck Peripheral Configuration Pages: 1 -->
<svg width="401pt" height="64pt"
 viewBox="0.00 0.00 401.00 64.00" xmlns="http://www.w3.org/2000/svg" xmlns:xlink="http://www.w3.org/1999/xlink">
<g id="graph0" class="graph" transform="scale(1 1) rotate(0) translate(4 60)">
<title>Buck Peripheral Configuration</title>
<polygon fill="white" stroke="transparent" points="-4,4 -4,-60 397,-60 397,4 -4,4"/>
<!-- Node1 -->
<g id="node1" class="node">
<title>Node1</title>
<g id="a_node1"><a xlink:title=" ">
<polygon fill="#bfbfbf" stroke="black" points="296,-37 151,-37 151,-18 296,-18 296,-37"/>
<text text-anchor="middle" x="223.5" y="-25" font-family="Helvetica,sans-Serif" font-size="10.00">Buck Peripheral Configuration</text>
</a>
</g>
</g>
<!-- Node3 -->
<g id="node2" class="node">
<title>Node3</title>
<g id="a_node2"><a xlink:href="a00519.html" target="_top" xlink:title="Functions of the second library layer.">
<polygon fill="white" stroke="black" points="392,-56 333,-56 333,-37 392,-37 392,-56"/>
<text text-anchor="middle" x="362.5" y="-44" font-family="Helvetica,sans-Serif" font-size="10.00">Functions</text>
</a>
</g>
</g>
<!-- Node1&#45;&gt;Node3 -->
<g id="edge2" class="edge">
<title>Node1&#45;&gt;Node3</title>
<path fill="none" stroke="black" d="M303.53,-38.46C314.02,-39.92 324.18,-41.32 332.98,-42.54"/>
<polygon fill="black" stroke="black" points="303.79,-34.96 293.4,-37.06 302.83,-41.9 303.79,-34.96"/>
</g>
<!-- Node4 -->
<g id="node3" class="node">
<title>Node4</title>
<g id="a_node3"><a xlink:href="a00520.html" target="_top" xlink:title="Properties of the second library layer.">
<polygon fill="white" stroke="black" points="393,-19 332,-19 332,0 393,0 393,-19"/>
<text text-anchor="middle" x="362.5" y="-7" font-family="Helvetica,sans-Serif" font-size="10.00">Properties</text>
</a>
</g>
</g>
<!-- Node1&#45;&gt;Node4 -->
<g id="edge3" class="edge">
<title>Node1&#45;&gt;Node4</title>
<path fill="none" stroke="black" d="M306.16,-16.77C315.24,-15.58 323.99,-14.43 331.76,-13.41"/>
<polygon fill="black" stroke="black" points="305.67,-13.31 296.21,-18.08 306.58,-20.25 305.67,-13.31"/>
</g>
<!-- Node2 -->
<g id="node4" class="node">
<title>Node2</title>
<g id="a_node4"><a xlink:href="a00505.html" target="_top" xlink:title=" ">
<polygon fill="white" stroke="black" points="115,-42.5 0,-42.5 0,-12.5 115,-12.5 115,-42.5"/>
<text text-anchor="start" x="8" y="-30.5" font-family="Helvetica,sans-Serif" font-size="10.00">Buck Converter Library</text>
<text text-anchor="middle" x="57.5" y="-19.5" font-family="Helvetica,sans-Serif" font-size="10.00"> Modules</text>
</a>
</g>
</g>
<!-- Node2&#45;&gt;Node1 -->
<g id="edge1" class="edge">
<title>Node2&#45;&gt;Node1</title>
<path fill="none" stroke="black" d="M125.5,-27.5C133.9,-27.5 142.51,-27.5 150.97,-27.5"/>
<polygon fill="black" stroke="black" points="125.4,-24 115.4,-27.5 125.4,-31 125.4,-24"/>
</g>
</g>
</svg>
