<?xml version="1.0" encoding="UTF-8" standalone="no"?>
<!DOCTYPE svg PUBLIC "-//W3C//DTD SVG 1.1//EN"
 "http://www.w3.org/Graphics/SVG/1.1/DTD/svg11.dtd">
<!-- Generated by graphviz version 2.44.1 (20200629.0846)
 -->
<!-- Title: appPushButton_EventButtonLongPress Pages: 1 -->
<svg width="464pt" height="39pt"
 viewBox="0.00 0.00 464.00 39.00" xmlns="http://www.w3.org/2000/svg" xmlns:xlink="http://www.w3.org/1999/xlink">
<g id="graph0" class="graph" transform="scale(1 1) rotate(0) translate(4 35)">
<title>appPushButton_EventButtonLongPress</title>
<polygon fill="white" stroke="transparent" points="-4,4 -4,-35 460,-35 460,4 -4,4"/>
<!-- Node1 -->
<g id="node1" class="node">
<title>Node1</title>
<g id="a_node1"><a xlink:title="Push button event raised at the &quot;is long pressed&quot; detection.">
<polygon fill="#bfbfbf" stroke="black" points="315,-0.5 315,-30.5 456,-30.5 456,-0.5 315,-0.5"/>
<text text-anchor="start" x="323" y="-18.5" font-family="Helvetica,sans-Serif" font-size="10.00">appPushButton_EventButton</text>
<text text-anchor="middle" x="385.5" y="-7.5" font-family="Helvetica,sans-Serif" font-size="10.00">LongPress</text>
</a>
</g>
</g>
<!-- Node2 -->
<g id="node2" class="node">
<title>Node2</title>
<g id="a_node2"><a xlink:href="a00539.html#ga7c903bd2ce5b08d78de218d726830947" target="_top" xlink:title="Initializes the USER push button on DPSK3.">
<polygon fill="white" stroke="black" points="155,-6 155,-25 279,-25 279,-6 155,-6"/>
<text text-anchor="middle" x="217" y="-13" font-family="Helvetica,sans-Serif" font-size="10.00">appPushButton_Initialize</text>
</a>
</g>
</g>
<!-- Node1&#45;&gt;Node2 -->
<g id="edge1" class="edge">
<title>Node1&#45;&gt;Node2</title>
<path fill="none" stroke="midnightblue" d="M304.79,-15.5C296.17,-15.5 287.51,-15.5 279.16,-15.5"/>
<polygon fill="midnightblue" stroke="midnightblue" points="304.85,-19 314.85,-15.5 304.85,-12 304.85,-19"/>
</g>
<!-- Node3 -->
<g id="node3" class="node">
<title>Node3</title>
<g id="a_node3"><a xlink:href="a00564.html#ga2be64f5f0b9a2c0c6713f5a69d793e05" target="_top" xlink:title="Initializes the user&#45;defined tasks.">
<polygon fill="white" stroke="black" points="0,-6 0,-25 119,-25 119,-6 0,-6"/>
<text text-anchor="middle" x="59.5" y="-13" font-family="Helvetica,sans-Serif" font-size="10.00">sysUserTasks_Initialize</text>
</a>
</g>
</g>
<!-- Node2&#45;&gt;Node3 -->
<g id="edge2" class="edge">
<title>Node2&#45;&gt;Node3</title>
<path fill="none" stroke="midnightblue" d="M144.91,-15.5C136.25,-15.5 127.49,-15.5 119.05,-15.5"/>
<polygon fill="midnightblue" stroke="midnightblue" points="144.99,-19 154.99,-15.5 144.99,-12 144.99,-19"/>
</g>
</g>
</svg>
