<?xml version="1.0" encoding="UTF-8" standalone="no"?>
<!DOCTYPE svg PUBLIC "-//W3C//DTD SVG 1.1//EN"
 "http://www.w3.org/Graphics/SVG/1.1/DTD/svg11.dtd">
<!-- Generated by graphviz version 2.44.1 (20200629.0846)
 -->
<!-- Title: Application Layer Pages: 1 -->
<svg width="271pt" height="230pt"
 viewBox="0.00 0.00 271.00 230.00" xmlns="http://www.w3.org/2000/svg" xmlns:xlink="http://www.w3.org/1999/xlink">
<g id="graph0" class="graph" transform="scale(1 1) rotate(0) translate(4 226)">
<title>Application Layer</title>
<polygon fill="white" stroke="transparent" points="-4,4 -4,-226 267,-226 267,4 -4,4"/>
<!-- Node5 -->
<g id="node1" class="node">
<title>Node5</title>
<g id="a_node1"><a xlink:href="a00488.html" target="_top" xlink:title=" ">
<polygon fill="white" stroke="black" points="259.5,-222 131.5,-222 131.5,-192 259.5,-192 259.5,-222"/>
<text text-anchor="start" x="139.5" y="-210" font-family="Helvetica,sans-Serif" font-size="10.00">Power Control Application</text>
<text text-anchor="middle" x="195.5" y="-199" font-family="Helvetica,sans-Serif" font-size="10.00"> Layer</text>
</a>
</g>
</g>
<!-- Node2 -->
<g id="node2" class="node">
<title>Node2</title>
<g id="a_node2"><a xlink:href="a00452.html" target="_top" xlink:title=" ">
<polygon fill="white" stroke="black" points="258,-174 133,-174 133,-144 258,-144 258,-174"/>
<text text-anchor="start" x="141" y="-162" font-family="Helvetica,sans-Serif" font-size="10.00">Fault Monitor Application</text>
<text text-anchor="middle" x="195.5" y="-151" font-family="Helvetica,sans-Serif" font-size="10.00"> Layer</text>
</a>
</g>
</g>
<!-- Node1 -->
<g id="node3" class="node">
<title>Node1</title>
<g id="a_node3"><a xlink:title="Task Layer.">
<polygon fill="#bfbfbf" stroke="black" points="92,-120.5 0,-120.5 0,-101.5 92,-101.5 92,-120.5"/>
<text text-anchor="middle" x="46" y="-108.5" font-family="Helvetica,sans-Serif" font-size="10.00">Application Layer</text>
</a>
</g>
</g>
<!-- Node1&#45;&gt;Node5 -->
<g id="edge4" class="edge">
<title>Node1&#45;&gt;Node5</title>
<path fill="none" stroke="black" d="M62.67,-128.3C78,-144.34 102.66,-167.93 128,-183 133.59,-186.33 139.72,-189.3 145.92,-191.93"/>
<polygon fill="black" stroke="black" points="64.94,-125.6 55.56,-120.68 59.83,-130.38 64.94,-125.6"/>
</g>
<!-- Node1&#45;&gt;Node2 -->
<g id="edge1" class="edge">
<title>Node1&#45;&gt;Node2</title>
<path fill="none" stroke="black" d="M86.07,-123.71C105.15,-129.92 128.25,-137.44 148.21,-143.94"/>
<polygon fill="black" stroke="black" points="87.09,-120.36 76.49,-120.6 84.92,-127.02 87.09,-120.36"/>
</g>
<!-- Node3 -->
<g id="node4" class="node">
<title>Node3</title>
<g id="a_node4"><a xlink:href="a00468.html" target="_top" xlink:title=" ">
<polygon fill="white" stroke="black" points="253,-126 138,-126 138,-96 253,-96 253,-126"/>
<text text-anchor="start" x="146" y="-114" font-family="Helvetica,sans-Serif" font-size="10.00">LC&#45;Display Application</text>
<text text-anchor="middle" x="195.5" y="-103" font-family="Helvetica,sans-Serif" font-size="10.00"> Layer</text>
</a>
</g>
</g>
<!-- Node1&#45;&gt;Node3 -->
<g id="edge2" class="edge">
<title>Node1&#45;&gt;Node3</title>
<path fill="none" stroke="black" d="M102.14,-111C113.85,-111 126.23,-111 137.98,-111"/>
<polygon fill="black" stroke="black" points="102.06,-107.5 92.06,-111 102.06,-114.5 102.06,-107.5"/>
</g>
<!-- Node6 -->
<g id="node5" class="node">
<title>Node6</title>
<g id="a_node5"><a xlink:href="a00538.html" target="_top" xlink:title=" ">
<polygon fill="white" stroke="black" points="256.5,-78 134.5,-78 134.5,-48 256.5,-48 256.5,-78"/>
<text text-anchor="start" x="142.5" y="-66" font-family="Helvetica,sans-Serif" font-size="10.00">Push&#45;Button Application</text>
<text text-anchor="middle" x="195.5" y="-55" font-family="Helvetica,sans-Serif" font-size="10.00"> Layer</text>
</a>
</g>
</g>
<!-- Node1&#45;&gt;Node6 -->
<g id="edge5" class="edge">
<title>Node1&#45;&gt;Node6</title>
<path fill="none" stroke="black" d="M86.07,-98.29C105.15,-92.08 128.25,-84.56 148.21,-78.06"/>
<polygon fill="black" stroke="black" points="84.92,-94.98 76.49,-101.4 87.09,-101.64 84.92,-94.98"/>
</g>
<!-- Node4 -->
<g id="node6" class="node">
<title>Node4</title>
<g id="a_node6"><a xlink:href="a00483.html" target="_top" xlink:title=" ">
<polygon fill="white" stroke="black" points="263,-30 128,-30 128,0 263,0 263,-30"/>
<text text-anchor="start" x="136" y="-18" font-family="Helvetica,sans-Serif" font-size="10.00">Debugging LED Application</text>
<text text-anchor="middle" x="195.5" y="-7" font-family="Helvetica,sans-Serif" font-size="10.00"> Layer</text>
</a>
</g>
</g>
<!-- Node1&#45;&gt;Node4 -->
<g id="edge3" class="edge">
<title>Node1&#45;&gt;Node4</title>
<path fill="none" stroke="black" d="M62.67,-93.7C78,-77.66 102.66,-54.07 128,-39 133.59,-35.67 139.72,-32.7 145.92,-30.07"/>
<polygon fill="black" stroke="black" points="59.83,-91.62 55.56,-101.32 64.94,-96.4 59.83,-91.62"/>
</g>
</g>
</svg>
