<?xml version="1.0" encoding="UTF-8" standalone="no"?>
<!DOCTYPE svg PUBLIC "-//W3C//DTD SVG 1.1//EN"
 "http://www.w3.org/Graphics/SVG/1.1/DTD/svg11.dtd">
<!-- Generated by graphviz version 2.44.1 (20200629.0846)
 -->
<!-- Title: Properties Pages: 1 -->
<svg width="364pt" height="101pt"
 viewBox="0.00 0.00 364.00 101.00" xmlns="http://www.w3.org/2000/svg" xmlns:xlink="http://www.w3.org/1999/xlink">
<g id="graph0" class="graph" transform="scale(1 1) rotate(0) translate(4 97)">
<title>Properties</title>
<polygon fill="white" stroke="transparent" points="-4,4 -4,-97 360,-97 360,4 -4,4"/>
<!-- Node3 -->
<g id="node1" class="node">
<title>Node3</title>
<g id="a_node1"><a xlink:href="a00509.html" target="_top" xlink:title="Variables of the buck converter state machine.">
<polygon fill="white" stroke="black" points="356,-93 242,-93 242,-74 356,-74 356,-93"/>
<text text-anchor="middle" x="299" y="-81" font-family="Helvetica,sans-Serif" font-size="10.00">Variables &amp; Constants</text>
</a>
</g>
</g>
<!-- Node1 -->
<g id="node2" class="node">
<title>Node1</title>
<g id="a_node2"><a xlink:title="Properties of the second library layer.">
<polygon fill="#bfbfbf" stroke="black" points="206,-56 145,-56 145,-37 206,-37 206,-56"/>
<text text-anchor="middle" x="175.5" y="-44" font-family="Helvetica,sans-Serif" font-size="10.00">Properties</text>
</a>
</g>
</g>
<!-- Node1&#45;&gt;Node3 -->
<g id="edge2" class="edge">
<title>Node1&#45;&gt;Node3</title>
<path fill="none" stroke="black" d="M216.04,-58.54C232.38,-63.52 251.07,-69.21 266.46,-73.9"/>
<polygon fill="black" stroke="black" points="216.81,-55.12 206.22,-55.55 214.77,-61.81 216.81,-55.12"/>
</g>
<!-- Node5 -->
<g id="node3" class="node">
<title>Node5</title>
<g id="a_node3"><a xlink:href="a00511.html" target="_top" xlink:title="Defines and macros of the buck converter state machine.">
<polygon fill="white" stroke="black" points="350.5,-56 247.5,-56 247.5,-37 350.5,-37 350.5,-56"/>
<text text-anchor="middle" x="299" y="-44" font-family="Helvetica,sans-Serif" font-size="10.00">Defines and Macros</text>
</a>
</g>
</g>
<!-- Node1&#45;&gt;Node5 -->
<g id="edge4" class="edge">
<title>Node1&#45;&gt;Node5</title>
<path fill="none" stroke="black" d="M216.51,-46.5C226.35,-46.5 237.01,-46.5 247.28,-46.5"/>
<polygon fill="black" stroke="black" points="216.22,-43 206.22,-46.5 216.22,-50 216.22,-43"/>
</g>
<!-- Node4 -->
<g id="node4" class="node">
<title>Node4</title>
<g id="a_node4"><a xlink:href="a00510.html" target="_top" xlink:title="Data types of the buck converter state machine.">
<polygon fill="white" stroke="black" points="332,-19 266,-19 266,0 332,0 332,-19"/>
<text text-anchor="middle" x="299" y="-7" font-family="Helvetica,sans-Serif" font-size="10.00">Data Types</text>
</a>
</g>
</g>
<!-- Node1&#45;&gt;Node4 -->
<g id="edge3" class="edge">
<title>Node1&#45;&gt;Node4</title>
<path fill="none" stroke="black" d="M216.04,-34.46C232.38,-29.48 251.07,-23.79 266.46,-19.1"/>
<polygon fill="black" stroke="black" points="214.77,-31.19 206.22,-37.45 216.81,-37.88 214.77,-31.19"/>
</g>
<!-- Node2 -->
<g id="node5" class="node">
<title>Node2</title>
<g id="a_node5"><a xlink:href="a00506.html" target="_top" xlink:title="Description of the Buck Converter Library State Machine library module.">
<polygon fill="white" stroke="black" points="109,-61.5 0,-61.5 0,-31.5 109,-31.5 109,-61.5"/>
<text text-anchor="start" x="8" y="-49.5" font-family="Helvetica,sans-Serif" font-size="10.00">Buck Converter State</text>
<text text-anchor="middle" x="54.5" y="-38.5" font-family="Helvetica,sans-Serif" font-size="10.00"> Machine</text>
</a>
</g>
</g>
<!-- Node2&#45;&gt;Node1 -->
<g id="edge1" class="edge">
<title>Node2&#45;&gt;Node1</title>
<path fill="none" stroke="black" d="M119.24,-46.5C128.22,-46.5 137.07,-46.5 144.97,-46.5"/>
<polygon fill="black" stroke="black" points="119.08,-43 109.08,-46.5 119.08,-50 119.08,-43"/>
</g>
</g>
</svg>
