<?xml version="1.0" encoding="UTF-8" standalone="no"?>
<!DOCTYPE svg PUBLIC "-//W3C//DTD SVG 1.1//EN"
 "http://www.w3.org/Graphics/SVG/1.1/DTD/svg11.dtd">
<!-- Generated by graphviz version 2.44.1 (20200629.0846)
 -->
<!-- Title: buckPWM_Stop Pages: 1 -->
<svg width="405pt" height="28pt"
 viewBox="0.00 0.00 405.00 28.00" xmlns="http://www.w3.org/2000/svg" xmlns:xlink="http://www.w3.org/1999/xlink">
<g id="graph0" class="graph" transform="scale(1 1) rotate(0) translate(4 24)">
<title>buckPWM_Stop</title>
<polygon fill="white" stroke="transparent" points="-4,4 -4,-24 401,-24 401,4 -4,4"/>
<!-- Node1 -->
<g id="node1" class="node">
<title>Node1</title>
<g id="a_node1"><a xlink:title="This function stops the buck PWM output.">
<polygon fill="#bfbfbf" stroke="black" points="309,-0.5 309,-19.5 397,-19.5 397,-0.5 309,-0.5"/>
<text text-anchor="middle" x="353" y="-7.5" font-family="Helvetica,sans-Serif" font-size="10.00">buckPWM_Stop</text>
</a>
</g>
</g>
<!-- Node2 -->
<g id="node2" class="node">
<title>Node2</title>
<g id="a_node2"><a xlink:href="a00496.html#ga61726ccfa8287fe57683d2aa6423d6e0" target="_top" xlink:title="This function stop the buck converter opration.">
<polygon fill="white" stroke="black" points="151,-0.5 151,-19.5 273,-19.5 273,-0.5 151,-0.5"/>
<text text-anchor="middle" x="212" y="-7.5" font-family="Helvetica,sans-Serif" font-size="10.00">drv_BuckConverter_Stop</text>
</a>
</g>
</g>
<!-- Node1&#45;&gt;Node2 -->
<g id="edge1" class="edge">
<title>Node1&#45;&gt;Node2</title>
<path fill="none" stroke="midnightblue" d="M298.73,-10C290.32,-10 281.58,-10 273.04,-10"/>
<polygon fill="midnightblue" stroke="midnightblue" points="298.78,-13.5 308.78,-10 298.78,-6.5 298.78,-13.5"/>
</g>
<!-- Node3 -->
<g id="node3" class="node">
<title>Node3</title>
<g id="a_node3"><a xlink:href="a00489.html#gaa7d413f62f7b5f25d152cc12354241f0" target="_top" xlink:title="This function calls the buck converter device driver function stopping the power supply.">
<polygon fill="white" stroke="black" points="0,-0.5 0,-19.5 115,-19.5 115,-0.5 0,-0.5"/>
<text text-anchor="middle" x="57.5" y="-7.5" font-family="Helvetica,sans-Serif" font-size="10.00">appPowerSupply_Stop</text>
</a>
</g>
</g>
<!-- Node2&#45;&gt;Node3 -->
<g id="edge2" class="edge">
<title>Node2&#45;&gt;Node3</title>
<path fill="none" stroke="midnightblue" d="M140.52,-10C132.09,-10 123.56,-10 115.35,-10"/>
<polygon fill="midnightblue" stroke="midnightblue" points="140.73,-13.5 150.73,-10 140.73,-6.5 140.73,-13.5"/>
</g>
</g>
</svg>
