<?xml version="1.0" encoding="UTF-8" standalone="no"?>
<!DOCTYPE svg PUBLIC "-//W3C//DTD SVG 1.1//EN"
 "http://www.w3.org/Graphics/SVG/1.1/DTD/svg11.dtd">
<!-- Generated by graphviz version 2.44.1 (20200629.0846)
 -->
<!-- Title: Properties Pages: 1 -->
<svg width="389pt" height="101pt"
 viewBox="0.00 0.00 389.00 101.00" xmlns="http://www.w3.org/2000/svg" xmlns:xlink="http://www.w3.org/1999/xlink">
<g id="graph0" class="graph" transform="scale(1 1) rotate(0) translate(4 97)">
<title>Properties</title>
<polygon fill="white" stroke="transparent" points="-4,4 -4,-97 385,-97 385,4 -4,4"/>
<!-- Node5 -->
<g id="node1" class="node">
<title>Node5</title>
<g id="a_node1"><a xlink:href="a00529.html" target="_top" xlink:title=" ">
<polygon fill="white" stroke="black" points="375.5,-93 272.5,-93 272.5,-74 375.5,-74 375.5,-93"/>
<text text-anchor="middle" x="324" y="-81" font-family="Helvetica,sans-Serif" font-size="10.00">Defines and Macros</text>
</a>
</g>
</g>
<!-- Node4 -->
<g id="node2" class="node">
<title>Node4</title>
<g id="a_node2"><a xlink:href="a00528.html" target="_top" xlink:title=" ">
<polygon fill="white" stroke="black" points="357,-56 291,-56 291,-37 357,-37 357,-56"/>
<text text-anchor="middle" x="324" y="-44" font-family="Helvetica,sans-Serif" font-size="10.00">Data Types</text>
</a>
</g>
</g>
<!-- Node1 -->
<g id="node3" class="node">
<title>Node1</title>
<g id="a_node3"><a xlink:title="Properties of the second library layer.">
<polygon fill="#bfbfbf" stroke="black" points="231,-56 170,-56 170,-37 231,-37 231,-56"/>
<text text-anchor="middle" x="200.5" y="-44" font-family="Helvetica,sans-Serif" font-size="10.00">Properties</text>
</a>
</g>
</g>
<!-- Node1&#45;&gt;Node5 -->
<g id="edge4" class="edge">
<title>Node1&#45;&gt;Node5</title>
<path fill="none" stroke="black" d="M241.04,-58.54C257.38,-63.52 276.07,-69.21 291.46,-73.9"/>
<polygon fill="black" stroke="black" points="241.81,-55.12 231.22,-55.55 239.77,-61.81 241.81,-55.12"/>
</g>
<!-- Node1&#45;&gt;Node4 -->
<g id="edge3" class="edge">
<title>Node1&#45;&gt;Node4</title>
<path fill="none" stroke="black" d="M241.34,-46.5C257.31,-46.5 275.47,-46.5 290.6,-46.5"/>
<polygon fill="black" stroke="black" points="241.22,-43 231.22,-46.5 241.22,-50 241.22,-43"/>
</g>
<!-- Node3 -->
<g id="node4" class="node">
<title>Node3</title>
<g id="a_node4"><a xlink:href="a00527.html" target="_top" xlink:title=" ">
<polygon fill="white" stroke="black" points="381,-19 267,-19 267,0 381,0 381,-19"/>
<text text-anchor="middle" x="324" y="-7" font-family="Helvetica,sans-Serif" font-size="10.00">Variables &amp; Constants</text>
</a>
</g>
</g>
<!-- Node1&#45;&gt;Node3 -->
<g id="edge2" class="edge">
<title>Node1&#45;&gt;Node3</title>
<path fill="none" stroke="black" d="M241.04,-34.46C257.38,-29.48 276.07,-23.79 291.46,-19.1"/>
<polygon fill="black" stroke="black" points="239.77,-31.19 231.22,-37.45 241.81,-37.88 239.77,-31.19"/>
</g>
<!-- Node2 -->
<g id="node5" class="node">
<title>Node2</title>
<g id="a_node5"><a xlink:href="a00524.html" target="_top" xlink:title=" ">
<polygon fill="white" stroke="black" points="134,-56 0,-56 0,-37 134,-37 134,-56"/>
<text text-anchor="middle" x="67" y="-44" font-family="Helvetica,sans-Serif" font-size="10.00">Buck Peripheral Templates</text>
</a>
</g>
</g>
<!-- Node2&#45;&gt;Node1 -->
<g id="edge1" class="edge">
<title>Node2&#45;&gt;Node1</title>
<path fill="none" stroke="black" d="M144.38,-46.5C153.38,-46.5 162.11,-46.5 169.86,-46.5"/>
<polygon fill="black" stroke="black" points="144.14,-43 134.14,-46.5 144.14,-50 144.14,-43"/>
</g>
</g>
</svg>
