<?xml version="1.0" encoding="UTF-8" standalone="no"?>
<!DOCTYPE svg PUBLIC "-//W3C//DTD SVG 1.1//EN"
 "http://www.w3.org/Graphics/SVG/1.1/DTD/svg11.dtd">
<!-- Generated by graphviz version 2.44.1 (20200629.0846)
 -->
<!-- Title: Hardware Abstraction Layer Pages: 1 -->
<svg width="282pt" height="593pt"
 viewBox="0.00 0.00 282.00 593.00" xmlns="http://www.w3.org/2000/svg" xmlns:xlink="http://www.w3.org/1999/xlink">
<g id="graph0" class="graph" transform="scale(1 1) rotate(0) translate(4 589)">
<title>Hardware Abstraction Layer</title>
<polygon fill="white" stroke="transparent" points="-4,4 -4,-589 278,-589 278,4 -4,4"/>
<!-- Node5 -->
<g id="node1" class="node">
<title>Node5</title>
<g id="a_node1"><a xlink:href="a00398.html" target="_top" xlink:title="Declaration of startup timing periods.">
<polygon fill="white" stroke="black" points="269.5,-585 150.5,-585 150.5,-566 269.5,-566 269.5,-585"/>
<text text-anchor="middle" x="210" y="-573" font-family="Helvetica,sans-Serif" font-size="10.00">Startup Timing Settings</text>
</a>
</g>
</g>
<!-- Node1 -->
<g id="node2" class="node">
<title>Node1</title>
<g id="a_node2"><a xlink:title="Hardware Abstraction Layer Declarations.">
<polygon fill="#bfbfbf" stroke="black" points="110,-313.5 0,-313.5 0,-283.5 110,-283.5 110,-313.5"/>
<text text-anchor="start" x="8" y="-301.5" font-family="Helvetica,sans-Serif" font-size="10.00">Hardware Abstraction</text>
<text text-anchor="middle" x="55" y="-290.5" font-family="Helvetica,sans-Serif" font-size="10.00"> Layer</text>
</a>
</g>
</g>
<!-- Node1&#45;&gt;Node5 -->
<g id="edge4" class="edge">
<title>Node1&#45;&gt;Node5</title>
<path fill="none" stroke="black" d="M57.33,-323.86C61.44,-375.5 78.16,-493.37 146,-557.5 149.64,-560.94 153.88,-563.73 158.43,-565.99"/>
<polygon fill="black" stroke="black" points="60.81,-323.34 56.62,-313.61 53.82,-323.83 60.81,-323.34"/>
</g>
<!-- Node15 -->
<g id="node3" class="node">
<title>Node15</title>
<g id="a_node3"><a xlink:href="a00448.html" target="_top" xlink:title=" ">
<polygon fill="white" stroke="black" points="267.5,-548 152.5,-548 152.5,-529 267.5,-529 267.5,-548"/>
<text text-anchor="middle" x="210" y="-536" font-family="Helvetica,sans-Serif" font-size="10.00">Special Circuit Signals</text>
</a>
</g>
</g>
<!-- Node1&#45;&gt;Node15 -->
<g id="edge14" class="edge">
<title>Node1&#45;&gt;Node15</title>
<path fill="none" stroke="black" d="M59.01,-323.77C65.86,-369.79 86.86,-467.36 146,-520.5 149.81,-523.92 154.22,-526.7 158.92,-528.95"/>
<polygon fill="black" stroke="black" points="62.46,-323.18 57.63,-313.75 55.53,-324.14 62.46,-323.18"/>
</g>
<!-- Node8 -->
<g id="node4" class="node">
<title>Node8</title>
<g id="a_node4"><a xlink:href="a00415.html" target="_top" xlink:title="Declaration of input voltage feedback parameters.">
<polygon fill="white" stroke="black" points="269.5,-511 150.5,-511 150.5,-492 269.5,-492 269.5,-511"/>
<text text-anchor="middle" x="210" y="-499" font-family="Helvetica,sans-Serif" font-size="10.00">Input Voltage Feedback</text>
</a>
</g>
</g>
<!-- Node1&#45;&gt;Node8 -->
<g id="edge7" class="edge">
<title>Node1&#45;&gt;Node8</title>
<path fill="none" stroke="black" d="M61.24,-323.47C70.91,-363.3 95.37,-441.02 146,-483.5 150.1,-486.94 154.81,-489.72 159.78,-491.97"/>
<polygon fill="black" stroke="black" points="64.61,-322.49 58.95,-313.53 57.79,-324.06 64.61,-322.49"/>
</g>
<!-- Node4 -->
<g id="node5" class="node">
<title>Node4</title>
<g id="a_node5"><a xlink:href="a00394.html" target="_top" xlink:title="Declaration of global state&#45;machine parameters.">
<polygon fill="white" stroke="black" points="269.5,-474 150.5,-474 150.5,-455 269.5,-455 269.5,-474"/>
<text text-anchor="middle" x="210" y="-462" font-family="Helvetica,sans-Serif" font-size="10.00">State Machine Settings</text>
</a>
</g>
</g>
<!-- Node1&#45;&gt;Node4 -->
<g id="edge3" class="edge">
<title>Node1&#45;&gt;Node4</title>
<path fill="none" stroke="black" d="M64.55,-323.45C77.17,-356.52 103.92,-414.42 146,-446.5 150.52,-449.95 155.68,-452.74 161.06,-454.99"/>
<polygon fill="black" stroke="black" points="67.69,-321.83 60.95,-313.65 61.11,-324.24 67.69,-321.83"/>
</g>
<!-- Node10 -->
<g id="node6" class="node">
<title>Node10</title>
<g id="a_node6"><a xlink:href="a00429.html" target="_top" xlink:title="Declaration of phase current feedback parameters.">
<polygon fill="white" stroke="black" points="272.5,-437 147.5,-437 147.5,-418 272.5,-418 272.5,-437"/>
<text text-anchor="middle" x="210" y="-425" font-family="Helvetica,sans-Serif" font-size="10.00">Phase Current Feedback</text>
</a>
</g>
</g>
<!-- Node1&#45;&gt;Node10 -->
<g id="edge9" class="edge">
<title>Node1&#45;&gt;Node10</title>
<path fill="none" stroke="black" d="M69.72,-322.59C85.16,-347.6 112.53,-386.14 146,-408.5 151.79,-412.37 158.4,-415.48 165.11,-417.96"/>
<polygon fill="black" stroke="black" points="72.54,-320.49 64.39,-313.72 66.54,-324.1 72.54,-320.49"/>
</g>
<!-- Node12 -->
<g id="node7" class="node">
<title>Node12</title>
<g id="a_node7"><a xlink:href="a00440.html" target="_top" xlink:title="Declaration of macros calculating additional parameters for Adaptive Gain Modulation.">
<polygon fill="white" stroke="black" points="265,-399.5 155,-399.5 155,-369.5 265,-369.5 265,-399.5"/>
<text text-anchor="start" x="163" y="-387.5" font-family="Helvetica,sans-Serif" font-size="10.00">Adaptive Gain Control</text>
<text text-anchor="middle" x="210" y="-376.5" font-family="Helvetica,sans-Serif" font-size="10.00"> Feed Forward</text>
</a>
</g>
</g>
<!-- Node1&#45;&gt;Node12 -->
<g id="edge11" class="edge">
<title>Node1&#45;&gt;Node12</title>
<path fill="none" stroke="black" d="M83.15,-319.75C100.47,-332.65 123.77,-348.82 146,-360.5 152.11,-363.71 158.76,-366.72 165.36,-369.44"/>
<polygon fill="black" stroke="black" points="85.25,-316.95 75.16,-313.71 81.03,-322.53 85.25,-316.95"/>
</g>
<!-- Node11 -->
<g id="node8" class="node">
<title>Node11</title>
<g id="a_node8"><a xlink:href="a00436.html" target="_top" xlink:title="Declaration of temperature feedback parameters.">
<polygon fill="white" stroke="black" points="268,-351 152,-351 152,-332 268,-332 268,-351"/>
<text text-anchor="middle" x="210" y="-339" font-family="Helvetica,sans-Serif" font-size="10.00">Temperature Feedback</text>
</a>
</g>
</g>
<!-- Node1&#45;&gt;Node11 -->
<g id="edge10" class="edge">
<title>Node1&#45;&gt;Node11</title>
<path fill="none" stroke="black" d="M119.34,-316.3C138.37,-321.65 158.52,-327.31 174.89,-331.91"/>
<polygon fill="black" stroke="black" points="120.09,-312.88 109.51,-313.54 118.19,-319.61 120.09,-312.88"/>
</g>
<!-- Node13 -->
<g id="node9" class="node">
<title>Node13</title>
<g id="a_node9"><a xlink:href="a00445.html" target="_top" xlink:title="Real&#45;time control loop interrupt service routine declarations.">
<polygon fill="white" stroke="black" points="268.5,-313.5 151.5,-313.5 151.5,-283.5 268.5,-283.5 268.5,-313.5"/>
<text text-anchor="start" x="159.5" y="-301.5" font-family="Helvetica,sans-Serif" font-size="10.00">Control Interrupt Vector</text>
<text text-anchor="middle" x="210" y="-290.5" font-family="Helvetica,sans-Serif" font-size="10.00"> Declarations</text>
</a>
</g>
</g>
<!-- Node1&#45;&gt;Node13 -->
<g id="edge12" class="edge">
<title>Node1&#45;&gt;Node13</title>
<path fill="none" stroke="black" d="M120.51,-298.5C130.78,-298.5 141.34,-298.5 151.43,-298.5"/>
<polygon fill="black" stroke="black" points="120.37,-295 110.37,-298.5 120.37,-302 120.37,-295"/>
</g>
<!-- Node6 -->
<g id="node10" class="node">
<title>Node6</title>
<g id="a_node10"><a xlink:href="a00403.html" target="_top" xlink:title="Declaration of fault object trip and recovery delays.">
<polygon fill="white" stroke="black" points="272,-265 148,-265 148,-246 272,-246 272,-265"/>
<text text-anchor="middle" x="210" y="-253" font-family="Helvetica,sans-Serif" font-size="10.00">Fault Response Settings</text>
</a>
</g>
</g>
<!-- Node1&#45;&gt;Node6 -->
<g id="edge5" class="edge">
<title>Node1&#45;&gt;Node6</title>
<path fill="none" stroke="black" d="M119.34,-280.7C138.37,-275.35 158.52,-269.69 174.89,-265.09"/>
<polygon fill="black" stroke="black" points="118.19,-277.39 109.51,-283.46 120.09,-284.12 118.19,-277.39"/>
</g>
<!-- Node16 -->
<g id="node11" class="node">
<title>Node16</title>
<g id="a_node11"><a xlink:href="a00451.html" target="_top" xlink:title=" ">
<polygon fill="white" stroke="black" points="274,-228 146,-228 146,-209 274,-209 274,-228"/>
<text text-anchor="middle" x="210" y="-216" font-family="Helvetica,sans-Serif" font-size="10.00">Special Firmware Options</text>
</a>
</g>
</g>
<!-- Node1&#45;&gt;Node16 -->
<g id="edge15" class="edge">
<title>Node1&#45;&gt;Node16</title>
<path fill="none" stroke="black" d="M83.06,-276.96C100.28,-264.09 123.5,-248.21 146,-237.5 153.74,-233.82 162.35,-230.66 170.66,-228.04"/>
<polygon fill="black" stroke="black" points="80.47,-274.54 74.64,-283.38 84.71,-280.1 80.47,-274.54"/>
</g>
<!-- Node3 -->
<g id="node12" class="node">
<title>Node3</title>
<g id="a_node12"><a xlink:href="a00391.html" target="_top" xlink:title="Declarations of fundamental microcontroller device parameters.">
<polygon fill="white" stroke="black" points="266,-190.5 154,-190.5 154,-160.5 266,-160.5 266,-190.5"/>
<text text-anchor="start" x="162" y="-178.5" font-family="Helvetica,sans-Serif" font-size="10.00">Microcontroller Device</text>
<text text-anchor="middle" x="210" y="-167.5" font-family="Helvetica,sans-Serif" font-size="10.00"> Abstraction</text>
</a>
</g>
</g>
<!-- Node1&#45;&gt;Node3 -->
<g id="edge2" class="edge">
<title>Node1&#45;&gt;Node3</title>
<path fill="none" stroke="black" d="M72.52,-275.15C89,-253.32 116.1,-221.08 146,-200.5 151.43,-196.76 157.5,-193.47 163.66,-190.59"/>
<polygon fill="black" stroke="black" points="69.67,-273.12 66.54,-283.24 75.3,-277.28 69.67,-273.12"/>
</g>
<!-- Node2 -->
<g id="node13" class="node">
<title>Node2</title>
<g id="a_node13"><a xlink:href="a00390.html" target="_top" xlink:title="Global identified to the hardware version used.">
<polygon fill="white" stroke="black" points="262.5,-142 157.5,-142 157.5,-123 262.5,-123 262.5,-142"/>
<text text-anchor="middle" x="210" y="-130" font-family="Helvetica,sans-Serif" font-size="10.00">Hardware Version ID</text>
</a>
</g>
</g>
<!-- Node1&#45;&gt;Node2 -->
<g id="edge1" class="edge">
<title>Node1&#45;&gt;Node2</title>
<path fill="none" stroke="black" d="M64.86,-273.3C77.69,-240.47 104.53,-183.5 146,-151.5 151.07,-147.59 156.93,-144.48 163,-142.01"/>
<polygon fill="black" stroke="black" points="61.44,-272.46 61.19,-283.05 67.99,-274.93 61.44,-272.46"/>
</g>
<!-- Node14 -->
<g id="node14" class="node">
<title>Node14</title>
<g id="a_node14"><a xlink:href="a00447.html" target="_top" xlink:title="LC display SPI interface GPIO declarations.">
<polygon fill="white" stroke="black" points="262,-104.5 158,-104.5 158,-74.5 262,-74.5 262,-104.5"/>
<text text-anchor="start" x="166" y="-92.5" font-family="Helvetica,sans-Serif" font-size="10.00">LC Display Interface</text>
<text text-anchor="middle" x="210" y="-81.5" font-family="Helvetica,sans-Serif" font-size="10.00"> Declarations</text>
</a>
</g>
</g>
<!-- Node1&#45;&gt;Node14 -->
<g id="edge13" class="edge">
<title>Node1&#45;&gt;Node14</title>
<path fill="none" stroke="black" d="M62.01,-273.4C72.57,-234.33 98.05,-158.88 146,-114.5 150.14,-110.66 154.95,-107.39 160.02,-104.59"/>
<polygon fill="black" stroke="black" points="58.54,-272.84 59.41,-283.39 65.31,-274.59 58.54,-272.84"/>
</g>
<!-- Node7 -->
<g id="node15" class="node">
<title>Node7</title>
<g id="a_node15"><a xlink:href="a00408.html" target="_top" xlink:title="Declaration of fundamental PWM parameters.">
<polygon fill="white" stroke="black" points="250,-56 170,-56 170,-37 250,-37 250,-56"/>
<text text-anchor="middle" x="210" y="-44" font-family="Helvetica,sans-Serif" font-size="10.00">PWM Settings</text>
</a>
</g>
</g>
<!-- Node1&#45;&gt;Node7 -->
<g id="edge6" class="edge">
<title>Node1&#45;&gt;Node7</title>
<path fill="none" stroke="black" d="M58.52,-273.43C64.64,-225.9 84.63,-122.39 146,-65.5 152.62,-59.36 161.15,-55.21 169.79,-52.39"/>
<polygon fill="black" stroke="black" points="55.03,-273.12 57.33,-283.46 61.98,-273.95 55.03,-273.12"/>
</g>
<!-- Node9 -->
<g id="node16" class="node">
<title>Node9</title>
<g id="a_node16"><a xlink:href="a00422.html" target="_top" xlink:title="Declaration of output voltage feedback parameters.">
<polygon fill="white" stroke="black" points="274,-19 146,-19 146,0 274,0 274,-19"/>
<text text-anchor="middle" x="210" y="-7" font-family="Helvetica,sans-Serif" font-size="10.00">Output Voltage Feedback</text>
</a>
</g>
</g>
<!-- Node1&#45;&gt;Node9 -->
<g id="edge8" class="edge">
<title>Node1&#45;&gt;Node9</title>
<path fill="none" stroke="black" d="M56.99,-273.26C60.45,-220.22 76.02,-96.49 146,-28.5 150.01,-24.6 154.8,-21.5 159.92,-19.03"/>
<polygon fill="black" stroke="black" points="53.48,-273.28 56.42,-283.46 60.47,-273.67 53.48,-273.28"/>
</g>
</g>
</svg>
