<?xml version="1.0" encoding="UTF-8" standalone="no"?>
<!DOCTYPE svg PUBLIC "-//W3C//DTD SVG 1.1//EN"
 "http://www.w3.org/Graphics/SVG/1.1/DTD/svg11.dtd">
<!-- Generated by graphviz version 2.44.1 (20200629.0846)
 -->
<!-- Title: Buck Special Functions Pages: 1 -->
<svg width="376pt" height="64pt"
 viewBox="0.00 0.00 376.00 64.00" xmlns="http://www.w3.org/2000/svg" xmlns:xlink="http://www.w3.org/1999/xlink">
<g id="graph0" class="graph" transform="scale(1 1) rotate(0) translate(4 60)">
<title>Buck Special Functions</title>
<polygon fill="white" stroke="transparent" points="-4,4 -4,-60 372,-60 372,4 -4,4"/>
<!-- Node1 -->
<g id="node1" class="node">
<title>Node1</title>
<g id="a_node1"><a xlink:title=" ">
<polygon fill="#bfbfbf" stroke="black" points="271,-37 151,-37 151,-18 271,-18 271,-37"/>
<text text-anchor="middle" x="211" y="-25" font-family="Helvetica,sans-Serif" font-size="10.00">Buck Special Functions</text>
</a>
</g>
</g>
<!-- Node4 -->
<g id="node2" class="node">
<title>Node4</title>
<g id="a_node2"><a xlink:href="a00514.html" target="_top" xlink:title="Public properties of the second library layer.">
<polygon fill="white" stroke="black" points="368,-56 307,-56 307,-37 368,-37 368,-56"/>
<text text-anchor="middle" x="337.5" y="-44" font-family="Helvetica,sans-Serif" font-size="10.00">Properties</text>
</a>
</g>
</g>
<!-- Node1&#45;&gt;Node4 -->
<g id="edge3" class="edge">
<title>Node1&#45;&gt;Node4</title>
<path fill="none" stroke="black" d="M281.4,-38.09C290.27,-39.45 298.95,-40.77 306.7,-41.95"/>
<polygon fill="black" stroke="black" points="281.75,-34.6 271.33,-36.55 280.69,-41.52 281.75,-34.6"/>
</g>
<!-- Node3 -->
<g id="node3" class="node">
<title>Node3</title>
<g id="a_node3"><a xlink:href="a00513.html" target="_top" xlink:title="Public functions of the second library layer.">
<polygon fill="white" stroke="black" points="367,-19 308,-19 308,0 367,0 367,-19"/>
<text text-anchor="middle" x="337.5" y="-7" font-family="Helvetica,sans-Serif" font-size="10.00">Functions</text>
</a>
</g>
</g>
<!-- Node1&#45;&gt;Node3 -->
<g id="edge2" class="edge">
<title>Node1&#45;&gt;Node3</title>
<path fill="none" stroke="black" d="M281.51,-17.45C290.84,-16.1 299.96,-14.78 308,-13.62"/>
<polygon fill="black" stroke="black" points="280.73,-14.03 271.33,-18.92 281.73,-20.95 280.73,-14.03"/>
</g>
<!-- Node2 -->
<g id="node4" class="node">
<title>Node2</title>
<g id="a_node4"><a xlink:href="a00505.html" target="_top" xlink:title=" ">
<polygon fill="white" stroke="black" points="115,-42.5 0,-42.5 0,-12.5 115,-12.5 115,-42.5"/>
<text text-anchor="start" x="8" y="-30.5" font-family="Helvetica,sans-Serif" font-size="10.00">Buck Converter Library</text>
<text text-anchor="middle" x="57.5" y="-19.5" font-family="Helvetica,sans-Serif" font-size="10.00"> Modules</text>
</a>
</g>
</g>
<!-- Node2&#45;&gt;Node1 -->
<g id="edge1" class="edge">
<title>Node2&#45;&gt;Node1</title>
<path fill="none" stroke="black" d="M125.52,-27.5C133.95,-27.5 142.52,-27.5 150.81,-27.5"/>
<polygon fill="black" stroke="black" points="125.34,-24 115.34,-27.5 125.34,-31 125.34,-24"/>
</g>
</g>
</svg>
