<?xml version="1.0" encoding="UTF-8" standalone="no"?>
<!DOCTYPE svg PUBLIC "-//W3C//DTD SVG 1.1//EN"
 "http://www.w3.org/Graphics/SVG/1.1/DTD/svg11.dtd">
<!-- Generated by graphviz version 2.44.1 (20200629.0846)
 -->
<!-- Title: sysLowPriorityTasks_Execute Pages: 1 -->
<svg width="1177pt" height="123pt"
 viewBox="0.00 0.00 1177.00 123.00" xmlns="http://www.w3.org/2000/svg" xmlns:xlink="http://www.w3.org/1999/xlink">
<g id="graph0" class="graph" transform="scale(1 1) rotate(0) translate(4 119)">
<title>sysLowPriorityTasks_Execute</title>
<polygon fill="white" stroke="transparent" points="-4,4 -4,-119 1173,-119 1173,4 -4,4"/>
<!-- Node1 -->
<g id="node1" class="node">
<title>Node1</title>
<g id="a_node1"><a xlink:title="Low priority task sequence executed after the high priority task sequence execution is complete.">
<polygon fill="#bfbfbf" stroke="black" points="0,-33 0,-63 107,-63 107,-33 0,-33"/>
<text text-anchor="start" x="8" y="-51" font-family="Helvetica,sans-Serif" font-size="10.00">sysLowPriorityTasks</text>
<text text-anchor="middle" x="53.5" y="-40" font-family="Helvetica,sans-Serif" font-size="10.00">_Execute</text>
</a>
</g>
</g>
<!-- Node2 -->
<g id="node2" class="node">
<title>Node2</title>
<g id="a_node2"><a xlink:href="a00469.html#gacd8e3f8ca8af94f13f7efa0df7ced6f5" target="_top" xlink:title="Refreshes the LC display.">
<polygon fill="white" stroke="black" points="159.5,-76.5 159.5,-95.5 251.5,-95.5 251.5,-76.5 159.5,-76.5"/>
<text text-anchor="middle" x="205.5" y="-83.5" font-family="Helvetica,sans-Serif" font-size="10.00">appLCD_Execute</text>
</a>
</g>
</g>
<!-- Node1&#45;&gt;Node2 -->
<g id="edge1" class="edge">
<title>Node1&#45;&gt;Node2</title>
<path fill="none" stroke="midnightblue" d="M107.38,-61.4C123.44,-65.46 140.97,-69.91 156.67,-73.88"/>
<polygon fill="midnightblue" stroke="midnightblue" points="156.14,-77.36 166.69,-76.42 157.86,-70.57 156.14,-77.36"/>
</g>
<!-- Node10 -->
<g id="node10" class="node">
<title>Node10</title>
<g id="a_node10"><a xlink:href="a00484.html#gaaa8c86cbd692a090f955022c93593a68" target="_top" xlink:title="Executes the debugging LED driver.">
<polygon fill="white" stroke="black" points="159.5,-38.5 159.5,-57.5 251.5,-57.5 251.5,-38.5 159.5,-38.5"/>
<text text-anchor="middle" x="205.5" y="-45.5" font-family="Helvetica,sans-Serif" font-size="10.00">appLED_Execute</text>
</a>
</g>
</g>
<!-- Node1&#45;&gt;Node10 -->
<g id="edge11" class="edge">
<title>Node1&#45;&gt;Node10</title>
<path fill="none" stroke="midnightblue" d="M107.38,-48C120.83,-48 135.31,-48 148.89,-48"/>
<polygon fill="midnightblue" stroke="midnightblue" points="149.06,-51.5 159.06,-48 149.06,-44.5 149.06,-51.5"/>
</g>
<!-- Node11 -->
<g id="node11" class="node">
<title>Node11</title>
<g id="a_node11"><a xlink:href="a00539.html#gac8eaed20cfb248e14fe71e45483203f7" target="_top" xlink:title="Executes the USER push button monitor.">
<polygon fill="white" stroke="black" points="143,-0.5 143,-19.5 268,-19.5 268,-0.5 143,-0.5"/>
<text text-anchor="middle" x="205.5" y="-7.5" font-family="Helvetica,sans-Serif" font-size="10.00">appPushButton_Execute</text>
</a>
</g>
</g>
<!-- Node1&#45;&gt;Node11 -->
<g id="edge12" class="edge">
<title>Node1&#45;&gt;Node11</title>
<path fill="none" stroke="midnightblue" d="M107.38,-34.6C123.44,-30.54 140.97,-26.09 156.67,-22.12"/>
<polygon fill="midnightblue" stroke="midnightblue" points="157.86,-25.43 166.69,-19.58 156.14,-18.64 157.86,-25.43"/>
</g>
<!-- Node3 -->
<g id="node3" class="node">
<title>Node3</title>
<g id="a_node3"><a xlink:href="a00474.html#ga24701a4c3ae760e7e0b9c70d93370ff3" target="_top" xlink:title="Sets the cursor position to the given x&#45; and y&#45;coordinates and writes the given string on the lcd scr...">
<polygon fill="white" stroke="black" points="308,-76.5 308,-95.5 426,-95.5 426,-76.5 308,-76.5"/>
<text text-anchor="middle" x="367" y="-83.5" font-family="Helvetica,sans-Serif" font-size="10.00">dev_Lcd_WriteStringXY</text>
</a>
</g>
</g>
<!-- Node2&#45;&gt;Node3 -->
<g id="edge2" class="edge">
<title>Node2&#45;&gt;Node3</title>
<path fill="none" stroke="midnightblue" d="M251.78,-86C266.06,-86 282.16,-86 297.68,-86"/>
<polygon fill="midnightblue" stroke="midnightblue" points="297.76,-89.5 307.76,-86 297.76,-82.5 297.76,-89.5"/>
</g>
<!-- Node4 -->
<g id="node4" class="node">
<title>Node4</title>
<g id="a_node4"><a xlink:href="a00474.html#ga5c431635cb94750b2f6e938d7f1f0cf1" target="_top" xlink:title="Sets the cursor position to the given x&#45; and y&#45;coordinates.">
<polygon fill="white" stroke="black" points="745,-95.5 745,-114.5 835,-114.5 835,-95.5 745,-95.5"/>
<text text-anchor="middle" x="790" y="-102.5" font-family="Helvetica,sans-Serif" font-size="10.00">dev_Lcd_GotoXY</text>
</a>
</g>
</g>
<!-- Node3&#45;&gt;Node4 -->
<g id="edge3" class="edge">
<title>Node3&#45;&gt;Node4</title>
<path fill="none" stroke="midnightblue" d="M426.1,-88.62C507.7,-92.3 655.16,-98.96 734.67,-102.55"/>
<polygon fill="midnightblue" stroke="midnightblue" points="734.81,-106.06 744.96,-103.01 735.13,-99.07 734.81,-106.06"/>
</g>
<!-- Node7 -->
<g id="node7" class="node">
<title>Node7</title>
<g id="a_node7"><a xlink:href="a00474.html#gac07de05132918ca2db8cf4492819eca6" target="_top" xlink:title="Writes a complete string on the LCD screen.">
<polygon fill="white" stroke="black" points="466,-57.5 466,-76.5 572,-76.5 572,-57.5 466,-57.5"/>
<text text-anchor="middle" x="519" y="-64.5" font-family="Helvetica,sans-Serif" font-size="10.00">dev_Lcd_WriteString</text>
</a>
</g>
</g>
<!-- Node3&#45;&gt;Node7 -->
<g id="edge6" class="edge">
<title>Node3&#45;&gt;Node7</title>
<path fill="none" stroke="midnightblue" d="M426.42,-78.6C436.07,-77.38 446.1,-76.11 455.84,-74.87"/>
<polygon fill="midnightblue" stroke="midnightblue" points="456.36,-78.34 465.84,-73.61 455.48,-71.39 456.36,-78.34"/>
</g>
<!-- Node5 -->
<g id="node5" class="node">
<title>Node5</title>
<g id="a_node5"><a xlink:href="a00479.html#ga3e045335a3463f6a53e4fd91b50bb0ca" target="_top" xlink:title="Sends a command to the LCD controller.">
<polygon fill="white" stroke="black" points="871,-76.5 871,-95.5 1005,-95.5 1005,-76.5 871,-76.5"/>
<text text-anchor="middle" x="938" y="-83.5" font-family="Helvetica,sans-Serif" font-size="10.00">drv_LcdInterface_SendCmd</text>
</a>
</g>
</g>
<!-- Node4&#45;&gt;Node5 -->
<g id="edge4" class="edge">
<title>Node4&#45;&gt;Node5</title>
<path fill="none" stroke="midnightblue" d="M835.2,-99.25C843.37,-98.18 852.12,-97.05 860.92,-95.9"/>
<polygon fill="midnightblue" stroke="midnightblue" points="861.4,-99.37 870.86,-94.61 860.49,-92.43 861.4,-99.37"/>
</g>
<!-- Node6 -->
<g id="node6" class="node">
<title>Node6</title>
<g id="a_node6"><a xlink:href="a00481.html#ga50b8734fca19fc75dd778a9902c63082" target="_top" xlink:title="Sends data through the SPI interface to the LCD controller.">
<polygon fill="white" stroke="black" points="1041,-76.5 1041,-95.5 1169,-95.5 1169,-76.5 1041,-76.5"/>
<text text-anchor="middle" x="1105" y="-83.5" font-family="Helvetica,sans-Serif" font-size="10.00">drv_LcdInterface_SpiSend</text>
</a>
</g>
</g>
<!-- Node5&#45;&gt;Node6 -->
<g id="edge5" class="edge">
<title>Node5&#45;&gt;Node6</title>
<path fill="none" stroke="midnightblue" d="M1005.16,-86C1013.51,-86 1022.09,-86 1030.55,-86"/>
<polygon fill="midnightblue" stroke="midnightblue" points="1030.77,-89.5 1040.77,-86 1030.77,-82.5 1030.77,-89.5"/>
</g>
<!-- Node8 -->
<g id="node8" class="node">
<title>Node8</title>
<g id="a_node8"><a xlink:href="a00474.html#ga3cb1303cba012af043a87af0bcab16d8" target="_top" xlink:title="Writes a character on the LCD screen.">
<polygon fill="white" stroke="black" points="608,-57.5 608,-76.5 709,-76.5 709,-57.5 608,-57.5"/>
<text text-anchor="middle" x="658.5" y="-64.5" font-family="Helvetica,sans-Serif" font-size="10.00">dev_Lcd_WriteChar</text>
</a>
</g>
</g>
<!-- Node7&#45;&gt;Node8 -->
<g id="edge7" class="edge">
<title>Node7&#45;&gt;Node8</title>
<path fill="none" stroke="midnightblue" d="M572.38,-67C580.68,-67 589.33,-67 597.79,-67"/>
<polygon fill="midnightblue" stroke="midnightblue" points="597.99,-70.5 607.99,-67 597.99,-63.5 597.99,-70.5"/>
</g>
<!-- Node8&#45;&gt;Node4 -->
<g id="edge10" class="edge">
<title>Node8&#45;&gt;Node4</title>
<path fill="none" stroke="midnightblue" d="M692.18,-76.59C708.59,-81.4 728.68,-87.3 746.29,-92.47"/>
<polygon fill="midnightblue" stroke="midnightblue" points="745.75,-95.96 756.33,-95.41 747.72,-89.24 745.75,-95.96"/>
</g>
<!-- Node9 -->
<g id="node9" class="node">
<title>Node9</title>
<g id="a_node9"><a xlink:href="a00474.html#ga0bff8adf9ea1196bdd69b3e47b2b77cd" target="_top" xlink:title="Clears the LC Display Screen.">
<polygon fill="white" stroke="black" points="750,-57.5 750,-76.5 830,-76.5 830,-57.5 750,-57.5"/>
<text text-anchor="middle" x="790" y="-64.5" font-family="Helvetica,sans-Serif" font-size="10.00">dev_Lcd_Clear</text>
</a>
</g>
</g>
<!-- Node8&#45;&gt;Node9 -->
<g id="edge8" class="edge">
<title>Node8&#45;&gt;Node9</title>
<path fill="none" stroke="midnightblue" d="M709.2,-67C719.15,-67 729.6,-67 739.55,-67"/>
<polygon fill="midnightblue" stroke="midnightblue" points="739.68,-70.5 749.68,-67 739.68,-63.5 739.68,-70.5"/>
</g>
<!-- Node9&#45;&gt;Node5 -->
<g id="edge9" class="edge">
<title>Node9&#45;&gt;Node5</title>
<path fill="none" stroke="midnightblue" d="M830.13,-72.09C839.66,-73.33 850.19,-74.7 860.81,-76.08"/>
<polygon fill="midnightblue" stroke="midnightblue" points="860.62,-79.59 870.99,-77.41 861.52,-72.65 860.62,-79.59"/>
</g>
<!-- Node12 -->
<g id="node12" class="node">
<title>Node12</title>
<g id="a_node12"><a xlink:href="a00544.html#ga29d5123115f34320a92fabc8be2f796c" target="_top" xlink:title="Initializes the push button device driver.">
<polygon fill="white" stroke="black" points="304,-0.5 304,-19.5 430,-19.5 430,-0.5 304,-0.5"/>
<text text-anchor="middle" x="367" y="-7.5" font-family="Helvetica,sans-Serif" font-size="10.00">drv_PushButton_Execute</text>
</a>
</g>
</g>
<!-- Node11&#45;&gt;Node12 -->
<g id="edge13" class="edge">
<title>Node11&#45;&gt;Node12</title>
<path fill="none" stroke="midnightblue" d="M268.17,-10C276.61,-10 285.34,-10 293.95,-10"/>
<polygon fill="midnightblue" stroke="midnightblue" points="293.97,-13.5 303.97,-10 293.97,-6.5 293.97,-13.5"/>
</g>
</g>
</svg>
