<?xml version="1.0" encoding="UTF-8" standalone="no"?>
<!DOCTYPE svg PUBLIC "-//W3C//DTD SVG 1.1//EN"
 "http://www.w3.org/Graphics/SVG/1.1/DTD/svg11.dtd">
<!-- Generated by graphviz version 2.44.1 (20200629.0846)
 -->
<!-- Title: Device Start Up Pages: 1 -->
<svg width="402pt" height="134pt"
 viewBox="0.00 0.00 402.00 134.00" xmlns="http://www.w3.org/2000/svg" xmlns:xlink="http://www.w3.org/1999/xlink">
<g id="graph0" class="graph" transform="scale(1 1) rotate(0) translate(4 130)">
<title>Device Start Up</title>
<polygon fill="white" stroke="transparent" points="-4,4 -4,-130 398,-130 398,4 -4,4"/>
<!-- Node3 -->
<g id="node1" class="node">
<title>Node3</title>
<g id="a_node1"><a xlink:href="a00553.html" target="_top" xlink:title=" ">
<polygon fill="white" stroke="black" points="382.5,-126 279.5,-126 279.5,-96 382.5,-96 382.5,-126"/>
<text text-anchor="start" x="287.5" y="-114" font-family="Helvetica,sans-Serif" font-size="10.00">Initializing Essential</text>
<text text-anchor="middle" x="331" y="-103" font-family="Helvetica,sans-Serif" font-size="10.00"> Chip Resources</text>
</a>
</g>
</g>
<!-- Node5 -->
<g id="node2" class="node">
<title>Node5</title>
<g id="a_node2"><a xlink:href="a00562.html" target="_top" xlink:title=" ">
<polygon fill="white" stroke="black" points="382,-78 280,-78 280,-48 382,-48 382,-78"/>
<text text-anchor="start" x="288" y="-66" font-family="Helvetica,sans-Serif" font-size="10.00">Initializing Firmware</text>
<text text-anchor="middle" x="331" y="-55" font-family="Helvetica,sans-Serif" font-size="10.00"> Tasks</text>
</a>
</g>
</g>
<!-- Node4 -->
<g id="node3" class="node">
<title>Node4</title>
<g id="a_node3"><a xlink:href="a00558.html" target="_top" xlink:title=" ">
<polygon fill="white" stroke="black" points="394,-30 268,-30 268,0 394,0 394,-30"/>
<text text-anchor="start" x="276" y="-18" font-family="Helvetica,sans-Serif" font-size="10.00">Initializing Hardware</text>
<text text-anchor="middle" x="331" y="-7" font-family="Helvetica,sans-Serif" font-size="10.00">&#45;Specific Chip Resources</text>
</a>
</g>
</g>
<!-- Node2 -->
<g id="node4" class="node">
<title>Node2</title>
<g id="a_node4"><a xlink:href="a00548.html" target="_top" xlink:title="Firmware Flowchart.">
<polygon fill="white" stroke="black" points="112,-72.5 0,-72.5 0,-53.5 112,-53.5 112,-72.5"/>
<text text-anchor="middle" x="56" y="-60.5" font-family="Helvetica,sans-Serif" font-size="10.00">Firmware Architecture</text>
</a>
</g>
</g>
<!-- Node1 -->
<g id="node5" class="node">
<title>Node1</title>
<g id="a_node5"><a xlink:title="Device Start Up.">
<polygon fill="#bfbfbf" stroke="black" points="232,-72.5 148,-72.5 148,-53.5 232,-53.5 232,-72.5"/>
<text text-anchor="middle" x="190" y="-60.5" font-family="Helvetica,sans-Serif" font-size="10.00">Device Start Up</text>
</a>
</g>
</g>
<!-- Node2&#45;&gt;Node1 -->
<g id="edge1" class="edge">
<title>Node2&#45;&gt;Node1</title>
<path fill="none" stroke="black" d="M122.31,-63C130.94,-63 139.59,-63 147.66,-63"/>
<polygon fill="black" stroke="black" points="122.22,-59.5 112.22,-63 122.22,-66.5 122.22,-59.5"/>
</g>
<!-- Node1&#45;&gt;Node3 -->
<g id="edge2" class="edge">
<title>Node1&#45;&gt;Node3</title>
<path fill="none" stroke="black" d="M228.31,-75.89C246.2,-82.06 267.74,-89.5 286.38,-95.94"/>
<polygon fill="black" stroke="black" points="229.39,-72.55 218.79,-72.6 227.1,-79.17 229.39,-72.55"/>
</g>
<!-- Node1&#45;&gt;Node5 -->
<g id="edge4" class="edge">
<title>Node1&#45;&gt;Node5</title>
<path fill="none" stroke="black" d="M242.41,-63C254.69,-63 267.78,-63 279.99,-63"/>
<polygon fill="black" stroke="black" points="242.33,-59.5 232.33,-63 242.33,-66.5 242.33,-59.5"/>
</g>
<!-- Node1&#45;&gt;Node4 -->
<g id="edge3" class="edge">
<title>Node1&#45;&gt;Node4</title>
<path fill="none" stroke="black" d="M228.31,-50.11C246.2,-43.94 267.74,-36.5 286.38,-30.06"/>
<polygon fill="black" stroke="black" points="227.1,-46.83 218.79,-53.4 229.39,-53.45 227.1,-46.83"/>
</g>
</g>
</svg>
