<?xml version="1.0" encoding="UTF-8" standalone="no"?>
<!DOCTYPE svg PUBLIC "-//W3C//DTD SVG 1.1//EN"
 "http://www.w3.org/Graphics/SVG/1.1/DTD/svg11.dtd">
<!-- Generated by graphviz version 2.44.1 (20200629.0846)
 -->
<!-- Title: SYSTEM_Initialize Pages: 1 -->
<svg width="605pt" height="142pt"
 viewBox="0.00 0.00 605.00 142.00" xmlns="http://www.w3.org/2000/svg" xmlns:xlink="http://www.w3.org/1999/xlink">
<g id="graph0" class="graph" transform="scale(1 1) rotate(0) translate(4 138)">
<title>SYSTEM_Initialize</title>
<polygon fill="white" stroke="transparent" points="-4,4 -4,-138 601,-138 601,4 -4,4"/>
<!-- Node1 -->
<g id="node1" class="node">
<title>Node1</title>
<g id="a_node1"><a xlink:title="Initializes essential chip resources.">
<polygon fill="#bfbfbf" stroke="black" points="0,-57.5 0,-76.5 98,-76.5 98,-57.5 0,-57.5"/>
<text text-anchor="middle" x="49" y="-64.5" font-family="Helvetica,sans-Serif" font-size="10.00">SYSTEM_Initialize</text>
</a>
</g>
</g>
<!-- Node2 -->
<g id="node2" class="node">
<title>Node2</title>
<g id="a_node2"><a xlink:href="a00555.html#ga3f3f3c22c6c2b95518271fae8f58b03f" target="_top" xlink:title="Initializes the auxiliary clock of the device.">
<polygon fill="white" stroke="black" points="135.5,-114.5 135.5,-133.5 227.5,-133.5 227.5,-114.5 135.5,-114.5"/>
<text text-anchor="middle" x="181.5" y="-121.5" font-family="Helvetica,sans-Serif" font-size="10.00">sysAclk_Initialize</text>
</a>
</g>
</g>
<!-- Node1&#45;&gt;Node2 -->
<g id="edge1" class="edge">
<title>Node1&#45;&gt;Node2</title>
<path fill="none" stroke="midnightblue" d="M70.62,-76.58C87.56,-84.4 112.24,-95.64 134,-105 138.17,-106.79 142.56,-108.64 146.92,-110.45"/>
<polygon fill="midnightblue" stroke="midnightblue" points="145.72,-113.74 156.29,-114.31 148.38,-107.27 145.72,-113.74"/>
</g>
<!-- Node5 -->
<g id="node5" class="node">
<title>Node5</title>
<g id="a_node5"><a xlink:href="a00557.html#gae104c8e1fd4160f749fefbcf540f5a07" target="_top" xlink:title="Digital Signal Processor initialization.">
<polygon fill="white" stroke="black" points="136.5,-76.5 136.5,-95.5 226.5,-95.5 226.5,-76.5 136.5,-76.5"/>
<text text-anchor="middle" x="181.5" y="-83.5" font-family="Helvetica,sans-Serif" font-size="10.00">sysDsp_Initialize</text>
</a>
</g>
</g>
<!-- Node1&#45;&gt;Node5 -->
<g id="edge4" class="edge">
<title>Node1&#45;&gt;Node5</title>
<path fill="none" stroke="midnightblue" d="M98.22,-74.02C107.39,-75.36 117.05,-76.76 126.39,-78.12"/>
<polygon fill="midnightblue" stroke="midnightblue" points="125.96,-81.6 136.36,-79.57 126.97,-74.67 125.96,-81.6"/>
</g>
<!-- Node6 -->
<g id="node6" class="node">
<title>Node6</title>
<g id="a_node6"><a xlink:href="a00555.html#ga40d0188218fbc4f682cbddffff9e1269" target="_top" xlink:title="System oscillator initialization.">
<polygon fill="white" stroke="black" points="134,-38.5 134,-57.5 229,-57.5 229,-38.5 134,-38.5"/>
<text text-anchor="middle" x="181.5" y="-45.5" font-family="Helvetica,sans-Serif" font-size="10.00">sysFosc_Initialize</text>
</a>
</g>
</g>
<!-- Node1&#45;&gt;Node6 -->
<g id="edge5" class="edge">
<title>Node1&#45;&gt;Node6</title>
<path fill="none" stroke="midnightblue" d="M98.22,-59.98C106.57,-58.76 115.32,-57.49 123.87,-56.24"/>
<polygon fill="midnightblue" stroke="midnightblue" points="124.39,-59.71 133.78,-54.8 123.38,-52.78 124.39,-59.71"/>
</g>
<!-- Node8 -->
<g id="node8" class="node">
<title>Node8</title>
<g id="a_node8"><a xlink:href="a00556.html#ga79cb6e309797560a9a262a562fe40fee" target="_top" xlink:title="Resets the device input/output pins to digital inputs.">
<polygon fill="white" stroke="black" points="135,-0.5 135,-19.5 228,-19.5 228,-0.5 135,-0.5"/>
<text text-anchor="middle" x="181.5" y="-7.5" font-family="Helvetica,sans-Serif" font-size="10.00">sysGpio_Initialize</text>
</a>
</g>
</g>
<!-- Node1&#45;&gt;Node8 -->
<g id="edge7" class="edge">
<title>Node1&#45;&gt;Node8</title>
<path fill="none" stroke="midnightblue" d="M70.62,-57.42C87.56,-49.6 112.24,-38.36 134,-29 138.17,-27.21 142.56,-25.36 146.92,-23.55"/>
<polygon fill="midnightblue" stroke="midnightblue" points="148.38,-26.73 156.29,-19.69 145.72,-20.26 148.38,-26.73"/>
</g>
<!-- Node3 -->
<g id="node3" class="node">
<title>Node3</title>
<g id="a_node3"><a xlink:href="a00379.html#gab06b90f28b398245a399304dde2c1576" target="_top" xlink:title="Initializes the auxiliary clock and its PLL module step by step in software. Each step is tested and ...">
<polygon fill="white" stroke="black" points="265,-114.5 265,-133.5 428,-133.5 428,-114.5 265,-114.5"/>
<text text-anchor="middle" x="346.5" y="-121.5" font-family="Helvetica,sans-Serif" font-size="10.00">p33c_OscAuxClk_DefaultInitialize</text>
</a>
</g>
</g>
<!-- Node2&#45;&gt;Node3 -->
<g id="edge2" class="edge">
<title>Node2&#45;&gt;Node3</title>
<path fill="none" stroke="midnightblue" d="M227.9,-124C236.34,-124 245.43,-124 254.68,-124"/>
<polygon fill="midnightblue" stroke="midnightblue" points="254.76,-127.5 264.76,-124 254.76,-120.5 254.76,-127.5"/>
</g>
<!-- Node4 -->
<g id="node4" class="node">
<title>Node4</title>
<g id="a_node4"><a xlink:href="a00379.html#ga0dc798eaba70c8dedec7eec7c2b7e18d" target="_top" xlink:title="Initializes the auxiliary clock and its PLL module step by step in software. Each step is tested and ...">
<polygon fill="white" stroke="black" points="464,-114.5 464,-133.5 597,-133.5 597,-114.5 464,-114.5"/>
<text text-anchor="middle" x="530.5" y="-121.5" font-family="Helvetica,sans-Serif" font-size="10.00">p33c_OscAuxClk_Initialize</text>
</a>
</g>
</g>
<!-- Node3&#45;&gt;Node4 -->
<g id="edge3" class="edge">
<title>Node3&#45;&gt;Node4</title>
<path fill="none" stroke="midnightblue" d="M428.12,-124C436.64,-124 445.28,-124 453.74,-124"/>
<polygon fill="midnightblue" stroke="midnightblue" points="453.95,-127.5 463.95,-124 453.95,-120.5 453.95,-127.5"/>
</g>
<!-- Node7 -->
<g id="node7" class="node">
<title>Node7</title>
<g id="a_node7"><a xlink:href="a00379.html#ga110faf14914c3a8ebb3a4c1486aefb9d" target="_top" xlink:title="Initializes the major oscillator and the PLL module step by step by using clock switching in software...">
<polygon fill="white" stroke="black" points="273.5,-38.5 273.5,-57.5 419.5,-57.5 419.5,-38.5 273.5,-38.5"/>
<text text-anchor="middle" x="346.5" y="-45.5" font-family="Helvetica,sans-Serif" font-size="10.00">p33c_OscFrc_DefaultInitialize</text>
</a>
</g>
</g>
<!-- Node6&#45;&gt;Node7 -->
<g id="edge6" class="edge">
<title>Node6&#45;&gt;Node7</title>
<path fill="none" stroke="midnightblue" d="M229.21,-48C239.83,-48 251.43,-48 263.05,-48"/>
<polygon fill="midnightblue" stroke="midnightblue" points="263.24,-51.5 273.24,-48 263.24,-44.5 263.24,-51.5"/>
</g>
</g>
</svg>
