<?xml version="1.0" encoding="UTF-8" standalone="no"?>
<!DOCTYPE svg PUBLIC "-//W3C//DTD SVG 1.1//EN"
 "http://www.w3.org/Graphics/SVG/1.1/DTD/svg11.dtd">
<!-- Generated by graphviz version 2.44.1 (20200629.0846)
 -->
<!-- Title: sysAclk_Initialize Pages: 1 -->
<svg width="468pt" height="28pt"
 viewBox="0.00 0.00 468.00 28.00" xmlns="http://www.w3.org/2000/svg" xmlns:xlink="http://www.w3.org/1999/xlink">
<g id="graph0" class="graph" transform="scale(1 1) rotate(0) translate(4 24)">
<title>sysAclk_Initialize</title>
<polygon fill="white" stroke="transparent" points="-4,4 -4,-24 464,-24 464,4 -4,4"/>
<!-- Node1 -->
<g id="node1" class="node">
<title>Node1</title>
<g id="a_node1"><a xlink:title="Initializes the auxiliary clock of the device.">
<polygon fill="#bfbfbf" stroke="black" points="0,-0.5 0,-19.5 92,-19.5 92,-0.5 0,-0.5"/>
<text text-anchor="middle" x="46" y="-7.5" font-family="Helvetica,sans-Serif" font-size="10.00">sysAclk_Initialize</text>
</a>
</g>
</g>
<!-- Node2 -->
<g id="node2" class="node">
<title>Node2</title>
<g id="a_node2"><a xlink:href="a00379.html#gab06b90f28b398245a399304dde2c1576" target="_top" xlink:title="Initializes the auxiliary clock and its PLL module step by step in software. Each step is tested and ...">
<polygon fill="white" stroke="black" points="128,-0.5 128,-19.5 291,-19.5 291,-0.5 128,-0.5"/>
<text text-anchor="middle" x="209.5" y="-7.5" font-family="Helvetica,sans-Serif" font-size="10.00">p33c_OscAuxClk_DefaultInitialize</text>
</a>
</g>
</g>
<!-- Node1&#45;&gt;Node2 -->
<g id="edge1" class="edge">
<title>Node1&#45;&gt;Node2</title>
<path fill="none" stroke="midnightblue" d="M92.42,-10C100.4,-10 108.95,-10 117.66,-10"/>
<polygon fill="midnightblue" stroke="midnightblue" points="117.94,-13.5 127.94,-10 117.94,-6.5 117.94,-13.5"/>
</g>
<!-- Node3 -->
<g id="node3" class="node">
<title>Node3</title>
<g id="a_node3"><a xlink:href="a00379.html#ga0dc798eaba70c8dedec7eec7c2b7e18d" target="_top" xlink:title="Initializes the auxiliary clock and its PLL module step by step in software. Each step is tested and ...">
<polygon fill="white" stroke="black" points="327,-0.5 327,-19.5 460,-19.5 460,-0.5 327,-0.5"/>
<text text-anchor="middle" x="393.5" y="-7.5" font-family="Helvetica,sans-Serif" font-size="10.00">p33c_OscAuxClk_Initialize</text>
</a>
</g>
</g>
<!-- Node2&#45;&gt;Node3 -->
<g id="edge2" class="edge">
<title>Node2&#45;&gt;Node3</title>
<path fill="none" stroke="midnightblue" d="M291.12,-10C299.64,-10 308.28,-10 316.74,-10"/>
<polygon fill="midnightblue" stroke="midnightblue" points="316.95,-13.5 326.95,-10 316.95,-6.5 316.95,-13.5"/>
</g>
</g>
</svg>
