<?xml version="1.0" encoding="UTF-8" standalone="no"?>
<!DOCTYPE svg PUBLIC "-//W3C//DTD SVG 1.1//EN"
 "http://www.w3.org/Graphics/SVG/1.1/DTD/svg11.dtd">
<!-- Generated by graphviz version 2.44.1 (20200629.0846)
 -->
<!-- Title: Main Loop Pages: 1 -->
<svg width="392pt" height="76pt"
 viewBox="0.00 0.00 392.00 75.50" xmlns="http://www.w3.org/2000/svg" xmlns:xlink="http://www.w3.org/1999/xlink">
<g id="graph0" class="graph" transform="scale(1 1) rotate(0) translate(4 71.5)">
<title>Main Loop</title>
<polygon fill="white" stroke="transparent" points="-4,4 -4,-71.5 388,-71.5 388,4 -4,4"/>
<!-- Node3 -->
<g id="node1" class="node">
<title>Node3</title>
<g id="a_node1"><a xlink:href="a00551.html" target="_top" xlink:title="Low priority task execution The execution of the sequence of low priority tasks is called from the ma...">
<polygon fill="white" stroke="black" points="384,-67.5 246,-67.5 246,-48.5 384,-48.5 384,-67.5"/>
<text text-anchor="middle" x="315" y="-55.5" font-family="Helvetica,sans-Serif" font-size="10.00">Low&#45;Priority Task Execution</text>
</a>
</g>
</g>
<!-- Node1 -->
<g id="node2" class="node">
<title>Node1</title>
<g id="a_node2"><a xlink:title="Main Loop.">
<polygon fill="#bfbfbf" stroke="black" points="210,-45.5 148,-45.5 148,-26.5 210,-26.5 210,-45.5"/>
<text text-anchor="middle" x="179" y="-33.5" font-family="Helvetica,sans-Serif" font-size="10.00">Main Loop</text>
</a>
</g>
</g>
<!-- Node1&#45;&gt;Node3 -->
<g id="edge2" class="edge">
<title>Node1&#45;&gt;Node3</title>
<path fill="none" stroke="black" d="M220.06,-42.58C231.36,-44.43 243.89,-46.49 256.02,-48.48"/>
<polygon fill="black" stroke="black" points="220.51,-39.1 210.07,-40.94 219.37,-46.01 220.51,-39.1"/>
</g>
<!-- Node4 -->
<g id="node4" class="node">
<title>Node4</title>
<g id="a_node4"><a xlink:href="a00552.html" target="_top" xlink:title="High priority task execution.">
<polygon fill="white" stroke="black" points="362,-30 268,-30 268,0 362,0 362,-30"/>
<text text-anchor="start" x="276" y="-18" font-family="Helvetica,sans-Serif" font-size="10.00">High&#45;Priority Task</text>
<text text-anchor="middle" x="315" y="-7" font-family="Helvetica,sans-Serif" font-size="10.00"> Execution</text>
</a>
</g>
</g>
<!-- Node1&#45;&gt;Node4 -->
<g id="edge3" class="edge">
<title>Node1&#45;&gt;Node4</title>
<path fill="none" stroke="black" d="M220.11,-29.71C235.17,-27.35 252.41,-24.65 267.97,-22.21"/>
<polygon fill="black" stroke="black" points="219.41,-26.28 210.07,-31.29 220.49,-33.2 219.41,-26.28"/>
</g>
<!-- Node2 -->
<g id="node3" class="node">
<title>Node2</title>
<g id="a_node3"><a xlink:href="a00548.html" target="_top" xlink:title="Firmware Flowchart.">
<polygon fill="white" stroke="black" points="112,-45.5 0,-45.5 0,-26.5 112,-26.5 112,-45.5"/>
<text text-anchor="middle" x="56" y="-33.5" font-family="Helvetica,sans-Serif" font-size="10.00">Firmware Architecture</text>
</a>
</g>
</g>
<!-- Node2&#45;&gt;Node1 -->
<g id="edge1" class="edge">
<title>Node2&#45;&gt;Node1</title>
<path fill="none" stroke="black" d="M122.23,-36C131.12,-36 139.86,-36 147.7,-36"/>
<polygon fill="black" stroke="black" points="122.19,-32.5 112.19,-36 122.19,-39.5 122.19,-32.5"/>
</g>
</g>
</svg>
