<?xml version="1.0" encoding="UTF-8" standalone="no"?>
<!DOCTYPE svg PUBLIC "-//W3C//DTD SVG 1.1//EN"
 "http://www.w3.org/Graphics/SVG/1.1/DTD/svg11.dtd">
<!-- Generated by graphviz version 2.44.1 (20200629.0846)
 -->
<!-- Title: Buck Converter Library Modules Pages: 1 -->
<svg width="455pt" height="150pt"
 viewBox="0.00 0.00 455.00 150.00" xmlns="http://www.w3.org/2000/svg" xmlns:xlink="http://www.w3.org/1999/xlink">
<g id="graph0" class="graph" transform="scale(1 1) rotate(0) translate(4 146)">
<title>Buck Converter Library Modules</title>
<polygon fill="white" stroke="transparent" points="-4,4 -4,-146 451,-146 451,4 -4,4"/>
<!-- Node5 -->
<g id="node1" class="node">
<title>Node5</title>
<g id="a_node1"><a xlink:href="a00518.html" target="_top" xlink:title=" ">
<polygon fill="white" stroke="black" points="447,-142 302,-142 302,-123 447,-123 447,-142"/>
<text text-anchor="middle" x="374.5" y="-130" font-family="Helvetica,sans-Serif" font-size="10.00">Buck Peripheral Configuration</text>
</a>
</g>
</g>
<!-- Node4 -->
<g id="node2" class="node">
<title>Node4</title>
<g id="a_node2"><a xlink:href="a00512.html" target="_top" xlink:title=" ">
<polygon fill="white" stroke="black" points="434.5,-105 314.5,-105 314.5,-86 434.5,-86 434.5,-105"/>
<text text-anchor="middle" x="374.5" y="-93" font-family="Helvetica,sans-Serif" font-size="10.00">Buck Special Functions</text>
</a>
</g>
</g>
<!-- Node2 -->
<g id="node3" class="node">
<title>Node2</title>
<g id="a_node3"><a xlink:href="a00494.html" target="_top" xlink:title=" ">
<polygon fill="white" stroke="black" points="115,-83 0,-83 0,-64 115,-64 115,-83"/>
<text text-anchor="middle" x="57.5" y="-71" font-family="Helvetica,sans-Serif" font-size="10.00">Buck Converter Library</text>
</a>
</g>
</g>
<!-- Node1 -->
<g id="node4" class="node">
<title>Node1</title>
<g id="a_node4"><a xlink:title=" ">
<polygon fill="#bfbfbf" stroke="black" points="266,-88.5 151,-88.5 151,-58.5 266,-58.5 266,-88.5"/>
<text text-anchor="start" x="159" y="-76.5" font-family="Helvetica,sans-Serif" font-size="10.00">Buck Converter Library</text>
<text text-anchor="middle" x="208.5" y="-65.5" font-family="Helvetica,sans-Serif" font-size="10.00"> Modules</text>
</a>
</g>
</g>
<!-- Node2&#45;&gt;Node1 -->
<g id="edge1" class="edge">
<title>Node2&#45;&gt;Node1</title>
<path fill="none" stroke="black" d="M125.51,-73.5C133.99,-73.5 142.6,-73.5 150.9,-73.5"/>
<polygon fill="black" stroke="black" points="125.26,-70 115.26,-73.5 125.26,-77 125.26,-70"/>
</g>
<!-- Node1&#45;&gt;Node5 -->
<g id="edge4" class="edge">
<title>Node1&#45;&gt;Node5</title>
<path fill="none" stroke="black" d="M248.97,-92.78C265.16,-100.21 284.23,-108.38 302,-114.5 311.08,-117.63 320.97,-120.47 330.43,-122.92"/>
<polygon fill="black" stroke="black" points="250.35,-89.56 239.81,-88.5 247.39,-95.9 250.35,-89.56"/>
</g>
<!-- Node1&#45;&gt;Node4 -->
<g id="edge3" class="edge">
<title>Node1&#45;&gt;Node4</title>
<path fill="none" stroke="black" d="M276.39,-82.47C289.01,-84.17 302.12,-85.92 314.47,-87.58"/>
<polygon fill="black" stroke="black" points="276.78,-78.99 266.4,-81.13 275.84,-85.93 276.78,-78.99"/>
</g>
<!-- Node3 -->
<g id="node5" class="node">
<title>Node3</title>
<g id="a_node5"><a xlink:href="a00506.html" target="_top" xlink:title="Description of the Buck Converter Library State Machine library module.">
<polygon fill="white" stroke="black" points="429,-67.5 320,-67.5 320,-37.5 429,-37.5 429,-67.5"/>
<text text-anchor="start" x="328" y="-55.5" font-family="Helvetica,sans-Serif" font-size="10.00">Buck Converter State</text>
<text text-anchor="middle" x="374.5" y="-44.5" font-family="Helvetica,sans-Serif" font-size="10.00"> Machine</text>
</a>
</g>
</g>
<!-- Node1&#45;&gt;Node3 -->
<g id="edge2" class="edge">
<title>Node1&#45;&gt;Node3</title>
<path fill="none" stroke="black" d="M276.7,-64.9C291.03,-63.06 305.99,-61.15 319.74,-59.38"/>
<polygon fill="black" stroke="black" points="275.87,-61.47 266.4,-66.21 276.76,-68.42 275.87,-61.47"/>
</g>
<!-- Node6 -->
<g id="node6" class="node">
<title>Node6</title>
<g id="a_node6"><a xlink:href="a00524.html" target="_top" xlink:title=" ">
<polygon fill="white" stroke="black" points="441.5,-19 307.5,-19 307.5,0 441.5,0 441.5,-19"/>
<text text-anchor="middle" x="374.5" y="-7" font-family="Helvetica,sans-Serif" font-size="10.00">Buck Peripheral Templates</text>
</a>
</g>
</g>
<!-- Node1&#45;&gt;Node6 -->
<g id="edge5" class="edge">
<title>Node1&#45;&gt;Node6</title>
<path fill="none" stroke="black" d="M245.74,-53.86C262.52,-45.28 282.94,-35.59 302,-28.5 311.63,-24.92 322.22,-21.72 332.24,-19.01"/>
<polygon fill="black" stroke="black" points="244.08,-50.77 236.82,-58.48 247.31,-56.99 244.08,-50.77"/>
</g>
</g>
</svg>
