<?xml version="1.0" encoding="UTF-8" standalone="no"?>
<!DOCTYPE svg PUBLIC "-//W3C//DTD SVG 1.1//EN"
 "http://www.w3.org/Graphics/SVG/1.1/DTD/svg11.dtd">
<!-- Generated by graphviz version 2.44.1 (20200629.0846)
 -->
<!-- Title: Buck Converter State Machine Pages: 1 -->
<svg width="365pt" height="64pt"
 viewBox="0.00 0.00 365.00 64.00" xmlns="http://www.w3.org/2000/svg" xmlns:xlink="http://www.w3.org/1999/xlink">
<g id="graph0" class="graph" transform="scale(1 1) rotate(0) translate(4 60)">
<title>Buck Converter State Machine</title>
<polygon fill="white" stroke="transparent" points="-4,4 -4,-60 361,-60 361,4 -4,4"/>
<!-- Node4 -->
<g id="node1" class="node">
<title>Node4</title>
<g id="a_node1"><a xlink:href="a00508.html" target="_top" xlink:title="Properties of the second library layer.">
<polygon fill="white" stroke="black" points="357,-56 296,-56 296,-37 357,-37 357,-56"/>
<text text-anchor="middle" x="326.5" y="-44" font-family="Helvetica,sans-Serif" font-size="10.00">Properties</text>
</a>
</g>
</g>
<!-- Node2 -->
<g id="node2" class="node">
<title>Node2</title>
<g id="a_node2"><a xlink:href="a00505.html" target="_top" xlink:title=" ">
<polygon fill="white" stroke="black" points="115,-42.5 0,-42.5 0,-12.5 115,-12.5 115,-42.5"/>
<text text-anchor="start" x="8" y="-30.5" font-family="Helvetica,sans-Serif" font-size="10.00">Buck Converter Library</text>
<text text-anchor="middle" x="57.5" y="-19.5" font-family="Helvetica,sans-Serif" font-size="10.00"> Modules</text>
</a>
</g>
</g>
<!-- Node1 -->
<g id="node4" class="node">
<title>Node1</title>
<g id="a_node4"><a xlink:title="Description of the Buck Converter Library State Machine library module.">
<polygon fill="#bfbfbf" stroke="black" points="260,-42.5 151,-42.5 151,-12.5 260,-12.5 260,-42.5"/>
<text text-anchor="start" x="159" y="-30.5" font-family="Helvetica,sans-Serif" font-size="10.00">Buck Converter State</text>
<text text-anchor="middle" x="205.5" y="-19.5" font-family="Helvetica,sans-Serif" font-size="10.00"> Machine</text>
</a>
</g>
</g>
<!-- Node2&#45;&gt;Node1 -->
<g id="edge1" class="edge">
<title>Node2&#45;&gt;Node1</title>
<path fill="none" stroke="black" d="M125.62,-27.5C134.09,-27.5 142.67,-27.5 150.9,-27.5"/>
<polygon fill="black" stroke="black" points="125.37,-24 115.37,-27.5 125.37,-31 125.37,-24"/>
</g>
<!-- Node3 -->
<g id="node3" class="node">
<title>Node3</title>
<g id="a_node3"><a xlink:href="a00507.html" target="_top" xlink:title="Functions of the second library layer.">
<polygon fill="white" stroke="black" points="356,-19 297,-19 297,0 356,0 356,-19"/>
<text text-anchor="middle" x="326.5" y="-7" font-family="Helvetica,sans-Serif" font-size="10.00">Functions</text>
</a>
</g>
</g>
<!-- Node1&#45;&gt;Node4 -->
<g id="edge3" class="edge">
<title>Node1&#45;&gt;Node4</title>
<path fill="none" stroke="black" d="M270.24,-37.68C279.22,-39.11 288.07,-40.52 295.97,-41.79"/>
<polygon fill="black" stroke="black" points="270.51,-34.18 260.08,-36.06 269.41,-41.09 270.51,-34.18"/>
</g>
<!-- Node1&#45;&gt;Node3 -->
<g id="edge2" class="edge">
<title>Node1&#45;&gt;Node3</title>
<path fill="none" stroke="black" d="M270.24,-17.86C279.59,-16.44 288.81,-15.05 296.95,-13.82"/>
<polygon fill="black" stroke="black" points="269.45,-14.44 260.08,-19.4 270.49,-21.36 269.45,-14.44"/>
</g>
</g>
</svg>
