<?xml version="1.0" encoding="UTF-8" standalone="no"?>
<!DOCTYPE svg PUBLIC "-//W3C//DTD SVG 1.1//EN"
 "http://www.w3.org/Graphics/SVG/1.1/DTD/svg11.dtd">
<!-- Generated by graphviz version 2.44.1 (20200629.0846)
 -->
<!-- Title: Firmware Architecture Pages: 1 -->
<svg width="240pt" height="64pt"
 viewBox="0.00 0.00 240.00 64.00" xmlns="http://www.w3.org/2000/svg" xmlns:xlink="http://www.w3.org/1999/xlink">
<g id="graph0" class="graph" transform="scale(1 1) rotate(0) translate(4 60)">
<title>Firmware Architecture</title>
<polygon fill="white" stroke="transparent" points="-4,4 -4,-60 236,-60 236,4 -4,4"/>
<!-- Node3 -->
<g id="node1" class="node">
<title>Node3</title>
<g id="a_node1"><a xlink:href="a00550.html" target="_top" xlink:title="Main Loop.">
<polygon fill="white" stroke="black" points="221,-56 159,-56 159,-37 221,-37 221,-56"/>
<text text-anchor="middle" x="190" y="-44" font-family="Helvetica,sans-Serif" font-size="10.00">Main Loop</text>
</a>
</g>
</g>
<!-- Node1 -->
<g id="node2" class="node">
<title>Node1</title>
<g id="a_node2"><a xlink:title="Firmware Flowchart.">
<polygon fill="#bfbfbf" stroke="black" points="112,-37 0,-37 0,-18 112,-18 112,-37"/>
<text text-anchor="middle" x="56" y="-25" font-family="Helvetica,sans-Serif" font-size="10.00">Firmware Architecture</text>
</a>
</g>
</g>
<!-- Node1&#45;&gt;Node3 -->
<g id="edge2" class="edge">
<title>Node1&#45;&gt;Node3</title>
<path fill="none" stroke="black" d="M122.4,-36.91C135.15,-38.75 147.93,-40.59 158.84,-42.16"/>
<polygon fill="black" stroke="black" points="122.61,-33.41 112.22,-35.45 121.61,-40.34 122.61,-33.41"/>
</g>
<!-- Node2 -->
<g id="node3" class="node">
<title>Node2</title>
<g id="a_node3"><a xlink:href="a00549.html" target="_top" xlink:title="Device Start Up.">
<polygon fill="white" stroke="black" points="232,-19 148,-19 148,0 232,0 232,-19"/>
<text text-anchor="middle" x="190" y="-7" font-family="Helvetica,sans-Serif" font-size="10.00">Device Start Up</text>
</a>
</g>
</g>
<!-- Node1&#45;&gt;Node2 -->
<g id="edge1" class="edge">
<title>Node1&#45;&gt;Node2</title>
<path fill="none" stroke="black" d="M122.31,-18.59C130.94,-17.42 139.59,-16.24 147.66,-15.14"/>
<polygon fill="black" stroke="black" points="121.65,-15.15 112.22,-19.97 122.6,-22.09 121.65,-15.15"/>
</g>
</g>
</svg>
