<?xml version="1.0" encoding="UTF-8" standalone="no"?>
<!DOCTYPE svg PUBLIC "-//W3C//DTD SVG 1.1//EN"
 "http://www.w3.org/Graphics/SVG/1.1/DTD/svg11.dtd">
<!-- Generated by graphviz version 2.44.1 (20200629.0846)
 -->
<!-- Title: Properties Pages: 1 -->
<svg width="400pt" height="101pt"
 viewBox="0.00 0.00 400.00 101.00" xmlns="http://www.w3.org/2000/svg" xmlns:xlink="http://www.w3.org/1999/xlink">
<g id="graph0" class="graph" transform="scale(1 1) rotate(0) translate(4 97)">
<title>Properties</title>
<polygon fill="white" stroke="transparent" points="-4,4 -4,-97 396,-97 396,4 -4,4"/>
<!-- Node2 -->
<g id="node1" class="node">
<title>Node2</title>
<g id="a_node1"><a xlink:href="a00518.html" target="_top" xlink:title=" ">
<polygon fill="white" stroke="black" points="145,-56 0,-56 0,-37 145,-37 145,-56"/>
<text text-anchor="middle" x="72.5" y="-44" font-family="Helvetica,sans-Serif" font-size="10.00">Buck Peripheral Configuration</text>
</a>
</g>
</g>
<!-- Node1 -->
<g id="node5" class="node">
<title>Node1</title>
<g id="a_node5"><a xlink:title="Properties of the second library layer.">
<polygon fill="#bfbfbf" stroke="black" points="242,-56 181,-56 181,-37 242,-37 242,-56"/>
<text text-anchor="middle" x="211.5" y="-44" font-family="Helvetica,sans-Serif" font-size="10.00">Properties</text>
</a>
</g>
</g>
<!-- Node2&#45;&gt;Node1 -->
<g id="edge1" class="edge">
<title>Node2&#45;&gt;Node1</title>
<path fill="none" stroke="black" d="M155.45,-46.5C164.42,-46.5 173.08,-46.5 180.76,-46.5"/>
<polygon fill="black" stroke="black" points="155.21,-43 145.21,-46.5 155.21,-50 155.21,-43"/>
</g>
<!-- Node5 -->
<g id="node2" class="node">
<title>Node5</title>
<g id="a_node2"><a xlink:href="a00523.html" target="_top" xlink:title=" ">
<polygon fill="white" stroke="black" points="386.5,-93 283.5,-93 283.5,-74 386.5,-74 386.5,-93"/>
<text text-anchor="middle" x="335" y="-81" font-family="Helvetica,sans-Serif" font-size="10.00">Defines and Macros</text>
</a>
</g>
</g>
<!-- Node4 -->
<g id="node3" class="node">
<title>Node4</title>
<g id="a_node3"><a xlink:href="a00522.html" target="_top" xlink:title=" ">
<polygon fill="white" stroke="black" points="368,-56 302,-56 302,-37 368,-37 368,-56"/>
<text text-anchor="middle" x="335" y="-44" font-family="Helvetica,sans-Serif" font-size="10.00">Data Types</text>
</a>
</g>
</g>
<!-- Node3 -->
<g id="node4" class="node">
<title>Node3</title>
<g id="a_node4"><a xlink:href="a00521.html" target="_top" xlink:title=" ">
<polygon fill="white" stroke="black" points="392,-19 278,-19 278,0 392,0 392,-19"/>
<text text-anchor="middle" x="335" y="-7" font-family="Helvetica,sans-Serif" font-size="10.00">Variables &amp; Constants</text>
</a>
</g>
</g>
<!-- Node1&#45;&gt;Node5 -->
<g id="edge4" class="edge">
<title>Node1&#45;&gt;Node5</title>
<path fill="none" stroke="black" d="M252.04,-58.54C268.38,-63.52 287.07,-69.21 302.46,-73.9"/>
<polygon fill="black" stroke="black" points="252.81,-55.12 242.22,-55.55 250.77,-61.81 252.81,-55.12"/>
</g>
<!-- Node1&#45;&gt;Node4 -->
<g id="edge3" class="edge">
<title>Node1&#45;&gt;Node4</title>
<path fill="none" stroke="black" d="M252.34,-46.5C268.31,-46.5 286.47,-46.5 301.6,-46.5"/>
<polygon fill="black" stroke="black" points="252.22,-43 242.22,-46.5 252.22,-50 252.22,-43"/>
</g>
<!-- Node1&#45;&gt;Node3 -->
<g id="edge2" class="edge">
<title>Node1&#45;&gt;Node3</title>
<path fill="none" stroke="black" d="M252.04,-34.46C268.38,-29.48 287.07,-23.79 302.46,-19.1"/>
<polygon fill="black" stroke="black" points="250.77,-31.19 242.22,-37.45 252.81,-37.88 250.77,-31.19"/>
</g>
</g>
</svg>
