<?xml version="1.0" encoding="UTF-8" standalone="no"?>
<!DOCTYPE svg PUBLIC "-//W3C//DTD SVG 1.1//EN"
 "http://www.w3.org/Graphics/SVG/1.1/DTD/svg11.dtd">
<!-- Generated by graphviz version 2.44.1 (20200629.0846)
 -->
<!-- Title: buckPWM_Stop Pages: 1 -->
<svg width="477pt" height="66pt"
 viewBox="0.00 0.00 477.00 66.00" xmlns="http://www.w3.org/2000/svg" xmlns:xlink="http://www.w3.org/1999/xlink">
<g id="graph0" class="graph" transform="scale(1 1) rotate(0) translate(4 62)">
<title>buckPWM_Stop</title>
<polygon fill="white" stroke="transparent" points="-4,4 -4,-62 473,-62 473,4 -4,4"/>
<!-- Node1 -->
<g id="node1" class="node">
<title>Node1</title>
<g id="a_node1"><a xlink:title="This function stops the buck PWM output.">
<polygon fill="#bfbfbf" stroke="black" points="0,-19.5 0,-38.5 88,-38.5 88,-19.5 0,-19.5"/>
<text text-anchor="middle" x="44" y="-26.5" font-family="Helvetica,sans-Serif" font-size="10.00">buckPWM_Stop</text>
</a>
</g>
</g>
<!-- Node2 -->
<g id="node2" class="node">
<title>Node2</title>
<g id="a_node2"><a xlink:href="a00519.html#ga7f1d554e08d756b8677b572216908a3a" target="_top" xlink:title="This function clears the selected general purpose input/output pin.">
<polygon fill="white" stroke="black" points="158.5,-38.5 158.5,-57.5 247.5,-57.5 247.5,-38.5 158.5,-38.5"/>
<text text-anchor="middle" x="203" y="-45.5" font-family="Helvetica,sans-Serif" font-size="10.00">buckGPIO_Clear</text>
</a>
</g>
</g>
<!-- Node1&#45;&gt;Node2 -->
<g id="edge1" class="edge">
<title>Node1&#45;&gt;Node2</title>
<path fill="none" stroke="midnightblue" d="M88.32,-34.24C106.87,-36.49 128.72,-39.13 148.29,-41.5"/>
<polygon fill="midnightblue" stroke="midnightblue" points="147.93,-44.98 158.28,-42.71 148.77,-38.03 147.93,-44.98"/>
</g>
<!-- Node4 -->
<g id="node4" class="node">
<title>Node4</title>
<g id="a_node4"><a xlink:href="a00381.html#ga55e525c7ac54a365ab6dad558ec17f0b" target="_top" xlink:title="Returns the PWM generator index.">
<polygon fill="white" stroke="black" points="124,-0.5 124,-19.5 282,-19.5 282,-0.5 124,-0.5"/>
<text text-anchor="middle" x="203" y="-7.5" font-family="Helvetica,sans-Serif" font-size="10.00">p33c_PwmGenerator_GetHandle</text>
</a>
</g>
</g>
<!-- Node1&#45;&gt;Node4 -->
<g id="edge3" class="edge">
<title>Node1&#45;&gt;Node4</title>
<path fill="none" stroke="midnightblue" d="M88.32,-23.76C96.36,-22.78 105.03,-21.74 113.86,-20.67"/>
<polygon fill="midnightblue" stroke="midnightblue" points="114.37,-24.13 123.88,-19.45 113.53,-17.18 114.37,-24.13"/>
</g>
<!-- Node3 -->
<g id="node3" class="node">
<title>Node3</title>
<g id="a_node3"><a xlink:href="a00377.html#ga4d67af688d8f7f911d79107974e11e6b" target="_top" xlink:title="Gets pointer to GPIO Instance SFR set.">
<polygon fill="white" stroke="black" points="318,-38.5 318,-57.5 469,-57.5 469,-38.5 318,-38.5"/>
<text text-anchor="middle" x="393.5" y="-45.5" font-family="Helvetica,sans-Serif" font-size="10.00">p33c_GpioInstance_GetHandle</text>
</a>
</g>
</g>
<!-- Node2&#45;&gt;Node3 -->
<g id="edge2" class="edge">
<title>Node2&#45;&gt;Node3</title>
<path fill="none" stroke="midnightblue" d="M247.72,-48C265.66,-48 287.08,-48 307.86,-48"/>
<polygon fill="midnightblue" stroke="midnightblue" points="308,-51.5 318,-48 308,-44.5 308,-51.5"/>
</g>
</g>
</svg>
