<?xml version="1.0" encoding="UTF-8" standalone="no"?>
<!DOCTYPE svg PUBLIC "-//W3C//DTD SVG 1.1//EN"
 "http://www.w3.org/Graphics/SVG/1.1/DTD/svg11.dtd">
<!-- Generated by graphviz version 2.44.1 (20200629.0846)
 -->
<!-- Title: appPushButton_Initialize Pages: 1 -->
<svg width="333pt" height="154pt"
 viewBox="0.00 0.00 333.00 154.00" xmlns="http://www.w3.org/2000/svg" xmlns:xlink="http://www.w3.org/1999/xlink">
<g id="graph0" class="graph" transform="scale(1 1) rotate(0) translate(4 150)">
<title>appPushButton_Initialize</title>
<polygon fill="white" stroke="transparent" points="-4,4 -4,-150 329,-150 329,4 -4,4"/>
<!-- Node1 -->
<g id="node1" class="node">
<title>Node1</title>
<g id="a_node1"><a xlink:title="Initializes the USER push button on DPSK3.">
<polygon fill="#bfbfbf" stroke="black" points="0,-60.5 0,-79.5 124,-79.5 124,-60.5 0,-60.5"/>
<text text-anchor="middle" x="62" y="-67.5" font-family="Helvetica,sans-Serif" font-size="10.00">appPushButton_Initialize</text>
</a>
</g>
</g>
<!-- Node2 -->
<g id="node2" class="node">
<title>Node2</title>
<g id="a_node2"><a xlink:href="a00541.html#ga3966fddf4ec29e64c6d51a93eee8706f" target="_top" xlink:title="Push button event raised at the &quot;pressed&quot; transition.">
<polygon fill="white" stroke="black" points="160,-126.5 160,-145.5 325,-145.5 325,-126.5 160,-126.5"/>
<text text-anchor="middle" x="242.5" y="-133.5" font-family="Helvetica,sans-Serif" font-size="10.00">appPushButton_EventButtonDown</text>
</a>
</g>
</g>
<!-- Node1&#45;&gt;Node2 -->
<g id="edge1" class="edge">
<title>Node1&#45;&gt;Node2</title>
<path fill="none" stroke="midnightblue" d="M79.68,-79.5C98.62,-89.95 130.72,-106.64 160,-117 167.32,-119.59 175.13,-121.93 182.92,-124"/>
<polygon fill="midnightblue" stroke="midnightblue" points="182.17,-127.42 192.72,-126.49 183.89,-120.64 182.17,-127.42"/>
</g>
<!-- Node3 -->
<g id="node3" class="node">
<title>Node3</title>
<g id="a_node3"><a xlink:href="a00541.html#ga6192986e06dbca144461c0315a2a100f" target="_top" xlink:title="Push button event raised at the &quot;is long pressed&quot; detection.">
<polygon fill="white" stroke="black" points="172,-77 172,-107 313,-107 313,-77 172,-77"/>
<text text-anchor="start" x="180" y="-95" font-family="Helvetica,sans-Serif" font-size="10.00">appPushButton_EventButton</text>
<text text-anchor="middle" x="242.5" y="-84" font-family="Helvetica,sans-Serif" font-size="10.00">LongPress</text>
</a>
</g>
</g>
<!-- Node1&#45;&gt;Node3 -->
<g id="edge2" class="edge">
<title>Node1&#45;&gt;Node3</title>
<path fill="none" stroke="midnightblue" d="M124.43,-77.57C136.52,-79.06 149.38,-80.65 161.97,-82.2"/>
<polygon fill="midnightblue" stroke="midnightblue" points="161.64,-85.68 171.99,-83.43 162.5,-78.74 161.64,-85.68"/>
</g>
<!-- Node4 -->
<g id="node4" class="node">
<title>Node4</title>
<g id="a_node4"><a xlink:href="a00541.html#ga13f736396ad1222ff5cbe35947bd60ac" target="_top" xlink:title="Push button event raised at the &quot;not pressed&quot; transition.">
<polygon fill="white" stroke="black" points="166,-38.5 166,-57.5 319,-57.5 319,-38.5 166,-38.5"/>
<text text-anchor="middle" x="242.5" y="-45.5" font-family="Helvetica,sans-Serif" font-size="10.00">appPushButton_EventButtonUp</text>
</a>
</g>
</g>
<!-- Node1&#45;&gt;Node4 -->
<g id="edge3" class="edge">
<title>Node1&#45;&gt;Node4</title>
<path fill="none" stroke="midnightblue" d="M124.43,-62.43C134.52,-61.19 145.13,-59.88 155.68,-58.58"/>
<polygon fill="midnightblue" stroke="midnightblue" points="156.26,-62.03 165.76,-57.33 155.41,-55.08 156.26,-62.03"/>
</g>
<!-- Node5 -->
<g id="node5" class="node">
<title>Node5</title>
<g id="a_node5"><a xlink:href="a00544.html#gaa3ce9c320a37ebc6e1ae113c82e68747" target="_top" xlink:title="Initializes the push button device driver.">
<polygon fill="white" stroke="black" points="180,-0.5 180,-19.5 305,-19.5 305,-0.5 180,-0.5"/>
<text text-anchor="middle" x="242.5" y="-7.5" font-family="Helvetica,sans-Serif" font-size="10.00">drv_PushButton_Initialize</text>
</a>
</g>
</g>
<!-- Node1&#45;&gt;Node5 -->
<g id="edge4" class="edge">
<title>Node1&#45;&gt;Node5</title>
<path fill="none" stroke="midnightblue" d="M83.05,-60.33C102.4,-51.29 132.7,-37.88 160,-29 167.76,-26.48 176.04,-24.15 184.23,-22.04"/>
<polygon fill="midnightblue" stroke="midnightblue" points="185.28,-25.39 194.15,-19.6 183.6,-18.6 185.28,-25.39"/>
</g>
</g>
</svg>
