<?xml version="1.0" encoding="UTF-8" standalone="no"?>
<!DOCTYPE svg PUBLIC "-//W3C//DTD SVG 1.1//EN"
 "http://www.w3.org/Graphics/SVG/1.1/DTD/svg11.dtd">
<!-- Generated by graphviz version 2.44.1 (20200629.0846)
 -->
<!-- Title: Buck Peripheral Templates Pages: 1 -->
<svg width="390pt" height="64pt"
 viewBox="0.00 0.00 390.00 64.00" xmlns="http://www.w3.org/2000/svg" xmlns:xlink="http://www.w3.org/1999/xlink">
<g id="graph0" class="graph" transform="scale(1 1) rotate(0) translate(4 60)">
<title>Buck Peripheral Templates</title>
<polygon fill="white" stroke="transparent" points="-4,4 -4,-60 386,-60 386,4 -4,4"/>
<!-- Node4 -->
<g id="node1" class="node">
<title>Node4</title>
<g id="a_node1"><a xlink:href="a00526.html" target="_top" xlink:title="Properties of the second library layer.">
<polygon fill="white" stroke="black" points="382,-56 321,-56 321,-37 382,-37 382,-56"/>
<text text-anchor="middle" x="351.5" y="-44" font-family="Helvetica,sans-Serif" font-size="10.00">Properties</text>
</a>
</g>
</g>
<!-- Node3 -->
<g id="node2" class="node">
<title>Node3</title>
<g id="a_node2"><a xlink:href="a00525.html" target="_top" xlink:title="Functions of the second library layer.">
<polygon fill="white" stroke="black" points="381,-19 322,-19 322,0 381,0 381,-19"/>
<text text-anchor="middle" x="351.5" y="-7" font-family="Helvetica,sans-Serif" font-size="10.00">Functions</text>
</a>
</g>
</g>
<!-- Node2 -->
<g id="node3" class="node">
<title>Node2</title>
<g id="a_node3"><a xlink:href="a00505.html" target="_top" xlink:title=" ">
<polygon fill="white" stroke="black" points="115,-42.5 0,-42.5 0,-12.5 115,-12.5 115,-42.5"/>
<text text-anchor="start" x="8" y="-30.5" font-family="Helvetica,sans-Serif" font-size="10.00">Buck Converter Library</text>
<text text-anchor="middle" x="57.5" y="-19.5" font-family="Helvetica,sans-Serif" font-size="10.00"> Modules</text>
</a>
</g>
</g>
<!-- Node1 -->
<g id="node4" class="node">
<title>Node1</title>
<g id="a_node4"><a xlink:title=" ">
<polygon fill="#bfbfbf" stroke="black" points="285,-37 151,-37 151,-18 285,-18 285,-37"/>
<text text-anchor="middle" x="218" y="-25" font-family="Helvetica,sans-Serif" font-size="10.00">Buck Peripheral Templates</text>
</a>
</g>
</g>
<!-- Node2&#45;&gt;Node1 -->
<g id="edge1" class="edge">
<title>Node2&#45;&gt;Node1</title>
<path fill="none" stroke="black" d="M125.44,-27.5C133.87,-27.5 142.49,-27.5 150.9,-27.5"/>
<polygon fill="black" stroke="black" points="125.27,-24 115.27,-27.5 125.27,-31 125.27,-24"/>
</g>
<!-- Node1&#45;&gt;Node4 -->
<g id="edge3" class="edge">
<title>Node1&#45;&gt;Node4</title>
<path fill="none" stroke="black" d="M295.09,-38.49C304.19,-39.81 313.02,-41.09 320.86,-42.22"/>
<polygon fill="black" stroke="black" points="295.53,-35.02 285.14,-37.06 294.53,-41.95 295.53,-35.02"/>
</g>
<!-- Node1&#45;&gt;Node3 -->
<g id="edge2" class="edge">
<title>Node1&#45;&gt;Node3</title>
<path fill="none" stroke="black" d="M295.09,-17.08C304.57,-15.79 313.76,-14.53 321.84,-13.42"/>
<polygon fill="black" stroke="black" points="294.57,-13.62 285.14,-18.45 295.52,-20.56 294.57,-13.62"/>
</g>
</g>
</svg>
