<?xml version="1.0" encoding="UTF-8" standalone="no"?>
<!DOCTYPE svg PUBLIC "-//W3C//DTD SVG 1.1//EN"
 "http://www.w3.org/Graphics/SVG/1.1/DTD/svg11.dtd">
<!-- Generated by graphviz version 2.44.1 (20200629.0846)
 -->
<!-- Title: Power Converter Control Driver Pages: 1 -->
<svg width="362pt" height="101pt"
 viewBox="0.00 0.00 362.00 101.00" xmlns="http://www.w3.org/2000/svg" xmlns:xlink="http://www.w3.org/1999/xlink">
<g id="graph0" class="graph" transform="scale(1 1) rotate(0) translate(4 97)">
<title>Power Converter Control Driver</title>
<polygon fill="white" stroke="transparent" points="-4,4 -4,-97 358,-97 358,4 -4,4"/>
<!-- Node3 -->
<g id="node1" class="node">
<title>Node3</title>
<g id="a_node1"><a xlink:href="a00531.html" target="_top" xlink:title="Public functions of the Power Converter Control driver.">
<polygon fill="white" stroke="black" points="353,-93 294,-93 294,-74 353,-74 353,-93"/>
<text text-anchor="middle" x="323.5" y="-81" font-family="Helvetica,sans-Serif" font-size="10.00">Functions</text>
</a>
</g>
</g>
<!-- Node1 -->
<g id="node2" class="node">
<title>Node1</title>
<g id="a_node2"><a xlink:title=" ">
<polygon fill="#bfbfbf" stroke="black" points="257,-61.5 136,-61.5 136,-31.5 257,-31.5 257,-61.5"/>
<text text-anchor="start" x="144" y="-49.5" font-family="Helvetica,sans-Serif" font-size="10.00">Power Converter Control</text>
<text text-anchor="middle" x="196.5" y="-38.5" font-family="Helvetica,sans-Serif" font-size="10.00"> Driver</text>
</a>
</g>
</g>
<!-- Node1&#45;&gt;Node3 -->
<g id="edge2" class="edge">
<title>Node1&#45;&gt;Node3</title>
<path fill="none" stroke="black" d="M258.28,-64.49C270.73,-68.18 283.28,-71.89 293.94,-75.05"/>
<polygon fill="black" stroke="black" points="258.92,-61.03 248.34,-61.55 256.94,-67.74 258.92,-61.03"/>
</g>
<!-- Node4 -->
<g id="node3" class="node">
<title>Node4</title>
<g id="a_node3"><a xlink:href="a00532.html" target="_top" xlink:title="Public Objects of the Power Converter Control driver.">
<polygon fill="white" stroke="black" points="348.5,-56 298.5,-56 298.5,-37 348.5,-37 348.5,-56"/>
<text text-anchor="middle" x="323.5" y="-44" font-family="Helvetica,sans-Serif" font-size="10.00">Objects</text>
</a>
</g>
</g>
<!-- Node1&#45;&gt;Node4 -->
<g id="edge3" class="edge">
<title>Node1&#45;&gt;Node4</title>
<path fill="none" stroke="black" d="M267.32,-46.5C278.43,-46.5 289.23,-46.5 298.29,-46.5"/>
<polygon fill="black" stroke="black" points="267.07,-43 257.07,-46.5 267.07,-50 267.07,-43"/>
</g>
<!-- Node5 -->
<g id="node5" class="node">
<title>Node5</title>
<g id="a_node5"><a xlink:href="a00533.html" target="_top" xlink:title="Public properties of the Power Converter Control driver.">
<polygon fill="white" stroke="black" points="354,-19 293,-19 293,0 354,0 354,-19"/>
<text text-anchor="middle" x="323.5" y="-7" font-family="Helvetica,sans-Serif" font-size="10.00">Properties</text>
</a>
</g>
</g>
<!-- Node1&#45;&gt;Node5 -->
<g id="edge4" class="edge">
<title>Node1&#45;&gt;Node5</title>
<path fill="none" stroke="black" d="M258.01,-28.59C270.15,-25 282.38,-21.38 292.88,-18.27"/>
<polygon fill="black" stroke="black" points="256.94,-25.26 248.34,-31.45 258.92,-31.97 256.94,-25.26"/>
</g>
<!-- Node2 -->
<g id="node4" class="node">
<title>Node2</title>
<g id="a_node4"><a xlink:href="a00568.html" target="_top" xlink:title="Generic Library Driver Layer.">
<polygon fill="white" stroke="black" points="100,-56 0,-56 0,-37 100,-37 100,-56"/>
<text text-anchor="middle" x="50" y="-44" font-family="Helvetica,sans-Serif" font-size="10.00">Library Driver Layer</text>
</a>
</g>
</g>
<!-- Node2&#45;&gt;Node1 -->
<g id="edge1" class="edge">
<title>Node2&#45;&gt;Node1</title>
<path fill="none" stroke="black" d="M110.43,-46.5C118.84,-46.5 127.49,-46.5 135.91,-46.5"/>
<polygon fill="black" stroke="black" points="110.32,-43 100.32,-46.5 110.32,-50 110.32,-43"/>
</g>
</g>
</svg>
