<?xml version="1.0" encoding="UTF-8" standalone="no"?>
<!DOCTYPE svg PUBLIC "-//W3C//DTD SVG 1.1//EN"
 "http://www.w3.org/Graphics/SVG/1.1/DTD/svg11.dtd">
<!-- Generated by graphviz version 2.44.1 (20200629.0846)
 -->
<!-- Title: Library Driver Layer Pages: 1 -->
<svg width="265pt" height="146pt"
 viewBox="0.00 0.00 265.00 145.50" xmlns="http://www.w3.org/2000/svg" xmlns:xlink="http://www.w3.org/1999/xlink">
<g id="graph0" class="graph" transform="scale(1 1) rotate(0) translate(4 141.5)">
<title>Library Driver Layer</title>
<polygon fill="white" stroke="transparent" points="-4,4 -4,-141.5 261,-141.5 261,4 -4,4"/>
<!-- Node4 -->
<g id="node1" class="node">
<title>Node4</title>
<g id="a_node1"><a xlink:href="a00530.html" target="_top" xlink:title=" ">
<polygon fill="white" stroke="black" points="257,-137.5 136,-137.5 136,-107.5 257,-107.5 257,-137.5"/>
<text text-anchor="start" x="144" y="-125.5" font-family="Helvetica,sans-Serif" font-size="10.00">Power Converter Control</text>
<text text-anchor="middle" x="196.5" y="-114.5" font-family="Helvetica,sans-Serif" font-size="10.00"> Driver</text>
</a>
</g>
</g>
<!-- Node3 -->
<g id="node2" class="node">
<title>Node3</title>
<g id="a_node2"><a xlink:href="a00478.html" target="_top" xlink:title=" ">
<polygon fill="white" stroke="black" points="248.5,-89.5 144.5,-89.5 144.5,-59.5 248.5,-59.5 248.5,-89.5"/>
<text text-anchor="start" x="152.5" y="-77.5" font-family="Helvetica,sans-Serif" font-size="10.00">LC&#45;Display Interface</text>
<text text-anchor="middle" x="196.5" y="-66.5" font-family="Helvetica,sans-Serif" font-size="10.00"> Driver</text>
</a>
</g>
</g>
<!-- Node1 -->
<g id="node3" class="node">
<title>Node1</title>
<g id="a_node3"><a xlink:title="Generic Library Driver Layer.">
<polygon fill="#bfbfbf" stroke="black" points="100,-84 0,-84 0,-65 100,-65 100,-84"/>
<text text-anchor="middle" x="50" y="-72" font-family="Helvetica,sans-Serif" font-size="10.00">Library Driver Layer</text>
</a>
</g>
</g>
<!-- Node1&#45;&gt;Node4 -->
<g id="edge3" class="edge">
<title>Node1&#45;&gt;Node4</title>
<path fill="none" stroke="black" d="M89.53,-87.3C108.18,-93.49 130.69,-100.97 150.15,-107.44"/>
<polygon fill="black" stroke="black" points="90.49,-83.93 79.89,-84.1 88.28,-90.57 90.49,-83.93"/>
</g>
<!-- Node1&#45;&gt;Node3 -->
<g id="edge2" class="edge">
<title>Node1&#45;&gt;Node3</title>
<path fill="none" stroke="black" d="M110.51,-74.5C121.77,-74.5 133.46,-74.5 144.43,-74.5"/>
<polygon fill="black" stroke="black" points="110.32,-71 100.32,-74.5 110.32,-78 110.32,-71"/>
</g>
<!-- Node2 -->
<g id="node4" class="node">
<title>Node2</title>
<g id="a_node4"><a xlink:href="a00365.html" target="_top" xlink:title=" ">
<polygon fill="white" stroke="black" points="246,-41 147,-41 147,0 246,0 246,-41"/>
<text text-anchor="start" x="155" y="-29" font-family="Helvetica,sans-Serif" font-size="10.00">Peripheral Register</text>
<text text-anchor="start" x="155" y="-18" font-family="Helvetica,sans-Serif" font-size="10.00"> Abstraction Layer </text>
<text text-anchor="middle" x="196.5" y="-7" font-family="Helvetica,sans-Serif" font-size="10.00">(PRAL) Library</text>
</a>
</g>
</g>
<!-- Node1&#45;&gt;Node2 -->
<g id="edge1" class="edge">
<title>Node1&#45;&gt;Node2</title>
<path fill="none" stroke="black" d="M85.9,-61.46C104.2,-54.62 126.9,-46.14 146.89,-38.66"/>
<polygon fill="black" stroke="black" points="84.64,-58.19 76.5,-64.97 87.09,-64.75 84.64,-58.19"/>
</g>
</g>
</svg>
