<?xml version="1.0" encoding="UTF-8" standalone="no"?>
<!DOCTYPE svg PUBLIC "-//W3C//DTD SVG 1.1//EN"
 "http://www.w3.org/Graphics/SVG/1.1/DTD/svg11.dtd">
<!-- Generated by graphviz version 2.44.1 (20200629.0846)
 -->
<!-- Title: Initializing Firmware Tasks Pages: 1 -->
<svg width="411pt" height="64pt"
 viewBox="0.00 0.00 411.00 64.00" xmlns="http://www.w3.org/2000/svg" xmlns:xlink="http://www.w3.org/1999/xlink">
<g id="graph0" class="graph" transform="scale(1 1) rotate(0) translate(4 60)">
<title>Initializing Firmware Tasks</title>
<polygon fill="white" stroke="transparent" points="-4,4 -4,-60 407,-60 407,4 -4,4"/>
<!-- Node4 -->
<g id="node1" class="node">
<title>Node4</title>
<g id="a_node1"><a xlink:href="a00564.html" target="_top" xlink:title=" ">
<polygon fill="white" stroke="black" points="388,-56 273,-56 273,-37 388,-37 388,-56"/>
<text text-anchor="middle" x="330.5" y="-44" font-family="Helvetica,sans-Serif" font-size="10.00">User Task Initialization</text>
</a>
</g>
</g>
<!-- Node1 -->
<g id="node2" class="node">
<title>Node1</title>
<g id="a_node2"><a xlink:title=" ">
<polygon fill="#bfbfbf" stroke="black" points="222,-42.5 120,-42.5 120,-12.5 222,-12.5 222,-42.5"/>
<text text-anchor="start" x="128" y="-30.5" font-family="Helvetica,sans-Serif" font-size="10.00">Initializing Firmware</text>
<text text-anchor="middle" x="171" y="-19.5" font-family="Helvetica,sans-Serif" font-size="10.00"> Tasks</text>
</a>
</g>
</g>
<!-- Node1&#45;&gt;Node4 -->
<g id="edge3" class="edge">
<title>Node1&#45;&gt;Node4</title>
<path fill="none" stroke="black" d="M232.29,-34.77C245.62,-36.38 259.69,-38.08 272.87,-39.67"/>
<polygon fill="black" stroke="black" points="232.61,-31.29 222.27,-33.56 231.78,-38.24 232.61,-31.29"/>
</g>
<!-- Node3 -->
<g id="node3" class="node">
<title>Node3</title>
<g id="a_node3"><a xlink:href="a00563.html" target="_top" xlink:title=" ">
<polygon fill="white" stroke="black" points="403,-19 258,-19 258,0 403,0 403,-19"/>
<text text-anchor="middle" x="330.5" y="-7" font-family="Helvetica,sans-Serif" font-size="10.00">Operating System Time Base</text>
</a>
</g>
</g>
<!-- Node1&#45;&gt;Node3 -->
<g id="edge2" class="edge">
<title>Node1&#45;&gt;Node3</title>
<path fill="none" stroke="black" d="M232.3,-20.61C240.68,-19.65 249.34,-18.66 257.9,-17.68"/>
<polygon fill="black" stroke="black" points="231.8,-17.14 222.27,-21.76 232.6,-24.1 231.8,-17.14"/>
</g>
<!-- Node2 -->
<g id="node4" class="node">
<title>Node2</title>
<g id="a_node4"><a xlink:href="a00549.html" target="_top" xlink:title="Device Start Up.">
<polygon fill="white" stroke="black" points="84,-37 0,-37 0,-18 84,-18 84,-37"/>
<text text-anchor="middle" x="42" y="-25" font-family="Helvetica,sans-Serif" font-size="10.00">Device Start Up</text>
</a>
</g>
</g>
<!-- Node2&#45;&gt;Node1 -->
<g id="edge1" class="edge">
<title>Node2&#45;&gt;Node1</title>
<path fill="none" stroke="black" d="M94.26,-27.5C102.63,-27.5 111.3,-27.5 119.66,-27.5"/>
<polygon fill="black" stroke="black" points="94.23,-24 84.23,-27.5 94.23,-31 94.23,-24"/>
</g>
</g>
</svg>
