<?xml version="1.0" encoding="UTF-8" standalone="no"?>
<!DOCTYPE svg PUBLIC "-//W3C//DTD SVG 1.1//EN"
 "http://www.w3.org/Graphics/SVG/1.1/DTD/svg11.dtd">
<!-- Generated by graphviz version 2.44.1 (20200629.0846)
 -->
<!-- Title: Device Driver Library Layer Pages: 1 -->
<svg width="263pt" height="138pt"
 viewBox="0.00 0.00 263.00 138.00" xmlns="http://www.w3.org/2000/svg" xmlns:xlink="http://www.w3.org/1999/xlink">
<g id="graph0" class="graph" transform="scale(1 1) rotate(0) translate(4 134)">
<title>Device Driver Library Layer</title>
<polygon fill="white" stroke="transparent" points="-4,4 -4,-134 259,-134 259,4 -4,4"/>
<!-- Node2 -->
<g id="node1" class="node">
<title>Node2</title>
<g id="a_node1"><a xlink:href="a00457.html" target="_top" xlink:title=" ">
<polygon fill="white" stroke="black" points="251,-130 144,-130 144,-111 251,-111 251,-130"/>
<text text-anchor="middle" x="197.5" y="-118" font-family="Helvetica,sans-Serif" font-size="10.00">Fault Handler Library</text>
</a>
</g>
</g>
<!-- Node3 -->
<g id="node2" class="node">
<title>Node3</title>
<g id="a_node2"><a xlink:href="a00473.html" target="_top" xlink:title=" ">
<polygon fill="white" stroke="black" points="245.5,-93 149.5,-93 149.5,-74 245.5,-74 245.5,-93"/>
<text text-anchor="middle" x="197.5" y="-81" font-family="Helvetica,sans-Serif" font-size="10.00">LC&#45;Display Library</text>
</a>
</g>
</g>
<!-- Node4 -->
<g id="node3" class="node">
<title>Node4</title>
<g id="a_node3"><a xlink:href="a00494.html" target="_top" xlink:title=" ">
<polygon fill="white" stroke="black" points="255,-56 140,-56 140,-37 255,-37 255,-56"/>
<text text-anchor="middle" x="197.5" y="-44" font-family="Helvetica,sans-Serif" font-size="10.00">Buck Converter Library</text>
</a>
</g>
</g>
<!-- Node5 -->
<g id="node4" class="node">
<title>Node5</title>
<g id="a_node4"><a xlink:href="a00543.html" target="_top" xlink:title=" ">
<polygon fill="white" stroke="black" points="249,-19 146,-19 146,0 249,0 249,-19"/>
<text text-anchor="middle" x="197.5" y="-7" font-family="Helvetica,sans-Serif" font-size="10.00">Push&#45;Button Library</text>
</a>
</g>
</g>
<!-- Node1 -->
<g id="node5" class="node">
<title>Node1</title>
<g id="a_node5"><a xlink:title="Generic Device Driver Layer.">
<polygon fill="#bfbfbf" stroke="black" points="104,-79.5 0,-79.5 0,-49.5 104,-49.5 104,-79.5"/>
<text text-anchor="start" x="8" y="-67.5" font-family="Helvetica,sans-Serif" font-size="10.00">Device Driver Library</text>
<text text-anchor="middle" x="52" y="-56.5" font-family="Helvetica,sans-Serif" font-size="10.00"> Layer</text>
</a>
</g>
</g>
<!-- Node1&#45;&gt;Node2 -->
<g id="edge1" class="edge">
<title>Node1&#45;&gt;Node2</title>
<path fill="none" stroke="black" d="M94.82,-83.81C109.03,-90.09 125.09,-96.88 140,-102.5 147.9,-105.47 156.54,-108.39 164.63,-110.98"/>
<polygon fill="black" stroke="black" points="95.87,-80.44 85.31,-79.56 93.01,-86.84 95.87,-80.44"/>
</g>
<!-- Node1&#45;&gt;Node3 -->
<g id="edge2" class="edge">
<title>Node1&#45;&gt;Node3</title>
<path fill="none" stroke="black" d="M114.51,-72.64C126.15,-74.19 138.16,-75.78 149.28,-77.25"/>
<polygon fill="black" stroke="black" points="114.77,-69.15 104.4,-71.31 113.86,-76.09 114.77,-69.15"/>
</g>
<!-- Node1&#45;&gt;Node4 -->
<g id="edge3" class="edge">
<title>Node1&#45;&gt;Node4</title>
<path fill="none" stroke="black" d="M114.46,-56.79C122.81,-55.74 131.35,-54.67 139.62,-53.64"/>
<polygon fill="black" stroke="black" points="113.89,-53.33 104.4,-58.05 114.76,-60.28 113.89,-53.33"/>
</g>
<!-- Node1&#45;&gt;Node5 -->
<g id="edge4" class="edge">
<title>Node1&#45;&gt;Node5</title>
<path fill="none" stroke="black" d="M97.51,-45.4C111.07,-39.77 126.08,-33.71 140,-28.5 148.63,-25.27 158.08,-21.99 166.75,-19.08"/>
<polygon fill="black" stroke="black" points="95.79,-42.33 87.92,-49.42 98.5,-48.78 95.79,-42.33"/>
</g>
</g>
</svg>
