<?xml version="1.0" encoding="UTF-8" standalone="no"?>
<!DOCTYPE svg PUBLIC "-//W3C//DTD SVG 1.1//EN"
 "http://www.w3.org/Graphics/SVG/1.1/DTD/svg11.dtd">
<!-- Generated by graphviz version 2.44.1 (20200629.0846)
 -->
<!-- Title: sysUserPeriperhals_Initialize Pages: 1 -->
<svg width="649pt" height="237pt"
 viewBox="0.00 0.00 649.00 237.00" xmlns="http://www.w3.org/2000/svg" xmlns:xlink="http://www.w3.org/1999/xlink">
<g id="graph0" class="graph" transform="scale(1 1) rotate(0) translate(4 233)">
<title>sysUserPeriperhals_Initialize</title>
<polygon fill="white" stroke="transparent" points="-4,4 -4,-233 645,-233 645,4 -4,4"/>
<!-- Node1 -->
<g id="node1" class="node">
<title>Node1</title>
<g id="a_node1"><a xlink:title="Initializes the user&#45;defined chip resources.">
<polygon fill="#bfbfbf" stroke="black" points="0,-90 0,-120 101,-120 101,-90 0,-90"/>
<text text-anchor="start" x="8" y="-108" font-family="Helvetica,sans-Serif" font-size="10.00">sysUserPeriperhals</text>
<text text-anchor="middle" x="50.5" y="-97" font-family="Helvetica,sans-Serif" font-size="10.00">_Initialize</text>
</a>
</g>
</g>
<!-- Node2 -->
<g id="node2" class="node">
<title>Node2</title>
<g id="a_node2"><a xlink:href="a00560.html#gab420e63336f317e197b1cb8861561c3f" target="_top" xlink:title="DAC Module Base Register Initialization.">
<polygon fill="white" stroke="black" points="142,-190.5 142,-209.5 264,-209.5 264,-190.5 142,-190.5"/>
<text text-anchor="middle" x="203" y="-197.5" font-family="Helvetica,sans-Serif" font-size="10.00">sysDacModule_Initialize</text>
</a>
</g>
</g>
<!-- Node1&#45;&gt;Node2 -->
<g id="edge1" class="edge">
<title>Node1&#45;&gt;Node2</title>
<path fill="none" stroke="midnightblue" d="M64.51,-120.04C80.11,-137.16 107.81,-164.84 137,-181 140.98,-183.21 145.25,-185.18 149.62,-186.94"/>
<polygon fill="midnightblue" stroke="midnightblue" points="148.7,-190.33 159.3,-190.46 151.1,-183.75 148.7,-190.33"/>
</g>
<!-- Node6 -->
<g id="node6" class="node">
<title>Node6</title>
<g id="a_node6"><a xlink:href="a00560.html#ga2f97c3082e0d6f724cea482c10c2d08f" target="_top" xlink:title=" ">
<polygon fill="white" stroke="black" points="146,-152.5 146,-171.5 260,-171.5 260,-152.5 146,-152.5"/>
<text text-anchor="middle" x="203" y="-159.5" font-family="Helvetica,sans-Serif" font-size="10.00">sysDacOutput_Enable</text>
</a>
</g>
</g>
<!-- Node1&#45;&gt;Node6 -->
<g id="edge6" class="edge">
<title>Node1&#45;&gt;Node6</title>
<path fill="none" stroke="midnightblue" d="M82.76,-120.1C98.77,-127.52 118.7,-136.29 137,-143 143.3,-145.31 150.03,-147.54 156.68,-149.6"/>
<polygon fill="midnightblue" stroke="midnightblue" points="155.71,-152.96 166.3,-152.5 157.73,-146.26 155.71,-152.96"/>
</g>
<!-- Node8 -->
<g id="node8" class="node">
<title>Node8</title>
<g id="a_node8"><a xlink:href="a00560.html#ga231ffdd65b0ae520b467cbc6fbbf8d03" target="_top" xlink:title="Initializes a user specified DAC instance with DAC output enabled.">
<polygon fill="white" stroke="black" points="143.5,-114.5 143.5,-133.5 262.5,-133.5 262.5,-114.5 143.5,-114.5"/>
<text text-anchor="middle" x="203" y="-121.5" font-family="Helvetica,sans-Serif" font-size="10.00">sysDacOutput_Initialize</text>
</a>
</g>
</g>
<!-- Node1&#45;&gt;Node8 -->
<g id="edge9" class="edge">
<title>Node1&#45;&gt;Node8</title>
<path fill="none" stroke="midnightblue" d="M101.2,-111.27C111.55,-112.58 122.64,-113.98 133.54,-115.36"/>
<polygon fill="midnightblue" stroke="midnightblue" points="133.11,-118.83 143.47,-116.61 133.99,-111.89 133.11,-118.83"/>
</g>
<!-- Node11 -->
<g id="node11" class="node">
<title>Node11</title>
<g id="a_node11"><a xlink:href="a00561.html#gaf4c74cf390185b49d99838e0f9885076" target="_top" xlink:title="Initializes the on&#45;chip operational amplifier module.">
<polygon fill="white" stroke="black" points="150,-76.5 150,-95.5 256,-95.5 256,-76.5 150,-76.5"/>
<text text-anchor="middle" x="203" y="-83.5" font-family="Helvetica,sans-Serif" font-size="10.00">sysOpAmp_Initialize</text>
</a>
</g>
</g>
<!-- Node1&#45;&gt;Node11 -->
<g id="edge13" class="edge">
<title>Node1&#45;&gt;Node11</title>
<path fill="none" stroke="midnightblue" d="M101.2,-98.73C113.49,-97.17 126.82,-95.49 139.64,-93.87"/>
<polygon fill="midnightblue" stroke="midnightblue" points="140.29,-97.32 149.77,-92.59 139.41,-90.37 140.29,-97.32"/>
</g>
<!-- Node13 -->
<g id="node13" class="node">
<title>Node13</title>
<g id="a_node13"><a xlink:href="a00561.html#ga3cd080c9a48a5d74d8b2f89fdec161da" target="_top" xlink:title="Enables the on&#45;chip operational amplifier module.">
<polygon fill="white" stroke="black" points="137,-38.5 137,-57.5 269,-57.5 269,-38.5 137,-38.5"/>
<text text-anchor="middle" x="203" y="-45.5" font-family="Helvetica,sans-Serif" font-size="10.00">sysOpAmp_ModuleEnable</text>
</a>
</g>
</g>
<!-- Node1&#45;&gt;Node13 -->
<g id="edge15" class="edge">
<title>Node1&#45;&gt;Node13</title>
<path fill="none" stroke="midnightblue" d="M82.76,-89.9C98.77,-82.48 118.7,-73.71 137,-67 143.3,-64.69 150.03,-62.46 156.68,-60.4"/>
<polygon fill="midnightblue" stroke="midnightblue" points="157.73,-63.74 166.3,-57.5 155.71,-57.04 157.73,-63.74"/>
</g>
<!-- Node14 -->
<g id="node14" class="node">
<title>Node14</title>
<g id="a_node14"><a xlink:href="a00561.html#ga4dbd2367ecd449226460b0b0a52cbe8b" target="_top" xlink:title="Resets the on&#45;chip operational amplifier module.">
<polygon fill="white" stroke="black" points="139,-0.5 139,-19.5 267,-19.5 267,-0.5 139,-0.5"/>
<text text-anchor="middle" x="203" y="-7.5" font-family="Helvetica,sans-Serif" font-size="10.00">sysOpAmp_ModuleReset</text>
</a>
</g>
</g>
<!-- Node1&#45;&gt;Node14 -->
<g id="edge17" class="edge">
<title>Node1&#45;&gt;Node14</title>
<path fill="none" stroke="midnightblue" d="M64.51,-89.96C80.11,-72.84 107.81,-45.16 137,-29 140.98,-26.79 145.25,-24.82 149.62,-23.06"/>
<polygon fill="midnightblue" stroke="midnightblue" points="151.1,-26.25 159.3,-19.54 148.7,-19.67 151.1,-26.25"/>
</g>
<!-- Node3 -->
<g id="node3" class="node">
<title>Node3</title>
<g id="a_node3"><a xlink:href="a00375.html#gaddf7b491a947c7f557b89235588c0219" target="_top" xlink:title="Writes a user&#45;defined configuration to the DAC module base registers.">
<polygon fill="white" stroke="black" points="491.5,-209.5 491.5,-228.5 638.5,-228.5 638.5,-209.5 491.5,-209.5"/>
<text text-anchor="middle" x="565" y="-216.5" font-family="Helvetica,sans-Serif" font-size="10.00">p33c_DacModule_ConfigWrite</text>
</a>
</g>
</g>
<!-- Node2&#45;&gt;Node3 -->
<g id="edge2" class="edge">
<title>Node2&#45;&gt;Node3</title>
<path fill="none" stroke="midnightblue" d="M245.03,-209.51C263.28,-213.28 285.1,-217.14 305,-219 363.64,-224.47 430.07,-224.34 480.97,-222.91"/>
<polygon fill="midnightblue" stroke="midnightblue" points="481.38,-226.4 491.27,-222.6 481.16,-219.4 481.38,-226.4"/>
</g>
<!-- Node4 -->
<g id="node4" class="node">
<title>Node4</title>
<g id="a_node4"><a xlink:href="a00375.html#gaf0ea62728fde73f2119e47f67baf2ff0" target="_top" xlink:title="Resets all DAC Module registers to their RESET default values.">
<polygon fill="white" stroke="black" points="313,-190.5 313,-209.5 445,-209.5 445,-190.5 313,-190.5"/>
<text text-anchor="middle" x="379" y="-197.5" font-family="Helvetica,sans-Serif" font-size="10.00">p33c_DacModule_Dispose</text>
</a>
</g>
</g>
<!-- Node2&#45;&gt;Node4 -->
<g id="edge3" class="edge">
<title>Node2&#45;&gt;Node4</title>
<path fill="none" stroke="midnightblue" d="M264.37,-200C276.76,-200 289.95,-200 302.79,-200"/>
<polygon fill="midnightblue" stroke="midnightblue" points="302.99,-203.5 312.99,-200 302.99,-196.5 302.99,-203.5"/>
</g>
<!-- Node5 -->
<g id="node5" class="node">
<title>Node5</title>
<g id="a_node5"><a xlink:href="a00375.html#ga72e7cdf4177d0403e8ff925314ec1bc7" target="_top" xlink:title="Gets pointer to DAC Module SFR set.">
<polygon fill="white" stroke="black" points="307.5,-152.5 307.5,-171.5 450.5,-171.5 450.5,-152.5 307.5,-152.5"/>
<text text-anchor="middle" x="379" y="-159.5" font-family="Helvetica,sans-Serif" font-size="10.00">p33c_DacModule_GetHandle</text>
</a>
</g>
</g>
<!-- Node2&#45;&gt;Node5 -->
<g id="edge5" class="edge">
<title>Node2&#45;&gt;Node5</title>
<path fill="none" stroke="midnightblue" d="M247.91,-190.41C271.18,-185.33 299.95,-179.04 324.52,-173.68"/>
<polygon fill="midnightblue" stroke="midnightblue" points="325.39,-177.07 334.41,-171.52 323.89,-170.23 325.39,-177.07"/>
</g>
<!-- Node4&#45;&gt;Node3 -->
<g id="edge4" class="edge">
<title>Node4&#45;&gt;Node3</title>
<path fill="none" stroke="midnightblue" d="M445.13,-206.73C456.84,-207.93 469.19,-209.21 481.32,-210.46"/>
<polygon fill="midnightblue" stroke="midnightblue" points="481.13,-213.96 491.44,-211.51 481.85,-207 481.13,-213.96"/>
</g>
<!-- Node6&#45;&gt;Node5 -->
<g id="edge8" class="edge">
<title>Node6&#45;&gt;Node5</title>
<path fill="none" stroke="midnightblue" d="M260.01,-162C271.93,-162 284.74,-162 297.36,-162"/>
<polygon fill="midnightblue" stroke="midnightblue" points="297.43,-165.5 307.43,-162 297.43,-158.5 297.43,-165.5"/>
</g>
<!-- Node7 -->
<g id="node7" class="node">
<title>Node7</title>
<g id="a_node7"><a xlink:href="a00375.html#gac98f16c744b3712654c1bbb58acb4e33" target="_top" xlink:title="Gets pointer to DAC Instance SFR set.">
<polygon fill="white" stroke="black" points="305,-114.5 305,-133.5 453,-133.5 453,-114.5 305,-114.5"/>
<text text-anchor="middle" x="379" y="-121.5" font-family="Helvetica,sans-Serif" font-size="10.00">p33c_DacInstance_GetHandle</text>
</a>
</g>
</g>
<!-- Node6&#45;&gt;Node7 -->
<g id="edge7" class="edge">
<title>Node6&#45;&gt;Node7</title>
<path fill="none" stroke="midnightblue" d="M247.91,-152.41C271.18,-147.33 299.95,-141.04 324.52,-135.68"/>
<polygon fill="midnightblue" stroke="midnightblue" points="325.39,-139.07 334.41,-133.52 323.89,-132.23 325.39,-139.07"/>
</g>
<!-- Node8&#45;&gt;Node7 -->
<g id="edge12" class="edge">
<title>Node8&#45;&gt;Node7</title>
<path fill="none" stroke="midnightblue" d="M262.91,-124C273.14,-124 283.96,-124 294.7,-124"/>
<polygon fill="midnightblue" stroke="midnightblue" points="294.96,-127.5 304.96,-124 294.96,-120.5 294.96,-127.5"/>
</g>
<!-- Node9 -->
<g id="node9" class="node">
<title>Node9</title>
<g id="a_node9"><a xlink:href="a00375.html#ga39037bccfba783fdd8c9a52cbe651ca4" target="_top" xlink:title="Resets all DAC Instance registers to their RESET default values.">
<polygon fill="white" stroke="black" points="310.5,-76.5 310.5,-95.5 447.5,-95.5 447.5,-76.5 310.5,-76.5"/>
<text text-anchor="middle" x="379" y="-83.5" font-family="Helvetica,sans-Serif" font-size="10.00">p33c_DacInstance_Dispose</text>
</a>
</g>
</g>
<!-- Node8&#45;&gt;Node9 -->
<g id="edge10" class="edge">
<title>Node8&#45;&gt;Node9</title>
<path fill="none" stroke="midnightblue" d="M247.91,-114.41C271.18,-109.33 299.95,-103.04 324.52,-97.68"/>
<polygon fill="midnightblue" stroke="midnightblue" points="325.39,-101.07 334.41,-95.52 323.89,-94.23 325.39,-101.07"/>
</g>
<!-- Node10 -->
<g id="node10" class="node">
<title>Node10</title>
<g id="a_node10"><a xlink:href="a00375.html#gac471660aeec8e8329369435914c5befa" target="_top" xlink:title="Writes a user&#45;defined configuration to the DAC instance registers.">
<polygon fill="white" stroke="black" points="489,-76.5 489,-95.5 641,-95.5 641,-76.5 489,-76.5"/>
<text text-anchor="middle" x="565" y="-83.5" font-family="Helvetica,sans-Serif" font-size="10.00">p33c_DacInstance_ConfigWrite</text>
</a>
</g>
</g>
<!-- Node9&#45;&gt;Node10 -->
<g id="edge11" class="edge">
<title>Node9&#45;&gt;Node10</title>
<path fill="none" stroke="midnightblue" d="M447.73,-86C457.8,-86 468.28,-86 478.66,-86"/>
<polygon fill="midnightblue" stroke="midnightblue" points="478.97,-89.5 488.97,-86 478.97,-82.5 478.97,-89.5"/>
</g>
<!-- Node12 -->
<g id="node12" class="node">
<title>Node12</title>
<g id="a_node12"><a xlink:href="a00378.html#gacaacda32efbc1383f62de2ba1bb95a34" target="_top" xlink:title="Gets pointer to op&#45;amp Module SFR set.">
<polygon fill="white" stroke="black" points="307.5,-38.5 307.5,-57.5 450.5,-57.5 450.5,-38.5 307.5,-38.5"/>
<text text-anchor="middle" x="379" y="-45.5" font-family="Helvetica,sans-Serif" font-size="10.00">p33c_OpaModule_GetHandle</text>
</a>
</g>
</g>
<!-- Node11&#45;&gt;Node12 -->
<g id="edge14" class="edge">
<title>Node11&#45;&gt;Node12</title>
<path fill="none" stroke="midnightblue" d="M247.91,-76.41C271.18,-71.33 299.95,-65.04 324.52,-59.68"/>
<polygon fill="midnightblue" stroke="midnightblue" points="325.39,-63.07 334.41,-57.52 323.89,-56.23 325.39,-63.07"/>
</g>
<!-- Node13&#45;&gt;Node12 -->
<g id="edge16" class="edge">
<title>Node13&#45;&gt;Node12</title>
<path fill="none" stroke="midnightblue" d="M269.29,-48C278.42,-48 287.9,-48 297.28,-48"/>
<polygon fill="midnightblue" stroke="midnightblue" points="297.4,-51.5 307.4,-48 297.4,-44.5 297.4,-51.5"/>
</g>
<!-- Node14&#45;&gt;Node12 -->
<g id="edge18" class="edge">
<title>Node14&#45;&gt;Node12</title>
<path fill="none" stroke="midnightblue" d="M247.91,-19.59C271.18,-24.67 299.95,-30.96 324.52,-36.32"/>
<polygon fill="midnightblue" stroke="midnightblue" points="323.89,-39.77 334.41,-38.48 325.39,-32.93 323.89,-39.77"/>
</g>
</g>
</svg>
