<?xml version="1.0" encoding="UTF-8" standalone="no"?>
<!DOCTYPE svg PUBLIC "-//W3C//DTD SVG 1.1//EN"
 "http://www.w3.org/Graphics/SVG/1.1/DTD/svg11.dtd">
<!-- Generated by graphviz version 2.44.1 (20200629.0846)
 -->
<!-- Title: Properties Pages: 1 -->
<svg width="374pt" height="138pt"
 viewBox="0.00 0.00 374.00 138.00" xmlns="http://www.w3.org/2000/svg" xmlns:xlink="http://www.w3.org/1999/xlink">
<g id="graph0" class="graph" transform="scale(1 1) rotate(0) translate(4 134)">
<title>Properties</title>
<polygon fill="white" stroke="transparent" points="-4,4 -4,-134 370,-134 370,4 -4,4"/>
<!-- Node2 -->
<g id="node1" class="node">
<title>Node2</title>
<g id="a_node1"><a xlink:href="a00530.html" target="_top" xlink:title=" ">
<polygon fill="white" stroke="black" points="121,-79.5 0,-79.5 0,-49.5 121,-49.5 121,-79.5"/>
<text text-anchor="start" x="8" y="-67.5" font-family="Helvetica,sans-Serif" font-size="10.00">Power Converter Control</text>
<text text-anchor="middle" x="60.5" y="-56.5" font-family="Helvetica,sans-Serif" font-size="10.00"> Driver</text>
</a>
</g>
</g>
<!-- Node1 -->
<g id="node4" class="node">
<title>Node1</title>
<g id="a_node4"><a xlink:title="Public properties of the Power Converter Control driver.">
<polygon fill="#bfbfbf" stroke="black" points="218,-74 157,-74 157,-55 218,-55 218,-74"/>
<text text-anchor="middle" x="187.5" y="-62" font-family="Helvetica,sans-Serif" font-size="10.00">Properties</text>
</a>
</g>
</g>
<!-- Node2&#45;&gt;Node1 -->
<g id="edge1" class="edge">
<title>Node2&#45;&gt;Node1</title>
<path fill="none" stroke="black" d="M131.28,-64.5C140.28,-64.5 149.07,-64.5 156.91,-64.5"/>
<polygon fill="black" stroke="black" points="131.07,-61 121.07,-64.5 131.07,-68 131.07,-61"/>
</g>
<!-- Node3 -->
<g id="node2" class="node">
<title>Node3</title>
<g id="a_node2"><a xlink:href="a00534.html" target="_top" xlink:title="Public properties of the Power Converter Control driver.">
<polygon fill="white" stroke="black" points="347,-130 273,-130 273,-111 347,-111 347,-130"/>
<text text-anchor="middle" x="310" y="-118" font-family="Helvetica,sans-Serif" font-size="10.00">Data Objects</text>
</a>
</g>
</g>
<!-- Node6 -->
<g id="node3" class="node">
<title>Node6</title>
<g id="a_node3"><a xlink:href="a00537.html" target="_top" xlink:title="Public variables of the Power Converter Control driver.">
<polygon fill="white" stroke="black" points="338.5,-93 281.5,-93 281.5,-74 338.5,-74 338.5,-93"/>
<text text-anchor="middle" x="310" y="-81" font-family="Helvetica,sans-Serif" font-size="10.00">Variables</text>
</a>
</g>
</g>
<!-- Node1&#45;&gt;Node3 -->
<g id="edge2" class="edge">
<title>Node1&#45;&gt;Node3</title>
<path fill="none" stroke="black" d="M211.54,-79.46C223.82,-87.02 239.37,-95.95 254,-102.5 260.97,-105.62 268.65,-108.47 276,-110.95"/>
<polygon fill="black" stroke="black" points="213.19,-76.37 202.86,-74.01 209.47,-82.29 213.19,-76.37"/>
</g>
<!-- Node1&#45;&gt;Node6 -->
<g id="edge5" class="edge">
<title>Node1&#45;&gt;Node6</title>
<path fill="none" stroke="black" d="M228.64,-70.83C245.89,-73.55 265.62,-76.66 281.21,-79.12"/>
<polygon fill="black" stroke="black" points="228.71,-67.3 218.29,-69.2 227.62,-74.21 228.71,-67.3"/>
</g>
<!-- Node4 -->
<g id="node5" class="node">
<title>Node4</title>
<g id="a_node5"><a xlink:href="a00535.html" target="_top" xlink:title="Public properties of the Power Converter Control driver.">
<polygon fill="white" stroke="black" points="366,-56 254,-56 254,-37 366,-37 366,-56"/>
<text text-anchor="middle" x="310" y="-44" font-family="Helvetica,sans-Serif" font-size="10.00">Data Object Members</text>
</a>
</g>
</g>
<!-- Node1&#45;&gt;Node4 -->
<g id="edge3" class="edge">
<title>Node1&#45;&gt;Node4</title>
<path fill="none" stroke="black" d="M228.26,-58.56C236.41,-57.34 245.13,-56.04 253.71,-54.76"/>
<polygon fill="black" stroke="black" points="227.66,-55.11 218.29,-60.05 228.69,-62.03 227.66,-55.11"/>
</g>
<!-- Node5 -->
<g id="node6" class="node">
<title>Node5</title>
<g id="a_node6"><a xlink:href="a00536.html" target="_top" xlink:title="Public properties of the Power Converter Control driver.">
<polygon fill="white" stroke="black" points="357,-19 263,-19 263,0 357,0 357,-19"/>
<text text-anchor="middle" x="310" y="-7" font-family="Helvetica,sans-Serif" font-size="10.00">Defines &amp; Macros</text>
</a>
</g>
</g>
<!-- Node1&#45;&gt;Node5 -->
<g id="edge4" class="edge">
<title>Node1&#45;&gt;Node5</title>
<path fill="none" stroke="black" d="M212.65,-49.94C224.81,-42.94 239.92,-34.75 254,-28.5 261.76,-25.06 270.34,-21.83 278.38,-19.04"/>
<polygon fill="black" stroke="black" points="210.87,-46.93 204,-55 214.4,-52.97 210.87,-46.93"/>
</g>
</g>
</svg>
