<?xml version="1.0" encoding="UTF-8" standalone="no"?>
<!DOCTYPE svg PUBLIC "-//W3C//DTD SVG 1.1//EN"
 "http://www.w3.org/Graphics/SVG/1.1/DTD/svg11.dtd">
<!-- Generated by graphviz version 2.44.1 (20200629.0846)
 -->
<!-- Title: Initializing Hardware&#45;Specific Chip Resources Pages: 1 -->
<svg width="427pt" height="113pt"
 viewBox="0.00 0.00 427.00 112.50" xmlns="http://www.w3.org/2000/svg" xmlns:xlink="http://www.w3.org/1999/xlink">
<g id="graph0" class="graph" transform="scale(1 1) rotate(0) translate(4 108.5)">
<title>Initializing Hardware&#45;Specific Chip Resources</title>
<polygon fill="white" stroke="transparent" points="-4,4 -4,-108.5 423,-108.5 423,4 -4,4"/>
<!-- Node3 -->
<g id="node1" class="node">
<title>Node3</title>
<g id="a_node1"><a xlink:href="a00559.html" target="_top" xlink:title=" ">
<polygon fill="white" stroke="black" points="419,-104.5 282,-104.5 282,-85.5 419,-85.5 419,-104.5"/>
<text text-anchor="middle" x="350.5" y="-92.5" font-family="Helvetica,sans-Serif" font-size="10.00">User Peripheral Initialization</text>
</a>
</g>
</g>
<!-- Node4 -->
<g id="node2" class="node">
<title>Node4</title>
<g id="a_node2"><a xlink:href="a00560.html" target="_top" xlink:title=" ">
<polygon fill="white" stroke="black" points="416,-67.5 285,-67.5 285,-48.5 416,-48.5 416,-67.5"/>
<text text-anchor="middle" x="350.5" y="-55.5" font-family="Helvetica,sans-Serif" font-size="10.00">Digital&#45;to&#45;Analog Converter</text>
</a>
</g>
</g>
<!-- Node1 -->
<g id="node3" class="node">
<title>Node1</title>
<g id="a_node3"><a xlink:title=" ">
<polygon fill="#bfbfbf" stroke="black" points="246,-73 120,-73 120,-43 246,-43 246,-73"/>
<text text-anchor="start" x="128" y="-61" font-family="Helvetica,sans-Serif" font-size="10.00">Initializing Hardware</text>
<text text-anchor="middle" x="183" y="-50" font-family="Helvetica,sans-Serif" font-size="10.00">&#45;Specific Chip Resources</text>
</a>
</g>
</g>
<!-- Node1&#45;&gt;Node3 -->
<g id="edge2" class="edge">
<title>Node1&#45;&gt;Node3</title>
<path fill="none" stroke="black" d="M256.19,-74.14C273.5,-78.01 291.44,-82.02 306.91,-85.48"/>
<polygon fill="black" stroke="black" points="256.62,-70.65 246.1,-71.88 255.09,-77.48 256.62,-70.65"/>
</g>
<!-- Node1&#45;&gt;Node4 -->
<g id="edge3" class="edge">
<title>Node1&#45;&gt;Node4</title>
<path fill="none" stroke="black" d="M256.31,-58C265.8,-58 275.49,-58 284.84,-58"/>
<polygon fill="black" stroke="black" points="256.1,-54.5 246.1,-58 256.1,-61.5 256.1,-54.5"/>
</g>
<!-- Node5 -->
<g id="node4" class="node">
<title>Node5</title>
<g id="a_node4"><a xlink:href="a00561.html" target="_top" xlink:title=" ">
<polygon fill="white" stroke="black" points="404,-30 297,-30 297,0 404,0 404,-30"/>
<text text-anchor="start" x="305" y="-18" font-family="Helvetica,sans-Serif" font-size="10.00">Operational Amplifier</text>
<text text-anchor="middle" x="350.5" y="-7" font-family="Helvetica,sans-Serif" font-size="10.00"> Configuration</text>
</a>
</g>
</g>
<!-- Node1&#45;&gt;Node5 -->
<g id="edge4" class="edge">
<title>Node1&#45;&gt;Node5</title>
<path fill="none" stroke="black" d="M251.68,-40.42C266.76,-36.5 282.54,-32.4 296.91,-28.66"/>
<polygon fill="black" stroke="black" points="250.68,-37.06 241.88,-42.96 252.44,-43.83 250.68,-37.06"/>
</g>
<!-- Node2 -->
<g id="node5" class="node">
<title>Node2</title>
<g id="a_node5"><a xlink:href="a00549.html" target="_top" xlink:title="Device Start Up.">
<polygon fill="white" stroke="black" points="84,-67.5 0,-67.5 0,-48.5 84,-48.5 84,-67.5"/>
<text text-anchor="middle" x="42" y="-55.5" font-family="Helvetica,sans-Serif" font-size="10.00">Device Start Up</text>
</a>
</g>
</g>
<!-- Node2&#45;&gt;Node1 -->
<g id="edge1" class="edge">
<title>Node2&#45;&gt;Node1</title>
<path fill="none" stroke="black" d="M94.58,-58C102.86,-58 111.5,-58 119.99,-58"/>
<polygon fill="black" stroke="black" points="94.33,-54.5 84.33,-58 94.33,-61.5 94.33,-54.5"/>
</g>
</g>
</svg>
