<?xml version="1.0" encoding="UTF-8" standalone="no"?>
<!DOCTYPE svg PUBLIC "-//W3C//DTD SVG 1.1//EN"
 "http://www.w3.org/Graphics/SVG/1.1/DTD/svg11.dtd">
<!-- Generated by graphviz version 2.44.1 (20200629.0846)
 -->
<!-- Title: Push&#45;Button Library Pages: 1 -->
<svg width="380pt" height="138pt"
 viewBox="0.00 0.00 380.00 138.00" xmlns="http://www.w3.org/2000/svg" xmlns:xlink="http://www.w3.org/1999/xlink">
<g id="graph0" class="graph" transform="scale(1 1) rotate(0) translate(4 134)">
<title>Push&#45;Button Library</title>
<polygon fill="white" stroke="transparent" points="-4,4 -4,-134 376,-134 376,4 -4,4"/>
<!-- Node4 -->
<g id="node1" class="node">
<title>Node4</title>
<g id="a_node1"><a xlink:href="a00545.html" target="_top" xlink:title="Public properties of the push button device driver library.">
<polygon fill="white" stroke="black" points="371,-130 280,-130 280,-111 371,-111 371,-130"/>
<text text-anchor="middle" x="325.5" y="-118" font-family="Helvetica,sans-Serif" font-size="10.00">Public Properties</text>
</a>
</g>
</g>
<!-- Node6 -->
<g id="node2" class="node">
<title>Node6</title>
<g id="a_node2"><a xlink:href="a00547.html" target="_top" xlink:title="Private properties of the push button device driver library.">
<polygon fill="white" stroke="black" points="372,-93 279,-93 279,-74 372,-74 372,-93"/>
<text text-anchor="middle" x="325.5" y="-81" font-family="Helvetica,sans-Serif" font-size="10.00">Private Properties</text>
</a>
</g>
</g>
<!-- Node3 -->
<g id="node3" class="node">
<title>Node3</title>
<g id="a_node3"><a xlink:href="a00544.html" target="_top" xlink:title="Public functions of the push button device driver library.">
<polygon fill="white" stroke="black" points="370,-56 281,-56 281,-37 370,-37 370,-56"/>
<text text-anchor="middle" x="325.5" y="-44" font-family="Helvetica,sans-Serif" font-size="10.00">Public Functions</text>
</a>
</g>
</g>
<!-- Node1 -->
<g id="node4" class="node">
<title>Node1</title>
<g id="a_node4"><a xlink:title=" ">
<polygon fill="#bfbfbf" stroke="black" points="243,-74 140,-74 140,-55 243,-55 243,-74"/>
<text text-anchor="middle" x="191.5" y="-62" font-family="Helvetica,sans-Serif" font-size="10.00">Push&#45;Button Library</text>
</a>
</g>
</g>
<!-- Node1&#45;&gt;Node4 -->
<g id="edge3" class="edge">
<title>Node1&#45;&gt;Node4</title>
<path fill="none" stroke="black" d="M222.92,-78.19C239.44,-85.55 260.27,-94.69 279,-102.5 285.74,-105.31 293.09,-108.27 299.87,-110.95"/>
<polygon fill="black" stroke="black" points="224.29,-74.97 213.73,-74.09 221.44,-81.37 224.29,-74.97"/>
</g>
<!-- Node1&#45;&gt;Node6 -->
<g id="edge5" class="edge">
<title>Node1&#45;&gt;Node6</title>
<path fill="none" stroke="black" d="M253.22,-73.24C261.88,-74.49 270.65,-75.75 278.95,-76.94"/>
<polygon fill="black" stroke="black" points="253.55,-69.75 243.16,-71.79 252.56,-76.68 253.55,-69.75"/>
</g>
<!-- Node1&#45;&gt;Node3 -->
<g id="edge2" class="edge">
<title>Node1&#45;&gt;Node3</title>
<path fill="none" stroke="black" d="M253.13,-56.23C262.41,-54.97 271.83,-53.68 280.65,-52.48"/>
<polygon fill="black" stroke="black" points="252.59,-52.77 243.16,-57.59 253.54,-59.71 252.59,-52.77"/>
</g>
<!-- Node5 -->
<g id="node6" class="node">
<title>Node5</title>
<g id="a_node6"><a xlink:href="a00546.html" target="_top" xlink:title="Private functions of the push button device driver library.">
<polygon fill="white" stroke="black" points="371.5,-19 279.5,-19 279.5,0 371.5,0 371.5,-19"/>
<text text-anchor="middle" x="325.5" y="-7" font-family="Helvetica,sans-Serif" font-size="10.00">Private Functions</text>
</a>
</g>
</g>
<!-- Node1&#45;&gt;Node5 -->
<g id="edge4" class="edge">
<title>Node1&#45;&gt;Node5</title>
<path fill="none" stroke="black" d="M224.09,-50.74C240.43,-43.69 260.74,-35.02 279,-27.5 285.76,-24.72 293.11,-21.78 299.89,-19.09"/>
<polygon fill="black" stroke="black" points="222.26,-47.72 214.47,-54.9 225.04,-54.14 222.26,-47.72"/>
</g>
<!-- Node2 -->
<g id="node5" class="node">
<title>Node2</title>
<g id="a_node5"><a xlink:href="a00567.html" target="_top" xlink:title="Generic Device Driver Layer.">
<polygon fill="white" stroke="black" points="104,-79.5 0,-79.5 0,-49.5 104,-49.5 104,-79.5"/>
<text text-anchor="start" x="8" y="-67.5" font-family="Helvetica,sans-Serif" font-size="10.00">Device Driver Library</text>
<text text-anchor="middle" x="52" y="-56.5" font-family="Helvetica,sans-Serif" font-size="10.00"> Layer</text>
</a>
</g>
</g>
<!-- Node2&#45;&gt;Node1 -->
<g id="edge1" class="edge">
<title>Node2&#45;&gt;Node1</title>
<path fill="none" stroke="black" d="M114.41,-64.5C122.87,-64.5 131.48,-64.5 139.72,-64.5"/>
<polygon fill="black" stroke="black" points="114.2,-61 104.2,-64.5 114.2,-68 114.2,-61"/>
</g>
</g>
</svg>
