<?xml version="1.0" encoding="UTF-8" standalone="no"?>
<!DOCTYPE svg PUBLIC "-//W3C//DTD SVG 1.1//EN"
 "http://www.w3.org/Graphics/SVG/1.1/DTD/svg11.dtd">
<!-- Generated by graphviz version 2.44.1 (20200629.0846)
 -->
<!-- Title: buckPWM_ChannelInitialize Pages: 1 -->
<svg width="340pt" height="116pt"
 viewBox="0.00 0.00 340.00 116.00" xmlns="http://www.w3.org/2000/svg" xmlns:xlink="http://www.w3.org/1999/xlink">
<g id="graph0" class="graph" transform="scale(1 1) rotate(0) translate(4 112)">
<title>buckPWM_ChannelInitialize</title>
<polygon fill="white" stroke="transparent" points="-4,4 -4,-112 336,-112 336,4 -4,4"/>
<!-- Node1 -->
<g id="node1" class="node">
<title>Node1</title>
<g id="a_node1"><a xlink:title="This function initializes the output pins for the PWM output and the default buck PWM settings.">
<polygon fill="#bfbfbf" stroke="black" points="0,-44.5 0,-63.5 138,-63.5 138,-44.5 0,-44.5"/>
<text text-anchor="middle" x="69" y="-51.5" font-family="Helvetica,sans-Serif" font-size="10.00">buckPWM_ChannelInitialize</text>
</a>
</g>
</g>
<!-- Node2 -->
<g id="node2" class="node">
<title>Node2</title>
<g id="a_node2"><a xlink:href="a00377.html#ga4d67af688d8f7f911d79107974e11e6b" target="_top" xlink:title="Gets pointer to GPIO Instance SFR set.">
<polygon fill="white" stroke="black" points="177.5,-88.5 177.5,-107.5 328.5,-107.5 328.5,-88.5 177.5,-88.5"/>
<text text-anchor="middle" x="253" y="-95.5" font-family="Helvetica,sans-Serif" font-size="10.00">p33c_GpioInstance_GetHandle</text>
</a>
</g>
</g>
<!-- Node1&#45;&gt;Node2 -->
<g id="edge1" class="edge">
<title>Node1&#45;&gt;Node2</title>
<path fill="none" stroke="midnightblue" d="M109.49,-63.55C136.8,-70.15 173.33,-78.98 202.57,-86.05"/>
<polygon fill="midnightblue" stroke="midnightblue" points="202.04,-89.52 212.59,-88.47 203.69,-82.72 202.04,-89.52"/>
</g>
<!-- Node3 -->
<g id="node3" class="node">
<title>Node3</title>
<g id="a_node3"><a xlink:href="a00381.html#gab66f225bac6b132d1418a4c808e3babb" target="_top" xlink:title="Disposes a given PWM generator by resetting all its registers to default.">
<polygon fill="white" stroke="black" points="183,-39 183,-69 323,-69 323,-39 183,-39"/>
<text text-anchor="start" x="191" y="-57" font-family="Helvetica,sans-Serif" font-size="10.00">p33c_PwmGenerator_Config</text>
<text text-anchor="middle" x="253" y="-46" font-family="Helvetica,sans-Serif" font-size="10.00">Write</text>
</a>
</g>
</g>
<!-- Node1&#45;&gt;Node3 -->
<g id="edge2" class="edge">
<title>Node1&#45;&gt;Node3</title>
<path fill="none" stroke="midnightblue" d="M138.03,-54C149.35,-54 161.18,-54 172.76,-54"/>
<polygon fill="midnightblue" stroke="midnightblue" points="172.84,-57.5 182.84,-54 172.84,-50.5 172.84,-57.5"/>
</g>
<!-- Node4 -->
<g id="node4" class="node">
<title>Node4</title>
<g id="a_node4"><a xlink:href="a00381.html#ga55e525c7ac54a365ab6dad558ec17f0b" target="_top" xlink:title="Returns the PWM generator index.">
<polygon fill="white" stroke="black" points="174,-0.5 174,-19.5 332,-19.5 332,-0.5 174,-0.5"/>
<text text-anchor="middle" x="253" y="-7.5" font-family="Helvetica,sans-Serif" font-size="10.00">p33c_PwmGenerator_GetHandle</text>
</a>
</g>
</g>
<!-- Node1&#45;&gt;Node4 -->
<g id="edge3" class="edge">
<title>Node1&#45;&gt;Node4</title>
<path fill="none" stroke="midnightblue" d="M109.49,-44.45C136.8,-37.85 173.33,-29.02 202.57,-21.95"/>
<polygon fill="midnightblue" stroke="midnightblue" points="203.69,-25.28 212.59,-19.53 202.04,-18.48 203.69,-25.28"/>
</g>
</g>
</svg>
