<?xml version="1.0" encoding="UTF-8" standalone="no"?>
<!DOCTYPE svg PUBLIC "-//W3C//DTD SVG 1.1//EN"
 "http://www.w3.org/Graphics/SVG/1.1/DTD/svg11.dtd">
<!-- Generated by graphviz version 2.44.1 (20200629.0846)
 -->
<!-- Title: Initializing Essential Chip Resources Pages: 1 -->
<svg width="403pt" height="150pt"
 viewBox="0.00 0.00 403.00 149.50" xmlns="http://www.w3.org/2000/svg" xmlns:xlink="http://www.w3.org/1999/xlink">
<g id="graph0" class="graph" transform="scale(1 1) rotate(0) translate(4 145.5)">
<title>Initializing Essential Chip Resources</title>
<polygon fill="white" stroke="transparent" points="-4,4 -4,-145.5 399,-145.5 399,4 -4,4"/>
<!-- Node3 -->
<g id="node1" class="node">
<title>Node3</title>
<g id="a_node1"><a xlink:href="a00554.html" target="_top" xlink:title=" ">
<polygon fill="white" stroke="black" points="387,-141.5 267,-141.5 267,-122.5 387,-122.5 387,-141.5"/>
<text text-anchor="middle" x="327" y="-129.5" font-family="Helvetica,sans-Serif" font-size="10.00">Basic MCU Initialization</text>
</a>
</g>
</g>
<!-- Node1 -->
<g id="node2" class="node">
<title>Node1</title>
<g id="a_node2"><a xlink:title=" ">
<polygon fill="#bfbfbf" stroke="black" points="223,-91 120,-91 120,-61 223,-61 223,-91"/>
<text text-anchor="start" x="128" y="-79" font-family="Helvetica,sans-Serif" font-size="10.00">Initializing Essential</text>
<text text-anchor="middle" x="171.5" y="-68" font-family="Helvetica,sans-Serif" font-size="10.00"> Chip Resources</text>
</a>
</g>
</g>
<!-- Node1&#45;&gt;Node3 -->
<g id="edge2" class="edge">
<title>Node1&#45;&gt;Node3</title>
<path fill="none" stroke="black" d="M212.8,-95.22C227.19,-101.67 243.64,-108.6 259,-114 267.75,-117.08 277.3,-119.93 286.37,-122.42"/>
<polygon fill="black" stroke="black" points="214.23,-92.02 203.67,-91.06 211.33,-98.39 214.23,-92.02"/>
</g>
<!-- Node4 -->
<g id="node3" class="node">
<title>Node4</title>
<g id="a_node3"><a xlink:href="a00555.html" target="_top" xlink:title=" ">
<polygon fill="white" stroke="black" points="395,-104.5 259,-104.5 259,-85.5 395,-85.5 395,-104.5"/>
<text text-anchor="middle" x="327" y="-92.5" font-family="Helvetica,sans-Serif" font-size="10.00">Main Oscillator Initialization</text>
</a>
</g>
</g>
<!-- Node1&#45;&gt;Node4 -->
<g id="edge3" class="edge">
<title>Node1&#45;&gt;Node4</title>
<path fill="none" stroke="black" d="M233.3,-83.53C241.72,-84.57 250.41,-85.64 258.94,-86.7"/>
<polygon fill="black" stroke="black" points="233.54,-80.03 223.19,-82.27 232.68,-86.98 233.54,-80.03"/>
</g>
<!-- Node5 -->
<g id="node4" class="node">
<title>Node5</title>
<g id="a_node4"><a xlink:href="a00556.html" target="_top" xlink:title=" ">
<polygon fill="white" stroke="black" points="388,-67.5 266,-67.5 266,-48.5 388,-48.5 388,-67.5"/>
<text text-anchor="middle" x="327" y="-55.5" font-family="Helvetica,sans-Serif" font-size="10.00">Device Pin Configuration</text>
</a>
</g>
</g>
<!-- Node1&#45;&gt;Node5 -->
<g id="edge4" class="edge">
<title>Node1&#45;&gt;Node5</title>
<path fill="none" stroke="black" d="M233.27,-68.87C243.97,-67.62 255.09,-66.32 265.76,-65.06"/>
<polygon fill="black" stroke="black" points="232.71,-65.42 223.19,-70.06 233.53,-72.37 232.71,-65.42"/>
</g>
<!-- Node6 -->
<g id="node5" class="node">
<title>Node6</title>
<g id="a_node5"><a xlink:href="a00557.html" target="_top" xlink:title=" ">
<polygon fill="white" stroke="black" points="387.5,-30 266.5,-30 266.5,0 387.5,0 387.5,-30"/>
<text text-anchor="start" x="274.5" y="-18" font-family="Helvetica,sans-Serif" font-size="10.00">Digital Signal Processor</text>
<text text-anchor="middle" x="327" y="-7" font-family="Helvetica,sans-Serif" font-size="10.00"> Configuration</text>
</a>
</g>
</g>
<!-- Node1&#45;&gt;Node6 -->
<g id="edge5" class="edge">
<title>Node1&#45;&gt;Node6</title>
<path fill="none" stroke="black" d="M215.66,-56.94C229.43,-51.01 244.79,-44.58 259,-39 266.59,-36.02 274.72,-32.98 282.61,-30.11"/>
<polygon fill="black" stroke="black" points="214.19,-53.76 206.4,-60.94 216.97,-60.18 214.19,-53.76"/>
</g>
<!-- Node2 -->
<g id="node6" class="node">
<title>Node2</title>
<g id="a_node6"><a xlink:href="a00549.html" target="_top" xlink:title="Device Start Up.">
<polygon fill="white" stroke="black" points="84,-85.5 0,-85.5 0,-66.5 84,-66.5 84,-85.5"/>
<text text-anchor="middle" x="42" y="-73.5" font-family="Helvetica,sans-Serif" font-size="10.00">Device Start Up</text>
</a>
</g>
</g>
<!-- Node2&#45;&gt;Node1 -->
<g id="edge1" class="edge">
<title>Node2&#45;&gt;Node1</title>
<path fill="none" stroke="black" d="M94.13,-76C102.55,-76 111.28,-76 119.7,-76"/>
<polygon fill="black" stroke="black" points="94.04,-72.5 84.04,-76 94.04,-79.5 94.04,-72.5"/>
</g>
</g>
</svg>
