<?xml version="1.0" encoding="UTF-8" standalone="no"?>
<!DOCTYPE svg PUBLIC "-//W3C//DTD SVG 1.1//EN"
 "http://www.w3.org/Graphics/SVG/1.1/DTD/svg11.dtd">
<!-- Generated by graphviz version 2.44.1 (20200629.0846)
 -->
<!-- Title: Push&#45;Button Application Layer Pages: 1 -->
<svg width="387pt" height="138pt"
 viewBox="0.00 0.00 387.00 138.00" xmlns="http://www.w3.org/2000/svg" xmlns:xlink="http://www.w3.org/1999/xlink">
<g id="graph0" class="graph" transform="scale(1 1) rotate(0) translate(4 134)">
<title>Push&#45;Button Application Layer</title>
<polygon fill="white" stroke="transparent" points="-4,4 -4,-134 383,-134 383,4 -4,4"/>
<!-- Node6 -->
<g id="node1" class="node">
<title>Node6</title>
<g id="a_node1"><a xlink:href="a00542.html" target="_top" xlink:title="Public properties of the application layer of the push button task.">
<polygon fill="white" stroke="black" points="379,-130 286,-130 286,-111 379,-111 379,-130"/>
<text text-anchor="middle" x="332.5" y="-118" font-family="Helvetica,sans-Serif" font-size="10.00">Private Properties</text>
</a>
</g>
</g>
<!-- Node2 -->
<g id="node2" class="node">
<title>Node2</title>
<g id="a_node2"><a xlink:href="a00566.html" target="_top" xlink:title="Task Layer.">
<polygon fill="white" stroke="black" points="92,-74 0,-74 0,-55 92,-55 92,-74"/>
<text text-anchor="middle" x="46" y="-62" font-family="Helvetica,sans-Serif" font-size="10.00">Application Layer</text>
</a>
</g>
</g>
<!-- Node1 -->
<g id="node3" class="node">
<title>Node1</title>
<g id="a_node3"><a xlink:title=" ">
<polygon fill="#bfbfbf" stroke="black" points="250,-79.5 128,-79.5 128,-49.5 250,-49.5 250,-79.5"/>
<text text-anchor="start" x="136" y="-67.5" font-family="Helvetica,sans-Serif" font-size="10.00">Push&#45;Button Application</text>
<text text-anchor="middle" x="189" y="-56.5" font-family="Helvetica,sans-Serif" font-size="10.00"> Layer</text>
</a>
</g>
</g>
<!-- Node2&#45;&gt;Node1 -->
<g id="edge1" class="edge">
<title>Node2&#45;&gt;Node1</title>
<path fill="none" stroke="black" d="M102.15,-64.5C110.63,-64.5 119.41,-64.5 127.99,-64.5"/>
<polygon fill="black" stroke="black" points="102,-61 92,-64.5 102,-68 102,-61"/>
</g>
<!-- Node1&#45;&gt;Node6 -->
<g id="edge5" class="edge">
<title>Node1&#45;&gt;Node6</title>
<path fill="none" stroke="black" d="M237.36,-83.24C260.82,-92.53 288.13,-103.34 307.28,-110.92"/>
<polygon fill="black" stroke="black" points="238.51,-79.93 227.92,-79.51 235.93,-86.44 238.51,-79.93"/>
</g>
<!-- Node3 -->
<g id="node4" class="node">
<title>Node3</title>
<g id="a_node4"><a xlink:href="a00539.html" target="_top" xlink:title="Public functions of the application layer of the power control task.">
<polygon fill="white" stroke="black" points="377,-93 288,-93 288,-74 377,-74 377,-93"/>
<text text-anchor="middle" x="332.5" y="-81" font-family="Helvetica,sans-Serif" font-size="10.00">Public Functions</text>
</a>
</g>
</g>
<!-- Node1&#45;&gt;Node3 -->
<g id="edge2" class="edge">
<title>Node1&#45;&gt;Node3</title>
<path fill="none" stroke="black" d="M260.16,-73.92C269.55,-75.18 278.95,-76.44 287.71,-77.62"/>
<polygon fill="black" stroke="black" points="260.39,-70.42 250.01,-72.56 259.45,-77.36 260.39,-70.42"/>
</g>
<!-- Node5 -->
<g id="node5" class="node">
<title>Node5</title>
<g id="a_node5"><a xlink:href="a00541.html" target="_top" xlink:title="Private functions of the application layer of the push button task.">
<polygon fill="white" stroke="black" points="378.5,-56 286.5,-56 286.5,-37 378.5,-37 378.5,-56"/>
<text text-anchor="middle" x="332.5" y="-44" font-family="Helvetica,sans-Serif" font-size="10.00">Private Functions</text>
</a>
</g>
</g>
<!-- Node1&#45;&gt;Node5 -->
<g id="edge4" class="edge">
<title>Node1&#45;&gt;Node5</title>
<path fill="none" stroke="black" d="M260.09,-55.58C269.04,-54.44 278.02,-53.3 286.43,-52.23"/>
<polygon fill="black" stroke="black" points="259.49,-52.13 250.01,-56.87 260.37,-59.08 259.49,-52.13"/>
</g>
<!-- Node4 -->
<g id="node6" class="node">
<title>Node4</title>
<g id="a_node6"><a xlink:href="a00540.html" target="_top" xlink:title="Public properties of the application layer of the push button task.">
<polygon fill="white" stroke="black" points="378,-19 287,-19 287,0 378,0 378,-19"/>
<text text-anchor="middle" x="332.5" y="-7" font-family="Helvetica,sans-Serif" font-size="10.00">Public Properties</text>
</a>
</g>
</g>
<!-- Node1&#45;&gt;Node4 -->
<g id="edge3" class="edge">
<title>Node1&#45;&gt;Node4</title>
<path fill="none" stroke="black" d="M238.28,-45.74C261.28,-36.79 287.83,-26.48 306.69,-19.14"/>
<polygon fill="black" stroke="black" points="236.72,-42.59 228.67,-49.47 239.25,-49.11 236.72,-42.59"/>
</g>
</g>
</svg>
