<?xml version="1.0" encoding="UTF-8" standalone="no"?>
<!DOCTYPE svg PUBLIC "-//W3C//DTD SVG 1.1//EN"
 "http://www.w3.org/Graphics/SVG/1.1/DTD/svg11.dtd">
<!-- Generated by graphviz version 2.44.1 (20200629.0846)
 -->
<!-- Title: Private Properties Pages: 1 -->
<svg width="421pt" height="101pt"
 viewBox="0.00 0.00 421.00 101.00" xmlns="http://www.w3.org/2000/svg" xmlns:xlink="http://www.w3.org/1999/xlink">
<g id="graph0" class="graph" transform="scale(1 1) rotate(0) translate(4 97)">
<title>Private Properties</title>
<polygon fill="white" stroke="transparent" points="-4,4 -4,-97 417,-97 417,4 -4,4"/>
<!-- Node5 -->
<g id="node1" class="node">
<title>Node5</title>
<g id="a_node1"><a xlink:href="a00504.html" target="_top" xlink:title=" ">
<polygon fill="white" stroke="black" points="407.5,-93 304.5,-93 304.5,-74 407.5,-74 407.5,-93"/>
<text text-anchor="middle" x="356" y="-81" font-family="Helvetica,sans-Serif" font-size="10.00">Defines and Macros</text>
</a>
</g>
</g>
<!-- Node1 -->
<g id="node2" class="node">
<title>Node1</title>
<g id="a_node2"><a xlink:title="Private properties of the second library layer.">
<polygon fill="#bfbfbf" stroke="black" points="263,-56 170,-56 170,-37 263,-37 263,-56"/>
<text text-anchor="middle" x="216.5" y="-44" font-family="Helvetica,sans-Serif" font-size="10.00">Private Properties</text>
</a>
</g>
</g>
<!-- Node1&#45;&gt;Node5 -->
<g id="edge4" class="edge">
<title>Node1&#45;&gt;Node5</title>
<path fill="none" stroke="black" d="M262.8,-58.69C281.13,-63.62 301.99,-69.24 319.23,-73.88"/>
<polygon fill="black" stroke="black" points="263.48,-55.25 252.91,-56.03 261.66,-62.01 263.48,-55.25"/>
</g>
<!-- Node3 -->
<g id="node3" class="node">
<title>Node3</title>
<g id="a_node3"><a xlink:href="a00502.html" target="_top" xlink:title=" ">
<polygon fill="white" stroke="black" points="413,-56 299,-56 299,-37 413,-37 413,-56"/>
<text text-anchor="middle" x="356" y="-44" font-family="Helvetica,sans-Serif" font-size="10.00">Variables &amp; Constants</text>
</a>
</g>
</g>
<!-- Node1&#45;&gt;Node3 -->
<g id="edge2" class="edge">
<title>Node1&#45;&gt;Node3</title>
<path fill="none" stroke="black" d="M273.38,-46.5C281.79,-46.5 290.47,-46.5 298.89,-46.5"/>
<polygon fill="black" stroke="black" points="273.29,-43 263.29,-46.5 273.29,-50 273.29,-43"/>
</g>
<!-- Node4 -->
<g id="node5" class="node">
<title>Node4</title>
<g id="a_node5"><a xlink:href="a00503.html" target="_top" xlink:title=" ">
<polygon fill="white" stroke="black" points="389,-19 323,-19 323,0 389,0 389,-19"/>
<text text-anchor="middle" x="356" y="-7" font-family="Helvetica,sans-Serif" font-size="10.00">Data Types</text>
</a>
</g>
</g>
<!-- Node1&#45;&gt;Node4 -->
<g id="edge3" class="edge">
<title>Node1&#45;&gt;Node4</title>
<path fill="none" stroke="black" d="M262.82,-34.31C282.33,-29.05 304.72,-23.03 322.54,-18.24"/>
<polygon fill="black" stroke="black" points="261.66,-30.99 252.91,-36.97 263.48,-37.75 261.66,-30.99"/>
</g>
<!-- Node2 -->
<g id="node4" class="node">
<title>Node2</title>
<g id="a_node4"><a xlink:href="a00495.html" target="_top" xlink:title=" ">
<polygon fill="white" stroke="black" points="134,-56 0,-56 0,-37 134,-37 134,-56"/>
<text text-anchor="middle" x="67" y="-44" font-family="Helvetica,sans-Serif" font-size="10.00">Buck Converter Library API</text>
</a>
</g>
</g>
<!-- Node2&#45;&gt;Node1 -->
<g id="edge1" class="edge">
<title>Node2&#45;&gt;Node1</title>
<path fill="none" stroke="black" d="M144.51,-46.5C153.12,-46.5 161.67,-46.5 169.71,-46.5"/>
<polygon fill="black" stroke="black" points="144.41,-43 134.41,-46.5 144.41,-50 144.41,-43"/>
</g>
</g>
</svg>
