<?xml version="1.0" encoding="UTF-8" standalone="no"?>
<!DOCTYPE svg PUBLIC "-//W3C//DTD SVG 1.1//EN"
 "http://www.w3.org/Graphics/SVG/1.1/DTD/svg11.dtd">
<!-- Generated by graphviz version 2.44.1 (20200629.0846)
 -->
<!-- Title: sysDacModule_Initialize Pages: 1 -->
<svg width="313pt" height="104pt"
 viewBox="0.00 0.00 313.00 104.00" xmlns="http://www.w3.org/2000/svg" xmlns:xlink="http://www.w3.org/1999/xlink">
<g id="graph0" class="graph" transform="scale(1 1) rotate(0) translate(4 100)">
<title>sysDacModule_Initialize</title>
<polygon fill="white" stroke="transparent" points="-4,4 -4,-100 309,-100 309,4 -4,4"/>
<!-- Node1 -->
<g id="node1" class="node">
<title>Node1</title>
<g id="a_node1"><a xlink:title="DAC Module Base Register Initialization.">
<polygon fill="#bfbfbf" stroke="black" points="0,-38.5 0,-57.5 122,-57.5 122,-38.5 0,-38.5"/>
<text text-anchor="middle" x="61" y="-45.5" font-family="Helvetica,sans-Serif" font-size="10.00">sysDacModule_Initialize</text>
</a>
</g>
</g>
<!-- Node2 -->
<g id="node2" class="node">
<title>Node2</title>
<g id="a_node2"><a xlink:href="a00375.html#gaddf7b491a947c7f557b89235588c0219" target="_top" xlink:title="Writes a user&#45;defined configuration to the DAC module base registers.">
<polygon fill="white" stroke="black" points="158,-76.5 158,-95.5 305,-95.5 305,-76.5 158,-76.5"/>
<text text-anchor="middle" x="231.5" y="-83.5" font-family="Helvetica,sans-Serif" font-size="10.00">p33c_DacModule_ConfigWrite</text>
</a>
</g>
</g>
<!-- Node1&#45;&gt;Node2 -->
<g id="edge1" class="edge">
<title>Node1&#45;&gt;Node2</title>
<path fill="none" stroke="midnightblue" d="M104.52,-57.59C126.96,-62.65 154.67,-68.9 178.39,-74.25"/>
<polygon fill="midnightblue" stroke="midnightblue" points="177.76,-77.69 188.29,-76.48 179.3,-70.87 177.76,-77.69"/>
</g>
<!-- Node3 -->
<g id="node3" class="node">
<title>Node3</title>
<g id="a_node3"><a xlink:href="a00375.html#gaf0ea62728fde73f2119e47f67baf2ff0" target="_top" xlink:title="Resets all DAC Module registers to their RESET default values.">
<polygon fill="white" stroke="black" points="165.5,-38.5 165.5,-57.5 297.5,-57.5 297.5,-38.5 165.5,-38.5"/>
<text text-anchor="middle" x="231.5" y="-45.5" font-family="Helvetica,sans-Serif" font-size="10.00">p33c_DacModule_Dispose</text>
</a>
</g>
</g>
<!-- Node1&#45;&gt;Node3 -->
<g id="edge2" class="edge">
<title>Node1&#45;&gt;Node3</title>
<path fill="none" stroke="midnightblue" d="M122.36,-48C133.06,-48 144.32,-48 155.37,-48"/>
<polygon fill="midnightblue" stroke="midnightblue" points="155.43,-51.5 165.43,-48 155.43,-44.5 155.43,-51.5"/>
</g>
<!-- Node4 -->
<g id="node4" class="node">
<title>Node4</title>
<g id="a_node4"><a xlink:href="a00375.html#ga72e7cdf4177d0403e8ff925314ec1bc7" target="_top" xlink:title="Gets pointer to DAC Module SFR set.">
<polygon fill="white" stroke="black" points="160,-0.5 160,-19.5 303,-19.5 303,-0.5 160,-0.5"/>
<text text-anchor="middle" x="231.5" y="-7.5" font-family="Helvetica,sans-Serif" font-size="10.00">p33c_DacModule_GetHandle</text>
</a>
</g>
</g>
<!-- Node1&#45;&gt;Node4 -->
<g id="edge3" class="edge">
<title>Node1&#45;&gt;Node4</title>
<path fill="none" stroke="midnightblue" d="M104.52,-38.41C126.96,-33.35 154.67,-27.1 178.39,-21.75"/>
<polygon fill="midnightblue" stroke="midnightblue" points="179.3,-25.13 188.29,-19.52 177.76,-18.31 179.3,-25.13"/>
</g>
</g>
</svg>
