<?xml version="1.0" encoding="UTF-8" standalone="no"?>
<!DOCTYPE svg PUBLIC "-//W3C//DTD SVG 1.1//EN"
 "http://www.w3.org/Graphics/SVG/1.1/DTD/svg11.dtd">
<!-- Generated by graphviz version 2.44.1 (20200629.0846)
 -->
<!-- Title: TRAP_LOGGER_s Pages: 1 -->
<svg width="544pt" height="347pt"
 viewBox="0.00 0.00 544.00 347.00" xmlns="http://www.w3.org/2000/svg" xmlns:xlink="http://www.w3.org/1999/xlink">
<g id="graph0" class="graph" transform="scale(1 1) rotate(0) translate(4 343)">
<title>TRAP_LOGGER_s</title>
<polygon fill="white" stroke="transparent" points="-4,4 -4,-343 540,-343 540,4 -4,4"/>
<!-- Node1 -->
<g id="node1" class="node">
<title>Node1</title>
<g id="a_node1"><a xlink:title="Global data structure for trap event capturing.">
<polygon fill="#bfbfbf" stroke="black" points="215.5,-259.5 215.5,-338.5 314.5,-338.5 314.5,-259.5 215.5,-259.5"/>
<text text-anchor="middle" x="265" y="-326.5" font-family="Helvetica,sans-Serif" font-size="10.00">TRAP_LOGGER_s</text>
<polyline fill="none" stroke="black" points="215.5,-319.5 314.5,-319.5 "/>
<text text-anchor="start" x="223.5" y="-307.5" font-family="Helvetica,sans-Serif" font-size="10.00">+ reset_count</text>
<text text-anchor="start" x="223.5" y="-296.5" font-family="Helvetica,sans-Serif" font-size="10.00">+ trap_id</text>
<text text-anchor="start" x="223.5" y="-285.5" font-family="Helvetica,sans-Serif" font-size="10.00">+ trap_count</text>
<polyline fill="none" stroke="black" points="215.5,-278.5 314.5,-278.5 "/>
<text text-anchor="middle" x="265" y="-266.5" font-family="Helvetica,sans-Serif" font-size="10.00"> </text>
</a>
</g>
</g>
<!-- Node2 -->
<g id="node2" class="node">
<title>Node2</title>
<g id="a_node2"><a xlink:href="a01496.html" target="_top" xlink:title="Provides information for executed task, fault event and operating mode ID of task manager.">
<polygon fill="white" stroke="black" points="0,-66.5 0,-145.5 80,-145.5 80,-66.5 0,-66.5"/>
<text text-anchor="middle" x="40" y="-133.5" font-family="Helvetica,sans-Serif" font-size="10.00">TASK_INFO_s</text>
<polyline fill="none" stroke="black" points="0,-126.5 80,-126.5 "/>
<text text-anchor="start" x="8" y="-114.5" font-family="Helvetica,sans-Serif" font-size="10.00">+ task_id</text>
<text text-anchor="start" x="8" y="-103.5" font-family="Helvetica,sans-Serif" font-size="10.00">+ fault_id</text>
<text text-anchor="start" x="8" y="-92.5" font-family="Helvetica,sans-Serif" font-size="10.00">+ op_mode</text>
<polyline fill="none" stroke="black" points="0,-85.5 80,-85.5 "/>
<text text-anchor="middle" x="40" y="-73.5" font-family="Helvetica,sans-Serif" font-size="10.00"> </text>
</a>
</g>
</g>
<!-- Node1&#45;&gt;Node2 -->
<g id="edge2" class="edge">
<title>Node1&#45;&gt;Node2</title>
<path fill="none" stroke="midnightblue" d="M205,-288.88C171.32,-281.09 130.47,-266.83 102,-241 74.19,-215.76 57.91,-175.53 49.06,-145.72"/>
<polygon fill="none" stroke="midnightblue" points="204.68,-292.4 215.2,-291.1 206.17,-285.56 204.68,-292.4"/>
</g>
<!-- Node3 -->
<g id="node3" class="node">
<title>Node3</title>
<g id="a_node3"><a xlink:href="a01448.html" target="_top" xlink:title="Defines the Trap Flag for primary and secondary vectors.">
<polygon fill="white" stroke="black" points="102,-22.5 102,-189.5 192,-189.5 192,-22.5 102,-22.5"/>
<text text-anchor="middle" x="147" y="-177.5" font-family="Helvetica,sans-Serif" font-size="10.00">TRAP_FLAGS_s</text>
<polyline fill="none" stroke="black" points="102,-170.5 192,-170.5 "/>
<text text-anchor="start" x="110" y="-158.5" font-family="Helvetica,sans-Serif" font-size="10.00">+ OVAERR</text>
<text text-anchor="start" x="110" y="-147.5" font-family="Helvetica,sans-Serif" font-size="10.00">+ OVBERR</text>
<text text-anchor="start" x="110" y="-136.5" font-family="Helvetica,sans-Serif" font-size="10.00">+ COVAERR</text>
<text text-anchor="start" x="110" y="-125.5" font-family="Helvetica,sans-Serif" font-size="10.00">+ COVBERR</text>
<text text-anchor="start" x="110" y="-114.5" font-family="Helvetica,sans-Serif" font-size="10.00">+ SFTACERR</text>
<text text-anchor="start" x="110" y="-103.5" font-family="Helvetica,sans-Serif" font-size="10.00">+ DIV0ERR</text>
<text text-anchor="start" x="110" y="-92.5" font-family="Helvetica,sans-Serif" font-size="10.00">+ MATHERR</text>
<text text-anchor="start" x="110" y="-81.5" font-family="Helvetica,sans-Serif" font-size="10.00">+ ADDRERR</text>
<text text-anchor="start" x="110" y="-70.5" font-family="Helvetica,sans-Serif" font-size="10.00">+ STKERR</text>
<text text-anchor="start" x="110" y="-59.5" font-family="Helvetica,sans-Serif" font-size="10.00">+ OSCFAIL</text>
<text text-anchor="start" x="110" y="-48.5" font-family="Helvetica,sans-Serif" font-size="10.00">and 12 more...</text>
<polyline fill="none" stroke="black" points="102,-41.5 192,-41.5 "/>
<text text-anchor="middle" x="147" y="-29.5" font-family="Helvetica,sans-Serif" font-size="10.00"> </text>
</a>
</g>
</g>
<!-- Node1&#45;&gt;Node3 -->
<g id="edge4" class="edge">
<title>Node1&#45;&gt;Node3</title>
<path fill="none" stroke="midnightblue" d="M207.72,-257.04C202.68,-252.01 197.99,-246.64 194,-241 183.11,-225.6 174.53,-207.44 167.85,-189.55"/>
<polygon fill="none" stroke="midnightblue" points="205.63,-259.88 215.32,-264.16 210.42,-254.77 205.63,-259.88"/>
</g>
<!-- Node4 -->
<g id="node4" class="node">
<title>Node4</title>
<g id="a_node4"><a xlink:href="a01472.html" target="_top" xlink:title="Data structure for RCON status capturing.">
<polygon fill="white" stroke="black" points="210,-0.5 210,-211.5 290,-211.5 290,-0.5 210,-0.5"/>
<text text-anchor="middle" x="250" y="-199.5" font-family="Helvetica,sans-Serif" font-size="10.00">CPU_RCON_s</text>
<polyline fill="none" stroke="black" points="210,-192.5 290,-192.5 "/>
<text text-anchor="start" x="218" y="-180.5" font-family="Helvetica,sans-Serif" font-size="10.00">+ por</text>
<text text-anchor="start" x="218" y="-169.5" font-family="Helvetica,sans-Serif" font-size="10.00">+ bor</text>
<text text-anchor="start" x="218" y="-158.5" font-family="Helvetica,sans-Serif" font-size="10.00">+ idle</text>
<text text-anchor="start" x="218" y="-147.5" font-family="Helvetica,sans-Serif" font-size="10.00">+ sleep</text>
<text text-anchor="start" x="218" y="-136.5" font-family="Helvetica,sans-Serif" font-size="10.00">+ wdto</text>
<text text-anchor="start" x="218" y="-125.5" font-family="Helvetica,sans-Serif" font-size="10.00">+ swdten</text>
<text text-anchor="start" x="218" y="-114.5" font-family="Helvetica,sans-Serif" font-size="10.00">+ swr</text>
<text text-anchor="start" x="218" y="-103.5" font-family="Helvetica,sans-Serif" font-size="10.00">+ extr</text>
<text text-anchor="start" x="218" y="-92.5" font-family="Helvetica,sans-Serif" font-size="10.00">+ vregs</text>
<text text-anchor="start" x="218" y="-81.5" font-family="Helvetica,sans-Serif" font-size="10.00">+ cm</text>
<text text-anchor="start" x="218" y="-70.5" font-family="Helvetica,sans-Serif" font-size="10.00">+ unsigned</text>
<text text-anchor="start" x="218" y="-59.5" font-family="Helvetica,sans-Serif" font-size="10.00">+ vregsf</text>
<text text-anchor="start" x="218" y="-48.5" font-family="Helvetica,sans-Serif" font-size="10.00">+ iopuwr</text>
<text text-anchor="start" x="218" y="-37.5" font-family="Helvetica,sans-Serif" font-size="10.00">+ trapr</text>
<text text-anchor="start" x="218" y="-26.5" font-family="Helvetica,sans-Serif" font-size="10.00">+ value</text>
<polyline fill="none" stroke="black" points="210,-19.5 290,-19.5 "/>
<text text-anchor="middle" x="250" y="-7.5" font-family="Helvetica,sans-Serif" font-size="10.00"> </text>
</a>
</g>
</g>
<!-- Node1&#45;&gt;Node4 -->
<g id="edge6" class="edge">
<title>Node1&#45;&gt;Node4</title>
<path fill="none" stroke="midnightblue" d="M261.16,-249.06C260.25,-237.46 259.24,-224.65 258.21,-211.6"/>
<polygon fill="none" stroke="midnightblue" points="257.69,-249.65 261.96,-259.35 264.67,-249.1 257.69,-249.65"/>
</g>
<!-- Node5 -->
<g id="node5" class="node">
<title>Node5</title>
<g id="a_node5"><a xlink:href="a01460.html" target="_top" xlink:title="defining the CPU interrupt for primary and secondary vectors">
<polygon fill="white" stroke="black" points="308.5,-55.5 308.5,-156.5 401.5,-156.5 401.5,-55.5 308.5,-55.5"/>
<text text-anchor="middle" x="355" y="-144.5" font-family="Helvetica,sans-Serif" font-size="10.00">CPU_INTTREG_s</text>
<polyline fill="none" stroke="black" points="308.5,-137.5 401.5,-137.5 "/>
<text text-anchor="start" x="316.5" y="-125.5" font-family="Helvetica,sans-Serif" font-size="10.00">+ VECNUM</text>
<text text-anchor="start" x="316.5" y="-114.5" font-family="Helvetica,sans-Serif" font-size="10.00">+ ILR</text>
<text text-anchor="start" x="316.5" y="-103.5" font-family="Helvetica,sans-Serif" font-size="10.00">+ unsigned</text>
<text text-anchor="start" x="316.5" y="-92.5" font-family="Helvetica,sans-Serif" font-size="10.00">+ VHOLD</text>
<text text-anchor="start" x="316.5" y="-81.5" font-family="Helvetica,sans-Serif" font-size="10.00">+ value</text>
<polyline fill="none" stroke="black" points="308.5,-74.5 401.5,-74.5 "/>
<text text-anchor="middle" x="355" y="-62.5" font-family="Helvetica,sans-Serif" font-size="10.00"> </text>
</a>
</g>
</g>
<!-- Node1&#45;&gt;Node5 -->
<g id="edge8" class="edge">
<title>Node1&#45;&gt;Node5</title>
<path fill="none" stroke="midnightblue" d="M306.07,-250.8C308.2,-247.57 310.2,-244.29 312,-241 326.41,-214.63 336.9,-182.66 343.91,-156.57"/>
<polygon fill="none" stroke="midnightblue" points="303.05,-249.02 300.17,-259.21 308.78,-253.04 303.05,-249.02"/>
</g>
<!-- Node6 -->
<g id="node6" class="node">
<title>Node6</title>
<g id="a_node6"><a xlink:href="a01484.html" target="_top" xlink:title="Data structure for RCON status capturing.">
<polygon fill="white" stroke="black" points="420,-61 420,-151 536,-151 536,-61 420,-61"/>
<text text-anchor="middle" x="478" y="-139" font-family="Helvetica,sans-Serif" font-size="10.00">TRAPLOG_STATUS_s</text>
<polyline fill="none" stroke="black" points="420,-132 536,-132 "/>
<text text-anchor="start" x="428" y="-120" font-family="Helvetica,sans-Serif" font-size="10.00">+ cpu_reset_trigger</text>
<text text-anchor="start" x="428" y="-109" font-family="Helvetica,sans-Serif" font-size="10.00">+ unsigned</text>
<text text-anchor="start" x="428" y="-98" font-family="Helvetica,sans-Serif" font-size="10.00">+ sw_reset</text>
<text text-anchor="start" x="428" y="-87" font-family="Helvetica,sans-Serif" font-size="10.00">+ value</text>
<polyline fill="none" stroke="black" points="420,-80 536,-80 "/>
<text text-anchor="middle" x="478" y="-68" font-family="Helvetica,sans-Serif" font-size="10.00"> </text>
</a>
</g>
</g>
<!-- Node1&#45;&gt;Node6 -->
<g id="edge10" class="edge">
<title>Node1&#45;&gt;Node6</title>
<path fill="none" stroke="midnightblue" d="M324.25,-282.55C350.01,-273.61 379.21,-260.23 401,-241 428.56,-216.68 448.68,-180.01 461.42,-151.18"/>
<polygon fill="none" stroke="midnightblue" points="322.96,-279.29 314.57,-285.76 325.17,-285.93 322.96,-279.29"/>
</g>
<!-- Node2&#45;&gt;Node1 -->
<g id="edge1" class="edge">
<title>Node2&#45;&gt;Node1</title>
<path fill="none" stroke="#404040" d="M52.32,-145.54C64.18,-176.27 85.23,-217.87 118,-241 143.73,-259.16 176.03,-272.51 203.79,-281.71"/>
<polygon fill="none" stroke="#404040" points="203.94,-281.76 210.88,-279.76 215.38,-285.4 208.45,-287.39 203.94,-281.76"/>
<text text-anchor="middle" x="151" y="-233" font-family="Helvetica,sans-Serif" font-size="10.00"> +task_capture</text>
</g>
<!-- Node3&#45;&gt;Node1 -->
<g id="edge3" class="edge">
<title>Node3&#45;&gt;Node1</title>
<path fill="none" stroke="#404040" d="M175.73,-189.59C183.61,-207.29 193.05,-225.36 204,-241 206.13,-244.05 208.45,-247.06 210.9,-250.01"/>
<polygon fill="none" stroke="#404040" points="211.09,-250.23 218.07,-252.05 219.07,-259.19 212.09,-257.37 211.09,-250.23"/>
<text text-anchor="middle" x="230" y="-233" font-family="Helvetica,sans-Serif" font-size="10.00"> +trap_flags</text>
</g>
<!-- Node4&#45;&gt;Node1 -->
<g id="edge5" class="edge">
<title>Node4&#45;&gt;Node1</title>
<path fill="none" stroke="#404040" d="M258.57,-211.67C259.06,-217.87 259.54,-224.02 260,-230 260.42,-235.46 260.86,-241.16 261.28,-246.85"/>
<polygon fill="none" stroke="#404040" points="261.31,-247.19 265.74,-252.88 262.2,-259.16 257.76,-253.47 261.31,-247.19"/>
<text text-anchor="middle" x="284.5" y="-233" font-family="Helvetica,sans-Serif" font-size="10.00"> +rcon_reg</text>
</g>
<!-- Node5&#45;&gt;Node1 -->
<g id="edge7" class="edge">
<title>Node5&#45;&gt;Node1</title>
<path fill="none" stroke="#404040" d="M366.05,-156.66C369.35,-183.24 368.96,-215.63 355,-241 348.03,-253.66 336.94,-263.9 324.88,-272.02"/>
<polygon fill="none" stroke="#404040" points="324.82,-272.06 321.8,-278.61 314.6,-278.35 317.61,-271.8 324.82,-272.06"/>
<text text-anchor="middle" x="378.5" y="-233" font-family="Helvetica,sans-Serif" font-size="10.00"> +inttreg</text>
</g>
<!-- Node6&#45;&gt;Node1 -->
<g id="edge9" class="edge">
<title>Node6&#45;&gt;Node1</title>
<path fill="none" stroke="#404040" d="M479.7,-151.03C478.45,-179.98 472.01,-216.84 450,-241 418.75,-275.29 367.41,-289.18 326.73,-294.69"/>
<polygon fill="none" stroke="#404040" points="326.67,-294.7 321.19,-299.38 314.75,-296.12 320.24,-291.44 326.67,-294.7"/>
<text text-anchor="middle" x="474.5" y="-233" font-family="Helvetica,sans-Serif" font-size="10.00"> +status</text>
</g>
</g>
</svg>
