<?xml version="1.0" encoding="UTF-8" standalone="no"?>
<!DOCTYPE svg PUBLIC "-//W3C//DTD SVG 1.1//EN"
 "http://www.w3.org/Graphics/SVG/1.1/DTD/svg11.dtd">
<!-- Generated by graphviz version 2.44.1 (20200629.0846)
 -->
<!-- Title: FLT_EVENT_RESPONSE_s Pages: 1 -->
<svg width="149pt" height="237pt"
 viewBox="0.00 0.00 149.00 237.00" xmlns="http://www.w3.org/2000/svg" xmlns:xlink="http://www.w3.org/1999/xlink">
<g id="graph0" class="graph" transform="scale(1 1) rotate(0) translate(4 233)">
<title>FLT_EVENT_RESPONSE_s</title>
<polygon fill="white" stroke="transparent" points="-4,4 -4,-233 145,-233 145,4 -4,4"/>
<!-- Node1 -->
<g id="node1" class="node">
<title>Node1</title>
<g id="a_node1"><a xlink:title="This data structure defines the fault monitor event response object.">
<polygon fill="#bfbfbf" stroke="black" points="0,-0.5 0,-79.5 141,-79.5 141,-0.5 0,-0.5"/>
<text text-anchor="middle" x="70.5" y="-67.5" font-family="Helvetica,sans-Serif" font-size="10.00">FLT_EVENT_RESPONSE_s</text>
<polyline fill="none" stroke="black" points="0,-60.5 141,-60.5 "/>
<text text-anchor="start" x="8" y="-48.5" font-family="Helvetica,sans-Serif" font-size="10.00">+ compareThreshold</text>
<text text-anchor="start" x="8" y="-37.5" font-family="Helvetica,sans-Serif" font-size="10.00">+ eventThreshold</text>
<text text-anchor="start" x="8" y="-26.5" font-family="Helvetica,sans-Serif" font-size="10.00">+ ptrResponseFunction</text>
<polyline fill="none" stroke="black" points="0,-19.5 141,-19.5 "/>
<text text-anchor="middle" x="70.5" y="-7.5" font-family="Helvetica,sans-Serif" font-size="10.00"> </text>
</a>
</g>
</g>
<!-- Node2 -->
<g id="node2" class="node">
<title>Node2</title>
<g id="a_node2"><a xlink:href="a01444.html" target="_top" xlink:title="This data structure is a collection of data structures for fault handling.">
<polygon fill="white" stroke="black" points="16,-116.5 16,-228.5 125,-228.5 125,-116.5 16,-116.5"/>
<text text-anchor="middle" x="70.5" y="-216.5" font-family="Helvetica,sans-Serif" font-size="10.00">FAULT_OBJECT_s</text>
<polyline fill="none" stroke="black" points="16,-209.5 125,-209.5 "/>
<text text-anchor="start" x="24" y="-197.5" font-family="Helvetica,sans-Serif" font-size="10.00">+ Status</text>
<text text-anchor="start" x="24" y="-186.5" font-family="Helvetica,sans-Serif" font-size="10.00">+ Counter</text>
<text text-anchor="start" x="24" y="-175.5" font-family="Helvetica,sans-Serif" font-size="10.00">+ SourceObject</text>
<text text-anchor="start" x="24" y="-164.5" font-family="Helvetica,sans-Serif" font-size="10.00">+ ReferenceObject</text>
<text text-anchor="start" x="24" y="-153.5" font-family="Helvetica,sans-Serif" font-size="10.00">+ TripResponse</text>
<text text-anchor="start" x="24" y="-142.5" font-family="Helvetica,sans-Serif" font-size="10.00">+ RecoveryResponse</text>
<polyline fill="none" stroke="black" points="16,-135.5 125,-135.5 "/>
<text text-anchor="middle" x="70.5" y="-123.5" font-family="Helvetica,sans-Serif" font-size="10.00"> </text>
</a>
</g>
</g>
<!-- Node2&#45;&gt;Node1 -->
<g id="edge1" class="edge">
<title>Node2&#45;&gt;Node1</title>
<path fill="none" stroke="midnightblue" d="M70.5,-106.06C70.5,-97.08 70.5,-88.11 70.5,-79.82"/>
<polygon fill="none" stroke="midnightblue" points="67,-106.16 70.5,-116.16 74,-106.16 67,-106.16"/>
</g>
</g>
</svg>
