<?xml version="1.0" encoding="UTF-8" standalone="no"?>
<!DOCTYPE svg PUBLIC "-//W3C//DTD SVG 1.1//EN"
 "http://www.w3.org/Graphics/SVG/1.1/DTD/svg11.dtd">
<!-- Generated by graphviz version 2.44.1 (20200629.0846)
 -->
<!-- Title: FLT_OBJECT_STATUS_s Pages: 1 -->
<svg width="137pt" height="281pt"
 viewBox="0.00 0.00 137.00 281.00" xmlns="http://www.w3.org/2000/svg" xmlns:xlink="http://www.w3.org/1999/xlink">
<g id="graph0" class="graph" transform="scale(1 1) rotate(0) translate(4 277)">
<title>FLT_OBJECT_STATUS_s</title>
<polygon fill="white" stroke="transparent" points="-4,4 -4,-277 133,-277 133,4 -4,4"/>
<!-- Node1 -->
<g id="node1" class="node">
<title>Node1</title>
<g id="a_node1"><a xlink:title="This data structure defines the fault object status.">
<polygon fill="#bfbfbf" stroke="black" points="0,-0.5 0,-123.5 129,-123.5 129,-0.5 0,-0.5"/>
<text text-anchor="middle" x="64.5" y="-111.5" font-family="Helvetica,sans-Serif" font-size="10.00">FLT_OBJECT_STATUS_s</text>
<polyline fill="none" stroke="black" points="0,-104.5 129,-104.5 "/>
<text text-anchor="start" x="8" y="-92.5" font-family="Helvetica,sans-Serif" font-size="10.00">+ FaultStatus</text>
<text text-anchor="start" x="8" y="-81.5" font-family="Helvetica,sans-Serif" font-size="10.00">+ FaultActive</text>
<text text-anchor="start" x="8" y="-70.5" font-family="Helvetica,sans-Serif" font-size="10.00">+ unsigned</text>
<text text-anchor="start" x="8" y="-59.5" font-family="Helvetica,sans-Serif" font-size="10.00">+ CompareType</text>
<text text-anchor="start" x="8" y="-48.5" font-family="Helvetica,sans-Serif" font-size="10.00">+ Enabled</text>
<text text-anchor="start" x="8" y="-37.5" font-family="Helvetica,sans-Serif" font-size="10.00">+ value</text>
<text text-anchor="start" x="8" y="-26.5" font-family="Helvetica,sans-Serif" font-size="10.00">+ @1</text>
<polyline fill="none" stroke="black" points="0,-19.5 129,-19.5 "/>
<text text-anchor="middle" x="64.5" y="-7.5" font-family="Helvetica,sans-Serif" font-size="10.00"> </text>
</a>
</g>
</g>
<!-- Node2 -->
<g id="node2" class="node">
<title>Node2</title>
<g id="a_node2"><a xlink:href="a01444.html" target="_top" xlink:title="This data structure is a collection of data structures for fault handling.">
<polygon fill="white" stroke="black" points="10,-160.5 10,-272.5 119,-272.5 119,-160.5 10,-160.5"/>
<text text-anchor="middle" x="64.5" y="-260.5" font-family="Helvetica,sans-Serif" font-size="10.00">FAULT_OBJECT_s</text>
<polyline fill="none" stroke="black" points="10,-253.5 119,-253.5 "/>
<text text-anchor="start" x="18" y="-241.5" font-family="Helvetica,sans-Serif" font-size="10.00">+ Status</text>
<text text-anchor="start" x="18" y="-230.5" font-family="Helvetica,sans-Serif" font-size="10.00">+ Counter</text>
<text text-anchor="start" x="18" y="-219.5" font-family="Helvetica,sans-Serif" font-size="10.00">+ SourceObject</text>
<text text-anchor="start" x="18" y="-208.5" font-family="Helvetica,sans-Serif" font-size="10.00">+ ReferenceObject</text>
<text text-anchor="start" x="18" y="-197.5" font-family="Helvetica,sans-Serif" font-size="10.00">+ TripResponse</text>
<text text-anchor="start" x="18" y="-186.5" font-family="Helvetica,sans-Serif" font-size="10.00">+ RecoveryResponse</text>
<polyline fill="none" stroke="black" points="10,-179.5 119,-179.5 "/>
<text text-anchor="middle" x="64.5" y="-167.5" font-family="Helvetica,sans-Serif" font-size="10.00"> </text>
</a>
</g>
</g>
<!-- Node2&#45;&gt;Node1 -->
<g id="edge1" class="edge">
<title>Node2&#45;&gt;Node1</title>
<path fill="none" stroke="midnightblue" d="M64.5,-150.22C64.5,-141.4 64.5,-132.39 64.5,-123.66"/>
<polygon fill="none" stroke="midnightblue" points="61,-150.44 64.5,-160.44 68,-150.44 61,-150.44"/>
</g>
</g>
</svg>
