<?xml version="1.0" encoding="UTF-8" standalone="no"?>
<!DOCTYPE svg PUBLIC "-//W3C//DTD SVG 1.1//EN"
 "http://www.w3.org/Graphics/SVG/1.1/DTD/svg11.dtd">
<!-- Generated by graphviz version 2.44.1 (20200629.0846)
 -->
<!-- Title: CPU_INTTREG_s Pages: 1 -->
<!--zoomable 496 -->
<svg id="main" version="1.1" xmlns="http://www.w3.org/2000/svg" xmlns:xlink="http://www.w3.org/1999/xlink" xml:space="preserve" onload="init(evt)">
<style type="text/css"><![CDATA[
.edge:hover path { stroke: red; }
.edge:hover polygon { stroke: red; fill: red; }
]]></style>
<script type="text/javascript"><![CDATA[
var edges = document.getElementsByTagName('g');
if (edges && edges.length) {
  for (var i=0;i<edges.length;i++) {
    if (edges[i].id.substr(0,4)=='edge') {
      edges[i].setAttribute('class','edge');
    }
  }
}
]]></script>
        <defs>
                <circle id="rim" cx="0" cy="0" r="7"/>
                <circle id="rim2" cx="0" cy="0" r="3.5"/>
                <g id="zoomPlus">
                        <use xlink:href="#rim" fill="#404040">
                                <set attributeName="fill" to="#808080" begin="zoomplus.mouseover" end="zoomplus.mouseout"/>
                        </use>
                        <path d="M-4,0h8M0,-4v8" fill="none" stroke="white" stroke-width="1.5" pointer-events="none"/>
                </g>
                <g id="zoomMin">
                        <use xlink:href="#rim" fill="#404040">
                                <set attributeName="fill" to="#808080" begin="zoomminus.mouseover" end="zoomminus.mouseout"/>
                        </use>
                        <path d="M-4,0h8" fill="none" stroke="white" stroke-width="1.5" pointer-events="none"/>
                </g>
                <g id="dirArrow">
                        <path fill="none" stroke="white" stroke-width="1.5" d="M0,-3.0v7 M-2.5,-0.5L0,-3.0L2.5,-0.5"/>
                </g>
               <g id="resetDef">
                       <use xlink:href="#rim2" fill="#404040">
                               <set attributeName="fill" to="#808080" begin="reset.mouseover" end="reset.mouseout"/>
                       </use>
               </g>
        </defs>

<script type="text/javascript">
var viewWidth = 436;
var viewHeight = 496;
var sectionId = 'dynsection-1';
</script>
<script xlink:href="svgpan.js"/>
<svg id="graph" class="graph">
<g id="viewport">
<title>CPU_INTTREG_s</title>
<polygon fill="white" stroke="transparent" points="-4,4 -4,-492 432,-492 432,4 -4,4"/>
<!-- Node1 -->
<g id="node1" class="node">
<title>Node1</title>
<g id="a_node1"><a xlink:title="defining the CPU interrupt for primary and secondary vectors">
<polygon fill="#bfbfbf" stroke="black" points="163.5,-386.5 163.5,-487.5 256.5,-487.5 256.5,-386.5 163.5,-386.5"/>
<text text-anchor="middle" x="210" y="-475.5" font-family="Helvetica,sans-Serif" font-size="10.00">CPU_INTTREG_s</text>
<polyline fill="none" stroke="black" points="163.5,-468.5 256.5,-468.5 "/>
<text text-anchor="start" x="171.5" y="-456.5" font-family="Helvetica,sans-Serif" font-size="10.00">+ VECNUM</text>
<text text-anchor="start" x="171.5" y="-445.5" font-family="Helvetica,sans-Serif" font-size="10.00">+ ILR</text>
<text text-anchor="start" x="171.5" y="-434.5" font-family="Helvetica,sans-Serif" font-size="10.00">+ unsigned</text>
<text text-anchor="start" x="171.5" y="-423.5" font-family="Helvetica,sans-Serif" font-size="10.00">+ VHOLD</text>
<text text-anchor="start" x="171.5" y="-412.5" font-family="Helvetica,sans-Serif" font-size="10.00">+ value</text>
<polyline fill="none" stroke="black" points="163.5,-405.5 256.5,-405.5 "/>
<text text-anchor="middle" x="210" y="-393.5" font-family="Helvetica,sans-Serif" font-size="10.00"> </text>
</a>
</g>
</g>
<!-- Node2 -->
<g id="node2" class="node">
<title>Node2</title>
<g id="a_node2"><a xlink:href="a01500.html" target="_top" xlink:title="Global data structure for trap event capturing.">
<polygon fill="white" stroke="black" points="160.5,-259.5 160.5,-338.5 259.5,-338.5 259.5,-259.5 160.5,-259.5"/>
<text text-anchor="middle" x="210" y="-326.5" font-family="Helvetica,sans-Serif" font-size="10.00">TRAP_LOGGER_s</text>
<polyline fill="none" stroke="black" points="160.5,-319.5 259.5,-319.5 "/>
<text text-anchor="start" x="168.5" y="-307.5" font-family="Helvetica,sans-Serif" font-size="10.00">+ reset_count</text>
<text text-anchor="start" x="168.5" y="-296.5" font-family="Helvetica,sans-Serif" font-size="10.00">+ trap_id</text>
<text text-anchor="start" x="168.5" y="-285.5" font-family="Helvetica,sans-Serif" font-size="10.00">+ trap_count</text>
<polyline fill="none" stroke="black" points="160.5,-278.5 259.5,-278.5 "/>
<text text-anchor="middle" x="210" y="-266.5" font-family="Helvetica,sans-Serif" font-size="10.00"> </text>
</a>
</g>
</g>
<!-- Node1&#45;&gt;Node2 -->
<g id="edge8" class="edge">
<title>Node1&#45;&gt;Node2</title>
<path fill="none" stroke="#404040" d="M182.3,-386.39C179.64,-376.76 178.68,-366.66 181,-357 181.55,-354.69 182.22,-352.37 182.97,-350.06"/>
<polygon fill="none" stroke="#404040" points="183.05,-349.83 181.47,-342.8 187.35,-338.62 188.94,-345.66 183.05,-349.83"/>
<text text-anchor="middle" x="199.5" y="-360" font-family="Helvetica,sans-Serif" font-size="10.00"> +inttreg</text>
</g>
<!-- Node2&#45;&gt;Node1 -->
<g id="edge1" class="edge">
<title>Node2&#45;&gt;Node1</title>
<path fill="none" stroke="midnightblue" d="M220.96,-348.79C221.37,-351.56 221.72,-354.31 222,-357 222.99,-366.52 222.58,-376.65 221.44,-386.36"/>
<polygon fill="none" stroke="midnightblue" points="224.39,-348.06 219.28,-338.77 217.48,-349.21 224.39,-348.06"/>
</g>
<!-- Node3 -->
<g id="node3" class="node">
<title>Node3</title>
<g id="a_node3"><a xlink:href="a01496.html" target="_top" xlink:title="Provides information for executed task, fault event and operating mode ID of task manager.">
<polygon fill="white" stroke="black" points="0,-66.5 0,-145.5 80,-145.5 80,-66.5 0,-66.5"/>
<text text-anchor="middle" x="40" y="-133.5" font-family="Helvetica,sans-Serif" font-size="10.00">TASK_INFO_s</text>
<polyline fill="none" stroke="black" points="0,-126.5 80,-126.5 "/>
<text text-anchor="start" x="8" y="-114.5" font-family="Helvetica,sans-Serif" font-size="10.00">+ task_id</text>
<text text-anchor="start" x="8" y="-103.5" font-family="Helvetica,sans-Serif" font-size="10.00">+ fault_id</text>
<text text-anchor="start" x="8" y="-92.5" font-family="Helvetica,sans-Serif" font-size="10.00">+ op_mode</text>
<polyline fill="none" stroke="black" points="0,-85.5 80,-85.5 "/>
<text text-anchor="middle" x="40" y="-73.5" font-family="Helvetica,sans-Serif" font-size="10.00"> </text>
</a>
</g>
</g>
<!-- Node2&#45;&gt;Node3 -->
<g id="edge3" class="edge">
<title>Node2&#45;&gt;Node3</title>
<path fill="none" stroke="midnightblue" d="M150.68,-282.93C126.81,-274.2 100.77,-260.87 83,-241 59.3,-214.5 48.65,-174.84 43.87,-145.54"/>
<polygon fill="none" stroke="midnightblue" points="149.81,-286.34 160.4,-286.29 152.09,-279.72 149.81,-286.34"/>
</g>
<!-- Node4 -->
<g id="node4" class="node">
<title>Node4</title>
<g id="a_node4"><a xlink:href="a01448.html" target="_top" xlink:title="Defines the Trap Flag for primary and secondary vectors.">
<polygon fill="white" stroke="black" points="103,-22.5 103,-189.5 193,-189.5 193,-22.5 103,-22.5"/>
<text text-anchor="middle" x="148" y="-177.5" font-family="Helvetica,sans-Serif" font-size="10.00">TRAP_FLAGS_s</text>
<polyline fill="none" stroke="black" points="103,-170.5 193,-170.5 "/>
<text text-anchor="start" x="111" y="-158.5" font-family="Helvetica,sans-Serif" font-size="10.00">+ OVAERR</text>
<text text-anchor="start" x="111" y="-147.5" font-family="Helvetica,sans-Serif" font-size="10.00">+ OVBERR</text>
<text text-anchor="start" x="111" y="-136.5" font-family="Helvetica,sans-Serif" font-size="10.00">+ COVAERR</text>
<text text-anchor="start" x="111" y="-125.5" font-family="Helvetica,sans-Serif" font-size="10.00">+ COVBERR</text>
<text text-anchor="start" x="111" y="-114.5" font-family="Helvetica,sans-Serif" font-size="10.00">+ SFTACERR</text>
<text text-anchor="start" x="111" y="-103.5" font-family="Helvetica,sans-Serif" font-size="10.00">+ DIV0ERR</text>
<text text-anchor="start" x="111" y="-92.5" font-family="Helvetica,sans-Serif" font-size="10.00">+ MATHERR</text>
<text text-anchor="start" x="111" y="-81.5" font-family="Helvetica,sans-Serif" font-size="10.00">+ ADDRERR</text>
<text text-anchor="start" x="111" y="-70.5" font-family="Helvetica,sans-Serif" font-size="10.00">+ STKERR</text>
<text text-anchor="start" x="111" y="-59.5" font-family="Helvetica,sans-Serif" font-size="10.00">+ OSCFAIL</text>
<text text-anchor="start" x="111" y="-48.5" font-family="Helvetica,sans-Serif" font-size="10.00">and 12 more...</text>
<polyline fill="none" stroke="black" points="103,-41.5 193,-41.5 "/>
<text text-anchor="middle" x="148" y="-29.5" font-family="Helvetica,sans-Serif" font-size="10.00"> </text>
</a>
</g>
</g>
<!-- Node2&#45;&gt;Node4 -->
<g id="edge5" class="edge">
<title>Node2&#45;&gt;Node4</title>
<path fill="none" stroke="midnightblue" d="M171.66,-250.64C169.93,-247.47 168.35,-244.25 167,-241 160.33,-224.94 155.93,-206.97 153.04,-189.53"/>
<polygon fill="none" stroke="midnightblue" points="168.78,-252.64 176.94,-259.41 174.78,-249.03 168.78,-252.64"/>
</g>
<!-- Node5 -->
<g id="node5" class="node">
<title>Node5</title>
<g id="a_node5"><a xlink:href="a01472.html" target="_top" xlink:title="Data structure for RCON status capturing.">
<polygon fill="white" stroke="black" points="213,-0.5 213,-211.5 293,-211.5 293,-0.5 213,-0.5"/>
<text text-anchor="middle" x="253" y="-199.5" font-family="Helvetica,sans-Serif" font-size="10.00">CPU_RCON_s</text>
<polyline fill="none" stroke="black" points="213,-192.5 293,-192.5 "/>
<text text-anchor="start" x="221" y="-180.5" font-family="Helvetica,sans-Serif" font-size="10.00">+ por</text>
<text text-anchor="start" x="221" y="-169.5" font-family="Helvetica,sans-Serif" font-size="10.00">+ bor</text>
<text text-anchor="start" x="221" y="-158.5" font-family="Helvetica,sans-Serif" font-size="10.00">+ idle</text>
<text text-anchor="start" x="221" y="-147.5" font-family="Helvetica,sans-Serif" font-size="10.00">+ sleep</text>
<text text-anchor="start" x="221" y="-136.5" font-family="Helvetica,sans-Serif" font-size="10.00">+ wdto</text>
<text text-anchor="start" x="221" y="-125.5" font-family="Helvetica,sans-Serif" font-size="10.00">+ swdten</text>
<text text-anchor="start" x="221" y="-114.5" font-family="Helvetica,sans-Serif" font-size="10.00">+ swr</text>
<text text-anchor="start" x="221" y="-103.5" font-family="Helvetica,sans-Serif" font-size="10.00">+ extr</text>
<text text-anchor="start" x="221" y="-92.5" font-family="Helvetica,sans-Serif" font-size="10.00">+ vregs</text>
<text text-anchor="start" x="221" y="-81.5" font-family="Helvetica,sans-Serif" font-size="10.00">+ cm</text>
<text text-anchor="start" x="221" y="-70.5" font-family="Helvetica,sans-Serif" font-size="10.00">+ unsigned</text>
<text text-anchor="start" x="221" y="-59.5" font-family="Helvetica,sans-Serif" font-size="10.00">+ vregsf</text>
<text text-anchor="start" x="221" y="-48.5" font-family="Helvetica,sans-Serif" font-size="10.00">+ iopuwr</text>
<text text-anchor="start" x="221" y="-37.5" font-family="Helvetica,sans-Serif" font-size="10.00">+ trapr</text>
<text text-anchor="start" x="221" y="-26.5" font-family="Helvetica,sans-Serif" font-size="10.00">+ value</text>
<polyline fill="none" stroke="black" points="213,-19.5 293,-19.5 "/>
<text text-anchor="middle" x="253" y="-7.5" font-family="Helvetica,sans-Serif" font-size="10.00"> </text>
</a>
</g>
</g>
<!-- Node2&#45;&gt;Node5 -->
<g id="edge7" class="edge">
<title>Node2&#45;&gt;Node5</title>
<path fill="none" stroke="midnightblue" d="M227.61,-249.55C228.47,-246.67 229.27,-243.81 230,-241 232.46,-231.52 234.72,-221.59 236.8,-211.61"/>
<polygon fill="none" stroke="midnightblue" points="224.2,-248.74 224.54,-259.33 230.88,-250.84 224.2,-248.74"/>
</g>
<!-- Node6 -->
<g id="node6" class="node">
<title>Node6</title>
<g id="a_node6"><a xlink:href="a01484.html" target="_top" xlink:title="Data structure for RCON status capturing.">
<polygon fill="white" stroke="black" points="312,-61 312,-151 428,-151 428,-61 312,-61"/>
<text text-anchor="middle" x="370" y="-139" font-family="Helvetica,sans-Serif" font-size="10.00">TRAPLOG_STATUS_s</text>
<polyline fill="none" stroke="black" points="312,-132 428,-132 "/>
<text text-anchor="start" x="320" y="-120" font-family="Helvetica,sans-Serif" font-size="10.00">+ cpu_reset_trigger</text>
<text text-anchor="start" x="320" y="-109" font-family="Helvetica,sans-Serif" font-size="10.00">+ unsigned</text>
<text text-anchor="start" x="320" y="-98" font-family="Helvetica,sans-Serif" font-size="10.00">+ sw_reset</text>
<text text-anchor="start" x="320" y="-87" font-family="Helvetica,sans-Serif" font-size="10.00">+ value</text>
<polyline fill="none" stroke="black" points="312,-80 428,-80 "/>
<text text-anchor="middle" x="370" y="-68" font-family="Helvetica,sans-Serif" font-size="10.00"> </text>
</a>
</g>
</g>
<!-- Node2&#45;&gt;Node6 -->
<g id="edge10" class="edge">
<title>Node2&#45;&gt;Node6</title>
<path fill="none" stroke="midnightblue" d="M268.6,-272.22C283.12,-263.82 297.73,-253.4 309,-241 332.3,-215.37 348.02,-179.33 357.66,-151.08"/>
<polygon fill="none" stroke="midnightblue" points="266.66,-269.29 259.6,-277.19 270.05,-275.42 266.66,-269.29"/>
</g>
<!-- Node3&#45;&gt;Node2 -->
<g id="edge2" class="edge">
<title>Node3&#45;&gt;Node2</title>
<path fill="none" stroke="#404040" d="M47.69,-145.7C55.21,-174.9 69.25,-214.35 94,-241 109.01,-257.15 129.58,-269.31 149.24,-278.15"/>
<polygon fill="none" stroke="#404040" points="149.29,-278.17 156.38,-276.82 160.35,-282.85 153.26,-284.19 149.29,-278.17"/>
<text text-anchor="middle" x="127" y="-233" font-family="Helvetica,sans-Serif" font-size="10.00"> +task_capture</text>
</g>
<!-- Node4&#45;&gt;Node2 -->
<g id="edge4" class="edge">
<title>Node4&#45;&gt;Node2</title>
<path fill="none" stroke="#404040" d="M159.01,-189.52C162.7,-206.87 167.58,-224.81 174,-241 175,-243.52 176.11,-246.05 177.31,-248.57"/>
<polygon fill="none" stroke="#404040" points="177.45,-248.83 183.78,-252.29 183.02,-259.46 176.69,-256 177.45,-248.83"/>
<text text-anchor="middle" x="200" y="-233" font-family="Helvetica,sans-Serif" font-size="10.00"> +trap_flags</text>
</g>
<!-- Node5&#45;&gt;Node2 -->
<g id="edge6" class="edge">
<title>Node5&#45;&gt;Node2</title>
<path fill="none" stroke="#404040" d="M261.62,-211.66C260.35,-221.73 258.24,-231.66 255,-241 254.11,-243.56 253.05,-246.1 251.86,-248.6"/>
<polygon fill="none" stroke="#404040" points="251.76,-248.77 252.31,-255.96 245.88,-259.23 245.33,-252.04 251.76,-248.77"/>
<text text-anchor="middle" x="281.5" y="-233" font-family="Helvetica,sans-Serif" font-size="10.00"> +rcon_reg</text>
</g>
<!-- Node6&#45;&gt;Node2 -->
<g id="edge9" class="edge">
<title>Node6&#45;&gt;Node2</title>
<path fill="none" stroke="#404040" d="M373.97,-151.15C374.18,-179.6 369.77,-215.85 350,-241 330.84,-265.37 299.56,-279.39 271.41,-287.42"/>
<polygon fill="none" stroke="#404040" points="271.2,-287.47 266.41,-292.86 259.59,-290.5 264.39,-285.12 271.2,-287.47"/>
<text text-anchor="middle" x="374.5" y="-233" font-family="Helvetica,sans-Serif" font-size="10.00"> +status</text>
</g>
</g>
</svg>
        <g id="navigator" transform="translate(0 0)" fill="#404254">
                <rect fill="#f2f5e9" fill-opacity="0.5" stroke="#606060" stroke-width=".5" x="0" y="0" width="60" height="60"/>
                <use id="zoomplus" xlink:href="#zoomPlus" x="17" y="9" onmousedown="handleZoom(evt,'in')"/>
                <use id="zoomminus" xlink:href="#zoomMin" x="42" y="9" onmousedown="handleZoom(evt,'out')"/>
                <use id="reset" xlink:href="#resetDef" x="30" y="36" onmousedown="handleReset()"/>
                <g id="arrowUp" xlink:href="#dirArrow" transform="translate(30 24)" onmousedown="handlePan(0,-1)">
                  <use xlink:href="#rim" fill="#404040">
                        <set attributeName="fill" to="#808080" begin="arrowUp.mouseover" end="arrowUp.mouseout"/>
                  </use>
                  <path fill="none" stroke="white" stroke-width="1.5" d="M0,-3.0v7 M-2.5,-0.5L0,-3.0L2.5,-0.5"/>
                </g>
                <g id="arrowRight" xlink:href="#dirArrow" transform="rotate(90) translate(36 -43)" onmousedown="handlePan(1,0)">
                  <use xlink:href="#rim" fill="#404040">
                        <set attributeName="fill" to="#808080" begin="arrowRight.mouseover" end="arrowRight.mouseout"/>
                  </use>
                  <path fill="none" stroke="white" stroke-width="1.5" d="M0,-3.0v7 M-2.5,-0.5L0,-3.0L2.5,-0.5"/>
                </g>
                <g id="arrowDown" xlink:href="#dirArrow" transform="rotate(180) translate(-30 -48)" onmousedown="handlePan(0,1)">
                  <use xlink:href="#rim" fill="#404040">
                        <set attributeName="fill" to="#808080" begin="arrowDown.mouseover" end="arrowDown.mouseout"/>
                  </use>
                  <path fill="none" stroke="white" stroke-width="1.5" d="M0,-3.0v7 M-2.5,-0.5L0,-3.0L2.5,-0.5"/>
                </g>
                <g id="arrowLeft" xlink:href="#dirArrow" transform="rotate(270) translate(-36 17)" onmousedown="handlePan(-1,0)">
                  <use xlink:href="#rim" fill="#404040">
                        <set attributeName="fill" to="#808080" begin="arrowLeft.mouseover" end="arrowLeft.mouseout"/>
                  </use>
                  <path fill="none" stroke="white" stroke-width="1.5" d="M0,-3.0v7 M-2.5,-0.5L0,-3.0L2.5,-0.5"/>
                </g>
        </g>
        <svg viewBox="0 0 15 15" width="100%" height="30px" preserveAspectRatio="xMaxYMin meet">
         <g id="arrow_out" transform="scale(0.3 0.3)">
          <a xlink:href="a01458_org.svg" target="_base">
           <rect id="button" ry="5" rx="5" y="6" x="6" height="38" width="38"
                fill="#f2f5e9" fill-opacity="0.5" stroke="#606060" stroke-width="1.0"/>
           <path id="arrow"
             d="M 11.500037,31.436501 C 11.940474,20.09759 22.043105,11.32322 32.158766,21.979434 L 37.068811,17.246167 C 37.068811,17.246167 37.088388,32 37.088388,32 L 22.160133,31.978069 C 22.160133,31.978069 26.997745,27.140456 26.997745,27.140456 C 18.528582,18.264221 13.291696,25.230495 11.500037,31.436501 z"
             style="fill:#404040;"/>
          </a>
         </g>
        </svg>
</svg>
