<?xml version="1.0" encoding="UTF-8" standalone="no"?>
<!DOCTYPE svg PUBLIC "-//W3C//DTD SVG 1.1//EN"
 "http://www.w3.org/Graphics/SVG/1.1/DTD/svg11.dtd">
<!-- Generated by graphviz version 2.44.1 (20200629.0846)
 -->
<!-- Title: FLT_EVENT_RESPONSE_s Pages: 1 -->
<svg width="296pt" height="386pt"
 viewBox="0.00 0.00 296.00 386.00" xmlns="http://www.w3.org/2000/svg" xmlns:xlink="http://www.w3.org/1999/xlink">
<g id="graph0" class="graph" transform="scale(1 1) rotate(0) translate(4 382)">
<title>FLT_EVENT_RESPONSE_s</title>
<polygon fill="white" stroke="transparent" points="-4,4 -4,-382 292,-382 292,4 -4,4"/>
<!-- Node1 -->
<g id="node1" class="node">
<title>Node1</title>
<g id="a_node1"><a xlink:title="This data structure defines the fault monitor event response object.">
<polygon fill="#bfbfbf" stroke="black" points="80,-298.5 80,-377.5 221,-377.5 221,-298.5 80,-298.5"/>
<text text-anchor="middle" x="150.5" y="-365.5" font-family="Helvetica,sans-Serif" font-size="10.00">FLT_EVENT_RESPONSE_s</text>
<polyline fill="none" stroke="black" points="80,-358.5 221,-358.5 "/>
<text text-anchor="start" x="88" y="-346.5" font-family="Helvetica,sans-Serif" font-size="10.00">+ compareThreshold</text>
<text text-anchor="start" x="88" y="-335.5" font-family="Helvetica,sans-Serif" font-size="10.00">+ eventThreshold</text>
<text text-anchor="start" x="88" y="-324.5" font-family="Helvetica,sans-Serif" font-size="10.00">+ ptrResponseFunction</text>
<polyline fill="none" stroke="black" points="80,-317.5 221,-317.5 "/>
<text text-anchor="middle" x="150.5" y="-305.5" font-family="Helvetica,sans-Serif" font-size="10.00"> </text>
</a>
</g>
</g>
<!-- Node2 -->
<g id="node2" class="node">
<title>Node2</title>
<g id="a_node2"><a xlink:href="a01444.html" target="_top" xlink:title="This data structure is a collection of data structures for fault handling.">
<polygon fill="white" stroke="black" points="100.5,-182.5 100.5,-239.5 200.5,-239.5 200.5,-182.5 100.5,-182.5"/>
<text text-anchor="middle" x="150.5" y="-227.5" font-family="Helvetica,sans-Serif" font-size="10.00">FAULT_OBJECT_s</text>
<polyline fill="none" stroke="black" points="100.5,-220.5 200.5,-220.5 "/>
<text text-anchor="start" x="108.5" y="-208.5" font-family="Helvetica,sans-Serif" font-size="10.00">+ Counter</text>
<polyline fill="none" stroke="black" points="100.5,-201.5 200.5,-201.5 "/>
<text text-anchor="middle" x="150.5" y="-189.5" font-family="Helvetica,sans-Serif" font-size="10.00"> </text>
</a>
</g>
</g>
<!-- Node1&#45;&gt;Node2 -->
<g id="edge4" class="edge">
<title>Node1&#45;&gt;Node2</title>
<path fill="none" stroke="#404040" d="M104.38,-298.23C99.98,-292.58 96.18,-286.46 93.5,-280 89.76,-270.97 89.28,-266.82 93.5,-258 95.02,-254.83 96.87,-251.8 98.97,-248.93"/>
<polygon fill="none" stroke="#404040" points="99.06,-248.83 99.98,-241.67 106.94,-239.77 106.02,-246.92 99.06,-248.83"/>
<text text-anchor="middle" x="140" y="-272" font-family="Helvetica,sans-Serif" font-size="10.00"> +RecoveryResponse</text>
<text text-anchor="middle" x="140" y="-261" font-family="Helvetica,sans-Serif" font-size="10.00">+TripResponse</text>
</g>
<!-- Node2&#45;&gt;Node1 -->
<g id="edge1" class="edge">
<title>Node2&#45;&gt;Node1</title>
<path fill="none" stroke="midnightblue" d="M185.55,-247.88C187.51,-251.14 189.2,-254.52 190.5,-258 193.92,-267.16 193.45,-270.68 190.5,-280 188.5,-286.34 185.51,-292.59 182.05,-298.49"/>
<polygon fill="none" stroke="midnightblue" points="188.4,-245.85 179.85,-239.59 182.63,-249.82 188.4,-245.85"/>
</g>
<!-- Node3 -->
<g id="node3" class="node">
<title>Node3</title>
<g id="a_node3"><a xlink:href="a01424.html" target="_top" xlink:title="This data structure defines the fault object status.">
<polygon fill="white" stroke="black" points="0,-0.5 0,-123.5 129,-123.5 129,-0.5 0,-0.5"/>
<text text-anchor="middle" x="64.5" y="-111.5" font-family="Helvetica,sans-Serif" font-size="10.00">FLT_OBJECT_STATUS_s</text>
<polyline fill="none" stroke="black" points="0,-104.5 129,-104.5 "/>
<text text-anchor="start" x="8" y="-92.5" font-family="Helvetica,sans-Serif" font-size="10.00">+ FaultStatus</text>
<text text-anchor="start" x="8" y="-81.5" font-family="Helvetica,sans-Serif" font-size="10.00">+ FaultActive</text>
<text text-anchor="start" x="8" y="-70.5" font-family="Helvetica,sans-Serif" font-size="10.00">+ unsigned</text>
<text text-anchor="start" x="8" y="-59.5" font-family="Helvetica,sans-Serif" font-size="10.00">+ CompareType</text>
<text text-anchor="start" x="8" y="-48.5" font-family="Helvetica,sans-Serif" font-size="10.00">+ Enabled</text>
<text text-anchor="start" x="8" y="-37.5" font-family="Helvetica,sans-Serif" font-size="10.00">+ value</text>
<text text-anchor="start" x="8" y="-26.5" font-family="Helvetica,sans-Serif" font-size="10.00">+ @1</text>
<polyline fill="none" stroke="black" points="0,-19.5 129,-19.5 "/>
<text text-anchor="middle" x="64.5" y="-7.5" font-family="Helvetica,sans-Serif" font-size="10.00"> </text>
</a>
</g>
</g>
<!-- Node2&#45;&gt;Node3 -->
<g id="edge3" class="edge">
<title>Node2&#45;&gt;Node3</title>
<path fill="none" stroke="midnightblue" d="M117.02,-174.53C114.34,-171.08 111.79,-167.54 109.5,-164 101.43,-151.5 94.12,-137.32 87.85,-123.61"/>
<polygon fill="none" stroke="midnightblue" points="114.42,-176.87 123.46,-182.4 119.83,-172.44 114.42,-176.87"/>
</g>
<!-- Node4 -->
<g id="node4" class="node">
<title>Node4</title>
<g id="a_node4"><a xlink:href="a01436.html" target="_top" xlink:title="This data structure defines the data object which will be monitored by the fault handler.">
<polygon fill="white" stroke="black" points="147,-28 147,-96 288,-96 288,-28 147,-28"/>
<text text-anchor="middle" x="217.5" y="-84" font-family="Helvetica,sans-Serif" font-size="10.00">FLT_COMPARE_OBJECT_s</text>
<polyline fill="none" stroke="black" points="147,-77 288,-77 "/>
<text text-anchor="start" x="155" y="-65" font-family="Helvetica,sans-Serif" font-size="10.00">+ ptrObject</text>
<text text-anchor="start" x="155" y="-54" font-family="Helvetica,sans-Serif" font-size="10.00">+ bitMask</text>
<polyline fill="none" stroke="black" points="147,-47 288,-47 "/>
<text text-anchor="middle" x="217.5" y="-35" font-family="Helvetica,sans-Serif" font-size="10.00"> </text>
</a>
</g>
</g>
<!-- Node2&#45;&gt;Node4 -->
<g id="edge6" class="edge">
<title>Node2&#45;&gt;Node4</title>
<path fill="none" stroke="midnightblue" d="M167.36,-173.01C178.13,-149.39 191.96,-119.03 202.37,-96.19"/>
<polygon fill="none" stroke="midnightblue" points="164.06,-171.8 163.1,-182.35 170.43,-174.7 164.06,-171.8"/>
</g>
<!-- Node3&#45;&gt;Node2 -->
<g id="edge2" class="edge">
<title>Node3&#45;&gt;Node2</title>
<path fill="none" stroke="#404040" d="M100.02,-123.72C109.52,-139.95 119.51,-157.03 128.08,-171.68"/>
<polygon fill="none" stroke="#404040" points="128.26,-171.99 134.75,-175.15 134.32,-182.35 127.84,-179.19 128.26,-171.99"/>
<text text-anchor="middle" x="142.5" y="-150.5" font-family="Helvetica,sans-Serif" font-size="10.00"> +Status</text>
</g>
<!-- Node4&#45;&gt;Node2 -->
<g id="edge5" class="edge">
<title>Node4&#45;&gt;Node2</title>
<path fill="none" stroke="#404040" d="M213.5,-96.34C210.04,-116.78 203.75,-142.98 192.5,-164 190.95,-166.89 189.18,-169.75 187.26,-172.53"/>
<polygon fill="none" stroke="#404040" points="187.1,-172.74 186.61,-179.93 179.79,-182.25 180.27,-175.05 187.1,-172.74"/>
<text text-anchor="middle" x="242.5" y="-156" font-family="Helvetica,sans-Serif" font-size="10.00"> +ReferenceObject</text>
<text text-anchor="middle" x="242.5" y="-145" font-family="Helvetica,sans-Serif" font-size="10.00">+SourceObject</text>
</g>
</g>
</svg>
