<?xml version="1.0" encoding="UTF-8" standalone="no"?>
<!DOCTYPE svg PUBLIC "-//W3C//DTD SVG 1.1//EN"
 "http://www.w3.org/Graphics/SVG/1.1/DTD/svg11.dtd">
<!-- Generated by graphviz version 2.44.1 (20200629.0846)
 -->
<!-- Title: CPU_RCON_s Pages: 1 -->
<svg width="442pt" height="562pt"
 viewBox="0.00 0.00 442.00 562.00" xmlns="http://www.w3.org/2000/svg" xmlns:xlink="http://www.w3.org/1999/xlink">
<g id="graph0" class="graph" transform="scale(1 1) rotate(0) translate(4 558)">
<title>CPU_RCON_s</title>
<polygon fill="white" stroke="transparent" points="-4,4 -4,-558 438,-558 438,4 -4,4"/>
<!-- Node1 -->
<g id="node1" class="node">
<title>Node1</title>
<g id="a_node1"><a xlink:title="Data structure for RCON status capturing.">
<polygon fill="#bfbfbf" stroke="black" points="174,-342.5 174,-553.5 254,-553.5 254,-342.5 174,-342.5"/>
<text text-anchor="middle" x="214" y="-541.5" font-family="Helvetica,sans-Serif" font-size="10.00">CPU_RCON_s</text>
<polyline fill="none" stroke="black" points="174,-534.5 254,-534.5 "/>
<text text-anchor="start" x="182" y="-522.5" font-family="Helvetica,sans-Serif" font-size="10.00">+ por</text>
<text text-anchor="start" x="182" y="-511.5" font-family="Helvetica,sans-Serif" font-size="10.00">+ bor</text>
<text text-anchor="start" x="182" y="-500.5" font-family="Helvetica,sans-Serif" font-size="10.00">+ idle</text>
<text text-anchor="start" x="182" y="-489.5" font-family="Helvetica,sans-Serif" font-size="10.00">+ sleep</text>
<text text-anchor="start" x="182" y="-478.5" font-family="Helvetica,sans-Serif" font-size="10.00">+ wdto</text>
<text text-anchor="start" x="182" y="-467.5" font-family="Helvetica,sans-Serif" font-size="10.00">+ swdten</text>
<text text-anchor="start" x="182" y="-456.5" font-family="Helvetica,sans-Serif" font-size="10.00">+ swr</text>
<text text-anchor="start" x="182" y="-445.5" font-family="Helvetica,sans-Serif" font-size="10.00">+ extr</text>
<text text-anchor="start" x="182" y="-434.5" font-family="Helvetica,sans-Serif" font-size="10.00">+ vregs</text>
<text text-anchor="start" x="182" y="-423.5" font-family="Helvetica,sans-Serif" font-size="10.00">+ cm</text>
<text text-anchor="start" x="182" y="-412.5" font-family="Helvetica,sans-Serif" font-size="10.00">+ unsigned</text>
<text text-anchor="start" x="182" y="-401.5" font-family="Helvetica,sans-Serif" font-size="10.00">+ vregsf</text>
<text text-anchor="start" x="182" y="-390.5" font-family="Helvetica,sans-Serif" font-size="10.00">+ iopuwr</text>
<text text-anchor="start" x="182" y="-379.5" font-family="Helvetica,sans-Serif" font-size="10.00">+ trapr</text>
<text text-anchor="start" x="182" y="-368.5" font-family="Helvetica,sans-Serif" font-size="10.00">+ value</text>
<polyline fill="none" stroke="black" points="174,-361.5 254,-361.5 "/>
<text text-anchor="middle" x="214" y="-349.5" font-family="Helvetica,sans-Serif" font-size="10.00"> </text>
</a>
</g>
</g>
<!-- Node2 -->
<g id="node2" class="node">
<title>Node2</title>
<g id="a_node2"><a xlink:href="a01500.html" target="_top" xlink:title="Global data structure for trap event capturing.">
<polygon fill="white" stroke="black" points="164.5,-215.5 164.5,-294.5 263.5,-294.5 263.5,-215.5 164.5,-215.5"/>
<text text-anchor="middle" x="214" y="-282.5" font-family="Helvetica,sans-Serif" font-size="10.00">TRAP_LOGGER_s</text>
<polyline fill="none" stroke="black" points="164.5,-275.5 263.5,-275.5 "/>
<text text-anchor="start" x="172.5" y="-263.5" font-family="Helvetica,sans-Serif" font-size="10.00">+ reset_count</text>
<text text-anchor="start" x="172.5" y="-252.5" font-family="Helvetica,sans-Serif" font-size="10.00">+ trap_id</text>
<text text-anchor="start" x="172.5" y="-241.5" font-family="Helvetica,sans-Serif" font-size="10.00">+ trap_count</text>
<polyline fill="none" stroke="black" points="164.5,-234.5 263.5,-234.5 "/>
<text text-anchor="middle" x="214" y="-222.5" font-family="Helvetica,sans-Serif" font-size="10.00"> </text>
</a>
</g>
</g>
<!-- Node1&#45;&gt;Node2 -->
<g id="edge6" class="edge">
<title>Node1&#45;&gt;Node2</title>
<path fill="none" stroke="#404040" d="M176.8,-342.28C176.48,-332.37 177.39,-322.49 180,-313 180.67,-310.57 181.47,-308.14 182.38,-305.73"/>
<polygon fill="none" stroke="#404040" points="182.44,-305.59 181.22,-298.48 187.31,-294.62 188.53,-301.73 182.44,-305.59"/>
<text text-anchor="middle" x="203.5" y="-316" font-family="Helvetica,sans-Serif" font-size="10.00"> +rcon_reg</text>
</g>
<!-- Node2&#45;&gt;Node1 -->
<g id="edge1" class="edge">
<title>Node2&#45;&gt;Node1</title>
<path fill="none" stroke="midnightblue" d="M229.46,-304.4C230.07,-307.29 230.59,-310.17 231,-313 232.39,-322.51 232.9,-332.42 232.77,-342.34"/>
<polygon fill="none" stroke="midnightblue" points="232.85,-303.53 227.14,-294.6 226.04,-305.14 232.85,-303.53"/>
</g>
<!-- Node3 -->
<g id="node3" class="node">
<title>Node3</title>
<g id="a_node3"><a xlink:href="a01496.html" target="_top" xlink:title="Provides information for executed task, fault event and operating mode ID of task manager.">
<polygon fill="white" stroke="black" points="0,-44.5 0,-123.5 80,-123.5 80,-44.5 0,-44.5"/>
<text text-anchor="middle" x="40" y="-111.5" font-family="Helvetica,sans-Serif" font-size="10.00">TASK_INFO_s</text>
<polyline fill="none" stroke="black" points="0,-104.5 80,-104.5 "/>
<text text-anchor="start" x="8" y="-92.5" font-family="Helvetica,sans-Serif" font-size="10.00">+ task_id</text>
<text text-anchor="start" x="8" y="-81.5" font-family="Helvetica,sans-Serif" font-size="10.00">+ fault_id</text>
<text text-anchor="start" x="8" y="-70.5" font-family="Helvetica,sans-Serif" font-size="10.00">+ op_mode</text>
<polyline fill="none" stroke="black" points="0,-63.5 80,-63.5 "/>
<text text-anchor="middle" x="40" y="-51.5" font-family="Helvetica,sans-Serif" font-size="10.00"> </text>
</a>
</g>
</g>
<!-- Node2&#45;&gt;Node3 -->
<g id="edge3" class="edge">
<title>Node2&#45;&gt;Node3</title>
<path fill="none" stroke="midnightblue" d="M154.77,-238.61C130.55,-229.8 103.85,-216.51 85,-197 65.56,-176.88 54.16,-147.29 47.7,-123.58"/>
<polygon fill="none" stroke="midnightblue" points="153.66,-241.94 164.26,-241.89 155.95,-235.32 153.66,-241.94"/>
</g>
<!-- Node4 -->
<g id="node4" class="node">
<title>Node4</title>
<g id="a_node4"><a xlink:href="a01448.html" target="_top" xlink:title="Defines the Trap Flag for primary and secondary vectors.">
<polygon fill="white" stroke="black" points="98,-0.5 98,-167.5 188,-167.5 188,-0.5 98,-0.5"/>
<text text-anchor="middle" x="143" y="-155.5" font-family="Helvetica,sans-Serif" font-size="10.00">TRAP_FLAGS_s</text>
<polyline fill="none" stroke="black" points="98,-148.5 188,-148.5 "/>
<text text-anchor="start" x="106" y="-136.5" font-family="Helvetica,sans-Serif" font-size="10.00">+ OVAERR</text>
<text text-anchor="start" x="106" y="-125.5" font-family="Helvetica,sans-Serif" font-size="10.00">+ OVBERR</text>
<text text-anchor="start" x="106" y="-114.5" font-family="Helvetica,sans-Serif" font-size="10.00">+ COVAERR</text>
<text text-anchor="start" x="106" y="-103.5" font-family="Helvetica,sans-Serif" font-size="10.00">+ COVBERR</text>
<text text-anchor="start" x="106" y="-92.5" font-family="Helvetica,sans-Serif" font-size="10.00">+ SFTACERR</text>
<text text-anchor="start" x="106" y="-81.5" font-family="Helvetica,sans-Serif" font-size="10.00">+ DIV0ERR</text>
<text text-anchor="start" x="106" y="-70.5" font-family="Helvetica,sans-Serif" font-size="10.00">+ MATHERR</text>
<text text-anchor="start" x="106" y="-59.5" font-family="Helvetica,sans-Serif" font-size="10.00">+ ADDRERR</text>
<text text-anchor="start" x="106" y="-48.5" font-family="Helvetica,sans-Serif" font-size="10.00">+ STKERR</text>
<text text-anchor="start" x="106" y="-37.5" font-family="Helvetica,sans-Serif" font-size="10.00">+ OSCFAIL</text>
<text text-anchor="start" x="106" y="-26.5" font-family="Helvetica,sans-Serif" font-size="10.00">and 12 more...</text>
<polyline fill="none" stroke="black" points="98,-19.5 188,-19.5 "/>
<text text-anchor="middle" x="143" y="-7.5" font-family="Helvetica,sans-Serif" font-size="10.00"> </text>
</a>
</g>
</g>
<!-- Node2&#45;&gt;Node4 -->
<g id="edge5" class="edge">
<title>Node2&#45;&gt;Node4</title>
<path fill="none" stroke="midnightblue" d="M176.33,-206.93C174.39,-203.65 172.59,-200.33 171,-197 166.59,-187.78 162.83,-177.78 159.63,-167.69"/>
<polygon fill="none" stroke="midnightblue" points="173.43,-208.89 181.75,-215.46 179.34,-205.14 173.43,-208.89"/>
</g>
<!-- Node5 -->
<g id="node5" class="node">
<title>Node5</title>
<g id="a_node5"><a xlink:href="a01460.html" target="_top" xlink:title="defining the CPU interrupt for primary and secondary vectors">
<polygon fill="white" stroke="black" points="206.5,-33.5 206.5,-134.5 299.5,-134.5 299.5,-33.5 206.5,-33.5"/>
<text text-anchor="middle" x="253" y="-122.5" font-family="Helvetica,sans-Serif" font-size="10.00">CPU_INTTREG_s</text>
<polyline fill="none" stroke="black" points="206.5,-115.5 299.5,-115.5 "/>
<text text-anchor="start" x="214.5" y="-103.5" font-family="Helvetica,sans-Serif" font-size="10.00">+ VECNUM</text>
<text text-anchor="start" x="214.5" y="-92.5" font-family="Helvetica,sans-Serif" font-size="10.00">+ ILR</text>
<text text-anchor="start" x="214.5" y="-81.5" font-family="Helvetica,sans-Serif" font-size="10.00">+ unsigned</text>
<text text-anchor="start" x="214.5" y="-70.5" font-family="Helvetica,sans-Serif" font-size="10.00">+ VHOLD</text>
<text text-anchor="start" x="214.5" y="-59.5" font-family="Helvetica,sans-Serif" font-size="10.00">+ value</text>
<polyline fill="none" stroke="black" points="206.5,-52.5 299.5,-52.5 "/>
<text text-anchor="middle" x="253" y="-40.5" font-family="Helvetica,sans-Serif" font-size="10.00"> </text>
</a>
</g>
</g>
<!-- Node2&#45;&gt;Node5 -->
<g id="edge8" class="edge">
<title>Node2&#45;&gt;Node5</title>
<path fill="none" stroke="midnightblue" d="M231.62,-205.55C232.47,-202.67 233.27,-199.81 234,-197 239.2,-176.85 243.34,-154.29 246.42,-134.73"/>
<polygon fill="none" stroke="midnightblue" points="228.21,-204.74 228.55,-215.33 234.89,-206.84 228.21,-204.74"/>
</g>
<!-- Node6 -->
<g id="node6" class="node">
<title>Node6</title>
<g id="a_node6"><a xlink:href="a01484.html" target="_top" xlink:title="Data structure for RCON status capturing.">
<polygon fill="white" stroke="black" points="318,-39 318,-129 434,-129 434,-39 318,-39"/>
<text text-anchor="middle" x="376" y="-117" font-family="Helvetica,sans-Serif" font-size="10.00">TRAPLOG_STATUS_s</text>
<polyline fill="none" stroke="black" points="318,-110 434,-110 "/>
<text text-anchor="start" x="326" y="-98" font-family="Helvetica,sans-Serif" font-size="10.00">+ cpu_reset_trigger</text>
<text text-anchor="start" x="326" y="-87" font-family="Helvetica,sans-Serif" font-size="10.00">+ unsigned</text>
<text text-anchor="start" x="326" y="-76" font-family="Helvetica,sans-Serif" font-size="10.00">+ sw_reset</text>
<text text-anchor="start" x="326" y="-65" font-family="Helvetica,sans-Serif" font-size="10.00">+ value</text>
<polyline fill="none" stroke="black" points="318,-58 434,-58 "/>
<text text-anchor="middle" x="376" y="-46" font-family="Helvetica,sans-Serif" font-size="10.00"> </text>
</a>
</g>
</g>
<!-- Node2&#45;&gt;Node6 -->
<g id="edge10" class="edge">
<title>Node2&#45;&gt;Node6</title>
<path fill="none" stroke="midnightblue" d="M272.5,-221.6C283.27,-214.27 293.95,-205.97 303,-197 322.94,-177.22 340.34,-151.12 353.14,-129.09"/>
<polygon fill="none" stroke="midnightblue" points="270.31,-218.85 263.87,-227.27 274.15,-224.7 270.31,-218.85"/>
</g>
<!-- Node3&#45;&gt;Node2 -->
<g id="edge2" class="edge">
<title>Node3&#45;&gt;Node2</title>
<path fill="none" stroke="#404040" d="M52.89,-123.61C62.35,-147.19 77.19,-176.63 98,-197 113.48,-212.16 133.78,-223.99 153.07,-232.85"/>
<polygon fill="none" stroke="#404040" points="153.26,-232.93 160.36,-231.66 164.26,-237.72 157.17,-238.99 153.26,-232.93"/>
<text text-anchor="middle" x="131" y="-189" font-family="Helvetica,sans-Serif" font-size="10.00"> +task_capture</text>
</g>
<!-- Node4&#45;&gt;Node2 -->
<g id="edge4" class="edge">
<title>Node4&#45;&gt;Node2</title>
<path fill="none" stroke="#404040" d="M166.1,-167.59C169.71,-177.65 173.68,-187.66 178,-197 179.18,-199.55 180.46,-202.13 181.8,-204.71"/>
<polygon fill="none" stroke="#404040" points="181.8,-204.71 188.22,-208.01 187.64,-215.2 181.22,-211.9 181.8,-204.71"/>
<text text-anchor="middle" x="204" y="-189" font-family="Helvetica,sans-Serif" font-size="10.00"> +trap_flags</text>
</g>
<!-- Node5&#45;&gt;Node2 -->
<g id="edge7" class="edge">
<title>Node5&#45;&gt;Node2</title>
<path fill="none" stroke="#404040" d="M263.68,-134.65C265.91,-154.52 265.83,-177.32 259,-197 258.11,-199.56 257.05,-202.1 255.86,-204.6"/>
<polygon fill="none" stroke="#404040" points="255.76,-204.77 256.31,-211.96 249.88,-215.23 249.33,-208.04 255.76,-204.77"/>
<text text-anchor="middle" x="280.5" y="-189" font-family="Helvetica,sans-Serif" font-size="10.00"> +inttreg</text>
</g>
<!-- Node6&#45;&gt;Node2 -->
<g id="edge9" class="edge">
<title>Node6&#45;&gt;Node2</title>
<path fill="none" stroke="#404040" d="M373.69,-129.1C370.42,-151.67 363.1,-178.26 347,-197 328.62,-218.4 300.77,-232 275.3,-240.51"/>
<polygon fill="none" stroke="#404040" points="275.27,-240.52 270.72,-246.12 263.8,-244.08 268.35,-238.48 275.27,-240.52"/>
<text text-anchor="middle" x="373.5" y="-189" font-family="Helvetica,sans-Serif" font-size="10.00"> +status</text>
</g>
</g>
</svg>
