<?xml version="1.0" encoding="UTF-8" standalone="no"?>
<!DOCTYPE svg PUBLIC "-//W3C//DTD SVG 1.1//EN"
 "http://www.w3.org/Graphics/SVG/1.1/DTD/svg11.dtd">
<!-- Generated by graphviz version 2.44.1 (20200629.0846)
 -->
<!-- Title: FLT_OBJECT_STATUS_s Pages: 1 -->
<svg width="316pt" height="375pt"
 viewBox="0.00 0.00 315.50 375.00" xmlns="http://www.w3.org/2000/svg" xmlns:xlink="http://www.w3.org/1999/xlink">
<g id="graph0" class="graph" transform="scale(1 1) rotate(0) translate(4 371)">
<title>FLT_OBJECT_STATUS_s</title>
<polygon fill="white" stroke="transparent" points="-4,4 -4,-371 311.5,-371 311.5,4 -4,4"/>
<!-- Node1 -->
<g id="node1" class="node">
<title>Node1</title>
<g id="a_node1"><a xlink:title="This data structure defines the fault object status.">
<polygon fill="#bfbfbf" stroke="black" points="86,-243.5 86,-366.5 215,-366.5 215,-243.5 86,-243.5"/>
<text text-anchor="middle" x="150.5" y="-354.5" font-family="Helvetica,sans-Serif" font-size="10.00">FLT_OBJECT_STATUS_s</text>
<polyline fill="none" stroke="black" points="86,-347.5 215,-347.5 "/>
<text text-anchor="start" x="94" y="-335.5" font-family="Helvetica,sans-Serif" font-size="10.00">+ FaultStatus</text>
<text text-anchor="start" x="94" y="-324.5" font-family="Helvetica,sans-Serif" font-size="10.00">+ FaultActive</text>
<text text-anchor="start" x="94" y="-313.5" font-family="Helvetica,sans-Serif" font-size="10.00">+ unsigned</text>
<text text-anchor="start" x="94" y="-302.5" font-family="Helvetica,sans-Serif" font-size="10.00">+ CompareType</text>
<text text-anchor="start" x="94" y="-291.5" font-family="Helvetica,sans-Serif" font-size="10.00">+ Enabled</text>
<text text-anchor="start" x="94" y="-280.5" font-family="Helvetica,sans-Serif" font-size="10.00">+ value</text>
<text text-anchor="start" x="94" y="-269.5" font-family="Helvetica,sans-Serif" font-size="10.00">+ @220</text>
<polyline fill="none" stroke="black" points="86,-262.5 215,-262.5 "/>
<text text-anchor="middle" x="150.5" y="-250.5" font-family="Helvetica,sans-Serif" font-size="10.00"> </text>
</a>
</g>
</g>
<!-- Node2 -->
<g id="node2" class="node">
<title>Node2</title>
<g id="a_node2"><a xlink:href="a01520.html" target="_top" xlink:title="This data structure is a collection of data structures for fault handling.">
<polygon fill="white" stroke="black" points="100.5,-138.5 100.5,-195.5 200.5,-195.5 200.5,-138.5 100.5,-138.5"/>
<text text-anchor="middle" x="150.5" y="-183.5" font-family="Helvetica,sans-Serif" font-size="10.00">FAULT_OBJECT_s</text>
<polyline fill="none" stroke="black" points="100.5,-176.5 200.5,-176.5 "/>
<text text-anchor="start" x="108.5" y="-164.5" font-family="Helvetica,sans-Serif" font-size="10.00">+ Counter</text>
<polyline fill="none" stroke="black" points="100.5,-157.5 200.5,-157.5 "/>
<text text-anchor="middle" x="150.5" y="-145.5" font-family="Helvetica,sans-Serif" font-size="10.00"> </text>
</a>
</g>
</g>
<!-- Node1&#45;&gt;Node2 -->
<g id="edge2" class="edge">
<title>Node1&#45;&gt;Node2</title>
<path fill="none" stroke="#404040" d="M120.72,-243.15C118.91,-233.43 118.77,-223.46 121.5,-214 122.25,-211.42 123.18,-208.85 124.26,-206.31"/>
<polygon fill="none" stroke="#404040" points="124.31,-206.22 123.45,-199.06 129.72,-195.51 130.58,-202.67 124.31,-206.22"/>
<text text-anchor="middle" x="140.5" y="-217" font-family="Helvetica,sans-Serif" font-size="10.00"> +Status</text>
</g>
<!-- Node2&#45;&gt;Node1 -->
<g id="edge1" class="edge">
<title>Node2&#45;&gt;Node1</title>
<path fill="none" stroke="midnightblue" d="M162.07,-205.82C162.64,-208.57 163.13,-211.32 163.5,-214 164.82,-223.54 164.78,-233.64 163.94,-243.5"/>
<polygon fill="none" stroke="midnightblue" points="165.44,-204.88 159.72,-195.96 158.63,-206.5 165.44,-204.88"/>
</g>
<!-- Node3 -->
<g id="node3" class="node">
<title>Node3</title>
<g id="a_node3"><a xlink:href="a01516.html" target="_top" xlink:title="This data structure defines the fault monitor event response object.">
<polygon fill="white" stroke="black" points="0,-0.5 0,-79.5 141,-79.5 141,-0.5 0,-0.5"/>
<text text-anchor="middle" x="70.5" y="-67.5" font-family="Helvetica,sans-Serif" font-size="10.00">FLT_EVENT_RESPONSE_s</text>
<polyline fill="none" stroke="black" points="0,-60.5 141,-60.5 "/>
<text text-anchor="start" x="8" y="-48.5" font-family="Helvetica,sans-Serif" font-size="10.00">+ compareThreshold</text>
<text text-anchor="start" x="8" y="-37.5" font-family="Helvetica,sans-Serif" font-size="10.00">+ eventThreshold</text>
<text text-anchor="start" x="8" y="-26.5" font-family="Helvetica,sans-Serif" font-size="10.00">+ ptrResponseFunction</text>
<polyline fill="none" stroke="black" points="0,-19.5 141,-19.5 "/>
<text text-anchor="middle" x="70.5" y="-7.5" font-family="Helvetica,sans-Serif" font-size="10.00"> </text>
</a>
</g>
</g>
<!-- Node2&#45;&gt;Node3 -->
<g id="edge4" class="edge">
<title>Node2&#45;&gt;Node3</title>
<path fill="none" stroke="midnightblue" d="M92.85,-131.67C89.33,-128.06 86.15,-124.17 83.5,-120 75.97,-108.15 72.36,-93.36 70.75,-79.78"/>
<polygon fill="none" stroke="midnightblue" points="90.74,-134.49 100.47,-138.69 95.48,-129.34 90.74,-134.49"/>
</g>
<!-- Node4 -->
<g id="node4" class="node">
<title>Node4</title>
<g id="a_node4"><a xlink:href="a01512.html" target="_top" xlink:title="This data structure defines the data object which will be monitored by the fault handler.">
<polygon fill="white" stroke="black" points="163,-6 163,-74 304,-74 304,-6 163,-6"/>
<text text-anchor="middle" x="233.5" y="-62" font-family="Helvetica,sans-Serif" font-size="10.00">FLT_COMPARE_OBJECT_s</text>
<polyline fill="none" stroke="black" points="163,-55 304,-55 "/>
<text text-anchor="start" x="171" y="-43" font-family="Helvetica,sans-Serif" font-size="10.00">+ ptrObject</text>
<text text-anchor="start" x="171" y="-32" font-family="Helvetica,sans-Serif" font-size="10.00">+ bitMask</text>
<polyline fill="none" stroke="black" points="163,-25 304,-25 "/>
<text text-anchor="middle" x="233.5" y="-13" font-family="Helvetica,sans-Serif" font-size="10.00"> </text>
</a>
</g>
</g>
<!-- Node2&#45;&gt;Node4 -->
<g id="edge6" class="edge">
<title>Node2&#45;&gt;Node4</title>
<path fill="none" stroke="midnightblue" d="M182.85,-130.28C185.53,-126.88 188.12,-123.42 190.5,-120 200.48,-105.64 209.96,-88.72 217.46,-74.23"/>
<polygon fill="none" stroke="midnightblue" points="180.09,-128.12 176.47,-138.07 185.51,-132.55 180.09,-128.12"/>
</g>
<!-- Node3&#45;&gt;Node2 -->
<g id="edge3" class="edge">
<title>Node3&#45;&gt;Node2</title>
<path fill="none" stroke="#404040" d="M79.34,-79.86C83.51,-93.29 89.4,-107.98 97.5,-120 99.71,-123.28 102.22,-126.48 104.9,-129.55"/>
<polygon fill="none" stroke="#404040" points="105.07,-129.72 112.12,-131.26 113.4,-138.36 106.36,-136.82 105.07,-129.72"/>
<text text-anchor="middle" x="144" y="-112" font-family="Helvetica,sans-Serif" font-size="10.00"> +RecoveryResponse</text>
<text text-anchor="middle" x="144" y="-101" font-family="Helvetica,sans-Serif" font-size="10.00">+TripResponse</text>
</g>
<!-- Node4&#45;&gt;Node2 -->
<g id="edge5" class="edge">
<title>Node4&#45;&gt;Node2</title>
<path fill="none" stroke="#404040" d="M231.32,-74.26C229.04,-89.25 224.49,-106.55 215.5,-120 213.16,-123.5 210.46,-126.81 207.52,-129.94"/>
<polygon fill="none" stroke="#404040" points="207.42,-130.03 205.79,-137.05 198.68,-138.25 200.31,-131.22 207.42,-130.03"/>
<text text-anchor="middle" x="266.5" y="-112" font-family="Helvetica,sans-Serif" font-size="10.00"> +ReferenceObject</text>
<text text-anchor="middle" x="266.5" y="-101" font-family="Helvetica,sans-Serif" font-size="10.00">+SourceObject</text>
</g>
</g>
</svg>
