<?xml version="1.0" encoding="UTF-8" standalone="no"?>
<!DOCTYPE svg PUBLIC "-//W3C//DTD SVG 1.1//EN"
 "http://www.w3.org/Graphics/SVG/1.1/DTD/svg11.dtd">
<!-- Generated by graphviz version 2.44.1 (20200629.0846)
 -->
<!-- Title: FAULT_OBJECT_s Pages: 1 -->
<svg width="455pt" height="281pt"
 viewBox="0.00 0.00 455.00 281.00" xmlns="http://www.w3.org/2000/svg" xmlns:xlink="http://www.w3.org/1999/xlink">
<g id="graph0" class="graph" transform="scale(1 1) rotate(0) translate(4 277)">
<title>FAULT_OBJECT_s</title>
<polygon fill="white" stroke="transparent" points="-4,4 -4,-277 451,-277 451,4 -4,4"/>
<!-- Node1 -->
<g id="node1" class="node">
<title>Node1</title>
<g id="a_node1"><a xlink:title="This data structure is a collection of data structures for fault handling.">
<polygon fill="#bfbfbf" stroke="black" points="175,-160.5 175,-272.5 284,-272.5 284,-160.5 175,-160.5"/>
<text text-anchor="middle" x="229.5" y="-260.5" font-family="Helvetica,sans-Serif" font-size="10.00">FAULT_OBJECT_s</text>
<polyline fill="none" stroke="black" points="175,-253.5 284,-253.5 "/>
<text text-anchor="start" x="183" y="-241.5" font-family="Helvetica,sans-Serif" font-size="10.00">+ Status</text>
<text text-anchor="start" x="183" y="-230.5" font-family="Helvetica,sans-Serif" font-size="10.00">+ Counter</text>
<text text-anchor="start" x="183" y="-219.5" font-family="Helvetica,sans-Serif" font-size="10.00">+ SourceObject</text>
<text text-anchor="start" x="183" y="-208.5" font-family="Helvetica,sans-Serif" font-size="10.00">+ ReferenceObject</text>
<text text-anchor="start" x="183" y="-197.5" font-family="Helvetica,sans-Serif" font-size="10.00">+ TripResponse</text>
<text text-anchor="start" x="183" y="-186.5" font-family="Helvetica,sans-Serif" font-size="10.00">+ RecoveryResponse</text>
<polyline fill="none" stroke="black" points="175,-179.5 284,-179.5 "/>
<text text-anchor="middle" x="229.5" y="-167.5" font-family="Helvetica,sans-Serif" font-size="10.00"> </text>
</a>
</g>
</g>
<!-- Node2 -->
<g id="node2" class="node">
<title>Node2</title>
<g id="a_node2"><a xlink:href="a01436.html" target="_top" xlink:title="This data structure defines the data object which will be monitored by the fault handler.">
<polygon fill="white" stroke="black" points="0,-28 0,-96 141,-96 141,-28 0,-28"/>
<text text-anchor="middle" x="70.5" y="-84" font-family="Helvetica,sans-Serif" font-size="10.00">FLT_COMPARE_OBJECT_s</text>
<polyline fill="none" stroke="black" points="0,-77 141,-77 "/>
<text text-anchor="start" x="8" y="-65" font-family="Helvetica,sans-Serif" font-size="10.00">+ ptrObject</text>
<text text-anchor="start" x="8" y="-54" font-family="Helvetica,sans-Serif" font-size="10.00">+ bitMask</text>
<polyline fill="none" stroke="black" points="0,-47 141,-47 "/>
<text text-anchor="middle" x="70.5" y="-35" font-family="Helvetica,sans-Serif" font-size="10.00"> </text>
</a>
</g>
</g>
<!-- Node1&#45;&gt;Node2 -->
<g id="edge1" class="edge">
<title>Node1&#45;&gt;Node2</title>
<path fill="none" stroke="midnightblue" d="M167.35,-155.9C146.12,-135.53 123.16,-113.5 104.92,-96.01"/>
<polygon fill="none" stroke="midnightblue" points="165.14,-158.62 174.78,-163.02 169.99,-153.57 165.14,-158.62"/>
</g>
<!-- Node3 -->
<g id="node3" class="node">
<title>Node3</title>
<g id="a_node3"><a xlink:href="a01440.html" target="_top" xlink:title="This data structure defines the fault monitor event response object.">
<polygon fill="white" stroke="black" points="159,-22.5 159,-101.5 300,-101.5 300,-22.5 159,-22.5"/>
<text text-anchor="middle" x="229.5" y="-89.5" font-family="Helvetica,sans-Serif" font-size="10.00">FLT_EVENT_RESPONSE_s</text>
<polyline fill="none" stroke="black" points="159,-82.5 300,-82.5 "/>
<text text-anchor="start" x="167" y="-70.5" font-family="Helvetica,sans-Serif" font-size="10.00">+ compareThreshold</text>
<text text-anchor="start" x="167" y="-59.5" font-family="Helvetica,sans-Serif" font-size="10.00">+ eventThreshold</text>
<text text-anchor="start" x="167" y="-48.5" font-family="Helvetica,sans-Serif" font-size="10.00">+ ptrResponseFunction</text>
<polyline fill="none" stroke="black" points="159,-41.5 300,-41.5 "/>
<text text-anchor="middle" x="229.5" y="-29.5" font-family="Helvetica,sans-Serif" font-size="10.00"> </text>
</a>
</g>
</g>
<!-- Node1&#45;&gt;Node3 -->
<g id="edge2" class="edge">
<title>Node1&#45;&gt;Node3</title>
<path fill="none" stroke="midnightblue" d="M229.5,-150.27C229.5,-133.73 229.5,-116.48 229.5,-101.73"/>
<polygon fill="none" stroke="midnightblue" points="226,-150.44 229.5,-160.44 233,-150.44 226,-150.44"/>
</g>
<!-- Node4 -->
<g id="node4" class="node">
<title>Node4</title>
<g id="a_node4"><a xlink:href="a01424.html" target="_top" xlink:title="This data structure defines the fault object status.">
<polygon fill="white" stroke="black" points="318,-0.5 318,-123.5 447,-123.5 447,-0.5 318,-0.5"/>
<text text-anchor="middle" x="382.5" y="-111.5" font-family="Helvetica,sans-Serif" font-size="10.00">FLT_OBJECT_STATUS_s</text>
<polyline fill="none" stroke="black" points="318,-104.5 447,-104.5 "/>
<text text-anchor="start" x="326" y="-92.5" font-family="Helvetica,sans-Serif" font-size="10.00">+ FaultStatus</text>
<text text-anchor="start" x="326" y="-81.5" font-family="Helvetica,sans-Serif" font-size="10.00">+ FaultActive</text>
<text text-anchor="start" x="326" y="-70.5" font-family="Helvetica,sans-Serif" font-size="10.00">+ unsigned</text>
<text text-anchor="start" x="326" y="-59.5" font-family="Helvetica,sans-Serif" font-size="10.00">+ CompareType</text>
<text text-anchor="start" x="326" y="-48.5" font-family="Helvetica,sans-Serif" font-size="10.00">+ Enabled</text>
<text text-anchor="start" x="326" y="-37.5" font-family="Helvetica,sans-Serif" font-size="10.00">+ value</text>
<text text-anchor="start" x="326" y="-26.5" font-family="Helvetica,sans-Serif" font-size="10.00">+ @1</text>
<polyline fill="none" stroke="black" points="318,-19.5 447,-19.5 "/>
<text text-anchor="middle" x="382.5" y="-7.5" font-family="Helvetica,sans-Serif" font-size="10.00"> </text>
</a>
</g>
</g>
<!-- Node1&#45;&gt;Node4 -->
<g id="edge3" class="edge">
<title>Node1&#45;&gt;Node4</title>
<path fill="none" stroke="midnightblue" d="M291.47,-153.73C301.4,-143.83 311.68,-133.59 321.59,-123.71"/>
<polygon fill="none" stroke="midnightblue" points="288.92,-151.34 284.3,-160.87 293.86,-156.29 288.92,-151.34"/>
</g>
</g>
</svg>
