<?xml version="1.0" encoding="UTF-8" standalone="no"?>
<!DOCTYPE svg PUBLIC "-//W3C//DTD SVG 1.1//EN"
 "http://www.w3.org/Graphics/SVG/1.1/DTD/svg11.dtd">
<!-- Generated by graphviz version 2.44.1 (20200629.0846)
 -->
<!-- Title: TRAPLOG_STATUS_s Pages: 1 -->
<svg width="124pt" height="270pt"
 viewBox="0.00 0.00 124.00 270.00" xmlns="http://www.w3.org/2000/svg" xmlns:xlink="http://www.w3.org/1999/xlink">
<g id="graph0" class="graph" transform="scale(1 1) rotate(0) translate(4 266)">
<title>TRAPLOG_STATUS_s</title>
<polygon fill="white" stroke="transparent" points="-4,4 -4,-266 120,-266 120,4 -4,4"/>
<!-- Node1 -->
<g id="node1" class="node">
<title>Node1</title>
<g id="a_node1"><a xlink:title="Data structure for RCON status capturing.">
<polygon fill="#bfbfbf" stroke="black" points="0,-0.5 0,-90.5 116,-90.5 116,-0.5 0,-0.5"/>
<text text-anchor="middle" x="58" y="-78.5" font-family="Helvetica,sans-Serif" font-size="10.00">TRAPLOG_STATUS_s</text>
<polyline fill="none" stroke="black" points="0,-71.5 116,-71.5 "/>
<text text-anchor="start" x="8" y="-59.5" font-family="Helvetica,sans-Serif" font-size="10.00">+ cpu_reset_trigger</text>
<text text-anchor="start" x="8" y="-48.5" font-family="Helvetica,sans-Serif" font-size="10.00">+ unsigned</text>
<text text-anchor="start" x="8" y="-37.5" font-family="Helvetica,sans-Serif" font-size="10.00">+ sw_reset</text>
<text text-anchor="start" x="8" y="-26.5" font-family="Helvetica,sans-Serif" font-size="10.00">+ value</text>
<polyline fill="none" stroke="black" points="0,-19.5 116,-19.5 "/>
<text text-anchor="middle" x="58" y="-7.5" font-family="Helvetica,sans-Serif" font-size="10.00"> </text>
</a>
</g>
</g>
<!-- Node2 -->
<g id="node2" class="node">
<title>Node2</title>
<g id="a_node2"><a xlink:href="a01500.html" target="_top" xlink:title="Global data structure for trap event capturing.">
<polygon fill="white" stroke="black" points="8.5,-127.5 8.5,-261.5 107.5,-261.5 107.5,-127.5 8.5,-127.5"/>
<text text-anchor="middle" x="58" y="-249.5" font-family="Helvetica,sans-Serif" font-size="10.00">TRAP_LOGGER_s</text>
<polyline fill="none" stroke="black" points="8.5,-242.5 107.5,-242.5 "/>
<text text-anchor="start" x="16.5" y="-230.5" font-family="Helvetica,sans-Serif" font-size="10.00">+ status</text>
<text text-anchor="start" x="16.5" y="-219.5" font-family="Helvetica,sans-Serif" font-size="10.00">+ reset_count</text>
<text text-anchor="start" x="16.5" y="-208.5" font-family="Helvetica,sans-Serif" font-size="10.00">+ trap_id</text>
<text text-anchor="start" x="16.5" y="-197.5" font-family="Helvetica,sans-Serif" font-size="10.00">+ trap_count</text>
<text text-anchor="start" x="16.5" y="-186.5" font-family="Helvetica,sans-Serif" font-size="10.00">+ trap_flags</text>
<text text-anchor="start" x="16.5" y="-175.5" font-family="Helvetica,sans-Serif" font-size="10.00">+ rcon_reg</text>
<text text-anchor="start" x="16.5" y="-164.5" font-family="Helvetica,sans-Serif" font-size="10.00">+ inttreg</text>
<text text-anchor="start" x="16.5" y="-153.5" font-family="Helvetica,sans-Serif" font-size="10.00">+ task_capture</text>
<polyline fill="none" stroke="black" points="8.5,-146.5 107.5,-146.5 "/>
<text text-anchor="middle" x="58" y="-134.5" font-family="Helvetica,sans-Serif" font-size="10.00"> </text>
</a>
</g>
</g>
<!-- Node2&#45;&gt;Node1 -->
<g id="edge1" class="edge">
<title>Node2&#45;&gt;Node1</title>
<path fill="none" stroke="midnightblue" d="M58,-117.15C58,-108.15 58,-99.2 58,-90.85"/>
<polygon fill="none" stroke="midnightblue" points="54.5,-117.31 58,-127.31 61.5,-117.31 54.5,-117.31"/>
</g>
</g>
</svg>
