<?xml version="1.0" encoding="UTF-8" standalone="no"?>
<!DOCTYPE svg PUBLIC "-//W3C//DTD SVG 1.1//EN"
 "http://www.w3.org/Graphics/SVG/1.1/DTD/svg11.dtd">
<!-- Generated by graphviz version 2.44.1 (20200629.0846)
 -->
<!-- Title: TASK_INFO_s Pages: 1 -->
<!--zoomable 474 -->
<svg id="main" version="1.1" xmlns="http://www.w3.org/2000/svg" xmlns:xlink="http://www.w3.org/1999/xlink" xml:space="preserve" onload="init(evt)">
<style type="text/css"><![CDATA[
.edge:hover path { stroke: red; }
.edge:hover polygon { stroke: red; fill: red; }
]]></style>
<script type="text/javascript"><![CDATA[
var edges = document.getElementsByTagName('g');
if (edges && edges.length) {
  for (var i=0;i<edges.length;i++) {
    if (edges[i].id.substr(0,4)=='edge') {
      edges[i].setAttribute('class','edge');
    }
  }
}
]]></script>
        <defs>
                <circle id="rim" cx="0" cy="0" r="7"/>
                <circle id="rim2" cx="0" cy="0" r="3.5"/>
                <g id="zoomPlus">
                        <use xlink:href="#rim" fill="#404040">
                                <set attributeName="fill" to="#808080" begin="zoomplus.mouseover" end="zoomplus.mouseout"/>
                        </use>
                        <path d="M-4,0h8M0,-4v8" fill="none" stroke="white" stroke-width="1.5" pointer-events="none"/>
                </g>
                <g id="zoomMin">
                        <use xlink:href="#rim" fill="#404040">
                                <set attributeName="fill" to="#808080" begin="zoomminus.mouseover" end="zoomminus.mouseout"/>
                        </use>
                        <path d="M-4,0h8" fill="none" stroke="white" stroke-width="1.5" pointer-events="none"/>
                </g>
                <g id="dirArrow">
                        <path fill="none" stroke="white" stroke-width="1.5" d="M0,-3.0v7 M-2.5,-0.5L0,-3.0L2.5,-0.5"/>
                </g>
               <g id="resetDef">
                       <use xlink:href="#rim2" fill="#404040">
                               <set attributeName="fill" to="#808080" begin="reset.mouseover" end="reset.mouseout"/>
                       </use>
               </g>
        </defs>

<script type="text/javascript">
var viewWidth = 442;
var viewHeight = 474;
var sectionId = 'dynsection-1';
</script>
<script xlink:href="svgpan.js"/>
<svg id="graph" class="graph">
<g id="viewport">
<title>TASK_INFO_s</title>
<polygon fill="white" stroke="transparent" points="-4,4 -4,-470 438,-470 438,4 -4,4"/>
<!-- Node1 -->
<g id="node1" class="node">
<title>Node1</title>
<g id="a_node1"><a xlink:title="Provides information for executed task, fault event and operating mode ID of task manager.">
<polygon fill="#bfbfbf" stroke="black" points="171,-386.5 171,-465.5 251,-465.5 251,-386.5 171,-386.5"/>
<text text-anchor="middle" x="211" y="-453.5" font-family="Helvetica,sans-Serif" font-size="10.00">TASK_INFO_s</text>
<polyline fill="none" stroke="black" points="171,-446.5 251,-446.5 "/>
<text text-anchor="start" x="179" y="-434.5" font-family="Helvetica,sans-Serif" font-size="10.00">+ task_id</text>
<text text-anchor="start" x="179" y="-423.5" font-family="Helvetica,sans-Serif" font-size="10.00">+ fault_id</text>
<text text-anchor="start" x="179" y="-412.5" font-family="Helvetica,sans-Serif" font-size="10.00">+ op_mode</text>
<polyline fill="none" stroke="black" points="171,-405.5 251,-405.5 "/>
<text text-anchor="middle" x="211" y="-393.5" font-family="Helvetica,sans-Serif" font-size="10.00"> </text>
</a>
</g>
</g>
<!-- Node2 -->
<g id="node2" class="node">
<title>Node2</title>
<g id="a_node2"><a xlink:href="a01500.html" target="_top" xlink:title="Global data structure for trap event capturing.">
<polygon fill="white" stroke="black" points="161.5,-259.5 161.5,-338.5 260.5,-338.5 260.5,-259.5 161.5,-259.5"/>
<text text-anchor="middle" x="211" y="-326.5" font-family="Helvetica,sans-Serif" font-size="10.00">TRAP_LOGGER_s</text>
<polyline fill="none" stroke="black" points="161.5,-319.5 260.5,-319.5 "/>
<text text-anchor="start" x="169.5" y="-307.5" font-family="Helvetica,sans-Serif" font-size="10.00">+ reset_count</text>
<text text-anchor="start" x="169.5" y="-296.5" font-family="Helvetica,sans-Serif" font-size="10.00">+ trap_id</text>
<text text-anchor="start" x="169.5" y="-285.5" font-family="Helvetica,sans-Serif" font-size="10.00">+ trap_count</text>
<polyline fill="none" stroke="black" points="161.5,-278.5 260.5,-278.5 "/>
<text text-anchor="middle" x="211" y="-266.5" font-family="Helvetica,sans-Serif" font-size="10.00"> </text>
</a>
</g>
</g>
<!-- Node1&#45;&gt;Node2 -->
<g id="edge2" class="edge">
<title>Node1&#45;&gt;Node2</title>
<path fill="none" stroke="#404040" d="M172.12,-386.35C167.05,-377.15 164.63,-367.07 168,-357 168.86,-354.42 169.89,-351.87 171.06,-349.35"/>
<polygon fill="none" stroke="#404040" points="171.17,-349.15 170.52,-341.96 176.9,-338.61 177.55,-345.79 171.17,-349.15"/>
<text text-anchor="middle" x="201" y="-360" font-family="Helvetica,sans-Serif" font-size="10.00"> +task_capture</text>
</g>
<!-- Node2&#45;&gt;Node1 -->
<g id="edge1" class="edge">
<title>Node2&#45;&gt;Node1</title>
<path fill="none" stroke="midnightblue" d="M237.88,-348.5C239.2,-354.96 239.44,-361.58 238,-368 236.63,-374.09 234.53,-380.29 232.1,-386.26"/>
<polygon fill="none" stroke="midnightblue" points="241.14,-347.18 235.03,-338.53 234.41,-349.11 241.14,-347.18"/>
</g>
<!-- Node3 -->
<g id="node3" class="node">
<title>Node3</title>
<g id="a_node3"><a xlink:href="a01448.html" target="_top" xlink:title="Defines the Trap Flag for primary and secondary vectors.">
<polygon fill="white" stroke="black" points="0,-22.5 0,-189.5 90,-189.5 90,-22.5 0,-22.5"/>
<text text-anchor="middle" x="45" y="-177.5" font-family="Helvetica,sans-Serif" font-size="10.00">TRAP_FLAGS_s</text>
<polyline fill="none" stroke="black" points="0,-170.5 90,-170.5 "/>
<text text-anchor="start" x="8" y="-158.5" font-family="Helvetica,sans-Serif" font-size="10.00">+ OVAERR</text>
<text text-anchor="start" x="8" y="-147.5" font-family="Helvetica,sans-Serif" font-size="10.00">+ OVBERR</text>
<text text-anchor="start" x="8" y="-136.5" font-family="Helvetica,sans-Serif" font-size="10.00">+ COVAERR</text>
<text text-anchor="start" x="8" y="-125.5" font-family="Helvetica,sans-Serif" font-size="10.00">+ COVBERR</text>
<text text-anchor="start" x="8" y="-114.5" font-family="Helvetica,sans-Serif" font-size="10.00">+ SFTACERR</text>
<text text-anchor="start" x="8" y="-103.5" font-family="Helvetica,sans-Serif" font-size="10.00">+ DIV0ERR</text>
<text text-anchor="start" x="8" y="-92.5" font-family="Helvetica,sans-Serif" font-size="10.00">+ MATHERR</text>
<text text-anchor="start" x="8" y="-81.5" font-family="Helvetica,sans-Serif" font-size="10.00">+ ADDRERR</text>
<text text-anchor="start" x="8" y="-70.5" font-family="Helvetica,sans-Serif" font-size="10.00">+ STKERR</text>
<text text-anchor="start" x="8" y="-59.5" font-family="Helvetica,sans-Serif" font-size="10.00">+ OSCFAIL</text>
<text text-anchor="start" x="8" y="-48.5" font-family="Helvetica,sans-Serif" font-size="10.00">and 12 more...</text>
<polyline fill="none" stroke="black" points="0,-41.5 90,-41.5 "/>
<text text-anchor="middle" x="45" y="-29.5" font-family="Helvetica,sans-Serif" font-size="10.00"> </text>
</a>
</g>
</g>
<!-- Node2&#45;&gt;Node3 -->
<g id="edge4" class="edge">
<title>Node2&#45;&gt;Node3</title>
<path fill="none" stroke="midnightblue" d="M151.99,-277.17C133.46,-268.33 114.17,-256.42 100,-241 86.56,-226.37 76.18,-208.01 68.25,-189.61"/>
<polygon fill="none" stroke="midnightblue" points="150.74,-280.44 161.29,-281.39 153.63,-274.07 150.74,-280.44"/>
</g>
<!-- Node4 -->
<g id="node4" class="node">
<title>Node4</title>
<g id="a_node4"><a xlink:href="a01472.html" target="_top" xlink:title="Data structure for RCON status capturing.">
<polygon fill="white" stroke="black" points="108,-0.5 108,-211.5 188,-211.5 188,-0.5 108,-0.5"/>
<text text-anchor="middle" x="148" y="-199.5" font-family="Helvetica,sans-Serif" font-size="10.00">CPU_RCON_s</text>
<polyline fill="none" stroke="black" points="108,-192.5 188,-192.5 "/>
<text text-anchor="start" x="116" y="-180.5" font-family="Helvetica,sans-Serif" font-size="10.00">+ por</text>
<text text-anchor="start" x="116" y="-169.5" font-family="Helvetica,sans-Serif" font-size="10.00">+ bor</text>
<text text-anchor="start" x="116" y="-158.5" font-family="Helvetica,sans-Serif" font-size="10.00">+ idle</text>
<text text-anchor="start" x="116" y="-147.5" font-family="Helvetica,sans-Serif" font-size="10.00">+ sleep</text>
<text text-anchor="start" x="116" y="-136.5" font-family="Helvetica,sans-Serif" font-size="10.00">+ wdto</text>
<text text-anchor="start" x="116" y="-125.5" font-family="Helvetica,sans-Serif" font-size="10.00">+ swdten</text>
<text text-anchor="start" x="116" y="-114.5" font-family="Helvetica,sans-Serif" font-size="10.00">+ swr</text>
<text text-anchor="start" x="116" y="-103.5" font-family="Helvetica,sans-Serif" font-size="10.00">+ extr</text>
<text text-anchor="start" x="116" y="-92.5" font-family="Helvetica,sans-Serif" font-size="10.00">+ vregs</text>
<text text-anchor="start" x="116" y="-81.5" font-family="Helvetica,sans-Serif" font-size="10.00">+ cm</text>
<text text-anchor="start" x="116" y="-70.5" font-family="Helvetica,sans-Serif" font-size="10.00">+ unsigned</text>
<text text-anchor="start" x="116" y="-59.5" font-family="Helvetica,sans-Serif" font-size="10.00">+ vregsf</text>
<text text-anchor="start" x="116" y="-48.5" font-family="Helvetica,sans-Serif" font-size="10.00">+ iopuwr</text>
<text text-anchor="start" x="116" y="-37.5" font-family="Helvetica,sans-Serif" font-size="10.00">+ trapr</text>
<text text-anchor="start" x="116" y="-26.5" font-family="Helvetica,sans-Serif" font-size="10.00">+ value</text>
<polyline fill="none" stroke="black" points="108,-19.5 188,-19.5 "/>
<text text-anchor="middle" x="148" y="-7.5" font-family="Helvetica,sans-Serif" font-size="10.00"> </text>
</a>
</g>
</g>
<!-- Node2&#45;&gt;Node4 -->
<g id="edge6" class="edge">
<title>Node2&#45;&gt;Node4</title>
<path fill="none" stroke="midnightblue" d="M174.54,-250.52C172.86,-247.38 171.32,-244.19 170,-241 166.16,-231.74 162.99,-221.87 160.37,-211.84"/>
<polygon fill="none" stroke="midnightblue" points="171.55,-252.34 179.61,-259.22 177.6,-248.81 171.55,-252.34"/>
</g>
<!-- Node5 -->
<g id="node5" class="node">
<title>Node5</title>
<g id="a_node5"><a xlink:href="a01460.html" target="_top" xlink:title="defining the CPU interrupt for primary and secondary vectors">
<polygon fill="white" stroke="black" points="206.5,-55.5 206.5,-156.5 299.5,-156.5 299.5,-55.5 206.5,-55.5"/>
<text text-anchor="middle" x="253" y="-144.5" font-family="Helvetica,sans-Serif" font-size="10.00">CPU_INTTREG_s</text>
<polyline fill="none" stroke="black" points="206.5,-137.5 299.5,-137.5 "/>
<text text-anchor="start" x="214.5" y="-125.5" font-family="Helvetica,sans-Serif" font-size="10.00">+ VECNUM</text>
<text text-anchor="start" x="214.5" y="-114.5" font-family="Helvetica,sans-Serif" font-size="10.00">+ ILR</text>
<text text-anchor="start" x="214.5" y="-103.5" font-family="Helvetica,sans-Serif" font-size="10.00">+ unsigned</text>
<text text-anchor="start" x="214.5" y="-92.5" font-family="Helvetica,sans-Serif" font-size="10.00">+ VHOLD</text>
<text text-anchor="start" x="214.5" y="-81.5" font-family="Helvetica,sans-Serif" font-size="10.00">+ value</text>
<polyline fill="none" stroke="black" points="206.5,-74.5 299.5,-74.5 "/>
<text text-anchor="middle" x="253" y="-62.5" font-family="Helvetica,sans-Serif" font-size="10.00"> </text>
</a>
</g>
</g>
<!-- Node2&#45;&gt;Node5 -->
<g id="edge8" class="edge">
<title>Node2&#45;&gt;Node5</title>
<path fill="none" stroke="midnightblue" d="M225.85,-249.48C226.6,-246.62 227.33,-243.78 228,-241 234.7,-213.28 240.63,-181.97 245.03,-156.59"/>
<polygon fill="none" stroke="midnightblue" points="222.45,-248.64 223.16,-259.21 229.2,-250.5 222.45,-248.64"/>
</g>
<!-- Node6 -->
<g id="node6" class="node">
<title>Node6</title>
<g id="a_node6"><a xlink:href="a01484.html" target="_top" xlink:title="Data structure for RCON status capturing.">
<polygon fill="white" stroke="black" points="318,-61 318,-151 434,-151 434,-61 318,-61"/>
<text text-anchor="middle" x="376" y="-139" font-family="Helvetica,sans-Serif" font-size="10.00">TRAPLOG_STATUS_s</text>
<polyline fill="none" stroke="black" points="318,-132 434,-132 "/>
<text text-anchor="start" x="326" y="-120" font-family="Helvetica,sans-Serif" font-size="10.00">+ cpu_reset_trigger</text>
<text text-anchor="start" x="326" y="-109" font-family="Helvetica,sans-Serif" font-size="10.00">+ unsigned</text>
<text text-anchor="start" x="326" y="-98" font-family="Helvetica,sans-Serif" font-size="10.00">+ sw_reset</text>
<text text-anchor="start" x="326" y="-87" font-family="Helvetica,sans-Serif" font-size="10.00">+ value</text>
<polyline fill="none" stroke="black" points="318,-80 434,-80 "/>
<text text-anchor="middle" x="376" y="-68" font-family="Helvetica,sans-Serif" font-size="10.00"> </text>
</a>
</g>
</g>
<!-- Node2&#45;&gt;Node6 -->
<g id="edge10" class="edge">
<title>Node2&#45;&gt;Node6</title>
<path fill="none" stroke="midnightblue" d="M269.17,-264.72C279.09,-257.62 288.81,-249.63 297,-241 322,-214.65 342.54,-179 356.4,-151.09"/>
<polygon fill="none" stroke="midnightblue" points="267.08,-261.91 260.83,-270.46 271.05,-267.67 267.08,-261.91"/>
</g>
<!-- Node3&#45;&gt;Node2 -->
<g id="edge3" class="edge">
<title>Node3&#45;&gt;Node2</title>
<path fill="none" stroke="#404040" d="M76.06,-189.55C85.44,-207.85 97.05,-226.18 111,-241 122.19,-252.88 136.42,-262.99 150.61,-271.24"/>
<polygon fill="none" stroke="#404040" points="150.89,-271.39 158.07,-270.78 161.4,-277.18 154.21,-277.79 150.89,-271.39"/>
<text text-anchor="middle" x="137" y="-233" font-family="Helvetica,sans-Serif" font-size="10.00"> +trap_flags</text>
</g>
<!-- Node4&#45;&gt;Node2 -->
<g id="edge5" class="edge">
<title>Node4&#45;&gt;Node2</title>
<path fill="none" stroke="#404040" d="M167.13,-211.51C170.01,-221.61 173.29,-231.59 177,-241 177.98,-243.48 179.06,-245.98 180.21,-248.48"/>
<polygon fill="none" stroke="#404040" points="180.27,-248.58 186.54,-252.14 185.67,-259.3 179.4,-255.74 180.27,-248.58"/>
<text text-anchor="middle" x="200.5" y="-233" font-family="Helvetica,sans-Serif" font-size="10.00"> +rcon_reg</text>
</g>
<!-- Node5&#45;&gt;Node2 -->
<g id="edge7" class="edge">
<title>Node5&#45;&gt;Node2</title>
<path fill="none" stroke="#404040" d="M260.28,-156.54C262.28,-182.34 261.86,-214.04 253,-241 252.16,-243.56 251.15,-246.1 250.02,-248.61"/>
<polygon fill="none" stroke="#404040" points="249.95,-248.73 250.66,-255.9 244.31,-259.32 243.6,-252.14 249.95,-248.73"/>
<text text-anchor="middle" x="274.5" y="-233" font-family="Helvetica,sans-Serif" font-size="10.00"> +inttreg</text>
</g>
<!-- Node6&#45;&gt;Node2 -->
<g id="edge9" class="edge">
<title>Node6&#45;&gt;Node2</title>
<path fill="none" stroke="#404040" d="M377.29,-151.3C375.86,-179.83 369.52,-216.09 349,-241 329.91,-264.18 299.83,-278.06 272.63,-286.3"/>
<polygon fill="none" stroke="#404040" points="272.34,-286.38 267.63,-291.84 260.78,-289.6 265.49,-284.14 272.34,-286.38"/>
<text text-anchor="middle" x="374.5" y="-233" font-family="Helvetica,sans-Serif" font-size="10.00"> +status</text>
</g>
</g>
</svg>
        <g id="navigator" transform="translate(0 0)" fill="#404254">
                <rect fill="#f2f5e9" fill-opacity="0.5" stroke="#606060" stroke-width=".5" x="0" y="0" width="60" height="60"/>
                <use id="zoomplus" xlink:href="#zoomPlus" x="17" y="9" onmousedown="handleZoom(evt,'in')"/>
                <use id="zoomminus" xlink:href="#zoomMin" x="42" y="9" onmousedown="handleZoom(evt,'out')"/>
                <use id="reset" xlink:href="#resetDef" x="30" y="36" onmousedown="handleReset()"/>
                <g id="arrowUp" xlink:href="#dirArrow" transform="translate(30 24)" onmousedown="handlePan(0,-1)">
                  <use xlink:href="#rim" fill="#404040">
                        <set attributeName="fill" to="#808080" begin="arrowUp.mouseover" end="arrowUp.mouseout"/>
                  </use>
                  <path fill="none" stroke="white" stroke-width="1.5" d="M0,-3.0v7 M-2.5,-0.5L0,-3.0L2.5,-0.5"/>
                </g>
                <g id="arrowRight" xlink:href="#dirArrow" transform="rotate(90) translate(36 -43)" onmousedown="handlePan(1,0)">
                  <use xlink:href="#rim" fill="#404040">
                        <set attributeName="fill" to="#808080" begin="arrowRight.mouseover" end="arrowRight.mouseout"/>
                  </use>
                  <path fill="none" stroke="white" stroke-width="1.5" d="M0,-3.0v7 M-2.5,-0.5L0,-3.0L2.5,-0.5"/>
                </g>
                <g id="arrowDown" xlink:href="#dirArrow" transform="rotate(180) translate(-30 -48)" onmousedown="handlePan(0,1)">
                  <use xlink:href="#rim" fill="#404040">
                        <set attributeName="fill" to="#808080" begin="arrowDown.mouseover" end="arrowDown.mouseout"/>
                  </use>
                  <path fill="none" stroke="white" stroke-width="1.5" d="M0,-3.0v7 M-2.5,-0.5L0,-3.0L2.5,-0.5"/>
                </g>
                <g id="arrowLeft" xlink:href="#dirArrow" transform="rotate(270) translate(-36 17)" onmousedown="handlePan(-1,0)">
                  <use xlink:href="#rim" fill="#404040">
                        <set attributeName="fill" to="#808080" begin="arrowLeft.mouseover" end="arrowLeft.mouseout"/>
                  </use>
                  <path fill="none" stroke="white" stroke-width="1.5" d="M0,-3.0v7 M-2.5,-0.5L0,-3.0L2.5,-0.5"/>
                </g>
        </g>
        <svg viewBox="0 0 15 15" width="100%" height="30px" preserveAspectRatio="xMaxYMin meet">
         <g id="arrow_out" transform="scale(0.3 0.3)">
          <a xlink:href="a01494_org.svg" target="_base">
           <rect id="button" ry="5" rx="5" y="6" x="6" height="38" width="38"
                fill="#f2f5e9" fill-opacity="0.5" stroke="#606060" stroke-width="1.0"/>
           <path id="arrow"
             d="M 11.500037,31.436501 C 11.940474,20.09759 22.043105,11.32322 32.158766,21.979434 L 37.068811,17.246167 C 37.068811,17.246167 37.088388,32 37.088388,32 L 22.160133,31.978069 C 22.160133,31.978069 26.997745,27.140456 26.997745,27.140456 C 18.528582,18.264221 13.291696,25.230495 11.500037,31.436501 z"
             style="fill:#404040;"/>
          </a>
         </g>
        </svg>
</svg>
