<?xml version="1.0" encoding="UTF-8" standalone="no"?>
<!DOCTYPE svg PUBLIC "-//W3C//DTD SVG 1.1//EN"
 "http://www.w3.org/Graphics/SVG/1.1/DTD/svg11.dtd">
<!-- Generated by graphviz version 2.44.1 (20200629.0846)
 -->
<!-- Title: FAULT_OBJECT_s Pages: 1 -->
<svg width="455pt" height="248pt"
 viewBox="0.00 0.00 455.00 248.00" xmlns="http://www.w3.org/2000/svg" xmlns:xlink="http://www.w3.org/1999/xlink">
<g id="graph0" class="graph" transform="scale(1 1) rotate(0) translate(4 244)">
<title>FAULT_OBJECT_s</title>
<polygon fill="white" stroke="transparent" points="-4,4 -4,-244 451,-244 451,4 -4,4"/>
<!-- Node1 -->
<g id="node1" class="node">
<title>Node1</title>
<g id="a_node1"><a xlink:title="This data structure is a collection of data structures for fault handling.">
<polygon fill="#bfbfbf" stroke="black" points="152.5,-182.5 152.5,-239.5 252.5,-239.5 252.5,-182.5 152.5,-182.5"/>
<text text-anchor="middle" x="202.5" y="-227.5" font-family="Helvetica,sans-Serif" font-size="10.00">FAULT_OBJECT_s</text>
<polyline fill="none" stroke="black" points="152.5,-220.5 252.5,-220.5 "/>
<text text-anchor="start" x="160.5" y="-208.5" font-family="Helvetica,sans-Serif" font-size="10.00">+ Counter</text>
<polyline fill="none" stroke="black" points="152.5,-201.5 252.5,-201.5 "/>
<text text-anchor="middle" x="202.5" y="-189.5" font-family="Helvetica,sans-Serif" font-size="10.00"> </text>
</a>
</g>
</g>
<!-- Node2 -->
<g id="node2" class="node">
<title>Node2</title>
<g id="a_node2"><a xlink:href="a01500.html" target="_top" xlink:title="This data structure defines the fault object status.">
<polygon fill="white" stroke="black" points="0,-0.5 0,-123.5 129,-123.5 129,-0.5 0,-0.5"/>
<text text-anchor="middle" x="64.5" y="-111.5" font-family="Helvetica,sans-Serif" font-size="10.00">FLT_OBJECT_STATUS_s</text>
<polyline fill="none" stroke="black" points="0,-104.5 129,-104.5 "/>
<text text-anchor="start" x="8" y="-92.5" font-family="Helvetica,sans-Serif" font-size="10.00">+ FaultStatus</text>
<text text-anchor="start" x="8" y="-81.5" font-family="Helvetica,sans-Serif" font-size="10.00">+ FaultActive</text>
<text text-anchor="start" x="8" y="-70.5" font-family="Helvetica,sans-Serif" font-size="10.00">+ unsigned</text>
<text text-anchor="start" x="8" y="-59.5" font-family="Helvetica,sans-Serif" font-size="10.00">+ CompareType</text>
<text text-anchor="start" x="8" y="-48.5" font-family="Helvetica,sans-Serif" font-size="10.00">+ Enabled</text>
<text text-anchor="start" x="8" y="-37.5" font-family="Helvetica,sans-Serif" font-size="10.00">+ value</text>
<text text-anchor="start" x="8" y="-26.5" font-family="Helvetica,sans-Serif" font-size="10.00">+ @220</text>
<polyline fill="none" stroke="black" points="0,-19.5 129,-19.5 "/>
<text text-anchor="middle" x="64.5" y="-7.5" font-family="Helvetica,sans-Serif" font-size="10.00"> </text>
</a>
</g>
</g>
<!-- Node1&#45;&gt;Node2 -->
<g id="edge2" class="edge">
<title>Node1&#45;&gt;Node2</title>
<path fill="none" stroke="midnightblue" d="M149.25,-176.12C144.41,-172.26 139.74,-168.19 135.5,-164 123.38,-152.02 111.95,-137.74 101.93,-123.74"/>
<polygon fill="none" stroke="midnightblue" points="147.43,-179.14 157.51,-182.42 151.68,-173.57 147.43,-179.14"/>
</g>
<!-- Node3 -->
<g id="node3" class="node">
<title>Node3</title>
<g id="a_node3"><a xlink:href="a01516.html" target="_top" xlink:title="This data structure defines the fault monitor event response object.">
<polygon fill="white" stroke="black" points="147,-22.5 147,-101.5 288,-101.5 288,-22.5 147,-22.5"/>
<text text-anchor="middle" x="217.5" y="-89.5" font-family="Helvetica,sans-Serif" font-size="10.00">FLT_EVENT_RESPONSE_s</text>
<polyline fill="none" stroke="black" points="147,-82.5 288,-82.5 "/>
<text text-anchor="start" x="155" y="-70.5" font-family="Helvetica,sans-Serif" font-size="10.00">+ compareThreshold</text>
<text text-anchor="start" x="155" y="-59.5" font-family="Helvetica,sans-Serif" font-size="10.00">+ eventThreshold</text>
<text text-anchor="start" x="155" y="-48.5" font-family="Helvetica,sans-Serif" font-size="10.00">+ ptrResponseFunction</text>
<polyline fill="none" stroke="black" points="147,-41.5 288,-41.5 "/>
<text text-anchor="middle" x="217.5" y="-29.5" font-family="Helvetica,sans-Serif" font-size="10.00"> </text>
</a>
</g>
</g>
<!-- Node1&#45;&gt;Node3 -->
<g id="edge4" class="edge">
<title>Node1&#45;&gt;Node3</title>
<path fill="none" stroke="midnightblue" d="M201.24,-172.48C201.25,-162.55 201.57,-151.86 202.5,-142 203.74,-128.8 206.13,-114.51 208.64,-101.77"/>
<polygon fill="none" stroke="midnightblue" points="197.74,-172.51 201.33,-182.48 204.74,-172.45 197.74,-172.51"/>
</g>
<!-- Node4 -->
<g id="node4" class="node">
<title>Node4</title>
<g id="a_node4"><a xlink:href="a01512.html" target="_top" xlink:title="This data structure defines the data object which will be monitored by the fault handler.">
<polygon fill="white" stroke="black" points="306,-28 306,-96 447,-96 447,-28 306,-28"/>
<text text-anchor="middle" x="376.5" y="-84" font-family="Helvetica,sans-Serif" font-size="10.00">FLT_COMPARE_OBJECT_s</text>
<polyline fill="none" stroke="black" points="306,-77 447,-77 "/>
<text text-anchor="start" x="314" y="-65" font-family="Helvetica,sans-Serif" font-size="10.00">+ ptrObject</text>
<text text-anchor="start" x="314" y="-54" font-family="Helvetica,sans-Serif" font-size="10.00">+ bitMask</text>
<polyline fill="none" stroke="black" points="306,-47 447,-47 "/>
<text text-anchor="middle" x="376.5" y="-35" font-family="Helvetica,sans-Serif" font-size="10.00"> </text>
</a>
</g>
</g>
<!-- Node1&#45;&gt;Node4 -->
<g id="edge6" class="edge">
<title>Node1&#45;&gt;Node4</title>
<path fill="none" stroke="midnightblue" d="M262.06,-189.89C277.18,-183.1 292.73,-174.52 305.5,-164 328.16,-145.33 346.91,-117.72 359.43,-96.08"/>
<polygon fill="none" stroke="midnightblue" points="260.55,-186.72 252.74,-193.88 263.31,-193.16 260.55,-186.72"/>
</g>
<!-- Node2&#45;&gt;Node1 -->
<g id="edge1" class="edge">
<title>Node2&#45;&gt;Node1</title>
<path fill="none" stroke="#404040" d="M120.78,-123.74C133.17,-137.04 146.25,-151.02 158.5,-164 161.39,-167.07 164.4,-170.24 167.43,-173.42"/>
<polygon fill="none" stroke="#404040" points="167.63,-173.64 174.67,-175.23 175.91,-182.33 168.88,-180.74 167.63,-173.64"/>
<text text-anchor="middle" x="177.5" y="-150.5" font-family="Helvetica,sans-Serif" font-size="10.00"> +Status</text>
</g>
<!-- Node3&#45;&gt;Node1 -->
<g id="edge3" class="edge">
<title>Node3&#45;&gt;Node1</title>
<path fill="none" stroke="#404040" d="M213.56,-101.62C211.41,-122.72 208.74,-148.82 206.57,-170.12"/>
<polygon fill="none" stroke="#404040" points="206.54,-170.41 209.91,-176.79 205.32,-182.35 201.95,-175.98 206.54,-170.41"/>
<text text-anchor="middle" x="255" y="-156" font-family="Helvetica,sans-Serif" font-size="10.00"> +RecoveryResponse</text>
<text text-anchor="middle" x="255" y="-145" font-family="Helvetica,sans-Serif" font-size="10.00">+TripResponse</text>
</g>
<!-- Node4&#45;&gt;Node1 -->
<g id="edge5" class="edge">
<title>Node4&#45;&gt;Node1</title>
<path fill="none" stroke="#404040" d="M374.14,-96.11C370.9,-118.04 363.28,-145.98 345.5,-164 324.2,-185.59 292.74,-197.06 264.75,-203.14"/>
<polygon fill="none" stroke="#404040" points="264.38,-203.21 259.25,-208.29 252.6,-205.51 257.72,-200.43 264.38,-203.21"/>
<text text-anchor="middle" x="400.5" y="-156" font-family="Helvetica,sans-Serif" font-size="10.00"> +ReferenceObject</text>
<text text-anchor="middle" x="400.5" y="-145" font-family="Helvetica,sans-Serif" font-size="10.00">+SourceObject</text>
</g>
</g>
</svg>
