<?xml version="1.0" encoding="UTF-8" standalone="no"?>
<!DOCTYPE svg PUBLIC "-//W3C//DTD SVG 1.1//EN"
 "http://www.w3.org/Graphics/SVG/1.1/DTD/svg11.dtd">
<!-- Generated by graphviz version 2.44.1 (20200629.0846)
 -->
<!-- Title: FLT_COMPARE_OBJECT_s Pages: 1 -->
<svg width="303pt" height="375pt"
 viewBox="0.00 0.00 302.50 375.00" xmlns="http://www.w3.org/2000/svg" xmlns:xlink="http://www.w3.org/1999/xlink">
<g id="graph0" class="graph" transform="scale(1 1) rotate(0) translate(4 371)">
<title>FLT_COMPARE_OBJECT_s</title>
<polygon fill="white" stroke="transparent" points="-4,4 -4,-371 298.5,-371 298.5,4 -4,4"/>
<!-- Node1 -->
<g id="node1" class="node">
<title>Node1</title>
<g id="a_node1"><a xlink:title="This data structure defines the data object which will be monitored by the fault handler.">
<polygon fill="#bfbfbf" stroke="black" points="80,-298.5 80,-366.5 221,-366.5 221,-298.5 80,-298.5"/>
<text text-anchor="middle" x="150.5" y="-354.5" font-family="Helvetica,sans-Serif" font-size="10.00">FLT_COMPARE_OBJECT_s</text>
<polyline fill="none" stroke="black" points="80,-347.5 221,-347.5 "/>
<text text-anchor="start" x="88" y="-335.5" font-family="Helvetica,sans-Serif" font-size="10.00">+ ptrObject</text>
<text text-anchor="start" x="88" y="-324.5" font-family="Helvetica,sans-Serif" font-size="10.00">+ bitMask</text>
<polyline fill="none" stroke="black" points="80,-317.5 221,-317.5 "/>
<text text-anchor="middle" x="150.5" y="-305.5" font-family="Helvetica,sans-Serif" font-size="10.00"> </text>
</a>
</g>
</g>
<!-- Node2 -->
<g id="node2" class="node">
<title>Node2</title>
<g id="a_node2"><a xlink:href="a01520.html" target="_top" xlink:title="This data structure is a collection of data structures for fault handling.">
<polygon fill="white" stroke="black" points="100.5,-182.5 100.5,-239.5 200.5,-239.5 200.5,-182.5 100.5,-182.5"/>
<text text-anchor="middle" x="150.5" y="-227.5" font-family="Helvetica,sans-Serif" font-size="10.00">FAULT_OBJECT_s</text>
<polyline fill="none" stroke="black" points="100.5,-220.5 200.5,-220.5 "/>
<text text-anchor="start" x="108.5" y="-208.5" font-family="Helvetica,sans-Serif" font-size="10.00">+ Counter</text>
<polyline fill="none" stroke="black" points="100.5,-201.5 200.5,-201.5 "/>
<text text-anchor="middle" x="150.5" y="-189.5" font-family="Helvetica,sans-Serif" font-size="10.00"> </text>
</a>
</g>
</g>
<!-- Node1&#45;&gt;Node2 -->
<g id="edge6" class="edge">
<title>Node1&#45;&gt;Node2</title>
<path fill="none" stroke="#404040" d="M110.66,-298.25C106.13,-292.65 102.18,-286.52 99.5,-280 95.78,-270.96 95.53,-266.93 99.5,-258 100.86,-254.94 102.54,-252 104.44,-249.18"/>
<polygon fill="none" stroke="#404040" points="104.66,-248.91 105.32,-241.73 112.2,-239.58 111.54,-246.76 104.66,-248.91"/>
<text text-anchor="middle" x="140.5" y="-272" font-family="Helvetica,sans-Serif" font-size="10.00"> +ReferenceObject</text>
<text text-anchor="middle" x="140.5" y="-261" font-family="Helvetica,sans-Serif" font-size="10.00">+SourceObject</text>
</g>
<!-- Node2&#45;&gt;Node1 -->
<g id="edge1" class="edge">
<title>Node2&#45;&gt;Node1</title>
<path fill="none" stroke="midnightblue" d="M181.2,-248.2C182.9,-251.38 184.38,-254.67 185.5,-258 188.62,-267.27 188.38,-270.65 185.5,-280 183.56,-286.3 180.56,-292.53 177.11,-298.35"/>
<polygon fill="none" stroke="midnightblue" points="184.09,-246.22 175.88,-239.53 178.12,-249.88 184.09,-246.22"/>
</g>
<!-- Node3 -->
<g id="node3" class="node">
<title>Node3</title>
<g id="a_node3"><a xlink:href="a01500.html" target="_top" xlink:title="This data structure defines the fault object status.">
<polygon fill="white" stroke="black" points="0,-0.5 0,-123.5 129,-123.5 129,-0.5 0,-0.5"/>
<text text-anchor="middle" x="64.5" y="-111.5" font-family="Helvetica,sans-Serif" font-size="10.00">FLT_OBJECT_STATUS_s</text>
<polyline fill="none" stroke="black" points="0,-104.5 129,-104.5 "/>
<text text-anchor="start" x="8" y="-92.5" font-family="Helvetica,sans-Serif" font-size="10.00">+ FaultStatus</text>
<text text-anchor="start" x="8" y="-81.5" font-family="Helvetica,sans-Serif" font-size="10.00">+ FaultActive</text>
<text text-anchor="start" x="8" y="-70.5" font-family="Helvetica,sans-Serif" font-size="10.00">+ unsigned</text>
<text text-anchor="start" x="8" y="-59.5" font-family="Helvetica,sans-Serif" font-size="10.00">+ CompareType</text>
<text text-anchor="start" x="8" y="-48.5" font-family="Helvetica,sans-Serif" font-size="10.00">+ Enabled</text>
<text text-anchor="start" x="8" y="-37.5" font-family="Helvetica,sans-Serif" font-size="10.00">+ value</text>
<text text-anchor="start" x="8" y="-26.5" font-family="Helvetica,sans-Serif" font-size="10.00">+ @220</text>
<polyline fill="none" stroke="black" points="0,-19.5 129,-19.5 "/>
<text text-anchor="middle" x="64.5" y="-7.5" font-family="Helvetica,sans-Serif" font-size="10.00"> </text>
</a>
</g>
</g>
<!-- Node2&#45;&gt;Node3 -->
<g id="edge3" class="edge">
<title>Node2&#45;&gt;Node3</title>
<path fill="none" stroke="midnightblue" d="M117.02,-174.53C114.34,-171.08 111.79,-167.54 109.5,-164 101.43,-151.5 94.12,-137.32 87.85,-123.61"/>
<polygon fill="none" stroke="midnightblue" points="114.42,-176.87 123.46,-182.4 119.83,-172.44 114.42,-176.87"/>
</g>
<!-- Node4 -->
<g id="node4" class="node">
<title>Node4</title>
<g id="a_node4"><a xlink:href="a01516.html" target="_top" xlink:title="This data structure defines the fault monitor event response object.">
<polygon fill="white" stroke="black" points="147,-22.5 147,-101.5 288,-101.5 288,-22.5 147,-22.5"/>
<text text-anchor="middle" x="217.5" y="-89.5" font-family="Helvetica,sans-Serif" font-size="10.00">FLT_EVENT_RESPONSE_s</text>
<polyline fill="none" stroke="black" points="147,-82.5 288,-82.5 "/>
<text text-anchor="start" x="155" y="-70.5" font-family="Helvetica,sans-Serif" font-size="10.00">+ compareThreshold</text>
<text text-anchor="start" x="155" y="-59.5" font-family="Helvetica,sans-Serif" font-size="10.00">+ eventThreshold</text>
<text text-anchor="start" x="155" y="-48.5" font-family="Helvetica,sans-Serif" font-size="10.00">+ ptrResponseFunction</text>
<polyline fill="none" stroke="black" points="147,-41.5 288,-41.5 "/>
<text text-anchor="middle" x="217.5" y="-29.5" font-family="Helvetica,sans-Serif" font-size="10.00"> </text>
</a>
</g>
</g>
<!-- Node2&#45;&gt;Node4 -->
<g id="edge5" class="edge">
<title>Node2&#45;&gt;Node4</title>
<path fill="none" stroke="midnightblue" d="M167.32,-173.09C177.26,-151.28 189.83,-123.71 199.9,-101.62"/>
<polygon fill="none" stroke="midnightblue" points="164.06,-171.8 163.1,-182.35 170.43,-174.7 164.06,-171.8"/>
</g>
<!-- Node3&#45;&gt;Node2 -->
<g id="edge2" class="edge">
<title>Node3&#45;&gt;Node2</title>
<path fill="none" stroke="#404040" d="M100.02,-123.72C109.52,-139.95 119.51,-157.03 128.08,-171.68"/>
<polygon fill="none" stroke="#404040" points="128.26,-171.99 134.75,-175.15 134.32,-182.35 127.84,-179.19 128.26,-171.99"/>
<text text-anchor="middle" x="142.5" y="-150.5" font-family="Helvetica,sans-Serif" font-size="10.00"> +Status</text>
</g>
<!-- Node4&#45;&gt;Node2 -->
<g id="edge4" class="edge">
<title>Node4&#45;&gt;Node2</title>
<path fill="none" stroke="#404040" d="M212.58,-101.56C208.96,-121.11 202.81,-144.73 192.5,-164 190.95,-166.89 189.18,-169.75 187.26,-172.53"/>
<polygon fill="none" stroke="#404040" points="187.1,-172.74 186.61,-179.93 179.79,-182.25 180.27,-175.05 187.1,-172.74"/>
<text text-anchor="middle" x="248" y="-156" font-family="Helvetica,sans-Serif" font-size="10.00"> +RecoveryResponse</text>
<text text-anchor="middle" x="248" y="-145" font-family="Helvetica,sans-Serif" font-size="10.00">+TripResponse</text>
</g>
</g>
</svg>
