<?xml version="1.0" encoding="UTF-8" standalone="no"?>
<!DOCTYPE svg PUBLIC "-//W3C//DTD SVG 1.1//EN"
 "http://www.w3.org/Graphics/SVG/1.1/DTD/svg11.dtd">
<!-- Generated by graphviz version 2.44.1 (20200629.0846)
 -->
<!-- Title: BUCK_CONVERTER_s Pages: 1 -->
<!--zoomable 744 -->
<svg id="main" version="1.1" xmlns="http://www.w3.org/2000/svg" xmlns:xlink="http://www.w3.org/1999/xlink" xml:space="preserve" onload="init(evt)">
<style type="text/css"><![CDATA[
.edge:hover path { stroke: red; }
.edge:hover polygon { stroke: red; fill: red; }
]]></style>
<script type="text/javascript"><![CDATA[
var edges = document.getElementsByTagName('g');
if (edges && edges.length) {
  for (var i=0;i<edges.length;i++) {
    if (edges[i].id.substr(0,4)=='edge') {
      edges[i].setAttribute('class','edge');
    }
  }
}
]]></script>
        <defs>
                <circle id="rim" cx="0" cy="0" r="7"/>
                <circle id="rim2" cx="0" cy="0" r="3.5"/>
                <g id="zoomPlus">
                        <use xlink:href="#rim" fill="#404040">
                                <set attributeName="fill" to="#808080" begin="zoomplus.mouseover" end="zoomplus.mouseout"/>
                        </use>
                        <path d="M-4,0h8M0,-4v8" fill="none" stroke="white" stroke-width="1.5" pointer-events="none"/>
                </g>
                <g id="zoomMin">
                        <use xlink:href="#rim" fill="#404040">
                                <set attributeName="fill" to="#808080" begin="zoomminus.mouseover" end="zoomminus.mouseout"/>
                        </use>
                        <path d="M-4,0h8" fill="none" stroke="white" stroke-width="1.5" pointer-events="none"/>
                </g>
                <g id="dirArrow">
                        <path fill="none" stroke="white" stroke-width="1.5" d="M0,-3.0v7 M-2.5,-0.5L0,-3.0L2.5,-0.5"/>
                </g>
               <g id="resetDef">
                       <use xlink:href="#rim2" fill="#404040">
                               <set attributeName="fill" to="#808080" begin="reset.mouseover" end="reset.mouseout"/>
                       </use>
               </g>
        </defs>

<script type="text/javascript">
var viewWidth = 1534;
var viewHeight = 744;
var sectionId = 'dynsection-0';
</script>
<script xlink:href="svgpan.js"/>
<svg id="graph" class="graph">
<g id="viewport">
<title>BUCK_CONVERTER_s</title>
<polygon fill="white" stroke="transparent" points="-4,4 -4,-740 1530,-740 1530,4 -4,4"/>
<!-- Node1 -->
<g id="node1" class="node">
<title>Node1</title>
<g id="a_node1"><a xlink:title="BUCK control &amp; monitoring data structure.">
<polygon fill="#bfbfbf" stroke="black" points="749.5,-579.5 749.5,-735.5 868.5,-735.5 868.5,-579.5 749.5,-579.5"/>
<text text-anchor="middle" x="809" y="-723.5" font-family="Helvetica,sans-Serif" font-size="10.00">BUCK_CONVERTER_s</text>
<polyline fill="none" stroke="black" points="749.5,-716.5 868.5,-716.5 "/>
<text text-anchor="start" x="757.5" y="-704.5" font-family="Helvetica,sans-Serif" font-size="10.00">+ status</text>
<text text-anchor="start" x="757.5" y="-693.5" font-family="Helvetica,sans-Serif" font-size="10.00">+ state_id</text>
<text text-anchor="start" x="757.5" y="-682.5" font-family="Helvetica,sans-Serif" font-size="10.00">+ startup</text>
<text text-anchor="start" x="757.5" y="-671.5" font-family="Helvetica,sans-Serif" font-size="10.00">+ set_values</text>
<text text-anchor="start" x="757.5" y="-660.5" font-family="Helvetica,sans-Serif" font-size="10.00">+ data</text>
<text text-anchor="start" x="757.5" y="-649.5" font-family="Helvetica,sans-Serif" font-size="10.00">+ feedback</text>
<text text-anchor="start" x="757.5" y="-638.5" font-family="Helvetica,sans-Serif" font-size="10.00">+ sw_node</text>
<text text-anchor="start" x="757.5" y="-627.5" font-family="Helvetica,sans-Serif" font-size="10.00">+ gpio</text>
<text text-anchor="start" x="757.5" y="-616.5" font-family="Helvetica,sans-Serif" font-size="10.00">+ v_loop</text>
<text text-anchor="start" x="757.5" y="-605.5" font-family="Helvetica,sans-Serif" font-size="10.00">+ i_loop</text>
<polyline fill="none" stroke="black" points="749.5,-598.5 868.5,-598.5 "/>
<text text-anchor="middle" x="809" y="-586.5" font-family="Helvetica,sans-Serif" font-size="10.00"> </text>
</a>
</g>
</g>
<!-- Node2 -->
<g id="node2" class="node">
<title>Node2</title>
<g id="a_node2"><a xlink:href="a01628.html" target="_top" xlink:title="Publicly accessible data buffer of most recent runtime data values.">
<polygon fill="white" stroke="black" points="0,-370 0,-504 150,-504 150,-370 0,-370"/>
<text text-anchor="middle" x="75" y="-492" font-family="Helvetica,sans-Serif" font-size="10.00">BUCK_CONVERTER_DATA_s</text>
<polyline fill="none" stroke="black" points="0,-485 150,-485 "/>
<text text-anchor="start" x="8" y="-473" font-family="Helvetica,sans-Serif" font-size="10.00">+ i_sns</text>
<text text-anchor="start" x="8" y="-462" font-family="Helvetica,sans-Serif" font-size="10.00">+ i_out</text>
<text text-anchor="start" x="8" y="-451" font-family="Helvetica,sans-Serif" font-size="10.00">+ v_in</text>
<text text-anchor="start" x="8" y="-440" font-family="Helvetica,sans-Serif" font-size="10.00">+ v_out</text>
<text text-anchor="start" x="8" y="-429" font-family="Helvetica,sans-Serif" font-size="10.00">+ temp</text>
<text text-anchor="start" x="8" y="-418" font-family="Helvetica,sans-Serif" font-size="10.00">+ control_input</text>
<text text-anchor="start" x="8" y="-407" font-family="Helvetica,sans-Serif" font-size="10.00">+ control_error</text>
<text text-anchor="start" x="8" y="-396" font-family="Helvetica,sans-Serif" font-size="10.00">+ control_output</text>
<polyline fill="none" stroke="black" points="0,-389 150,-389 "/>
<text text-anchor="middle" x="75" y="-377" font-family="Helvetica,sans-Serif" font-size="10.00"> </text>
</a>
</g>
</g>
<!-- Node1&#45;&gt;Node2 -->
<g id="edge1" class="edge">
<title>Node1&#45;&gt;Node2</title>
<path fill="none" stroke="midnightblue" d="M739.05,-650.56C592.05,-637.07 256.59,-600.77 159,-543 142.53,-533.25 127.99,-518.97 115.84,-504.07"/>
<polygon fill="none" stroke="midnightblue" points="739.02,-654.07 749.3,-651.49 739.66,-647.1 739.02,-654.07"/>
</g>
<!-- Node3 -->
<g id="node3" class="node">
<title>Node3</title>
<g id="a_node3"><a xlink:href="a01632.html" target="_top" xlink:title="Generic power controller control settings.">
<polygon fill="white" stroke="black" points="168,-392 168,-482 340,-482 340,-392 168,-392"/>
<text text-anchor="middle" x="254" y="-470" font-family="Helvetica,sans-Serif" font-size="10.00">BUCK_CONVERTER_SETTINGS_s</text>
<polyline fill="none" stroke="black" points="168,-463 340,-463 "/>
<text text-anchor="start" x="176" y="-451" font-family="Helvetica,sans-Serif" font-size="10.00">+ control_mode</text>
<text text-anchor="start" x="176" y="-440" font-family="Helvetica,sans-Serif" font-size="10.00">+ no_of_phases</text>
<text text-anchor="start" x="176" y="-429" font-family="Helvetica,sans-Serif" font-size="10.00">+ v_ref</text>
<text text-anchor="start" x="176" y="-418" font-family="Helvetica,sans-Serif" font-size="10.00">+ i_ref</text>
<polyline fill="none" stroke="black" points="168,-411 340,-411 "/>
<text text-anchor="middle" x="254" y="-399" font-family="Helvetica,sans-Serif" font-size="10.00"> </text>
</a>
</g>
</g>
<!-- Node1&#45;&gt;Node3 -->
<g id="edge2" class="edge">
<title>Node1&#45;&gt;Node3</title>
<path fill="none" stroke="midnightblue" d="M739.24,-651.98C644.72,-643.16 473.5,-617.4 349,-543 323.47,-527.74 300.85,-503.45 284.09,-482.07"/>
<polygon fill="none" stroke="midnightblue" points="738.99,-655.47 749.26,-652.88 739.62,-648.5 738.99,-655.47"/>
</g>
<!-- Node4 -->
<g id="node4" class="node">
<title>Node4</title>
<g id="a_node4"><a xlink:href="a01624.html" target="_top" xlink:title="Power Converter Startup Timing Settings.">
<polygon fill="white" stroke="black" points="358.5,-392 358.5,-482 527.5,-482 527.5,-392 358.5,-392"/>
<text text-anchor="middle" x="443" y="-470" font-family="Helvetica,sans-Serif" font-size="10.00">BUCK_CONVERTER_STARTUP_s</text>
<polyline fill="none" stroke="black" points="358.5,-463 527.5,-463 "/>
<text text-anchor="start" x="366.5" y="-451" font-family="Helvetica,sans-Serif" font-size="10.00">+ power_on_delay</text>
<text text-anchor="start" x="366.5" y="-440" font-family="Helvetica,sans-Serif" font-size="10.00">+ power_good_delay</text>
<text text-anchor="start" x="366.5" y="-429" font-family="Helvetica,sans-Serif" font-size="10.00">+ i_ramp</text>
<text text-anchor="start" x="366.5" y="-418" font-family="Helvetica,sans-Serif" font-size="10.00">+ v_ramp</text>
<polyline fill="none" stroke="black" points="358.5,-411 527.5,-411 "/>
<text text-anchor="middle" x="443" y="-399" font-family="Helvetica,sans-Serif" font-size="10.00"> </text>
</a>
</g>
</g>
<!-- Node1&#45;&gt;Node4 -->
<g id="edge3" class="edge">
<title>Node1&#45;&gt;Node4</title>
<path fill="none" stroke="midnightblue" d="M739.7,-637.05C682,-618.72 599.49,-587.42 537,-543 513.47,-526.27 491.66,-502.66 474.98,-482.06"/>
<polygon fill="none" stroke="midnightblue" points="738.87,-640.45 749.45,-640.1 740.95,-633.77 738.87,-640.45"/>
</g>
<!-- Node6 -->
<g id="node6" class="node">
<title>Node6</title>
<g id="a_node6"><a xlink:href="a01596.html" target="_top" xlink:title="Generic power controller status word.">
<polygon fill="white" stroke="black" points="546,-331.5 546,-542.5 708,-542.5 708,-331.5 546,-331.5"/>
<text text-anchor="middle" x="627" y="-530.5" font-family="Helvetica,sans-Serif" font-size="10.00">BUCK_CONVERTER_STATUS_s</text>
<polyline fill="none" stroke="black" points="546,-523.5 708,-523.5 "/>
<text text-anchor="start" x="554" y="-511.5" font-family="Helvetica,sans-Serif" font-size="10.00">+ ready</text>
<text text-anchor="start" x="554" y="-500.5" font-family="Helvetica,sans-Serif" font-size="10.00">+ adc_active</text>
<text text-anchor="start" x="554" y="-489.5" font-family="Helvetica,sans-Serif" font-size="10.00">+ pwm_active</text>
<text text-anchor="start" x="554" y="-478.5" font-family="Helvetica,sans-Serif" font-size="10.00">+ unsigned</text>
<text text-anchor="start" x="554" y="-467.5" font-family="Helvetica,sans-Serif" font-size="10.00">+ cs_calib_complete</text>
<text text-anchor="start" x="554" y="-456.5" font-family="Helvetica,sans-Serif" font-size="10.00">+ fault_active</text>
<text text-anchor="start" x="554" y="-445.5" font-family="Helvetica,sans-Serif" font-size="10.00">+ suspend</text>
<text text-anchor="start" x="554" y="-434.5" font-family="Helvetica,sans-Serif" font-size="10.00">+ busy</text>
<text text-anchor="start" x="554" y="-423.5" font-family="Helvetica,sans-Serif" font-size="10.00">+ cs_calib_enable</text>
<text text-anchor="start" x="554" y="-412.5" font-family="Helvetica,sans-Serif" font-size="10.00">+ async_mode</text>
<text text-anchor="start" x="554" y="-401.5" font-family="Helvetica,sans-Serif" font-size="10.00">+ GO</text>
<text text-anchor="start" x="554" y="-390.5" font-family="Helvetica,sans-Serif" font-size="10.00">+ autorun</text>
<text text-anchor="start" x="554" y="-379.5" font-family="Helvetica,sans-Serif" font-size="10.00">+ enabled</text>
<text text-anchor="start" x="554" y="-368.5" font-family="Helvetica,sans-Serif" font-size="10.00">+ value</text>
<text text-anchor="start" x="554" y="-357.5" font-family="Helvetica,sans-Serif" font-size="10.00">+ @232</text>
<polyline fill="none" stroke="black" points="546,-350.5 708,-350.5 "/>
<text text-anchor="middle" x="627" y="-338.5" font-family="Helvetica,sans-Serif" font-size="10.00"> </text>
</a>
</g>
</g>
<!-- Node1&#45;&gt;Node6 -->
<g id="edge5" class="edge">
<title>Node1&#45;&gt;Node6</title>
<path fill="none" stroke="midnightblue" d="M742.85,-577.09C731.6,-563.58 719.8,-549.41 708.22,-535.5"/>
<polygon fill="none" stroke="midnightblue" points="740.32,-579.51 749.41,-584.95 745.7,-575.03 740.32,-579.51"/>
</g>
<!-- Node7 -->
<g id="node7" class="node">
<title>Node7</title>
<g id="a_node7"><a xlink:href="a01652.html" target="_top" xlink:title="Buck converter feedback declarations.">
<polygon fill="white" stroke="black" points="726.5,-392 726.5,-482 891.5,-482 891.5,-392 726.5,-392"/>
<text text-anchor="middle" x="809" y="-470" font-family="Helvetica,sans-Serif" font-size="10.00">BUCK_FEEDBACK_SETTINGS_s</text>
<polyline fill="none" stroke="black" points="726.5,-463 891.5,-463 "/>
<text text-anchor="start" x="734.5" y="-451" font-family="Helvetica,sans-Serif" font-size="10.00">+ ad_vin</text>
<text text-anchor="start" x="734.5" y="-440" font-family="Helvetica,sans-Serif" font-size="10.00">+ ad_vout</text>
<text text-anchor="start" x="734.5" y="-429" font-family="Helvetica,sans-Serif" font-size="10.00">+ ad_isns</text>
<text text-anchor="start" x="734.5" y="-418" font-family="Helvetica,sans-Serif" font-size="10.00">+ ad_temp</text>
<polyline fill="none" stroke="black" points="726.5,-411 891.5,-411 "/>
<text text-anchor="middle" x="809" y="-399" font-family="Helvetica,sans-Serif" font-size="10.00"> </text>
</a>
</g>
</g>
<!-- Node1&#45;&gt;Node7 -->
<g id="edge6" class="edge">
<title>Node1&#45;&gt;Node7</title>
<path fill="none" stroke="midnightblue" d="M809,-569.43C809,-539.53 809,-507.32 809,-482.27"/>
<polygon fill="none" stroke="midnightblue" points="805.5,-569.47 809,-579.47 812.5,-569.47 805.5,-569.47"/>
</g>
<!-- Node10 -->
<g id="node10" class="node">
<title>Node10</title>
<g id="a_node10"><a xlink:href="a01660.html" target="_top" xlink:title="GPIO instance of the converter control GPIO.">
<polygon fill="white" stroke="black" points="910,-403 910,-471 1046,-471 1046,-403 910,-403"/>
<text text-anchor="middle" x="978" y="-459" font-family="Helvetica,sans-Serif" font-size="10.00">BUCK_GPIO_SETTINGS_s</text>
<polyline fill="none" stroke="black" points="910,-452 1046,-452 "/>
<text text-anchor="start" x="918" y="-440" font-family="Helvetica,sans-Serif" font-size="10.00">+ EnableInput</text>
<text text-anchor="start" x="918" y="-429" font-family="Helvetica,sans-Serif" font-size="10.00">+ PowerGood</text>
<polyline fill="none" stroke="black" points="910,-422 1046,-422 "/>
<text text-anchor="middle" x="978" y="-410" font-family="Helvetica,sans-Serif" font-size="10.00"> </text>
</a>
</g>
</g>
<!-- Node1&#45;&gt;Node10 -->
<g id="edge9" class="edge">
<title>Node1&#45;&gt;Node10</title>
<path fill="none" stroke="midnightblue" d="M875.06,-575.98C883.87,-564.96 892.71,-553.75 901,-543 919.22,-519.37 939.13,-492.19 954.13,-471.41"/>
<polygon fill="none" stroke="midnightblue" points="872.19,-573.96 868.67,-583.95 877.65,-578.34 872.19,-573.96"/>
</g>
<!-- Node12 -->
<g id="node12" class="node">
<title>Node12</title>
<g id="a_node12"><a xlink:href="a01636.html" target="_top" xlink:title="User defined settings for control loops;.">
<polygon fill="white" stroke="black" points="1064.5,-359 1064.5,-515 1203.5,-515 1203.5,-359 1064.5,-359"/>
<text text-anchor="middle" x="1134" y="-503" font-family="Helvetica,sans-Serif" font-size="10.00">BUCK_LOOP_SETTINGS_s</text>
<polyline fill="none" stroke="black" points="1064.5,-496 1203.5,-496 "/>
<text text-anchor="start" x="1072.5" y="-484" font-family="Helvetica,sans-Serif" font-size="10.00">+ reference</text>
<text text-anchor="start" x="1072.5" y="-473" font-family="Helvetica,sans-Serif" font-size="10.00">+ feedback_offset</text>
<text text-anchor="start" x="1072.5" y="-462" font-family="Helvetica,sans-Serif" font-size="10.00">+ trigger_offset</text>
<text text-anchor="start" x="1072.5" y="-451" font-family="Helvetica,sans-Serif" font-size="10.00">+ minimum</text>
<text text-anchor="start" x="1072.5" y="-440" font-family="Helvetica,sans-Serif" font-size="10.00">+ maximum</text>
<text text-anchor="start" x="1072.5" y="-429" font-family="Helvetica,sans-Serif" font-size="10.00">+ controller</text>
<text text-anchor="start" x="1072.5" y="-418" font-family="Helvetica,sans-Serif" font-size="10.00">+ ctrl_Initialize</text>
<text text-anchor="start" x="1072.5" y="-407" font-family="Helvetica,sans-Serif" font-size="10.00">+ ctrl_Reset</text>
<text text-anchor="start" x="1072.5" y="-396" font-family="Helvetica,sans-Serif" font-size="10.00">+ ctrl_Update</text>
<text text-anchor="start" x="1072.5" y="-385" font-family="Helvetica,sans-Serif" font-size="10.00">+ ctrl_Precharge</text>
<polyline fill="none" stroke="black" points="1064.5,-378 1203.5,-378 "/>
<text text-anchor="middle" x="1134" y="-366" font-family="Helvetica,sans-Serif" font-size="10.00"> </text>
</a>
</g>
</g>
<!-- Node1&#45;&gt;Node12 -->
<g id="edge11" class="edge">
<title>Node1&#45;&gt;Node12</title>
<path fill="none" stroke="midnightblue" d="M878.24,-634.96C930.54,-616.35 1002.11,-585.69 1055,-543 1065.03,-534.91 1074.48,-525.27 1083.12,-515.17"/>
<polygon fill="none" stroke="midnightblue" points="876.99,-631.69 868.71,-638.29 879.3,-638.29 876.99,-631.69"/>
</g>
<!-- Node13 -->
<g id="node13" class="node">
<title>Node13</title>
<g id="a_node13"><a xlink:href="a01608.html" target="_top" xlink:title="data structure for the buck statement ID for sub&#45;operating and operating states">
<polygon fill="white" stroke="black" points="1222,-392 1222,-482 1326,-482 1326,-392 1222,-392"/>
<text text-anchor="middle" x="1274" y="-470" font-family="Helvetica,sans-Serif" font-size="10.00">BUCK_STATE_ID_s</text>
<polyline fill="none" stroke="black" points="1222,-463 1326,-463 "/>
<text text-anchor="start" x="1230" y="-451" font-family="Helvetica,sans-Serif" font-size="10.00">+ opstate_id</text>
<text text-anchor="start" x="1230" y="-440" font-family="Helvetica,sans-Serif" font-size="10.00">+ substate_id</text>
<text text-anchor="start" x="1230" y="-429" font-family="Helvetica,sans-Serif" font-size="10.00">+ bits</text>
<text text-anchor="start" x="1230" y="-418" font-family="Helvetica,sans-Serif" font-size="10.00">+ value</text>
<polyline fill="none" stroke="black" points="1222,-411 1326,-411 "/>
<text text-anchor="middle" x="1274" y="-399" font-family="Helvetica,sans-Serif" font-size="10.00"> </text>
</a>
</g>
</g>
<!-- Node1&#45;&gt;Node13 -->
<g id="edge12" class="edge">
<title>Node1&#45;&gt;Node13</title>
<path fill="none" stroke="midnightblue" d="M878.68,-652.67C965.31,-644.66 1113.84,-619.83 1213,-543 1233.08,-527.44 1247.77,-503.27 1257.7,-482.03"/>
<polygon fill="none" stroke="midnightblue" points="878.34,-649.19 868.68,-653.55 878.95,-656.16 878.34,-649.19"/>
</g>
<!-- Node14 -->
<g id="node14" class="node">
<title>Node14</title>
<g id="a_node14"><a xlink:href="a01640.html" target="_top" xlink:title="Switching signal timing settings.">
<polygon fill="white" stroke="black" points="1344,-353.5 1344,-520.5 1526,-520.5 1526,-353.5 1344,-353.5"/>
<text text-anchor="middle" x="1435" y="-508.5" font-family="Helvetica,sans-Serif" font-size="10.00">BUCK_SWITCH_NODE_SETTINGS_s</text>
<polyline fill="none" stroke="black" points="1344,-501.5 1526,-501.5 "/>
<text text-anchor="start" x="1352" y="-489.5" font-family="Helvetica,sans-Serif" font-size="10.00">+ pwm_instance</text>
<text text-anchor="start" x="1352" y="-478.5" font-family="Helvetica,sans-Serif" font-size="10.00">+ gpio_instance</text>
<text text-anchor="start" x="1352" y="-467.5" font-family="Helvetica,sans-Serif" font-size="10.00">+ gpio_high</text>
<text text-anchor="start" x="1352" y="-456.5" font-family="Helvetica,sans-Serif" font-size="10.00">+ gpio_low</text>
<text text-anchor="start" x="1352" y="-445.5" font-family="Helvetica,sans-Serif" font-size="10.00">+ swap_outputs</text>
<text text-anchor="start" x="1352" y="-434.5" font-family="Helvetica,sans-Serif" font-size="10.00">+ master_period_enable</text>
<text text-anchor="start" x="1352" y="-423.5" font-family="Helvetica,sans-Serif" font-size="10.00">+ high_resolution_enable</text>
<text text-anchor="start" x="1352" y="-412.5" font-family="Helvetica,sans-Serif" font-size="10.00">+ sync_drive</text>
<text text-anchor="start" x="1352" y="-401.5" font-family="Helvetica,sans-Serif" font-size="10.00">+ period</text>
<text text-anchor="start" x="1352" y="-390.5" font-family="Helvetica,sans-Serif" font-size="10.00">+ phase</text>
<text text-anchor="start" x="1352" y="-379.5" font-family="Helvetica,sans-Serif" font-size="10.00">and 8 more...</text>
<polyline fill="none" stroke="black" points="1344,-372.5 1526,-372.5 "/>
<text text-anchor="middle" x="1435" y="-360.5" font-family="Helvetica,sans-Serif" font-size="10.00"> </text>
</a>
</g>
</g>
<!-- Node1&#45;&gt;Node14 -->
<g id="edge13" class="edge">
<title>Node1&#45;&gt;Node14</title>
<path fill="none" stroke="midnightblue" d="M878.79,-654.35C984.08,-648.38 1186.95,-626.04 1335,-543 1345.98,-536.84 1356.48,-529.09 1366.28,-520.59"/>
<polygon fill="none" stroke="midnightblue" points="878.4,-650.87 868.6,-654.9 878.78,-657.86 878.4,-650.87"/>
</g>
<!-- Node5 -->
<g id="node5" class="node">
<title>Node5</title>
<g id="a_node5"><a xlink:href="a01620.html" target="_top" xlink:title="Generic power controller startup period settings.">
<polygon fill="white" stroke="black" points="375.5,-155 375.5,-256 510.5,-256 510.5,-155 375.5,-155"/>
<text text-anchor="start" x="383.5" y="-244" font-family="Helvetica,sans-Serif" font-size="10.00">BUCK_STARTUP_PERIOD</text>
<text text-anchor="middle" x="443" y="-233" font-family="Helvetica,sans-Serif" font-size="10.00">_HANDLER_s</text>
<polyline fill="none" stroke="black" points="375.5,-226 510.5,-226 "/>
<text text-anchor="start" x="383.5" y="-214" font-family="Helvetica,sans-Serif" font-size="10.00">+ counter</text>
<text text-anchor="start" x="383.5" y="-203" font-family="Helvetica,sans-Serif" font-size="10.00">+ period</text>
<text text-anchor="start" x="383.5" y="-192" font-family="Helvetica,sans-Serif" font-size="10.00">+ reference</text>
<text text-anchor="start" x="383.5" y="-181" font-family="Helvetica,sans-Serif" font-size="10.00">+ ref_inc_step</text>
<polyline fill="none" stroke="black" points="375.5,-174 510.5,-174 "/>
<text text-anchor="middle" x="443" y="-162" font-family="Helvetica,sans-Serif" font-size="10.00"> </text>
</a>
</g>
</g>
<!-- Node4&#45;&gt;Node5 -->
<g id="edge4" class="edge">
<title>Node4&#45;&gt;Node5</title>
<path fill="none" stroke="midnightblue" d="M443,-381.37C443,-343.36 443,-293.08 443,-256.19"/>
<polygon fill="none" stroke="midnightblue" points="439.5,-381.75 443,-391.75 446.5,-381.75 439.5,-381.75"/>
</g>
<!-- Node8 -->
<g id="node8" class="node">
<title>Node8</title>
<g id="a_node8"><a xlink:href="a01648.html" target="_top" xlink:title="ADC input channel configuration.">
<polygon fill="white" stroke="black" points="726.5,-116.5 726.5,-294.5 891.5,-294.5 891.5,-116.5 726.5,-116.5"/>
<text text-anchor="middle" x="809" y="-282.5" font-family="Helvetica,sans-Serif" font-size="10.00">BUCK_ADC_INPUT_SETTINGS_s</text>
<polyline fill="none" stroke="black" points="726.5,-275.5 891.5,-275.5 "/>
<text text-anchor="start" x="734.5" y="-263.5" font-family="Helvetica,sans-Serif" font-size="10.00">+ enabled</text>
<text text-anchor="start" x="734.5" y="-252.5" font-family="Helvetica,sans-Serif" font-size="10.00">+ adc_buffer</text>
<text text-anchor="start" x="734.5" y="-241.5" font-family="Helvetica,sans-Serif" font-size="10.00">+ gpio_instance</text>
<text text-anchor="start" x="734.5" y="-230.5" font-family="Helvetica,sans-Serif" font-size="10.00">+ adc_input</text>
<text text-anchor="start" x="734.5" y="-219.5" font-family="Helvetica,sans-Serif" font-size="10.00">+ adc_core</text>
<text text-anchor="start" x="734.5" y="-208.5" font-family="Helvetica,sans-Serif" font-size="10.00">+ trigger_source</text>
<text text-anchor="start" x="734.5" y="-197.5" font-family="Helvetica,sans-Serif" font-size="10.00">+ interrupt_enable</text>
<text text-anchor="start" x="734.5" y="-186.5" font-family="Helvetica,sans-Serif" font-size="10.00">+ early_interrupt_enable</text>
<text text-anchor="start" x="734.5" y="-175.5" font-family="Helvetica,sans-Serif" font-size="10.00">+ differential_input</text>
<text text-anchor="start" x="734.5" y="-164.5" font-family="Helvetica,sans-Serif" font-size="10.00">+ signed_result</text>
<text text-anchor="start" x="734.5" y="-153.5" font-family="Helvetica,sans-Serif" font-size="10.00">+ level_trigger</text>
<text text-anchor="start" x="734.5" y="-142.5" font-family="Helvetica,sans-Serif" font-size="10.00">+ scaling</text>
<polyline fill="none" stroke="black" points="726.5,-135.5 891.5,-135.5 "/>
<text text-anchor="middle" x="809" y="-123.5" font-family="Helvetica,sans-Serif" font-size="10.00"> </text>
</a>
</g>
</g>
<!-- Node7&#45;&gt;Node8 -->
<g id="edge7" class="edge">
<title>Node7&#45;&gt;Node8</title>
<path fill="none" stroke="midnightblue" d="M809,-381.74C809,-355.8 809,-324.09 809,-294.8"/>
<polygon fill="none" stroke="midnightblue" points="805.5,-381.75 809,-391.75 812.5,-381.75 805.5,-381.75"/>
</g>
<!-- Node9 -->
<g id="node9" class="node">
<title>Node9</title>
<g id="a_node9"><a xlink:href="a01644.html" target="_top" xlink:title="ADC input signal scaling = (ADCBUF &#45; &lt;offset&gt;) * &lt;factor&gt; &gt;&gt; 2^&lt;scaler&gt;">
<polygon fill="white" stroke="black" points="729,-0.5 729,-79.5 889,-79.5 889,-0.5 729,-0.5"/>
<text text-anchor="middle" x="809" y="-67.5" font-family="Helvetica,sans-Serif" font-size="10.00">BUCK_ADC_INPUT_SCALING_s</text>
<polyline fill="none" stroke="black" points="729,-60.5 889,-60.5 "/>
<text text-anchor="start" x="737" y="-48.5" font-family="Helvetica,sans-Serif" font-size="10.00">+ factor</text>
<text text-anchor="start" x="737" y="-37.5" font-family="Helvetica,sans-Serif" font-size="10.00">+ scaler</text>
<text text-anchor="start" x="737" y="-26.5" font-family="Helvetica,sans-Serif" font-size="10.00">+ offset</text>
<polyline fill="none" stroke="black" points="729,-19.5 889,-19.5 "/>
<text text-anchor="middle" x="809" y="-7.5" font-family="Helvetica,sans-Serif" font-size="10.00"> </text>
</a>
</g>
</g>
<!-- Node8&#45;&gt;Node9 -->
<g id="edge8" class="edge">
<title>Node8&#45;&gt;Node9</title>
<path fill="none" stroke="midnightblue" d="M809,-105.93C809,-96.69 809,-87.74 809,-79.6"/>
<polygon fill="none" stroke="midnightblue" points="805.5,-106.05 809,-116.05 812.5,-106.05 805.5,-106.05"/>
</g>
<!-- Node11 -->
<g id="node11" class="node">
<title>Node11</title>
<g id="a_node11"><a xlink:href="a01656.html" target="_top" xlink:title="GPIO instance of the converter control GPIO.">
<polygon fill="white" stroke="black" points="909.5,-155 909.5,-256 1046.5,-256 1046.5,-155 909.5,-155"/>
<text text-anchor="middle" x="978" y="-244" font-family="Helvetica,sans-Serif" font-size="10.00">BUCK_GPIO_INSTANCE_s</text>
<polyline fill="none" stroke="black" points="909.5,-237 1046.5,-237 "/>
<text text-anchor="start" x="917.5" y="-225" font-family="Helvetica,sans-Serif" font-size="10.00">+ enabled</text>
<text text-anchor="start" x="917.5" y="-214" font-family="Helvetica,sans-Serif" font-size="10.00">+ port</text>
<text text-anchor="start" x="917.5" y="-203" font-family="Helvetica,sans-Serif" font-size="10.00">+ pin</text>
<text text-anchor="start" x="917.5" y="-192" font-family="Helvetica,sans-Serif" font-size="10.00">+ polarity</text>
<text text-anchor="start" x="917.5" y="-181" font-family="Helvetica,sans-Serif" font-size="10.00">+ io_type</text>
<polyline fill="none" stroke="black" points="909.5,-174 1046.5,-174 "/>
<text text-anchor="middle" x="978" y="-162" font-family="Helvetica,sans-Serif" font-size="10.00"> </text>
</a>
</g>
</g>
<!-- Node10&#45;&gt;Node11 -->
<g id="edge10" class="edge">
<title>Node10&#45;&gt;Node11</title>
<path fill="none" stroke="midnightblue" d="M978,-392.16C978,-353.27 978,-296.51 978,-256"/>
<polygon fill="none" stroke="midnightblue" points="974.5,-392.63 978,-402.63 981.5,-392.63 974.5,-392.63"/>
</g>
</g>
</svg>
        <g id="navigator" transform="translate(0 0)" fill="#404254">
                <rect fill="#f2f5e9" fill-opacity="0.5" stroke="#606060" stroke-width=".5" x="0" y="0" width="60" height="60"/>
                <use id="zoomplus" xlink:href="#zoomPlus" x="17" y="9" onmousedown="handleZoom(evt,'in')"/>
                <use id="zoomminus" xlink:href="#zoomMin" x="42" y="9" onmousedown="handleZoom(evt,'out')"/>
                <use id="reset" xlink:href="#resetDef" x="30" y="36" onmousedown="handleReset()"/>
                <g id="arrowUp" xlink:href="#dirArrow" transform="translate(30 24)" onmousedown="handlePan(0,-1)">
                  <use xlink:href="#rim" fill="#404040">
                        <set attributeName="fill" to="#808080" begin="arrowUp.mouseover" end="arrowUp.mouseout"/>
                  </use>
                  <path fill="none" stroke="white" stroke-width="1.5" d="M0,-3.0v7 M-2.5,-0.5L0,-3.0L2.5,-0.5"/>
                </g>
                <g id="arrowRight" xlink:href="#dirArrow" transform="rotate(90) translate(36 -43)" onmousedown="handlePan(1,0)">
                  <use xlink:href="#rim" fill="#404040">
                        <set attributeName="fill" to="#808080" begin="arrowRight.mouseover" end="arrowRight.mouseout"/>
                  </use>
                  <path fill="none" stroke="white" stroke-width="1.5" d="M0,-3.0v7 M-2.5,-0.5L0,-3.0L2.5,-0.5"/>
                </g>
                <g id="arrowDown" xlink:href="#dirArrow" transform="rotate(180) translate(-30 -48)" onmousedown="handlePan(0,1)">
                  <use xlink:href="#rim" fill="#404040">
                        <set attributeName="fill" to="#808080" begin="arrowDown.mouseover" end="arrowDown.mouseout"/>
                  </use>
                  <path fill="none" stroke="white" stroke-width="1.5" d="M0,-3.0v7 M-2.5,-0.5L0,-3.0L2.5,-0.5"/>
                </g>
                <g id="arrowLeft" xlink:href="#dirArrow" transform="rotate(270) translate(-36 17)" onmousedown="handlePan(-1,0)">
                  <use xlink:href="#rim" fill="#404040">
                        <set attributeName="fill" to="#808080" begin="arrowLeft.mouseover" end="arrowLeft.mouseout"/>
                  </use>
                  <path fill="none" stroke="white" stroke-width="1.5" d="M0,-3.0v7 M-2.5,-0.5L0,-3.0L2.5,-0.5"/>
                </g>
        </g>
        <svg viewBox="0 0 15 15" width="100%" height="30px" preserveAspectRatio="xMaxYMin meet">
         <g id="arrow_out" transform="scale(0.3 0.3)">
          <a xlink:href="a01663_org.svg" target="_base">
           <rect id="button" ry="5" rx="5" y="6" x="6" height="38" width="38"
                fill="#f2f5e9" fill-opacity="0.5" stroke="#606060" stroke-width="1.0"/>
           <path id="arrow"
             d="M 11.500037,31.436501 C 11.940474,20.09759 22.043105,11.32322 32.158766,21.979434 L 37.068811,17.246167 C 37.068811,17.246167 37.088388,32 37.088388,32 L 22.160133,31.978069 C 22.160133,31.978069 26.997745,27.140456 26.997745,27.140456 C 18.528582,18.264221 13.291696,25.230495 11.500037,31.436501 z"
             style="fill:#404040;"/>
          </a>
         </g>
        </svg>
</svg>
