<?xml version="1.0" encoding="UTF-8" standalone="no"?>
<!DOCTYPE svg PUBLIC "-//W3C//DTD SVG 1.1//EN"
 "http://www.w3.org/Graphics/SVG/1.1/DTD/svg11.dtd">
<!-- Generated by graphviz version 2.44.1 (20200629.0846)
 -->
<!-- Title: BUCK_CONVERTER_DATA_s Pages: 1 -->
<svg width="158pt" height="336pt"
 viewBox="0.00 0.00 158.00 336.00" xmlns="http://www.w3.org/2000/svg" xmlns:xlink="http://www.w3.org/1999/xlink">
<g id="graph0" class="graph" transform="scale(1 1) rotate(0) translate(4 332)">
<title>BUCK_CONVERTER_DATA_s</title>
<polygon fill="white" stroke="transparent" points="-4,4 -4,-332 154,-332 154,4 -4,4"/>
<!-- Node1 -->
<g id="node1" class="node">
<title>Node1</title>
<g id="a_node1"><a xlink:title="Publicly accessible data buffer of most recent runtime data values.">
<polygon fill="#bfbfbf" stroke="black" points="0,-0.5 0,-134.5 150,-134.5 150,-0.5 0,-0.5"/>
<text text-anchor="middle" x="75" y="-122.5" font-family="Helvetica,sans-Serif" font-size="10.00">BUCK_CONVERTER_DATA_s</text>
<polyline fill="none" stroke="black" points="0,-115.5 150,-115.5 "/>
<text text-anchor="start" x="8" y="-103.5" font-family="Helvetica,sans-Serif" font-size="10.00">+ i_sns</text>
<text text-anchor="start" x="8" y="-92.5" font-family="Helvetica,sans-Serif" font-size="10.00">+ i_out</text>
<text text-anchor="start" x="8" y="-81.5" font-family="Helvetica,sans-Serif" font-size="10.00">+ v_in</text>
<text text-anchor="start" x="8" y="-70.5" font-family="Helvetica,sans-Serif" font-size="10.00">+ v_out</text>
<text text-anchor="start" x="8" y="-59.5" font-family="Helvetica,sans-Serif" font-size="10.00">+ temp</text>
<text text-anchor="start" x="8" y="-48.5" font-family="Helvetica,sans-Serif" font-size="10.00">+ control_input</text>
<text text-anchor="start" x="8" y="-37.5" font-family="Helvetica,sans-Serif" font-size="10.00">+ control_error</text>
<text text-anchor="start" x="8" y="-26.5" font-family="Helvetica,sans-Serif" font-size="10.00">+ control_output</text>
<polyline fill="none" stroke="black" points="0,-19.5 150,-19.5 "/>
<text text-anchor="middle" x="75" y="-7.5" font-family="Helvetica,sans-Serif" font-size="10.00"> </text>
</a>
</g>
</g>
<!-- Node2 -->
<g id="node2" class="node">
<title>Node2</title>
<g id="a_node2"><a xlink:href="a01664.html" target="_top" xlink:title="BUCK control &amp; monitoring data structure.">
<polygon fill="white" stroke="black" points="15.5,-171.5 15.5,-327.5 134.5,-327.5 134.5,-171.5 15.5,-171.5"/>
<text text-anchor="middle" x="75" y="-315.5" font-family="Helvetica,sans-Serif" font-size="10.00">BUCK_CONVERTER_s</text>
<polyline fill="none" stroke="black" points="15.5,-308.5 134.5,-308.5 "/>
<text text-anchor="start" x="23.5" y="-296.5" font-family="Helvetica,sans-Serif" font-size="10.00">+ status</text>
<text text-anchor="start" x="23.5" y="-285.5" font-family="Helvetica,sans-Serif" font-size="10.00">+ state_id</text>
<text text-anchor="start" x="23.5" y="-274.5" font-family="Helvetica,sans-Serif" font-size="10.00">+ startup</text>
<text text-anchor="start" x="23.5" y="-263.5" font-family="Helvetica,sans-Serif" font-size="10.00">+ set_values</text>
<text text-anchor="start" x="23.5" y="-252.5" font-family="Helvetica,sans-Serif" font-size="10.00">+ data</text>
<text text-anchor="start" x="23.5" y="-241.5" font-family="Helvetica,sans-Serif" font-size="10.00">+ feedback</text>
<text text-anchor="start" x="23.5" y="-230.5" font-family="Helvetica,sans-Serif" font-size="10.00">+ sw_node</text>
<text text-anchor="start" x="23.5" y="-219.5" font-family="Helvetica,sans-Serif" font-size="10.00">+ gpio</text>
<text text-anchor="start" x="23.5" y="-208.5" font-family="Helvetica,sans-Serif" font-size="10.00">+ v_loop</text>
<text text-anchor="start" x="23.5" y="-197.5" font-family="Helvetica,sans-Serif" font-size="10.00">+ i_loop</text>
<polyline fill="none" stroke="black" points="15.5,-190.5 134.5,-190.5 "/>
<text text-anchor="middle" x="75" y="-178.5" font-family="Helvetica,sans-Serif" font-size="10.00"> </text>
</a>
</g>
</g>
<!-- Node2&#45;&gt;Node1 -->
<g id="edge1" class="edge">
<title>Node2&#45;&gt;Node1</title>
<path fill="none" stroke="midnightblue" d="M75,-161.31C75,-152.36 75,-143.37 75,-134.69"/>
<polygon fill="none" stroke="midnightblue" points="71.5,-161.38 75,-171.38 78.5,-161.38 71.5,-161.38"/>
</g>
</g>
</svg>
