<?xml version="1.0" encoding="UTF-8" standalone="no"?>
<!DOCTYPE svg PUBLIC "-//W3C//DTD SVG 1.1//EN"
 "http://www.w3.org/Graphics/SVG/1.1/DTD/svg11.dtd">
<!-- Generated by graphviz version 2.44.1 (20200629.0846)
 -->
<!-- Title: NPNZ16b_s Pages: 1 -->
<svg width="1388pt" height="518pt"
 viewBox="0.00 0.00 1387.50 518.00" xmlns="http://www.w3.org/2000/svg" xmlns:xlink="http://www.w3.org/1999/xlink">
<g id="graph0" class="graph" transform="scale(1 1) rotate(0) translate(4 514)">
<title>NPNZ16b_s</title>
<polygon fill="white" stroke="transparent" points="-4,4 -4,-514 1383.5,-514 1383.5,4 -4,4"/>
<!-- Node1 -->
<g id="node1" class="node">
<title>Node1</title>
<g id="a_node1"><a xlink:title="Global NPNZ controller data object.">
<polygon fill="#bfbfbf" stroke="black" points="703.5,-364.5 703.5,-509.5 809.5,-509.5 809.5,-364.5 703.5,-364.5"/>
<text text-anchor="middle" x="756.5" y="-497.5" font-family="Helvetica,sans-Serif" font-size="10.00">NPNZ16b_s</text>
<polyline fill="none" stroke="black" points="703.5,-490.5 809.5,-490.5 "/>
<text text-anchor="start" x="711.5" y="-478.5" font-family="Helvetica,sans-Serif" font-size="10.00">+ status</text>
<text text-anchor="start" x="711.5" y="-467.5" font-family="Helvetica,sans-Serif" font-size="10.00">+ Ports</text>
<text text-anchor="start" x="711.5" y="-456.5" font-family="Helvetica,sans-Serif" font-size="10.00">+ Filter</text>
<text text-anchor="start" x="711.5" y="-445.5" font-family="Helvetica,sans-Serif" font-size="10.00">+ GainControl</text>
<text text-anchor="start" x="711.5" y="-434.5" font-family="Helvetica,sans-Serif" font-size="10.00">+ Limits</text>
<text text-anchor="start" x="711.5" y="-423.5" font-family="Helvetica,sans-Serif" font-size="10.00">+ ADCTriggerControl</text>
<text text-anchor="start" x="711.5" y="-412.5" font-family="Helvetica,sans-Serif" font-size="10.00">+ DataProviders</text>
<text text-anchor="start" x="711.5" y="-401.5" font-family="Helvetica,sans-Serif" font-size="10.00">+ ExtensionHooks</text>
<text text-anchor="start" x="711.5" y="-390.5" font-family="Helvetica,sans-Serif" font-size="10.00">+ Advanced</text>
<polyline fill="none" stroke="black" points="703.5,-383.5 809.5,-383.5 "/>
<text text-anchor="middle" x="756.5" y="-371.5" font-family="Helvetica,sans-Serif" font-size="10.00"> </text>
</a>
</g>
</g>
<!-- Node2 -->
<g id="node2" class="node">
<title>Node2</title>
<g id="a_node2"><a xlink:href="a01636.html" target="_top" xlink:title="Automated ADC Trigger handling.">
<polygon fill="white" stroke="black" points="0,-182.5 0,-272.5 129,-272.5 129,-182.5 0,-182.5"/>
<text text-anchor="middle" x="64.5" y="-260.5" font-family="Helvetica,sans-Serif" font-size="10.00">NPNZ_ADC_TRGCTRL_s</text>
<polyline fill="none" stroke="black" points="0,-253.5 129,-253.5 "/>
<text text-anchor="start" x="8" y="-241.5" font-family="Helvetica,sans-Serif" font-size="10.00">+ ptrADCTriggerARegister</text>
<text text-anchor="start" x="8" y="-230.5" font-family="Helvetica,sans-Serif" font-size="10.00">+ ADCTriggerAOffset</text>
<text text-anchor="start" x="8" y="-219.5" font-family="Helvetica,sans-Serif" font-size="10.00">+ ptrADCTriggerBRegister</text>
<text text-anchor="start" x="8" y="-208.5" font-family="Helvetica,sans-Serif" font-size="10.00">+ ADCTriggerBOffset</text>
<polyline fill="none" stroke="black" points="0,-201.5 129,-201.5 "/>
<text text-anchor="middle" x="64.5" y="-189.5" font-family="Helvetica,sans-Serif" font-size="10.00"> </text>
</a>
</g>
</g>
<!-- Node1&#45;&gt;Node2 -->
<g id="edge1" class="edge">
<title>Node1&#45;&gt;Node2</title>
<path fill="none" stroke="midnightblue" d="M693.01,-430.87C554.67,-418.75 231,-384.99 138.5,-328 116.96,-314.73 99.61,-292.68 87.13,-272.71"/>
<polygon fill="none" stroke="midnightblue" points="692.78,-434.36 703.04,-431.74 693.38,-427.39 692.78,-434.36"/>
</g>
<!-- Node3 -->
<g id="node3" class="node">
<title>Node3</title>
<g id="a_node3"><a xlink:href="a01640.html" target="_top" xlink:title="Data Provider Target Memory Addresses.">
<polygon fill="white" stroke="black" points="147.5,-182.5 147.5,-272.5 321.5,-272.5 321.5,-182.5 147.5,-182.5"/>
<text text-anchor="middle" x="234.5" y="-260.5" font-family="Helvetica,sans-Serif" font-size="10.00">NPNZ_DATA_PROVIDERS_s</text>
<polyline fill="none" stroke="black" points="147.5,-253.5 321.5,-253.5 "/>
<text text-anchor="start" x="155.5" y="-241.5" font-family="Helvetica,sans-Serif" font-size="10.00">+ ptrDProvControlInput</text>
<text text-anchor="start" x="155.5" y="-230.5" font-family="Helvetica,sans-Serif" font-size="10.00">+ ptrDProvControlInputCompensated</text>
<text text-anchor="start" x="155.5" y="-219.5" font-family="Helvetica,sans-Serif" font-size="10.00">+ ptrDProvControlError</text>
<text text-anchor="start" x="155.5" y="-208.5" font-family="Helvetica,sans-Serif" font-size="10.00">+ ptrDProvControlOutput</text>
<polyline fill="none" stroke="black" points="147.5,-201.5 321.5,-201.5 "/>
<text text-anchor="middle" x="234.5" y="-189.5" font-family="Helvetica,sans-Serif" font-size="10.00"> </text>
</a>
</g>
</g>
<!-- Node1&#45;&gt;Node3 -->
<g id="edge2" class="edge">
<title>Node1&#45;&gt;Node3</title>
<path fill="none" stroke="midnightblue" d="M693.39,-430.74C606.68,-421.2 448.2,-395.36 331.5,-328 307.26,-314.01 285.07,-292.27 268.05,-272.67"/>
<polygon fill="none" stroke="midnightblue" points="693.03,-434.22 703.35,-431.79 693.77,-427.26 693.03,-434.22"/>
</g>
<!-- Node4 -->
<g id="node4" class="node">
<title>Node4</title>
<g id="a_node4"><a xlink:href="a01644.html" target="_top" xlink:title="User Extension Function Call Parameters.">
<polygon fill="white" stroke="black" points="340,-133 340,-322 517,-322 517,-133 340,-133"/>
<text text-anchor="middle" x="428.5" y="-310" font-family="Helvetica,sans-Serif" font-size="10.00">NPNZ_EXTENSION_HOOKS_s</text>
<polyline fill="none" stroke="black" points="340,-303 517,-303 "/>
<text text-anchor="start" x="348" y="-291" font-family="Helvetica,sans-Serif" font-size="10.00">+ ptrExtHookStartFunction</text>
<text text-anchor="start" x="348" y="-280" font-family="Helvetica,sans-Serif" font-size="10.00">+ ExtHookStartFunctionParam</text>
<text text-anchor="start" x="348" y="-269" font-family="Helvetica,sans-Serif" font-size="10.00">+ ptrExtHookSourceFunction</text>
<text text-anchor="start" x="348" y="-258" font-family="Helvetica,sans-Serif" font-size="10.00">+ ExtHookSourceFunctionParam</text>
<text text-anchor="start" x="348" y="-247" font-family="Helvetica,sans-Serif" font-size="10.00">+ ptrExtHookPreAntiWindupFunction</text>
<text text-anchor="start" x="348" y="-236" font-family="Helvetica,sans-Serif" font-size="10.00">+ ExtHookPreAntiWindupFunction</text>
<text text-anchor="start" x="348" y="-225" font-family="Helvetica,sans-Serif" font-size="10.00">Param</text>
<text text-anchor="start" x="348" y="-214" font-family="Helvetica,sans-Serif" font-size="10.00">+ ptrExtHookTargetFunction</text>
<text text-anchor="start" x="348" y="-203" font-family="Helvetica,sans-Serif" font-size="10.00">+ ExtHookTargetFunctionParam</text>
<text text-anchor="start" x="348" y="-192" font-family="Helvetica,sans-Serif" font-size="10.00">+ ptrExtHookStopFunction</text>
<text text-anchor="start" x="348" y="-181" font-family="Helvetica,sans-Serif" font-size="10.00">+ ExtHookStopFunctionParam</text>
<text text-anchor="start" x="348" y="-170" font-family="Helvetica,sans-Serif" font-size="10.00">+ ptrExtHookEndFunction</text>
<text text-anchor="start" x="348" y="-159" font-family="Helvetica,sans-Serif" font-size="10.00">+ ExtHookEndFunctionParam</text>
<polyline fill="none" stroke="black" points="340,-152 517,-152 "/>
<text text-anchor="middle" x="428.5" y="-140" font-family="Helvetica,sans-Serif" font-size="10.00"> </text>
</a>
</g>
</g>
<!-- Node1&#45;&gt;Node4 -->
<g id="edge3" class="edge">
<title>Node1&#45;&gt;Node4</title>
<path fill="none" stroke="midnightblue" d="M694.03,-413.66C645.85,-394.83 578.82,-365.04 526.5,-328 523.33,-325.76 520.18,-323.41 517.05,-320.97"/>
<polygon fill="none" stroke="midnightblue" points="692.82,-416.94 703.41,-417.28 695.34,-410.41 692.82,-416.94"/>
</g>
<!-- Node5 -->
<g id="node5" class="node">
<title>Node5</title>
<g id="a_node5"><a xlink:href="a01628.html" target="_top" xlink:title="Filter Coefficient Arrays, Number Format Handling and Input/Output History Parameters.">
<polygon fill="white" stroke="black" points="535,-127.5 535,-327.5 672,-327.5 672,-127.5 535,-127.5"/>
<text text-anchor="middle" x="603.5" y="-315.5" font-family="Helvetica,sans-Serif" font-size="10.00">NPNZ_FILTER_PARAMS_s</text>
<polyline fill="none" stroke="black" points="535,-308.5 672,-308.5 "/>
<text text-anchor="start" x="543" y="-296.5" font-family="Helvetica,sans-Serif" font-size="10.00">+ ptrACoefficients</text>
<text text-anchor="start" x="543" y="-285.5" font-family="Helvetica,sans-Serif" font-size="10.00">+ ptrBCoefficients</text>
<text text-anchor="start" x="543" y="-274.5" font-family="Helvetica,sans-Serif" font-size="10.00">+ ptrControlHistory</text>
<text text-anchor="start" x="543" y="-263.5" font-family="Helvetica,sans-Serif" font-size="10.00">+ ptrErrorHistory</text>
<text text-anchor="start" x="543" y="-252.5" font-family="Helvetica,sans-Serif" font-size="10.00">+ ACoefficientsArraySize</text>
<text text-anchor="start" x="543" y="-241.5" font-family="Helvetica,sans-Serif" font-size="10.00">+ BCoefficientsArraySize</text>
<text text-anchor="start" x="543" y="-230.5" font-family="Helvetica,sans-Serif" font-size="10.00">+ ControlHistoryArraySize</text>
<text text-anchor="start" x="543" y="-219.5" font-family="Helvetica,sans-Serif" font-size="10.00">+ ErrorHistoryArraySize</text>
<text text-anchor="start" x="543" y="-208.5" font-family="Helvetica,sans-Serif" font-size="10.00">+ normPreShift</text>
<text text-anchor="start" x="543" y="-197.5" font-family="Helvetica,sans-Serif" font-size="10.00">+ normPostShiftA</text>
<text text-anchor="start" x="543" y="-186.5" font-family="Helvetica,sans-Serif" font-size="10.00">+ normPostShiftB</text>
<text text-anchor="start" x="543" y="-175.5" font-family="Helvetica,sans-Serif" font-size="10.00">+ normPostScaler</text>
<text text-anchor="start" x="543" y="-164.5" font-family="Helvetica,sans-Serif" font-size="10.00">+ PTermScaler</text>
<text text-anchor="start" x="543" y="-153.5" font-family="Helvetica,sans-Serif" font-size="10.00">+ PTermFactor</text>
<polyline fill="none" stroke="black" points="535,-146.5 672,-146.5 "/>
<text text-anchor="middle" x="603.5" y="-134.5" font-family="Helvetica,sans-Serif" font-size="10.00"> </text>
</a>
</g>
</g>
<!-- Node1&#45;&gt;Node5 -->
<g id="edge4" class="edge">
<title>Node1&#45;&gt;Node5</title>
<path fill="none" stroke="midnightblue" d="M697.59,-356.11C689.22,-344.76 680.56,-333 672.02,-321.43"/>
<polygon fill="none" stroke="midnightblue" points="694.88,-358.33 703.63,-364.3 700.51,-354.17 694.88,-358.33"/>
</g>
<!-- Node6 -->
<g id="node6" class="node">
<title>Node6</title>
<g id="a_node6"><a xlink:href="a01648.html" target="_top" xlink:title="Adaptive Gain Control Modulation Parameters.">
<polygon fill="white" stroke="black" points="690.5,-182.5 690.5,-272.5 822.5,-272.5 822.5,-182.5 690.5,-182.5"/>
<text text-anchor="middle" x="756.5" y="-260.5" font-family="Helvetica,sans-Serif" font-size="10.00">NPNZ_GAIN_CONTROL_s</text>
<polyline fill="none" stroke="black" points="690.5,-253.5 822.5,-253.5 "/>
<text text-anchor="start" x="698.5" y="-241.5" font-family="Helvetica,sans-Serif" font-size="10.00">+ AgcScaler</text>
<text text-anchor="start" x="698.5" y="-230.5" font-family="Helvetica,sans-Serif" font-size="10.00">+ AgcFactor</text>
<text text-anchor="start" x="698.5" y="-219.5" font-family="Helvetica,sans-Serif" font-size="10.00">+ AgcMedian</text>
<text text-anchor="start" x="698.5" y="-208.5" font-family="Helvetica,sans-Serif" font-size="10.00">+ ptrAgcObserverFunction</text>
<polyline fill="none" stroke="black" points="690.5,-201.5 822.5,-201.5 "/>
<text text-anchor="middle" x="756.5" y="-189.5" font-family="Helvetica,sans-Serif" font-size="10.00"> </text>
</a>
</g>
</g>
<!-- Node1&#45;&gt;Node6 -->
<g id="edge5" class="edge">
<title>Node1&#45;&gt;Node6</title>
<path fill="none" stroke="midnightblue" d="M756.5,-354.18C756.5,-326.38 756.5,-296.39 756.5,-272.67"/>
<polygon fill="none" stroke="midnightblue" points="753,-354.3 756.5,-364.3 760,-354.3 753,-354.3"/>
</g>
<!-- Node7 -->
<g id="node7" class="node">
<title>Node7</title>
<g id="a_node7"><a xlink:href="a01632.html" target="_top" xlink:title="System Anti&#45;Windup (Output Clamping) Thresholds.">
<polygon fill="white" stroke="black" points="840.5,-182.5 840.5,-272.5 928.5,-272.5 928.5,-182.5 840.5,-182.5"/>
<text text-anchor="middle" x="884.5" y="-260.5" font-family="Helvetica,sans-Serif" font-size="10.00">NPNZ_LIMITS_s</text>
<polyline fill="none" stroke="black" points="840.5,-253.5 928.5,-253.5 "/>
<text text-anchor="start" x="848.5" y="-241.5" font-family="Helvetica,sans-Serif" font-size="10.00">+ MinOutput</text>
<text text-anchor="start" x="848.5" y="-230.5" font-family="Helvetica,sans-Serif" font-size="10.00">+ MaxOutput</text>
<text text-anchor="start" x="848.5" y="-219.5" font-family="Helvetica,sans-Serif" font-size="10.00">+ AltMinOutput</text>
<text text-anchor="start" x="848.5" y="-208.5" font-family="Helvetica,sans-Serif" font-size="10.00">+ AltMaxOutput</text>
<polyline fill="none" stroke="black" points="840.5,-201.5 928.5,-201.5 "/>
<text text-anchor="middle" x="884.5" y="-189.5" font-family="Helvetica,sans-Serif" font-size="10.00"> </text>
</a>
</g>
</g>
<!-- Node1&#45;&gt;Node7 -->
<g id="edge6" class="edge">
<title>Node1&#45;&gt;Node7</title>
<path fill="none" stroke="midnightblue" d="M813.63,-355.94C819.82,-346.63 825.9,-337.17 831.5,-328 842.31,-310.29 853.26,-290.19 862.37,-272.71"/>
<polygon fill="none" stroke="midnightblue" points="810.59,-354.2 807.92,-364.45 816.4,-358.1 810.59,-354.2"/>
</g>
<!-- Node8 -->
<g id="node8" class="node">
<title>Node8</title>
<g id="a_node8"><a xlink:href="a01624.html" target="_top" xlink:title="Filter Coefficient Arrays, Number Format Handling and Input/Output History Parameters.">
<polygon fill="white" stroke="black" points="947,-177 947,-278 1058,-278 1058,-177 947,-177"/>
<text text-anchor="middle" x="1002.5" y="-266" font-family="Helvetica,sans-Serif" font-size="10.00">NPNZ_PORTS_s</text>
<polyline fill="none" stroke="black" points="947,-259 1058,-259 "/>
<text text-anchor="start" x="955" y="-247" font-family="Helvetica,sans-Serif" font-size="10.00">+ Source</text>
<text text-anchor="start" x="955" y="-236" font-family="Helvetica,sans-Serif" font-size="10.00">+ AltSource</text>
<text text-anchor="start" x="955" y="-225" font-family="Helvetica,sans-Serif" font-size="10.00">+ Target</text>
<text text-anchor="start" x="955" y="-214" font-family="Helvetica,sans-Serif" font-size="10.00">+ AltTarget</text>
<text text-anchor="start" x="955" y="-203" font-family="Helvetica,sans-Serif" font-size="10.00">+ ptrControlReference</text>
<polyline fill="none" stroke="black" points="947,-196 1058,-196 "/>
<text text-anchor="middle" x="1002.5" y="-184" font-family="Helvetica,sans-Serif" font-size="10.00"> </text>
</a>
</g>
</g>
<!-- Node1&#45;&gt;Node8 -->
<g id="edge7" class="edge">
<title>Node1&#45;&gt;Node8</title>
<path fill="none" stroke="midnightblue" d="M818.77,-407.8C856.07,-388.86 902.82,-361.29 937.5,-328 952.46,-313.64 965.69,-295.22 976.24,-278.14"/>
<polygon fill="none" stroke="midnightblue" points="816.89,-404.83 809.51,-412.43 820.02,-411.09 816.89,-404.83"/>
</g>
<!-- Node10 -->
<g id="node10" class="node">
<title>Node10</title>
<g id="a_node10"><a xlink:href="a01604.html" target="_top" xlink:title="NPNZ16b controller object status and control word.">
<polygon fill="white" stroke="black" points="1076,-155 1076,-300 1201,-300 1201,-155 1076,-155"/>
<text text-anchor="middle" x="1138.5" y="-288" font-family="Helvetica,sans-Serif" font-size="10.00">NPNZ_STATUS_s</text>
<polyline fill="none" stroke="black" points="1076,-281 1201,-281 "/>
<text text-anchor="start" x="1084" y="-269" font-family="Helvetica,sans-Serif" font-size="10.00">+ lower_saturation_event</text>
<text text-anchor="start" x="1084" y="-258" font-family="Helvetica,sans-Serif" font-size="10.00">+ upper_saturation_event</text>
<text text-anchor="start" x="1084" y="-247" font-family="Helvetica,sans-Serif" font-size="10.00">+ unsigned</text>
<text text-anchor="start" x="1084" y="-236" font-family="Helvetica,sans-Serif" font-size="10.00">+ agc_enabled</text>
<text text-anchor="start" x="1084" y="-225" font-family="Helvetica,sans-Serif" font-size="10.00">+ swap_target</text>
<text text-anchor="start" x="1084" y="-214" font-family="Helvetica,sans-Serif" font-size="10.00">+ swap_source</text>
<text text-anchor="start" x="1084" y="-203" font-family="Helvetica,sans-Serif" font-size="10.00">+ invert_input</text>
<text text-anchor="start" x="1084" y="-192" font-family="Helvetica,sans-Serif" font-size="10.00">+ enabled</text>
<text text-anchor="start" x="1084" y="-181" font-family="Helvetica,sans-Serif" font-size="10.00">+ value</text>
<polyline fill="none" stroke="black" points="1076,-174 1201,-174 "/>
<text text-anchor="middle" x="1138.5" y="-162" font-family="Helvetica,sans-Serif" font-size="10.00"> </text>
</a>
</g>
</g>
<!-- Node1&#45;&gt;Node10 -->
<g id="edge9" class="edge">
<title>Node1&#45;&gt;Node10</title>
<path fill="none" stroke="midnightblue" d="M819.54,-425.85C886.45,-412.56 992.64,-384.04 1067.5,-328 1077.86,-320.24 1087.32,-310.53 1095.71,-300.24"/>
<polygon fill="none" stroke="midnightblue" points="818.71,-422.44 809.56,-427.78 820.04,-429.32 818.71,-422.44"/>
</g>
<!-- Node11 -->
<g id="node11" class="node">
<title>Node11</title>
<g id="a_node11"><a xlink:href="a01652.html" target="_top" xlink:title="User Data Space for Advanced Control Functions.">
<polygon fill="white" stroke="black" points="1219.5,-160.5 1219.5,-294.5 1379.5,-294.5 1379.5,-160.5 1219.5,-160.5"/>
<text text-anchor="middle" x="1299.5" y="-282.5" font-family="Helvetica,sans-Serif" font-size="10.00">NPNZ_USER_DATA_BUFFER_s</text>
<polyline fill="none" stroke="black" points="1219.5,-275.5 1379.5,-275.5 "/>
<text text-anchor="start" x="1227.5" y="-263.5" font-family="Helvetica,sans-Serif" font-size="10.00">+ usrParam0</text>
<text text-anchor="start" x="1227.5" y="-252.5" font-family="Helvetica,sans-Serif" font-size="10.00">+ usrParam1</text>
<text text-anchor="start" x="1227.5" y="-241.5" font-family="Helvetica,sans-Serif" font-size="10.00">+ usrParam2</text>
<text text-anchor="start" x="1227.5" y="-230.5" font-family="Helvetica,sans-Serif" font-size="10.00">+ usrParam3</text>
<text text-anchor="start" x="1227.5" y="-219.5" font-family="Helvetica,sans-Serif" font-size="10.00">+ usrParam4</text>
<text text-anchor="start" x="1227.5" y="-208.5" font-family="Helvetica,sans-Serif" font-size="10.00">+ usrParam5</text>
<text text-anchor="start" x="1227.5" y="-197.5" font-family="Helvetica,sans-Serif" font-size="10.00">+ usrParam6</text>
<text text-anchor="start" x="1227.5" y="-186.5" font-family="Helvetica,sans-Serif" font-size="10.00">+ usrParam7</text>
<polyline fill="none" stroke="black" points="1219.5,-179.5 1379.5,-179.5 "/>
<text text-anchor="middle" x="1299.5" y="-167.5" font-family="Helvetica,sans-Serif" font-size="10.00"> </text>
</a>
</g>
</g>
<!-- Node1&#45;&gt;Node11 -->
<g id="edge10" class="edge">
<title>Node1&#45;&gt;Node11</title>
<path fill="none" stroke="midnightblue" d="M819.65,-432.83C911.66,-425.71 1085.21,-402.64 1210.5,-328 1225.23,-319.22 1238.89,-307.21 1250.85,-294.55"/>
<polygon fill="none" stroke="midnightblue" points="819.37,-429.34 809.66,-433.57 819.89,-436.32 819.37,-429.34"/>
</g>
<!-- Node9 -->
<g id="node9" class="node">
<title>Node9</title>
<g id="a_node9"><a xlink:href="a01620.html" target="_top" xlink:title="Data Input/Output Port declaration of memory addresses, signal offsets and normalization settings.">
<polygon fill="white" stroke="black" points="960.5,-0.5 960.5,-90.5 1044.5,-90.5 1044.5,-0.5 960.5,-0.5"/>
<text text-anchor="middle" x="1002.5" y="-78.5" font-family="Helvetica,sans-Serif" font-size="10.00">NPNZ_PORT_s</text>
<polyline fill="none" stroke="black" points="960.5,-71.5 1044.5,-71.5 "/>
<text text-anchor="start" x="968.5" y="-59.5" font-family="Helvetica,sans-Serif" font-size="10.00">+ ptrAddress</text>
<text text-anchor="start" x="968.5" y="-48.5" font-family="Helvetica,sans-Serif" font-size="10.00">+ NormScaler</text>
<text text-anchor="start" x="968.5" y="-37.5" font-family="Helvetica,sans-Serif" font-size="10.00">+ NormFactor</text>
<text text-anchor="start" x="968.5" y="-26.5" font-family="Helvetica,sans-Serif" font-size="10.00">+ Offset</text>
<polyline fill="none" stroke="black" points="960.5,-19.5 1044.5,-19.5 "/>
<text text-anchor="middle" x="1002.5" y="-7.5" font-family="Helvetica,sans-Serif" font-size="10.00"> </text>
</a>
</g>
</g>
<!-- Node8&#45;&gt;Node9 -->
<g id="edge8" class="edge">
<title>Node8&#45;&gt;Node9</title>
<path fill="none" stroke="midnightblue" d="M1002.5,-166.8C1002.5,-141.99 1002.5,-113.69 1002.5,-90.78"/>
<polygon fill="none" stroke="midnightblue" points="999,-166.84 1002.5,-176.84 1006,-166.84 999,-166.84"/>
</g>
</g>
</svg>
