<?xml version="1.0" encoding="UTF-8" standalone="no"?>
<!DOCTYPE svg PUBLIC "-//W3C//DTD SVG 1.1//EN"
 "http://www.w3.org/Graphics/SVG/1.1/DTD/svg11.dtd">
<!-- Generated by graphviz version 2.44.1 (20200629.0846)
 -->
<!-- Title: BUCK_CONVERTER_SETTINGS_s Pages: 1 -->
<svg width="180pt" height="292pt"
 viewBox="0.00 0.00 180.00 292.00" xmlns="http://www.w3.org/2000/svg" xmlns:xlink="http://www.w3.org/1999/xlink">
<g id="graph0" class="graph" transform="scale(1 1) rotate(0) translate(4 288)">
<title>BUCK_CONVERTER_SETTINGS_s</title>
<polygon fill="white" stroke="transparent" points="-4,4 -4,-288 176,-288 176,4 -4,4"/>
<!-- Node1 -->
<g id="node1" class="node">
<title>Node1</title>
<g id="a_node1"><a xlink:title="Generic power controller control settings.">
<polygon fill="#bfbfbf" stroke="black" points="0,-0.5 0,-90.5 172,-90.5 172,-0.5 0,-0.5"/>
<text text-anchor="middle" x="86" y="-78.5" font-family="Helvetica,sans-Serif" font-size="10.00">BUCK_CONVERTER_SETTINGS_s</text>
<polyline fill="none" stroke="black" points="0,-71.5 172,-71.5 "/>
<text text-anchor="start" x="8" y="-59.5" font-family="Helvetica,sans-Serif" font-size="10.00">+ control_mode</text>
<text text-anchor="start" x="8" y="-48.5" font-family="Helvetica,sans-Serif" font-size="10.00">+ no_of_phases</text>
<text text-anchor="start" x="8" y="-37.5" font-family="Helvetica,sans-Serif" font-size="10.00">+ v_ref</text>
<text text-anchor="start" x="8" y="-26.5" font-family="Helvetica,sans-Serif" font-size="10.00">+ i_ref</text>
<polyline fill="none" stroke="black" points="0,-19.5 172,-19.5 "/>
<text text-anchor="middle" x="86" y="-7.5" font-family="Helvetica,sans-Serif" font-size="10.00"> </text>
</a>
</g>
</g>
<!-- Node2 -->
<g id="node2" class="node">
<title>Node2</title>
<g id="a_node2"><a xlink:href="a01664.html" target="_top" xlink:title="BUCK control &amp; monitoring data structure.">
<polygon fill="white" stroke="black" points="26.5,-127.5 26.5,-283.5 145.5,-283.5 145.5,-127.5 26.5,-127.5"/>
<text text-anchor="middle" x="86" y="-271.5" font-family="Helvetica,sans-Serif" font-size="10.00">BUCK_CONVERTER_s</text>
<polyline fill="none" stroke="black" points="26.5,-264.5 145.5,-264.5 "/>
<text text-anchor="start" x="34.5" y="-252.5" font-family="Helvetica,sans-Serif" font-size="10.00">+ status</text>
<text text-anchor="start" x="34.5" y="-241.5" font-family="Helvetica,sans-Serif" font-size="10.00">+ state_id</text>
<text text-anchor="start" x="34.5" y="-230.5" font-family="Helvetica,sans-Serif" font-size="10.00">+ startup</text>
<text text-anchor="start" x="34.5" y="-219.5" font-family="Helvetica,sans-Serif" font-size="10.00">+ set_values</text>
<text text-anchor="start" x="34.5" y="-208.5" font-family="Helvetica,sans-Serif" font-size="10.00">+ data</text>
<text text-anchor="start" x="34.5" y="-197.5" font-family="Helvetica,sans-Serif" font-size="10.00">+ feedback</text>
<text text-anchor="start" x="34.5" y="-186.5" font-family="Helvetica,sans-Serif" font-size="10.00">+ sw_node</text>
<text text-anchor="start" x="34.5" y="-175.5" font-family="Helvetica,sans-Serif" font-size="10.00">+ gpio</text>
<text text-anchor="start" x="34.5" y="-164.5" font-family="Helvetica,sans-Serif" font-size="10.00">+ v_loop</text>
<text text-anchor="start" x="34.5" y="-153.5" font-family="Helvetica,sans-Serif" font-size="10.00">+ i_loop</text>
<polyline fill="none" stroke="black" points="26.5,-146.5 145.5,-146.5 "/>
<text text-anchor="middle" x="86" y="-134.5" font-family="Helvetica,sans-Serif" font-size="10.00"> </text>
</a>
</g>
</g>
<!-- Node2&#45;&gt;Node1 -->
<g id="edge1" class="edge">
<title>Node2&#45;&gt;Node1</title>
<path fill="none" stroke="midnightblue" d="M86,-117.08C86,-108.02 86,-99.11 86,-90.83"/>
<polygon fill="none" stroke="midnightblue" points="82.5,-117.35 86,-127.35 89.5,-117.35 82.5,-117.35"/>
</g>
</g>
</svg>
