<?xml version="1.0" encoding="UTF-8" standalone="no"?>
<!DOCTYPE svg PUBLIC "-//W3C//DTD SVG 1.1//EN"
 "http://www.w3.org/Graphics/SVG/1.1/DTD/svg11.dtd">
<!-- Generated by graphviz version 2.44.1 (20200629.0846)
 -->
<!-- Title: NPNZ_FILTER_PARAMS_s Pages: 1 -->
<!--zoomable 755 -->
<svg id="main" version="1.1" xmlns="http://www.w3.org/2000/svg" xmlns:xlink="http://www.w3.org/1999/xlink" xml:space="preserve" onload="init(evt)">
<style type="text/css"><![CDATA[
.edge:hover path { stroke: red; }
.edge:hover polygon { stroke: red; fill: red; }
]]></style>
<script type="text/javascript"><![CDATA[
var edges = document.getElementsByTagName('g');
if (edges && edges.length) {
  for (var i=0;i<edges.length;i++) {
    if (edges[i].id.substr(0,4)=='edge') {
      edges[i].setAttribute('class','edge');
    }
  }
}
]]></script>
        <defs>
                <circle id="rim" cx="0" cy="0" r="7"/>
                <circle id="rim2" cx="0" cy="0" r="3.5"/>
                <g id="zoomPlus">
                        <use xlink:href="#rim" fill="#404040">
                                <set attributeName="fill" to="#808080" begin="zoomplus.mouseover" end="zoomplus.mouseout"/>
                        </use>
                        <path d="M-4,0h8M0,-4v8" fill="none" stroke="white" stroke-width="1.5" pointer-events="none"/>
                </g>
                <g id="zoomMin">
                        <use xlink:href="#rim" fill="#404040">
                                <set attributeName="fill" to="#808080" begin="zoomminus.mouseover" end="zoomminus.mouseout"/>
                        </use>
                        <path d="M-4,0h8" fill="none" stroke="white" stroke-width="1.5" pointer-events="none"/>
                </g>
                <g id="dirArrow">
                        <path fill="none" stroke="white" stroke-width="1.5" d="M0,-3.0v7 M-2.5,-0.5L0,-3.0L2.5,-0.5"/>
                </g>
               <g id="resetDef">
                       <use xlink:href="#rim2" fill="#404040">
                               <set attributeName="fill" to="#808080" begin="reset.mouseover" end="reset.mouseout"/>
                       </use>
               </g>
        </defs>

<script type="text/javascript">
var viewWidth = 1232;
var viewHeight = 755;
var sectionId = 'dynsection-1';
</script>
<script xlink:href="svgpan.js"/>
<svg id="graph" class="graph">
<g id="viewport">
<title>NPNZ_FILTER_PARAMS_s</title>
<polygon fill="white" stroke="transparent" points="-4,4 -4,-751 1228,-751 1228,4 -4,4"/>
<!-- Node1 -->
<g id="node1" class="node">
<title>Node1</title>
<g id="a_node1"><a xlink:title="Filter Coefficient Arrays, Number Format Handling and Input/Output History Parameters.">
<polygon fill="#bfbfbf" stroke="black" points="495,-546.5 495,-746.5 632,-746.5 632,-546.5 495,-546.5"/>
<text text-anchor="middle" x="563.5" y="-734.5" font-family="Helvetica,sans-Serif" font-size="10.00">NPNZ_FILTER_PARAMS_s</text>
<polyline fill="none" stroke="black" points="495,-727.5 632,-727.5 "/>
<text text-anchor="start" x="503" y="-715.5" font-family="Helvetica,sans-Serif" font-size="10.00">+ ptrACoefficients</text>
<text text-anchor="start" x="503" y="-704.5" font-family="Helvetica,sans-Serif" font-size="10.00">+ ptrBCoefficients</text>
<text text-anchor="start" x="503" y="-693.5" font-family="Helvetica,sans-Serif" font-size="10.00">+ ptrControlHistory</text>
<text text-anchor="start" x="503" y="-682.5" font-family="Helvetica,sans-Serif" font-size="10.00">+ ptrErrorHistory</text>
<text text-anchor="start" x="503" y="-671.5" font-family="Helvetica,sans-Serif" font-size="10.00">+ ACoefficientsArraySize</text>
<text text-anchor="start" x="503" y="-660.5" font-family="Helvetica,sans-Serif" font-size="10.00">+ BCoefficientsArraySize</text>
<text text-anchor="start" x="503" y="-649.5" font-family="Helvetica,sans-Serif" font-size="10.00">+ ControlHistoryArraySize</text>
<text text-anchor="start" x="503" y="-638.5" font-family="Helvetica,sans-Serif" font-size="10.00">+ ErrorHistoryArraySize</text>
<text text-anchor="start" x="503" y="-627.5" font-family="Helvetica,sans-Serif" font-size="10.00">+ normPreShift</text>
<text text-anchor="start" x="503" y="-616.5" font-family="Helvetica,sans-Serif" font-size="10.00">+ normPostShiftA</text>
<text text-anchor="start" x="503" y="-605.5" font-family="Helvetica,sans-Serif" font-size="10.00">+ normPostShiftB</text>
<text text-anchor="start" x="503" y="-594.5" font-family="Helvetica,sans-Serif" font-size="10.00">+ normPostScaler</text>
<text text-anchor="start" x="503" y="-583.5" font-family="Helvetica,sans-Serif" font-size="10.00">+ PTermScaler</text>
<text text-anchor="start" x="503" y="-572.5" font-family="Helvetica,sans-Serif" font-size="10.00">+ PTermFactor</text>
<polyline fill="none" stroke="black" points="495,-565.5 632,-565.5 "/>
<text text-anchor="middle" x="563.5" y="-553.5" font-family="Helvetica,sans-Serif" font-size="10.00"> </text>
</a>
</g>
</g>
<!-- Node2 -->
<g id="node2" class="node">
<title>Node2</title>
<g id="a_node2"><a xlink:href="a01736.html" target="_top" xlink:title="Global NPNZ controller data object.">
<polygon fill="white" stroke="black" points="529.5,-441.5 529.5,-498.5 597.5,-498.5 597.5,-441.5 529.5,-441.5"/>
<text text-anchor="middle" x="563.5" y="-486.5" font-family="Helvetica,sans-Serif" font-size="10.00">NPNZ16b_s</text>
<polyline fill="none" stroke="black" points="529.5,-479.5 597.5,-479.5 "/>
<text text-anchor="middle" x="563.5" y="-467.5" font-family="Helvetica,sans-Serif" font-size="10.00"> </text>
<polyline fill="none" stroke="black" points="529.5,-460.5 597.5,-460.5 "/>
<text text-anchor="middle" x="563.5" y="-448.5" font-family="Helvetica,sans-Serif" font-size="10.00"> </text>
</a>
</g>
</g>
<!-- Node1&#45;&gt;Node2 -->
<g id="edge14" class="edge">
<title>Node1&#45;&gt;Node2</title>
<path fill="none" stroke="#404040" d="M534.28,-546.32C534.09,-536.38 535.01,-526.47 537.5,-517 538.14,-514.57 538.94,-512.14 539.85,-509.73"/>
<polygon fill="none" stroke="#404040" points="539.89,-509.65 538.73,-502.53 544.86,-498.73 546.01,-505.85 539.89,-509.65"/>
<text text-anchor="middle" x="553" y="-520" font-family="Helvetica,sans-Serif" font-size="10.00"> +Filter</text>
</g>
<!-- Node2&#45;&gt;Node1 -->
<g id="edge1" class="edge">
<title>Node2&#45;&gt;Node1</title>
<path fill="none" stroke="midnightblue" d="M571.48,-508.69C571.89,-511.49 572.24,-514.28 572.5,-517 573.42,-526.46 573.78,-536.32 573.75,-546.19"/>
<polygon fill="none" stroke="midnightblue" points="574.9,-507.89 569.8,-498.6 567.99,-509.04 574.9,-507.89"/>
</g>
<!-- Node3 -->
<g id="node3" class="node">
<title>Node3</title>
<g id="a_node3"><a xlink:href="a01716.html" target="_top" xlink:title="Automated ADC Trigger handling.">
<polygon fill="white" stroke="black" points="0,-237.5 0,-327.5 129,-327.5 129,-237.5 0,-237.5"/>
<text text-anchor="middle" x="64.5" y="-315.5" font-family="Helvetica,sans-Serif" font-size="10.00">NPNZ_ADC_TRGCTRL_s</text>
<polyline fill="none" stroke="black" points="0,-308.5 129,-308.5 "/>
<text text-anchor="start" x="8" y="-296.5" font-family="Helvetica,sans-Serif" font-size="10.00">+ ptrADCTriggerARegister</text>
<text text-anchor="start" x="8" y="-285.5" font-family="Helvetica,sans-Serif" font-size="10.00">+ ADCTriggerAOffset</text>
<text text-anchor="start" x="8" y="-274.5" font-family="Helvetica,sans-Serif" font-size="10.00">+ ptrADCTriggerBRegister</text>
<text text-anchor="start" x="8" y="-263.5" font-family="Helvetica,sans-Serif" font-size="10.00">+ ADCTriggerBOffset</text>
<polyline fill="none" stroke="black" points="0,-256.5 129,-256.5 "/>
<text text-anchor="middle" x="64.5" y="-244.5" font-family="Helvetica,sans-Serif" font-size="10.00"> </text>
</a>
</g>
</g>
<!-- Node2&#45;&gt;Node3 -->
<g id="edge3" class="edge">
<title>Node2&#45;&gt;Node3</title>
<path fill="none" stroke="midnightblue" d="M519.3,-468.04C428.25,-465.42 223.22,-455.93 162.5,-423 124.64,-402.47 98.16,-360.22 82.35,-327.56"/>
<polygon fill="none" stroke="midnightblue" points="519.21,-471.54 529.3,-468.32 519.4,-464.55 519.21,-471.54"/>
</g>
<!-- Node4 -->
<g id="node4" class="node">
<title>Node4</title>
<g id="a_node4"><a xlink:href="a01728.html" target="_top" xlink:title="Adaptive Gain Control Modulation Parameters.">
<polygon fill="white" stroke="black" points="147.5,-237.5 147.5,-327.5 279.5,-327.5 279.5,-237.5 147.5,-237.5"/>
<text text-anchor="middle" x="213.5" y="-315.5" font-family="Helvetica,sans-Serif" font-size="10.00">NPNZ_GAIN_CONTROL_s</text>
<polyline fill="none" stroke="black" points="147.5,-308.5 279.5,-308.5 "/>
<text text-anchor="start" x="155.5" y="-296.5" font-family="Helvetica,sans-Serif" font-size="10.00">+ AgcScaler</text>
<text text-anchor="start" x="155.5" y="-285.5" font-family="Helvetica,sans-Serif" font-size="10.00">+ AgcFactor</text>
<text text-anchor="start" x="155.5" y="-274.5" font-family="Helvetica,sans-Serif" font-size="10.00">+ AgcMedian</text>
<text text-anchor="start" x="155.5" y="-263.5" font-family="Helvetica,sans-Serif" font-size="10.00">+ ptrAgcObserverFunction</text>
<polyline fill="none" stroke="black" points="147.5,-256.5 279.5,-256.5 "/>
<text text-anchor="middle" x="213.5" y="-244.5" font-family="Helvetica,sans-Serif" font-size="10.00"> </text>
</a>
</g>
</g>
<!-- Node2&#45;&gt;Node4 -->
<g id="edge5" class="edge">
<title>Node2&#45;&gt;Node4</title>
<path fill="none" stroke="midnightblue" d="M518.9,-465.09C455.34,-458.84 342.61,-445 308.5,-423 273.29,-400.29 247.77,-359.43 232.11,-327.77"/>
<polygon fill="none" stroke="midnightblue" points="518.75,-468.59 529.03,-466.07 519.42,-461.63 518.75,-468.59"/>
</g>
<!-- Node5 -->
<g id="node5" class="node">
<title>Node5</title>
<g id="a_node5"><a xlink:href="a01712.html" target="_top" xlink:title="System Anti&#45;Windup (Output Clamping) Thresholds.">
<polygon fill="white" stroke="black" points="297.5,-237.5 297.5,-327.5 385.5,-327.5 385.5,-237.5 297.5,-237.5"/>
<text text-anchor="middle" x="341.5" y="-315.5" font-family="Helvetica,sans-Serif" font-size="10.00">NPNZ_LIMITS_s</text>
<polyline fill="none" stroke="black" points="297.5,-308.5 385.5,-308.5 "/>
<text text-anchor="start" x="305.5" y="-296.5" font-family="Helvetica,sans-Serif" font-size="10.00">+ MinOutput</text>
<text text-anchor="start" x="305.5" y="-285.5" font-family="Helvetica,sans-Serif" font-size="10.00">+ MaxOutput</text>
<text text-anchor="start" x="305.5" y="-274.5" font-family="Helvetica,sans-Serif" font-size="10.00">+ AltMinOutput</text>
<text text-anchor="start" x="305.5" y="-263.5" font-family="Helvetica,sans-Serif" font-size="10.00">+ AltMaxOutput</text>
<polyline fill="none" stroke="black" points="297.5,-256.5 385.5,-256.5 "/>
<text text-anchor="middle" x="341.5" y="-244.5" font-family="Helvetica,sans-Serif" font-size="10.00"> </text>
</a>
</g>
</g>
<!-- Node2&#45;&gt;Node5 -->
<g id="edge7" class="edge">
<title>Node2&#45;&gt;Node5</title>
<path fill="none" stroke="midnightblue" d="M519.39,-463.25C487.75,-457.36 445.42,-445.7 414.5,-423 382.99,-399.87 363.91,-359.05 353.2,-327.52"/>
<polygon fill="none" stroke="midnightblue" points="518.81,-466.7 529.26,-464.97 520.01,-459.81 518.81,-466.7"/>
</g>
<!-- Node6 -->
<g id="node6" class="node">
<title>Node6</title>
<g id="a_node6"><a xlink:href="a01732.html" target="_top" xlink:title="User Data Space for Advanced Control Functions.">
<polygon fill="white" stroke="black" points="403.5,-215.5 403.5,-349.5 563.5,-349.5 563.5,-215.5 403.5,-215.5"/>
<text text-anchor="middle" x="483.5" y="-337.5" font-family="Helvetica,sans-Serif" font-size="10.00">NPNZ_USER_DATA_BUFFER_s</text>
<polyline fill="none" stroke="black" points="403.5,-330.5 563.5,-330.5 "/>
<text text-anchor="start" x="411.5" y="-318.5" font-family="Helvetica,sans-Serif" font-size="10.00">+ usrParam0</text>
<text text-anchor="start" x="411.5" y="-307.5" font-family="Helvetica,sans-Serif" font-size="10.00">+ usrParam1</text>
<text text-anchor="start" x="411.5" y="-296.5" font-family="Helvetica,sans-Serif" font-size="10.00">+ usrParam2</text>
<text text-anchor="start" x="411.5" y="-285.5" font-family="Helvetica,sans-Serif" font-size="10.00">+ usrParam3</text>
<text text-anchor="start" x="411.5" y="-274.5" font-family="Helvetica,sans-Serif" font-size="10.00">+ usrParam4</text>
<text text-anchor="start" x="411.5" y="-263.5" font-family="Helvetica,sans-Serif" font-size="10.00">+ usrParam5</text>
<text text-anchor="start" x="411.5" y="-252.5" font-family="Helvetica,sans-Serif" font-size="10.00">+ usrParam6</text>
<text text-anchor="start" x="411.5" y="-241.5" font-family="Helvetica,sans-Serif" font-size="10.00">+ usrParam7</text>
<polyline fill="none" stroke="black" points="403.5,-234.5 563.5,-234.5 "/>
<text text-anchor="middle" x="483.5" y="-222.5" font-family="Helvetica,sans-Serif" font-size="10.00"> </text>
</a>
</g>
</g>
<!-- Node2&#45;&gt;Node6 -->
<g id="edge9" class="edge">
<title>Node2&#45;&gt;Node6</title>
<path fill="none" stroke="midnightblue" d="M525.62,-433.71C522.98,-430.26 520.56,-426.67 518.5,-423 506,-400.66 497.9,-373.85 492.68,-349.73"/>
<polygon fill="none" stroke="midnightblue" points="523.02,-436.05 532.11,-441.48 528.39,-431.56 523.02,-436.05"/>
</g>
<!-- Node7 -->
<g id="node7" class="node">
<title>Node7</title>
<g id="a_node7"><a xlink:href="a01704.html" target="_top" xlink:title="Filter Coefficient Arrays, Number Format Handling and Input/Output History Parameters.">
<polygon fill="white" stroke="black" points="582,-254 582,-311 693,-311 693,-254 582,-254"/>
<text text-anchor="middle" x="637.5" y="-299" font-family="Helvetica,sans-Serif" font-size="10.00">NPNZ_PORTS_s</text>
<polyline fill="none" stroke="black" points="582,-292 693,-292 "/>
<text text-anchor="start" x="590" y="-280" font-family="Helvetica,sans-Serif" font-size="10.00">+ ptrControlReference</text>
<polyline fill="none" stroke="black" points="582,-273 693,-273 "/>
<text text-anchor="middle" x="637.5" y="-261" font-family="Helvetica,sans-Serif" font-size="10.00"> </text>
</a>
</g>
</g>
<!-- Node2&#45;&gt;Node7 -->
<g id="edge11" class="edge">
<title>Node2&#45;&gt;Node7</title>
<path fill="none" stroke="midnightblue" d="M579.68,-432.15C580.99,-429.06 582.28,-425.98 583.5,-423 599.34,-384.44 616.54,-339.4 627.17,-311.16"/>
<polygon fill="none" stroke="midnightblue" points="576.46,-430.78 575.74,-441.35 582.89,-433.53 576.46,-430.78"/>
</g>
<!-- Node9 -->
<g id="node9" class="node">
<title>Node9</title>
<g id="a_node9"><a xlink:href="a01720.html" target="_top" xlink:title="Data Provider Target Memory Addresses.">
<polygon fill="white" stroke="black" points="711.5,-237.5 711.5,-327.5 885.5,-327.5 885.5,-237.5 711.5,-237.5"/>
<text text-anchor="middle" x="798.5" y="-315.5" font-family="Helvetica,sans-Serif" font-size="10.00">NPNZ_DATA_PROVIDERS_s</text>
<polyline fill="none" stroke="black" points="711.5,-308.5 885.5,-308.5 "/>
<text text-anchor="start" x="719.5" y="-296.5" font-family="Helvetica,sans-Serif" font-size="10.00">+ ptrDProvControlInput</text>
<text text-anchor="start" x="719.5" y="-285.5" font-family="Helvetica,sans-Serif" font-size="10.00">+ ptrDProvControlInputCompensated</text>
<text text-anchor="start" x="719.5" y="-274.5" font-family="Helvetica,sans-Serif" font-size="10.00">+ ptrDProvControlError</text>
<text text-anchor="start" x="719.5" y="-263.5" font-family="Helvetica,sans-Serif" font-size="10.00">+ ptrDProvControlOutput</text>
<polyline fill="none" stroke="black" points="711.5,-256.5 885.5,-256.5 "/>
<text text-anchor="middle" x="798.5" y="-244.5" font-family="Helvetica,sans-Serif" font-size="10.00"> </text>
</a>
</g>
</g>
<!-- Node2&#45;&gt;Node9 -->
<g id="edge16" class="edge">
<title>Node2&#45;&gt;Node9</title>
<path fill="none" stroke="midnightblue" d="M606.63,-448.92C622.51,-441.2 640.52,-432.06 656.5,-423 677.2,-411.26 683.48,-409.53 701.5,-394 724.51,-374.17 747.09,-348.9 764.66,-327.53"/>
<polygon fill="none" stroke="midnightblue" points="605.05,-445.8 597.55,-453.29 608.08,-452.11 605.05,-445.8"/>
</g>
<!-- Node10 -->
<g id="node10" class="node">
<title>Node10</title>
<g id="a_node10"><a xlink:href="a01724.html" target="_top" xlink:title="User Extension Function Call Parameters.">
<polygon fill="white" stroke="black" points="904,-171.5 904,-393.5 1081,-393.5 1081,-171.5 904,-171.5"/>
<text text-anchor="middle" x="992.5" y="-381.5" font-family="Helvetica,sans-Serif" font-size="10.00">NPNZ_EXTENSION_HOOKS_s</text>
<polyline fill="none" stroke="black" points="904,-374.5 1081,-374.5 "/>
<text text-anchor="start" x="912" y="-362.5" font-family="Helvetica,sans-Serif" font-size="10.00">+ ptrExtHookStartFunction</text>
<text text-anchor="start" x="912" y="-351.5" font-family="Helvetica,sans-Serif" font-size="10.00">+ ExtHookStartFunctionParam</text>
<text text-anchor="start" x="912" y="-340.5" font-family="Helvetica,sans-Serif" font-size="10.00">+ ptrExtHookSourceFunction</text>
<text text-anchor="start" x="912" y="-329.5" font-family="Helvetica,sans-Serif" font-size="10.00">+ ExtHookSourceFunctionParam</text>
<text text-anchor="start" x="912" y="-318.5" font-family="Helvetica,sans-Serif" font-size="10.00">+ ptrExtHookPreAntiWindupFunction</text>
<text text-anchor="start" x="912" y="-307.5" font-family="Helvetica,sans-Serif" font-size="10.00">+ ExtHookPreAntiWindupFunction</text>
<text text-anchor="start" x="912" y="-296.5" font-family="Helvetica,sans-Serif" font-size="10.00">Param</text>
<text text-anchor="start" x="912" y="-285.5" font-family="Helvetica,sans-Serif" font-size="10.00">+ ptrExtHookPreTargetWrite</text>
<text text-anchor="start" x="912" y="-274.5" font-family="Helvetica,sans-Serif" font-size="10.00">Function</text>
<text text-anchor="start" x="912" y="-263.5" font-family="Helvetica,sans-Serif" font-size="10.00">+ ExtHookPreTargetWriteFunction</text>
<text text-anchor="start" x="912" y="-252.5" font-family="Helvetica,sans-Serif" font-size="10.00">Param</text>
<text text-anchor="start" x="912" y="-241.5" font-family="Helvetica,sans-Serif" font-size="10.00">+ ptrExtHookEndOfLoopFunction</text>
<text text-anchor="start" x="912" y="-230.5" font-family="Helvetica,sans-Serif" font-size="10.00">+ ExtHookEndOfLoopFunction</text>
<text text-anchor="start" x="912" y="-219.5" font-family="Helvetica,sans-Serif" font-size="10.00">Param</text>
<text text-anchor="start" x="912" y="-208.5" font-family="Helvetica,sans-Serif" font-size="10.00">+ ptrExtHookExitFunction</text>
<text text-anchor="start" x="912" y="-197.5" font-family="Helvetica,sans-Serif" font-size="10.00">+ ExtHookExitFunctionParam</text>
<polyline fill="none" stroke="black" points="904,-190.5 1081,-190.5 "/>
<text text-anchor="middle" x="992.5" y="-178.5" font-family="Helvetica,sans-Serif" font-size="10.00"> </text>
</a>
</g>
</g>
<!-- Node2&#45;&gt;Node10 -->
<g id="edge18" class="edge">
<title>Node2&#45;&gt;Node10</title>
<path fill="none" stroke="midnightblue" d="M608.2,-469.27C676.09,-467.54 806.59,-455.67 894.5,-394 897.65,-391.79 900.77,-389.46 903.84,-387.03"/>
<polygon fill="none" stroke="midnightblue" points="607.79,-465.77 597.85,-469.46 607.92,-472.77 607.79,-465.77"/>
</g>
<!-- Node11 -->
<g id="node11" class="node">
<title>Node11</title>
<g id="a_node11"><a xlink:href="a01680.html" target="_top" xlink:title="NPNZ16b controller object status and control word.">
<polygon fill="white" stroke="black" points="1099,-210 1099,-355 1224,-355 1224,-210 1099,-210"/>
<text text-anchor="middle" x="1161.5" y="-343" font-family="Helvetica,sans-Serif" font-size="10.00">NPNZ_STATUS_s</text>
<polyline fill="none" stroke="black" points="1099,-336 1224,-336 "/>
<text text-anchor="start" x="1107" y="-324" font-family="Helvetica,sans-Serif" font-size="10.00">+ lower_saturation_event</text>
<text text-anchor="start" x="1107" y="-313" font-family="Helvetica,sans-Serif" font-size="10.00">+ upper_saturation_event</text>
<text text-anchor="start" x="1107" y="-302" font-family="Helvetica,sans-Serif" font-size="10.00">+ unsigned</text>
<text text-anchor="start" x="1107" y="-291" font-family="Helvetica,sans-Serif" font-size="10.00">+ agc_enabled</text>
<text text-anchor="start" x="1107" y="-280" font-family="Helvetica,sans-Serif" font-size="10.00">+ swap_target</text>
<text text-anchor="start" x="1107" y="-269" font-family="Helvetica,sans-Serif" font-size="10.00">+ swap_source</text>
<text text-anchor="start" x="1107" y="-258" font-family="Helvetica,sans-Serif" font-size="10.00">+ invert_input</text>
<text text-anchor="start" x="1107" y="-247" font-family="Helvetica,sans-Serif" font-size="10.00">+ enabled</text>
<text text-anchor="start" x="1107" y="-236" font-family="Helvetica,sans-Serif" font-size="10.00">+ value</text>
<polyline fill="none" stroke="black" points="1099,-229 1224,-229 "/>
<text text-anchor="middle" x="1161.5" y="-217" font-family="Helvetica,sans-Serif" font-size="10.00"> </text>
</a>
</g>
</g>
<!-- Node2&#45;&gt;Node11 -->
<g id="edge20" class="edge">
<title>Node2&#45;&gt;Node11</title>
<path fill="none" stroke="midnightblue" d="M607.69,-469.15C690.62,-468.43 874.61,-462.1 1023.5,-423 1054.49,-414.86 1065.07,-414.73 1089.5,-394 1102.42,-383.04 1113.89,-369.18 1123.66,-355.02"/>
<polygon fill="none" stroke="midnightblue" points="607.6,-465.65 597.62,-469.21 607.64,-472.65 607.6,-465.65"/>
</g>
<!-- Node3&#45;&gt;Node2 -->
<g id="edge2" class="edge">
<title>Node3&#45;&gt;Node2</title>
<path fill="none" stroke="#404040" d="M86.53,-327.56C99.31,-349.7 117.12,-375.66 138.5,-394 161.59,-413.81 171.28,-414.54 200.5,-423 311.08,-455.01 447.01,-464.75 516.98,-467.71"/>
<polygon fill="none" stroke="#404040" points="517.27,-467.72 523.42,-463.96 529.26,-468.19 523.11,-471.95 517.27,-467.72"/>
<text text-anchor="middle" x="245.5" y="-415" font-family="Helvetica,sans-Serif" font-size="10.00"> +ADCTriggerControl</text>
</g>
<!-- Node4&#45;&gt;Node2 -->
<g id="edge4" class="edge">
<title>Node4&#45;&gt;Node2</title>
<path fill="none" stroke="#404040" d="M237.18,-327.52C250.33,-349.26 268.14,-374.87 288.5,-394 351.62,-453.33 457,-466.59 517.33,-469.04"/>
<polygon fill="none" stroke="#404040" points="517.5,-469.05 523.62,-465.23 529.49,-469.41 523.37,-473.23 517.5,-469.05"/>
<text text-anchor="middle" x="356" y="-415" font-family="Helvetica,sans-Serif" font-size="10.00"> +GainControl</text>
</g>
<!-- Node5&#45;&gt;Node2 -->
<g id="edge6" class="edge">
<title>Node5&#45;&gt;Node2</title>
<path fill="none" stroke="#404040" d="M354.55,-327.77C362.97,-349.98 375.88,-375.92 394.5,-394 428.74,-427.25 480.22,-447.17 517.36,-458.04"/>
<polygon fill="none" stroke="#404040" points="517.8,-458.16 524.66,-455.92 529.36,-461.38 522.51,-463.63 517.8,-458.16"/>
<text text-anchor="middle" x="448.5" y="-415" font-family="Helvetica,sans-Serif" font-size="10.00"> +Limits</text>
</g>
<!-- Node6&#45;&gt;Node2 -->
<g id="edge8" class="edge">
<title>Node6&#45;&gt;Node2</title>
<path fill="none" stroke="#404040" d="M499.11,-349.68C506.08,-373.54 515.49,-400.19 527.5,-423 529,-425.85 530.68,-428.69 532.47,-431.5"/>
<polygon fill="none" stroke="#404040" points="532.5,-431.53 539.2,-434.17 539.34,-441.38 532.63,-438.74 532.5,-431.53"/>
<text text-anchor="middle" x="553.5" y="-415" font-family="Helvetica,sans-Serif" font-size="10.00"> +Advanced</text>
</g>
<!-- Node7&#45;&gt;Node2 -->
<g id="edge10" class="edge">
<title>Node7&#45;&gt;Node2</title>
<path fill="none" stroke="#404040" d="M637.89,-311.16C637.18,-340.6 632.72,-387.71 613.5,-423 611.34,-426.96 608.71,-430.77 605.8,-434.37"/>
<polygon fill="none" stroke="#404040" points="605.64,-434.55 604.56,-441.68 597.56,-443.43 598.64,-436.3 605.64,-434.55"/>
<text text-anchor="middle" x="636" y="-415" font-family="Helvetica,sans-Serif" font-size="10.00"> +Ports</text>
</g>
<!-- Node8 -->
<g id="node8" class="node">
<title>Node8</title>
<g id="a_node8"><a xlink:href="a01700.html" target="_top" xlink:title="Data Input/Output Port declaration of memory addresses, signal offsets and normalization settings.">
<polygon fill="white" stroke="black" points="594.5,-0.5 594.5,-90.5 678.5,-90.5 678.5,-0.5 594.5,-0.5"/>
<text text-anchor="middle" x="636.5" y="-78.5" font-family="Helvetica,sans-Serif" font-size="10.00">NPNZ_PORT_s</text>
<polyline fill="none" stroke="black" points="594.5,-71.5 678.5,-71.5 "/>
<text text-anchor="start" x="602.5" y="-59.5" font-family="Helvetica,sans-Serif" font-size="10.00">+ ptrAddress</text>
<text text-anchor="start" x="602.5" y="-48.5" font-family="Helvetica,sans-Serif" font-size="10.00">+ NormScaler</text>
<text text-anchor="start" x="602.5" y="-37.5" font-family="Helvetica,sans-Serif" font-size="10.00">+ NormFactor</text>
<text text-anchor="start" x="602.5" y="-26.5" font-family="Helvetica,sans-Serif" font-size="10.00">+ Offset</text>
<polyline fill="none" stroke="black" points="594.5,-19.5 678.5,-19.5 "/>
<text text-anchor="middle" x="636.5" y="-7.5" font-family="Helvetica,sans-Serif" font-size="10.00"> </text>
</a>
</g>
</g>
<!-- Node7&#45;&gt;Node8 -->
<g id="edge13" class="edge">
<title>Node7&#45;&gt;Node8</title>
<path fill="none" stroke="midnightblue" d="M636.11,-243.48C635.01,-208.53 633.76,-155.28 634.5,-109 634.6,-103.03 634.74,-96.74 634.91,-90.54"/>
<polygon fill="none" stroke="midnightblue" points="632.62,-243.84 636.45,-253.72 639.62,-243.61 632.62,-243.84"/>
</g>
<!-- Node8&#45;&gt;Node7 -->
<g id="edge12" class="edge">
<title>Node8&#45;&gt;Node7</title>
<path fill="none" stroke="#404040" d="M636.69,-90.76C636.87,-134.12 637.15,-199.59 637.33,-241.44"/>
<polygon fill="none" stroke="#404040" points="637.33,-241.62 641.36,-247.6 637.38,-253.62 633.36,-247.64 637.33,-241.62"/>
<text text-anchor="middle" x="663.5" y="-145" font-family="Helvetica,sans-Serif" font-size="10.00"> +AltSource</text>
<text text-anchor="middle" x="663.5" y="-134" font-family="Helvetica,sans-Serif" font-size="10.00">+AltTarget</text>
<text text-anchor="middle" x="663.5" y="-123" font-family="Helvetica,sans-Serif" font-size="10.00">+Source</text>
<text text-anchor="middle" x="663.5" y="-112" font-family="Helvetica,sans-Serif" font-size="10.00">+Target</text>
</g>
<!-- Node9&#45;&gt;Node2 -->
<g id="edge15" class="edge">
<title>Node9&#45;&gt;Node2</title>
<path fill="none" stroke="#404040" d="M790.19,-327.65C782.12,-358.61 766.77,-398.66 738.5,-423 702.7,-453.82 648.58,-464.3 610.02,-467.71"/>
<polygon fill="none" stroke="#404040" points="609.8,-467.73 604.11,-472.15 597.83,-468.6 603.53,-464.17 609.8,-467.73"/>
<text text-anchor="middle" x="782.5" y="-415" font-family="Helvetica,sans-Serif" font-size="10.00"> +DataProviders</text>
</g>
<!-- Node10&#45;&gt;Node2 -->
<g id="edge17" class="edge">
<title>Node10&#45;&gt;Node2</title>
<path fill="none" stroke="#404040" d="M953.57,-393.52C945.78,-404.83 936.51,-415.06 925.5,-423 875.96,-458.72 695.7,-466.73 609.72,-468.5"/>
<polygon fill="none" stroke="#404040" points="609.5,-468.51 603.58,-472.62 597.51,-468.73 603.43,-464.62 609.5,-468.51"/>
<text text-anchor="middle" x="979" y="-415" font-family="Helvetica,sans-Serif" font-size="10.00"> +ExtensionHooks</text>
</g>
<!-- Node11&#45;&gt;Node2 -->
<g id="edge19" class="edge">
<title>Node11&#45;&gt;Node2</title>
<path fill="none" stroke="#404040" d="M1151.56,-355.06C1144.35,-380.4 1131.92,-406.65 1110.5,-423 1071.09,-453.09 734.29,-464.66 609.64,-467.93"/>
<polygon fill="none" stroke="#404040" points="609.57,-467.93 603.67,-472.09 597.57,-468.24 603.46,-464.09 609.57,-467.93"/>
<text text-anchor="middle" x="1141" y="-415" font-family="Helvetica,sans-Serif" font-size="10.00"> +status</text>
</g>
</g>
</svg>
        <g id="navigator" transform="translate(0 0)" fill="#404254">
                <rect fill="#f2f5e9" fill-opacity="0.5" stroke="#606060" stroke-width=".5" x="0" y="0" width="60" height="60"/>
                <use id="zoomplus" xlink:href="#zoomPlus" x="17" y="9" onmousedown="handleZoom(evt,'in')"/>
                <use id="zoomminus" xlink:href="#zoomMin" x="42" y="9" onmousedown="handleZoom(evt,'out')"/>
                <use id="reset" xlink:href="#resetDef" x="30" y="36" onmousedown="handleReset()"/>
                <g id="arrowUp" xlink:href="#dirArrow" transform="translate(30 24)" onmousedown="handlePan(0,-1)">
                  <use xlink:href="#rim" fill="#404040">
                        <set attributeName="fill" to="#808080" begin="arrowUp.mouseover" end="arrowUp.mouseout"/>
                  </use>
                  <path fill="none" stroke="white" stroke-width="1.5" d="M0,-3.0v7 M-2.5,-0.5L0,-3.0L2.5,-0.5"/>
                </g>
                <g id="arrowRight" xlink:href="#dirArrow" transform="rotate(90) translate(36 -43)" onmousedown="handlePan(1,0)">
                  <use xlink:href="#rim" fill="#404040">
                        <set attributeName="fill" to="#808080" begin="arrowRight.mouseover" end="arrowRight.mouseout"/>
                  </use>
                  <path fill="none" stroke="white" stroke-width="1.5" d="M0,-3.0v7 M-2.5,-0.5L0,-3.0L2.5,-0.5"/>
                </g>
                <g id="arrowDown" xlink:href="#dirArrow" transform="rotate(180) translate(-30 -48)" onmousedown="handlePan(0,1)">
                  <use xlink:href="#rim" fill="#404040">
                        <set attributeName="fill" to="#808080" begin="arrowDown.mouseover" end="arrowDown.mouseout"/>
                  </use>
                  <path fill="none" stroke="white" stroke-width="1.5" d="M0,-3.0v7 M-2.5,-0.5L0,-3.0L2.5,-0.5"/>
                </g>
                <g id="arrowLeft" xlink:href="#dirArrow" transform="rotate(270) translate(-36 17)" onmousedown="handlePan(-1,0)">
                  <use xlink:href="#rim" fill="#404040">
                        <set attributeName="fill" to="#808080" begin="arrowLeft.mouseover" end="arrowLeft.mouseout"/>
                  </use>
                  <path fill="none" stroke="white" stroke-width="1.5" d="M0,-3.0v7 M-2.5,-0.5L0,-3.0L2.5,-0.5"/>
                </g>
        </g>
        <svg viewBox="0 0 15 15" width="100%" height="30px" preserveAspectRatio="xMaxYMin meet">
         <g id="arrow_out" transform="scale(0.3 0.3)">
          <a xlink:href="a01706_org.svg" target="_base">
           <rect id="button" ry="5" rx="5" y="6" x="6" height="38" width="38"
                fill="#f2f5e9" fill-opacity="0.5" stroke="#606060" stroke-width="1.0"/>
           <path id="arrow"
             d="M 11.500037,31.436501 C 11.940474,20.09759 22.043105,11.32322 32.158766,21.979434 L 37.068811,17.246167 C 37.068811,17.246167 37.088388,32 37.088388,32 L 22.160133,31.978069 C 22.160133,31.978069 26.997745,27.140456 26.997745,27.140456 C 18.528582,18.264221 13.291696,25.230495 11.500037,31.436501 z"
             style="fill:#404040;"/>
          </a>
         </g>
        </svg>
</svg>
