<?xml version="1.0" encoding="UTF-8" standalone="no"?>
<!DOCTYPE svg PUBLIC "-//W3C//DTD SVG 1.1//EN"
 "http://www.w3.org/Graphics/SVG/1.1/DTD/svg11.dtd">
<!-- Generated by graphviz version 2.44.1 (20200629.0846)
 -->
<!-- Title: NPNZ_DATA_PROVIDERS_s Pages: 1 -->
<svg width="182pt" height="281pt"
 viewBox="0.00 0.00 182.00 281.00" xmlns="http://www.w3.org/2000/svg" xmlns:xlink="http://www.w3.org/1999/xlink">
<g id="graph0" class="graph" transform="scale(1 1) rotate(0) translate(4 277)">
<title>NPNZ_DATA_PROVIDERS_s</title>
<polygon fill="white" stroke="transparent" points="-4,4 -4,-277 178,-277 178,4 -4,4"/>
<!-- Node1 -->
<g id="node1" class="node">
<title>Node1</title>
<g id="a_node1"><a xlink:title="Data Provider Target Memory Addresses.">
<polygon fill="#bfbfbf" stroke="black" points="0,-0.5 0,-90.5 174,-90.5 174,-0.5 0,-0.5"/>
<text text-anchor="middle" x="87" y="-78.5" font-family="Helvetica,sans-Serif" font-size="10.00">NPNZ_DATA_PROVIDERS_s</text>
<polyline fill="none" stroke="black" points="0,-71.5 174,-71.5 "/>
<text text-anchor="start" x="8" y="-59.5" font-family="Helvetica,sans-Serif" font-size="10.00">+ ptrDProvControlInput</text>
<text text-anchor="start" x="8" y="-48.5" font-family="Helvetica,sans-Serif" font-size="10.00">+ ptrDProvControlInputCompensated</text>
<text text-anchor="start" x="8" y="-37.5" font-family="Helvetica,sans-Serif" font-size="10.00">+ ptrDProvControlError</text>
<text text-anchor="start" x="8" y="-26.5" font-family="Helvetica,sans-Serif" font-size="10.00">+ ptrDProvControlOutput</text>
<polyline fill="none" stroke="black" points="0,-19.5 174,-19.5 "/>
<text text-anchor="middle" x="87" y="-7.5" font-family="Helvetica,sans-Serif" font-size="10.00"> </text>
</a>
</g>
</g>
<!-- Node2 -->
<g id="node2" class="node">
<title>Node2</title>
<g id="a_node2"><a xlink:href="a01736.html" target="_top" xlink:title="Global NPNZ controller data object.">
<polygon fill="white" stroke="black" points="34,-127.5 34,-272.5 140,-272.5 140,-127.5 34,-127.5"/>
<text text-anchor="middle" x="87" y="-260.5" font-family="Helvetica,sans-Serif" font-size="10.00">NPNZ16b_s</text>
<polyline fill="none" stroke="black" points="34,-253.5 140,-253.5 "/>
<text text-anchor="start" x="42" y="-241.5" font-family="Helvetica,sans-Serif" font-size="10.00">+ status</text>
<text text-anchor="start" x="42" y="-230.5" font-family="Helvetica,sans-Serif" font-size="10.00">+ Ports</text>
<text text-anchor="start" x="42" y="-219.5" font-family="Helvetica,sans-Serif" font-size="10.00">+ Filter</text>
<text text-anchor="start" x="42" y="-208.5" font-family="Helvetica,sans-Serif" font-size="10.00">+ GainControl</text>
<text text-anchor="start" x="42" y="-197.5" font-family="Helvetica,sans-Serif" font-size="10.00">+ Limits</text>
<text text-anchor="start" x="42" y="-186.5" font-family="Helvetica,sans-Serif" font-size="10.00">+ ADCTriggerControl</text>
<text text-anchor="start" x="42" y="-175.5" font-family="Helvetica,sans-Serif" font-size="10.00">+ DataProviders</text>
<text text-anchor="start" x="42" y="-164.5" font-family="Helvetica,sans-Serif" font-size="10.00">+ ExtensionHooks</text>
<text text-anchor="start" x="42" y="-153.5" font-family="Helvetica,sans-Serif" font-size="10.00">+ Advanced</text>
<polyline fill="none" stroke="black" points="34,-146.5 140,-146.5 "/>
<text text-anchor="middle" x="87" y="-134.5" font-family="Helvetica,sans-Serif" font-size="10.00"> </text>
</a>
</g>
</g>
<!-- Node2&#45;&gt;Node1 -->
<g id="edge1" class="edge">
<title>Node2&#45;&gt;Node1</title>
<path fill="none" stroke="midnightblue" d="M87,-116.94C87,-107.86 87,-98.88 87,-90.54"/>
<polygon fill="none" stroke="midnightblue" points="83.5,-117.22 87,-127.22 90.5,-117.22 83.5,-117.22"/>
</g>
</g>
</svg>
