<?xml version="1.0" encoding="UTF-8" standalone="no"?>
<!DOCTYPE svg PUBLIC "-//W3C//DTD SVG 1.1//EN"
 "http://www.w3.org/Graphics/SVG/1.1/DTD/svg11.dtd">
<!-- Generated by graphviz version 2.44.1 (20200629.0846)
 -->
<!-- Title: NPNZ16b_s Pages: 1 -->
<svg width="1387pt" height="507pt"
 viewBox="0.00 0.00 1387.00 507.00" xmlns="http://www.w3.org/2000/svg" xmlns:xlink="http://www.w3.org/1999/xlink">
<g id="graph0" class="graph" transform="scale(1 1) rotate(0) translate(4 503)">
<title>NPNZ16b_s</title>
<polygon fill="white" stroke="transparent" points="-4,4 -4,-503 1383,-503 1383,4 -4,4"/>
<!-- Node1 -->
<g id="node1" class="node">
<title>Node1</title>
<g id="a_node1"><a xlink:title="Global NPNZ controller data object.">
<polygon fill="#bfbfbf" stroke="black" points="594.5,-441.5 594.5,-498.5 662.5,-498.5 662.5,-441.5 594.5,-441.5"/>
<text text-anchor="middle" x="628.5" y="-486.5" font-family="Helvetica,sans-Serif" font-size="10.00">NPNZ16b_s</text>
<polyline fill="none" stroke="black" points="594.5,-479.5 662.5,-479.5 "/>
<text text-anchor="middle" x="628.5" y="-467.5" font-family="Helvetica,sans-Serif" font-size="10.00"> </text>
<polyline fill="none" stroke="black" points="594.5,-460.5 662.5,-460.5 "/>
<text text-anchor="middle" x="628.5" y="-448.5" font-family="Helvetica,sans-Serif" font-size="10.00"> </text>
</a>
</g>
</g>
<!-- Node2 -->
<g id="node2" class="node">
<title>Node2</title>
<g id="a_node2"><a xlink:href="a01716.html" target="_top" xlink:title="Automated ADC Trigger handling.">
<polygon fill="white" stroke="black" points="0,-237.5 0,-327.5 129,-327.5 129,-237.5 0,-237.5"/>
<text text-anchor="middle" x="64.5" y="-315.5" font-family="Helvetica,sans-Serif" font-size="10.00">NPNZ_ADC_TRGCTRL_s</text>
<polyline fill="none" stroke="black" points="0,-308.5 129,-308.5 "/>
<text text-anchor="start" x="8" y="-296.5" font-family="Helvetica,sans-Serif" font-size="10.00">+ ptrADCTriggerARegister</text>
<text text-anchor="start" x="8" y="-285.5" font-family="Helvetica,sans-Serif" font-size="10.00">+ ADCTriggerAOffset</text>
<text text-anchor="start" x="8" y="-274.5" font-family="Helvetica,sans-Serif" font-size="10.00">+ ptrADCTriggerBRegister</text>
<text text-anchor="start" x="8" y="-263.5" font-family="Helvetica,sans-Serif" font-size="10.00">+ ADCTriggerBOffset</text>
<polyline fill="none" stroke="black" points="0,-256.5 129,-256.5 "/>
<text text-anchor="middle" x="64.5" y="-244.5" font-family="Helvetica,sans-Serif" font-size="10.00"> </text>
</a>
</g>
</g>
<!-- Node1&#45;&gt;Node2 -->
<g id="edge2" class="edge">
<title>Node1&#45;&gt;Node2</title>
<path fill="none" stroke="midnightblue" d="M583.99,-468.98C481.79,-468.24 233.6,-462.32 161.5,-423 123.82,-402.45 97.64,-360.2 82.05,-327.55"/>
<polygon fill="none" stroke="midnightblue" points="584.26,-472.48 594.28,-469.04 584.3,-465.48 584.26,-472.48"/>
</g>
<!-- Node3 -->
<g id="node3" class="node">
<title>Node3</title>
<g id="a_node3"><a xlink:href="a01728.html" target="_top" xlink:title="Adaptive Gain Control Modulation Parameters.">
<polygon fill="white" stroke="black" points="147.5,-237.5 147.5,-327.5 279.5,-327.5 279.5,-237.5 147.5,-237.5"/>
<text text-anchor="middle" x="213.5" y="-315.5" font-family="Helvetica,sans-Serif" font-size="10.00">NPNZ_GAIN_CONTROL_s</text>
<polyline fill="none" stroke="black" points="147.5,-308.5 279.5,-308.5 "/>
<text text-anchor="start" x="155.5" y="-296.5" font-family="Helvetica,sans-Serif" font-size="10.00">+ AgcScaler</text>
<text text-anchor="start" x="155.5" y="-285.5" font-family="Helvetica,sans-Serif" font-size="10.00">+ AgcFactor</text>
<text text-anchor="start" x="155.5" y="-274.5" font-family="Helvetica,sans-Serif" font-size="10.00">+ AgcMedian</text>
<text text-anchor="start" x="155.5" y="-263.5" font-family="Helvetica,sans-Serif" font-size="10.00">+ ptrAgcObserverFunction</text>
<polyline fill="none" stroke="black" points="147.5,-256.5 279.5,-256.5 "/>
<text text-anchor="middle" x="213.5" y="-244.5" font-family="Helvetica,sans-Serif" font-size="10.00"> </text>
</a>
</g>
</g>
<!-- Node1&#45;&gt;Node3 -->
<g id="edge4" class="edge">
<title>Node1&#45;&gt;Node3</title>
<path fill="none" stroke="midnightblue" d="M584.1,-466.84C507.62,-462.43 354.84,-450.4 309.5,-423 273.27,-401.1 247.42,-359.7 231.74,-327.67"/>
<polygon fill="none" stroke="midnightblue" points="584.19,-470.35 594.37,-467.41 584.58,-463.36 584.19,-470.35"/>
</g>
<!-- Node4 -->
<g id="node4" class="node">
<title>Node4</title>
<g id="a_node4"><a xlink:href="a01712.html" target="_top" xlink:title="System Anti&#45;Windup (Output Clamping) Thresholds.">
<polygon fill="white" stroke="black" points="297.5,-237.5 297.5,-327.5 385.5,-327.5 385.5,-237.5 297.5,-237.5"/>
<text text-anchor="middle" x="341.5" y="-315.5" font-family="Helvetica,sans-Serif" font-size="10.00">NPNZ_LIMITS_s</text>
<polyline fill="none" stroke="black" points="297.5,-308.5 385.5,-308.5 "/>
<text text-anchor="start" x="305.5" y="-296.5" font-family="Helvetica,sans-Serif" font-size="10.00">+ MinOutput</text>
<text text-anchor="start" x="305.5" y="-285.5" font-family="Helvetica,sans-Serif" font-size="10.00">+ MaxOutput</text>
<text text-anchor="start" x="305.5" y="-274.5" font-family="Helvetica,sans-Serif" font-size="10.00">+ AltMinOutput</text>
<text text-anchor="start" x="305.5" y="-263.5" font-family="Helvetica,sans-Serif" font-size="10.00">+ AltMaxOutput</text>
<polyline fill="none" stroke="black" points="297.5,-256.5 385.5,-256.5 "/>
<text text-anchor="middle" x="341.5" y="-244.5" font-family="Helvetica,sans-Serif" font-size="10.00"> </text>
</a>
</g>
</g>
<!-- Node1&#45;&gt;Node4 -->
<g id="edge6" class="edge">
<title>Node1&#45;&gt;Node4</title>
<path fill="none" stroke="midnightblue" d="M584.41,-467.91C539.34,-464.95 468.86,-455.02 417.5,-423 383.56,-401.84 363.69,-359.9 352.83,-327.5"/>
<polygon fill="none" stroke="midnightblue" points="584.28,-471.41 594.46,-468.49 584.68,-464.42 584.28,-471.41"/>
</g>
<!-- Node5 -->
<g id="node5" class="node">
<title>Node5</title>
<g id="a_node5"><a xlink:href="a01732.html" target="_top" xlink:title="User Data Space for Advanced Control Functions.">
<polygon fill="white" stroke="black" points="403.5,-215.5 403.5,-349.5 563.5,-349.5 563.5,-215.5 403.5,-215.5"/>
<text text-anchor="middle" x="483.5" y="-337.5" font-family="Helvetica,sans-Serif" font-size="10.00">NPNZ_USER_DATA_BUFFER_s</text>
<polyline fill="none" stroke="black" points="403.5,-330.5 563.5,-330.5 "/>
<text text-anchor="start" x="411.5" y="-318.5" font-family="Helvetica,sans-Serif" font-size="10.00">+ usrParam0</text>
<text text-anchor="start" x="411.5" y="-307.5" font-family="Helvetica,sans-Serif" font-size="10.00">+ usrParam1</text>
<text text-anchor="start" x="411.5" y="-296.5" font-family="Helvetica,sans-Serif" font-size="10.00">+ usrParam2</text>
<text text-anchor="start" x="411.5" y="-285.5" font-family="Helvetica,sans-Serif" font-size="10.00">+ usrParam3</text>
<text text-anchor="start" x="411.5" y="-274.5" font-family="Helvetica,sans-Serif" font-size="10.00">+ usrParam4</text>
<text text-anchor="start" x="411.5" y="-263.5" font-family="Helvetica,sans-Serif" font-size="10.00">+ usrParam5</text>
<text text-anchor="start" x="411.5" y="-252.5" font-family="Helvetica,sans-Serif" font-size="10.00">+ usrParam6</text>
<text text-anchor="start" x="411.5" y="-241.5" font-family="Helvetica,sans-Serif" font-size="10.00">+ usrParam7</text>
<polyline fill="none" stroke="black" points="403.5,-234.5 563.5,-234.5 "/>
<text text-anchor="middle" x="483.5" y="-222.5" font-family="Helvetica,sans-Serif" font-size="10.00"> </text>
</a>
</g>
</g>
<!-- Node1&#45;&gt;Node5 -->
<g id="edge8" class="edge">
<title>Node1&#45;&gt;Node5</title>
<path fill="none" stroke="midnightblue" d="M585.84,-445.25C576.47,-438.81 567.09,-431.3 559.5,-423 539.96,-401.63 523.66,-374.32 511.23,-349.54"/>
<polygon fill="none" stroke="midnightblue" points="584.11,-448.3 594.39,-450.85 587.94,-442.45 584.11,-448.3"/>
</g>
<!-- Node6 -->
<g id="node6" class="node">
<title>Node6</title>
<g id="a_node6"><a xlink:href="a01704.html" target="_top" xlink:title="Filter Coefficient Arrays, Number Format Handling and Input/Output History Parameters.">
<polygon fill="white" stroke="black" points="582,-254 582,-311 693,-311 693,-254 582,-254"/>
<text text-anchor="middle" x="637.5" y="-299" font-family="Helvetica,sans-Serif" font-size="10.00">NPNZ_PORTS_s</text>
<polyline fill="none" stroke="black" points="582,-292 693,-292 "/>
<text text-anchor="start" x="590" y="-280" font-family="Helvetica,sans-Serif" font-size="10.00">+ ptrControlReference</text>
<polyline fill="none" stroke="black" points="582,-273 693,-273 "/>
<text text-anchor="middle" x="637.5" y="-261" font-family="Helvetica,sans-Serif" font-size="10.00"> </text>
</a>
</g>
</g>
<!-- Node1&#45;&gt;Node6 -->
<g id="edge10" class="edge">
<title>Node1&#45;&gt;Node6</title>
<path fill="none" stroke="midnightblue" d="M627.61,-431.23C627.57,-428.44 627.53,-425.68 627.5,-423 627.08,-384.15 631.09,-339.37 634.16,-311.25"/>
<polygon fill="none" stroke="midnightblue" points="624.11,-431.34 627.8,-441.27 631.11,-431.21 624.11,-431.34"/>
</g>
<!-- Node8 -->
<g id="node8" class="node">
<title>Node8</title>
<g id="a_node8"><a xlink:href="a01708.html" target="_top" xlink:title="Filter Coefficient Arrays, Number Format Handling and Input/Output History Parameters.">
<polygon fill="white" stroke="black" points="711,-182.5 711,-382.5 848,-382.5 848,-182.5 711,-182.5"/>
<text text-anchor="middle" x="779.5" y="-370.5" font-family="Helvetica,sans-Serif" font-size="10.00">NPNZ_FILTER_PARAMS_s</text>
<polyline fill="none" stroke="black" points="711,-363.5 848,-363.5 "/>
<text text-anchor="start" x="719" y="-351.5" font-family="Helvetica,sans-Serif" font-size="10.00">+ ptrACoefficients</text>
<text text-anchor="start" x="719" y="-340.5" font-family="Helvetica,sans-Serif" font-size="10.00">+ ptrBCoefficients</text>
<text text-anchor="start" x="719" y="-329.5" font-family="Helvetica,sans-Serif" font-size="10.00">+ ptrControlHistory</text>
<text text-anchor="start" x="719" y="-318.5" font-family="Helvetica,sans-Serif" font-size="10.00">+ ptrErrorHistory</text>
<text text-anchor="start" x="719" y="-307.5" font-family="Helvetica,sans-Serif" font-size="10.00">+ ACoefficientsArraySize</text>
<text text-anchor="start" x="719" y="-296.5" font-family="Helvetica,sans-Serif" font-size="10.00">+ BCoefficientsArraySize</text>
<text text-anchor="start" x="719" y="-285.5" font-family="Helvetica,sans-Serif" font-size="10.00">+ ControlHistoryArraySize</text>
<text text-anchor="start" x="719" y="-274.5" font-family="Helvetica,sans-Serif" font-size="10.00">+ ErrorHistoryArraySize</text>
<text text-anchor="start" x="719" y="-263.5" font-family="Helvetica,sans-Serif" font-size="10.00">+ normPreShift</text>
<text text-anchor="start" x="719" y="-252.5" font-family="Helvetica,sans-Serif" font-size="10.00">+ normPostShiftA</text>
<text text-anchor="start" x="719" y="-241.5" font-family="Helvetica,sans-Serif" font-size="10.00">+ normPostShiftB</text>
<text text-anchor="start" x="719" y="-230.5" font-family="Helvetica,sans-Serif" font-size="10.00">+ normPostScaler</text>
<text text-anchor="start" x="719" y="-219.5" font-family="Helvetica,sans-Serif" font-size="10.00">+ PTermScaler</text>
<text text-anchor="start" x="719" y="-208.5" font-family="Helvetica,sans-Serif" font-size="10.00">+ PTermFactor</text>
<polyline fill="none" stroke="black" points="711,-201.5 848,-201.5 "/>
<text text-anchor="middle" x="779.5" y="-189.5" font-family="Helvetica,sans-Serif" font-size="10.00"> </text>
</a>
</g>
</g>
<!-- Node1&#45;&gt;Node8 -->
<g id="edge14" class="edge">
<title>Node1&#45;&gt;Node8</title>
<path fill="none" stroke="midnightblue" d="M664.7,-434.1C676.83,-421.82 690.15,-407.66 701.5,-394 704.65,-390.21 707.81,-386.29 710.96,-382.3"/>
<polygon fill="none" stroke="midnightblue" points="661.91,-431.94 657.32,-441.49 666.87,-436.89 661.91,-431.94"/>
</g>
<!-- Node9 -->
<g id="node9" class="node">
<title>Node9</title>
<g id="a_node9"><a xlink:href="a01720.html" target="_top" xlink:title="Data Provider Target Memory Addresses.">
<polygon fill="white" stroke="black" points="866.5,-237.5 866.5,-327.5 1040.5,-327.5 1040.5,-237.5 866.5,-237.5"/>
<text text-anchor="middle" x="953.5" y="-315.5" font-family="Helvetica,sans-Serif" font-size="10.00">NPNZ_DATA_PROVIDERS_s</text>
<polyline fill="none" stroke="black" points="866.5,-308.5 1040.5,-308.5 "/>
<text text-anchor="start" x="874.5" y="-296.5" font-family="Helvetica,sans-Serif" font-size="10.00">+ ptrDProvControlInput</text>
<text text-anchor="start" x="874.5" y="-285.5" font-family="Helvetica,sans-Serif" font-size="10.00">+ ptrDProvControlInputCompensated</text>
<text text-anchor="start" x="874.5" y="-274.5" font-family="Helvetica,sans-Serif" font-size="10.00">+ ptrDProvControlError</text>
<text text-anchor="start" x="874.5" y="-263.5" font-family="Helvetica,sans-Serif" font-size="10.00">+ ptrDProvControlOutput</text>
<polyline fill="none" stroke="black" points="866.5,-256.5 1040.5,-256.5 "/>
<text text-anchor="middle" x="953.5" y="-244.5" font-family="Helvetica,sans-Serif" font-size="10.00"> </text>
</a>
</g>
</g>
<!-- Node1&#45;&gt;Node9 -->
<g id="edge16" class="edge">
<title>Node1&#45;&gt;Node9</title>
<path fill="none" stroke="midnightblue" d="M672.42,-462.3C720.97,-453.23 799.8,-433.41 856.5,-394 882.18,-376.15 905.49,-350.08 922.82,-327.75"/>
<polygon fill="none" stroke="midnightblue" points="671.76,-458.86 662.54,-464.08 673,-465.75 671.76,-458.86"/>
</g>
<!-- Node10 -->
<g id="node10" class="node">
<title>Node10</title>
<g id="a_node10"><a xlink:href="a01724.html" target="_top" xlink:title="User Extension Function Call Parameters.">
<polygon fill="white" stroke="black" points="1059,-171.5 1059,-393.5 1236,-393.5 1236,-171.5 1059,-171.5"/>
<text text-anchor="middle" x="1147.5" y="-381.5" font-family="Helvetica,sans-Serif" font-size="10.00">NPNZ_EXTENSION_HOOKS_s</text>
<polyline fill="none" stroke="black" points="1059,-374.5 1236,-374.5 "/>
<text text-anchor="start" x="1067" y="-362.5" font-family="Helvetica,sans-Serif" font-size="10.00">+ ptrExtHookStartFunction</text>
<text text-anchor="start" x="1067" y="-351.5" font-family="Helvetica,sans-Serif" font-size="10.00">+ ExtHookStartFunctionParam</text>
<text text-anchor="start" x="1067" y="-340.5" font-family="Helvetica,sans-Serif" font-size="10.00">+ ptrExtHookSourceFunction</text>
<text text-anchor="start" x="1067" y="-329.5" font-family="Helvetica,sans-Serif" font-size="10.00">+ ExtHookSourceFunctionParam</text>
<text text-anchor="start" x="1067" y="-318.5" font-family="Helvetica,sans-Serif" font-size="10.00">+ ptrExtHookPreAntiWindupFunction</text>
<text text-anchor="start" x="1067" y="-307.5" font-family="Helvetica,sans-Serif" font-size="10.00">+ ExtHookPreAntiWindupFunction</text>
<text text-anchor="start" x="1067" y="-296.5" font-family="Helvetica,sans-Serif" font-size="10.00">Param</text>
<text text-anchor="start" x="1067" y="-285.5" font-family="Helvetica,sans-Serif" font-size="10.00">+ ptrExtHookPreTargetWrite</text>
<text text-anchor="start" x="1067" y="-274.5" font-family="Helvetica,sans-Serif" font-size="10.00">Function</text>
<text text-anchor="start" x="1067" y="-263.5" font-family="Helvetica,sans-Serif" font-size="10.00">+ ExtHookPreTargetWriteFunction</text>
<text text-anchor="start" x="1067" y="-252.5" font-family="Helvetica,sans-Serif" font-size="10.00">Param</text>
<text text-anchor="start" x="1067" y="-241.5" font-family="Helvetica,sans-Serif" font-size="10.00">+ ptrExtHookEndOfLoopFunction</text>
<text text-anchor="start" x="1067" y="-230.5" font-family="Helvetica,sans-Serif" font-size="10.00">+ ExtHookEndOfLoopFunction</text>
<text text-anchor="start" x="1067" y="-219.5" font-family="Helvetica,sans-Serif" font-size="10.00">Param</text>
<text text-anchor="start" x="1067" y="-208.5" font-family="Helvetica,sans-Serif" font-size="10.00">+ ptrExtHookExitFunction</text>
<text text-anchor="start" x="1067" y="-197.5" font-family="Helvetica,sans-Serif" font-size="10.00">+ ExtHookExitFunctionParam</text>
<polyline fill="none" stroke="black" points="1059,-190.5 1236,-190.5 "/>
<text text-anchor="middle" x="1147.5" y="-178.5" font-family="Helvetica,sans-Serif" font-size="10.00"> </text>
</a>
</g>
</g>
<!-- Node1&#45;&gt;Node10 -->
<g id="edge18" class="edge">
<title>Node1&#45;&gt;Node10</title>
<path fill="none" stroke="midnightblue" d="M672.73,-465.75C767.96,-458.04 988.73,-436.02 1049.5,-394 1052.66,-391.81 1055.79,-389.5 1058.88,-387.09"/>
<polygon fill="none" stroke="midnightblue" points="672.25,-462.28 662.56,-466.56 672.81,-469.26 672.25,-462.28"/>
</g>
<!-- Node11 -->
<g id="node11" class="node">
<title>Node11</title>
<g id="a_node11"><a xlink:href="a01680.html" target="_top" xlink:title="NPNZ16b controller object status and control word.">
<polygon fill="white" stroke="black" points="1254,-210 1254,-355 1379,-355 1379,-210 1254,-210"/>
<text text-anchor="middle" x="1316.5" y="-343" font-family="Helvetica,sans-Serif" font-size="10.00">NPNZ_STATUS_s</text>
<polyline fill="none" stroke="black" points="1254,-336 1379,-336 "/>
<text text-anchor="start" x="1262" y="-324" font-family="Helvetica,sans-Serif" font-size="10.00">+ lower_saturation_event</text>
<text text-anchor="start" x="1262" y="-313" font-family="Helvetica,sans-Serif" font-size="10.00">+ upper_saturation_event</text>
<text text-anchor="start" x="1262" y="-302" font-family="Helvetica,sans-Serif" font-size="10.00">+ unsigned</text>
<text text-anchor="start" x="1262" y="-291" font-family="Helvetica,sans-Serif" font-size="10.00">+ agc_enabled</text>
<text text-anchor="start" x="1262" y="-280" font-family="Helvetica,sans-Serif" font-size="10.00">+ swap_target</text>
<text text-anchor="start" x="1262" y="-269" font-family="Helvetica,sans-Serif" font-size="10.00">+ swap_source</text>
<text text-anchor="start" x="1262" y="-258" font-family="Helvetica,sans-Serif" font-size="10.00">+ invert_input</text>
<text text-anchor="start" x="1262" y="-247" font-family="Helvetica,sans-Serif" font-size="10.00">+ enabled</text>
<text text-anchor="start" x="1262" y="-236" font-family="Helvetica,sans-Serif" font-size="10.00">+ value</text>
<polyline fill="none" stroke="black" points="1254,-229 1379,-229 "/>
<text text-anchor="middle" x="1316.5" y="-217" font-family="Helvetica,sans-Serif" font-size="10.00"> </text>
</a>
</g>
</g>
<!-- Node1&#45;&gt;Node11 -->
<g id="edge20" class="edge">
<title>Node1&#45;&gt;Node11</title>
<path fill="none" stroke="midnightblue" d="M672.94,-467.34C786.76,-462.75 1086.52,-448.55 1182.5,-423 1211.9,-415.17 1221.54,-413.95 1244.5,-394 1257.2,-382.96 1268.55,-369.15 1278.27,-355.07"/>
<polygon fill="none" stroke="midnightblue" points="672.69,-463.84 662.84,-467.74 672.97,-470.84 672.69,-463.84"/>
</g>
<!-- Node2&#45;&gt;Node1 -->
<g id="edge1" class="edge">
<title>Node2&#45;&gt;Node1</title>
<path fill="none" stroke="#404040" d="M86.48,-327.61C99.26,-349.77 117.07,-375.72 138.5,-394 161.95,-414 171.79,-414.8 201.5,-423 336.13,-460.17 502.36,-467.57 581.86,-468.87"/>
<polygon fill="none" stroke="#404040" points="582.31,-468.88 588.37,-464.95 594.31,-469.03 588.26,-472.95 582.31,-468.88"/>
<text text-anchor="middle" x="246.5" y="-415" font-family="Helvetica,sans-Serif" font-size="10.00"> +ADCTriggerControl</text>
</g>
<!-- Node3&#45;&gt;Node1 -->
<g id="edge3" class="edge">
<title>Node3&#45;&gt;Node1</title>
<path fill="none" stroke="#404040" d="M237.04,-327.67C250.16,-349.45 267.98,-375.04 288.5,-394 307.65,-411.69 314.9,-414.37 339.5,-423 421.9,-451.91 523.94,-462.74 582.09,-466.73"/>
<polygon fill="none" stroke="#404040" points="582.18,-466.73 588.43,-463.13 594.16,-467.5 587.92,-471.11 582.18,-466.73"/>
<text text-anchor="middle" x="370" y="-415" font-family="Helvetica,sans-Serif" font-size="10.00"> +GainControl</text>
</g>
<!-- Node4&#45;&gt;Node1 -->
<g id="edge5" class="edge">
<title>Node4&#45;&gt;Node1</title>
<path fill="none" stroke="#404040" d="M353.38,-327.51C361.55,-350.2 374.61,-376.67 394.5,-394 447.98,-440.61 530.72,-458.31 582.13,-465"/>
<polygon fill="none" stroke="#404040" points="582.27,-465.01 588.7,-461.75 594.18,-466.43 587.75,-469.69 582.27,-465.01"/>
<text text-anchor="middle" x="451.5" y="-415" font-family="Helvetica,sans-Serif" font-size="10.00"> +Limits</text>
</g>
<!-- Node5&#45;&gt;Node1 -->
<g id="edge7" class="edge">
<title>Node5&#45;&gt;Node1</title>
<path fill="none" stroke="#404040" d="M519.21,-349.82C533.82,-374.08 551.89,-400.97 571.5,-423 575.62,-427.63 580.24,-432.17 585.02,-436.47"/>
<polygon fill="none" stroke="#404040" points="585.2,-436.63 592.36,-437.5 594.31,-444.44 587.15,-443.57 585.2,-436.63"/>
<text text-anchor="middle" x="597.5" y="-415" font-family="Helvetica,sans-Serif" font-size="10.00"> +Advanced</text>
</g>
<!-- Node6&#45;&gt;Node1 -->
<g id="edge9" class="edge">
<title>Node6&#45;&gt;Node1</title>
<path fill="none" stroke="#404040" d="M636.16,-311.16C634.64,-342.35 632.17,-393.33 630.45,-428.89"/>
<polygon fill="none" stroke="#404040" points="630.43,-429.24 634.13,-435.43 629.85,-441.23 626.14,-435.04 630.43,-429.24"/>
<text text-anchor="middle" x="648" y="-415" font-family="Helvetica,sans-Serif" font-size="10.00"> +Ports</text>
</g>
<!-- Node7 -->
<g id="node7" class="node">
<title>Node7</title>
<g id="a_node7"><a xlink:href="a01700.html" target="_top" xlink:title="Data Input/Output Port declaration of memory addresses, signal offsets and normalization settings.">
<polygon fill="white" stroke="black" points="594.5,-0.5 594.5,-90.5 678.5,-90.5 678.5,-0.5 594.5,-0.5"/>
<text text-anchor="middle" x="636.5" y="-78.5" font-family="Helvetica,sans-Serif" font-size="10.00">NPNZ_PORT_s</text>
<polyline fill="none" stroke="black" points="594.5,-71.5 678.5,-71.5 "/>
<text text-anchor="start" x="602.5" y="-59.5" font-family="Helvetica,sans-Serif" font-size="10.00">+ ptrAddress</text>
<text text-anchor="start" x="602.5" y="-48.5" font-family="Helvetica,sans-Serif" font-size="10.00">+ NormScaler</text>
<text text-anchor="start" x="602.5" y="-37.5" font-family="Helvetica,sans-Serif" font-size="10.00">+ NormFactor</text>
<text text-anchor="start" x="602.5" y="-26.5" font-family="Helvetica,sans-Serif" font-size="10.00">+ Offset</text>
<polyline fill="none" stroke="black" points="594.5,-19.5 678.5,-19.5 "/>
<text text-anchor="middle" x="636.5" y="-7.5" font-family="Helvetica,sans-Serif" font-size="10.00"> </text>
</a>
</g>
</g>
<!-- Node6&#45;&gt;Node7 -->
<g id="edge12" class="edge">
<title>Node6&#45;&gt;Node7</title>
<path fill="none" stroke="midnightblue" d="M636.11,-243.48C635.01,-208.53 633.76,-155.28 634.5,-109 634.6,-103.03 634.74,-96.74 634.91,-90.54"/>
<polygon fill="none" stroke="midnightblue" points="632.62,-243.84 636.45,-253.72 639.62,-243.61 632.62,-243.84"/>
</g>
<!-- Node7&#45;&gt;Node6 -->
<g id="edge11" class="edge">
<title>Node7&#45;&gt;Node6</title>
<path fill="none" stroke="#404040" d="M636.69,-90.76C636.87,-134.12 637.15,-199.59 637.33,-241.44"/>
<polygon fill="none" stroke="#404040" points="637.33,-241.62 641.36,-247.6 637.38,-253.62 633.36,-247.64 637.33,-241.62"/>
<text text-anchor="middle" x="663.5" y="-145" font-family="Helvetica,sans-Serif" font-size="10.00"> +AltSource</text>
<text text-anchor="middle" x="663.5" y="-134" font-family="Helvetica,sans-Serif" font-size="10.00">+AltTarget</text>
<text text-anchor="middle" x="663.5" y="-123" font-family="Helvetica,sans-Serif" font-size="10.00">+Source</text>
<text text-anchor="middle" x="663.5" y="-112" font-family="Helvetica,sans-Serif" font-size="10.00">+Target</text>
</g>
<!-- Node8&#45;&gt;Node1 -->
<g id="edge13" class="edge">
<title>Node8&#45;&gt;Node1</title>
<path fill="none" stroke="#404040" d="M761.61,-382.68C755.72,-397.37 747.9,-411.43 737.5,-423 721.11,-441.24 696.3,-452.47 674.49,-459.27"/>
<polygon fill="none" stroke="#404040" points="674.3,-459.32 669.62,-464.81 662.75,-462.6 667.43,-457.11 674.3,-459.32"/>
<text text-anchor="middle" x="761" y="-415" font-family="Helvetica,sans-Serif" font-size="10.00"> +Filter</text>
</g>
<!-- Node9&#45;&gt;Node1 -->
<g id="edge15" class="edge">
<title>Node9&#45;&gt;Node1</title>
<path fill="none" stroke="#404040" d="M943.64,-327.79C934.29,-359.24 916.98,-399.84 886.5,-423 853.98,-447.71 740.18,-460.38 675.1,-465.75"/>
<polygon fill="none" stroke="#404040" points="674.74,-465.78 669.07,-470.24 662.77,-466.73 668.44,-462.27 674.74,-465.78"/>
<text text-anchor="middle" x="934.5" y="-415" font-family="Helvetica,sans-Serif" font-size="10.00"> +DataProviders</text>
</g>
<!-- Node10&#45;&gt;Node1 -->
<g id="edge17" class="edge">
<title>Node10&#45;&gt;Node1</title>
<path fill="none" stroke="#404040" d="M1111.95,-393.71C1104.44,-404.99 1095.39,-415.16 1084.5,-423 1051.72,-446.58 784.29,-461.68 674.89,-466.93"/>
<polygon fill="none" stroke="#404040" points="674.64,-466.94 668.84,-471.22 662.66,-467.51 668.46,-463.23 674.64,-466.94"/>
<text text-anchor="middle" x="1138" y="-415" font-family="Helvetica,sans-Serif" font-size="10.00"> +ExtensionHooks</text>
</g>
<!-- Node11&#45;&gt;Node1 -->
<g id="edge19" class="edge">
<title>Node11&#45;&gt;Node1</title>
<path fill="none" stroke="#404040" d="M1310.31,-355.33C1304.38,-380.54 1293.23,-406.63 1272.5,-423 1225.9,-459.79 815.27,-467.19 675.13,-468.65"/>
<polygon fill="none" stroke="#404040" points="674.81,-468.65 668.85,-472.71 662.81,-468.77 668.77,-464.71 674.81,-468.65"/>
<text text-anchor="middle" x="1302" y="-415" font-family="Helvetica,sans-Serif" font-size="10.00"> +status</text>
</g>
</g>
</svg>
