<?xml version="1.0" encoding="UTF-8" standalone="no"?>
<!DOCTYPE svg PUBLIC "-//W3C//DTD SVG 1.1//EN"
 "http://www.w3.org/Graphics/SVG/1.1/DTD/svg11.dtd">
<!-- Generated by graphviz version 2.44.1 (20200629.0846)
 -->
<!-- Title: NPNZ_ADC_TRGCTRL_s Pages: 1 -->
<svg width="1240pt" height="645pt"
 viewBox="0.00 0.00 1239.50 645.00" xmlns="http://www.w3.org/2000/svg" xmlns:xlink="http://www.w3.org/1999/xlink">
<g id="graph0" class="graph" transform="scale(1 1) rotate(0) translate(4 641)">
<title>NPNZ_ADC_TRGCTRL_s</title>
<polygon fill="white" stroke="transparent" points="-4,4 -4,-641 1235.5,-641 1235.5,4 -4,4"/>
<!-- Node1 -->
<g id="node1" class="node">
<title>Node1</title>
<g id="a_node1"><a xlink:title="Automated ADC Trigger handling.">
<polygon fill="#bfbfbf" stroke="black" points="501.5,-546.5 501.5,-636.5 630.5,-636.5 630.5,-546.5 501.5,-546.5"/>
<text text-anchor="middle" x="566" y="-624.5" font-family="Helvetica,sans-Serif" font-size="10.00">NPNZ_ADC_TRGCTRL_s</text>
<polyline fill="none" stroke="black" points="501.5,-617.5 630.5,-617.5 "/>
<text text-anchor="start" x="509.5" y="-605.5" font-family="Helvetica,sans-Serif" font-size="10.00">+ ptrADCTriggerARegister</text>
<text text-anchor="start" x="509.5" y="-594.5" font-family="Helvetica,sans-Serif" font-size="10.00">+ ADCTriggerAOffset</text>
<text text-anchor="start" x="509.5" y="-583.5" font-family="Helvetica,sans-Serif" font-size="10.00">+ ptrADCTriggerBRegister</text>
<text text-anchor="start" x="509.5" y="-572.5" font-family="Helvetica,sans-Serif" font-size="10.00">+ ADCTriggerBOffset</text>
<polyline fill="none" stroke="black" points="501.5,-565.5 630.5,-565.5 "/>
<text text-anchor="middle" x="566" y="-553.5" font-family="Helvetica,sans-Serif" font-size="10.00"> </text>
</a>
</g>
</g>
<!-- Node2 -->
<g id="node2" class="node">
<title>Node2</title>
<g id="a_node2"><a xlink:href="a01736.html" target="_top" xlink:title="Global NPNZ controller data object.">
<polygon fill="white" stroke="black" points="532,-441.5 532,-498.5 600,-498.5 600,-441.5 532,-441.5"/>
<text text-anchor="middle" x="566" y="-486.5" font-family="Helvetica,sans-Serif" font-size="10.00">NPNZ16b_s</text>
<polyline fill="none" stroke="black" points="532,-479.5 600,-479.5 "/>
<text text-anchor="middle" x="566" y="-467.5" font-family="Helvetica,sans-Serif" font-size="10.00"> </text>
<polyline fill="none" stroke="black" points="532,-460.5 600,-460.5 "/>
<text text-anchor="middle" x="566" y="-448.5" font-family="Helvetica,sans-Serif" font-size="10.00"> </text>
</a>
</g>
</g>
<!-- Node1&#45;&gt;Node2 -->
<g id="edge2" class="edge">
<title>Node1&#45;&gt;Node2</title>
<path fill="none" stroke="#404040" d="M520.68,-546.26C516.77,-540.48 513.4,-534.36 511,-528 506.47,-515.98 512.56,-505.15 522.14,-496.23"/>
<polygon fill="none" stroke="#404040" points="522.32,-496.08 524.51,-489.21 531.7,-488.6 529.5,-495.47 522.32,-496.08"/>
<text text-anchor="middle" x="556" y="-520" font-family="Helvetica,sans-Serif" font-size="10.00"> +ADCTriggerControl</text>
</g>
<!-- Node2&#45;&gt;Node1 -->
<g id="edge1" class="edge">
<title>Node2&#45;&gt;Node1</title>
<path fill="none" stroke="midnightblue" d="M602.99,-507.76C605.87,-514.17 607,-521.03 605,-528 603.24,-534.15 600.68,-540.28 597.7,-546.16"/>
<polygon fill="none" stroke="midnightblue" points="605.77,-505.57 597.68,-498.73 599.73,-509.13 605.77,-505.57"/>
</g>
<!-- Node3 -->
<g id="node3" class="node">
<title>Node3</title>
<g id="a_node3"><a xlink:href="a01728.html" target="_top" xlink:title="Adaptive Gain Control Modulation Parameters.">
<polygon fill="white" stroke="black" points="0,-237.5 0,-327.5 132,-327.5 132,-237.5 0,-237.5"/>
<text text-anchor="middle" x="66" y="-315.5" font-family="Helvetica,sans-Serif" font-size="10.00">NPNZ_GAIN_CONTROL_s</text>
<polyline fill="none" stroke="black" points="0,-308.5 132,-308.5 "/>
<text text-anchor="start" x="8" y="-296.5" font-family="Helvetica,sans-Serif" font-size="10.00">+ AgcScaler</text>
<text text-anchor="start" x="8" y="-285.5" font-family="Helvetica,sans-Serif" font-size="10.00">+ AgcFactor</text>
<text text-anchor="start" x="8" y="-274.5" font-family="Helvetica,sans-Serif" font-size="10.00">+ AgcMedian</text>
<text text-anchor="start" x="8" y="-263.5" font-family="Helvetica,sans-Serif" font-size="10.00">+ ptrAgcObserverFunction</text>
<polyline fill="none" stroke="black" points="0,-256.5 132,-256.5 "/>
<text text-anchor="middle" x="66" y="-244.5" font-family="Helvetica,sans-Serif" font-size="10.00"> </text>
</a>
</g>
</g>
<!-- Node2&#45;&gt;Node3 -->
<g id="edge4" class="edge">
<title>Node2&#45;&gt;Node3</title>
<path fill="none" stroke="midnightblue" d="M521.8,-468.28C430.25,-466.1 223.39,-457.4 163,-423 125.96,-401.9 99.83,-360.18 84.1,-327.83"/>
<polygon fill="none" stroke="midnightblue" points="521.78,-471.78 531.86,-468.5 521.94,-464.78 521.78,-471.78"/>
</g>
<!-- Node4 -->
<g id="node4" class="node">
<title>Node4</title>
<g id="a_node4"><a xlink:href="a01712.html" target="_top" xlink:title="System Anti&#45;Windup (Output Clamping) Thresholds.">
<polygon fill="white" stroke="black" points="150,-237.5 150,-327.5 238,-327.5 238,-237.5 150,-237.5"/>
<text text-anchor="middle" x="194" y="-315.5" font-family="Helvetica,sans-Serif" font-size="10.00">NPNZ_LIMITS_s</text>
<polyline fill="none" stroke="black" points="150,-308.5 238,-308.5 "/>
<text text-anchor="start" x="158" y="-296.5" font-family="Helvetica,sans-Serif" font-size="10.00">+ MinOutput</text>
<text text-anchor="start" x="158" y="-285.5" font-family="Helvetica,sans-Serif" font-size="10.00">+ MaxOutput</text>
<text text-anchor="start" x="158" y="-274.5" font-family="Helvetica,sans-Serif" font-size="10.00">+ AltMinOutput</text>
<text text-anchor="start" x="158" y="-263.5" font-family="Helvetica,sans-Serif" font-size="10.00">+ AltMaxOutput</text>
<polyline fill="none" stroke="black" points="150,-256.5 238,-256.5 "/>
<text text-anchor="middle" x="194" y="-244.5" font-family="Helvetica,sans-Serif" font-size="10.00"> </text>
</a>
</g>
</g>
<!-- Node2&#45;&gt;Node4 -->
<g id="edge6" class="edge">
<title>Node2&#45;&gt;Node4</title>
<path fill="none" stroke="midnightblue" d="M521.64,-469.8C462.94,-469.15 357.58,-461.96 278,-423 240.55,-404.67 218.37,-361.15 206.29,-327.55"/>
<polygon fill="none" stroke="midnightblue" points="521.68,-473.3 531.7,-469.85 521.72,-466.3 521.68,-473.3"/>
</g>
<!-- Node5 -->
<g id="node5" class="node">
<title>Node5</title>
<g id="a_node5"><a xlink:href="a01732.html" target="_top" xlink:title="User Data Space for Advanced Control Functions.">
<polygon fill="white" stroke="black" points="256,-215.5 256,-349.5 416,-349.5 416,-215.5 256,-215.5"/>
<text text-anchor="middle" x="336" y="-337.5" font-family="Helvetica,sans-Serif" font-size="10.00">NPNZ_USER_DATA_BUFFER_s</text>
<polyline fill="none" stroke="black" points="256,-330.5 416,-330.5 "/>
<text text-anchor="start" x="264" y="-318.5" font-family="Helvetica,sans-Serif" font-size="10.00">+ usrParam0</text>
<text text-anchor="start" x="264" y="-307.5" font-family="Helvetica,sans-Serif" font-size="10.00">+ usrParam1</text>
<text text-anchor="start" x="264" y="-296.5" font-family="Helvetica,sans-Serif" font-size="10.00">+ usrParam2</text>
<text text-anchor="start" x="264" y="-285.5" font-family="Helvetica,sans-Serif" font-size="10.00">+ usrParam3</text>
<text text-anchor="start" x="264" y="-274.5" font-family="Helvetica,sans-Serif" font-size="10.00">+ usrParam4</text>
<text text-anchor="start" x="264" y="-263.5" font-family="Helvetica,sans-Serif" font-size="10.00">+ usrParam5</text>
<text text-anchor="start" x="264" y="-252.5" font-family="Helvetica,sans-Serif" font-size="10.00">+ usrParam6</text>
<text text-anchor="start" x="264" y="-241.5" font-family="Helvetica,sans-Serif" font-size="10.00">+ usrParam7</text>
<polyline fill="none" stroke="black" points="256,-234.5 416,-234.5 "/>
<text text-anchor="middle" x="336" y="-222.5" font-family="Helvetica,sans-Serif" font-size="10.00"> </text>
</a>
</g>
</g>
<!-- Node2&#45;&gt;Node5 -->
<g id="edge8" class="edge">
<title>Node2&#45;&gt;Node5</title>
<path fill="none" stroke="midnightblue" d="M521.86,-458.28C497.86,-450.99 468.56,-439.61 446,-423 419.17,-403.25 395.41,-375.34 376.89,-349.66"/>
<polygon fill="none" stroke="midnightblue" points="521.2,-461.73 531.78,-461.15 523.15,-455.01 521.2,-461.73"/>
</g>
<!-- Node6 -->
<g id="node6" class="node">
<title>Node6</title>
<g id="a_node6"><a xlink:href="a01704.html" target="_top" xlink:title="Filter Coefficient Arrays, Number Format Handling and Input/Output History Parameters.">
<polygon fill="white" stroke="black" points="434.5,-254 434.5,-311 545.5,-311 545.5,-254 434.5,-254"/>
<text text-anchor="middle" x="490" y="-299" font-family="Helvetica,sans-Serif" font-size="10.00">NPNZ_PORTS_s</text>
<polyline fill="none" stroke="black" points="434.5,-292 545.5,-292 "/>
<text text-anchor="start" x="442.5" y="-280" font-family="Helvetica,sans-Serif" font-size="10.00">+ ptrControlReference</text>
<polyline fill="none" stroke="black" points="434.5,-273 545.5,-273 "/>
<text text-anchor="middle" x="490" y="-261" font-family="Helvetica,sans-Serif" font-size="10.00"> </text>
</a>
</g>
</g>
<!-- Node2&#45;&gt;Node6 -->
<g id="edge10" class="edge">
<title>Node2&#45;&gt;Node6</title>
<path fill="none" stroke="midnightblue" d="M544.44,-432.13C542.88,-429.07 541.37,-426 540,-423 522.71,-385.22 507.33,-339.59 498.34,-311.05"/>
<polygon fill="none" stroke="midnightblue" points="541.48,-434 549.27,-441.18 547.65,-430.71 541.48,-434"/>
</g>
<!-- Node8 -->
<g id="node8" class="node">
<title>Node8</title>
<g id="a_node8"><a xlink:href="a01708.html" target="_top" xlink:title="Filter Coefficient Arrays, Number Format Handling and Input/Output History Parameters.">
<polygon fill="white" stroke="black" points="563.5,-182.5 563.5,-382.5 700.5,-382.5 700.5,-182.5 563.5,-182.5"/>
<text text-anchor="middle" x="632" y="-370.5" font-family="Helvetica,sans-Serif" font-size="10.00">NPNZ_FILTER_PARAMS_s</text>
<polyline fill="none" stroke="black" points="563.5,-363.5 700.5,-363.5 "/>
<text text-anchor="start" x="571.5" y="-351.5" font-family="Helvetica,sans-Serif" font-size="10.00">+ ptrACoefficients</text>
<text text-anchor="start" x="571.5" y="-340.5" font-family="Helvetica,sans-Serif" font-size="10.00">+ ptrBCoefficients</text>
<text text-anchor="start" x="571.5" y="-329.5" font-family="Helvetica,sans-Serif" font-size="10.00">+ ptrControlHistory</text>
<text text-anchor="start" x="571.5" y="-318.5" font-family="Helvetica,sans-Serif" font-size="10.00">+ ptrErrorHistory</text>
<text text-anchor="start" x="571.5" y="-307.5" font-family="Helvetica,sans-Serif" font-size="10.00">+ ACoefficientsArraySize</text>
<text text-anchor="start" x="571.5" y="-296.5" font-family="Helvetica,sans-Serif" font-size="10.00">+ BCoefficientsArraySize</text>
<text text-anchor="start" x="571.5" y="-285.5" font-family="Helvetica,sans-Serif" font-size="10.00">+ ControlHistoryArraySize</text>
<text text-anchor="start" x="571.5" y="-274.5" font-family="Helvetica,sans-Serif" font-size="10.00">+ ErrorHistoryArraySize</text>
<text text-anchor="start" x="571.5" y="-263.5" font-family="Helvetica,sans-Serif" font-size="10.00">+ normPreShift</text>
<text text-anchor="start" x="571.5" y="-252.5" font-family="Helvetica,sans-Serif" font-size="10.00">+ normPostShiftA</text>
<text text-anchor="start" x="571.5" y="-241.5" font-family="Helvetica,sans-Serif" font-size="10.00">+ normPostShiftB</text>
<text text-anchor="start" x="571.5" y="-230.5" font-family="Helvetica,sans-Serif" font-size="10.00">+ normPostScaler</text>
<text text-anchor="start" x="571.5" y="-219.5" font-family="Helvetica,sans-Serif" font-size="10.00">+ PTermScaler</text>
<text text-anchor="start" x="571.5" y="-208.5" font-family="Helvetica,sans-Serif" font-size="10.00">+ PTermFactor</text>
<polyline fill="none" stroke="black" points="563.5,-201.5 700.5,-201.5 "/>
<text text-anchor="middle" x="632" y="-189.5" font-family="Helvetica,sans-Serif" font-size="10.00"> </text>
</a>
</g>
</g>
<!-- Node2&#45;&gt;Node8 -->
<g id="edge14" class="edge">
<title>Node2&#45;&gt;Node8</title>
<path fill="none" stroke="midnightblue" d="M579.26,-431.73C584.39,-417.32 590.52,-400.08 596.76,-382.54"/>
<polygon fill="none" stroke="midnightblue" points="575.94,-430.63 575.88,-441.23 582.53,-432.98 575.94,-430.63"/>
</g>
<!-- Node9 -->
<g id="node9" class="node">
<title>Node9</title>
<g id="a_node9"><a xlink:href="a01720.html" target="_top" xlink:title="Data Provider Target Memory Addresses.">
<polygon fill="white" stroke="black" points="719,-237.5 719,-327.5 893,-327.5 893,-237.5 719,-237.5"/>
<text text-anchor="middle" x="806" y="-315.5" font-family="Helvetica,sans-Serif" font-size="10.00">NPNZ_DATA_PROVIDERS_s</text>
<polyline fill="none" stroke="black" points="719,-308.5 893,-308.5 "/>
<text text-anchor="start" x="727" y="-296.5" font-family="Helvetica,sans-Serif" font-size="10.00">+ ptrDProvControlInput</text>
<text text-anchor="start" x="727" y="-285.5" font-family="Helvetica,sans-Serif" font-size="10.00">+ ptrDProvControlInputCompensated</text>
<text text-anchor="start" x="727" y="-274.5" font-family="Helvetica,sans-Serif" font-size="10.00">+ ptrDProvControlError</text>
<text text-anchor="start" x="727" y="-263.5" font-family="Helvetica,sans-Serif" font-size="10.00">+ ptrDProvControlOutput</text>
<polyline fill="none" stroke="black" points="719,-256.5 893,-256.5 "/>
<text text-anchor="middle" x="806" y="-244.5" font-family="Helvetica,sans-Serif" font-size="10.00"> </text>
</a>
</g>
</g>
<!-- Node2&#45;&gt;Node9 -->
<g id="edge16" class="edge">
<title>Node2&#45;&gt;Node9</title>
<path fill="none" stroke="midnightblue" d="M609.43,-451.28C639.13,-438 678.49,-418.01 709,-394 733.17,-374.98 756.08,-349.38 773.56,-327.61"/>
<polygon fill="none" stroke="midnightblue" points="607.9,-448.13 600.15,-455.36 610.72,-454.54 607.9,-448.13"/>
</g>
<!-- Node10 -->
<g id="node10" class="node">
<title>Node10</title>
<g id="a_node10"><a xlink:href="a01724.html" target="_top" xlink:title="User Extension Function Call Parameters.">
<polygon fill="white" stroke="black" points="911.5,-171.5 911.5,-393.5 1088.5,-393.5 1088.5,-171.5 911.5,-171.5"/>
<text text-anchor="middle" x="1000" y="-381.5" font-family="Helvetica,sans-Serif" font-size="10.00">NPNZ_EXTENSION_HOOKS_s</text>
<polyline fill="none" stroke="black" points="911.5,-374.5 1088.5,-374.5 "/>
<text text-anchor="start" x="919.5" y="-362.5" font-family="Helvetica,sans-Serif" font-size="10.00">+ ptrExtHookStartFunction</text>
<text text-anchor="start" x="919.5" y="-351.5" font-family="Helvetica,sans-Serif" font-size="10.00">+ ExtHookStartFunctionParam</text>
<text text-anchor="start" x="919.5" y="-340.5" font-family="Helvetica,sans-Serif" font-size="10.00">+ ptrExtHookSourceFunction</text>
<text text-anchor="start" x="919.5" y="-329.5" font-family="Helvetica,sans-Serif" font-size="10.00">+ ExtHookSourceFunctionParam</text>
<text text-anchor="start" x="919.5" y="-318.5" font-family="Helvetica,sans-Serif" font-size="10.00">+ ptrExtHookPreAntiWindupFunction</text>
<text text-anchor="start" x="919.5" y="-307.5" font-family="Helvetica,sans-Serif" font-size="10.00">+ ExtHookPreAntiWindupFunction</text>
<text text-anchor="start" x="919.5" y="-296.5" font-family="Helvetica,sans-Serif" font-size="10.00">Param</text>
<text text-anchor="start" x="919.5" y="-285.5" font-family="Helvetica,sans-Serif" font-size="10.00">+ ptrExtHookPreTargetWrite</text>
<text text-anchor="start" x="919.5" y="-274.5" font-family="Helvetica,sans-Serif" font-size="10.00">Function</text>
<text text-anchor="start" x="919.5" y="-263.5" font-family="Helvetica,sans-Serif" font-size="10.00">+ ExtHookPreTargetWriteFunction</text>
<text text-anchor="start" x="919.5" y="-252.5" font-family="Helvetica,sans-Serif" font-size="10.00">Param</text>
<text text-anchor="start" x="919.5" y="-241.5" font-family="Helvetica,sans-Serif" font-size="10.00">+ ptrExtHookEndOfLoopFunction</text>
<text text-anchor="start" x="919.5" y="-230.5" font-family="Helvetica,sans-Serif" font-size="10.00">+ ExtHookEndOfLoopFunction</text>
<text text-anchor="start" x="919.5" y="-219.5" font-family="Helvetica,sans-Serif" font-size="10.00">Param</text>
<text text-anchor="start" x="919.5" y="-208.5" font-family="Helvetica,sans-Serif" font-size="10.00">+ ptrExtHookExitFunction</text>
<text text-anchor="start" x="919.5" y="-197.5" font-family="Helvetica,sans-Serif" font-size="10.00">+ ExtHookExitFunctionParam</text>
<polyline fill="none" stroke="black" points="911.5,-190.5 1088.5,-190.5 "/>
<text text-anchor="middle" x="1000" y="-178.5" font-family="Helvetica,sans-Serif" font-size="10.00"> </text>
</a>
</g>
</g>
<!-- Node2&#45;&gt;Node10 -->
<g id="edge18" class="edge">
<title>Node2&#45;&gt;Node10</title>
<path fill="none" stroke="midnightblue" d="M610.23,-469.22C678.62,-467.49 811.59,-455.66 902,-394 905.18,-391.83 908.32,-389.54 911.42,-387.14"/>
<polygon fill="none" stroke="midnightblue" points="610.15,-465.72 600.22,-469.41 610.28,-472.72 610.15,-465.72"/>
</g>
<!-- Node11 -->
<g id="node11" class="node">
<title>Node11</title>
<g id="a_node11"><a xlink:href="a01680.html" target="_top" xlink:title="NPNZ16b controller object status and control word.">
<polygon fill="white" stroke="black" points="1106.5,-210 1106.5,-355 1231.5,-355 1231.5,-210 1106.5,-210"/>
<text text-anchor="middle" x="1169" y="-343" font-family="Helvetica,sans-Serif" font-size="10.00">NPNZ_STATUS_s</text>
<polyline fill="none" stroke="black" points="1106.5,-336 1231.5,-336 "/>
<text text-anchor="start" x="1114.5" y="-324" font-family="Helvetica,sans-Serif" font-size="10.00">+ lower_saturation_event</text>
<text text-anchor="start" x="1114.5" y="-313" font-family="Helvetica,sans-Serif" font-size="10.00">+ upper_saturation_event</text>
<text text-anchor="start" x="1114.5" y="-302" font-family="Helvetica,sans-Serif" font-size="10.00">+ unsigned</text>
<text text-anchor="start" x="1114.5" y="-291" font-family="Helvetica,sans-Serif" font-size="10.00">+ agc_enabled</text>
<text text-anchor="start" x="1114.5" y="-280" font-family="Helvetica,sans-Serif" font-size="10.00">+ swap_target</text>
<text text-anchor="start" x="1114.5" y="-269" font-family="Helvetica,sans-Serif" font-size="10.00">+ swap_source</text>
<text text-anchor="start" x="1114.5" y="-258" font-family="Helvetica,sans-Serif" font-size="10.00">+ invert_input</text>
<text text-anchor="start" x="1114.5" y="-247" font-family="Helvetica,sans-Serif" font-size="10.00">+ enabled</text>
<text text-anchor="start" x="1114.5" y="-236" font-family="Helvetica,sans-Serif" font-size="10.00">+ value</text>
<polyline fill="none" stroke="black" points="1106.5,-229 1231.5,-229 "/>
<text text-anchor="middle" x="1169" y="-217" font-family="Helvetica,sans-Serif" font-size="10.00"> </text>
</a>
</g>
</g>
<!-- Node2&#45;&gt;Node11 -->
<g id="edge20" class="edge">
<title>Node2&#45;&gt;Node11</title>
<path fill="none" stroke="midnightblue" d="M610.24,-469.13C693.7,-468.38 879.52,-462.01 1030,-423 1061.41,-414.86 1072.2,-414.93 1097,-394 1109.95,-383.07 1121.43,-369.23 1131.21,-355.07"/>
<polygon fill="none" stroke="midnightblue" points="610.08,-465.63 600.11,-469.19 610.13,-472.63 610.08,-465.63"/>
</g>
<!-- Node3&#45;&gt;Node2 -->
<g id="edge3" class="edge">
<title>Node3&#45;&gt;Node2</title>
<path fill="none" stroke="#404040" d="M88.8,-327.59C101.83,-349.61 119.8,-375.44 141,-394 162.69,-412.98 171.42,-414.64 199,-423 310.66,-456.83 448.69,-465.81 519.41,-468.17"/>
<polygon fill="none" stroke="#404040" points="519.82,-468.19 525.93,-464.37 531.81,-468.54 525.69,-472.36 519.82,-468.19"/>
<text text-anchor="middle" x="229.5" y="-415" font-family="Helvetica,sans-Serif" font-size="10.00"> +GainControl</text>
</g>
<!-- Node4&#45;&gt;Node2 -->
<g id="edge5" class="edge">
<title>Node4&#45;&gt;Node2</title>
<path fill="none" stroke="#404040" d="M205.15,-327.6C213.15,-350.6 226.27,-377.33 247,-394 288.74,-427.56 441.62,-452.32 519.59,-463.08"/>
<polygon fill="none" stroke="#404040" points="519.99,-463.13 526.48,-459.97 531.88,-464.74 525.4,-467.9 519.99,-463.13"/>
<text text-anchor="middle" x="328" y="-415" font-family="Helvetica,sans-Serif" font-size="10.00"> +Limits</text>
</g>
<!-- Node5&#45;&gt;Node2 -->
<g id="edge7" class="edge">
<title>Node5&#45;&gt;Node2</title>
<path fill="none" stroke="#404040" d="M382.11,-349.7C394.89,-365.36 409.53,-381.21 425,-394 453.86,-417.86 491.52,-437.42 520.66,-450.58"/>
<polygon fill="none" stroke="#404040" points="520.79,-450.64 527.89,-449.39 531.77,-455.47 524.67,-456.71 520.79,-450.64"/>
<text text-anchor="middle" x="491" y="-415" font-family="Helvetica,sans-Serif" font-size="10.00"> +Advanced</text>
</g>
<!-- Node6&#45;&gt;Node2 -->
<g id="edge9" class="edge">
<title>Node6&#45;&gt;Node2</title>
<path fill="none" stroke="#404040" d="M501.22,-311.04C512.69,-339.19 531.04,-384.16 547,-423 547.95,-425.31 548.93,-427.69 549.91,-430.08"/>
<polygon fill="none" stroke="#404040" points="549.95,-430.18 555.94,-434.2 554.53,-441.28 548.54,-437.25 549.95,-430.18"/>
<text text-anchor="middle" x="563.5" y="-415" font-family="Helvetica,sans-Serif" font-size="10.00"> +Ports</text>
</g>
<!-- Node7 -->
<g id="node7" class="node">
<title>Node7</title>
<g id="a_node7"><a xlink:href="a01700.html" target="_top" xlink:title="Data Input/Output Port declaration of memory addresses, signal offsets and normalization settings.">
<polygon fill="white" stroke="black" points="447,-0.5 447,-90.5 531,-90.5 531,-0.5 447,-0.5"/>
<text text-anchor="middle" x="489" y="-78.5" font-family="Helvetica,sans-Serif" font-size="10.00">NPNZ_PORT_s</text>
<polyline fill="none" stroke="black" points="447,-71.5 531,-71.5 "/>
<text text-anchor="start" x="455" y="-59.5" font-family="Helvetica,sans-Serif" font-size="10.00">+ ptrAddress</text>
<text text-anchor="start" x="455" y="-48.5" font-family="Helvetica,sans-Serif" font-size="10.00">+ NormScaler</text>
<text text-anchor="start" x="455" y="-37.5" font-family="Helvetica,sans-Serif" font-size="10.00">+ NormFactor</text>
<text text-anchor="start" x="455" y="-26.5" font-family="Helvetica,sans-Serif" font-size="10.00">+ Offset</text>
<polyline fill="none" stroke="black" points="447,-19.5 531,-19.5 "/>
<text text-anchor="middle" x="489" y="-7.5" font-family="Helvetica,sans-Serif" font-size="10.00"> </text>
</a>
</g>
</g>
<!-- Node6&#45;&gt;Node7 -->
<g id="edge12" class="edge">
<title>Node6&#45;&gt;Node7</title>
<path fill="none" stroke="midnightblue" d="M488.61,-243.48C487.51,-208.53 486.26,-155.28 487,-109 487.1,-103.03 487.24,-96.74 487.41,-90.54"/>
<polygon fill="none" stroke="midnightblue" points="485.12,-243.84 488.95,-253.72 492.12,-243.61 485.12,-243.84"/>
</g>
<!-- Node7&#45;&gt;Node6 -->
<g id="edge11" class="edge">
<title>Node7&#45;&gt;Node6</title>
<path fill="none" stroke="#404040" d="M489.19,-90.76C489.37,-134.12 489.65,-199.59 489.83,-241.44"/>
<polygon fill="none" stroke="#404040" points="489.83,-241.62 493.86,-247.6 489.88,-253.62 485.86,-247.64 489.83,-241.62"/>
<text text-anchor="middle" x="516" y="-145" font-family="Helvetica,sans-Serif" font-size="10.00"> +AltSource</text>
<text text-anchor="middle" x="516" y="-134" font-family="Helvetica,sans-Serif" font-size="10.00">+AltTarget</text>
<text text-anchor="middle" x="516" y="-123" font-family="Helvetica,sans-Serif" font-size="10.00">+Source</text>
<text text-anchor="middle" x="516" y="-112" font-family="Helvetica,sans-Serif" font-size="10.00">+Target</text>
</g>
<!-- Node8&#45;&gt;Node2 -->
<g id="edge13" class="edge">
<title>Node8&#45;&gt;Node2</title>
<path fill="none" stroke="#404040" d="M622.2,-382.52C618.76,-396.52 614.16,-410.42 608,-423 606.56,-425.95 604.87,-428.85 603,-431.66"/>
<polygon fill="none" stroke="#404040" points="602.87,-431.84 602.47,-439.04 595.67,-441.44 596.07,-434.24 602.87,-431.84"/>
<text text-anchor="middle" x="628.5" y="-415" font-family="Helvetica,sans-Serif" font-size="10.00"> +Filter</text>
</g>
<!-- Node9&#45;&gt;Node2 -->
<g id="edge15" class="edge">
<title>Node9&#45;&gt;Node2</title>
<path fill="none" stroke="#404040" d="M795.36,-327.71C785.67,-358.7 768.29,-398.76 739,-423 703.19,-452.65 650.16,-463.35 612.26,-467.13"/>
<polygon fill="none" stroke="#404040" points="611.99,-467.15 606.35,-471.64 600.03,-468.16 605.68,-463.67 611.99,-467.15"/>
<text text-anchor="middle" x="784" y="-415" font-family="Helvetica,sans-Serif" font-size="10.00"> +DataProviders</text>
</g>
<!-- Node10&#45;&gt;Node2 -->
<g id="edge17" class="edge">
<title>Node10&#45;&gt;Node2</title>
<path fill="none" stroke="#404040" d="M960.28,-393.55C952.41,-404.86 943.06,-415.08 932,-423 881.68,-459.01 698.77,-466.87 612.12,-468.55"/>
<polygon fill="none" stroke="#404040" points="612.06,-468.56 606.13,-472.66 600.07,-468.76 606,-464.66 612.06,-468.56"/>
<text text-anchor="middle" x="985.5" y="-415" font-family="Helvetica,sans-Serif" font-size="10.00"> +ExtensionHooks</text>
</g>
<!-- Node11&#45;&gt;Node2 -->
<g id="edge19" class="edge">
<title>Node11&#45;&gt;Node2</title>
<path fill="none" stroke="#404040" d="M1159.6,-355.04C1152.57,-380.38 1140.32,-406.63 1119,-423 1079.2,-453.56 737.9,-464.85 612.22,-467.99"/>
<polygon fill="none" stroke="#404040" points="612.05,-467.99 606.15,-472.14 600.05,-468.28 605.95,-464.14 612.05,-467.99"/>
<text text-anchor="middle" x="1149.5" y="-415" font-family="Helvetica,sans-Serif" font-size="10.00"> +status</text>
</g>
</g>
</svg>
