<?xml version="1.0" encoding="UTF-8" standalone="no"?>
<!DOCTYPE svg PUBLIC "-//W3C//DTD SVG 1.1//EN"
 "http://www.w3.org/Graphics/SVG/1.1/DTD/svg11.dtd">
<!-- Generated by graphviz version 2.44.1 (20200629.0846)
 -->
<!-- Title: NPNZ_PORTS_s Pages: 1 -->
<!--zoomable 507 -->
<svg id="main" version="1.1" xmlns="http://www.w3.org/2000/svg" xmlns:xlink="http://www.w3.org/1999/xlink" xml:space="preserve" onload="init(evt)">
<style type="text/css"><![CDATA[
.edge:hover path { stroke: red; }
.edge:hover polygon { stroke: red; fill: red; }
]]></style>
<script type="text/javascript"><![CDATA[
var edges = document.getElementsByTagName('g');
if (edges && edges.length) {
  for (var i=0;i<edges.length;i++) {
    if (edges[i].id.substr(0,4)=='edge') {
      edges[i].setAttribute('class','edge');
    }
  }
}
]]></script>
        <defs>
                <circle id="rim" cx="0" cy="0" r="7"/>
                <circle id="rim2" cx="0" cy="0" r="3.5"/>
                <g id="zoomPlus">
                        <use xlink:href="#rim" fill="#404040">
                                <set attributeName="fill" to="#808080" begin="zoomplus.mouseover" end="zoomplus.mouseout"/>
                        </use>
                        <path d="M-4,0h8M0,-4v8" fill="none" stroke="white" stroke-width="1.5" pointer-events="none"/>
                </g>
                <g id="zoomMin">
                        <use xlink:href="#rim" fill="#404040">
                                <set attributeName="fill" to="#808080" begin="zoomminus.mouseover" end="zoomminus.mouseout"/>
                        </use>
                        <path d="M-4,0h8" fill="none" stroke="white" stroke-width="1.5" pointer-events="none"/>
                </g>
                <g id="dirArrow">
                        <path fill="none" stroke="white" stroke-width="1.5" d="M0,-3.0v7 M-2.5,-0.5L0,-3.0L2.5,-0.5"/>
                </g>
               <g id="resetDef">
                       <use xlink:href="#rim2" fill="#404040">
                               <set attributeName="fill" to="#808080" begin="reset.mouseover" end="reset.mouseout"/>
                       </use>
               </g>
        </defs>

<script type="text/javascript">
var viewWidth = 1258;
var viewHeight = 507;
var sectionId = 'dynsection-1';
</script>
<script xlink:href="svgpan.js"/>
<svg id="graph" class="graph">
<g id="viewport">
<title>NPNZ_PORTS_s</title>
<polygon fill="white" stroke="transparent" points="-4,4 -4,-503 1254,-503 1254,4 -4,4"/>
<!-- Node1 -->
<g id="node1" class="node">
<title>Node1</title>
<g id="a_node1"><a xlink:title="Filter Coefficient Arrays, Number Format Handling and Input/Output History Parameters.">
<polygon fill="#bfbfbf" stroke="black" points="571,-441.5 571,-498.5 682,-498.5 682,-441.5 571,-441.5"/>
<text text-anchor="middle" x="626.5" y="-486.5" font-family="Helvetica,sans-Serif" font-size="10.00">NPNZ_PORTS_s</text>
<polyline fill="none" stroke="black" points="571,-479.5 682,-479.5 "/>
<text text-anchor="start" x="579" y="-467.5" font-family="Helvetica,sans-Serif" font-size="10.00">+ ptrControlReference</text>
<polyline fill="none" stroke="black" points="571,-460.5 682,-460.5 "/>
<text text-anchor="middle" x="626.5" y="-448.5" font-family="Helvetica,sans-Serif" font-size="10.00"> </text>
</a>
</g>
</g>
<!-- Node2 -->
<g id="node2" class="node">
<title>Node2</title>
<g id="a_node2"><a xlink:href="a01736.html" target="_top" xlink:title="Global NPNZ controller data object.">
<polygon fill="white" stroke="black" points="538.5,-287 538.5,-344 606.5,-344 606.5,-287 538.5,-287"/>
<text text-anchor="middle" x="572.5" y="-332" font-family="Helvetica,sans-Serif" font-size="10.00">NPNZ16b_s</text>
<polyline fill="none" stroke="black" points="538.5,-325 606.5,-325 "/>
<text text-anchor="middle" x="572.5" y="-313" font-family="Helvetica,sans-Serif" font-size="10.00"> </text>
<polyline fill="none" stroke="black" points="538.5,-306 606.5,-306 "/>
<text text-anchor="middle" x="572.5" y="-294" font-family="Helvetica,sans-Serif" font-size="10.00"> </text>
</a>
</g>
</g>
<!-- Node1&#45;&gt;Node2 -->
<g id="edge10" class="edge">
<title>Node1&#45;&gt;Node2</title>
<path fill="none" stroke="#404040" d="M577.82,-441.3C572.06,-435.98 567,-429.88 563.5,-423 553.1,-402.53 554.86,-376.97 559.45,-356.03"/>
<polygon fill="none" stroke="#404040" points="559.47,-355.93 557.06,-349.14 562.4,-344.3 564.82,-351.09 559.47,-355.93"/>
<text text-anchor="middle" x="580" y="-398.5" font-family="Helvetica,sans-Serif" font-size="10.00"> +Ports</text>
</g>
<!-- Node11 -->
<g id="node11" class="node">
<title>Node11</title>
<g id="a_node11"><a xlink:href="a01700.html" target="_top" xlink:title="Data Input/Output Port declaration of memory addresses, signal offsets and normalization settings.">
<polygon fill="white" stroke="black" points="627.5,-270.5 627.5,-360.5 711.5,-360.5 711.5,-270.5 627.5,-270.5"/>
<text text-anchor="middle" x="669.5" y="-348.5" font-family="Helvetica,sans-Serif" font-size="10.00">NPNZ_PORT_s</text>
<polyline fill="none" stroke="black" points="627.5,-341.5 711.5,-341.5 "/>
<text text-anchor="start" x="635.5" y="-329.5" font-family="Helvetica,sans-Serif" font-size="10.00">+ ptrAddress</text>
<text text-anchor="start" x="635.5" y="-318.5" font-family="Helvetica,sans-Serif" font-size="10.00">+ NormScaler</text>
<text text-anchor="start" x="635.5" y="-307.5" font-family="Helvetica,sans-Serif" font-size="10.00">+ NormFactor</text>
<text text-anchor="start" x="635.5" y="-296.5" font-family="Helvetica,sans-Serif" font-size="10.00">+ Offset</text>
<polyline fill="none" stroke="black" points="627.5,-289.5 711.5,-289.5 "/>
<text text-anchor="middle" x="669.5" y="-277.5" font-family="Helvetica,sans-Serif" font-size="10.00"> </text>
</a>
</g>
</g>
<!-- Node1&#45;&gt;Node11 -->
<g id="edge20" class="edge">
<title>Node1&#45;&gt;Node11</title>
<path fill="none" stroke="midnightblue" d="M637.03,-431.66C643.08,-410.21 650.7,-383.16 657.05,-360.66"/>
<polygon fill="none" stroke="midnightblue" points="633.63,-430.81 634.29,-441.38 640.37,-432.71 633.63,-430.81"/>
</g>
<!-- Node2&#45;&gt;Node1 -->
<g id="edge1" class="edge">
<title>Node2&#45;&gt;Node1</title>
<path fill="none" stroke="midnightblue" d="M590.02,-353.31C593.7,-361.66 597.41,-370.56 600.5,-379 608,-399.46 614.77,-423.16 619.52,-441.1"/>
<polygon fill="none" stroke="midnightblue" points="593.19,-351.84 585.89,-344.16 586.81,-354.71 593.19,-351.84"/>
</g>
<!-- Node3 -->
<g id="node3" class="node">
<title>Node3</title>
<g id="a_node3"><a xlink:href="a01716.html" target="_top" xlink:title="Automated ADC Trigger handling.">
<polygon fill="white" stroke="black" points="0,-66.5 0,-156.5 129,-156.5 129,-66.5 0,-66.5"/>
<text text-anchor="middle" x="64.5" y="-144.5" font-family="Helvetica,sans-Serif" font-size="10.00">NPNZ_ADC_TRGCTRL_s</text>
<polyline fill="none" stroke="black" points="0,-137.5 129,-137.5 "/>
<text text-anchor="start" x="8" y="-125.5" font-family="Helvetica,sans-Serif" font-size="10.00">+ ptrADCTriggerARegister</text>
<text text-anchor="start" x="8" y="-114.5" font-family="Helvetica,sans-Serif" font-size="10.00">+ ADCTriggerAOffset</text>
<text text-anchor="start" x="8" y="-103.5" font-family="Helvetica,sans-Serif" font-size="10.00">+ ptrADCTriggerBRegister</text>
<text text-anchor="start" x="8" y="-92.5" font-family="Helvetica,sans-Serif" font-size="10.00">+ ADCTriggerBOffset</text>
<polyline fill="none" stroke="black" points="0,-85.5 129,-85.5 "/>
<text text-anchor="middle" x="64.5" y="-73.5" font-family="Helvetica,sans-Serif" font-size="10.00"> </text>
</a>
</g>
</g>
<!-- Node2&#45;&gt;Node3 -->
<g id="edge3" class="edge">
<title>Node2&#45;&gt;Node3</title>
<path fill="none" stroke="midnightblue" d="M528.33,-315.08C452.37,-314.49 293.61,-306.16 173.5,-252 132.31,-233.43 102.49,-190.19 84.55,-156.73"/>
<polygon fill="none" stroke="midnightblue" points="528.47,-318.58 538.48,-315.12 528.5,-311.58 528.47,-318.58"/>
</g>
<!-- Node4 -->
<g id="node4" class="node">
<title>Node4</title>
<g id="a_node4"><a xlink:href="a01728.html" target="_top" xlink:title="Adaptive Gain Control Modulation Parameters.">
<polygon fill="white" stroke="black" points="147.5,-66.5 147.5,-156.5 279.5,-156.5 279.5,-66.5 147.5,-66.5"/>
<text text-anchor="middle" x="213.5" y="-144.5" font-family="Helvetica,sans-Serif" font-size="10.00">NPNZ_GAIN_CONTROL_s</text>
<polyline fill="none" stroke="black" points="147.5,-137.5 279.5,-137.5 "/>
<text text-anchor="start" x="155.5" y="-125.5" font-family="Helvetica,sans-Serif" font-size="10.00">+ AgcScaler</text>
<text text-anchor="start" x="155.5" y="-114.5" font-family="Helvetica,sans-Serif" font-size="10.00">+ AgcFactor</text>
<text text-anchor="start" x="155.5" y="-103.5" font-family="Helvetica,sans-Serif" font-size="10.00">+ AgcMedian</text>
<text text-anchor="start" x="155.5" y="-92.5" font-family="Helvetica,sans-Serif" font-size="10.00">+ ptrAgcObserverFunction</text>
<polyline fill="none" stroke="black" points="147.5,-85.5 279.5,-85.5 "/>
<text text-anchor="middle" x="213.5" y="-73.5" font-family="Helvetica,sans-Serif" font-size="10.00"> </text>
</a>
</g>
</g>
<!-- Node2&#45;&gt;Node4 -->
<g id="edge5" class="edge">
<title>Node2&#45;&gt;Node4</title>
<path fill="none" stroke="midnightblue" d="M528.2,-313.23C472.71,-309.69 376.79,-296.92 309.5,-252 274.66,-228.74 248.86,-188.15 232.83,-156.73"/>
<polygon fill="none" stroke="midnightblue" points="528.22,-316.74 538.4,-313.81 528.61,-309.75 528.22,-316.74"/>
</g>
<!-- Node5 -->
<g id="node5" class="node">
<title>Node5</title>
<g id="a_node5"><a xlink:href="a01712.html" target="_top" xlink:title="System Anti&#45;Windup (Output Clamping) Thresholds.">
<polygon fill="white" stroke="black" points="297.5,-66.5 297.5,-156.5 385.5,-156.5 385.5,-66.5 297.5,-66.5"/>
<text text-anchor="middle" x="341.5" y="-144.5" font-family="Helvetica,sans-Serif" font-size="10.00">NPNZ_LIMITS_s</text>
<polyline fill="none" stroke="black" points="297.5,-137.5 385.5,-137.5 "/>
<text text-anchor="start" x="305.5" y="-125.5" font-family="Helvetica,sans-Serif" font-size="10.00">+ MinOutput</text>
<text text-anchor="start" x="305.5" y="-114.5" font-family="Helvetica,sans-Serif" font-size="10.00">+ MaxOutput</text>
<text text-anchor="start" x="305.5" y="-103.5" font-family="Helvetica,sans-Serif" font-size="10.00">+ AltMinOutput</text>
<text text-anchor="start" x="305.5" y="-92.5" font-family="Helvetica,sans-Serif" font-size="10.00">+ AltMaxOutput</text>
<polyline fill="none" stroke="black" points="297.5,-85.5 385.5,-85.5 "/>
<text text-anchor="middle" x="341.5" y="-73.5" font-family="Helvetica,sans-Serif" font-size="10.00"> </text>
</a>
</g>
</g>
<!-- Node2&#45;&gt;Node5 -->
<g id="edge7" class="edge">
<title>Node2&#45;&gt;Node5</title>
<path fill="none" stroke="midnightblue" d="M528.36,-305.78C493.45,-297.04 445.16,-280.66 411.5,-252 382.41,-227.23 364.13,-187.43 353.58,-156.66"/>
<polygon fill="none" stroke="midnightblue" points="527.74,-309.23 538.28,-308.15 529.36,-302.42 527.74,-309.23"/>
</g>
<!-- Node6 -->
<g id="node6" class="node">
<title>Node6</title>
<g id="a_node6"><a xlink:href="a01732.html" target="_top" xlink:title="User Data Space for Advanced Control Functions.">
<polygon fill="white" stroke="black" points="403.5,-44.5 403.5,-178.5 563.5,-178.5 563.5,-44.5 403.5,-44.5"/>
<text text-anchor="middle" x="483.5" y="-166.5" font-family="Helvetica,sans-Serif" font-size="10.00">NPNZ_USER_DATA_BUFFER_s</text>
<polyline fill="none" stroke="black" points="403.5,-159.5 563.5,-159.5 "/>
<text text-anchor="start" x="411.5" y="-147.5" font-family="Helvetica,sans-Serif" font-size="10.00">+ usrParam0</text>
<text text-anchor="start" x="411.5" y="-136.5" font-family="Helvetica,sans-Serif" font-size="10.00">+ usrParam1</text>
<text text-anchor="start" x="411.5" y="-125.5" font-family="Helvetica,sans-Serif" font-size="10.00">+ usrParam2</text>
<text text-anchor="start" x="411.5" y="-114.5" font-family="Helvetica,sans-Serif" font-size="10.00">+ usrParam3</text>
<text text-anchor="start" x="411.5" y="-103.5" font-family="Helvetica,sans-Serif" font-size="10.00">+ usrParam4</text>
<text text-anchor="start" x="411.5" y="-92.5" font-family="Helvetica,sans-Serif" font-size="10.00">+ usrParam5</text>
<text text-anchor="start" x="411.5" y="-81.5" font-family="Helvetica,sans-Serif" font-size="10.00">+ usrParam6</text>
<text text-anchor="start" x="411.5" y="-70.5" font-family="Helvetica,sans-Serif" font-size="10.00">+ usrParam7</text>
<polyline fill="none" stroke="black" points="403.5,-63.5 563.5,-63.5 "/>
<text text-anchor="middle" x="483.5" y="-51.5" font-family="Helvetica,sans-Serif" font-size="10.00"> </text>
</a>
</g>
</g>
<!-- Node2&#45;&gt;Node6 -->
<g id="edge9" class="edge">
<title>Node2&#45;&gt;Node6</title>
<path fill="none" stroke="midnightblue" d="M549.4,-277.96C544.52,-269.58 539.61,-260.61 535.5,-252 524.36,-228.68 513.99,-202.29 505.48,-178.79"/>
<polygon fill="none" stroke="midnightblue" points="546.53,-279.97 554.65,-286.77 552.54,-276.39 546.53,-279.97"/>
</g>
<!-- Node7 -->
<g id="node7" class="node">
<title>Node7</title>
<g id="a_node7"><a xlink:href="a01708.html" target="_top" xlink:title="Filter Coefficient Arrays, Number Format Handling and Input/Output History Parameters.">
<polygon fill="white" stroke="black" points="582,-11.5 582,-211.5 719,-211.5 719,-11.5 582,-11.5"/>
<text text-anchor="middle" x="650.5" y="-199.5" font-family="Helvetica,sans-Serif" font-size="10.00">NPNZ_FILTER_PARAMS_s</text>
<polyline fill="none" stroke="black" points="582,-192.5 719,-192.5 "/>
<text text-anchor="start" x="590" y="-180.5" font-family="Helvetica,sans-Serif" font-size="10.00">+ ptrACoefficients</text>
<text text-anchor="start" x="590" y="-169.5" font-family="Helvetica,sans-Serif" font-size="10.00">+ ptrBCoefficients</text>
<text text-anchor="start" x="590" y="-158.5" font-family="Helvetica,sans-Serif" font-size="10.00">+ ptrControlHistory</text>
<text text-anchor="start" x="590" y="-147.5" font-family="Helvetica,sans-Serif" font-size="10.00">+ ptrErrorHistory</text>
<text text-anchor="start" x="590" y="-136.5" font-family="Helvetica,sans-Serif" font-size="10.00">+ ACoefficientsArraySize</text>
<text text-anchor="start" x="590" y="-125.5" font-family="Helvetica,sans-Serif" font-size="10.00">+ BCoefficientsArraySize</text>
<text text-anchor="start" x="590" y="-114.5" font-family="Helvetica,sans-Serif" font-size="10.00">+ ControlHistoryArraySize</text>
<text text-anchor="start" x="590" y="-103.5" font-family="Helvetica,sans-Serif" font-size="10.00">+ ErrorHistoryArraySize</text>
<text text-anchor="start" x="590" y="-92.5" font-family="Helvetica,sans-Serif" font-size="10.00">+ normPreShift</text>
<text text-anchor="start" x="590" y="-81.5" font-family="Helvetica,sans-Serif" font-size="10.00">+ normPostShiftA</text>
<text text-anchor="start" x="590" y="-70.5" font-family="Helvetica,sans-Serif" font-size="10.00">+ normPostShiftB</text>
<text text-anchor="start" x="590" y="-59.5" font-family="Helvetica,sans-Serif" font-size="10.00">+ normPostScaler</text>
<text text-anchor="start" x="590" y="-48.5" font-family="Helvetica,sans-Serif" font-size="10.00">+ PTermScaler</text>
<text text-anchor="start" x="590" y="-37.5" font-family="Helvetica,sans-Serif" font-size="10.00">+ PTermFactor</text>
<polyline fill="none" stroke="black" points="582,-30.5 719,-30.5 "/>
<text text-anchor="middle" x="650.5" y="-18.5" font-family="Helvetica,sans-Serif" font-size="10.00"> </text>
</a>
</g>
</g>
<!-- Node2&#45;&gt;Node7 -->
<g id="edge12" class="edge">
<title>Node2&#45;&gt;Node7</title>
<path fill="none" stroke="midnightblue" d="M586.86,-277.32C594.03,-258.73 603.1,-235.26 612.12,-211.9"/>
<polygon fill="none" stroke="midnightblue" points="583.52,-276.25 583.18,-286.84 590.05,-278.77 583.52,-276.25"/>
</g>
<!-- Node8 -->
<g id="node8" class="node">
<title>Node8</title>
<g id="a_node8"><a xlink:href="a01720.html" target="_top" xlink:title="Data Provider Target Memory Addresses.">
<polygon fill="white" stroke="black" points="737.5,-66.5 737.5,-156.5 911.5,-156.5 911.5,-66.5 737.5,-66.5"/>
<text text-anchor="middle" x="824.5" y="-144.5" font-family="Helvetica,sans-Serif" font-size="10.00">NPNZ_DATA_PROVIDERS_s</text>
<polyline fill="none" stroke="black" points="737.5,-137.5 911.5,-137.5 "/>
<text text-anchor="start" x="745.5" y="-125.5" font-family="Helvetica,sans-Serif" font-size="10.00">+ ptrDProvControlInput</text>
<text text-anchor="start" x="745.5" y="-114.5" font-family="Helvetica,sans-Serif" font-size="10.00">+ ptrDProvControlInputCompensated</text>
<text text-anchor="start" x="745.5" y="-103.5" font-family="Helvetica,sans-Serif" font-size="10.00">+ ptrDProvControlError</text>
<text text-anchor="start" x="745.5" y="-92.5" font-family="Helvetica,sans-Serif" font-size="10.00">+ ptrDProvControlOutput</text>
<polyline fill="none" stroke="black" points="737.5,-85.5 911.5,-85.5 "/>
<text text-anchor="middle" x="824.5" y="-73.5" font-family="Helvetica,sans-Serif" font-size="10.00"> </text>
</a>
</g>
</g>
<!-- Node2&#45;&gt;Node8 -->
<g id="edge14" class="edge">
<title>Node2&#45;&gt;Node8</title>
<path fill="none" stroke="midnightblue" d="M605.17,-279.98C609.45,-276.35 613.94,-272.93 618.5,-270 636.97,-258.14 644.27,-260.53 664.5,-252 693.27,-239.86 703.46,-241.66 728.5,-223 753.26,-204.55 776.14,-178.72 793.35,-156.68"/>
<polygon fill="none" stroke="midnightblue" points="602.82,-277.39 597.71,-286.67 607.5,-282.6 602.82,-277.39"/>
</g>
<!-- Node9 -->
<g id="node9" class="node">
<title>Node9</title>
<g id="a_node9"><a xlink:href="a01724.html" target="_top" xlink:title="User Extension Function Call Parameters.">
<polygon fill="white" stroke="black" points="930,-0.5 930,-222.5 1107,-222.5 1107,-0.5 930,-0.5"/>
<text text-anchor="middle" x="1018.5" y="-210.5" font-family="Helvetica,sans-Serif" font-size="10.00">NPNZ_EXTENSION_HOOKS_s</text>
<polyline fill="none" stroke="black" points="930,-203.5 1107,-203.5 "/>
<text text-anchor="start" x="938" y="-191.5" font-family="Helvetica,sans-Serif" font-size="10.00">+ ptrExtHookStartFunction</text>
<text text-anchor="start" x="938" y="-180.5" font-family="Helvetica,sans-Serif" font-size="10.00">+ ExtHookStartFunctionParam</text>
<text text-anchor="start" x="938" y="-169.5" font-family="Helvetica,sans-Serif" font-size="10.00">+ ptrExtHookSourceFunction</text>
<text text-anchor="start" x="938" y="-158.5" font-family="Helvetica,sans-Serif" font-size="10.00">+ ExtHookSourceFunctionParam</text>
<text text-anchor="start" x="938" y="-147.5" font-family="Helvetica,sans-Serif" font-size="10.00">+ ptrExtHookPreAntiWindupFunction</text>
<text text-anchor="start" x="938" y="-136.5" font-family="Helvetica,sans-Serif" font-size="10.00">+ ExtHookPreAntiWindupFunction</text>
<text text-anchor="start" x="938" y="-125.5" font-family="Helvetica,sans-Serif" font-size="10.00">Param</text>
<text text-anchor="start" x="938" y="-114.5" font-family="Helvetica,sans-Serif" font-size="10.00">+ ptrExtHookPreTargetWrite</text>
<text text-anchor="start" x="938" y="-103.5" font-family="Helvetica,sans-Serif" font-size="10.00">Function</text>
<text text-anchor="start" x="938" y="-92.5" font-family="Helvetica,sans-Serif" font-size="10.00">+ ExtHookPreTargetWriteFunction</text>
<text text-anchor="start" x="938" y="-81.5" font-family="Helvetica,sans-Serif" font-size="10.00">Param</text>
<text text-anchor="start" x="938" y="-70.5" font-family="Helvetica,sans-Serif" font-size="10.00">+ ptrExtHookEndOfLoopFunction</text>
<text text-anchor="start" x="938" y="-59.5" font-family="Helvetica,sans-Serif" font-size="10.00">+ ExtHookEndOfLoopFunction</text>
<text text-anchor="start" x="938" y="-48.5" font-family="Helvetica,sans-Serif" font-size="10.00">Param</text>
<text text-anchor="start" x="938" y="-37.5" font-family="Helvetica,sans-Serif" font-size="10.00">+ ptrExtHookExitFunction</text>
<text text-anchor="start" x="938" y="-26.5" font-family="Helvetica,sans-Serif" font-size="10.00">+ ExtHookExitFunctionParam</text>
<polyline fill="none" stroke="black" points="930,-19.5 1107,-19.5 "/>
<text text-anchor="middle" x="1018.5" y="-7.5" font-family="Helvetica,sans-Serif" font-size="10.00"> </text>
</a>
</g>
</g>
<!-- Node2&#45;&gt;Node9 -->
<g id="edge16" class="edge">
<title>Node2&#45;&gt;Node9</title>
<path fill="none" stroke="midnightblue" d="M602.36,-280.24C607.35,-276.19 612.79,-272.58 618.5,-270 664.21,-249.35 794.55,-262.95 843.5,-252 879.19,-244.02 890.37,-243.73 920.5,-223 923.67,-220.82 926.8,-218.52 929.89,-216.11"/>
<polygon fill="none" stroke="midnightblue" points="600.03,-277.63 594.89,-286.9 604.69,-282.86 600.03,-277.63"/>
</g>
<!-- Node10 -->
<g id="node10" class="node">
<title>Node10</title>
<g id="a_node10"><a xlink:href="a01680.html" target="_top" xlink:title="NPNZ16b controller object status and control word.">
<polygon fill="white" stroke="black" points="1125,-39 1125,-184 1250,-184 1250,-39 1125,-39"/>
<text text-anchor="middle" x="1187.5" y="-172" font-family="Helvetica,sans-Serif" font-size="10.00">NPNZ_STATUS_s</text>
<polyline fill="none" stroke="black" points="1125,-165 1250,-165 "/>
<text text-anchor="start" x="1133" y="-153" font-family="Helvetica,sans-Serif" font-size="10.00">+ lower_saturation_event</text>
<text text-anchor="start" x="1133" y="-142" font-family="Helvetica,sans-Serif" font-size="10.00">+ upper_saturation_event</text>
<text text-anchor="start" x="1133" y="-131" font-family="Helvetica,sans-Serif" font-size="10.00">+ unsigned</text>
<text text-anchor="start" x="1133" y="-120" font-family="Helvetica,sans-Serif" font-size="10.00">+ agc_enabled</text>
<text text-anchor="start" x="1133" y="-109" font-family="Helvetica,sans-Serif" font-size="10.00">+ swap_target</text>
<text text-anchor="start" x="1133" y="-98" font-family="Helvetica,sans-Serif" font-size="10.00">+ swap_source</text>
<text text-anchor="start" x="1133" y="-87" font-family="Helvetica,sans-Serif" font-size="10.00">+ invert_input</text>
<text text-anchor="start" x="1133" y="-76" font-family="Helvetica,sans-Serif" font-size="10.00">+ enabled</text>
<text text-anchor="start" x="1133" y="-65" font-family="Helvetica,sans-Serif" font-size="10.00">+ value</text>
<polyline fill="none" stroke="black" points="1125,-58 1250,-58 "/>
<text text-anchor="middle" x="1187.5" y="-46" font-family="Helvetica,sans-Serif" font-size="10.00"> </text>
</a>
</g>
</g>
<!-- Node2&#45;&gt;Node10 -->
<g id="edge18" class="edge">
<title>Node2&#45;&gt;Node10</title>
<path fill="none" stroke="midnightblue" d="M602.63,-279.76C607.54,-275.85 612.87,-272.41 618.5,-270 706.18,-232.37 954.38,-272.81 1047.5,-252 1079.96,-244.74 1091.03,-244.4 1116.5,-223 1129.42,-212.15 1140.8,-198.33 1150.46,-184.18"/>
<polygon fill="none" stroke="midnightblue" points="599.97,-277.43 594.8,-286.68 604.61,-282.68 599.97,-277.43"/>
</g>
<!-- Node3&#45;&gt;Node2 -->
<g id="edge2" class="edge">
<title>Node3&#45;&gt;Node2</title>
<path fill="none" stroke="#404040" d="M86.15,-156.54C98.89,-178.82 116.77,-204.9 138.5,-223 197.36,-272.04 426.94,-300.13 526.27,-310.2"/>
<polygon fill="none" stroke="#404040" points="526.34,-310.21 532.71,-306.82 538.28,-311.4 531.91,-314.78 526.34,-310.21"/>
<text text-anchor="middle" x="239.5" y="-244" font-family="Helvetica,sans-Serif" font-size="10.00"> +ADCTriggerControl</text>
</g>
<!-- Node4&#45;&gt;Node2 -->
<g id="edge4" class="edge">
<title>Node4&#45;&gt;Node2</title>
<path fill="none" stroke="#404040" d="M237.18,-156.52C250.33,-178.26 268.14,-203.87 288.5,-223 354.89,-285.4 464.11,-305.25 525.97,-311.56"/>
<polygon fill="none" stroke="#404040" points="526.1,-311.57 532.45,-308.14 538.05,-312.68 531.71,-316.11 526.1,-311.57"/>
<text text-anchor="middle" x="358" y="-244" font-family="Helvetica,sans-Serif" font-size="10.00"> +GainControl</text>
</g>
<!-- Node5&#45;&gt;Node2 -->
<g id="edge6" class="edge">
<title>Node5&#45;&gt;Node2</title>
<path fill="none" stroke="#404040" d="M355.09,-156.61C363.62,-178.64 376.47,-204.47 394.5,-223 431.47,-261 487.6,-286.21 526.92,-300.37"/>
<polygon fill="none" stroke="#404040" points="526.96,-300.38 533.94,-298.58 538.29,-304.33 531.31,-306.14 526.96,-300.38"/>
<text text-anchor="middle" x="446.5" y="-244" font-family="Helvetica,sans-Serif" font-size="10.00"> +Limits</text>
</g>
<!-- Node6&#45;&gt;Node2 -->
<g id="edge8" class="edge">
<title>Node6&#45;&gt;Node2</title>
<path fill="none" stroke="#404040" d="M510.77,-178.77C520.54,-202.03 531.79,-228.27 542.5,-252 546.03,-259.83 549.93,-268.15 553.71,-276.08"/>
<polygon fill="none" stroke="#404040" points="553.73,-276.13 559.93,-279.8 558.93,-286.94 552.72,-283.27 553.73,-276.13"/>
<text text-anchor="middle" x="568.5" y="-244" font-family="Helvetica,sans-Serif" font-size="10.00"> +Advanced</text>
</g>
<!-- Node7&#45;&gt;Node2 -->
<g id="edge11" class="edge">
<title>Node7&#45;&gt;Node2</title>
<path fill="none" stroke="#404040" d="M638.52,-211.66C634.99,-225.57 630.42,-239.4 624.5,-252 620.32,-260.9 614.56,-269.59 608.4,-277.51"/>
<polygon fill="none" stroke="#404040" points="608.39,-277.52 607.66,-284.69 600.75,-286.77 601.49,-279.6 608.39,-277.52"/>
<text text-anchor="middle" x="645" y="-244" font-family="Helvetica,sans-Serif" font-size="10.00"> +Filter</text>
</g>
<!-- Node8&#45;&gt;Node2 -->
<g id="edge13" class="edge">
<title>Node8&#45;&gt;Node2</title>
<path fill="none" stroke="#404040" d="M815.16,-156.56C806.01,-188.32 788.75,-229.41 757.5,-252 707.02,-288.49 674.62,-242.97 618.5,-270 613.64,-272.34 608.97,-275.4 604.59,-278.81"/>
<polygon fill="none" stroke="#404040" points="604.56,-278.83 602.66,-285.79 595.5,-286.71 597.4,-279.76 604.56,-278.83"/>
<text text-anchor="middle" x="804.5" y="-244" font-family="Helvetica,sans-Serif" font-size="10.00"> +DataProviders</text>
</g>
<!-- Node9&#45;&gt;Node2 -->
<g id="edge15" class="edge">
<title>Node9&#45;&gt;Node2</title>
<path fill="none" stroke="#404040" d="M979.78,-222.65C971.73,-234.1 962.06,-244.33 950.5,-252 888.93,-292.84 686.22,-240.45 618.5,-270 613.44,-272.21 608.61,-275.24 604.11,-278.69"/>
<polygon fill="none" stroke="#404040" points="603.89,-278.88 601.98,-285.83 594.83,-286.75 596.73,-279.79 603.89,-278.88"/>
<text text-anchor="middle" x="1003" y="-244" font-family="Helvetica,sans-Serif" font-size="10.00"> +ExtensionHooks</text>
</g>
<!-- Node10&#45;&gt;Node2 -->
<g id="edge17" class="edge">
<title>Node10&#45;&gt;Node2</title>
<path fill="none" stroke="#404040" d="M1178.61,-184.22C1171.65,-209.74 1159.32,-236.07 1137.5,-252 1090.9,-286.02 671.61,-247.44 618.5,-270 613.42,-272.16 608.57,-275.16 604.06,-278.59"/>
<polygon fill="none" stroke="#404040" points="603.85,-278.78 601.93,-285.73 594.78,-286.64 596.69,-279.68 603.85,-278.78"/>
<text text-anchor="middle" x="1167" y="-244" font-family="Helvetica,sans-Serif" font-size="10.00"> +status</text>
</g>
<!-- Node11&#45;&gt;Node1 -->
<g id="edge19" class="edge">
<title>Node11&#45;&gt;Node1</title>
<path fill="none" stroke="#404040" d="M664.71,-360.52C661.82,-380.01 657.32,-403 650.5,-423 649.68,-425.4 648.75,-427.82 647.75,-430.24"/>
<polygon fill="none" stroke="#404040" points="647.64,-430.48 648.77,-437.6 642.63,-441.38 641.5,-434.26 647.64,-430.48"/>
<text text-anchor="middle" x="686.5" y="-415" font-family="Helvetica,sans-Serif" font-size="10.00"> +AltSource</text>
<text text-anchor="middle" x="686.5" y="-404" font-family="Helvetica,sans-Serif" font-size="10.00">+AltTarget</text>
<text text-anchor="middle" x="686.5" y="-393" font-family="Helvetica,sans-Serif" font-size="10.00">+Source</text>
<text text-anchor="middle" x="686.5" y="-382" font-family="Helvetica,sans-Serif" font-size="10.00">+Target</text>
</g>
</g>
</svg>
        <g id="navigator" transform="translate(0 0)" fill="#404254">
                <rect fill="#f2f5e9" fill-opacity="0.5" stroke="#606060" stroke-width=".5" x="0" y="0" width="60" height="60"/>
                <use id="zoomplus" xlink:href="#zoomPlus" x="17" y="9" onmousedown="handleZoom(evt,'in')"/>
                <use id="zoomminus" xlink:href="#zoomMin" x="42" y="9" onmousedown="handleZoom(evt,'out')"/>
                <use id="reset" xlink:href="#resetDef" x="30" y="36" onmousedown="handleReset()"/>
                <g id="arrowUp" xlink:href="#dirArrow" transform="translate(30 24)" onmousedown="handlePan(0,-1)">
                  <use xlink:href="#rim" fill="#404040">
                        <set attributeName="fill" to="#808080" begin="arrowUp.mouseover" end="arrowUp.mouseout"/>
                  </use>
                  <path fill="none" stroke="white" stroke-width="1.5" d="M0,-3.0v7 M-2.5,-0.5L0,-3.0L2.5,-0.5"/>
                </g>
                <g id="arrowRight" xlink:href="#dirArrow" transform="rotate(90) translate(36 -43)" onmousedown="handlePan(1,0)">
                  <use xlink:href="#rim" fill="#404040">
                        <set attributeName="fill" to="#808080" begin="arrowRight.mouseover" end="arrowRight.mouseout"/>
                  </use>
                  <path fill="none" stroke="white" stroke-width="1.5" d="M0,-3.0v7 M-2.5,-0.5L0,-3.0L2.5,-0.5"/>
                </g>
                <g id="arrowDown" xlink:href="#dirArrow" transform="rotate(180) translate(-30 -48)" onmousedown="handlePan(0,1)">
                  <use xlink:href="#rim" fill="#404040">
                        <set attributeName="fill" to="#808080" begin="arrowDown.mouseover" end="arrowDown.mouseout"/>
                  </use>
                  <path fill="none" stroke="white" stroke-width="1.5" d="M0,-3.0v7 M-2.5,-0.5L0,-3.0L2.5,-0.5"/>
                </g>
                <g id="arrowLeft" xlink:href="#dirArrow" transform="rotate(270) translate(-36 17)" onmousedown="handlePan(-1,0)">
                  <use xlink:href="#rim" fill="#404040">
                        <set attributeName="fill" to="#808080" begin="arrowLeft.mouseover" end="arrowLeft.mouseout"/>
                  </use>
                  <path fill="none" stroke="white" stroke-width="1.5" d="M0,-3.0v7 M-2.5,-0.5L0,-3.0L2.5,-0.5"/>
                </g>
        </g>
        <svg viewBox="0 0 15 15" width="100%" height="30px" preserveAspectRatio="xMaxYMin meet">
         <g id="arrow_out" transform="scale(0.3 0.3)">
          <a xlink:href="a01702_org.svg" target="_base">
           <rect id="button" ry="5" rx="5" y="6" x="6" height="38" width="38"
                fill="#f2f5e9" fill-opacity="0.5" stroke="#606060" stroke-width="1.0"/>
           <path id="arrow"
             d="M 11.500037,31.436501 C 11.940474,20.09759 22.043105,11.32322 32.158766,21.979434 L 37.068811,17.246167 C 37.068811,17.246167 37.088388,32 37.088388,32 L 22.160133,31.978069 C 22.160133,31.978069 26.997745,27.140456 26.997745,27.140456 C 18.528582,18.264221 13.291696,25.230495 11.500037,31.436501 z"
             style="fill:#404040;"/>
          </a>
         </g>
        </svg>
</svg>
