<?xml version="1.0" encoding="UTF-8" standalone="no"?>
<!DOCTYPE svg PUBLIC "-//W3C//DTD SVG 1.1//EN"
 "http://www.w3.org/Graphics/SVG/1.1/DTD/svg11.dtd">
<!-- Generated by graphviz version 2.44.1 (20200629.0846)
 -->
<!-- Title: PUSH_BUTTON_OBJECT_s Pages: 1 -->
<svg width="148pt" height="292pt"
 viewBox="0.00 0.00 148.00 292.00" xmlns="http://www.w3.org/2000/svg" xmlns:xlink="http://www.w3.org/1999/xlink">
<g id="graph0" class="graph" transform="scale(1 1) rotate(0) translate(4 288)">
<title>PUSH_BUTTON_OBJECT_s</title>
<polygon fill="white" stroke="transparent" points="-4,4 -4,-288 144,-288 144,4 -4,4"/>
<!-- Node1 -->
<g id="node1" class="node">
<title>Node1</title>
<g id="a_node1"><a xlink:title="Push button function driver data object.">
<polygon fill="#bfbfbf" stroke="black" points="0,-171.5 0,-283.5 140,-283.5 140,-171.5 0,-171.5"/>
<text text-anchor="middle" x="70" y="-271.5" font-family="Helvetica,sans-Serif" font-size="10.00">PUSH_BUTTON_OBJECT_s</text>
<polyline fill="none" stroke="black" points="0,-264.5 140,-264.5 "/>
<text text-anchor="start" x="8" y="-252.5" font-family="Helvetica,sans-Serif" font-size="10.00">+ debounce_delay</text>
<text text-anchor="start" x="8" y="-241.5" font-family="Helvetica,sans-Serif" font-size="10.00">+ long_press_delay</text>
<text text-anchor="start" x="8" y="-230.5" font-family="Helvetica,sans-Serif" font-size="10.00">+ event_btn_down</text>
<text text-anchor="start" x="8" y="-219.5" font-family="Helvetica,sans-Serif" font-size="10.00">+ event_long_press</text>
<text text-anchor="start" x="8" y="-208.5" font-family="Helvetica,sans-Serif" font-size="10.00">+ event_pressed</text>
<text text-anchor="start" x="8" y="-197.5" font-family="Helvetica,sans-Serif" font-size="10.00">+ event_btn_up</text>
<polyline fill="none" stroke="black" points="0,-190.5 140,-190.5 "/>
<text text-anchor="middle" x="70" y="-178.5" font-family="Helvetica,sans-Serif" font-size="10.00"> </text>
</a>
</g>
</g>
<!-- Node2 -->
<g id="node2" class="node">
<title>Node2</title>
<g id="a_node2"><a xlink:href="a01748.html" target="_top" xlink:title="Status word of the push button driver.">
<polygon fill="white" stroke="black" points="0,-0.5 0,-123.5 140,-123.5 140,-0.5 0,-0.5"/>
<text text-anchor="middle" x="70" y="-111.5" font-family="Helvetica,sans-Serif" font-size="10.00">PUSH_BUTTON_STATUS_s</text>
<polyline fill="none" stroke="black" points="0,-104.5 140,-104.5 "/>
<text text-anchor="start" x="8" y="-92.5" font-family="Helvetica,sans-Serif" font-size="10.00">+ sw_event</text>
<text text-anchor="start" x="8" y="-81.5" font-family="Helvetica,sans-Serif" font-size="10.00">+ unsigned</text>
<text text-anchor="start" x="8" y="-70.5" font-family="Helvetica,sans-Serif" font-size="10.00">+ long_press</text>
<text text-anchor="start" x="8" y="-59.5" font-family="Helvetica,sans-Serif" font-size="10.00">+ pressed</text>
<text text-anchor="start" x="8" y="-48.5" font-family="Helvetica,sans-Serif" font-size="10.00">+ enabled</text>
<text text-anchor="start" x="8" y="-37.5" font-family="Helvetica,sans-Serif" font-size="10.00">+ value</text>
<text text-anchor="start" x="8" y="-26.5" font-family="Helvetica,sans-Serif" font-size="10.00">+ @241</text>
<polyline fill="none" stroke="black" points="0,-19.5 140,-19.5 "/>
<text text-anchor="middle" x="70" y="-7.5" font-family="Helvetica,sans-Serif" font-size="10.00"> </text>
</a>
</g>
</g>
<!-- Node1&#45;&gt;Node2 -->
<g id="edge2" class="edge">
<title>Node1&#45;&gt;Node2</title>
<path fill="none" stroke="midnightblue" d="M68.13,-161.12C68.08,-158.37 68.04,-155.66 68,-153 67.87,-143.47 67.92,-133.37 68.06,-123.51"/>
<polygon fill="none" stroke="midnightblue" points="64.63,-161.19 68.33,-171.12 71.63,-161.05 64.63,-161.19"/>
</g>
<!-- Node2&#45;&gt;Node1 -->
<g id="edge1" class="edge">
<title>Node2&#45;&gt;Node1</title>
<path fill="none" stroke="#404040" d="M70,-123.63C70,-135.18 70,-147.34 70,-159.09"/>
<polygon fill="none" stroke="#404040" points="70,-159.15 74,-165.15 70,-171.15 66,-165.15 70,-159.15"/>
<text text-anchor="middle" x="88.5" y="-145" font-family="Helvetica,sans-Serif" font-size="10.00"> +status</text>
</g>
</g>
</svg>
