<?xml version="1.0" encoding="UTF-8" standalone="no"?>
<!DOCTYPE svg PUBLIC "-//W3C//DTD SVG 1.1//EN"
 "http://www.w3.org/Graphics/SVG/1.1/DTD/svg11.dtd">
<!-- Generated by graphviz version 2.44.1 (20200629.0846)
 -->
<!-- Title: sfw_main Pages: 1 -->
<svg width="1155pt" height="775pt"
 viewBox="0.00 0.00 1154.87 774.78" xmlns="http://www.w3.org/2000/svg" xmlns:xlink="http://www.w3.org/1999/xlink">
<g id="graph0" class="graph" transform="scale(1 1) rotate(0) translate(14.4 760.38)">
<title>sfw_main</title>
<g id="clust3" class="cluster">
<title>cluster_1</title>
<polygon fill="ivory" stroke="orange" points="194.81,-94 194.81,-450.61 368.81,-450.61 368.81,-94 194.81,-94"/>
<text text-anchor="middle" x="281.81" y="-125.2" font-family="Handlee, Consolas, 'Courier New', Courier, Sans-Serif" font-size="11.00">OS Timer ISR</text>
<text text-anchor="middle" x="281.81" y="-113.2" font-family="Handlee, Consolas, 'Courier New', Courier, Sans-Serif" font-size="11.00">High Priority (HP)</text>
<text text-anchor="middle" x="281.81" y="-101.2" font-family="Handlee, Consolas, 'Courier New', Courier, Sans-Serif" font-size="11.00">Tasks</text>
</g>
<g id="clust1" class="cluster">
<title>cluster_0</title>
<polygon fill="transparent" stroke="lightgrey" points="474.81,-148 474.81,-677.98 685.81,-677.98 685.81,-148 474.81,-148"/>
<text text-anchor="middle" x="641.31" y="-665.18" font-family="Handlee, Consolas, 'Courier New', Courier, Sans-Serif" font-size="11.00">Main Program</text>
</g>
<g id="clust2" class="cluster">
<title>cluster_01</title>
<polygon fill="ivory" stroke="grey" points="482.81,-156 482.81,-596.73 677.81,-596.73 677.81,-156 482.81,-156"/>
<text text-anchor="middle" x="642.31" y="-583.93" font-family="Handlee, Consolas, 'Courier New', Courier, Sans-Serif" font-size="11.00">Main Loop</text>
</g>
<g id="clust4" class="cluster">
<title>cluster_2</title>
<polygon fill="transparent" stroke="transparent" points="693.81,-250.5 693.81,-737.98 1061.81,-737.98 1061.81,-250.5 693.81,-250.5"/>
<text text-anchor="middle" x="877.81" y="-261.3" font-family="Handlee, Consolas, 'Courier New', Courier, Sans-Serif" font-size="24.00"> &#160;&#160;&#160;&#160;</text>
</g>
<g id="clust6" class="cluster">
<title>cluster_20</title>
<polygon fill="ivory" stroke="orange" points="791.81,-292.5 791.81,-498.5 965.81,-498.5 965.81,-292.5 791.81,-292.5"/>
<text text-anchor="middle" x="878.81" y="-311.7" font-family="Handlee, Consolas, 'Courier New', Courier, Sans-Serif" font-size="11.00">High Speed</text>
<text text-anchor="middle" x="878.81" y="-299.7" font-family="Handlee, Consolas, 'Courier New', Courier, Sans-Serif" font-size="11.00">Control Loop ISR</text>
</g>
<g id="clust5" class="cluster">
<title>cluster_21</title>
<polygon fill="transparent" stroke="transparent" points="701.81,-511.61 701.81,-729.98 1053.81,-729.98 1053.81,-511.61 701.81,-511.61"/>
</g>
<!-- a0 -->
<g id="node1" class="node">
<title>a0</title>
<ellipse fill="#c1ffc1" stroke="black" cx="563.81" cy="-627.35" rx="71.34" ry="22.76"/>
<text text-anchor="middle" x="563.81" y="-630.55" font-family="Handlee, Consolas, 'Courier New', Courier, Sans-Serif" font-size="11.00">Device</text>
<text text-anchor="middle" x="563.81" y="-618.55" font-family="Handlee, Consolas, 'Courier New', Courier, Sans-Serif" font-size="11.00">Initialization</text>
</g>
<!-- b0 -->
<g id="node2" class="node">
<title>b0</title>
<ellipse fill="mistyrose" stroke="black" cx="574.81" cy="-537.61" rx="84.29" ry="31.23"/>
<text text-anchor="middle" x="574.81" y="-546.81" font-family="Handlee, Consolas, 'Courier New', Courier, Sans-Serif" font-size="11.00">Wait for</text>
<text text-anchor="middle" x="574.81" y="-534.81" font-family="Handlee, Consolas, 'Courier New', Courier, Sans-Serif" font-size="11.00">Low Priority Task</text>
<text text-anchor="middle" x="574.81" y="-522.81" font-family="Handlee, Consolas, 'Courier New', Courier, Sans-Serif" font-size="11.00">Trigger</text>
</g>
<!-- a0&#45;&gt;b0 -->
<g id="edge11" class="edge">
<title>a0:s&#45;&gt;b0:n</title>
<path fill="none" stroke="black" d="M563.81,-604.73C563.81,-592.46 570,-588.04 573.09,-579.7"/>
<polygon fill="black" stroke="black" points="576.58,-580.06 574.81,-569.61 569.68,-578.88 576.58,-580.06"/>
</g>
<!-- timer -->
<g id="node15" class="node">
<title>timer</title>
<polygon fill="dodgerblue" stroke="black" points="326.81,-555.61 250.94,-537.61 326.81,-519.61 402.69,-537.61 326.81,-555.61"/>
<text text-anchor="middle" x="326.81" y="-534.81" font-family="Handlee, Consolas, 'Courier New', Courier, Sans-Serif" font-size="11.00" fill="white">OS Timer IRQ</text>
</g>
<!-- a0&#45;&gt;timer -->
<g id="edge10" class="edge">
<title>a0:w&#45;&gt;timer:ne</title>
<path fill="none" stroke="black" d="M490.81,-627.35C420.39,-627.35 396.31,-607.83 348.97,-560.76"/>
<polygon fill="black" stroke="black" points="351.36,-558.2 341.81,-553.61 346.42,-563.15 351.36,-558.2"/>
</g>
<!-- b1 -->
<g id="node3" class="node">
<title>b1</title>
<ellipse fill="#ffec8b" stroke="black" cx="602.81" cy="-411.5" rx="67.35" ry="31.23"/>
<text text-anchor="middle" x="602.81" y="-420.7" font-family="Handlee, Consolas, 'Courier New', Courier, Sans-Serif" font-size="11.00">Low</text>
<text text-anchor="middle" x="602.81" y="-408.7" font-family="Handlee, Consolas, 'Courier New', Courier, Sans-Serif" font-size="11.00">Priority Task</text>
<text text-anchor="middle" x="602.81" y="-396.7" font-family="Handlee, Consolas, 'Courier New', Courier, Sans-Serif" font-size="11.00">Execution</text>
</g>
<!-- b0&#45;&gt;b1 -->
<g id="edge1" class="edge">
<title>b0&#45;&gt;b1</title>
<path fill="none" stroke="black" d="M581.59,-506.57C585.24,-490.38 589.8,-470.18 593.75,-452.66"/>
<polygon fill="black" stroke="black" points="597.21,-453.22 596,-442.7 590.38,-451.68 597.21,-453.22"/>
</g>
<!-- b2 -->
<g id="node4" class="node">
<title>b2</title>
<ellipse fill="white" stroke="black" cx="570.81" cy="-182" rx="57.25" ry="18"/>
<text text-anchor="middle" x="570.81" y="-179.2" font-family="Handlee, Consolas, 'Courier New', Courier, Sans-Serif" font-size="11.00">Exit Program?</text>
</g>
<!-- b1&#45;&gt;b2 -->
<g id="edge2" class="edge">
<title>b1&#45;&gt;b2</title>
<path fill="none" stroke="black" d="M598.56,-380.29C592.29,-335.72 580.66,-253.01 574.64,-210.22"/>
<polygon fill="black" stroke="black" points="578.1,-209.67 573.24,-200.25 571.16,-210.64 578.1,-209.67"/>
</g>
<!-- lp_task -->
<g id="node14" class="node">
<title>lp_task</title>
<polygon fill="ivory" stroke="black" points="694.31,-122 694.31,-242 831.31,-242 831.31,-122 694.31,-122"/>
<text text-anchor="middle" x="762.81" y="-229.2" font-family="Handlee, Consolas, 'Courier New', Courier, Sans-Serif" font-size="11.00">Low Priority Tasks</text>
<polyline fill="none" stroke="black" points="694.31,-222 831.31,-222 "/>
<text text-anchor="middle" x="762.81" y="-209.2" font-family="Handlee, Consolas, 'Courier New', Courier, Sans-Serif" font-size="11.00">user taks #1</text>
<polyline fill="none" stroke="black" points="694.31,-202 831.31,-202 "/>
<text text-anchor="middle" x="762.81" y="-189.2" font-family="Handlee, Consolas, 'Courier New', Courier, Sans-Serif" font-size="11.00">user taks #2</text>
<polyline fill="none" stroke="black" points="694.31,-182 831.31,-182 "/>
<text text-anchor="middle" x="762.81" y="-169.2" font-family="Handlee, Consolas, 'Courier New', Courier, Sans-Serif" font-size="11.00">user taks #3</text>
<polyline fill="none" stroke="black" points="694.31,-162 831.31,-162 "/>
<text text-anchor="middle" x="762.81" y="-149.2" font-family="Handlee, Consolas, 'Courier New', Courier, Sans-Serif" font-size="11.00">...</text>
<polyline fill="none" stroke="black" points="694.31,-142 831.31,-142 "/>
<text text-anchor="middle" x="762.81" y="-129.2" font-family="Handlee, Consolas, 'Courier New', Courier, Sans-Serif" font-size="11.00">user taks #4</text>
</g>
<!-- b1&#45;&gt;lp_task -->
<g id="edge12" class="edge">
<title>b1:e&#45;&gt;lp_task:n</title>
<path fill="none" stroke="black" d="M670.81,-411.5C752.99,-411.5 762.18,-334.41 762.78,-252.51"/>
<polygon fill="black" stroke="black" points="766.28,-252.51 762.81,-242.5 759.28,-252.49 766.28,-252.51"/>
</g>
<!-- b2&#45;&gt;b0 -->
<g id="edge17" class="edge">
<title>b2&#45;&gt;b0</title>
<path fill="none" stroke="black" d="M551.42,-199.07C538.01,-211.51 521.29,-230.05 513.81,-250.5 475.95,-354.02 460.37,-402.1 513.81,-498.5 515.08,-500.79 516.56,-502.97 518.19,-505.03"/>
<polygon fill="black" stroke="black" points="515.77,-507.56 525.2,-512.4 520.85,-502.74 515.77,-507.56"/>
</g>
<!-- end -->
<g id="node16" class="node">
<title>end</title>
<polygon fill="none" stroke="black" points="588.81,-86 552.81,-86 552.81,-50 588.81,-50 588.81,-86"/>
<polyline fill="none" stroke="black" points="564.81,-86 552.81,-74 "/>
<polyline fill="none" stroke="black" points="552.81,-62 564.81,-50 "/>
<polyline fill="none" stroke="black" points="576.81,-50 588.81,-62 "/>
<polyline fill="none" stroke="black" points="588.81,-74 576.81,-86 "/>
<text text-anchor="middle" x="570.81" y="-65.2" font-family="Handlee, Consolas, 'Courier New', Courier, Sans-Serif" font-size="11.00">end</text>
</g>
<!-- b2&#45;&gt;end -->
<g id="edge18" class="edge">
<title>b2&#45;&gt;end</title>
<path fill="none" stroke="black" d="M570.81,-163.99C570.81,-146.06 570.81,-117.56 570.81,-96.44"/>
<polygon fill="black" stroke="black" points="574.31,-96.17 570.81,-86.17 567.31,-96.17 574.31,-96.17"/>
</g>
<!-- c0 -->
<g id="node5" class="node">
<title>c0</title>
<ellipse fill="#ffec8b" stroke="black" cx="281.81" cy="-411.5" rx="79" ry="31.23"/>
<text text-anchor="middle" x="281.81" y="-420.7" font-family="Handlee, Consolas, 'Courier New', Courier, Sans-Serif" font-size="11.00">High</text>
<text text-anchor="middle" x="281.81" y="-408.7" font-family="Handlee, Consolas, 'Courier New', Courier, Sans-Serif" font-size="11.00">Priority Task</text>
<text text-anchor="middle" x="281.81" y="-396.7" font-family="Handlee, Consolas, 'Courier New', Courier, Sans-Serif" font-size="11.00">Execution</text>
</g>
<!-- c1 -->
<g id="node6" class="node">
<title>c1</title>
<polygon fill="mistyrose" stroke="black" points="348.81,-212 202.81,-212 202.81,-152 348.81,-152 360.81,-182 348.81,-212"/>
<text text-anchor="middle" x="281.81" y="-191.2" font-family="Handlee, Consolas, 'Courier New', Courier, Sans-Serif" font-size="11.00">Set</text>
<text text-anchor="middle" x="281.81" y="-179.2" font-family="Handlee, Consolas, 'Courier New', Courier, Sans-Serif" font-size="11.00">Low Priority Task</text>
<text text-anchor="middle" x="281.81" y="-167.2" font-family="Handlee, Consolas, 'Courier New', Courier, Sans-Serif" font-size="11.00">Trigger</text>
</g>
<!-- c0&#45;&gt;c1 -->
<g id="edge3" class="edge">
<title>c0&#45;&gt;c1</title>
<path fill="none" stroke="black" d="M281.81,-380.29C281.81,-341.38 281.81,-273.4 281.81,-228.3"/>
<polygon fill="black" stroke="black" points="285.31,-228.2 281.81,-218.2 278.31,-228.2 285.31,-228.2"/>
</g>
<!-- hp_task -->
<g id="node13" class="node">
<title>hp_task</title>
<polygon fill="ivory" stroke="black" points="22.31,-122 22.31,-242 159.31,-242 159.31,-122 22.31,-122"/>
<text text-anchor="middle" x="90.81" y="-229.2" font-family="Handlee, Consolas, 'Courier New', Courier, Sans-Serif" font-size="11.00">High Priority Tasks</text>
<polyline fill="none" stroke="black" points="22.31,-222 159.31,-222 "/>
<text text-anchor="middle" x="90.81" y="-209.2" font-family="Handlee, Consolas, 'Courier New', Courier, Sans-Serif" font-size="11.00">user taks #1</text>
<polyline fill="none" stroke="black" points="22.31,-202 159.31,-202 "/>
<text text-anchor="middle" x="90.81" y="-189.2" font-family="Handlee, Consolas, 'Courier New', Courier, Sans-Serif" font-size="11.00">user taks #2</text>
<polyline fill="none" stroke="black" points="22.31,-182 159.31,-182 "/>
<text text-anchor="middle" x="90.81" y="-169.2" font-family="Handlee, Consolas, 'Courier New', Courier, Sans-Serif" font-size="11.00">user taks #3</text>
<polyline fill="none" stroke="black" points="22.31,-162 159.31,-162 "/>
<text text-anchor="middle" x="90.81" y="-149.2" font-family="Handlee, Consolas, 'Courier New', Courier, Sans-Serif" font-size="11.00">...</text>
<polyline fill="none" stroke="black" points="22.31,-142 159.31,-142 "/>
<text text-anchor="middle" x="90.81" y="-129.2" font-family="Handlee, Consolas, 'Courier New', Courier, Sans-Serif" font-size="11.00">user taks #4</text>
</g>
<!-- c0&#45;&gt;hp_task -->
<g id="edge14" class="edge">
<title>c0&#45;&gt;hp_task:n</title>
<path fill="none" stroke="black" d="M226.05,-389.3C172.32,-364.99 98.16,-319.66 91.32,-252.56"/>
<polygon fill="black" stroke="black" points="94.81,-252.31 90.81,-242.5 87.82,-252.66 94.81,-252.31"/>
</g>
<!-- c1&#45;&gt;b0 -->
<g id="edge16" class="edge">
<title>c1:e&#45;&gt;b0</title>
<path fill="none" stroke="black" d="M361.81,-182C510.3,-182 364.82,-392.5 468.81,-498.5 476.08,-505.91 484.88,-511.88 494.28,-516.69"/>
<polygon fill="black" stroke="black" points="492.89,-519.91 503.44,-520.97 495.85,-513.57 492.89,-519.91"/>
</g>
<!-- pwm -->
<g id="node7" class="node">
<title>pwm</title>
<polygon fill="white" stroke="transparent" points="1045.31,-648.85 902.31,-648.85 902.31,-605.85 1045.31,-605.85 1045.31,-648.85"/>
<text text-anchor="middle" x="973.81" y="-624.55" font-family="Handlee, Consolas, 'Courier New', Courier, Sans-Serif" font-size="11.00" fill="red">PWM Signal Generation</text>
</g>
<!-- irq -->
<g id="node10" class="node">
<title>irq</title>
<polygon fill="dodgerblue" stroke="black" points="878.81,-555.61 808.14,-537.61 878.81,-519.61 949.48,-537.61 878.81,-555.61"/>
<text text-anchor="middle" x="878.81" y="-534.81" font-family="Handlee, Consolas, 'Courier New', Courier, Sans-Serif" font-size="11.00" fill="white">PWM/ADC IRQ</text>
</g>
<!-- pwm&#45;&gt;irq -->
<g id="edge6" class="edge">
<title>pwm:s&#45;&gt;irq:e</title>
<path fill="none" stroke="black" d="M973.81,-604.73C973.81,-577.14 980.34,-546.44 960.85,-539.2"/>
<polygon fill="black" stroke="black" points="961.24,-535.72 950.81,-537.61 960.14,-542.63 961.24,-535.72"/>
</g>
<!-- adc -->
<g id="node8" class="node">
<title>adc</title>
<polygon fill="white" stroke="transparent" points="859.31,-648.85 710.31,-648.85 710.31,-605.85 859.31,-605.85 859.31,-648.85"/>
<text text-anchor="middle" x="784.81" y="-624.55" font-family="Handlee, Consolas, 'Courier New', Courier, Sans-Serif" font-size="11.00" fill="red">ADC Trigger Generation</text>
</g>
<!-- adc&#45;&gt;irq -->
<g id="edge7" class="edge">
<title>adc:s&#45;&gt;irq:w</title>
<path fill="none" stroke="black" d="M784.81,-604.73C784.81,-577.26 777.62,-546.48 796.85,-539.21"/>
<polygon fill="black" stroke="black" points="797.49,-542.65 806.81,-537.61 796.38,-535.74 797.49,-542.65"/>
</g>
<!-- aclk -->
<g id="node9" class="node">
<title>aclk</title>
<polygon fill="white" stroke="transparent" points="932.31,-721.98 825.31,-721.98 825.31,-685.98 932.31,-685.98 932.31,-721.98"/>
<text text-anchor="middle" x="878.81" y="-701.18" font-family="Handlee, Consolas, 'Courier New', Courier, Sans-Serif" font-size="11.00" fill="red">Auxiliary Clock</text>
</g>
<!-- aclk&#45;&gt;pwm -->
<g id="edge4" class="edge">
<title>aclk:s&#45;&gt;pwm:n</title>
<path fill="none" stroke="black" d="M878.81,-685.98C878.81,-666.87 947.07,-670.76 967.87,-658.65"/>
<polygon fill="black" stroke="black" points="970.84,-660.52 973.81,-650.35 965.14,-656.45 970.84,-660.52"/>
</g>
<!-- aclk&#45;&gt;adc -->
<g id="edge5" class="edge">
<title>aclk:s&#45;&gt;adc:n</title>
<path fill="none" stroke="black" d="M878.81,-685.98C878.81,-645.32 800.94,-686.17 786.95,-660.15"/>
<polygon fill="black" stroke="black" points="790.36,-659.38 784.81,-650.35 783.52,-660.87 790.36,-659.38"/>
</g>
<!-- ctrl -->
<g id="node11" class="node">
<title>ctrl</title>
<polygon fill="#ffec8b" stroke="black" points="957.81,-490.5 799.81,-490.5 799.81,-332.5 957.81,-332.5 957.81,-490.5"/>
<polyline fill="none" stroke="black" points="811.81,-490.5 799.81,-478.5 "/>
<polyline fill="none" stroke="black" points="799.81,-344.5 811.81,-332.5 "/>
<polyline fill="none" stroke="black" points="945.81,-332.5 957.81,-344.5 "/>
<polyline fill="none" stroke="black" points="957.81,-478.5 945.81,-490.5 "/>
<text text-anchor="middle" x="878.81" y="-420.7" font-family="Handlee, Consolas, 'Courier New', Courier, Sans-Serif" font-size="11.00">High Speed Control ISR</text>
<text text-anchor="middle" x="878.81" y="-408.7" font-family="Handlee, Consolas, 'Courier New', Courier, Sans-Serif" font-size="11.00">Voltage and/or </text>
<text text-anchor="middle" x="878.81" y="-396.7" font-family="Handlee, Consolas, 'Courier New', Courier, Sans-Serif" font-size="11.00">Current Regulation</text>
</g>
<!-- irq&#45;&gt;ctrl -->
<g id="edge21" class="edge">
<title>irq:s&#45;&gt;ctrl:n</title>
<path fill="none" stroke="black" d="M878.81,-518.61C878.81,-510.89 878.81,-506.88 878.81,-501.83"/>
<polygon fill="black" stroke="black" points="882.31,-501.5 878.81,-491.5 875.31,-501.5 882.31,-501.5"/>
</g>
<!-- start -->
<g id="node12" class="node">
<title>start</title>
<polygon fill="none" stroke="black" points="563.81,-721.98 523.87,-703.98 563.81,-685.98 603.75,-703.98 563.81,-721.98"/>
<polyline fill="none" stroke="black" points="534.81,-708.91 534.81,-699.05 "/>
<polyline fill="none" stroke="black" points="552.87,-690.91 574.75,-690.91 "/>
<polyline fill="none" stroke="black" points="592.81,-699.05 592.81,-708.91 "/>
<polyline fill="none" stroke="black" points="574.75,-717.05 552.87,-717.05 "/>
<text text-anchor="middle" x="563.81" y="-701.18" font-family="Handlee, Consolas, 'Courier New', Courier, Sans-Serif" font-size="11.00">start</text>
</g>
<!-- start&#45;&gt;a0 -->
<g id="edge8" class="edge">
<title>start:s&#45;&gt;a0:n</title>
<path fill="none" stroke="black" d="M563.81,-685.98C563.81,-674.68 563.81,-669.6 563.81,-661.61"/>
<polygon fill="black" stroke="black" points="567.31,-661.35 563.81,-651.35 560.31,-661.35 567.31,-661.35"/>
</g>
<!-- hp_task&#45;&gt;c0 -->
<g id="edge15" class="edge">
<title>hp_task:nw&#45;&gt;c0:w</title>
<path fill="none" stroke="black" d="M21.81,-242.5C-53.43,-317.75 83.33,-405.98 191.75,-411.25"/>
<polygon fill="black" stroke="black" points="191.73,-414.75 201.81,-411.5 191.9,-407.75 191.73,-414.75"/>
</g>
<!-- lp_task&#45;&gt;b1 -->
<g id="edge13" class="edge">
<title>lp_task:nw&#45;&gt;b1</title>
<path fill="none" stroke="black" d="M693.81,-242.5C656.99,-279.32 631.11,-334.15 616.6,-371.06"/>
<polygon fill="black" stroke="black" points="613.29,-369.91 612.98,-380.5 619.83,-372.42 613.29,-369.91"/>
</g>
<!-- timer&#45;&gt;c0 -->
<g id="edge20" class="edge">
<title>timer&#45;&gt;c0</title>
<path fill="none" stroke="black" d="M321.11,-520.89C314.9,-503.77 304.73,-475.71 296.29,-452.44"/>
<polygon fill="black" stroke="black" points="299.5,-451 292.8,-442.8 292.91,-453.39 299.5,-451"/>
</g>
<!-- reset -->
<g id="node17" class="node">
<title>reset</title>
<text text-anchor="middle" x="570.81" y="-15.2" font-family="Handlee, Consolas, 'Courier New', Courier, Sans-Serif" font-size="11.00" fill="red">Reset CPU</text>
</g>
<!-- end&#45;&gt;reset -->
<g id="edge19" class="edge">
<title>end&#45;&gt;reset</title>
<path fill="none" stroke="black" d="M570.81,-49.94C570.81,-48.67 570.81,-47.37 570.81,-46.05"/>
<polygon fill="black" stroke="black" points="574.31,-46 570.81,-36 567.31,-46 574.31,-46"/>
</g>
<!-- clock -->
<g id="node18" class="node">
<title>clock</title>
<text text-anchor="middle" x="326.81" y="-624.55" font-family="Handlee, Consolas, 'Courier New', Courier, Sans-Serif" font-size="11.00" fill="red">System Clock</text>
</g>
<!-- clock&#45;&gt;timer -->
<g id="edge9" class="edge">
<title>clock:s&#45;&gt;timer:n</title>
<path fill="none" stroke="black" d="M326.81,-608.35C326.81,-589.13 326.81,-581.96 326.81,-566.69"/>
<polygon fill="black" stroke="black" points="330.31,-566.61 326.81,-556.61 323.31,-566.61 330.31,-566.61"/>
</g>
<!-- blank -->
</g>
</svg>
