<?xml version="1.0" encoding="UTF-8" standalone="no"?>
<!DOCTYPE svg PUBLIC "-//W3C//DTD SVG 1.1//EN"
 "http://www.w3.org/Graphics/SVG/1.1/DTD/svg11.dtd">
<!-- Generated by graphviz version 2.44.1 (20200629.0846)
 -->
<!-- Title: Graphical Class Hierarchy Pages: 1 -->
<svg width="392pt" height="332pt"
 viewBox="0.00 0.00 392.00 332.00" xmlns="http://www.w3.org/2000/svg" xmlns:xlink="http://www.w3.org/1999/xlink">
<g id="graph0" class="graph" transform="scale(1 1) rotate(0) translate(4 328)">
<title>Graphical Class Hierarchy</title>
<polygon fill="white" stroke="transparent" points="-4,4 -4,-328 388,-328 388,4 -4,4"/>
<!-- Node0 -->
<g id="node1" class="node">
<title>Node0</title>
<g id="a_node1"><a xlink:href="a01736.html" target="_top" xlink:title="Global NPNZ controller data object.">
<polygon fill="white" stroke="black" points="0,-152.5 0,-171.5 68,-171.5 68,-152.5 0,-152.5"/>
<text text-anchor="middle" x="34" y="-159.5" font-family="Helvetica,sans-Serif" font-size="10.00">NPNZ16b_s</text>
</a>
</g>
</g>
<!-- Node1 -->
<g id="node2" class="node">
<title>Node1</title>
<g id="a_node2"><a xlink:href="a01716.html" target="_top" xlink:title="Automated ADC Trigger handling.">
<polygon fill="white" stroke="black" points="120.5,-304.5 120.5,-323.5 247.5,-323.5 247.5,-304.5 120.5,-304.5"/>
<text text-anchor="middle" x="184" y="-311.5" font-family="Helvetica,sans-Serif" font-size="10.00">NPNZ_ADC_TRGCTRL_s</text>
</a>
</g>
</g>
<!-- Node0&#45;&gt;Node1 -->
<g id="edge1" class="edge">
<title>Node0&#45;&gt;Node1</title>
<path fill="none" stroke="midnightblue" d="M39.65,-181.71C47.62,-211.04 66.76,-265.85 104,-295 108.89,-298.83 114.43,-301.9 120.25,-304.36"/>
<polygon fill="midnightblue" stroke="midnightblue" points="42.99,-180.64 37.12,-171.82 36.21,-182.37 42.99,-180.64"/>
</g>
<!-- Node2 -->
<g id="node3" class="node">
<title>Node2</title>
<g id="a_node3"><a xlink:href="a01720.html" target="_top" xlink:title="Data Provider Target Memory Addresses.">
<polygon fill="white" stroke="black" points="111,-266.5 111,-285.5 257,-285.5 257,-266.5 111,-266.5"/>
<text text-anchor="middle" x="184" y="-273.5" font-family="Helvetica,sans-Serif" font-size="10.00">NPNZ_DATA_PROVIDERS_s</text>
</a>
</g>
</g>
<!-- Node0&#45;&gt;Node2 -->
<g id="edge2" class="edge">
<title>Node0&#45;&gt;Node2</title>
<path fill="none" stroke="midnightblue" d="M43.53,-180.75C54.41,-202.5 75.33,-237.83 104,-257 109.75,-260.84 116.19,-263.91 122.85,-266.36"/>
<polygon fill="midnightblue" stroke="midnightblue" points="46.6,-179.05 39.12,-171.55 40.29,-182.08 46.6,-179.05"/>
</g>
<!-- Node3 -->
<g id="node4" class="node">
<title>Node3</title>
<g id="a_node4"><a xlink:href="a01724.html" target="_top" xlink:title="User Extension Function Call Parameters.">
<polygon fill="white" stroke="black" points="108,-228.5 108,-247.5 260,-247.5 260,-228.5 108,-228.5"/>
<text text-anchor="middle" x="184" y="-235.5" font-family="Helvetica,sans-Serif" font-size="10.00">NPNZ_EXTENSION_HOOKS_s</text>
</a>
</g>
</g>
<!-- Node0&#45;&gt;Node3 -->
<g id="edge3" class="edge">
<title>Node0&#45;&gt;Node3</title>
<path fill="none" stroke="midnightblue" d="M51.1,-178.98C64.18,-191.81 83.74,-208.88 104,-219 111.7,-222.85 120.21,-225.94 128.72,-228.42"/>
<polygon fill="midnightblue" stroke="midnightblue" points="53.36,-176.29 43.84,-171.64 48.38,-181.21 53.36,-176.29"/>
</g>
<!-- Node4 -->
<g id="node5" class="node">
<title>Node4</title>
<g id="a_node5"><a xlink:href="a01708.html" target="_top" xlink:title="Filter Coefficient Arrays, Number Format Handling and Input/Output History Parameters.">
<polygon fill="white" stroke="black" points="115.5,-190.5 115.5,-209.5 252.5,-209.5 252.5,-190.5 115.5,-190.5"/>
<text text-anchor="middle" x="184" y="-197.5" font-family="Helvetica,sans-Serif" font-size="10.00">NPNZ_FILTER_PARAMS_s</text>
</a>
</g>
</g>
<!-- Node0&#45;&gt;Node4 -->
<g id="edge4" class="edge">
<title>Node0&#45;&gt;Node4</title>
<path fill="none" stroke="midnightblue" d="M78.11,-174.1C86.67,-176.44 95.61,-178.84 104,-181 116.43,-184.21 130.01,-187.53 142.34,-190.49"/>
<polygon fill="midnightblue" stroke="midnightblue" points="78.85,-170.68 68.28,-171.4 77,-177.43 78.85,-170.68"/>
</g>
<!-- Node5 -->
<g id="node6" class="node">
<title>Node5</title>
<g id="a_node6"><a xlink:href="a01728.html" target="_top" xlink:title="Adaptive Gain Control Modulation Parameters.">
<polygon fill="white" stroke="black" points="118,-152.5 118,-171.5 250,-171.5 250,-152.5 118,-152.5"/>
<text text-anchor="middle" x="184" y="-159.5" font-family="Helvetica,sans-Serif" font-size="10.00">NPNZ_GAIN_CONTROL_s</text>
</a>
</g>
</g>
<!-- Node0&#45;&gt;Node5 -->
<g id="edge5" class="edge">
<title>Node0&#45;&gt;Node5</title>
<path fill="none" stroke="midnightblue" d="M78.24,-162C90.61,-162 104.38,-162 117.77,-162"/>
<polygon fill="midnightblue" stroke="midnightblue" points="78.21,-158.5 68.21,-162 78.21,-165.5 78.21,-158.5"/>
</g>
<!-- Node6 -->
<g id="node7" class="node">
<title>Node6</title>
<g id="a_node7"><a xlink:href="a01712.html" target="_top" xlink:title="System Anti&#45;Windup (Output Clamping) Thresholds.">
<polygon fill="white" stroke="black" points="140,-114.5 140,-133.5 228,-133.5 228,-114.5 140,-114.5"/>
<text text-anchor="middle" x="184" y="-121.5" font-family="Helvetica,sans-Serif" font-size="10.00">NPNZ_LIMITS_s</text>
</a>
</g>
</g>
<!-- Node0&#45;&gt;Node6 -->
<g id="edge6" class="edge">
<title>Node0&#45;&gt;Node6</title>
<path fill="none" stroke="midnightblue" d="M78.11,-149.9C86.67,-147.56 95.61,-145.16 104,-143 116.43,-139.79 130.01,-136.47 142.34,-133.51"/>
<polygon fill="midnightblue" stroke="midnightblue" points="77,-146.57 68.28,-152.6 78.85,-153.32 77,-146.57"/>
</g>
<!-- Node7 -->
<g id="node8" class="node">
<title>Node7</title>
<g id="a_node8"><a xlink:href="a01704.html" target="_top" xlink:title="Filter Coefficient Arrays, Number Format Handling and Input/Output History Parameters.">
<polygon fill="white" stroke="black" points="138.5,-76.5 138.5,-95.5 229.5,-95.5 229.5,-76.5 138.5,-76.5"/>
<text text-anchor="middle" x="184" y="-83.5" font-family="Helvetica,sans-Serif" font-size="10.00">NPNZ_PORTS_s</text>
</a>
</g>
</g>
<!-- Node0&#45;&gt;Node7 -->
<g id="edge7" class="edge">
<title>Node0&#45;&gt;Node7</title>
<path fill="none" stroke="midnightblue" d="M51.1,-145.02C64.18,-132.19 83.74,-115.12 104,-105 114.6,-99.71 126.75,-95.84 138.29,-93.04"/>
<polygon fill="midnightblue" stroke="midnightblue" points="48.38,-142.79 43.84,-152.36 53.36,-147.71 48.38,-142.79"/>
</g>
<!-- Node9 -->
<g id="node10" class="node">
<title>Node9</title>
<g id="a_node10"><a xlink:href="a01680.html" target="_top" xlink:title="NPNZ16b controller object status and control word.">
<polygon fill="white" stroke="black" points="136.5,-38.5 136.5,-57.5 231.5,-57.5 231.5,-38.5 136.5,-38.5"/>
<text text-anchor="middle" x="184" y="-45.5" font-family="Helvetica,sans-Serif" font-size="10.00">NPNZ_STATUS_s</text>
</a>
</g>
</g>
<!-- Node0&#45;&gt;Node9 -->
<g id="edge9" class="edge">
<title>Node0&#45;&gt;Node9</title>
<path fill="none" stroke="midnightblue" d="M43.53,-143.25C54.41,-121.5 75.33,-86.17 104,-67 113.62,-60.57 125.18,-56.31 136.45,-53.49"/>
<polygon fill="midnightblue" stroke="midnightblue" points="40.29,-141.92 39.12,-152.45 46.6,-144.95 40.29,-141.92"/>
</g>
<!-- Node10 -->
<g id="node11" class="node">
<title>Node10</title>
<g id="a_node11"><a xlink:href="a01732.html" target="_top" xlink:title="User Data Space for Advanced Control Functions.">
<polygon fill="white" stroke="black" points="104,-0.5 104,-19.5 264,-19.5 264,-0.5 104,-0.5"/>
<text text-anchor="middle" x="184" y="-7.5" font-family="Helvetica,sans-Serif" font-size="10.00">NPNZ_USER_DATA_BUFFER_s</text>
</a>
</g>
</g>
<!-- Node0&#45;&gt;Node10 -->
<g id="edge10" class="edge">
<title>Node0&#45;&gt;Node10</title>
<path fill="none" stroke="midnightblue" d="M39.65,-142.29C47.62,-112.96 66.76,-58.15 104,-29 108.89,-25.17 114.43,-22.1 120.25,-19.64"/>
<polygon fill="midnightblue" stroke="midnightblue" points="36.21,-141.63 37.12,-152.18 42.99,-143.36 36.21,-141.63"/>
</g>
<!-- Node8 -->
<g id="node9" class="node">
<title>Node8</title>
<g id="a_node9"><a xlink:href="a01700.html" target="_top" xlink:title="Data Input/Output Port declaration of memory addresses, signal offsets and normalization settings.">
<polygon fill="white" stroke="black" points="300,-76.5 300,-95.5 384,-95.5 384,-76.5 300,-76.5"/>
<text text-anchor="middle" x="342" y="-83.5" font-family="Helvetica,sans-Serif" font-size="10.00">NPNZ_PORT_s</text>
</a>
</g>
</g>
<!-- Node7&#45;&gt;Node8 -->
<g id="edge8" class="edge">
<title>Node7&#45;&gt;Node8</title>
<path fill="none" stroke="midnightblue" d="M239.79,-86C259.5,-86 281.4,-86 299.76,-86"/>
<polygon fill="midnightblue" stroke="midnightblue" points="239.7,-82.5 229.7,-86 239.7,-89.5 239.7,-82.5"/>
</g>
</g>
</svg>
