<?xml version="1.0" encoding="UTF-8" standalone="no"?>
<!DOCTYPE svg PUBLIC "-//W3C//DTD SVG 1.1//EN"
 "http://www.w3.org/Graphics/SVG/1.1/DTD/svg11.dtd">
<!-- Generated by graphviz version 2.44.1 (20200629.0846)
 -->
<!-- Title: Graphical Class Hierarchy Pages: 1 -->
<svg width="285pt" height="104pt"
 viewBox="0.00 0.00 285.00 104.00" xmlns="http://www.w3.org/2000/svg" xmlns:xlink="http://www.w3.org/1999/xlink">
<g id="graph0" class="graph" transform="scale(1 1) rotate(0) translate(4 100)">
<title>Graphical Class Hierarchy</title>
<polygon fill="white" stroke="transparent" points="-4,4 -4,-100 281,-100 281,4 -4,4"/>
<!-- Node0 -->
<g id="node1" class="node">
<title>Node0</title>
<g id="a_node1"><a xlink:href="a01520.html" target="_top" xlink:title="This data structure is a collection of data structures for fault handling.">
<polygon fill="white" stroke="black" points="0,-38.5 0,-57.5 100,-57.5 100,-38.5 0,-38.5"/>
<text text-anchor="middle" x="50" y="-45.5" font-family="Helvetica,sans-Serif" font-size="10.00">FAULT_OBJECT_s</text>
</a>
</g>
</g>
<!-- Node1 -->
<g id="node2" class="node">
<title>Node1</title>
<g id="a_node2"><a xlink:href="a01512.html" target="_top" xlink:title="This data structure defines the data object which will be monitored by the fault handler.">
<polygon fill="white" stroke="black" points="136,-76.5 136,-95.5 277,-95.5 277,-76.5 136,-76.5"/>
<text text-anchor="middle" x="206.5" y="-83.5" font-family="Helvetica,sans-Serif" font-size="10.00">FLT_COMPARE_OBJECT_s</text>
</a>
</g>
</g>
<!-- Node0&#45;&gt;Node1 -->
<g id="edge1" class="edge">
<title>Node0&#45;&gt;Node1</title>
<path fill="none" stroke="midnightblue" d="M99.95,-60.04C121.54,-65.35 146.54,-71.5 166.79,-76.48"/>
<polygon fill="midnightblue" stroke="midnightblue" points="100.53,-56.58 89.99,-57.59 98.86,-63.38 100.53,-56.58"/>
</g>
<!-- Node2 -->
<g id="node3" class="node">
<title>Node2</title>
<g id="a_node3"><a xlink:href="a01516.html" target="_top" xlink:title="This data structure defines the fault monitor event response object.">
<polygon fill="white" stroke="black" points="136,-38.5 136,-57.5 277,-57.5 277,-38.5 136,-38.5"/>
<text text-anchor="middle" x="206.5" y="-45.5" font-family="Helvetica,sans-Serif" font-size="10.00">FLT_EVENT_RESPONSE_s</text>
</a>
</g>
</g>
<!-- Node0&#45;&gt;Node2 -->
<g id="edge2" class="edge">
<title>Node0&#45;&gt;Node2</title>
<path fill="none" stroke="midnightblue" d="M110.32,-48C118.66,-48 127.3,-48 135.82,-48"/>
<polygon fill="midnightblue" stroke="midnightblue" points="110.31,-44.5 100.31,-48 110.31,-51.5 110.31,-44.5"/>
</g>
<!-- Node3 -->
<g id="node4" class="node">
<title>Node3</title>
<g id="a_node4"><a xlink:href="a01500.html" target="_top" xlink:title="This data structure defines the fault object status.">
<polygon fill="white" stroke="black" points="142,-0.5 142,-19.5 271,-19.5 271,-0.5 142,-0.5"/>
<text text-anchor="middle" x="206.5" y="-7.5" font-family="Helvetica,sans-Serif" font-size="10.00">FLT_OBJECT_STATUS_s</text>
</a>
</g>
</g>
<!-- Node0&#45;&gt;Node3 -->
<g id="edge3" class="edge">
<title>Node0&#45;&gt;Node3</title>
<path fill="none" stroke="midnightblue" d="M99.95,-35.96C121.54,-30.65 146.54,-24.5 166.79,-19.52"/>
<polygon fill="midnightblue" stroke="midnightblue" points="98.86,-32.62 89.99,-38.41 100.53,-39.42 98.86,-32.62"/>
</g>
</g>
</svg>
