<?xml version="1.0" encoding="UTF-8" standalone="no"?>
<!DOCTYPE svg PUBLIC "-//W3C//DTD SVG 1.1//EN"
 "http://www.w3.org/Graphics/SVG/1.1/DTD/svg11.dtd">
<!-- Generated by graphviz version 2.44.1 (20200629.0846)
 -->
<!-- Title: Graphical Class Hierarchy Pages: 1 -->
<svg width="259pt" height="180pt"
 viewBox="0.00 0.00 259.00 180.00" xmlns="http://www.w3.org/2000/svg" xmlns:xlink="http://www.w3.org/1999/xlink">
<g id="graph0" class="graph" transform="scale(1 1) rotate(0) translate(4 176)">
<title>Graphical Class Hierarchy</title>
<polygon fill="white" stroke="transparent" points="-4,4 -4,-176 255,-176 255,4 -4,4"/>
<!-- Node0 -->
<g id="node1" class="node">
<title>Node0</title>
<g id="a_node1"><a xlink:href="a01576.html" target="_top" xlink:title="Global data structure for trap event capturing.">
<polygon fill="white" stroke="black" points="0,-76.5 0,-95.5 99,-95.5 99,-76.5 0,-76.5"/>
<text text-anchor="middle" x="49.5" y="-83.5" font-family="Helvetica,sans-Serif" font-size="10.00">TRAP_LOGGER_s</text>
</a>
</g>
</g>
<!-- Node1 -->
<g id="node2" class="node">
<title>Node1</title>
<g id="a_node2"><a xlink:href="a01536.html" target="_top" xlink:title="defining the CPU interrupt for primary and secondary vectors">
<polygon fill="white" stroke="black" points="146.5,-152.5 146.5,-171.5 239.5,-171.5 239.5,-152.5 146.5,-152.5"/>
<text text-anchor="middle" x="193" y="-159.5" font-family="Helvetica,sans-Serif" font-size="10.00">CPU_INTTREG_s</text>
</a>
</g>
</g>
<!-- Node0&#45;&gt;Node1 -->
<g id="edge1" class="edge">
<title>Node0&#45;&gt;Node1</title>
<path fill="none" stroke="midnightblue" d="M70.78,-102C87.33,-114.46 111.69,-131.52 135,-143 142.3,-146.59 150.44,-149.76 158.24,-152.43"/>
<polygon fill="midnightblue" stroke="midnightblue" points="72.52,-98.92 62.45,-95.61 68.26,-104.47 72.52,-98.92"/>
</g>
<!-- Node2 -->
<g id="node3" class="node">
<title>Node2</title>
<g id="a_node3"><a xlink:href="a01548.html" target="_top" xlink:title="Data structure for RCON status capturing.">
<polygon fill="white" stroke="black" points="153,-114.5 153,-133.5 233,-133.5 233,-114.5 153,-114.5"/>
<text text-anchor="middle" x="193" y="-121.5" font-family="Helvetica,sans-Serif" font-size="10.00">CPU_RCON_s</text>
</a>
</g>
</g>
<!-- Node0&#45;&gt;Node2 -->
<g id="edge2" class="edge">
<title>Node0&#45;&gt;Node2</title>
<path fill="none" stroke="midnightblue" d="M96.1,-98.25C115.61,-103.48 138.04,-109.51 156.3,-114.41"/>
<polygon fill="midnightblue" stroke="midnightblue" points="96.77,-94.8 86.21,-95.59 94.96,-101.56 96.77,-94.8"/>
</g>
<!-- Node3 -->
<g id="node4" class="node">
<title>Node3</title>
<g id="a_node4"><a xlink:href="a01572.html" target="_top" xlink:title="Provides information for executed task, fault event and operating mode ID of task manager.">
<polygon fill="white" stroke="black" points="153,-76.5 153,-95.5 233,-95.5 233,-76.5 153,-76.5"/>
<text text-anchor="middle" x="193" y="-83.5" font-family="Helvetica,sans-Serif" font-size="10.00">TASK_INFO_s</text>
</a>
</g>
</g>
<!-- Node0&#45;&gt;Node3 -->
<g id="edge3" class="edge">
<title>Node0&#45;&gt;Node3</title>
<path fill="none" stroke="midnightblue" d="M109.6,-86C124.1,-86 139.27,-86 152.58,-86"/>
<polygon fill="midnightblue" stroke="midnightblue" points="109.2,-82.5 99.2,-86 109.2,-89.5 109.2,-82.5"/>
</g>
<!-- Node4 -->
<g id="node5" class="node">
<title>Node4</title>
<g id="a_node5"><a xlink:href="a01560.html" target="_top" xlink:title="Data structure for RCON status capturing.">
<polygon fill="white" stroke="black" points="135,-38.5 135,-57.5 251,-57.5 251,-38.5 135,-38.5"/>
<text text-anchor="middle" x="193" y="-45.5" font-family="Helvetica,sans-Serif" font-size="10.00">TRAPLOG_STATUS_s</text>
</a>
</g>
</g>
<!-- Node0&#45;&gt;Node4 -->
<g id="edge4" class="edge">
<title>Node0&#45;&gt;Node4</title>
<path fill="none" stroke="midnightblue" d="M96.1,-73.75C115.61,-68.52 138.04,-62.49 156.3,-57.59"/>
<polygon fill="midnightblue" stroke="midnightblue" points="94.96,-70.44 86.21,-76.41 96.77,-77.2 94.96,-70.44"/>
</g>
<!-- Node5 -->
<g id="node6" class="node">
<title>Node5</title>
<g id="a_node6"><a xlink:href="a01524.html" target="_top" xlink:title="Defines the Trap Flag for primary and secondary vectors.">
<polygon fill="white" stroke="black" points="148,-0.5 148,-19.5 238,-19.5 238,-0.5 148,-0.5"/>
<text text-anchor="middle" x="193" y="-7.5" font-family="Helvetica,sans-Serif" font-size="10.00">TRAP_FLAGS_s</text>
</a>
</g>
</g>
<!-- Node0&#45;&gt;Node5 -->
<g id="edge5" class="edge">
<title>Node0&#45;&gt;Node5</title>
<path fill="none" stroke="midnightblue" d="M70.78,-70C87.33,-57.54 111.69,-40.48 135,-29 142.3,-25.41 150.44,-22.24 158.24,-19.57"/>
<polygon fill="midnightblue" stroke="midnightblue" points="68.26,-67.53 62.45,-76.39 72.52,-73.08 68.26,-67.53"/>
</g>
</g>
</svg>
