<?xml version="1.0" encoding="UTF-8" standalone="no"?>
<!DOCTYPE svg PUBLIC "-//W3C//DTD SVG 1.1//EN"
 "http://www.w3.org/Graphics/SVG/1.1/DTD/svg11.dtd">
<!-- Generated by graphviz version 2.44.1 (20200629.0846)
 -->
<!-- Title: Graphical Class Hierarchy Pages: 1 -->
<svg width="742pt" height="332pt"
 viewBox="0.00 0.00 742.00 332.00" xmlns="http://www.w3.org/2000/svg" xmlns:xlink="http://www.w3.org/1999/xlink">
<g id="graph0" class="graph" transform="scale(1 1) rotate(0) translate(4 328)">
<title>Graphical Class Hierarchy</title>
<polygon fill="white" stroke="transparent" points="-4,4 -4,-328 738,-328 738,4 -4,4"/>
<!-- Node0 -->
<g id="node1" class="node">
<title>Node0</title>
<g id="a_node1"><a xlink:href="a01664.html" target="_top" xlink:title="BUCK control &amp; monitoring data structure.">
<polygon fill="white" stroke="black" points="0,-152.5 0,-171.5 119,-171.5 119,-152.5 0,-152.5"/>
<text text-anchor="middle" x="59.5" y="-159.5" font-family="Helvetica,sans-Serif" font-size="10.00">BUCK_CONVERTER_s</text>
</a>
</g>
</g>
<!-- Node1 -->
<g id="node2" class="node">
<title>Node1</title>
<g id="a_node2"><a xlink:href="a01628.html" target="_top" xlink:title="Publicly accessible data buffer of most recent runtime data values.">
<polygon fill="white" stroke="black" points="171,-304.5 171,-323.5 321,-323.5 321,-304.5 171,-304.5"/>
<text text-anchor="middle" x="246" y="-311.5" font-family="Helvetica,sans-Serif" font-size="10.00">BUCK_CONVERTER_DATA_s</text>
</a>
</g>
</g>
<!-- Node0&#45;&gt;Node1 -->
<g id="edge1" class="edge">
<title>Node0&#45;&gt;Node1</title>
<path fill="none" stroke="midnightblue" d="M68.49,-181.12C81.84,-210.54 111.55,-266.5 155,-295 160.88,-298.85 167.39,-301.94 174.15,-304.42"/>
<polygon fill="midnightblue" stroke="midnightblue" points="71.54,-179.34 64.32,-171.58 65.12,-182.14 71.54,-179.34"/>
</g>
<!-- Node2 -->
<g id="node3" class="node">
<title>Node2</title>
<g id="a_node3"><a xlink:href="a01632.html" target="_top" xlink:title="Generic power controller control settings.">
<polygon fill="white" stroke="black" points="160,-266.5 160,-285.5 332,-285.5 332,-266.5 160,-266.5"/>
<text text-anchor="middle" x="246" y="-273.5" font-family="Helvetica,sans-Serif" font-size="10.00">BUCK_CONVERTER_SETTINGS_s</text>
</a>
</g>
</g>
<!-- Node0&#45;&gt;Node2 -->
<g id="edge2" class="edge">
<title>Node0&#45;&gt;Node2</title>
<path fill="none" stroke="midnightblue" d="M73.13,-179.99C89.45,-201.78 119.95,-237.94 155,-257 162.15,-260.89 170.03,-263.99 178.06,-266.45"/>
<polygon fill="midnightblue" stroke="midnightblue" points="75.76,-177.64 67.04,-171.62 70.1,-181.76 75.76,-177.64"/>
</g>
<!-- Node3 -->
<g id="node4" class="node">
<title>Node3</title>
<g id="a_node4"><a xlink:href="a01624.html" target="_top" xlink:title="Power Converter Startup Timing Settings.">
<polygon fill="white" stroke="black" points="161.5,-228.5 161.5,-247.5 330.5,-247.5 330.5,-228.5 161.5,-228.5"/>
<text text-anchor="middle" x="246" y="-235.5" font-family="Helvetica,sans-Serif" font-size="10.00">BUCK_CONVERTER_STARTUP_s</text>
</a>
</g>
</g>
<!-- Node0&#45;&gt;Node3 -->
<g id="edge3" class="edge">
<title>Node0&#45;&gt;Node3</title>
<path fill="none" stroke="midnightblue" d="M81.48,-177.48C99.95,-190.41 128.04,-208.37 155,-219 164.66,-222.81 175.21,-225.9 185.59,-228.41"/>
<polygon fill="midnightblue" stroke="midnightblue" points="83.4,-174.56 73.23,-171.6 79.33,-180.26 83.4,-174.56"/>
</g>
<!-- Node5 -->
<g id="node6" class="node">
<title>Node5</title>
<g id="a_node6"><a xlink:href="a01596.html" target="_top" xlink:title="Generic power controller status word.">
<polygon fill="white" stroke="black" points="165,-190.5 165,-209.5 327,-209.5 327,-190.5 165,-190.5"/>
<text text-anchor="middle" x="246" y="-197.5" font-family="Helvetica,sans-Serif" font-size="10.00">BUCK_CONVERTER_STATUS_s</text>
</a>
</g>
</g>
<!-- Node0&#45;&gt;Node5 -->
<g id="edge5" class="edge">
<title>Node0&#45;&gt;Node5</title>
<path fill="none" stroke="midnightblue" d="M116.87,-173.61C143.11,-179.01 173.94,-185.36 198.78,-190.48"/>
<polygon fill="midnightblue" stroke="midnightblue" points="117.56,-170.18 107.06,-171.59 116.15,-177.03 117.56,-170.18"/>
</g>
<!-- Node6 -->
<g id="node7" class="node">
<title>Node6</title>
<g id="a_node7"><a xlink:href="a01652.html" target="_top" xlink:title="Buck converter feedback declarations.">
<polygon fill="white" stroke="black" points="163.5,-152.5 163.5,-171.5 328.5,-171.5 328.5,-152.5 163.5,-152.5"/>
<text text-anchor="middle" x="246" y="-159.5" font-family="Helvetica,sans-Serif" font-size="10.00">BUCK_FEEDBACK_SETTINGS_s</text>
</a>
</g>
</g>
<!-- Node0&#45;&gt;Node6 -->
<g id="edge6" class="edge">
<title>Node0&#45;&gt;Node6</title>
<path fill="none" stroke="midnightblue" d="M129.18,-162C140.29,-162 151.88,-162 163.27,-162"/>
<polygon fill="midnightblue" stroke="midnightblue" points="129.13,-158.5 119.13,-162 129.13,-165.5 129.13,-158.5"/>
</g>
<!-- Node9 -->
<g id="node10" class="node">
<title>Node9</title>
<g id="a_node10"><a xlink:href="a01660.html" target="_top" xlink:title="GPIO instance of the converter control GPIO.">
<polygon fill="white" stroke="black" points="178,-114.5 178,-133.5 314,-133.5 314,-114.5 178,-114.5"/>
<text text-anchor="middle" x="246" y="-121.5" font-family="Helvetica,sans-Serif" font-size="10.00">BUCK_GPIO_SETTINGS_s</text>
</a>
</g>
</g>
<!-- Node0&#45;&gt;Node9 -->
<g id="edge9" class="edge">
<title>Node0&#45;&gt;Node9</title>
<path fill="none" stroke="midnightblue" d="M116.87,-150.39C143.11,-144.99 173.94,-138.64 198.78,-133.52"/>
<polygon fill="midnightblue" stroke="midnightblue" points="116.15,-146.97 107.06,-152.41 117.56,-153.82 116.15,-146.97"/>
</g>
<!-- Node11 -->
<g id="node12" class="node">
<title>Node11</title>
<g id="a_node12"><a xlink:href="a01636.html" target="_top" xlink:title="User defined settings for control loops;.">
<polygon fill="white" stroke="black" points="176.5,-76.5 176.5,-95.5 315.5,-95.5 315.5,-76.5 176.5,-76.5"/>
<text text-anchor="middle" x="246" y="-83.5" font-family="Helvetica,sans-Serif" font-size="10.00">BUCK_LOOP_SETTINGS_s</text>
</a>
</g>
</g>
<!-- Node0&#45;&gt;Node11 -->
<g id="edge11" class="edge">
<title>Node0&#45;&gt;Node11</title>
<path fill="none" stroke="midnightblue" d="M81.48,-146.52C99.95,-133.59 128.04,-115.63 155,-105 164.66,-101.19 175.21,-98.1 185.59,-95.59"/>
<polygon fill="midnightblue" stroke="midnightblue" points="79.33,-143.74 73.23,-152.4 83.4,-149.44 79.33,-143.74"/>
</g>
<!-- Node12 -->
<g id="node13" class="node">
<title>Node12</title>
<g id="a_node13"><a xlink:href="a01608.html" target="_top" xlink:title="data structure for the buck statement ID for sub&#45;operating and operating states">
<polygon fill="white" stroke="black" points="194,-38.5 194,-57.5 298,-57.5 298,-38.5 194,-38.5"/>
<text text-anchor="middle" x="246" y="-45.5" font-family="Helvetica,sans-Serif" font-size="10.00">BUCK_STATE_ID_s</text>
</a>
</g>
</g>
<!-- Node0&#45;&gt;Node12 -->
<g id="edge12" class="edge">
<title>Node0&#45;&gt;Node12</title>
<path fill="none" stroke="midnightblue" d="M73.13,-144.01C89.45,-122.22 119.95,-86.06 155,-67 166.78,-60.59 180.53,-56.34 193.67,-53.53"/>
<polygon fill="midnightblue" stroke="midnightblue" points="70.1,-142.24 67.04,-152.38 75.76,-146.36 70.1,-142.24"/>
</g>
<!-- Node13 -->
<g id="node14" class="node">
<title>Node13</title>
<g id="a_node14"><a xlink:href="a01640.html" target="_top" xlink:title="Switching signal timing settings.">
<polygon fill="white" stroke="black" points="155,-0.5 155,-19.5 337,-19.5 337,-0.5 155,-0.5"/>
<text text-anchor="middle" x="246" y="-7.5" font-family="Helvetica,sans-Serif" font-size="10.00">BUCK_SWITCH_NODE_SETTINGS_s</text>
</a>
</g>
</g>
<!-- Node0&#45;&gt;Node13 -->
<g id="edge13" class="edge">
<title>Node0&#45;&gt;Node13</title>
<path fill="none" stroke="midnightblue" d="M68.49,-142.88C81.84,-113.46 111.55,-57.5 155,-29 160.88,-25.15 167.39,-22.06 174.15,-19.58"/>
<polygon fill="midnightblue" stroke="midnightblue" points="65.12,-141.86 64.32,-152.42 71.54,-144.66 65.12,-141.86"/>
</g>
<!-- Node4 -->
<g id="node5" class="node">
<title>Node4</title>
<g id="a_node5"><a xlink:href="a01620.html" target="_top" xlink:title="Generic power controller startup period settings.">
<polygon fill="white" stroke="black" points="388,-223 388,-253 523,-253 523,-223 388,-223"/>
<text text-anchor="start" x="396" y="-241" font-family="Helvetica,sans-Serif" font-size="10.00">BUCK_STARTUP_PERIOD</text>
<text text-anchor="middle" x="455.5" y="-230" font-family="Helvetica,sans-Serif" font-size="10.00">_HANDLER_s</text>
</a>
</g>
</g>
<!-- Node3&#45;&gt;Node4 -->
<g id="edge4" class="edge">
<title>Node3&#45;&gt;Node4</title>
<path fill="none" stroke="midnightblue" d="M340.84,-238C356.66,-238 372.79,-238 387.74,-238"/>
<polygon fill="midnightblue" stroke="midnightblue" points="340.5,-234.5 330.5,-238 340.5,-241.5 340.5,-234.5"/>
</g>
<!-- Node7 -->
<g id="node8" class="node">
<title>Node7</title>
<g id="a_node8"><a xlink:href="a01648.html" target="_top" xlink:title="ADC input channel configuration.">
<polygon fill="white" stroke="black" points="373,-152.5 373,-171.5 538,-171.5 538,-152.5 373,-152.5"/>
<text text-anchor="middle" x="455.5" y="-159.5" font-family="Helvetica,sans-Serif" font-size="10.00">BUCK_ADC_INPUT_SETTINGS_s</text>
</a>
</g>
</g>
<!-- Node6&#45;&gt;Node7 -->
<g id="edge7" class="edge">
<title>Node6&#45;&gt;Node7</title>
<path fill="none" stroke="midnightblue" d="M339,-162C350.28,-162 361.75,-162 372.86,-162"/>
<polygon fill="midnightblue" stroke="midnightblue" points="338.71,-158.5 328.71,-162 338.71,-165.5 338.71,-158.5"/>
</g>
<!-- Node8 -->
<g id="node9" class="node">
<title>Node8</title>
<g id="a_node9"><a xlink:href="a01644.html" target="_top" xlink:title="ADC input signal scaling = (ADCBUF &#45; &lt;offset&gt;) * &lt;factor&gt; &gt;&gt; 2^&lt;scaler&gt;">
<polygon fill="white" stroke="black" points="574,-152.5 574,-171.5 734,-171.5 734,-152.5 574,-152.5"/>
<text text-anchor="middle" x="654" y="-159.5" font-family="Helvetica,sans-Serif" font-size="10.00">BUCK_ADC_INPUT_SCALING_s</text>
</a>
</g>
</g>
<!-- Node7&#45;&gt;Node8 -->
<g id="edge8" class="edge">
<title>Node7&#45;&gt;Node8</title>
<path fill="none" stroke="midnightblue" d="M548.15,-162C556.74,-162 565.38,-162 573.84,-162"/>
<polygon fill="midnightblue" stroke="midnightblue" points="548.13,-158.5 538.13,-162 548.13,-165.5 548.13,-158.5"/>
</g>
<!-- Node10 -->
<g id="node11" class="node">
<title>Node10</title>
<g id="a_node11"><a xlink:href="a01656.html" target="_top" xlink:title="GPIO instance of the converter control GPIO.">
<polygon fill="white" stroke="black" points="387,-114.5 387,-133.5 524,-133.5 524,-114.5 387,-114.5"/>
<text text-anchor="middle" x="455.5" y="-121.5" font-family="Helvetica,sans-Serif" font-size="10.00">BUCK_GPIO_INSTANCE_s</text>
</a>
</g>
</g>
<!-- Node9&#45;&gt;Node10 -->
<g id="edge10" class="edge">
<title>Node9&#45;&gt;Node10</title>
<path fill="none" stroke="midnightblue" d="M324.36,-124C344.91,-124 366.95,-124 386.94,-124"/>
<polygon fill="midnightblue" stroke="midnightblue" points="324.08,-120.5 314.08,-124 324.08,-127.5 324.08,-120.5"/>
</g>
</g>
</svg>
